<svg xmlns="http://www.w3.org/2000/svg" xmlns:xlink="http://www.w3.org/1999/xlink" version="1.1" x="0px" y="0px" viewBox="0 0 100 125" enable-background="new 0 0 100 100" xml:space="preserve"><g><g><g><path fill-rule="evenodd" clip-rule="evenodd" d="M50.012,94.34l-3.211-5.65c-3.533-6.276-15.461-27.395-19.184-34.215     c-2.695-5.107-5.996-13.553-5.996-20.447c0-15.619,12.77-28.367,28.365-28.367c15.627,0,28.393,12.748,28.393,28.367     c0,6.604-3.063,15.496-5.93,20.525c-4.807,8.365-19.225,34.07-19.346,34.209L50.012,94.34z M50.012,12.766L50.012,12.766     c-11.709,0-21.299,9.565-21.299,21.262c0,5.185,2.627,12.311,5.184,17.038c2.943,5.414,11.277,20.3,16.09,28.757     c4.633-8.309,12.832-22.816,16.238-28.829c2.34-4.144,4.967-11.845,4.967-16.966c0-5.715-2.219-10.957-6.209-15.021     c-4.025-4.008-9.355-6.24-14.996-6.24H50.012z"/></g></g><g><g><path fill-rule="evenodd" clip-rule="evenodd" d="M64.611,44.857H35.389v2.219h3.428v2.256h22.401v-2.256h3.394V44.857z      M43.042,24.277c-1.423,0.48-0.828,2.772,0.632,2.29c1.699-0.589,2.278-2.331,1.866-3.991c-0.167-0.733-0.624-1.425-0.969-2.118     h-2.604C42.151,21.012,44.118,23.889,43.042,24.277L43.042,24.277z M44.149,19.622c-0.128-0.452-0.165-0.902,0.214-1.148     c1.297-0.798,0.101-2.846-1.218-2.047c-1.151,0.694-1.526,1.944-1.375,3.195H44.149z M49.583,24.277     c-1.473,0.48-0.849,2.772,0.605,2.29c1.708-0.589,2.27-2.331,1.891-3.991c-0.221-0.733-0.629-1.425-1.012-2.118h-2.592     C48.671,21.012,50.624,23.889,49.583,24.277L49.583,24.277z M50.687,19.622c-0.148-0.452-0.18-0.902,0.201-1.148     c1.289-0.798,0.115-2.846-1.208-2.047c-1.141,0.694-1.578,1.944-1.396,3.195H50.687z M55.813,24.278     c-1.473,0.481-0.849,2.772,0.605,2.289c1.709-0.589,2.269-2.331,1.892-3.991c-0.222-0.732-0.631-1.425-1.012-2.118h-2.594     C54.902,21.012,56.854,23.889,55.813,24.278L55.813,24.278z M56.916,19.622c-0.146-0.452-0.179-0.903,0.202-1.148     c1.289-0.798,0.115-2.846-1.208-2.047c-1.14,0.695-1.578,1.944-1.396,3.195H56.916z"/></g></g><g><path fill-rule="evenodd" clip-rule="evenodd" d="M65.523,31.289c-1.098-1.218-2.506-1.81-3.928-1.722c0-0.004,0-0.004,0-0.009    H32.744c0,7.968,6.463,14.426,14.426,14.426c3.643,0,6.97-1.353,9.51-3.578c1.638,0.411,3.023,0.582,4.191,0.582    c3.375,0,4.925-1.417,5.614-2.497C67.979,36.154,67.108,33.038,65.523,31.289z M64.735,37.373    c-0.919,1.44-3.182,1.874-6.363,1.274c1.594-1.962,2.684-4.354,3.071-6.975c1.187-0.227,2.077,0.499,2.543,1.011    C65.063,33.878,65.64,35.956,64.735,37.373z"/></g></g><text x="0" y="115" fill="#000000" font-size="5px" font-weight="bold" font-family="'Helvetica Neue', Helvetica, Arial-Unicode, Arial, Sans-serif">Created by Ker'is</text><text x="0" y="120" fill="#000000" font-size="5px" font-weight="bold" font-family="'Helvetica Neue', Helvetica, Arial-Unicode, Arial, Sans-serif">from the Noun Project</text></svg>