<svg xmlns="http://www.w3.org/2000/svg" xmlns:xlink="http://www.w3.org/1999/xlink" version="1.1" x="0px" y="0px" viewBox="0 0 100 125" enable-background="new 0 0 100 100" xml:space="preserve"><path fill="#000000" d="M94.156,31.661v-0.286V19.914v-1.229l-1.203,0.25L7.593,36.677l-0.796,0.166v0.813v11.461v0.822l0.807,0.159  l30.803,6.054l4.255,4.634l0.183,0.199l0.259,0.08l8.021,2.465l10.443,17.62l0.839,1.415l0.87-1.396l30.727-49.266L94.156,31.661z   M8.047,37.96l30.625,6.042v10.929L8.047,48.912V37.96z M39.172,44.434l3.977,4.289v10.745l-3.977-4.331V44.434z M43.648,48.965  l7.891,2.446v10.938l-7.891-2.424V48.965z M62.68,69.273l30.227-48.486v10.518L62.68,79.769V69.273z M52.039,62.619V52.14  L62.18,69.271v10.457L52.039,62.619z"/></svg>