<svg xmlns="http://www.w3.org/2000/svg" xmlns:xlink="http://www.w3.org/1999/xlink" version="1.1" x="0px" y="0px" viewBox="0 0 168.292 351.41125" enable-background="new 0 0 168.292 281.129" xml:space="preserve"><path fill="salmon" d="M85.345,14.565c-41.833,0-75.746,33.912-75.746,75.745c0,63.254,75.477,175.766,75.746,175.756  c0.322-0.012,75.746-113.502,75.746-175.756C161.091,48.477,127.18,14.565,85.345,14.565z M84.891,78.756  c0,2.576-0.981,4.608-2.942,6.096c-1.967,1.491-4.3,2.233-7.012,2.233l1.625,69.27c0,2.575-0.78,4.505-2.332,5.788  c-1.56,1.289-3.254,1.932-5.079,1.932c-1.83,0-3.493-0.645-4.976-1.932c-1.491-1.283-2.233-3.216-2.233-5.788l1.623-69.27  c-2.981,0-5.284-0.742-6.908-2.233c-1.625-1.488-2.438-3.587-2.438-6.296V45.649c0-1.221,0.339-2.099,1.018-2.642  c0.677-0.54,1.386-0.812,2.134-0.812c0.742,0,1.454,0.271,2.134,0.812c0.675,0.543,1.014,1.421,1.014,2.639v19.299  c0,1.626,0.306,2.842,0.916,3.656c0.608,0.811,1.318,1.218,2.132,1.218c0.814,0,1.526-0.407,2.135-1.218  c0.609-0.813,0.917-2.03,0.917-3.656V45.646c0-1.218,0.305-2.096,0.916-2.64c0.607-0.54,1.25-0.812,1.929-0.812  c0.677,0,1.321,0.271,1.931,0.812c0.611,0.544,0.919,1.421,0.919,2.64v19.299c0,1.626,0.335,2.842,1.014,3.656  c0.679,0.811,1.456,1.218,2.337,1.218c0.877,0,1.656-0.371,2.335-1.118c0.674-0.743,1.015-1.931,1.015-3.555V45.851h-0.021  c0-1.22,0.305-2.133,0.914-2.744c0.61-0.61,1.287-0.913,2.032-0.913c0.745,0,1.425,0.302,2.035,0.913  c0.608,0.611,0.915,1.524,0.915,2.744V78.756z M114.548,156.559c0,2.032-0.344,3.59-1.021,4.671  c-0.679,1.088-1.488,1.866-2.436,2.337c-0.948,0.475-2,0.71-3.148,0.708c-1.151,0-2.134-0.134-2.944-0.406  c-1.488-0.68-2.711-1.728-3.656-3.149c-0.95-1.425-1.628-3.891-2.035-7.414c-0.405-3.521-0.543-8.398-0.405-14.626  c0.136-6.23,0.608-14.424,1.422-24.581c-2.304,0.407-4.265-0.409-5.888-2.436c-1.629-2.033-2.309-4.804-2.037-8.329l2.645-49.361  c0-4.062,0.877-7.009,2.641-8.835c1.757-1.828,4.67-2.741,8.733-2.741c5.416,0,8.13,2.773,8.13,8.33V156.559z"/></svg>