<?xml version="1.0" encoding="iso-8859-1"?>
<!-- Generator: Adobe Illustrator 19.0.0, SVG Export Plug-In . SVG Version: 6.00 Build 0)  -->
<svg xmlns="http://www.w3.org/2000/svg" xmlns:xlink="http://www.w3.org/1999/xlink" version="1.1" id="Capa_1" x="0px" y="0px" viewBox="0 0 511.999 511.999" style="enable-background:new 0 0 511.999 511.999;" xml:space="preserve">
<path style="fill:#4E342E;" d="M467.036,213.709c-2.904,2.221-5.808,4.356-8.711,6.576c-6.747,5.039-13.409,10.163-19.643,15.8  l-30.319,27.159c-5.893,5.295-11.7,10.676-17.337,16.227l-0.427,0.427c-41.011,40.285-75.839,86.421-103.339,136.903l-1.793,3.331  c-9.83,18.268-23.811,33.982-40.823,45.862c-65.42,45.777-165.429,24.511-212.657-60.979c-1.537-2.904-3.075-5.893-4.612-8.882  C-5.08,329.688,5.34,255.045,46.675,206.45c12.008-14.169,26.621-25.912,43.044-34.589L352.338,32.908  c46.46-24.596,107.951-4.868,136.476,46.887C515.29,127.963,504.871,185.184,467.036,213.709z"/>
<path style="fill:#795548;" d="M458.325,220.285c-4.894,6.465-10.641,12.238-17.081,17.166  c-9.565,7.259-19.301,14.348-28.269,22.376l-21.949,19.643l-0.427,0.427l-7.943,7.089c-48.809,43.932-89.76,95.858-121.104,153.557  l-1.793,3.245c-4.279,7.891-9.343,15.33-15.117,22.205c-65.42,45.777-165.429,24.511-212.657-60.979  c-1.537-2.904-3.075-5.893-4.612-8.882C-5.08,329.688,5.34,255.045,46.675,206.45c5.517-4.023,11.308-7.644,17.337-10.846  L326.631,56.65c46.46-24.596,107.951-4.868,136.391,46.887C484.416,140.031,482.58,185.637,458.325,220.285z"/>
<path d="M168.531,498.132c-60.612-1.273-115.757-35.357-143.992-89.009c-1.665-3.015-3.271-6.098-4.808-9.224  c-42.993-87.907-13.374-193.595,66.009-235.597L348.341,25.384c51.354-27.176,117.713-4.612,147.921,50.32  c28.081,51.046,17.704,113.323-24.127,144.846l0,0l-4.091,3.075c-8.353,6.252-16.218,12.162-23.666,18.832l-30.293,27.167  c-48.091,43.292-88.453,94.466-119.361,151.311l-1.776,3.271c-24.494,45.734-72.261,74.174-124.135,73.926L168.531,498.132z   M395.254,30.926c-13.562-0.051-26.928,3.237-38.919,9.557L93.733,179.402c-71.33,37.74-97.643,133.282-58.656,212.99  c1.401,2.878,2.87,5.696,4.407,8.464c25.228,48.202,74.644,78.914,129.038,80.195h0.256c45.726,0.564,87.907-24.562,109.181-65.036  l1.776-3.271c31.83-58.545,73.405-111.248,122.94-155.829l30.293-27.167c8.002-7.174,16.551-13.588,24.819-19.788l4.074-3.049  c35.093-26.45,43.454-79.315,19.438-122.965C464.312,52.004,431.414,31.738,395.254,30.926z"/>
<path style="fill:#C52828;" d="M458.325,96.534c-4.552-8.353-10.573-15.817-17.764-22.034  c-11.735-10.445-26.604-16.688-42.275-17.764c-10.402-0.632-20.77,1.614-29.977,6.491L105.69,202.094  c-25.024,13.588-44.171,35.896-53.805,62.687c9.668-12.623,21.923-23.017,35.955-30.489L350.374,95.424  c9.249-4.834,19.643-7.071,30.062-6.491c15.672,1.076,30.541,7.319,42.275,17.764c21.787,19.156,32.018,48.288,26.988,76.864  C471.477,164.089,475.406,127.621,458.325,96.534z"/>
<path style="fill:#F44335;" d="M440.476,128.732c-4.578-8.335-10.59-15.791-17.764-22.034  c-11.735-10.445-26.604-16.688-42.275-17.764c-10.419-0.581-20.805,1.657-30.062,6.491L87.84,234.292  c-14.032,7.473-26.296,17.867-35.955,30.489c-13.34,36.767-11.504,77.334,5.124,112.734c0.512,1.11,1.025,2.306,1.623,3.331  c1.196,2.562,2.477,4.953,3.758,7.345c7.259,13.374,16.662,25.459,27.842,35.784c11.624,10.77,25.271,19.131,40.14,24.597  c14.681,5.398,30.344,7.61,45.948,6.491c13.596-0.965,26.851-4.714,38.944-11.017c5.611-2.989,10.906-6.533,15.8-10.59  c9.813-8.139,17.935-18.123,23.913-29.379l1.879-3.245c33.248-61.218,76.719-116.304,128.534-162.866l4.868-4.356l25.365-22.888  c8.967-7.857,18.02-14.69,26.732-21.266l3.929-2.989c1.196-0.863,2.34-1.811,3.416-2.818v-0.085  C453.15,164.772,449.879,145.36,440.476,128.732z M179.052,347.026c-0.196,0.188-0.427,0.333-0.683,0.427  c-16.756,8.874-37.535,2.63-46.631-14.006c-2.297-4.296-3.613-9.053-3.843-13.921c-0.248-4.125,0.248-8.259,1.452-12.213  c2.835-8.737,8.959-16.03,17.081-20.326c10.974-5.859,24.246-5.372,34.76,1.281c5.073,3.066,9.207,7.473,11.957,12.725  C201.762,317.612,195.501,338.075,179.052,347.026z"/>
<path d="M168.787,463.893c-14.075-0.017-28.047-2.468-41.285-7.259c-15.962-5.825-30.6-14.801-43.035-26.381  c-11.863-10.932-21.846-23.742-29.541-37.92c-1.58-2.981-2.801-5.304-3.988-7.721c-0.538-1.008-1.162-2.374-1.717-3.664  c-32.394-70.245-8.865-153.925,52.507-186.404L364.295,55.642c10.59-5.551,22.487-8.131,34.427-7.464  c17.576,1.196,34.264,8.173,47.459,19.839l0.009,0.009c7.926,6.909,14.57,15.159,19.634,24.374  c19.942,36.263,13.759,79.64-14.391,100.897l-3.963,2.972c-8.079,6.072-17.26,12.956-26.219,20.873l-30.131,27.133  c-23.742,21.351-45.76,44.556-65.847,69.383c-22.965,28.551-43.368,59.083-60.962,91.229l-1.811,3.288  c-6.542,12.196-15.373,23.025-26.006,31.882c-5.338,4.424-11.12,8.293-17.252,11.547c-13.127,6.884-27.534,10.974-42.318,11.999  C174.227,463.799,171.503,463.893,168.787,463.893z M395.126,65.174c-7.951-0.026-15.791,1.887-22.837,5.568L109.721,209.644  C56.224,237.947,36.068,311.651,64.79,373.937c0.47,1.059,0.897,2.041,1.366,2.929c1.23,2.494,2.366,4.672,3.51,6.832  c6.849,12.708,15.757,24.187,26.356,33.982c10.778,10.052,23.461,17.832,37.296,22.897c13.554,4.902,27.979,6.943,42.369,6.004  c12.426-0.863,24.537-4.296,35.571-10.069c5.107-2.707,9.924-5.936,14.374-9.625c8.959-7.481,16.389-16.628,21.889-26.919  l1.819-3.297c18.08-33.026,39.038-64.395,62.636-93.731c20.651-25.527,43.283-49.381,67.7-71.338l30.208-27.201  c9.531-8.429,19.003-15.527,27.338-21.795l3.946-2.955c21.394-16.167,25.57-50.141,9.693-79.025  c-4.091-7.447-9.463-14.126-15.868-19.711l0,0c-10.325-9.172-23.392-14.689-37.177-15.672  C396.911,65.199,396.014,65.174,395.126,65.174L395.126,65.174z M162.381,360.024c-0.512,0-1.025-0.009-1.546-0.034  c-23.401-0.418-42.028-19.728-41.609-43.129c0.077-4.091,0.743-8.156,1.981-12.059c7.259-22.914,31.728-35.605,54.642-28.346  c3.476,1.102,6.798,2.639,9.898,4.569c6.311,3.894,11.461,9.403,14.92,15.962c10.915,21.257,2.537,47.34-18.721,58.254  C175.892,358.359,169.188,359.99,162.381,360.024z M162.732,291.478c-11.538,0.026-21.744,7.49-25.246,18.482  c-2.041,6.482-1.409,13.502,1.759,19.515v0.009c6.952,12.435,22.547,17.064,35.153,10.436c12.717-6.576,17.713-22.205,11.171-34.939  c-2.033-3.894-5.09-7.165-8.848-9.437C172.545,292.879,167.694,291.47,162.732,291.478L162.732,291.478z"/>
<path d="M57.095,386.269c-0.871,0-1.742-0.137-2.579-0.401c-4.492-1.418-6.986-6.217-5.568-10.71v-0.009l56.828-179.529  c1.426-4.492,6.217-6.986,10.718-5.56c4.501,1.426,6.986,6.217,5.56,10.718l-56.82,179.529  C64.115,383.861,60.818,386.269,57.095,386.269z"/>
<path d="M90.283,432.678c-0.871,0-1.742-0.137-2.579-0.401c-4.492-1.418-6.986-6.217-5.568-10.71v-0.009l81.151-256.359  c1.426-4.492,6.217-6.986,10.718-5.56c4.501,1.426,6.986,6.217,5.56,10.718L98.413,426.716  C97.303,430.261,94.007,432.678,90.283,432.678z"/>
<path d="M181.068,297.115c-0.871,0-1.742-0.137-2.579-0.401c-4.492-1.418-6.986-6.217-5.568-10.71v-0.009l47.869-151.217  c1.426-4.492,6.217-6.986,10.718-5.56s6.986,6.217,5.56,10.718l0,0l-47.869,151.217  C188.088,294.698,184.792,297.115,181.068,297.115z"/>
<path d="M130.372,457.266c-0.871,0-1.742-0.137-2.579-0.401c-4.492-1.418-6.986-6.217-5.568-10.71v-0.009l30.711-97.011  c1.426-4.492,6.217-6.986,10.718-5.56c4.492,1.426,6.986,6.217,5.56,10.718l0,0l-30.711,97.011  C137.392,454.849,134.096,457.266,130.372,457.266z"/>
<path d="M176.2,463.756c-0.871,0-1.742-0.137-2.579-0.401c-4.492-1.418-6.986-6.217-5.568-10.71v-0.009l110.24-348.271  c1.426-4.492,6.217-6.986,10.718-5.56c4.492,1.426,6.986,6.217,5.56,10.718l0,0L184.339,457.787  C183.212,461.339,179.924,463.748,176.2,463.756z"/>
<path d="M230.91,442.149c-0.871,0-1.742-0.137-2.579-0.401c-4.492-1.418-6.986-6.217-5.568-10.71v-0.009L335.804,73.936  c1.426-4.492,6.217-6.986,10.718-5.56c4.492,1.426,6.986,6.217,5.56,10.718l0,0L239.049,436.188  C237.922,439.741,234.634,442.149,230.91,442.149z"/>
<path d="M318.629,316.835c-0.871,0-1.742-0.137-2.579-0.401c-4.492-1.418-6.986-6.217-5.568-10.71v-0.009L390.13,54.148  c1.409-4.501,6.192-7.012,10.693-5.603c4.501,1.409,7.012,6.192,5.603,10.693c-0.009,0.017-0.009,0.043-0.017,0.06l-79.631,251.576  C325.649,314.427,322.353,316.835,318.629,316.835z"/>
<path d="M390.224,242.106c-0.871,0-1.742-0.137-2.579-0.401c-4.492-1.418-6.986-6.217-5.568-10.71v-0.009l50.354-159.091  c1.426-4.492,6.217-6.986,10.718-5.56c4.492,1.426,6.986,6.217,5.56,10.718l-50.346,159.091  C397.244,239.698,393.947,242.106,390.224,242.106z"/>
<g>
</g>
<g>
</g>
<g>
</g>
<g>
</g>
<g>
</g>
<g>
</g>
<g>
</g>
<g>
</g>
<g>
</g>
<g>
</g>
<g>
</g>
<g>
</g>
<g>
</g>
<g>
</g>
<g>
</g>
</svg>
