<?xml version="1.0" encoding="iso-8859-1"?>
<!-- Generator: Adobe Illustrator 19.0.0, SVG Export Plug-In . SVG Version: 6.00 Build 0)  -->
<svg xmlns="http://www.w3.org/2000/svg" xmlns:xlink="http://www.w3.org/1999/xlink" version="1.1" id="Capa_1" x="0px" y="0px" viewBox="0 0 511.992 511.992" style="enable-background:new 0 0 511.992 511.992;" xml:space="preserve">
<g>
	<path style="fill:#AD1457;" d="M238.41,117.214h-34.929L191.81,53.88c-0.85-4.609-5.252-7.672-9.869-6.866l-93.114,16.22   c-0.996,0.172-2,0.257-3.004,0.257c-9.474-0.051-17.121-7.784-17.07-17.267c0.051-8.282,5.999-15.345,14.152-16.803L184.43,11.742   l16.906-2.918c9.303-1.605,18.159,4.609,19.824,13.903l2.918,16.992L238.41,117.214z"/>
	<path style="fill:#AD1457;" d="M302.604,466.586c-0.103,9.483-7.878,17.095-17.37,16.984c-8.213-0.094-15.216-5.99-16.701-14.066   L244.16,337.428c11.526-0.738,22.837-3.527,33.384-8.239l24.716,134.136C302.466,464.406,302.578,465.496,302.604,466.586z"/>
</g>
<g>
	<path style="fill:#1566C0;" d="M213.008,168.706l31.153,168.721c-2.317,0.172-4.548,0.257-6.866,0.257   c-2.918,0-5.836-0.086-8.668-0.343c-2.832-0.257-5.578-0.601-8.41-1.116l-1.545-0.257c-1.588-0.249-3.167-0.592-4.72-1.03   c-1.622-0.335-3.227-0.764-4.806-1.287c-1.716-0.455-3.407-0.996-5.063-1.631c-2.454-0.832-4.866-1.802-7.209-2.918h-0.086   c-2.317-1.03-4.634-2.231-6.78-3.433c-0.154-0.069-0.3-0.155-0.429-0.257c-2.103-1.167-4.137-2.454-6.093-3.862   c-0.137,0-0.257-0.069-0.343-0.172c-2.06-1.373-4.034-2.918-5.922-4.463l-0.944,0.086l-7.638-148.296L213.008,168.706   L213.008,168.706z"/>
	<path style="fill:#1566C0;" d="M426.098,168.706l-7.638,148.296l-0.944-0.086c-1.914-1.605-3.922-3.09-6.007-4.463   c-1.776-1.304-3.639-2.48-5.578-3.519c-0.335-0.292-0.704-0.524-1.116-0.687c-0.309-0.24-0.652-0.412-1.03-0.515   c-1.802-1.03-3.604-1.974-5.492-2.832c-0.12-0.112-0.266-0.172-0.429-0.172c-1.931-0.901-3.905-1.708-5.922-2.403   c-0.781-0.335-1.588-0.626-2.403-0.858c-1.459-0.515-3.004-1.03-4.548-1.459c-2.171-0.678-4.377-1.219-6.608-1.631   c-2.231-0.532-4.497-0.935-6.78-1.201c-2.317-0.343-4.634-0.601-7.037-0.772c-2.317-0.172-4.72-0.257-7.123-0.257   c-2.918,0-5.836,0.086-8.668,0.343c-2.489,0.257-4.978,0.515-7.466,0.944c-0.841,0.094-1.665,0.24-2.489,0.429   c-1.588,0.249-3.167,0.592-4.72,1.03c-1.373,0.257-2.66,0.687-4.034,1.03c-1.974,0.515-3.948,1.201-5.836,1.888   c-2.454,0.832-4.866,1.802-7.209,2.918h-0.086c-2.317,1.03-4.634,2.231-6.78,3.433c-0.155,0.069-0.3,0.155-0.429,0.257   c-2.145,1.201-4.119,2.489-6.093,3.862c-0.137,0-0.257,0.069-0.343,0.172c-2.06,1.373-4.034,2.918-5.922,4.463   c-6.007,4.986-12.684,9.114-19.824,12.272l-29.694-160.483L426.098,168.706L426.098,168.706z"/>
</g>
<g>
	<path style="fill:#2296F3;" d="M213.008,168.706l31.153,168.721c-2.317,0.172-4.548,0.257-6.866,0.257   c-2.918,0-5.836-0.086-8.668-0.343c-2.832-0.257-5.578-0.601-8.41-1.116l-1.545-0.257c-1.588-0.249-3.167-0.592-4.72-1.03   c-1.622-0.335-3.227-0.764-4.806-1.287c-1.716-0.455-3.407-0.996-5.063-1.631c-2.454-0.832-4.866-1.802-7.209-2.918h-0.086   c-2.317-1.03-4.634-2.231-6.78-3.433c-0.154-0.069-0.3-0.155-0.429-0.257c-2.103-1.167-4.137-2.454-6.093-3.862   c-0.137,0-0.257-0.069-0.343-0.172c-2.06-1.373-4.034-2.918-5.922-4.463l-0.944,0.086l-7.638-148.296L213.008,168.706   L213.008,168.706z"/>
	<path style="fill:#2296F3;" d="M391.77,168.706l-6.78,131.304c-2.171-0.678-4.377-1.219-6.608-1.631   c-2.231-0.532-4.497-0.935-6.78-1.201c-2.317-0.343-4.634-0.601-7.037-0.772c-2.317-0.172-4.72-0.257-7.123-0.257   c-2.918,0-5.836,0.086-8.668,0.343c-2.489,0.257-4.978,0.515-7.466,0.944c-0.841,0.094-1.665,0.24-2.489,0.429   c-1.588,0.249-3.167,0.592-4.72,1.03c-1.373,0.257-2.66,0.687-4.034,1.03c-1.974,0.515-3.948,1.201-5.836,1.888   c-2.454,0.832-4.866,1.802-7.209,2.918h-0.086c-2.317,1.03-4.634,2.231-6.78,3.433c-0.155,0.069-0.3,0.155-0.429,0.257   c-2.145,1.201-4.119,2.489-6.093,3.862c-0.137,0-0.257,0.069-0.343,0.172c-2.06,1.373-4.034,2.918-5.922,4.463   c-6.007,4.986-12.684,9.114-19.824,12.272l-29.694-160.483L391.77,168.706L391.77,168.706z"/>
</g>
<path d="M237.295,346.276c-3.167,0-6.342-0.103-9.432-0.378c-3.107-0.283-6.11-0.661-9.2-1.236l0.009-8.694l-1.347,8.47  c-1.914-0.3-3.802-0.712-5.664-1.236c-1.776-0.369-3.519-0.85-5.235-1.425c-1.785-0.472-3.544-1.038-5.269-1.699  c-2.489-0.85-4.926-1.828-7.32-2.926c-0.18-0.069-0.352-0.137-0.532-0.206c-2.557-1.141-5.115-2.463-7.475-3.785l-0.455-0.266  c-2.18-1.21-4.291-2.54-6.325-3.982c-0.232-0.12-0.455-0.257-0.669-0.403h-0.009c-1.528-1.021-3.021-2.128-4.471-3.261  c-3.519-1.021-5.999-4.145-6.196-7.801l-7.638-148.296c-0.24-4.737,3.416-8.779,8.153-9.02c0.137-0.009,0.275-0.009,0.421-0.009  h44.369c4.137,0,7.689,2.952,8.436,7.02l31.153,168.721c0.858,4.66-2.223,9.14-6.883,9.998c-0.309,0.06-0.618,0.094-0.935,0.12  C242.264,346.173,239.818,346.276,237.295,346.276z M199.732,321.019c0.292,0.103,0.575,0.215,0.858,0.352  c2.051,0.961,4.162,1.819,6.308,2.549c1.416,0.541,2.858,1.013,4.317,1.399c1.476,0.489,2.987,0.901,4.506,1.227  c1.416,0.395,2.849,0.712,4.3,0.953c0.069,0.009,1.673,0.266,1.742,0.283c2.575,0.472,5.072,0.781,7.655,1.013  c1.459,0.137,2.961,0.215,4.471,0.257l-28.02-151.772h-28.192l6.934,134.548c0.918,0.721,1.871,1.433,2.841,2.094  c0.378,0.206,0.747,0.429,1.098,0.678c1.665,1.21,3.407,2.317,5.209,3.313c0.197,0.112,0.395,0.223,0.575,0.352  C196.282,319.337,198.015,320.238,199.732,321.019z"/>
<path d="M277.544,337.78c-1.39,0-2.763-0.335-3.991-0.987c-2.334-1.219-3.973-3.45-4.454-6.033l-29.685-160.483  c-0.858-4.66,2.223-9.14,6.883-9.998c0.515-0.094,1.03-0.146,1.553-0.146h178.247c4.746,0.009,8.591,3.862,8.582,8.608  c0,0.137,0,0.283-0.009,0.421l-7.638,148.296c-0.249,4.737-4.291,8.376-9.028,8.127c-0.129-0.009-0.249-0.017-0.378-0.026  l-0.944-0.094c-1.691-0.163-3.287-0.815-4.6-1.897c-1.656-1.399-3.398-2.695-5.201-3.879c-1.57-1.159-3.218-2.206-4.926-3.141  c-0.395-0.206-0.772-0.438-1.124-0.704l-0.24-0.137c-0.36-0.146-0.712-0.309-1.047-0.506c-1.562-0.893-3.098-1.708-4.737-2.446  l-0.489-0.197c-1.665-0.781-3.364-1.476-5.098-2.077c-0.712-0.309-1.442-0.566-2.18-0.79c-1.622-0.558-2.995-1.021-4.351-1.399  c-1.94-0.609-3.922-1.098-5.922-1.468c-2.017-0.489-4.059-0.858-6.119-1.107c-2.412-0.352-4.514-0.584-6.711-0.747  c-4.797-0.352-9.612-0.335-14.401,0.077c-2.171,0.223-4.471,0.463-6.78,0.858c-0.712,0.077-1.416,0.197-2.111,0.36  c-1.433,0.223-2.849,0.523-4.248,0.91c-1.347,0.283-1.965,0.472-2.592,0.635l-1.639,0.446c-1.656,0.429-3.373,1.03-4.995,1.622  c-2.188,0.747-4.342,1.605-6.436,2.592c-0.292,0.146-0.592,0.266-0.893,0.369c-1.888,0.867-3.759,1.854-5.501,2.823l0,0  c-0.146,0.094-0.283,0.18-0.438,0.257c-1.845,1.047-3.63,2.18-5.355,3.407c-0.309,0.206-0.627,0.403-0.953,0.575  c-1.656,1.141-3.261,2.394-4.797,3.656c-6.591,5.475-13.92,10.007-21.755,13.465C279.947,337.522,278.746,337.771,277.544,337.78z   M258.175,177.288l25.677,138.856c2.798-1.751,5.467-3.69,8.007-5.801c2.18-1.785,4.377-3.493,6.651-5.02h0.009  c0.24-0.163,0.498-0.309,0.755-0.455c2.008-1.382,4.034-2.686,6.222-3.913c0.318-0.197,0.644-0.378,0.978-0.541  c1.871-1.064,4.428-2.386,6.977-3.527c0.18-0.077,0.36-0.154,0.541-0.215c2.42-1.116,4.892-2.103,7.415-2.961  c2.017-0.738,4.265-1.51,6.514-2.085l1.27-0.343c1.09-0.309,2.18-0.601,3.313-0.815c1.631-0.463,3.287-0.824,4.96-1.073  c0.987-0.232,2-0.395,3.012-0.498c2.051-0.378,4.729-0.661,7.406-0.935c5.75-0.498,11.543-0.541,17.301-0.112  c2.626,0.189,5.149,0.463,7.681,0.841c2.514,0.3,5.003,0.747,7.458,1.339c2.463,0.455,4.892,1.056,7.286,1.811  c1.407,0.378,3.141,0.953,4.78,1.536c1.038,0.309,2.06,0.687,3.047,1.124c1.991,0.678,3.939,1.459,5.844,2.351  c0.18,0.077,0.369,0.154,0.541,0.24v-0.009c1.914,0.858,3.733,1.802,5.544,2.815c0.601,0.249,1.184,0.549,1.734,0.893  c0.541,0.266,1.056,0.584,1.553,0.927l6.411-124.438H258.175V177.288z M399.674,315.123c0.103,0.077,0.197,0.154,0.309,0.215  C399.872,315.269,399.769,315.192,399.674,315.123z M399.872,315.003L399.872,315.003L399.872,315.003z"/>
<path style="fill:#FFB301;" d="M418.46,317.003l-8.754,171.21c-0.781,8.814-8.316,15.49-17.164,15.19H202.195  c-8.848,0.3-16.383-6.376-17.164-15.19l-7.895-154.132l-0.858-17.078l0.944-0.086c12.504,10.195,27.488,16.889,43.425,19.395  c5.501,0.935,11.071,1.399,16.649,1.373c21.833,0.266,43.073-7.08,60.074-20.768c12.504-10.195,27.488-16.889,43.425-19.395  c5.501-0.935,11.071-1.399,16.649-1.373c21.833-0.266,43.073,7.08,60.074,20.768L418.46,317.003z"/>
<path style="fill:#FEC108;" d="M385.076,317.003l-8.754,171.21c-0.781,8.822-8.316,15.49-17.164,15.19H202.195  c-8.848,0.3-16.383-6.376-17.164-15.19l-7.895-154.132c8.719,2.394,17.73,3.613,26.776,3.604c5.604-0.017,11.199-0.472,16.735-1.373  c5.501,0.935,11.071,1.399,16.649,1.373c21.833,0.266,43.073-7.08,60.074-20.768c12.504-10.195,27.488-16.889,43.425-19.395  c15.894,2.566,30.835,9.251,43.339,19.395L385.076,317.003z"/>
<path d="M392.543,511.985H202.195c-13.431,0.318-24.742-9.947-25.737-23.343l-8.754-171.202c-0.232-4.583,3.175-8.53,7.741-8.977  l0.944-0.094c2.283-0.215,4.557,0.481,6.325,1.948c15.448,12.435,34.748,19.078,54.573,18.786  c19.824,0.292,39.134-6.351,54.573-18.786c37.795-29.797,90.926-30.389,129.373-1.433c3.622,1.244,5.982,4.737,5.793,8.556  l-8.762,171.21C417.284,502.047,405.965,512.302,392.543,511.985z M185.7,333.128l7.913,154.656  c0.601,4.222,4.334,7.286,8.591,7.037h190.348c4.257,0.249,7.99-2.815,8.591-7.029l8.505-166.19  c-32.054-23.18-75.564-22.408-106.768,1.914c-18.537,15.001-41.725,23.051-65.575,22.759  C219.255,346.387,201.482,341.865,185.7,333.128z"/>
<g>
	<path style="fill:#1566C0;" d="M203.482,117.214l9.526,51.492h-44.369c-7.526-0.009-14.169-4.909-16.392-12.101   c-0.197-0.532-0.335-1.073-0.429-1.631c-0.249-1.124-0.36-2.283-0.343-3.433v-17.164c-0.017-1.15,0.094-2.309,0.343-3.433   c0.094-0.558,0.232-1.098,0.429-1.631c2.223-7.192,8.865-12.092,16.392-12.101C168.639,117.214,203.482,117.214,203.482,117.214z"/>
	<path style="fill:#1566C0;" d="M443.262,134.378v17.164c-0.026,9.466-7.698,17.138-17.164,17.164H247.851l-9.44-51.492h187.688   C435.573,117.249,443.236,124.912,443.262,134.378z"/>
</g>
<g>
	<path style="fill:#2296F3;" d="M203.482,117.214l9.526,51.492h-46.428c-6.986-0.275-12.89-5.261-14.332-12.101   c-0.197-0.532-0.335-1.073-0.429-1.631c-0.249-1.124-0.36-2.283-0.343-3.433v-17.164c-0.017-1.15,0.094-2.309,0.343-3.433   c0.094-0.558,0.232-1.098,0.429-1.631c1.442-6.84,7.346-11.826,14.332-12.101C166.579,117.214,203.482,117.214,203.482,117.214z"/>
	<path style="fill:#2296F3;" d="M408.934,134.378v17.164c0.515,8.891-6.222,16.537-15.104,17.164H247.851l-9.44-51.492H393.83   C402.721,117.841,409.449,125.487,408.934,134.378z"/>
</g>
<path d="M213.008,177.288h-44.369c-11.285-0.051-21.24-7.406-24.605-18.177c-0.326-0.953-0.558-1.94-0.712-2.935  c-0.318-1.519-0.463-3.081-0.429-4.634v-17.164c-0.026-1.802,0.163-3.613,0.558-5.372c0.137-0.781,0.343-1.553,0.609-2.3  c3.39-10.727,13.319-18.039,24.57-18.074h34.851c4.137,0,7.689,2.952,8.436,7.02l9.517,51.492c0.858,4.66-2.223,9.14-6.883,9.998  C214.055,177.245,213.531,177.288,213.008,177.288z M168.639,125.796c-3.75,0.009-7.063,2.446-8.179,6.025  c-0.043,0.24-0.223,0.815-0.275,1.056c-0.094,0.498-0.137,0.996-0.129,1.502v17.164c-0.017,0.506,0.026,1.004,0.129,1.502  l0.215,0.893c1.081,3.656,4.428,6.17,8.239,6.196h34.053l-6.342-34.328h-27.711V125.796z"/>
<path d="M426.098,177.288H247.851c-4.145,0-7.689-2.961-8.436-7.029l-9.449-51.492c-0.858-4.651,2.214-9.131,6.866-9.989  c0.515-0.094,1.047-0.146,1.571-0.146h187.688c14.212,0.017,25.729,11.534,25.746,25.746v17.164  C451.835,165.754,440.31,177.28,426.098,177.288z M255.008,160.124h171.09c4.737,0,8.582-3.845,8.582-8.582v-17.164  c0-4.737-3.845-8.582-8.582-8.582H248.709L255.008,160.124z"/>
<polygon style="fill:#4527A0;" points="247.851,168.706 213.008,168.706 203.482,117.214 238.41,117.214 "/>
<path d="M247.859,177.288h-34.851c-4.137,0-7.689-2.952-8.436-7.02l-9.517-51.492c-0.858-4.66,2.223-9.14,6.883-9.998  c0.515-0.094,1.03-0.146,1.553-0.146h34.92c4.145,0,7.689,2.961,8.436,7.029l9.449,51.492c0.858,4.651-2.214,9.131-6.866,9.989  C248.915,177.245,248.383,177.288,247.859,177.288z M220.148,160.124h17.404l-6.291-34.328h-17.456L220.148,160.124z"/>
<path d="M238.41,125.796h-34.92c-4.137,0-7.689-2.952-8.436-7.02l-11.671-63.335l-93.08,16.254  C76.254,74.09,62.926,64.65,60.523,50.601c-1.15-6.745,0.429-13.68,4.385-19.258c3.905-5.553,9.895-9.294,16.598-10.384  l118.38-20.58c13.963-2.412,27.248,6.917,29.728,20.871l2.926,17.027l14.315,77.392c0.858,4.66-2.223,9.14-6.883,9.998  C239.457,125.754,238.934,125.796,238.41,125.796z M210.631,108.633h17.464l-15.387-84.455c-0.858-4.609-5.252-7.672-9.869-6.908  L84.381,37.866c-2.206,0.36-4.179,1.579-5.475,3.407c-2.755,3.896-1.828,9.286,2.068,12.04c1.862,1.313,4.162,1.845,6.411,1.468  l93.08-16.22c9.26-1.656,18.117,4.497,19.79,13.748L210.631,108.633z"/>
<path style="fill:#4527A0;" d="M277.544,329.189c-10.547,4.712-21.85,7.501-33.384,8.239l-31.153-168.721h34.843L277.544,329.189z"/>
<path d="M244.152,346.018c-4.137,0-7.681-2.952-8.427-7.02l-31.153-168.721c-0.858-4.66,2.223-9.14,6.883-9.998  c0.515-0.094,1.03-0.146,1.553-0.146h34.851c4.137,0,7.689,2.952,8.436,7.02l29.685,160.483c0.721,3.888-1.313,7.767-4.917,9.389  c-11.483,5.149-23.789,8.187-36.345,8.977C244.529,346.01,244.341,346.018,244.152,346.018z M223.315,177.288l27.84,150.768  c5.681-0.85,11.268-2.248,16.666-4.188l-27.11-146.58L223.315,177.288L223.315,177.288z"/>
<path style="fill:#D84315;" d="M302.604,466.586c-0.103,9.483-7.878,17.095-17.37,16.984c-8.213-0.094-15.216-5.99-16.701-14.066  L244.16,337.428c11.526-0.738,22.837-3.527,33.384-8.239l24.716,134.136C302.466,464.406,302.578,465.496,302.604,466.586z"/>
<path d="M285.431,492.169c-12.409-0.051-23.043-8.899-25.334-21.094L235.724,338.99c-0.858-4.66,2.223-9.14,6.883-9.998  c0.335-0.06,0.669-0.103,1.004-0.129c10.504-0.652,20.811-3.193,30.414-7.501c4.317-1.948,9.397-0.017,11.345,4.3  c0.283,0.627,0.489,1.287,0.618,1.965l24.725,134.136c0.283,1.588,0.446,3.201,0.489,4.823  C311.074,480.738,299.583,492.152,285.431,492.169L285.431,492.169z M254.278,344.954l22.699,122.997  c0.798,4.634,5.201,7.732,9.835,6.934c0.026,0,0.051-0.009,0.069-0.009c4.059-0.695,7.054-4.162,7.149-8.282  c-0.026-0.549-0.086-1.098-0.189-1.631l-22.854-124.018C265.529,342.731,259.943,344.07,254.278,344.954z"/>
<g>
	<path style="fill:#FDD834;" d="M337.764,435.794l12.135-12.135c3.356-3.356,8.788-3.356,12.135,0l12.135,12.135   c3.356,3.356,3.356,8.788,0,12.135l-12.135,12.135c-3.356,3.356-8.788,3.356-12.135,0l-12.135-12.135   C334.417,444.574,334.417,439.141,337.764,435.794z"/>
	<path style="fill:#FDD834;" d="M349.401,337.067l23.815,9.783c4.385,1.802,6.479,6.814,4.677,11.199l-9.783,23.815   c-1.802,4.385-6.814,6.479-11.199,4.677l-23.815-9.783c-4.385-1.802-6.479-6.814-4.677-11.199l9.783-23.815   C340.004,337.359,345.016,335.265,349.401,337.067z"/>
</g>
<path d="M355.975,471.152c-4.548,0.009-8.908-1.794-12.126-5.003l-12.143-12.152c-6.694-6.702-6.694-17.567,0-24.27l12.135-12.135  c6.711-6.685,17.559-6.685,24.27,0l12.143,12.135c6.677,6.711,6.685,17.55,0.009,24.261l-0.009,0.009L368.11,466.14  C364.891,469.358,360.523,471.16,355.975,471.152z M355.975,429.718l-12.135,12.135l12.135,12.143l12.143-12.143L355.975,429.718z"/>
<path d="M360.146,395.768c-2.231,0-4.437-0.438-6.497-1.287l-23.815-9.792c-8.762-3.604-12.942-13.628-9.354-22.39l9.792-23.815  c3.613-8.754,13.628-12.933,22.39-9.354l23.815,9.792c8.762,3.604,12.942,13.628,9.354,22.39l-9.792,23.815  C373.388,391.571,367.114,395.768,360.146,395.768z M346.14,344.997l-9.792,23.815l23.815,9.792h0.009l9.783-23.815L346.14,344.997z  "/>
<g>
</g>
<g>
</g>
<g>
</g>
<g>
</g>
<g>
</g>
<g>
</g>
<g>
</g>
<g>
</g>
<g>
</g>
<g>
</g>
<g>
</g>
<g>
</g>
<g>
</g>
<g>
</g>
<g>
</g>
</svg>
