<?xml version="1.0" encoding="iso-8859-1"?>
<!-- Generator: Adobe Illustrator 19.0.0, SVG Export Plug-In . SVG Version: 6.00 Build 0)  -->
<svg xmlns="http://www.w3.org/2000/svg" xmlns:xlink="http://www.w3.org/1999/xlink" version="1.1" id="Capa_1" x="0px" y="0px" viewBox="0 0 512 512" style="enable-background:new 0 0 512 512;" xml:space="preserve">
<path d="M44.962,258.475c-3.925-0.009-7.339-2.679-8.277-6.494c-1.715-7.066-2.569-14.31-2.551-21.581  c-0.017-1.084,0.034-2.167,0.154-3.251c0.572-4.676,4.821-8.004,9.498-7.441c4.181,0.512,7.364,3.985,7.492,8.192  c0.188,6.869,0.887,13.722,2.082,20.489c0.836,4.54-2.091,8.917-6.596,9.882C46.165,258.415,45.559,258.475,44.962,258.475z"/>
<path d="M467.038,258.475c-0.606,0-1.212-0.06-1.801-0.188c-4.506-0.973-7.433-5.35-6.596-9.882  c1.195-6.767,1.894-13.619,2.082-20.489c0.145-4.454,3.686-8.047,8.141-8.252c4.437-0.162,8.277,3.089,8.849,7.492  c0.119,1.075,0.171,2.159,0.154,3.243c0.017,7.27-0.836,14.515-2.551,21.581C474.377,255.795,470.963,258.466,467.038,258.475z"/>
<path style="fill:#9E9D24;" d="M256,8.533c-57.813-0.111-113.169,23.373-153.259,65.024h-0.085  c-38.545,39.74-60.066,92.945-59.989,148.309c0,1.451,0,2.816,0.085,4.181v2.133c0.196,7.296,0.939,14.575,2.219,21.76  c0,0.256,0.085,0.427,0.085,0.597c9.395,38.204,43.605,65.092,82.944,65.195c10.957,0,21.82-2.091,32-6.144  c8.917-3.533,18.227-5.965,27.733-7.253V486.4c0.026,9.412,7.654,17.041,17.067,17.067h102.4  c9.412-0.026,17.041-7.654,17.067-17.067V302.336c9.506,1.289,18.816,3.721,27.733,7.253c10.18,4.053,21.043,6.144,32,6.144  c21.504,0.017,42.206-8.124,57.941-22.784c0.068-0.009,0.128-0.043,0.171-0.085c12.237-11.375,20.873-26.095,24.832-42.325  c0-0.171,0.085-0.341,0.085-0.597c1.28-7.185,2.022-14.464,2.219-21.76v-2.133c0.085-1.365,0.085-2.731,0.085-4.181  C469.35,104.064,373.862,8.55,256.06,8.533C256.043,8.533,256.017,8.533,256,8.533z"/>
<path style="fill:#CDDC39;" d="M426.667,256c0,1.451,0,2.816-0.085,4.181v2.133c-0.196,7.296-0.939,14.575-2.219,21.76  c0,0.256-0.085,0.427-0.085,0.597c-2.244,9.207-6.025,17.98-11.179,25.941c-9.318,3.413-19.174,5.146-29.099,5.12  c-10.957,0-21.82-2.091-32-6.144c-8.917-3.533-18.227-5.965-27.733-7.253V486.4c-0.026,9.412-7.654,17.041-17.067,17.067H204.8  c-9.412-0.026-17.041-7.654-17.067-17.067V302.336c-9.506,1.289-18.816,3.721-27.733,7.253c-10.18,4.053-21.043,6.144-32,6.144  c-39.339-0.102-73.549-26.991-82.944-65.195c0-0.171-0.085-0.341-0.085-0.597c-1.28-7.185-2.022-14.464-2.219-21.76v-2.133  c-0.085-1.365-0.085-2.731-0.085-4.181c-0.077-55.364,21.444-108.57,59.989-148.309h0.085  c100.77-61.073,231.97-28.885,293.035,71.885C415.983,178.782,426.667,217.02,426.667,256z"/>
<path d="M307.2,512H204.8c-14.131-0.017-25.583-11.469-25.6-25.6V312.559c-5.461,1.212-10.82,2.867-16.009,4.949  c-11.196,4.463-23.142,6.758-35.191,6.758c-43.273-0.102-80.913-29.687-91.23-71.714c-0.068-0.282-0.119-0.563-0.162-0.853  c-0.026-0.111-0.043-0.222-0.06-0.341c-1.34-7.569-2.116-15.223-2.321-22.903l-0.009-2.406c-0.077-1.015-0.085-2.551-0.085-4.181  C34.133,99.337,133.47,0,256,0s221.867,99.337,221.867,221.867c0,1.63-0.009,3.166-0.102,4.702l0.017,1.613  c-0.205,7.765-0.981,15.505-2.33,23.151c-0.017,0.137-0.034,0.265-0.06,0.401c-0.043,0.273-0.094,0.546-0.162,0.828  c-4.335,17.869-13.833,34.057-27.315,46.558c-0.23,0.213-0.469,0.418-0.725,0.606c-17.237,15.821-39.791,24.585-63.189,24.542  c-12.032,0-23.962-2.287-35.14-6.741c-5.205-2.099-10.581-3.755-16.06-4.966V486.4C332.783,500.531,321.331,511.983,307.2,512z   M187.733,293.803c4.71,0,8.533,3.806,8.533,8.516c0,0.009,0,0.009,0,0.017V486.4c0,4.71,3.823,8.533,8.533,8.533h102.4  c4.71,0,8.533-3.823,8.533-8.533V302.336c0-4.71,3.814-8.533,8.525-8.533c0.41,0,0.811,0.026,1.212,0.085  c10.18,1.399,20.156,4.011,29.713,7.791c9.173,3.644,18.953,5.521,28.817,5.521c19.345,0.034,37.982-7.287,52.122-20.489  c0.23-0.213,0.469-0.418,0.725-0.606c10.641-10.095,18.176-23.014,21.717-37.248l0.077-0.452c1.195-6.767,1.894-13.619,2.082-20.489  l-0.008-1.869c0.094-1.715,0.085-2.918,0.085-4.181c0-113.109-91.691-204.8-204.8-204.8s-204.8,91.691-204.8,204.8  c0,1.263-0.009,2.466,0.068,3.669l0.017,2.645c0.196,6.784,0.887,13.534,2.074,20.215l0.077,0.461  c8.585,34.21,39.287,58.24,74.564,58.342c9.882,0,19.678-1.886,28.86-5.538c9.54-3.772,19.499-6.383,29.67-7.774  C186.923,293.828,187.332,293.803,187.733,293.803z"/>
<path style="fill:#4E342E;" d="M256,298.667L256,298.667c9.429,0,17.067,7.637,17.067,17.067v187.733l0,0h-34.133l0,0V315.733  C238.933,306.304,246.571,298.667,256,298.667z"/>
<path d="M273.067,512h-34.133c-4.71,0-8.533-3.814-8.533-8.525v-0.009V315.733c0-14.14,11.46-25.6,25.6-25.6  c14.14,0,25.6,11.46,25.6,25.6v187.733c0,4.71-3.814,8.533-8.525,8.533H273.067z M247.467,494.933h17.067v-179.2  c0-4.71-3.823-8.533-8.533-8.533c-4.71,0-8.533,3.823-8.533,8.533V494.933z"/>
<g>
	<path style="fill:#795548;" d="M187.733,196.267v63.07c-10.658-9.148-24.363-13.952-38.4-13.457   c-20.309,0-37.632,8.678-44.117,20.873c-1.843-3.823-2.807-8.004-2.816-12.245C102.4,229.325,136.96,207.42,187.733,196.267z"/>
	<path style="fill:#795548;" d="M324.267,196.267v63.07c10.658-9.148,24.363-13.952,38.4-13.457   c20.309,0,37.632,8.678,44.117,20.873c1.843-3.823,2.807-8.004,2.816-12.245C409.6,229.325,375.04,207.42,324.267,196.267z"/>
</g>
<path d="M105.216,275.285h-0.196c-3.226-0.077-6.135-1.963-7.518-4.881c-2.381-4.958-3.618-10.394-3.635-15.889  c0-29.03,34.406-53.922,92.032-66.577c4.599-1.015,9.148,1.894,10.163,6.494c0.137,0.597,0.205,1.212,0.205,1.835v63.07  c0,4.71-3.814,8.533-8.525,8.533c-2.21,0-4.335-0.853-5.931-2.398c-9.071-7.595-20.651-11.537-32.478-11.059  c-16.418,0-31.471,6.716-36.582,16.341C111.266,273.545,108.373,275.285,105.216,275.285z M179.2,207.104  c-35.857,9.429-60.962,24.653-66.91,40.329c11.145-6.801,23.987-10.291,37.043-10.078c10.283-0.102,20.463,1.997,29.867,6.161  V207.104z"/>
<path d="M406.784,275.285c-3.157,0-6.05-1.741-7.535-4.523c-5.12-9.626-20.164-16.341-36.582-16.341  c-11.827-0.478-23.398,3.465-32.478,11.059c-3.388,3.277-8.789,3.174-12.066-0.213c-1.536-1.596-2.389-3.721-2.389-5.931v-63.07  c0-4.71,3.814-8.533,8.525-8.533c0.623,0,1.237,0.068,1.843,0.196c57.626,12.655,92.032,37.547,92.032,66.577  c-0.017,5.504-1.254,10.931-3.635,15.889c-1.382,2.918-4.292,4.804-7.518,4.881h-0.196V275.285z M362.667,237.346  c13.056-0.222,25.899,3.277,37.043,10.078c-5.948-15.676-31.053-30.891-66.91-40.329v36.412  C342.204,239.351,352.384,237.252,362.667,237.346z"/>
<g>
</g>
<g>
</g>
<g>
</g>
<g>
</g>
<g>
</g>
<g>
</g>
<g>
</g>
<g>
</g>
<g>
</g>
<g>
</g>
<g>
</g>
<g>
</g>
<g>
</g>
<g>
</g>
<g>
</g>
</svg>
