<?xml version="1.0" encoding="iso-8859-1"?>
<!-- Generator: Adobe Illustrator 19.0.0, SVG Export Plug-In . SVG Version: 6.00 Build 0)  -->
<svg xmlns="http://www.w3.org/2000/svg" xmlns:xlink="http://www.w3.org/1999/xlink" version="1.1" id="Capa_1" x="0px" y="0px" viewBox="0 0 511.996 511.996" style="enable-background:new 0 0 511.996 511.996;" xml:space="preserve">
<g>
	<path style="fill:#00695C;" d="M426.92,426.816c-24.669,24.788-57.52,39.738-92.411,42.067l3.498,17.492   c0.904,4.633-2.116,9.13-6.758,10.035c-1.843,0.358-3.763,0.102-5.444-0.734l-18.516-9.301l-20.906,13.909   c-2.841,1.894-6.545,1.894-9.386,0l-20.906-13.909l-20.906,13.909c-2.841,1.894-6.545,1.894-9.386,0l-20.906-13.909l-18.516,9.301   c-4.232,2.099-9.369,0.375-11.468-3.857c-0.836-1.681-1.092-3.601-0.734-5.444l3.499-17.492   C97.772,463.26,37.555,393.922,43.178,314.02c4.249-60.328,45.48-111.687,103.461-128.872   c32.937-10.077,56.087-39.627,58.007-74.014c0.162-2.807,0.247-5.726,0.247-8.738V17.066c0-4.71,3.823-8.533,8.533-8.533h10.402   c3.917,0,7.33,2.662,8.277,6.459l9.856,39.422c1.143,4.574,5.777,7.355,10.35,6.212c2.415-0.606,4.446-2.236,5.563-4.463   l21.46-42.912c1.442-2.893,4.394-4.719,7.628-4.719h11.792c4.71,0,8.533,3.823,8.533,8.533v85.329   c-0.009,4.889,0.23,9.787,0.725,14.651c4.173,32.852,27.382,60.123,59.133,69.509c76.216,23.184,119.213,103.769,96.029,179.993   C456.248,389.323,443.79,410.023,426.92,426.816z"/>
	<path style="fill:#00695C;" d="M338.007,496.615c0.904,4.633-2.116,9.13-6.758,10.035c-1.843,0.358-3.763,0.102-5.444-0.734   l-18.516-9.301l-20.82,13.823l-3.157-15.957c17.885-1.178,35.394-5.691,51.624-13.311L338.007,496.615z"/>
	<path style="fill:#00695C;" d="M367.105,196.854c-31.742-9.429-54.926-36.7-59.133-69.543c-0.427-4.608-0.683-9.472-0.683-14.677   V27.305c-0.017-4.71-3.823-8.516-8.533-8.533h-11.775c-3.26,0.017-6.229,1.869-7.68,4.778l-21.418,42.921   c-0.461,0.87-1.067,1.647-1.792,2.304c-3.396,3.26-8.789,3.149-12.04-0.247c-1.032-1.075-1.766-2.398-2.125-3.848l-7.594-30.377   l-2.219-9.045c-0.956-3.797-4.36-6.468-8.277-6.485h-10.41c-4.71,0.017-8.516,3.823-8.533,8.533v85.329   c0,3.072-0.085,5.973-0.256,8.789c-1.894,34.396-25.07,63.946-58.024,73.98c-12.646,3.695-24.711,9.156-35.838,16.213   c-9.233,5.802-17.791,12.612-25.513,20.308c-56.641,56.607-56.659,148.421-0.051,205.054   c24.728,24.737,57.563,39.712,92.463,42.144l-3.498,17.492c-0.904,4.633,2.116,9.13,6.758,10.035   c1.843,0.358,3.763,0.102,5.444-0.734l18.516-9.301l20.906,13.909c2.824,1.963,6.562,1.963,9.386,0l20.906-13.909l20.906,13.909   c2.824,1.963,6.562,1.963,9.386,0l0.085-0.085l-3.157-15.957c17.885-1.178,35.394-5.691,51.624-13.311l-0.427-2.048   c1.877-0.085,3.669-0.256,5.546-0.512c73.895-7.978,129.777-70.567,129.359-144.889C468.416,270.8,427.168,215.618,367.105,196.854   z"/>
</g>
<g>
	<path style="fill:#009688;" d="M418.217,349.081c0.23,54.397-29.925,104.375-78.161,129.53c-1.877,0.256-3.669,0.427-5.546,0.512   l0.427,2.048c-16.23,7.62-33.739,12.134-51.624,13.311l3.157,15.957l-0.085,0.085c-2.824,1.963-6.562,1.963-9.386,0l-20.906-13.909   l-20.906,13.909c-2.824,1.963-6.562,1.963-9.386,0l-20.906-13.909l-18.516,9.301c-4.232,2.099-9.369,0.375-11.468-3.857   c-0.836-1.681-1.092-3.601-0.734-5.444l3.498-17.492c-79.885-5.572-140.127-74.851-134.555-154.736   c2.432-34.891,17.399-67.734,42.144-92.463c7.722-7.697,16.281-14.506,25.513-20.308c11.127-7.057,23.192-12.518,35.838-16.213   c32.954-10.035,56.129-39.584,58.024-73.98c0.171-2.816,0.256-5.717,0.256-8.789V27.305c0.017-4.71,3.823-8.516,8.533-8.533h10.41   c3.917,0.017,7.321,2.688,8.277,6.485l2.219,9.045l7.594,30.377c1.135,4.565,5.751,7.347,10.316,6.22   c1.442-0.358,2.773-1.092,3.848-2.125v59.218c0,5.205,0.256,10.069,0.683,14.677c4.207,32.826,27.399,60.063,59.133,69.458   C375.979,230.935,417.227,286.143,418.217,349.081z"/>
	<path style="fill:#009688;" d="M340.055,478.611l-5.12,2.56l-0.427-2.048C336.386,479.038,338.178,478.867,340.055,478.611z"/>
</g>
<path d="M281.69,510.242c-3.353,0-6.63-0.998-9.42-2.858l-16.178-10.76l-16.178,10.769c-5.7,3.797-13.132,3.797-18.832-0.009  l-16.784-11.161l-14.079,7.074c-8.448,4.215-18.713,0.794-22.928-7.654c-1.69-3.379-2.21-7.219-1.485-10.931l1.655-8.285  C83.394,465.163,24.381,387.88,35.652,303.814c8.038-59.978,50.557-109.648,108.581-126.842  c29.524-9.002,50.267-35.505,51.897-66.326c0.162-2.654,0.239-5.393,0.23-8.243V17.066C196.37,7.646,204.007,0.009,213.427,0h10.402  c7.833-0.009,14.668,5.325,16.554,12.936l9.856,39.422l21.46-42.921c2.876-5.802,8.797-9.463,15.265-9.437h11.792  c9.42,0.009,17.057,7.645,17.066,17.066v85.329c0,4.599,0.222,9.207,0.683,13.781c3.883,29.464,24.763,53.868,53.271,62.265  c80.781,24.942,126.04,110.655,101.089,191.427c-17.638,57.111-66.898,98.726-126.151,106.585l1.647,8.26  c1.826,9.258-4.198,18.243-13.448,20.069c-3.695,0.725-7.517,0.222-10.888-1.451l-14.139-7.099l-16.784,11.17  C288.32,509.253,285.044,510.242,281.69,510.242z M256.092,477.843c1.681,0,3.328,0.495,4.727,1.425l20.906,13.909l20.837-13.909  c2.551-1.69,5.819-1.894,8.558-0.521l18.516,9.301l-3.49-17.501c-0.922-4.616,2.074-9.113,6.69-10.035  c0.367-0.077,0.734-0.119,1.109-0.145c32.818-2.219,63.715-16.289,86.933-39.593l0,0c25.863-25.727,40.275-60.78,40.002-97.258  c-0.904-59.261-39.78-111.235-96.371-128.847c-34.942-10.478-60.422-40.574-64.987-76.762c-0.512-5.154-0.768-10.333-0.768-15.513  V17.066h-11.792l-21.46,42.912c-4.215,8.431-14.463,11.852-22.894,7.637c-4.454-2.227-7.714-6.289-8.925-11.127l-9.847-39.422  h-10.41v85.329c0,3.191-0.085,6.272-0.265,9.25c-2.065,38.006-27.689,70.652-64.116,81.686  c-72.282,21.401-113.53,97.343-92.13,169.626c16.161,54.602,64.526,93.427,121.329,97.412c4.702,0.324,8.26,4.403,7.936,9.105  c-0.026,0.358-0.077,0.725-0.145,1.075l-3.49,17.492l18.516-9.292c2.739-1.374,6.007-1.178,8.559,0.521l20.906,13.909l20.837-13.909  C252.772,478.338,254.411,477.843,256.092,477.843z"/>
<g>
	<path style="fill:#00695C;" d="M141.665,401.729c3.345,8.712,8.106,16.81,14.079,23.977l-1.109,0.939   c-12.023-6.238-22.766-14.694-31.657-24.916c-9.19-10.436-16.392-22.467-21.247-35.497c-7.901-21.085-9.813-43.936-5.546-66.045   c1.365-7.355,3.447-14.557,6.229-21.503c2.611-6.818,5.93-13.337,9.898-19.455c3.772-6.084,8.149-11.775,13.055-16.98   c3.106-3.328,6.417-6.459,9.898-9.386c3.481-2.918,7.159-5.598,11.007-8.021c3.78-2.492,7.748-4.685,11.861-6.57   c-2.065,1.997-3.925,4.198-5.546,6.57c-1.877,2.56-3.592,5.239-5.12,8.021c-1.732,3.038-3.302,6.178-4.693,9.386   c-2.364,5.538-4.412,11.212-6.144,16.98c-1.877,6.4-3.413,12.893-4.608,19.455c-1.28,6.826-2.219,14.079-2.901,21.503   c-0.683,7.509-1.024,15.189-1.024,23.124c-0.034,14.387,1.169,28.739,3.584,42.921C133.781,378.375,137.126,390.27,141.665,401.729   z"/>
	<path style="fill:#00695C;" d="M218.461,415.143c3.26,9.83,8.012,19.097,14.079,27.493l-1.109,1.075   c-12.296-7.398-23.039-17.1-31.657-28.568c-9.344-12.262-16.528-26.025-21.247-40.702c-5.205-15.88-7.825-32.502-7.765-49.209   c0-8.883,0.742-17.757,2.219-26.512c1.348-8.388,3.43-16.639,6.229-24.652c2.577-7.739,5.888-15.206,9.898-22.305   c6.058-11.187,13.806-21.383,22.954-30.232c3.447-3.319,7.125-6.391,11.007-9.198c3.746-2.824,7.714-5.35,11.861-7.535   c-2.091,2.321-3.951,4.847-5.546,7.535c-1.894,2.961-3.601,6.024-5.12,9.198c-1.621,3.328-3.243,6.852-4.693,10.76   c-2.219,5.871-4.266,12.424-6.144,19.472c-1.792,6.946-3.328,14.378-4.608,22.305c-1.28,7.825-2.219,16.144-2.901,24.652   c-0.683,8.61-1.024,17.416-1.024,26.512c-0.034,16.469,1.16,32.92,3.584,49.209C210.551,388.282,213.896,401.909,218.461,415.143z"/>
	<path style="fill:#00695C;" d="M293.722,415.143c-3.26,9.83-8.012,19.097-14.079,27.493l1.109,1.075   c12.296-7.398,23.039-17.1,31.657-28.568c9.344-12.262,16.528-26.025,21.247-40.702c5.205-15.88,7.825-32.502,7.765-49.209   c0-8.883-0.742-17.757-2.219-26.512c-1.348-8.388-3.43-16.639-6.229-24.652c-2.577-7.739-5.888-15.206-9.898-22.305   c-6.058-11.187-13.806-21.383-22.953-30.232c-3.447-3.319-7.125-6.391-11.007-9.198c-3.746-2.824-7.714-5.35-11.861-7.535   c2.091,2.321,3.951,4.847,5.546,7.535c1.894,2.961,3.601,6.024,5.12,9.198c1.621,3.328,3.242,6.852,4.693,10.76   c2.219,5.871,4.266,12.424,6.144,19.472c1.792,6.946,3.328,14.378,4.608,22.305c1.28,7.825,2.219,16.144,2.901,24.652   c0.683,8.61,1.024,17.416,1.024,26.512c0.034,16.469-1.16,32.92-3.584,49.209C301.632,388.282,298.287,401.909,293.722,415.143z"/>
	<path style="fill:#00695C;" d="M370.518,401.729c-3.345,8.712-8.106,16.81-14.079,23.977l1.109,0.939   c12.023-6.238,22.766-14.694,31.657-24.916c9.19-10.436,16.392-22.467,21.247-35.497c7.901-21.085,9.813-43.936,5.546-66.045   c-1.365-7.355-3.447-14.557-6.229-21.503c-2.611-6.818-5.93-13.337-9.898-19.455c-3.772-6.084-8.149-11.775-13.055-16.98   c-3.106-3.328-6.417-6.459-9.898-9.386c-3.481-2.918-7.159-5.598-11.007-8.021c-3.78-2.492-7.748-4.685-11.861-6.57   c2.065,1.997,3.925,4.198,5.546,6.57c1.886,2.56,3.592,5.239,5.12,8.021c1.732,3.038,3.302,6.178,4.693,9.386   c2.364,5.538,4.411,11.212,6.144,16.98c1.877,6.4,3.413,12.893,4.608,19.455c1.28,6.826,2.219,14.079,2.901,21.503   c0.683,7.509,1.024,15.189,1.024,23.124c0.034,14.387-1.169,28.739-3.584,42.921C378.402,378.375,375.057,390.27,370.518,401.729z"/>
</g>
<path d="M154.635,435.178c-1.357,0-2.696-0.324-3.9-0.939c-12.996-6.715-24.592-15.846-34.183-26.887  c-9.881-11.204-17.612-24.123-22.817-38.125c-5.546-14.668-8.362-30.232-8.311-45.916c0-8.303,0.802-16.588,2.372-24.737  c1.459-7.884,3.695-15.615,6.681-23.056c2.816-7.33,6.391-14.344,10.666-20.923c4.053-6.519,8.746-12.62,14.02-18.209  c3.319-3.541,6.843-6.886,10.555-10.018c3.806-3.191,7.825-6.118,12.031-8.763c4.087-2.679,8.362-5.051,12.808-7.082  c4.284-1.963,9.352-0.077,11.315,4.207c1.51,3.302,0.768,7.202-1.86,9.719c-1.647,1.596-3.123,3.353-4.42,5.248  c-1.732,2.347-3.302,4.796-4.71,7.347c-1.579,2.773-3.012,5.623-4.284,8.55c-2.244,5.265-4.19,10.649-5.837,16.136  c-1.775,6.093-3.234,12.279-4.377,18.525c-1.152,6.127-2.091,13.089-2.79,20.726c-0.657,7.21-0.99,14.728-0.99,22.339  c-0.034,13.892,1.126,27.766,3.456,41.461c1.988,11.536,5.162,22.843,9.472,33.731c2.978,7.816,7.227,15.095,12.569,21.529  c3.123,3.533,2.799,8.934-0.734,12.057c-0.043,0.034-0.085,0.077-0.128,0.111l-1.109,0.939  C158.62,434.462,156.666,435.178,154.635,435.178z M131.161,248.53c-4.352,4.685-8.234,9.787-11.605,15.214  c-3.678,5.657-6.75,11.682-9.164,17.979c-2.603,6.459-4.548,13.158-5.819,20.001c-1.374,7.108-2.074,14.335-2.074,21.58  c-0.051,13.627,2.389,27.143,7.21,39.891c4.488,12.074,11.153,23.218,19.668,32.886c0.58,0.666,1.178,1.323,1.766,1.963  c-3.413-9.873-6.041-20.01-7.859-30.3c-2.509-14.677-3.746-29.549-3.72-44.439c0-8.123,0.358-16.17,1.058-23.901  c0.768-8.285,1.749-15.573,3.021-22.296c1.246-6.843,2.859-13.619,4.804-20.3C129.335,253.931,130.24,251.166,131.161,248.53  L131.161,248.53z"/>
<path d="M231.431,452.244c-1.527,0-3.021-0.41-4.335-1.186c-13.252-7.936-24.839-18.38-34.106-30.744  c-9.941-13.013-17.569-27.638-22.57-43.228c-5.495-16.733-8.26-34.251-8.192-51.863c0-9.361,0.785-18.696,2.329-27.92  c1.434-8.866,3.635-17.578,6.587-26.06c2.748-8.217,6.272-16.153,10.53-23.687c6.451-11.895,14.685-22.74,24.413-32.143  c3.763-3.626,7.773-6.98,12.006-10.043c4.062-3.046,8.354-5.768,12.851-8.132c4.173-2.193,9.326-0.589,11.519,3.584  c1.672,3.174,1.169,7.057-1.246,9.71c-1.715,1.911-3.234,3.985-4.54,6.195c-1.758,2.748-3.353,5.598-4.77,8.541  c-1.621,3.251-3.072,6.579-4.36,9.975c-2.074,5.512-4.062,11.792-5.888,18.696c-1.69,6.562-3.191,13.806-4.437,21.486  c-1.169,7.082-2.108,15.137-2.816,23.977c-0.666,8.337-0.998,17.023-0.998,25.821c-0.034,16.042,1.126,32.067,3.481,47.929  c1.988,13.303,5.197,26.401,9.582,39.115c2.961,8.985,7.279,17.467,12.799,25.146c2.654,3.439,2.312,8.32-0.811,11.34l-1.109,1.075  C235.783,451.382,233.65,452.244,231.431,452.244z M208.589,237.906c-4.548,5.581-8.559,11.579-11.972,17.928  c-3.772,6.664-6.886,13.67-9.309,20.931c-2.645,7.577-4.625,15.376-5.896,23.303c-1.399,8.311-2.108,16.724-2.108,25.155  c-0.068,15.803,2.406,31.512,7.33,46.521c4.403,13.772,11.135,26.691,19.907,38.193c0.666,0.879,1.34,1.732,2.022,2.585  c-3.772-12.014-6.622-24.302-8.516-36.751c-2.483-16.733-3.72-33.628-3.686-50.549c0-9.25,0.35-18.388,1.05-27.186  c0.759-9.429,1.732-17.723,2.995-25.368c1.314-8.166,2.927-15.931,4.761-23.056C206.259,245.5,207.403,241.592,208.589,237.906z"/>
<path d="M280.752,452.244c-2.219,0-4.352-0.862-5.939-2.406l-1.109-1.075c-3.115-3.021-3.464-7.91-0.811-11.34  c5.521-7.688,9.838-16.161,12.799-25.146c4.386-12.731,7.594-25.846,9.582-39.166c2.355-15.854,3.524-31.853,3.481-47.878  c0-8.797-0.333-17.492-0.998-25.829c-0.708-8.823-1.647-16.887-2.807-23.952c-1.246-7.688-2.748-14.941-4.454-21.554  c-1.818-6.852-3.797-13.132-5.862-18.602c-1.288-3.413-2.756-6.767-4.386-10.035c-1.365-2.841-2.901-5.606-4.591-8.268  c-1.357-2.295-2.935-4.454-4.71-6.451c-3.174-3.481-2.918-8.883,0.563-12.057c2.654-2.415,6.536-2.918,9.71-1.246  c4.557,2.398,8.908,5.162,13.021,8.268c4.147,2.995,8.072,6.28,11.75,9.83c9.804,9.454,18.09,20.36,24.575,32.34  c4.249,7.543,7.756,15.47,10.487,23.679c2.952,8.456,5.145,17.16,6.57,26.008c1.544,9.207,2.321,18.525,2.321,27.86  c0.068,17.629-2.705,35.156-8.2,51.906c-5.009,15.59-12.654,30.206-22.587,43.219c-9.258,12.347-20.837,22.774-34.08,30.71  C283.772,451.835,282.271,452.244,280.752,452.244z M303.603,237.906c1.178,3.669,2.312,7.569,3.405,11.656  c1.852,7.185,3.456,14.95,4.787,23.133c1.246,7.628,2.227,15.914,2.987,25.343c0.7,8.797,1.05,17.945,1.05,27.194  c0.034,16.904-1.195,33.782-3.686,50.498c-1.894,12.467-4.744,24.771-8.524,36.802c0.683-0.845,1.348-1.69,2.005-2.551  c8.772-11.494,15.513-24.413,19.924-38.185c4.923-15.026,7.407-30.753,7.338-46.564c0-8.405-0.708-16.801-2.099-25.087  c-1.271-7.91-3.234-15.692-5.871-23.261c-2.406-7.253-5.512-14.267-9.267-20.923C312.213,249.571,308.176,243.529,303.603,237.906  L303.603,237.906z"/>
<path d="M357.548,435.178c-2.022,0-3.985-0.717-5.521-2.031l-1.109-0.939c-3.592-3.055-4.028-8.448-0.964-12.04  c0.034-0.043,0.068-0.085,0.111-0.128c5.342-6.442,9.582-13.712,12.569-21.529l0,0c4.318-10.905,7.5-22.228,9.48-33.79  c2.329-13.678,3.481-27.527,3.447-41.402c0-7.62-0.333-15.129-0.99-22.348c-0.7-7.628-1.638-14.591-2.782-20.701  c-1.152-6.28-2.62-12.492-4.411-18.619c-1.63-5.435-3.567-10.786-5.794-16.008c-1.28-2.952-2.713-5.828-4.309-8.618  c-1.348-2.449-2.85-4.813-4.505-7.065c-1.348-1.988-2.893-3.84-4.608-5.512c-3.405-3.26-3.524-8.661-0.264-12.066  c2.517-2.628,6.417-3.37,9.719-1.86c4.505,2.065,8.849,4.471,12.987,7.202c4.104,2.594,8.038,5.453,11.758,8.576  c3.772,3.166,7.347,6.562,10.717,10.154c5.273,5.606,9.975,11.724,14.037,18.269c4.266,6.587,7.833,13.601,10.632,20.931  c2.969,7.432,5.197,15.129,6.647,22.996c1.562,8.132,2.355,16.383,2.355,24.669c0.051,15.701-2.765,31.273-8.328,45.958  c-5.205,13.994-12.944,26.921-22.834,38.116c-9.582,11.033-21.17,20.146-34.149,26.853  C360.236,434.854,358.905,435.178,357.548,435.178z M381.022,248.538c0.922,2.62,1.826,5.35,2.688,8.2  c1.963,6.707,3.584,13.516,4.838,20.394c1.254,6.707,2.244,14.003,3.012,22.271c0.7,7.739,1.058,15.786,1.058,23.909  c0.034,14.873-1.203,29.72-3.712,44.38c-1.818,10.316-4.446,20.47-7.867,30.369c0.58-0.64,1.16-1.288,1.732-1.946  c8.524-9.659,15.189-20.803,19.685-32.877c4.821-12.757,7.27-26.29,7.227-39.934c0-7.219-0.691-14.421-2.056-21.511  c-1.263-6.826-3.2-13.499-5.785-19.941c-2.406-6.297-5.47-12.33-9.13-17.987C389.324,258.394,385.408,253.257,381.022,248.538z"/>
<path d="M152.084,435.178c-2.688,0.009-5.222-1.263-6.835-3.413c-0.154-0.179-0.683-0.828-0.751-0.904  c-2.824-3.772-2.056-9.122,1.715-11.946c3.746-2.807,9.053-2.074,11.903,1.647c0.026,0.043,0.819,1.015,0.845,1.05  c2.782,3.806,1.963,9.139-1.843,11.929C155.651,434.598,153.893,435.178,152.084,435.178z"/>
<g>
</g>
<g>
</g>
<g>
</g>
<g>
</g>
<g>
</g>
<g>
</g>
<g>
</g>
<g>
</g>
<g>
</g>
<g>
</g>
<g>
</g>
<g>
</g>
<g>
</g>
<g>
</g>
<g>
</g>
</svg>
