<?xml version="1.0" encoding="iso-8859-1"?>
<!-- Generator: Adobe Illustrator 19.0.0, SVG Export Plug-In . SVG Version: 6.00 Build 0)  -->
<svg xmlns="http://www.w3.org/2000/svg" xmlns:xlink="http://www.w3.org/1999/xlink" version="1.1" id="Capa_1" x="0px" y="0px" viewBox="0 0 512 512" style="enable-background:new 0 0 512 512;" xml:space="preserve">
<path style="fill:#AD1457;" d="M375.211,375.204c-4.309,4.36-8.9,8.439-13.738,12.202c-72.404,58.12-178.207,46.54-236.327-25.856  c-50.38-62.753-49.211-152.411,2.773-213.842c2.901-3.499,6.144-6.997,9.472-10.325c65.671-65.671,172.149-65.671,237.82,0  S440.882,309.533,375.211,375.204L375.211,375.204z"/>
<path style="fill:#E91E63;" d="M361.472,387.407c-72.404,58.12-178.207,46.54-236.327-25.856  c-50.38-62.753-49.211-152.411,2.773-213.842c72.532-57.992,178.335-46.199,236.327,26.333  C414.353,236.711,413.192,326.053,361.472,387.407z"/>
<g>
	<path style="fill:#FDD834;" d="M407.893,329.125c-8.192,17.109-19.242,32.691-32.682,46.079c-3.072,3.072-6.229,5.973-9.472,8.704   l-131.155-36.522c-13.133-3.516-22.203-15.505-22.016-29.098c0.009-7.944,3.166-15.556,8.789-21.162   c11.742-11.716,11.767-30.737,0.051-42.487c-4.369-4.386-9.992-7.304-16.094-8.371L90.8,226.044   c3.55-19.541,10.538-38.288,20.65-55.38l183.122,33.962c6.323,1.075,12.126,4.156,16.554,8.789   c11.247,11.853,11.016,30.498-0.512,42.069c-11.759,11.725-11.784,30.762-0.06,42.521c0.017,0.017,0.043,0.043,0.06,0.06   c3.635,3.703,8.209,6.357,13.226,7.68L407.893,329.125z"/>
	<path style="fill:#FDD834;" d="M407.893,337.744c-8.192,17.109-19.242,32.691-32.682,46.079c-3.072,3.072-6.229,5.973-9.472,8.704   l-18.346-5.12l-112.809-31.402c-13.133-3.516-22.203-15.505-22.016-29.098c0.009-7.944,3.166-15.556,8.789-21.162   c11.742-11.716,11.767-30.737,0.051-42.487c-4.369-4.386-9.992-7.304-16.094-8.371L90.8,234.663   c2.662-14.609,7.228-28.808,13.568-42.239c2.219-4.437,4.523-8.875,7.083-13.141l183.122,33.962   c6.323,1.075,12.126,4.156,16.554,8.789c11.247,11.853,11.016,30.498-0.512,42.069c-11.759,11.725-11.784,30.762-0.06,42.521   c0.017,0.017,0.043,0.043,0.06,0.06c3.635,3.703,8.209,6.357,13.226,7.68L407.893,337.744z"/>
</g>
<path style="fill:#FFEB3A;" d="M364.024,366.398c-4.966,7.441-10.521,14.464-16.623,21.009l-112.809-31.402  c-13.133-3.516-22.203-15.505-22.016-29.098c0.009-7.944,3.166-15.556,8.789-21.162c11.742-11.716,11.767-30.737,0.051-42.487  c-4.369-4.386-9.992-7.304-16.094-8.371L90.8,234.663c2.662-14.609,7.228-28.808,13.568-42.239l157.779,29.269  c6.323,1.075,12.126,4.156,16.554,8.789c11.247,11.853,11.016,30.498-0.512,42.069c-11.759,11.725-11.784,30.762-0.06,42.521  c0.017,0.017,0.043,0.043,0.06,0.06c3.644,3.703,8.209,6.357,13.226,7.68l63.001,17.527c9.122,2.56,14.438,12.023,11.878,21.145  C365.799,363.232,365.031,364.888,364.024,366.398z"/>
<path d="M365.739,392.441c-0.777,0-1.544-0.102-2.287-0.316l-131.155-36.522c-16.827-4.54-28.45-19.891-28.262-37.316  c0.009-10.18,4.053-19.942,11.238-27.153c8.439-8.363,8.499-21.973,0.145-30.412c-3.14-3.166-7.176-5.282-11.571-6.05  L89.315,234.441c-4.642-0.819-7.74-5.239-6.92-9.873c0-0.017,0.009-0.034,0.009-0.051c3.72-20.539,11.068-40.243,21.7-58.196  c1.835-3.072,5.376-4.685,8.9-4.053l183.122,33.962c20.958,3.661,34.978,23.628,31.317,44.586  c-1.374,7.851-5.146,15.078-10.794,20.693c-4.164,4.096-6.46,9.736-6.332,15.573c0.128,5.606,2.398,10.948,6.332,14.933  c2.594,2.654,5.862,4.548,9.446,5.487l84.078,23.389c4.54,1.263,7.202,5.973,5.939,10.513c-0.137,0.478-0.307,0.939-0.521,1.391  c-8.601,17.988-20.224,34.363-34.346,48.434c-3.217,3.226-6.588,6.323-10.009,9.199  C369.698,391.733,367.753,392.441,365.739,392.441z M100.954,219.175L206.8,237.871c20.983,3.678,35.012,23.663,31.334,44.646  c-1.374,7.833-5.128,15.044-10.76,20.659c-4.002,4.011-6.255,9.438-6.272,15.112c-0.009,5.82,2.287,11.409,6.374,15.556  c2.637,2.534,5.862,4.369,9.395,5.325l126.735,35.293c1.886-1.698,3.746-3.464,5.564-5.291  c10.317-10.283,19.174-21.939,26.308-34.636l-73.932-20.565c-6.468-1.724-12.356-5.154-17.049-9.941  c-6.997-7.091-11.016-16.589-11.255-26.547c-0.247-10.504,3.857-20.642,11.332-28.023c8.311-8.286,8.465-21.7,0.35-30.173  c-3.157-3.302-7.304-5.495-11.818-6.238L115.87,180.17C109.206,192.449,104.188,205.565,100.954,219.175z"/>
<path d="M256.105,432.991c-74.785-0.179-141.412-47.282-166.517-117.724c-10.197-29.115-12.672-60.381-7.185-90.742  c0.819-4.625,5.231-7.705,9.847-6.886c0.009,0,0.017,0,0.034,0.009L206.8,237.871c20.983,3.678,35.012,23.663,31.334,44.646  c-1.374,7.833-5.128,15.044-10.76,20.659c-4.002,4.011-6.255,9.438-6.272,15.112c-0.009,5.82,2.287,11.409,6.374,15.556  c2.637,2.534,5.862,4.369,9.395,5.325l131.155,36.522c4.54,1.263,7.193,5.965,5.931,10.504c-0.452,1.621-1.374,3.08-2.654,4.181  C339.243,417.904,298.37,433.025,256.105,432.991z M97.908,235.96c-3.149,24.806-0.486,50.013,7.774,73.616  c29.457,83.139,120.728,126.658,203.858,97.202c13.312-4.719,25.941-11.178,37.546-19.208l-114.788-31.957  c-16.827-4.548-28.45-19.899-28.262-37.324c0.009-10.18,4.053-19.942,11.238-27.153c8.439-8.363,8.499-21.973,0.145-30.412  c-3.14-3.166-7.176-5.282-11.571-6.05L97.908,235.96z"/>
<path d="M407.893,337.658c-0.768,0-1.536-0.102-2.287-0.307l-84.052-23.381c-6.468-1.724-12.356-5.154-17.049-9.941  c-15.01-15.104-14.976-39.509,0.068-54.578c8.311-8.286,8.465-21.7,0.35-30.173c-3.157-3.302-7.304-5.495-11.818-6.238  L109.897,179.06c-4.634-0.862-7.697-5.308-6.835-9.941c0.188-0.998,0.546-1.954,1.067-2.824  c43.169-72.532,131.479-104.591,211.12-76.628c50.269,17.869,89.829,57.42,107.697,107.689  c15.513,44.364,12.868,93.063-7.356,135.481C414.165,335.781,411.17,337.658,407.893,337.658z M125.555,164.597l170.57,31.641  c20.958,3.661,34.986,23.62,31.317,44.577c-1.374,7.851-5.146,15.087-10.803,20.702c-8.397,8.439-8.397,22.075,0,30.506  c2.594,2.654,5.862,4.548,9.446,5.487l77.046,21.435c15.582-36.838,16.896-78.164,3.703-115.923  c-16.145-45.405-51.873-81.125-97.278-97.261C241.974,82.021,166.839,106.042,125.555,164.597L125.555,164.597z"/>
<path style="fill:#9D27B0;" d="M200.195,414.884l-23.722,58.879c-0.427,1.109-0.939,2.133-1.451,3.157  c-2.133,4.403-4.983,8.414-8.448,11.861l-4.096,4.096c-13.5,13.858-35.677,14.139-49.535,0.64c-0.162-0.154-0.316-0.316-0.469-0.469  c-12.134-13.269-11.648-33.749,1.109-46.421l1.365-1.365c-0.29,0.307-0.606,0.589-0.939,0.853  c-13.815,13.252-35.711,12.953-49.151-0.683c-12.023-13.312-11.537-33.698,1.109-46.421c-13.849,12.842-35.396,12.348-48.639-1.109  c-5.615-6.229-8.747-14.31-8.789-22.698c0.026-8.909,3.584-17.442,9.898-23.722l5.461-5.461c4.215-4.267,9.276-7.603,14.848-9.813  l3.584-1.451L97.626,312.4C114.701,360.229,152.358,397.852,200.195,414.884z"/>
<path style="fill:#6A1B9A;" d="M200.195,414.884l-23.722,58.879c-0.427,1.109-0.939,2.133-1.451,3.157  c-11.699,2.927-24.064-0.7-32.341-9.472c-12.134-13.269-11.648-33.749,1.109-46.421l1.365-1.365  c-0.29,0.307-0.606,0.589-0.939,0.853c-13.815,13.252-35.711,12.953-49.151-0.683c-12.023-13.312-11.537-33.698,1.109-46.421  c-13.849,12.842-35.396,12.348-48.639-1.109c-5.615-6.229-8.747-14.31-8.789-22.698c0.034-5.163,1.254-10.24,3.584-14.848  L97.626,312.4C114.701,360.229,152.358,397.852,200.195,414.884z"/>
<path style="fill:#9D27B0;" d="M492.884,162.472l-4.096,4.096c-2.816,2.816-5.999,5.222-9.472,7.168  c-1.792,1.033-3.644,1.937-5.547,2.731l-58.879,23.722c-17.007-47.837-54.647-85.477-102.484-102.484l23.808-58.964  c2.21-5.572,5.547-10.632,9.813-14.848l5.461-5.461c6.28-6.315,14.814-9.873,23.722-9.899c8.388,0.043,16.469,3.174,22.698,8.789  c13.457,13.244,13.952,34.79,1.109,48.639c12.723-12.646,33.109-13.133,46.421-1.109c13.636,13.44,13.935,35.336,0.683,49.151  c-0.264,0.333-0.546,0.649-0.853,0.939l1.365-1.365c12.672-12.757,33.151-13.244,46.421-1.109  c13.764,13.593,13.901,35.771,0.299,49.535C493.199,162.156,493.046,162.318,492.884,162.472z"/>
<path style="fill:#6A1B9A;" d="M479.316,173.736c-1.792,1.033-3.644,1.937-5.547,2.731l-58.879,23.722  c-17.007-47.837-54.647-85.477-102.484-102.484l23.808-58.964c5.069-2.987,10.837-4.574,16.725-4.608  c8.388,0.043,16.469,3.174,22.698,8.789c13.457,13.244,13.952,34.79,1.109,48.639c12.723-12.646,33.109-13.133,46.421-1.109  c13.636,13.44,13.935,35.336,0.683,49.151c-0.264,0.333-0.546,0.649-0.853,0.939l1.365-1.365  c12.791-13.133,33.808-13.406,46.941-0.614C480.673,147.684,483.804,161.457,479.316,173.736z"/>
<path d="M136.725,512c-0.367,0-0.734-0.009-1.101-0.017c-11.213-0.154-21.871-4.924-29.457-13.184  c-7.014-7.757-10.931-17.817-11.016-28.27c0.026-2.219,0.205-4.429,0.546-6.613c-2.739,0.41-5.512,0.555-8.277,0.444  c-10.999-0.324-21.401-5.069-28.859-13.158c-8.559-9.463-12.399-22.28-10.445-34.892c-13.713,2.202-27.63-2.551-37.128-12.68  c-6.997-7.791-10.905-17.868-10.982-28.347c0-11.221,4.48-21.973,12.441-29.875l5.41-5.427c5.043-5.077,11.076-9.054,17.723-11.699  l58.845-23.791c4.369-1.766,9.344,0.341,11.11,4.71c0.043,0.111,0.085,0.222,0.128,0.333c16.213,45.405,51.959,81.117,97.372,97.295  c4.446,1.57,6.775,6.451,5.205,10.905c-0.043,0.111-0.085,0.23-0.128,0.341l-23.722,58.87c-2.696,6.681-6.699,12.757-11.784,17.869  l-4.096,4.087C160.046,507.281,148.629,511.983,136.725,512z M120.785,451.491l-1.161,1.161c-4.744,4.736-7.415,11.161-7.407,17.868  c0.077,6.212,2.415,12.185,6.579,16.802c4.463,4.796,10.701,7.552,17.246,7.612c7.603,0.094,14.942-2.816,20.42-8.098l4.087-4.079  c3.464-3.499,6.195-7.654,8.03-12.228l20.454-50.764c-43.562-18.048-78.173-52.641-96.254-96.186l-50.832,20.548  c-4.488,1.775-8.559,4.454-11.955,7.876l-5.512,5.521c-4.736,4.693-7.407,11.093-7.407,17.758c0.06,6.238,2.406,12.245,6.579,16.887  c10.078,10.009,26.282,10.223,36.624,0.486c3.516-3.14,8.909-2.842,12.049,0.674c3.004,3.354,2.876,8.465-0.282,11.673  c-9.463,9.497-9.839,24.738-0.862,34.696c4.395,4.702,10.487,7.441,16.921,7.603c7.415,0.29,14.643-2.381,20.087-7.424  c0.162-0.154,0.333-0.307,0.521-0.444l0.196-0.196c3.319-3.345,8.721-3.362,12.066-0.043c3.345,3.319,3.362,8.721,0.043,12.066  L120.785,451.491z"/>
<path d="M97.712,320.933h-0.085c-4.71-0.026-8.516-3.866-8.491-8.576s3.866-8.516,8.576-8.491c4.71,0.026,8.516,3.866,8.491,8.576  C106.185,317.128,102.396,320.916,97.712,320.933z"/>
<path d="M65.968,407.545c-4.71,0-8.533-3.814-8.542-8.525c0-2.372,0.981-4.634,2.714-6.246l1.365-1.271  c3.43-3.234,8.832-3.063,12.066,0.367c3.234,3.43,3.063,8.832-0.367,12.066c-0.017,0.017-0.034,0.034-0.06,0.051l-1.365,1.271  C70.209,406.726,68.135,407.545,65.968,407.545z"/>
<path d="M65.977,407.545c-4.71,0.009-8.533-3.806-8.542-8.516c0-2.731,1.297-5.291,3.499-6.903l53.648-43.912  c3.644-2.987,9.011-2.466,12.006,1.178c2.987,3.644,2.466,9.011-1.178,12.006c-0.009,0.009-0.017,0.009-0.026,0.017l-53.674,43.946  c-0.119,0.102-0.58,0.444-0.708,0.538C69.552,406.965,67.786,407.545,65.977,407.545z"/>
<path d="M120.615,451.517l-7.031-4.889l-6.545-5.478l0.427-0.512l43.724-53.435c2.97-3.652,8.345-4.207,11.998-1.237  c3.652,2.97,4.207,8.345,1.237,11.998c-0.009,0.009-0.017,0.026-0.026,0.034L120.615,451.517z"/>
<path d="M414.89,208.722c-1.212,0-2.406-0.256-3.507-0.759c-2.125-0.956-3.763-2.739-4.54-4.932  c-16.136-45.405-51.865-81.134-97.278-97.27c-4.446-1.57-6.775-6.451-5.205-10.897c0.043-0.119,0.085-0.23,0.128-0.35l23.808-58.964  c2.654-6.664,6.656-12.706,11.75-17.749l5.401-5.402c7.851-7.91,18.526-12.373,29.67-12.399  c10.539,0.034,20.684,3.959,28.518,11.008c10.137,9.489,14.882,23.398,12.663,37.111c12.595-1.903,25.378,1.911,34.867,10.41  c8.098,7.467,12.851,17.877,13.184,28.885c0.111,2.765-0.043,5.538-0.444,8.277c2.133-0.333,4.284-0.512,6.443-0.538  c10.504,0.051,20.625,3.959,28.433,10.991c8.269,7.586,13.047,18.252,13.201,29.474c0.29,12.279-4.429,24.14-13.056,32.878  l-0.017,0.017l-4.087,4.087c-5.094,5.077-11.161,9.079-17.834,11.767l-58.905,23.739  C417.066,208.509,415.991,208.722,414.89,208.722z M323.577,92.841c43.562,18.014,78.173,52.624,96.195,96.178l50.807-20.471  c4.557-1.835,8.695-4.557,12.185-8.013l4.087-4.087c5.35-5.427,8.26-12.783,8.081-20.403c-0.06-6.562-2.816-12.808-7.629-17.263  c-4.659-4.19-10.692-6.519-16.955-6.562c-6.622,0.017-12.962,2.662-17.638,7.347l-1.22,1.229l-0.111,0.111l-0.034,0.026  l-0.051,0.051c-3.345,3.319-8.747,3.302-12.066-0.043c-3.26-3.285-3.302-8.576-0.102-11.921l0.009-0.009l0.017-0.017l0.051-0.051  l0.026-0.026c0.179-0.23,0.452-0.503,0.649-0.717c5.035-5.453,7.705-12.68,7.424-20.096c-0.162-6.443-2.91-12.552-7.629-16.938  c-10.078-8.644-25.062-8.26-34.67,0.887c-3.354,3.311-8.764,3.268-12.066-0.094c-3.157-3.208-3.285-8.32-0.282-11.673  c9.736-10.334,9.532-26.53-0.461-36.616c-4.685-4.232-10.76-6.571-17.066-6.605c-6.596,0.034-12.911,2.679-17.561,7.356  l-5.504,5.504c-3.439,3.405-6.135,7.484-7.927,11.981L323.577,92.841z"/>
<path d="M397.738,75.86c-4.71,0-8.533-3.823-8.533-8.533c0-2.261,0.896-4.429,2.5-6.033l0.922-0.922  c3.012-3.166,7.91-3.601,11.434-1.015c3.729,2.722,4.54,7.953,1.818,11.682c-0.026,0.034-0.051,0.077-0.085,0.111l-0.247,0.333  c-0.23,0.299-0.486,0.589-0.751,0.862l-1.024,1.024C402.176,74.964,400.008,75.86,397.738,75.86z"/>
<path d="M354.817,128.51c-4.719-0.009-8.533-3.831-8.525-8.55c0-1.963,0.683-3.874,1.929-5.393l43.946-53.674  c2.961-3.652,8.286-4.292,12.023-1.451c3.678,2.782,4.403,8.021,1.621,11.699l0,0l-44.381,54.237  C359.8,127.366,357.377,128.51,354.817,128.51z"/>
<path d="M392.627,166.312c-4.719,0-8.533-3.823-8.533-8.542c0-2.56,1.152-4.983,3.132-6.605l53.512-43.775  c3.652-3.021,9.045-2.611,12.202,0.922c3.038,3.388,2.756,8.593-0.631,11.631c-0.043,0.034-0.085,0.068-0.119,0.111l-0.512,0.435  l-53.64,43.895C396.501,165.638,394.59,166.312,392.627,166.312z"/>
<g>
</g>
<g>
</g>
<g>
</g>
<g>
</g>
<g>
</g>
<g>
</g>
<g>
</g>
<g>
</g>
<g>
</g>
<g>
</g>
<g>
</g>
<g>
</g>
<g>
</g>
<g>
</g>
<g>
</g>
</svg>
