<?xml version="1.0" encoding="iso-8859-1"?>
<!-- Generator: Adobe Illustrator 19.0.0, SVG Export Plug-In . SVG Version: 6.00 Build 0)  -->
<svg xmlns="http://www.w3.org/2000/svg" xmlns:xlink="http://www.w3.org/1999/xlink" version="1.1" id="Capa_1" x="0px" y="0px" viewBox="0 0 512 512" style="enable-background:new 0 0 512 512;" xml:space="preserve">
<path style="fill:#AD1457;" d="M486.4,341.332v8.533c0.017,14.123-11.409,25.583-25.532,25.6c-0.026,0-0.043,0-0.068,0h-0.427  c-13.978-0.23-25.182-11.622-25.173-25.6c0.009,13.978-11.196,25.37-25.173,25.6h-0.853c-13.978-0.23-25.182-11.622-25.173-25.6  c0.009,13.978-11.196,25.37-25.173,25.6h-0.853c-13.978-0.23-25.182-11.622-25.173-25.6c0.009,13.978-11.196,25.37-25.173,25.6  h-0.853c-13.978-0.23-25.182-11.622-25.173-25.6c0.009,13.978-11.196,25.37-25.173,25.6h-0.853  c-13.978-0.23-25.182-11.622-25.173-25.6c0.009,13.978-11.196,25.37-25.173,25.6h-0.853c-13.978-0.23-25.182-11.622-25.173-25.6  c0.009,13.978-11.196,25.37-25.173,25.6h-0.853c-13.978-0.23-25.182-11.622-25.173-25.6c0.009,13.978-11.196,25.37-25.173,25.6  h-0.853c-13.978-0.23-25.182-11.622-25.173-25.6c0.009,13.978-11.196,25.37-25.173,25.6h-0.853  c-13.978-0.23-25.182-11.622-25.173-25.6v-8.533c-0.017-4.301,0.819-8.567,2.475-12.544c5.077-13.047,17.655-21.632,31.659-21.589  h392.533c18.85-0.009,34.125,15.266,34.133,34.116C486.4,341.315,486.4,341.324,486.4,341.332z"/>
<path style="fill:#E91E63;" d="M460.8,362.324v8.533c-0.017,1.545-0.162,3.089-0.427,4.608c-13.978-0.23-25.182-11.622-25.173-25.6  c0.009,13.978-11.196,25.37-25.173,25.6c-0.273-1.468-0.418-2.953-0.427-4.437c-0.009,1.485-0.154,2.97-0.427,4.437  c-13.978-0.23-25.182-11.622-25.173-25.6c0.009,13.978-11.196,25.37-25.173,25.6c-0.23-1.237-0.375-2.492-0.427-3.755  c-0.051,1.263-0.196,2.517-0.427,3.755c-13.978-0.23-25.182-11.622-25.173-25.6c0.009,13.978-11.196,25.37-25.173,25.6  c-0.23-1.152-0.375-2.321-0.427-3.499c-0.051,1.178-0.196,2.347-0.427,3.499c-13.978-0.23-25.182-11.622-25.173-25.6  c0.009,13.978-11.196,25.37-25.173,25.6c-0.23-1.092-0.375-2.21-0.427-3.328c-0.051,1.118-0.196,2.236-0.427,3.328  c-13.978-0.23-25.182-11.622-25.173-25.6c0.009,13.978-11.196,25.37-25.173,25.6c-0.23-1.067-0.375-2.15-0.427-3.243  c-0.051,1.092-0.196,2.176-0.427,3.243c-13.978-0.23-25.182-11.622-25.173-25.6c0.009,13.978-11.196,25.37-25.173,25.6  c-0.23-1.067-0.375-2.15-0.427-3.243c-0.051,1.092-0.196,2.176-0.427,3.243c-13.978-0.23-25.182-11.622-25.173-25.6  c0.009,13.978-11.196,25.37-25.173,25.6c-0.23-1.067-0.375-2.15-0.427-3.243c-0.051,1.092-0.196,2.176-0.427,3.243  c-13.978-0.23-25.182-11.622-25.173-25.6c0.009,13.978-11.196,25.37-25.173,25.6c-0.171-1.195-0.341-2.304-0.427-3.499  c-0.085,1.195-0.256,2.304-0.427,3.499c-13.978-0.23-25.182-11.622-25.173-25.6v-8.533c-0.017-4.301,0.819-8.567,2.475-12.544  c1.997-0.418,4.028-0.614,6.059-0.597h392.533c18.85-0.009,34.125,15.266,34.133,34.116C460.8,362.307,460.8,362.316,460.8,362.324z  "/>
<path d="M460.8,383.999c-9.805,0-19.132-4.215-25.6-11.58c-12.425,14.14-33.963,15.531-48.094,3.106  c-1.101-0.964-2.133-2.005-3.106-3.106c-12.425,14.14-33.963,15.531-48.094,3.106c-1.101-0.964-2.133-2.005-3.106-3.106  c-12.425,14.14-33.963,15.531-48.094,3.106c-1.101-0.964-2.133-2.005-3.106-3.106c-12.425,14.14-33.963,15.531-48.094,3.106  c-1.101-0.964-2.133-2.005-3.106-3.106c-12.425,14.14-33.963,15.531-48.094,3.106c-1.101-0.964-2.133-2.005-3.106-3.106  c-12.425,14.14-33.963,15.531-48.094,3.106c-1.101-0.964-2.133-2.005-3.106-3.106c-12.425,14.14-33.963,15.531-48.094,3.106  c-1.101-0.973-2.142-2.014-3.106-3.115c-12.442,14.148-34.005,15.531-48.154,3.081c-7.364-6.477-11.588-15.812-11.58-25.626v-8.533  c0.026-23.552,19.115-42.641,42.667-42.667h392.533c23.552,0.026,42.641,19.115,42.667,42.667v8.533  C494.916,368.707,479.642,383.973,460.8,383.999z M443.733,349.866c0,9.429,7.637,17.067,17.067,17.067s17.067-7.637,17.067-17.067  v-8.533c-0.017-14.131-11.469-25.583-25.6-25.6H59.733c-14.131,0.017-25.583,11.469-25.6,25.6v8.533  c0,9.429,7.637,17.067,17.067,17.067s17.067-7.637,17.067-17.067c0-4.71,3.823-8.533,8.533-8.533s8.533,3.823,8.533,8.533  c0,9.429,7.637,17.067,17.067,17.067s17.067-7.637,17.067-17.067c0-4.71,3.823-8.533,8.533-8.533c4.71,0,8.533,3.823,8.533,8.533  c0,9.429,7.637,17.067,17.067,17.067c9.429,0,17.067-7.637,17.067-17.067c0-4.71,3.823-8.533,8.533-8.533s8.533,3.823,8.533,8.533  c0,9.429,7.637,17.067,17.067,17.067c9.429,0,17.067-7.637,17.067-17.067c0-4.71,3.823-8.533,8.533-8.533s8.533,3.823,8.533,8.533  c0,9.429,7.637,17.067,17.067,17.067c9.429,0,17.067-7.637,17.067-17.067c0-4.71,3.823-8.533,8.533-8.533s8.533,3.823,8.533,8.533  c0,9.429,7.637,17.067,17.067,17.067s17.067-7.637,17.067-17.067c0-4.71,3.823-8.533,8.533-8.533s8.533,3.823,8.533,8.533  c0,9.429,7.637,17.067,17.067,17.067s17.067-7.637,17.067-17.067c0-4.71,3.823-8.533,8.533-8.533s8.533,3.823,8.533,8.533  c0,9.429,7.637,17.067,17.067,17.067c9.429,0,17.067-7.637,17.067-17.067c0-4.71,3.823-8.533,8.533-8.533  S443.733,345.147,443.733,349.866z"/>
<path style="fill:#FFB301;" d="M486.4,349.866v119.467H25.6V349.866c0.051,14.114,11.486,25.549,25.6,25.6  c2.918,0.017,5.811-0.503,8.533-1.536c10.257-3.541,17.118-13.218,17.067-24.064c0.051,14.114,11.486,25.549,25.6,25.6  c2.918,0.017,5.811-0.503,8.533-1.536c10.257-3.541,17.118-13.218,17.067-24.064c0.051,14.114,11.486,25.549,25.6,25.6  c2.918,0.017,5.811-0.503,8.533-1.536c10.257-3.541,17.118-13.218,17.067-24.064c0.051,14.114,11.486,25.549,25.6,25.6  c2.918,0.017,5.811-0.503,8.533-1.536c10.257-3.541,17.118-13.218,17.067-24.064c0.051,14.114,11.486,25.549,25.6,25.6  c2.918,0.017,5.811-0.503,8.533-1.536c10.257-3.541,17.118-13.218,17.067-24.064c0.051,14.114,11.486,25.549,25.6,25.6  c2.918,0.017,5.811-0.503,8.533-1.536c10.257-3.541,17.118-13.218,17.067-24.064c0.051,14.114,11.486,25.549,25.6,25.6  c2.918,0.017,5.811-0.503,8.533-1.536c10.257-3.541,17.118-13.218,17.067-24.064c0.051,14.114,11.486,25.549,25.6,25.6  c2.918,0.017,5.811-0.503,8.533-1.536c10.257-3.541,17.118-13.218,17.067-24.064c-0.051,7.279,3.063,14.225,8.533,19.029  c2.475,2.244,5.376,3.951,8.533,5.035c2.722,1.033,5.615,1.553,8.533,1.536c14.123,0.017,25.583-11.409,25.6-25.532  C486.4,349.908,486.4,349.883,486.4,349.866z"/>
<path style="fill:#FEC108;" d="M443.733,368.895c-4.668,4.241-10.761,6.588-17.067,6.571c-2.918,0.017-5.811-0.503-8.533-1.536  c-2.722,1.033-5.615,1.553-8.533,1.536c-6.306,0.017-12.399-2.33-17.067-6.571c-4.668,4.241-10.761,6.588-17.067,6.571  c-2.918,0.017-5.811-0.503-8.533-1.536c-2.722,1.033-5.615,1.553-8.533,1.536c-6.306,0.017-12.399-2.33-17.067-6.571  c-4.668,4.241-10.761,6.588-17.067,6.571c-2.918,0.017-5.811-0.503-8.533-1.536c-2.722,1.033-5.615,1.553-8.533,1.536  c-6.306,0.017-12.399-2.33-17.067-6.571c-4.668,4.241-10.761,6.588-17.067,6.571c-2.918,0.017-5.811-0.503-8.533-1.536  c-2.722,1.033-5.615,1.553-8.533,1.536c-6.306,0.017-12.399-2.33-17.067-6.571c-4.668,4.241-10.761,6.588-17.067,6.571  c-2.918,0.017-5.811-0.503-8.533-1.536c-2.722,1.033-5.615,1.553-8.533,1.536c-6.306,0.017-12.399-2.33-17.067-6.571  c-4.668,4.241-10.761,6.588-17.067,6.571c-2.918,0.017-5.811-0.503-8.533-1.536c-2.722,1.033-5.615,1.553-8.533,1.536  c-6.306,0.017-12.399-2.33-17.067-6.571c-4.668,4.241-10.761,6.588-17.067,6.571c-2.918,0.017-5.811-0.503-8.533-1.536  c-2.722,1.033-5.615,1.553-8.533,1.536c-6.306,0.017-12.399-2.33-17.067-6.571c-4.668,4.241-10.761,6.579-17.067,6.571  c-2.918,0.017-5.811-0.503-8.533-1.536c-2.722,1.033-5.615,1.553-8.533,1.536c-6.306,0.017-12.399-2.33-17.067-6.571  c-2.449,2.27-5.359,3.985-8.533,5.035v95.403h426.667V373.93L443.733,368.895z"/>
<path d="M486.4,477.866H25.6c-4.71,0-8.533-3.823-8.533-8.533l0,0V349.866c0-4.71,3.823-8.533,8.533-8.533s8.533,3.823,8.533,8.533  c0,9.429,7.637,17.067,17.067,17.067s17.067-7.637,17.067-17.067c0-4.71,3.823-8.533,8.533-8.533s8.533,3.823,8.533,8.533  c0,9.429,7.637,17.067,17.067,17.067s17.067-7.637,17.067-17.067c0-4.71,3.823-8.533,8.533-8.533c4.71,0,8.533,3.823,8.533,8.533  c0,9.429,7.637,17.067,17.067,17.067c9.429,0,17.067-7.637,17.067-17.067c0-4.71,3.823-8.533,8.533-8.533s8.533,3.823,8.533,8.533  c0,9.429,7.637,17.067,17.067,17.067c9.429,0,17.067-7.637,17.067-17.067c0-4.71,3.823-8.533,8.533-8.533s8.533,3.823,8.533,8.533  c0,9.429,7.637,17.067,17.067,17.067c9.429,0,17.067-7.637,17.067-17.067c0-4.71,3.823-8.533,8.533-8.533s8.533,3.823,8.533,8.533  c0,9.429,7.637,17.067,17.067,17.067s17.067-7.637,17.067-17.067c0-4.71,3.823-8.533,8.533-8.533s8.533,3.823,8.533,8.533  c0,9.429,7.637,17.067,17.067,17.067s17.067-7.637,17.067-17.067c0-4.71,3.823-8.533,8.533-8.533s8.533,3.823,8.533,8.533  c0,9.429,7.637,17.067,17.067,17.067c9.429,0,17.067-7.637,17.067-17.067c0-4.71,3.823-8.533,8.533-8.533s8.533,3.823,8.533,8.533  c0,9.429,7.637,17.067,17.067,17.067s17.067-7.637,17.067-17.067c0-4.71,3.823-8.533,8.533-8.533s8.533,3.823,8.533,8.533v119.467  C494.933,474.043,491.119,477.866,486.4,477.866L486.4,477.866z M34.133,460.799h443.733v-81.382  c-14.071,8.141-31.932,5.214-42.667-6.997c-12.425,14.14-33.963,15.531-48.094,3.106c-1.101-0.964-2.133-2.005-3.106-3.106  c-12.425,14.14-33.963,15.531-48.094,3.106c-1.101-0.964-2.133-2.005-3.106-3.106c-12.425,14.14-33.963,15.531-48.094,3.106  c-1.101-0.964-2.133-2.005-3.106-3.106c-12.425,14.14-33.963,15.531-48.094,3.106c-1.101-0.964-2.133-2.005-3.106-3.106  c-12.425,14.14-33.963,15.531-48.094,3.106c-1.101-0.964-2.133-2.005-3.106-3.106c-12.425,14.14-33.963,15.531-48.094,3.106  c-1.101-0.964-2.133-2.005-3.106-3.106c-12.425,14.14-33.963,15.531-48.094,3.106c-1.101-0.973-2.142-2.014-3.106-3.115  c-10.735,12.211-28.595,15.147-42.667,6.997V460.799z"/>
<path style="fill:#AD1457;" d="M435.2,179.199v8.533c0,14.14-11.46,25.6-25.6,25.6c-14.14,0-25.6-11.46-25.6-25.6  c0,14.14-11.46,25.6-25.6,25.6s-25.6-11.46-25.6-25.6c0,14.14-11.46,25.6-25.6,25.6s-25.6-11.46-25.6-25.6  c0,14.14-11.46,25.6-25.6,25.6c-14.14,0-25.6-11.46-25.6-25.6c0,14.14-11.46,25.6-25.6,25.6c-14.14,0-25.6-11.46-25.6-25.6  c0,14.14-11.46,25.6-25.6,25.6c-14.14,0-25.6-11.46-25.6-25.6c0,14.14-11.46,25.6-25.6,25.6s-25.6-11.46-25.6-25.6v-8.533  c0.026-2.586,0.307-5.154,0.853-7.68c3.575-15.497,17.382-26.462,33.28-26.453h290.133c18.85-0.009,34.125,15.266,34.133,34.116  C435.2,179.182,435.2,179.19,435.2,179.199z"/>
<path style="fill:#E91E63;" d="M409.6,204.799v8.533c-14.123,0.017-25.583-11.409-25.6-25.532c0-0.026,0-0.043,0-0.068  c0,14.14-11.46,25.6-25.6,25.6s-25.6-11.46-25.6-25.6c0,14.14-11.46,25.6-25.6,25.6s-25.6-11.46-25.6-25.6  c0,14.14-11.46,25.6-25.6,25.6c-14.14,0-25.6-11.46-25.6-25.6c0,14.14-11.46,25.6-25.6,25.6c-14.14,0-25.6-11.46-25.6-25.6  c0,14.14-11.46,25.6-25.6,25.6c-14.14,0-25.6-11.46-25.6-25.6c0,14.14-11.46,25.6-25.6,25.6s-25.6-11.46-25.6-25.6v-8.533  c0.026-2.586,0.307-5.154,0.853-7.68c2.526-0.546,5.094-0.828,7.68-0.853h290.133c18.85-0.009,34.125,15.266,34.133,34.116  C409.6,204.782,409.6,204.79,409.6,204.799z"/>
<path d="M409.6,221.866c-9.805,0-19.132-4.215-25.6-11.58c-12.425,14.14-33.963,15.531-48.094,3.106  c-1.101-0.964-2.133-2.005-3.106-3.106c-12.425,14.14-33.963,15.531-48.094,3.106c-1.101-0.964-2.133-2.005-3.106-3.106  c-12.425,14.14-33.963,15.531-48.094,3.106c-1.101-0.964-2.133-2.005-3.106-3.106c-12.425,14.14-33.963,15.531-48.094,3.106  c-1.101-0.964-2.133-2.005-3.106-3.106c-12.425,14.14-33.963,15.531-48.094,3.106c-1.101-0.964-2.133-2.005-3.106-3.106  c-12.442,14.148-34.005,15.531-48.154,3.081c-7.364-6.485-11.588-15.821-11.58-25.634v-8.533  c0.026-23.552,19.115-42.641,42.667-42.667h290.133c23.552,0.026,42.641,19.115,42.667,42.667v8.533  C443.716,206.574,428.442,221.84,409.6,221.866z M392.533,187.732c0,9.429,7.637,17.067,17.067,17.067  c9.429,0,17.067-7.637,17.067-17.067v-8.533c-0.017-14.131-11.469-25.583-25.6-25.6H110.933c-14.131,0.017-25.583,11.469-25.6,25.6  v8.533c0,9.429,7.637,17.067,17.067,17.067s17.067-7.637,17.067-17.067c0-4.71,3.823-8.533,8.533-8.533  c4.71,0,8.533,3.823,8.533,8.533c0,9.429,7.637,17.067,17.067,17.067c9.429,0,17.067-7.637,17.067-17.067  c0-4.71,3.823-8.533,8.533-8.533s8.533,3.823,8.533,8.533c0,9.429,7.637,17.067,17.067,17.067c9.429,0,17.067-7.637,17.067-17.067  c0-4.71,3.823-8.533,8.533-8.533s8.533,3.823,8.533,8.533c0,9.429,7.637,17.067,17.067,17.067c9.429,0,17.067-7.637,17.067-17.067  c0-4.71,3.823-8.533,8.533-8.533s8.533,3.823,8.533,8.533c0,9.429,7.637,17.067,17.067,17.067s17.067-7.637,17.067-17.067  c0-4.71,3.823-8.533,8.533-8.533s8.533,3.823,8.533,8.533c0,9.429,7.637,17.067,17.067,17.067s17.067-7.637,17.067-17.067  c0-4.71,3.823-8.533,8.533-8.533S392.533,183.013,392.533,187.732z"/>
<path style="fill:#FFB301;" d="M435.2,187.732v119.467H76.8V187.732c0.051,14.114,11.486,25.549,25.6,25.6  c2.918,0.017,5.811-0.503,8.533-1.536c10.257-3.541,17.118-13.218,17.067-24.064c0.051,14.114,11.486,25.549,25.6,25.6  c2.918,0.017,5.811-0.503,8.533-1.536c10.257-3.541,17.118-13.218,17.067-24.064c0.051,14.114,11.486,25.549,25.6,25.6  c2.918,0.017,5.811-0.503,8.533-1.536c10.257-3.541,17.118-13.218,17.067-24.064c0.051,14.114,11.486,25.549,25.6,25.6  c2.918,0.017,5.811-0.503,8.533-1.536c10.257-3.541,17.118-13.218,17.067-24.064c0.051,14.114,11.486,25.549,25.6,25.6  c2.918,0.017,5.811-0.503,8.533-1.536c10.257-3.541,17.118-13.218,17.067-24.064c0.051,14.114,11.486,25.549,25.6,25.6  c2.918,0.017,5.811-0.503,8.533-1.536c10.257-3.541,17.118-13.218,17.067-24.064c-0.051,7.279,3.063,14.225,8.533,19.029  c2.475,2.244,5.376,3.951,8.533,5.035c2.722,1.033,5.615,1.553,8.533,1.536c14.123,0.017,25.583-11.409,25.6-25.532  C435.2,187.775,435.2,187.749,435.2,187.732z"/>
<path style="fill:#FEC108;" d="M401.067,211.796v95.403H76.8v-95.403c3.174-1.05,6.084-2.765,8.533-5.035  c4.668,4.241,10.761,6.588,17.067,6.571c2.918,0.017,5.811-0.503,8.533-1.536c2.722,1.033,5.615,1.553,8.533,1.536  c6.306,0.017,12.399-2.33,17.067-6.571c4.668,4.241,10.761,6.588,17.067,6.571c2.918,0.017,5.811-0.503,8.533-1.536  c2.722,1.033,5.615,1.553,8.533,1.536c6.306,0.017,12.399-2.33,17.067-6.571c4.668,4.241,10.761,6.588,17.067,6.571  c2.918,0.017,5.811-0.503,8.533-1.536c2.722,1.033,5.615,1.553,8.533,1.536c6.306,0.017,12.399-2.33,17.067-6.571  c4.668,4.241,10.761,6.588,17.067,6.571c2.918,0.017,5.811-0.503,8.533-1.536c2.722,1.033,5.615,1.553,8.533,1.536  c6.306,0.017,12.399-2.33,17.067-6.571c4.668,4.241,10.761,6.588,17.067,6.571c2.918,0.017,5.811-0.503,8.533-1.536  c2.722,1.033,5.615,1.553,8.533,1.536c6.306,0.017,12.399-2.33,17.067-6.571c4.668,4.241,10.761,6.588,17.067,6.571  c2.918,0.017,5.811-0.503,8.533-1.536c2.722,1.033,5.615,1.553,8.533,1.536c6.306,0.017,12.399-2.33,17.067-6.571  C395.008,208.997,397.909,210.713,401.067,211.796z"/>
<path d="M435.2,315.732H76.8c-4.71,0-8.533-3.823-8.533-8.533l0,0V187.732c0-4.71,3.823-8.533,8.533-8.533s8.533,3.823,8.533,8.533  c0,9.429,7.637,17.067,17.067,17.067s17.067-7.637,17.067-17.067c0-4.71,3.823-8.533,8.533-8.533c4.71,0,8.533,3.823,8.533,8.533  c0,9.429,7.637,17.067,17.067,17.067c9.429,0,17.067-7.637,17.067-17.067c0-4.71,3.823-8.533,8.533-8.533s8.533,3.823,8.533,8.533  c0,9.429,7.637,17.067,17.067,17.067c9.429,0,17.067-7.637,17.067-17.067c0-4.71,3.823-8.533,8.533-8.533s8.533,3.823,8.533,8.533  c0,9.429,7.637,17.067,17.067,17.067c9.429,0,17.067-7.637,17.067-17.067c0-4.71,3.823-8.533,8.533-8.533s8.533,3.823,8.533,8.533  c0,9.429,7.637,17.067,17.067,17.067s17.067-7.637,17.067-17.067c0-4.71,3.823-8.533,8.533-8.533s8.533,3.823,8.533,8.533  c0,9.429,7.637,17.067,17.067,17.067s17.067-7.637,17.067-17.067c0-4.71,3.823-8.533,8.533-8.533s8.533,3.823,8.533,8.533  c0,9.429,7.637,17.067,17.067,17.067c9.429,0,17.067-7.637,17.067-17.067c0-4.71,3.823-8.533,8.533-8.533s8.533,3.823,8.533,8.533  v119.467C443.733,311.909,439.919,315.732,435.2,315.732L435.2,315.732z M85.333,298.666h341.333v-81.382  c-14.071,8.141-31.932,5.214-42.667-6.997c-12.425,14.14-33.963,15.531-48.094,3.106c-1.101-0.964-2.133-2.005-3.106-3.106  c-12.425,14.14-33.963,15.531-48.094,3.106c-1.101-0.964-2.133-2.005-3.106-3.106c-12.425,14.14-33.963,15.531-48.094,3.106  c-1.101-0.964-2.133-2.005-3.106-3.106c-12.425,14.14-33.963,15.531-48.094,3.106c-1.101-0.964-2.133-2.005-3.106-3.106  c-12.425,14.14-33.963,15.531-48.094,3.106c-1.101-0.964-2.133-2.005-3.106-3.106c-10.735,12.211-28.595,15.147-42.667,6.997  V298.666z"/>
<path style="fill:#607D8B;" d="M17.067,469.332h477.867c4.71,0,8.533,3.823,8.533,8.533v8.533c0,9.429-7.637,17.067-17.067,17.067  H25.6c-9.429,0-17.067-7.637-17.067-17.067v-8.533C8.533,473.147,12.356,469.332,17.067,469.332z"/>
<path style="fill:#CFD8DC;" d="M17.067,469.332H460.8c4.71,0,8.533,3.823,8.533,8.533v8.533c0,9.429-7.637,17.067-17.067,17.067  H25.6c-9.429,0-17.067-7.637-17.067-17.067v-8.533C8.533,473.147,12.356,469.332,17.067,469.332z"/>
<path d="M486.4,511.999H25.6c-14.131-0.017-25.583-11.469-25.6-25.6v-8.533c0.009-9.421,7.646-17.058,17.067-17.067h477.867  c9.421,0.009,17.058,7.646,17.067,17.067v8.533C511.983,500.53,500.531,511.982,486.4,511.999z M17.067,477.866v8.533  c0.009,4.71,3.823,8.525,8.533,8.533h460.8c4.71-0.009,8.525-3.823,8.533-8.533v-8.533H17.067z"/>
<path d="M68.267,426.666c-2.27,0.017-4.454-0.87-6.059-2.475c-0.751-0.828-1.357-1.783-1.792-2.816c-0.905-2.065-0.905-4.42,0-6.485  c0.41-1.041,1.024-2.005,1.792-2.816c3.319-3.345,8.721-3.371,12.066-0.051c1.63,1.613,2.543,3.814,2.526,6.11  c0.043,4.668-3.703,8.491-8.371,8.533C68.378,426.666,68.318,426.666,68.267,426.666z"/>
<path d="M102.4,426.666c-4.668,0.043-8.491-3.703-8.533-8.371c-0.009-1.169,0.222-2.33,0.683-3.396  c0.435-1.033,1.041-1.988,1.792-2.816c3.422-3.157,8.695-3.157,12.117,0c0.751,0.828,1.357,1.783,1.792,2.816  c1.835,4.292-0.154,9.259-4.437,11.093C104.73,426.444,103.569,426.674,102.4,426.666z"/>
<path d="M136.533,426.666c-4.668,0.043-8.491-3.703-8.533-8.371c0-0.051,0-0.111,0-0.162c0.034-2.261,0.913-4.42,2.475-6.059  c0.401-0.367,0.836-0.708,1.28-1.024c0.478-0.324,0.99-0.58,1.536-0.768c0.512-0.256,1.058-0.435,1.621-0.521  c2.782-0.546,5.658,0.316,7.68,2.313c1.562,1.638,2.441,3.797,2.475,6.059c0.043,4.668-3.703,8.491-8.371,8.533  C136.644,426.666,136.585,426.666,136.533,426.666z"/>
<path d="M170.667,426.666c-4.668,0.043-8.491-3.703-8.533-8.371c-0.009-1.169,0.222-2.33,0.683-3.396  c0.435-1.033,1.041-1.988,1.792-2.816c3.422-3.157,8.695-3.157,12.117,0c0.751,0.828,1.357,1.783,1.792,2.816  c0.478,1.015,0.708,2.125,0.683,3.243c0.043,4.668-3.703,8.491-8.371,8.533C170.778,426.666,170.718,426.666,170.667,426.666z"/>
<path d="M204.8,426.666c-2.27,0.017-4.454-0.87-6.059-2.475c-1.596-1.613-2.483-3.797-2.475-6.059c0-4.71,3.823-8.533,8.533-8.533  c4.71,0,8.533,3.823,8.533,8.533c0.043,4.668-3.703,8.491-8.371,8.533C204.911,426.666,204.851,426.666,204.8,426.666z"/>
<path d="M238.933,426.666c-1.118-0.017-2.219-0.247-3.243-0.683c-2.142-0.777-3.831-2.466-4.608-4.608  c-0.435-1.033-0.674-2.133-0.683-3.243c-0.026-4.71,3.772-8.559,8.482-8.585c2.295-0.017,4.497,0.896,6.11,2.526  c0.768,0.819,1.382,1.775,1.792,2.816c0.913,2.065,0.913,4.42,0,6.485c-0.435,1.033-1.041,1.988-1.792,2.816  C243.388,425.795,241.203,426.683,238.933,426.666z"/>
<path d="M273.067,426.666c-2.27,0.017-4.454-0.87-6.059-2.475c-0.751-0.828-1.357-1.783-1.792-2.816  c-0.905-2.065-0.905-4.42,0-6.485c0.435-1.033,1.041-1.988,1.792-2.816c3.319-3.345,8.721-3.371,12.066-0.051  c1.63,1.613,2.543,3.814,2.526,6.11c-0.017,1.118-0.247,2.219-0.683,3.243c-0.435,1.033-1.041,1.988-1.792,2.816  C277.521,425.795,275.337,426.683,273.067,426.666z"/>
<path d="M307.2,426.666c-2.27,0.017-4.454-0.87-6.059-2.475c-0.751-0.828-1.357-1.783-1.792-2.816c-0.905-2.065-0.905-4.42,0-6.485  c0.41-1.041,1.024-2.005,1.792-2.816c3.319-3.345,8.721-3.371,12.066-0.051c1.63,1.613,2.543,3.814,2.526,6.11  c0.043,4.668-3.703,8.491-8.371,8.533C307.311,426.666,307.251,426.666,307.2,426.666z"/>
<path d="M341.333,426.666c-2.27,0.017-4.454-0.87-6.059-2.475c-0.751-0.828-1.357-1.783-1.792-2.816  c-0.905-2.065-0.905-4.42,0-6.485c0.435-1.033,1.041-1.988,1.792-2.816c3.422-3.157,8.695-3.157,12.117,0  c0.751,0.828,1.357,1.783,1.792,2.816c1.835,4.292-0.154,9.259-4.437,11.093C343.663,426.444,342.502,426.674,341.333,426.666z"/>
<path d="M375.467,426.666c-4.668,0.043-8.491-3.703-8.533-8.371c-0.009-1.169,0.222-2.33,0.683-3.396  c0.435-1.033,1.041-1.988,1.792-2.816c3.319-3.345,8.721-3.371,12.066-0.051c1.63,1.604,2.543,3.806,2.526,6.101  c0.043,4.668-3.703,8.491-8.371,8.533C375.578,426.666,375.518,426.666,375.467,426.666z"/>
<path d="M409.6,426.666c-4.668,0.043-8.491-3.703-8.533-8.371c0-0.051,0-0.111,0-0.162c-0.026-4.71,3.772-8.559,8.482-8.585  c2.295-0.017,4.497,0.896,6.11,2.526c0.751,0.828,1.357,1.783,1.792,2.816c1.835,4.292-0.154,9.259-4.437,11.093  C411.93,426.444,410.769,426.674,409.6,426.666z"/>
<path d="M443.733,426.666c-4.668,0.043-8.491-3.703-8.533-8.371c-0.009-1.169,0.222-2.33,0.683-3.396  c0.435-1.033,1.041-1.988,1.792-2.816c3.319-3.345,8.721-3.371,12.066-0.051c1.63,1.604,2.543,3.806,2.526,6.101  c0.043,4.668-3.703,8.491-8.371,8.533C443.844,426.666,443.785,426.666,443.733,426.666z"/>
<path d="M435.2,264.532H76.8c-4.71,0-8.533-3.823-8.533-8.533s3.823-8.533,8.533-8.533h358.4c4.71,0,8.533,3.823,8.533,8.533  S439.91,264.532,435.2,264.532z"/>
<g>
	<path style="fill:#E91E63;" d="M187.733,85.332L187.733,85.332c9.429,0,17.067,7.637,17.067,17.067v42.667l0,0h-34.133l0,0v-42.667   C170.667,92.97,178.304,85.332,187.733,85.332z"/>
	<path style="fill:#E91E63;" d="M256,85.332L256,85.332c9.429,0,17.067,7.637,17.067,17.067v42.667l0,0h-34.133l0,0v-42.667   C238.933,92.97,246.571,85.332,256,85.332z"/>
	<path style="fill:#E91E63;" d="M324.267,85.332L324.267,85.332c9.429,0,17.067,7.637,17.067,17.067v42.667l0,0H307.2l0,0v-42.667   C307.2,92.97,314.837,85.332,324.267,85.332z"/>
</g>
<path d="M204.8,153.599h-34.133c-4.71,0-8.533-3.814-8.533-8.525c0,0,0,0,0-0.009v-42.667c0-14.14,11.46-25.6,25.6-25.6  c14.14,0,25.6,11.46,25.6,25.6v42.667C213.333,149.776,209.519,153.599,204.8,153.599L204.8,153.599z M179.2,136.532h17.067v-34.133  c0-4.71-3.823-8.533-8.533-8.533c-4.71,0-8.533,3.823-8.533,8.533V136.532z"/>
<g>
	<path style="fill:#FDD834;" d="M204.8,46.233c0,20.821-7.637,39.1-17.067,39.1c-9.429,0-17.067-18.278-17.067-39.1   c1.092-14.182,7.134-27.529,17.067-37.7C197.666,18.704,203.708,32.05,204.8,46.233z"/>
	<path style="fill:#FDD834;" d="M273.067,46.233c0,20.821-7.637,39.1-17.067,39.1c-9.429,0-17.067-18.278-17.067-39.1   c1.092-14.182,7.134-27.529,17.067-37.7C265.933,18.704,271.974,32.05,273.067,46.233z"/>
	<path style="fill:#FDD834;" d="M341.333,46.233c0,20.821-7.637,39.1-17.067,39.1c-9.429,0-17.067-18.278-17.067-39.1   c1.092-14.182,7.134-27.529,17.067-37.7C334.199,18.704,340.241,32.05,341.333,46.233z"/>
</g>
<path d="M187.733,93.866c-16.631,0-25.6-24.542-25.6-47.633c1.101-16.461,8.047-31.983,19.601-43.767  c3.328-3.285,8.67-3.285,11.998,0c11.546,11.785,18.5,27.307,19.601,43.767C213.333,69.324,204.365,93.866,187.733,93.866z   M187.725,22.134c-5.129,7.023-8.09,15.403-8.525,24.098c0,18.816,6.417,29.67,8.858,30.618c1.792-0.956,8.209-11.802,8.209-30.618  C195.823,37.537,192.853,29.166,187.725,22.134z"/>
<path d="M273.067,153.599h-34.133c-4.71,0-8.533-3.814-8.533-8.525c0,0,0,0,0-0.009v-42.667c0-14.14,11.46-25.6,25.6-25.6  c14.14,0,25.6,11.46,25.6,25.6v42.667C281.6,149.776,277.786,153.599,273.067,153.599L273.067,153.599z M247.467,136.532h17.067  v-34.133c0-4.71-3.823-8.533-8.533-8.533c-4.71,0-8.533,3.823-8.533,8.533V136.532z"/>
<path d="M256,93.866c-16.631,0-25.6-24.542-25.6-47.633c1.101-16.461,8.047-31.983,19.601-43.767c3.328-3.285,8.67-3.285,11.998,0  c11.546,11.785,18.5,27.307,19.601,43.767C281.6,69.324,272.631,93.866,256,93.866z M255.991,22.134  c-5.129,7.023-8.09,15.403-8.525,24.098c0,18.816,6.417,29.67,8.858,30.618c1.792-0.956,8.209-11.802,8.209-30.618  C264.09,37.537,261.12,29.166,255.991,22.134z"/>
<path d="M341.333,153.599H307.2c-4.71,0-8.533-3.814-8.533-8.525c0,0,0,0,0-0.009v-42.667c0-14.14,11.46-25.6,25.6-25.6  c14.14,0,25.6,11.46,25.6,25.6v42.667C349.867,149.776,346.052,153.599,341.333,153.599L341.333,153.599z M315.733,136.532H332.8  v-34.133c0-4.71-3.823-8.533-8.533-8.533s-8.533,3.823-8.533,8.533V136.532z"/>
<path d="M324.267,93.866c-16.632,0-25.6-24.542-25.6-47.633c1.101-16.461,8.047-31.983,19.601-43.767  c3.328-3.285,8.67-3.285,11.998,0c11.546,11.785,18.5,27.307,19.601,43.767C349.867,69.324,340.898,93.866,324.267,93.866z   M324.258,22.134c-5.129,7.023-8.09,15.403-8.525,24.098c0,18.816,6.417,29.67,8.858,30.618c1.792-0.956,8.209-11.802,8.209-30.618  C332.356,37.537,329.387,29.166,324.258,22.134z"/>
<g>
</g>
<g>
</g>
<g>
</g>
<g>
</g>
<g>
</g>
<g>
</g>
<g>
</g>
<g>
</g>
<g>
</g>
<g>
</g>
<g>
</g>
<g>
</g>
<g>
</g>
<g>
</g>
<g>
</g>
</svg>
