<?xml version="1.0" encoding="iso-8859-1"?>
<!-- Generator: Adobe Illustrator 19.0.0, SVG Export Plug-In . SVG Version: 6.00 Build 0)  -->
<svg xmlns="http://www.w3.org/2000/svg" xmlns:xlink="http://www.w3.org/1999/xlink" version="1.1" id="Capa_1" x="0px" y="0px" viewBox="0 0 511.999 511.999" style="enable-background:new 0 0 511.999 511.999;" xml:space="preserve">
<path style="fill:#1566C0;" d="M315.734,503.466H196.272c23.56-0.009,42.657-19.105,42.665-42.665v-64.766  c7.492,1.553,15.155,2.065,22.783,1.536c3.814-0.247,7.603-0.759,11.349-1.536V460.8  C273.078,484.36,292.175,503.457,315.734,503.466z"/>
<path d="M315.734,511.999H196.272c-4.71,0-8.533-3.823-8.533-8.533c0-4.71,3.823-8.533,8.533-8.533  c18.841-0.017,34.115-15.291,34.132-34.132v-64.766c0-4.719,3.831-8.533,8.542-8.533c0.589,0,1.178,0.06,1.758,0.188  c10.103,2.048,20.513,2.048,30.617,0c4.608-0.973,9.13,1.98,10.095,6.587c0.119,0.58,0.179,1.169,0.179,1.766v64.766  c0.017,18.841,15.291,34.115,34.132,34.132c4.71,0,8.533,3.823,8.533,8.533C324.259,508.184,320.453,511.999,315.734,511.999z   M234.406,494.933h43.203c-8.422-9.369-13.081-21.529-13.073-34.132v-54.902c-0.742,0.077-1.493,0.137-2.244,0.179  c-4.941,0.316-9.89,0.265-14.822-0.162v54.876C247.478,473.404,242.828,485.563,234.406,494.933z"/>
<path d="M196.272,511.999h-17.066c-4.71,0-8.533-3.823-8.533-8.533c0-4.71,3.823-8.533,8.533-8.533h17.066  c4.71,0,8.533,3.823,8.533,8.533C204.805,508.176,200.99,511.999,196.272,511.999z"/>
<path d="M332.8,511.999h-17.066c-4.71,0-8.533-3.823-8.533-8.533c0-4.71,3.823-8.533,8.533-8.533H332.8  c4.71,0,8.533,3.823,8.533,8.533C341.333,508.176,337.519,511.999,332.8,511.999z"/>
<path style="fill:#4527A0;" d="M392.02,172.554c-24.405,10.24-39.081,60.755-45.908,92.157c-3.208,14.685-4.813,29.678-4.779,44.713  c-0.009,11.272-2.116,22.442-6.229,32.938l-2.304-1.024l-20.565-8.106l-44.031-17.237c-19.797-6.929-30.216-28.594-23.287-48.391  c1.391-3.976,3.439-7.697,6.05-10.999l0.085-0.085c6.715-8.269,9.514-19.037,7.68-29.524l65.534-81.917h61.779  c7.006-0.171,13.175,4.608,14.762,11.434C402.114,163.279,398.428,170.02,392.02,172.554z"/>
<path style="fill:#673AB7;" d="M366.421,171.53c-24.405,10.24-39.081,60.755-45.908,92.157c-3.208,14.685-4.813,29.678-4.779,44.713  c0.009,8.397-1.169,16.759-3.499,24.831l-44.031-17.237c-19.797-6.929-30.216-28.594-23.287-48.391  c1.391-3.976,3.439-7.697,6.05-10.999l0.085-0.085c6.715-8.269,9.514-19.037,7.68-29.524l65.534-81.917h41.641  c7.355,2.449,11.332,10.393,8.891,17.749C373.46,166.845,370.388,170.045,366.421,171.53z"/>
<path d="M335.104,350.895c-1.195,0-2.372-0.256-3.464-0.734l-2.304-1.024l-64.245-25.198c-14.378-5.376-25.3-17.322-29.362-32.127  c-3.814-14.097-0.623-29.166,8.567-40.515c5.248-6.357,7.458-14.685,6.041-22.809c-0.435-2.423,0.196-4.915,1.741-6.835  l65.534-81.917c1.621-2.022,4.07-3.2,6.664-3.2h61.779c11.076-0.171,20.744,7.483,23.125,18.303  c2.074,10.726-3.712,21.426-13.824,25.565l-0.026,0.009c-15.266,6.408-30.548,38.595-40.873,86.098  c-3.072,14.097-4.608,28.483-4.582,42.904c0.009,12.339-2.304,24.575-6.818,36.061C341.769,348.744,338.62,350.895,335.104,350.895  L335.104,350.895z M267.659,229.495c0.947,11.656-2.611,23.227-9.932,32.34c-5.845,7.125-7.902,16.631-5.521,25.539  c2.688,9.557,9.796,17.245,19.105,20.676l58.579,22.979c1.937-7.04,2.91-14.31,2.91-21.606c-0.026-15.65,1.638-31.265,4.975-46.556  c8.371-38.527,24.012-86.849,50.908-98.173l0,0c2.679-0.981,4.267-3.755,3.737-6.57c-0.828-2.799-3.464-4.659-6.383-4.514h-57.683  L267.659,229.495z"/>
<path style="fill:#AD1457;" d="M335.104,342.362c-3.883,9.924-9.489,19.08-16.554,27.05c-11.972,13.576-28.014,22.92-45.737,26.623  c-3.661,0.768-7.364,1.28-11.093,1.536c-47.06,3.115-87.745-32.502-90.86-79.571c-0.119-1.86-0.188-3.729-0.188-5.589v-2.987  c0.034-15.035-1.57-30.028-4.779-44.713c-6.826-31.402-21.503-81.917-45.908-92.157c-6.408-2.543-10.095-9.275-8.789-16.042  c0.171-1.015,0.521-1.997,1.024-2.901c2.5-5.299,7.876-8.635,13.738-8.533h36.18l80.637,56.915  c8.49,5.82,14.25,14.848,15.957,25.002c1.835,10.487-0.964,21.256-7.68,29.524l-0.085,0.085  c-13.004,16.452-10.214,40.336,6.238,53.34c3.302,2.611,7.023,4.659,10.999,6.05l64.595,25.343L335.104,342.362z"/>
<path style="fill:#E91E63;" d="M307.201,353.455c-6.784,17.407-18.798,32.281-34.388,42.58c-3.661,0.768-7.364,1.28-11.093,1.536  c-47.06,3.115-87.745-32.502-90.86-79.571c-0.119-1.86-0.188-3.729-0.188-5.589v-2.987c0.034-15.035-1.57-30.028-4.778-44.713  c-6.826-31.402-21.503-81.917-45.908-92.157c-6.408-2.543-10.095-9.275-8.789-16.042c0.171-1.015,0.521-1.997,1.024-2.901h19.711  l81.747,57.683c8.601,5.905,14.421,15.052,16.127,25.343c1.886,10.615-0.947,21.52-7.765,29.866l-0.085,0.085  c-13.166,16.682-10.316,40.882,6.366,54.04c3.345,2.637,7.108,4.71,11.127,6.118l65.448,25.684L307.201,353.455z"/>
<path d="M255.849,406.291c-6.272,0.017-12.535-0.623-18.679-1.911c-43.621-9.054-74.929-47.427-75.031-91.969v-2.995  c0.026-14.412-1.51-28.791-4.582-42.87c-10.334-47.529-25.608-79.724-40.882-86.133c-10.112-4.121-15.914-14.796-13.866-25.522  c2.372-10.837,12.04-18.508,23.133-18.346h36.18c1.758,0,3.481,0.546,4.924,1.562l80.637,56.915  c10.385,7.142,17.407,18.201,19.464,30.634c2.184,12.859-1.246,26.034-9.429,36.18c-5.845,7.125-7.902,16.631-5.521,25.539  c2.688,9.557,9.796,17.245,19.105,20.676l67.257,26.512c4.173,1.86,6.144,6.673,4.471,10.922  c-4.241,10.863-10.376,20.88-18.124,29.601c-15.914,18.261-38.458,29.422-62.633,31.001  C260.133,406.232,257.983,406.3,255.849,406.291z M125.959,153.611c-2.927-0.145-5.572,1.749-6.391,4.565  c-0.495,2.799,1.084,5.546,3.755,6.519c26.888,11.281,42.529,59.629,50.908,98.207c3.336,15.283,5.009,30.881,4.975,46.522v2.995  c0.094,36.462,25.727,67.872,61.438,75.261c26.435,5.564,53.809-3.601,71.558-23.969c4.531-5.086,8.397-10.726,11.494-16.793  l-58.605-22.98c-14.378-5.376-25.3-17.322-29.362-32.127c-3.814-14.097-0.623-29.166,8.567-40.515  c5.248-6.357,7.458-14.685,6.041-22.809c-1.314-7.936-5.82-14.993-12.467-19.524l-78.427-55.354H125.959z"/>
<path style="fill:#FDD834;" d="M324.267,145.078l-65.534,81.917c-1.613-9.676-6.946-18.338-14.848-24.149  c-0.35-0.307-0.717-0.597-1.109-0.853l-80.637-56.915H324.267z"/>
<path style="fill:#FFEB3A;" d="M290.135,145.078l-46.249,57.769c-0.35-0.307-0.717-0.597-1.109-0.853l-80.637-56.915H290.135z"/>
<path d="M258.734,235.528c-4.198,0-7.774-3.046-8.431-7.193c-1.34-7.876-5.828-14.873-12.441-19.37l-80.646-56.915  c-3.848-2.722-4.77-8.047-2.048-11.895c1.596-2.27,4.198-3.609,6.971-3.609h162.128c4.71,0,8.533,3.814,8.533,8.533  c0,1.937-0.657,3.823-1.869,5.333l-65.534,81.917C263.777,234.35,261.328,235.528,258.734,235.528z M189.027,153.611l58.673,41.411  c5.606,3.917,10.308,8.985,13.798,14.865l45.02-56.275L189.027,153.611L189.027,153.611z"/>
<rect x="255.193" y="220.157" transform="matrix(0.6241 -0.7813 0.7813 0.6241 -81.939 287.0559)" width="4.369" height="17.066"/>
<polygon points="253.725,151.11 253.639,151.025 265.705,138.959 "/>
<path style="fill:#4527A0;" d="M383.999,123.745c0.034,7.279-1.237,14.506-3.755,21.333H252.248l0.085-0.085  c2.44-6.818,3.678-14.003,3.669-21.247c0.213-35.259,28.739-63.785,63.998-63.998c0.708-0.017,1.425,0.017,2.133,0.085  C356.616,60.967,383.99,89.246,383.999,123.745z"/>
<path style="fill:#673AB7;" d="M358.4,140.811c0,1.451-0.085,2.901-0.171,4.267h-105.98l0.085-0.085  c2.44-6.818,3.678-14.003,3.669-21.247c-0.06-15.991,5.982-31.402,16.895-43.092c6.878-2.577,14.165-3.874,21.503-3.84  c0.708-0.017,1.425,0.017,2.133,0.085C331.017,78.033,358.391,106.312,358.4,140.811z"/>
<path d="M380.244,153.611H252.248c-4.71,0-8.533-3.814-8.533-8.533c0-1.28,0.29-2.543,0.845-3.695  c1.937-5.683,2.927-11.639,2.91-17.638c0.043-40.037,32.494-72.488,72.531-72.531c1.058-0.009,2.116,0.034,3.166,0.154  c38.894,1.391,69.63,33.467,69.365,72.377c0.034,8.294-1.417,16.529-4.284,24.311C387.002,151.392,383.811,153.611,380.244,153.611z   M263.401,136.545h110.554c1.015-4.19,1.519-8.49,1.51-12.8c0.128-29.951-23.662-54.535-53.605-55.388  c-0.614-0.06-1.237-0.085-1.86-0.077c-30.617,0.034-55.431,24.848-55.465,55.465C264.545,128.037,264.161,132.321,263.401,136.545z"/>
<path d="M256.003,153.611c-1.391,0-2.876-0.009-4.267-0.102l1.186-17.032c1.007,0.077,2.091,0.068,3.08,0.068  c1.015,0,2.074,0.009,3.08-0.068l1.186,17.032C258.879,153.602,257.394,153.611,256.003,153.611z"/>
<path style="fill:#AD1457;" d="M256.003,123.745c0.009,7.245-1.229,14.429-3.669,21.247l-0.085,0.085H131.762  c-2.517-6.826-3.789-14.054-3.755-21.333c0.111-34.465,27.425-62.684,61.865-63.913c0.708-0.068,1.425-0.102,2.133-0.085  C227.349,59.764,255.994,88.41,256.003,123.745z"/>
<path style="fill:#E91E63;" d="M230.404,140.811c0,1.451-0.085,2.816-0.171,4.267h-98.471c-2.517-6.826-3.789-14.054-3.755-21.333  c-0.051-15.974,5.956-31.376,16.81-43.092c6.246-2.261,12.817-3.533,19.455-3.755c0.708-0.068,1.425-0.102,2.133-0.085  C201.75,76.83,230.395,105.476,230.404,140.811z"/>
<path d="M252.248,153.611H131.762c-3.567,0-6.758-2.219-8.004-5.555c-2.867-7.782-4.318-16.017-4.284-24.311  c-0.162-39.175,30.958-71.336,70.125-72.437c0.802-0.085,1.604-0.111,2.406-0.094c40.037,0.043,72.488,32.494,72.531,72.531  c0.017,8.226-1.399,16.392-4.173,24.131c-0.427,1.186-1.109,2.261-1.997,3.149C256.745,152.655,254.552,153.585,252.248,153.611z   M138.051,136.545H245.96c1.007-4.19,1.51-8.49,1.502-12.8c-0.034-30.617-24.848-55.431-55.465-55.465  c-0.358-0.017-0.725-0.009-1.101,0.026c-30.207,0.563-54.39,25.232-54.356,55.439C136.532,128.054,137.044,132.355,138.051,136.545z  "/>
<path style="fill:#FDD834;" d="M322.134,59.832c-0.708-0.068-1.425-0.102-2.133-0.085c-8.251,0.009-16.418,1.604-24.063,4.693  c-6.383,2.594-12.296,6.229-17.493,10.752c-14.259,12.1-22.468,29.857-22.442,48.553c-0.111-35.301-28.697-63.887-63.998-63.998  c-0.708-0.017-1.425,0.017-2.133,0.085c9.386-36.521,46.608-58.52,83.129-49.133C297.115,16.894,315.939,35.727,322.134,59.832z"/>
<path style="fill:#FFEB3A;" d="M298.668,72.632c-0.708-0.068-1.425-0.102-2.133-0.085c-18.303,0.043-35.719,7.893-47.87,21.589  c-10.973-21.153-32.827-34.414-56.659-34.388c-0.708-0.017-1.425,0.017-2.133,0.085c3.55-13.883,11.4-26.282,22.442-35.412  c6.536-2.074,13.363-3.106,20.223-3.072c27.98-0.026,53.127,17.066,63.401,43.092C297.064,67.094,297.977,69.833,298.668,72.632z"/>
<path d="M256.003,132.278c-4.71,0-8.533-3.814-8.533-8.525c0,0,0,0,0-0.009c-0.034-30.617-24.848-55.431-55.465-55.465  c-0.367-0.017-0.734-0.009-1.109,0.026c-2.79,0.273-5.546-0.802-7.415-2.901c-1.843-2.099-2.551-4.966-1.886-7.671  c10.547-41.095,52.41-65.85,93.497-55.303c27.144,6.971,48.331,28.159,55.303,55.303c0.666,2.714-0.034,5.581-1.886,7.671  c-1.877,2.082-4.625,3.149-7.415,2.901c-0.35-0.034-0.717-0.043-1.092-0.026c-30.617,0.034-55.431,24.848-55.465,55.465  C264.536,128.455,260.722,132.278,256.003,132.278C256.012,132.278,256.003,132.278,256.003,132.278z M201.69,51.854  c23.116,3.149,43.322,17.203,54.313,37.784c10.991-20.582,31.197-34.636,54.313-37.784c-13.824-29.994-49.347-43.109-79.349-29.285  C218.039,28.533,207.655,38.918,201.69,51.854z"/>
<g>
</g>
<g>
</g>
<g>
</g>
<g>
</g>
<g>
</g>
<g>
</g>
<g>
</g>
<g>
</g>
<g>
</g>
<g>
</g>
<g>
</g>
<g>
</g>
<g>
</g>
<g>
</g>
<g>
</g>
</svg>
