<?xml version="1.0" encoding="iso-8859-1"?>
<!-- Generator: Adobe Illustrator 19.0.0, SVG Export Plug-In . SVG Version: 6.00 Build 0)  -->
<svg xmlns="http://www.w3.org/2000/svg" xmlns:xlink="http://www.w3.org/1999/xlink" version="1.1" id="Capa_1" x="0px" y="0px" viewBox="0 0 512.002 512.002" style="enable-background:new 0 0 512.002 512.002;" xml:space="preserve">
<path style="fill:#00695C;" d="M418.139,93.876c0.043-47.086-38.101-85.289-85.187-85.332  c-31.274-0.026-60.048,17.066-74.981,44.543h-0.085c-0.998,0.521-1.963,1.084-2.901,1.707  C233.37,12.93,181.915-3.488,140.051,18.127c-28.347,14.634-46.156,43.852-46.173,75.749c-9.898-0.017-19.72,1.715-29.013,5.12  c-44.313,16.008-67.25,64.912-51.242,109.225c11.161,30.882,39.048,52.616,71.721,55.892c2.816,0.256,5.632,0.427,8.533,0.427  c14.267,0.009,28.296-3.601,40.789-10.496c0.213-0.051,0.418-0.137,0.597-0.256c0.478-0.256,0.93-0.538,1.365-0.853  c14.933-8.567,26.897-21.487,34.303-37.034c0-0.043,0.034-0.085,0.085-0.085l0,0c-0.171,1.963-0.341,4.011-0.341,6.059  c0.026,37.256,24.2,70.203,59.732,81.407c16.665,5.231,34.534,5.231,51.199,0c5.256-1.664,10.351-3.84,15.189-6.485  c27.417-14.967,44.492-43.69,44.543-74.921c0-2.048-0.171-4.096-0.341-6.059c0.043,0,0.085,0.034,0.085,0.085l0,0  c7.671,16.025,20.138,29.269,35.669,37.887c12.646,7.065,26.897,10.769,41.386,10.752c2.901,0,5.717-0.171,8.533-0.427  c11.281-1.101,22.22-4.471,32.17-9.899c41.42-22.485,56.78-74.29,34.295-115.71C478.204,111.002,449.422,93.876,418.139,93.876z"/>
<g>
	<path style="fill:#009688;" d="M469.338,213.341c0.051,14.302-3.567,28.373-10.496,40.874c-9.95,5.427-20.889,8.798-32.17,9.898   c-2.816,0.256-5.632,0.427-8.533,0.427c-14.489,0.017-28.74-3.686-41.386-10.752c-15.53-8.619-27.997-21.862-35.669-37.887   c0-0.043-0.034-0.085-0.085-0.085l0,0c0.171,1.963,0.341,4.011,0.341,6.059c0,47.129-38.203,85.332-85.332,85.332   s-85.332-38.203-85.332-85.332c0-2.048,0.171-4.096,0.341-6.059c-0.043,0-0.085,0.034-0.085,0.085l0,0   c-7.407,15.547-19.37,28.467-34.303,37.034c0.085-1.024,0.171-1.963,0.256-2.901H136.8c-0.683,1.365-1.365,2.731-2.133,4.011   c-12.493,6.895-26.521,10.504-40.789,10.496c-2.901,0-5.717-0.171-8.533-0.427c-43.596-4.403-76.773-41.087-76.799-84.905   c0.068-47.103,38.229-85.264,85.332-85.332c-0.026-14.259,3.55-28.288,10.41-40.789c12.501-6.861,26.53-10.436,40.789-10.41   c32.725,0.026,62.557,18.747,76.799,48.213c7.287-15.001,18.79-27.545,33.109-36.095c0.341,0.597,0.683,1.28,1.024,1.963   c0.597-1.28,1.195-2.475,1.877-3.669h0.085c12.467-6.852,26.47-10.436,40.703-10.41c47.12,0.017,85.315,38.212,85.332,85.332   C431.126,128.026,469.321,166.22,469.338,213.341z"/>
	<path style="fill:#009688;" d="M257.886,53.087c-0.683,1.195-1.28,2.389-1.877,3.669c-0.341-0.683-0.683-1.365-1.024-1.963   C255.914,54.179,256.887,53.608,257.886,53.087z"/>
</g>
<path d="M256.008,315.739c-44.321,0.017-82.61-30.975-91.843-74.324c-7.065,7.97-15.445,14.677-24.763,19.831  c-16.742,9.165-35.839,13.124-54.843,11.366c-51.592-5.146-89.232-51.139-84.086-102.731c4.48-44.902,40.268-80.255,85.221-84.188  c4.488-51.617,49.97-89.82,101.579-85.332C214.921,2.767,240.085,17.29,256,40.023c29.713-42.444,88.199-52.769,130.643-23.057  c22.732,15.914,37.256,41.079,39.662,68.726c51.643,4.523,89.846,50.047,85.332,101.699c-3.934,44.927-39.261,80.707-84.137,85.221  c-19.038,1.826-38.177-2.133-54.928-11.366c-9.31-5.154-17.672-11.861-24.738-19.823  C338.618,284.763,300.321,315.756,256.008,315.739z M171.018,207.282c4.71,0,8.533,3.814,8.533,8.525  c0,0.247-0.009,0.503-0.034,0.751c-0.154,1.715-0.307,3.516-0.307,5.316c0,42.419,34.38,76.799,76.799,76.799  s76.799-34.38,76.799-76.799c0-1.801-0.162-3.601-0.307-5.316c-0.205-2.381,0.589-4.744,2.21-6.511  c3.584-3.422,9.267-3.294,12.697,0.29c0.538,0.563,0.998,1.195,1.374,1.869l0,0c6.886,14.447,18.116,26.376,32.119,34.116  c13.738,7.501,29.414,10.735,44.996,9.284c42.197-4.275,72.942-41.958,68.658-84.154c-3.976-39.219-37-69.059-76.415-69.051  c-4.71,0-8.533-3.814-8.533-8.525c0,0,0,0,0-0.009c0.017-42.401-34.346-76.782-76.747-76.799c-29.482,0-56.362,16.87-69.179,43.417  c-2.475,4.241-7.91,5.675-12.151,3.2c-1.323-0.777-2.432-1.877-3.2-3.2c-18.432-38.186-64.323-54.203-102.509-35.78  c-26.547,12.808-43.417,39.688-43.408,69.17c0,4.71-3.814,8.533-8.525,8.533c0,0,0,0-0.009,0c-42.418,0-76.799,34.389-76.799,76.799  c0,39.44,29.866,72.464,69.11,76.415c2.492,0.222,5.06,0.384,7.688,0.384c29.61-0.06,56.575-17.075,69.358-43.792l0,0  C164.678,209.219,167.69,207.308,171.018,207.282z"/>
<g>
	<path style="fill:#558B30;" d="M234.675,304.475c-1.391,0.444-2.816,0.759-4.267,0.939v-2.133   C231.774,303.707,233.225,304.134,234.675,304.475z"/>
	<path style="fill:#558B30;" d="M418.139,264.54c-14.489,0.017-28.74-3.686-41.386-10.752l-1.28,2.219l-5.717,8.363l-41.471,60.244   c-8.013,11.69-23.987,14.669-35.669,6.647c-2.697-1.843-5.009-4.19-6.827-6.903c-2.799-4.215-4.258-9.19-4.181-14.25v-6.827   c-8.277,2.611-16.913,3.942-25.6,3.925c-5.734,0.017-11.46-0.589-17.066-1.792c-1.451-0.179-2.876-0.495-4.267-0.939   c-1.391,0.444-2.816,0.759-4.267,0.939v4.693c0.026,14.131-11.409,25.6-25.54,25.617c-8.448,0.017-16.358-4.147-21.137-11.11   l-0.171-0.256l-47.018-68.351l-1.28-2.219c-10.957,6.135-23.142,9.753-35.669,10.581c-1.877,0.085-3.84,0.171-5.717,0.171   c-2.901,0-5.717-0.171-8.533-0.427v0.427c0,0,93.865,93.865,93.865,153.597v34.133c0.026,28.27,22.929,51.174,51.199,51.199h51.199   c28.27-0.026,51.174-22.929,51.199-51.199v-34.133c0-59.732,93.865-153.597,93.865-153.597v-0.427   C423.856,264.369,421.04,264.54,418.139,264.54z"/>
</g>
<g>
	<path style="fill:#8BC34A;" d="M384.006,264.113v0.427c0,0-93.865,93.865-93.865,153.597v34.133   c-0.026,28.27-22.929,51.174-51.199,51.199h-8.533c-28.27-0.026-51.174-22.929-51.199-51.199v-34.133   c0-59.732-93.865-153.597-93.865-153.597v-0.427c2.816,0.256,5.632,0.427,8.533,0.427c1.877,0,3.84-0.085,5.717-0.171   c12.527-0.828,24.712-4.446,35.669-10.581l1.28,2.219l47.018,68.351l0.171,0.256c7.987,11.648,23.91,14.617,35.566,6.63   c6.972-4.779,11.127-12.689,11.11-21.137v-4.693c1.451-0.179,2.876-0.495,4.267-0.939c1.391,0.444,2.816,0.759,4.267,0.939   c5.606,1.203,11.332,1.809,17.066,1.792c8.687,0.017,17.322-1.314,25.6-3.925v6.827c-0.077,5.06,1.382,10.035,4.181,14.25   c7.876,11.784,23.808,14.95,35.592,7.083c2.714-1.818,5.06-4.13,6.903-6.827l41.471-60.244c1.877,0.085,3.84,0.171,5.717,0.171   C378.374,264.54,381.19,264.369,384.006,264.113z"/>
	<path style="fill:#8BC34A;" d="M238.942,303.28v2.133c-1.451-0.179-2.876-0.495-4.267-0.939   C236.126,304.134,237.577,303.707,238.942,303.28z"/>
</g>
<path d="M281.608,512.002h-51.199c-32.972-0.043-59.69-26.76-59.732-59.732v-34.133c0-55.508-90.452-146.651-91.365-147.564  c-1.596-1.604-2.5-3.772-2.5-6.033c0-2.458,0.998-4.813,2.782-6.519c1.749-1.672,4.113-2.543,6.528-2.406  c15.582,1.451,31.24-1.783,44.978-9.276c4.079-2.278,9.224-0.862,11.554,3.183l1.28,2.219l46.83,68.044  c5.316,7.765,15.931,9.753,23.697,4.437c4.651-3.183,7.432-8.465,7.415-14.105v-6.827c0-2.722,1.297-5.273,3.49-6.886  c2.202-1.587,5.018-2.048,7.612-1.254c15.001,4.685,31.069,4.685,46.062,0c2.594-0.802,5.41-0.333,7.612,1.254  c2.193,1.613,3.49,4.164,3.49,6.886v6.827c-0.026,9.412,7.586,17.066,16.998,17.092c5.64,0.017,10.922-2.765,14.105-7.415  l48.11-70.254c2.338-4.036,7.484-5.444,11.554-3.183c13.738,7.501,29.397,10.726,44.978,9.276c2.389-0.23,4.77,0.563,6.528,2.202  c1.775,1.613,2.782,3.9,2.782,6.298v0.427c0,2.261-0.905,4.429-2.5,6.033c-0.913,0.913-91.365,92.056-91.365,147.564v34.133  C341.298,485.242,314.58,511.968,281.608,512.002z M104.595,272.458c26.487,28.979,83.139,96.715,83.139,145.679v34.133  c0.026,23.552,19.114,42.64,42.666,42.666h51.199c23.552-0.026,42.64-19.114,42.666-42.666v-34.133  c0-48.963,56.652-116.7,83.139-145.679c-9.566-1.101-18.901-3.678-27.69-7.629l-44.415,64.613  c-10.667,15.539-31.914,19.481-47.445,8.815c-8.107-5.564-13.414-14.353-14.566-24.123c-11.426,2.133-23.151,2.133-34.576,0  c-2.219,18.713-19.183,32.093-37.896,29.875c-9.762-1.152-18.551-6.468-24.123-14.575l-44.441-64.605  C123.488,268.789,114.153,271.358,104.595,272.458z"/>
<path d="M179.21,187.741c-4.71,0-8.533-3.814-8.533-8.525c0,0,0,0,0-0.009c0.034-20.377-8.064-39.927-22.493-54.305  c-3.311-3.354-3.277-8.755,0.068-12.074c3.328-3.285,8.678-3.285,12.006,0c17.63,17.587,27.52,41.471,27.485,66.371  C187.743,183.918,183.92,187.741,179.21,187.741L179.21,187.741z"/>
<path d="M332.807,187.741c-4.71,0-8.533-3.814-8.533-8.525c0,0,0,0,0-0.009c-0.026-24.9,9.864-48.784,27.485-66.371  c3.354-3.319,8.755-3.285,12.074,0.068c3.285,3.328,3.294,8.678,0,12.006c-14.43,14.387-22.528,33.928-22.493,54.305  C341.34,183.918,337.517,187.741,332.807,187.741L332.807,187.741z"/>
<g>
</g>
<g>
</g>
<g>
</g>
<g>
</g>
<g>
</g>
<g>
</g>
<g>
</g>
<g>
</g>
<g>
</g>
<g>
</g>
<g>
</g>
<g>
</g>
<g>
</g>
<g>
</g>
<g>
</g>
</svg>
