<?xml version="1.0" encoding="iso-8859-1"?>
<!-- Generator: Adobe Illustrator 19.0.0, SVG Export Plug-In . SVG Version: 6.00 Build 0)  -->
<svg xmlns="http://www.w3.org/2000/svg" xmlns:xlink="http://www.w3.org/1999/xlink" version="1.1" id="Capa_1" x="0px" y="0px" viewBox="0 0 512 512" style="enable-background:new 0 0 512 512;" xml:space="preserve">
<path style="fill:#F57C00;" d="M429.312,179.871l-0.256,0.427c3.925,2.048,6.144,3.157,6.144,3.157s34.133,18.773,34.133,29.696  c-0.35,5.743-3.106,11.076-7.595,14.677c-9.557,9.216-27.819,17.408-52.309,23.979C359.194,263.865,307.652,269.565,256,268.789  c-117.76,0-213.333-24.832-213.333-55.637c0-10.923,34.133-29.696,34.133-29.696s2.219-1.109,6.144-3.157l-0.256-0.427  c-14.976,4.309-29.449,10.206-43.179,17.579c-0.085-0.085-0.171,0-0.256,0.085c-1.536,0.939-3.072,1.792-4.523,2.731  c-0.427,0.256-0.939,0.597-1.365,0.853c-0.939,0.597-1.963,1.28-2.987,1.963c-0.341,0.256-0.683,0.427-0.939,0.597  c-0.35,0.179-0.666,0.41-0.939,0.683c-9.318,5.7-16.213,14.626-19.371,25.088c-0.41,1.707-0.614,3.456-0.597,5.205  c0,16.64,17.152,32.085,46.165,44.629C99.584,298.826,173.056,311.455,256,311.455c56.678,0.811,113.203-6.076,168.021-20.48  c11.341-3.166,22.451-7.066,33.28-11.691c29.013-12.544,46.165-27.989,46.165-44.629  C503.467,213.151,475.051,193.781,429.312,179.871z"/>
<path style="fill:#FF9801;" d="M469.333,246.773c0,16.469-16.811,31.744-45.312,44.203C369.203,305.38,312.678,312.266,256,311.455  c-82.944,0-156.416-12.629-201.301-32.171c-29.013-12.544-46.165-27.989-46.165-44.629c-0.017-1.749,0.188-3.499,0.597-5.205  c3.157-10.462,10.052-19.388,19.371-25.088c0.273-0.273,0.589-0.503,0.939-0.683c0.256-0.171,0.597-0.341,0.939-0.597  c1.024-0.683,2.048-1.365,2.987-1.963c0.427-0.256,0.939-0.597,1.365-0.853c1.451-0.939,2.987-1.792,4.523-2.731  c0.085-0.085,0.171-0.171,0.256-0.085c13.73-7.373,28.203-13.269,43.179-17.579l0.256,0.427c-3.925,2.048-6.144,3.157-6.144,3.157  s-34.133,18.773-34.133,29.696c0,30.805,95.573,55.637,213.333,55.637c51.652,0.777,103.194-4.924,153.429-16.981  c24.491-6.571,42.752-14.763,52.309-23.979C466.415,233.051,469.103,239.758,469.333,246.773z"/>
<path style="fill:#FFB301;" d="M469.333,213.151c0,16.896-28.757,32-74.069,42.155c-45.807,9.455-92.493,13.978-139.264,13.483  c-117.76,0-213.333-24.832-213.333-55.637c0-10.923,34.133-29.696,34.133-29.696s2.219-1.109,6.144-3.157  c18.859-9.643,76.459-39.68,104.789-58.88c2.935-2.039,5.99-3.925,9.131-5.632c18.022-10.513,38.298-16.563,59.136-17.664  c24.465,1.34,48.085,9.404,68.267,23.296c28.331,19.2,85.931,49.237,104.789,58.88c3.925,2.048,6.144,3.157,6.144,3.157  S469.333,202.229,469.333,213.151z"/>
<path style="fill:#FEC108;" d="M418.133,230.218c0,9.045-8.277,17.579-22.869,25.088c-45.807,9.455-92.493,13.978-139.264,13.483  c-117.76,0-213.333-24.832-213.333-55.637c0-10.923,34.133-29.696,34.133-29.696s2.219-1.109,6.144-3.157  c18.859-9.643,76.459-39.68,104.789-58.88c2.935-2.039,5.99-3.925,9.131-5.632c2.637-0.341,5.282-0.538,7.936-0.597  c24.465,1.34,48.085,9.404,68.267,23.296c28.331,19.2,85.931,49.237,104.789,58.88c3.925,2.048,6.144,3.157,6.144,3.157  S418.133,219.295,418.133,230.218z"/>
<g>
	<path style="fill:#F57C00;" d="M392.533,217.58c0,0-25.6-8.533-51.2-42.667"/>
	<path style="fill:#F57C00;" d="M457.301,279.285l-32.512,97.621c-3.703,11.341-13.107,19.9-24.747,22.528   c-47.351,9.984-95.65,14.822-144.043,14.421c-5.973,0-11.861-0.085-17.664-0.256c-0.768,0.043-1.536,0.043-2.304,0   c-41.719-0.691-83.277-5.436-124.075-14.165c-11.639-2.628-21.043-11.187-24.747-22.528l-27.733-83.371l-4.779-14.251   c41.472,18.091,107.349,30.208,182.528,31.915c6.229,0.171,12.459,0.256,18.773,0.256c53.495,0.58,106.863-5.436,158.891-17.92   C429.363,289.857,443.546,285.096,457.301,279.285z"/>
</g>
<path style="fill:#FF9801;" d="M419.669,279.285l-4.779,14.251l-27.733,83.371c-3.703,11.341-13.107,19.9-24.747,22.528  c-40.806,8.73-82.355,13.474-124.075,14.165c-0.768,0.043-1.536,0.043-2.304,0c-41.719-0.691-83.277-5.436-124.075-14.165  c-11.639-2.628-21.043-11.187-24.747-22.528l-27.733-83.371c52.028,12.484,105.395,18.5,158.891,17.92  c6.315,0,12.629-0.085,18.859-0.256C312.405,309.493,378.197,297.29,419.669,279.285z"/>
<path d="M256,319.989c-80.879,0-157.406-12.288-204.706-32.879C8.9,268.78,0,248.462,0,234.655c0-25.225,27.733-46.993,80.205-62.95  c3.746-1.143,7.799,0.418,9.805,3.78c1.246,2.082,1.613,4.565,1.015,6.921c-0.58,2.304-2.074,4.275-4.13,5.461  c-4.011,2.091-6.272,3.226-6.272,3.226c-13.978,7.706-28.177,18.594-29.491,22.673c0.068,19.055,77.978,46.49,204.868,46.49  s204.8-27.435,204.8-47.104c-8.422-9.19-18.492-16.725-29.687-22.212c-0.026-0.009-2.253-1.126-6.007-3.081  c-4.181-2.185-5.794-7.347-3.61-11.529c0.077-0.145,0.154-0.282,0.239-0.418c2.048-3.482,6.144-5.188,10.061-4.207  C484.267,187.662,512,209.431,512,234.655c0,13.807-8.9,34.125-51.311,52.463C413.406,307.692,336.879,319.989,256,319.989z   M34.389,210.634c-11.23,7.851-17.323,16.077-17.323,24.021c0,12.109,14.95,25.523,41.02,36.804  c45.278,19.712,119.262,31.462,197.914,31.462s152.636-11.759,197.897-31.462c26.086-11.281,41.037-24.695,41.037-36.804  c0-7.945-6.093-16.171-17.323-24.013c0.171,0.819,0.256,1.664,0.256,2.509c0,42.129-111.616,64.171-221.867,64.171  S34.133,255.28,34.133,213.151C34.133,212.307,34.219,211.462,34.389,210.634z"/>
<path d="M82.688,188.405c-4.71,0-8.533-3.823-8.533-8.533c0-3.345,1.954-6.374,4.992-7.765c1.161-0.555,2.423-0.845,3.712-0.853  c4.719,0,8.533,3.823,8.533,8.542c0,3.328-1.937,6.357-4.966,7.748C85.257,188.097,83.985,188.396,82.688,188.405z"/>
<path d="M429.312,188.405c-1.297-0.009-2.577-0.307-3.738-0.87c-4.284-1.971-6.153-7.04-4.181-11.324  c1.391-3.021,4.42-4.958,7.748-4.958c1.289,0.009,2.56,0.299,3.721,0.853c4.284,1.963,6.17,7.031,4.207,11.315  C435.678,186.451,432.649,188.405,429.312,188.405L429.312,188.405z"/>
<path d="M256,277.322c-110.251,0-221.867-22.042-221.867-64.171c0-13.892,24.158-29.261,38.554-37.171  c0.333-0.179,2.5-1.254,6.306-3.251c7.484-3.823,73.395-37.658,103.953-58.377C204.527,99.47,229.82,90.894,256,89.589  c26.189,1.314,51.49,9.899,73.079,24.781c30.532,20.702,96.444,54.537,103.859,58.325c3.874,2.022,6.042,3.106,6.076,3.123  c14.694,8.073,38.852,23.441,38.852,37.333C477.867,255.28,366.251,277.322,256,277.322z M255.983,106.655  c-22.724,1.417-44.646,8.951-63.437,21.82c-30.78,20.855-93.466,53.154-105.719,59.426c-3.942,2.057-6.212,3.191-6.212,3.191  c-13.978,7.706-28.177,18.594-29.491,22.673c0.077,19.055,77.986,46.49,204.877,46.49c126.046,0,203.767-27.076,204.792-46.711  c-8.286-9.438-18.381-17.118-29.679-22.596c-0.026-0.009-2.253-1.126-6.007-3.081c-12.186-6.229-74.871-38.537-105.626-59.375  C300.672,115.607,278.733,108.063,255.983,106.655z"/>
<path d="M128,226.113c-4.71,0-8.533-3.823-8.533-8.533c0-3.661,2.33-6.903,5.794-8.081c19.029-8.687,35.319-22.417,47.113-39.697  c2.825-3.772,8.175-4.54,11.938-1.715c3.763,2.825,4.54,8.175,1.715,11.938c0,0,0,0,0,0.009  c-26.889,35.857-54.178,45.269-55.322,45.645C129.826,225.96,128.922,226.113,128,226.113z"/>
<path d="M392.533,226.113c-0.913,0-1.826-0.154-2.697-0.444c-1.143-0.375-28.442-9.779-55.322-45.645  c-2.825-3.772-2.065-9.114,1.707-11.938c3.772-2.825,9.114-2.065,11.938,1.707c0,0,0,0,0,0.009  c11.793,17.28,28.083,31.01,47.113,39.697c4.463,1.527,6.835,6.391,5.308,10.846C399.403,223.784,396.169,226.096,392.533,226.113  L392.533,226.113z"/>
<path d="M256,243.18c-4.71,0-8.533-3.814-8.533-8.525c0,0,0,0,0-0.009v-59.733c0-4.71,3.823-8.533,8.533-8.533  c4.71,0,8.533,3.823,8.533,8.533v59.733C264.533,239.357,260.719,243.18,256,243.18L256,243.18z"/>
<path d="M256,422.389c-49.024,0.401-97.946-4.506-145.911-14.635c-14.549-3.311-26.308-13.995-30.976-28.169L46.601,281.99  c-1.493-4.471,0.922-9.301,5.393-10.795c1.997-0.666,4.173-0.572,6.11,0.273c45.261,19.703,119.245,31.462,197.897,31.462  s152.636-11.759,197.897-31.462c4.318-1.877,9.353,0.094,11.23,4.42c0.845,1.929,0.939,4.105,0.273,6.11l-32.512,97.613  c-4.685,14.174-16.452,24.858-31.01,28.16C353.92,417.883,305.015,422.79,256,422.389z M68.531,293.8l26.778,80.401  c2.773,8.482,9.788,14.899,18.492,16.887c46.746,9.856,94.43,14.626,142.208,14.225c47.761,0.401,95.428-4.369,142.174-14.217  c8.713-1.988,15.736-8.397,18.517-16.887l26.778-80.418C395.938,310.337,327.68,319.989,256,319.989S116.062,310.337,68.531,293.8z"/>
<g>
</g>
<g>
</g>
<g>
</g>
<g>
</g>
<g>
</g>
<g>
</g>
<g>
</g>
<g>
</g>
<g>
</g>
<g>
</g>
<g>
</g>
<g>
</g>
<g>
</g>
<g>
</g>
<g>
</g>
</svg>
