<?xml version="1.0" encoding="iso-8859-1"?>
<!-- Generator: Adobe Illustrator 19.0.0, SVG Export Plug-In . SVG Version: 6.00 Build 0)  -->
<svg xmlns="http://www.w3.org/2000/svg" xmlns:xlink="http://www.w3.org/1999/xlink" version="1.1" id="Capa_1" x="0px" y="0px" viewBox="0 0 512 512" style="enable-background:new 0 0 512 512;" xml:space="preserve">
<path style="fill:#6A1B9A;" d="M503.467,179.191c0.068,94.254-76.284,170.709-170.539,170.778S162.219,273.685,162.151,179.43  c-0.043-58.058,29.439-112.157,78.247-143.592c27.502-17.885,59.611-27.374,92.411-27.305  c94.229-0.026,170.633,76.335,170.658,170.564C503.467,179.131,503.467,179.157,503.467,179.191z"/>
<path style="fill:#9D27B0;" d="M469.336,196.257c0.077,57.998-29.421,112.037-78.247,143.353  c-88.546,32.212-186.444-13.448-218.656-101.994c-27.246-74.876,0.973-158.644,67.965-201.778  c88.623-32.161,186.538,13.61,218.698,102.233C465.863,156.724,469.327,176.418,469.336,196.257z"/>
<path d="M332.809,358.382c-98.965,0-179.191-80.226-179.191-179.191S233.845,0,332.809,0S512,80.226,512,179.191  C511.889,278.105,431.723,358.271,332.809,358.382z M332.809,17.066c-89.536,0-162.125,72.589-162.125,162.125  s72.589,162.125,162.125,162.125s162.125-72.589,162.125-162.125C494.832,89.698,422.302,17.168,332.809,17.066z"/>
<path d="M469.336,187.724c-4.71,0-8.533-3.814-8.533-8.524v-0.009C460.726,108.53,403.47,51.274,332.809,51.198  c-4.71,0-8.533-3.823-8.533-8.533s3.823-8.533,8.533-8.533c80.081,0.085,144.974,64.978,145.059,145.059  c0,4.71-3.814,8.533-8.524,8.533C469.344,187.724,469.336,187.724,469.336,187.724z"/>
<path style="fill:#795548;" d="M224.783,311.281L37.656,498.407c-6.647,6.647-17.416,6.647-24.063,0s-6.647-17.416,0-24.063l0,0  L200.72,287.218"/>
<path d="M25.625,512c-6.809,0.009-13.337-2.731-18.107-7.594c-9.958-9.873-10.035-25.949-0.162-35.906  c0.077-0.077,0.154-0.154,0.23-0.23l187.093-187.084c3.328-3.328,8.738-3.328,12.066,0c3.328,3.328,3.328,8.738,0,12.066l0,0  L19.626,480.377c-3.319,3.302-3.336,8.669-0.034,11.997c3.302,3.319,8.669,3.336,11.997,0.034l187.169-187.161  c3.328-3.328,8.738-3.328,12.066,0c3.328,3.328,3.328,8.738,0,12.066L43.689,504.44C38.927,509.287,32.417,512.017,25.625,512z"/>
<path id="SVGCleanerId_0" d="M228.204,324.251c-2.475,0-4.821-1.067-6.442-2.935c-50.114-57.734-44.047-145.145,13.576-195.395  c41.453-36.077,104.298-31.717,140.375,9.728c0.009,0.009,0.009,0.017,0.017,0.017c26.136,30.104,22.971,75.678-7.074,101.874  c-22.143,19.233-55.669,16.904-74.936-5.197c-14.404-16.545-12.671-41.641,3.883-56.044c0.009-0.009,0.009-0.009,0.017-0.017  c12.654-11.016,31.836-9.685,42.844,2.961l0.009,0.009c8.618,9.932,7.569,24.967-2.338,33.611c-3.55,3.097-8.943,2.739-12.04-0.811  c-3.097-3.55-2.739-8.942,0.811-12.04c0.009-0.009,0.017-0.017,0.026-0.026c2.807-2.449,3.106-6.715,0.657-9.531  c-2.312-2.671-5.589-4.309-9.113-4.539c-3.516-0.222-6.98,0.939-9.651,3.242c-9.446,8.2-10.461,22.51-2.261,31.964  c0.009,0.009,0.017,0.017,0.026,0.026c13.089,14.992,35.838,16.571,50.865,3.524c22.979-19.993,25.394-54.824,5.41-77.795  l-0.009-0.009c-29.908-34.311-81.95-37.92-116.321-8.072c-50.515,44.064-55.839,120.706-11.895,171.324  c3.089,3.558,2.713,8.943-0.836,12.04C232.257,323.508,230.261,324.251,228.204,324.251z"/>
<g>
	<path id="SVGCleanerId_0_1_" d="M228.204,324.251c-2.475,0-4.821-1.067-6.442-2.935c-50.114-57.734-44.047-145.145,13.576-195.395   c41.453-36.077,104.298-31.717,140.375,9.728c0.009,0.009,0.009,0.017,0.017,0.017c26.136,30.104,22.971,75.678-7.074,101.874   c-22.143,19.233-55.669,16.904-74.936-5.197c-14.404-16.545-12.671-41.641,3.883-56.044c0.009-0.009,0.009-0.009,0.017-0.017   c12.654-11.016,31.836-9.685,42.844,2.961l0.009,0.009c8.618,9.932,7.569,24.967-2.338,33.611c-3.55,3.097-8.943,2.739-12.04-0.811   c-3.097-3.55-2.739-8.942,0.811-12.04c0.009-0.009,0.017-0.017,0.026-0.026c2.807-2.449,3.106-6.715,0.657-9.531   c-2.312-2.671-5.589-4.309-9.113-4.539c-3.516-0.222-6.98,0.939-9.651,3.242c-9.446,8.2-10.461,22.51-2.261,31.964   c0.009,0.009,0.017,0.017,0.026,0.026c13.089,14.992,35.838,16.571,50.865,3.524c22.979-19.993,25.394-54.824,5.41-77.795   l-0.009-0.009c-29.908-34.311-81.95-37.92-116.321-8.072c-50.515,44.064-55.839,120.706-11.895,171.324   c3.089,3.558,2.713,8.943-0.836,12.04C232.257,323.508,230.261,324.251,228.204,324.251z"/>
</g>
<g>
</g>
<g>
</g>
<g>
</g>
<g>
</g>
<g>
</g>
<g>
</g>
<g>
</g>
<g>
</g>
<g>
</g>
<g>
</g>
<g>
</g>
<g>
</g>
<g>
</g>
<g>
</g>
<g>
</g>
</svg>
