<?xml version="1.0" encoding="iso-8859-1"?>
<!-- Generator: Adobe Illustrator 19.0.0, SVG Export Plug-In . SVG Version: 6.00 Build 0)  -->
<svg xmlns="http://www.w3.org/2000/svg" xmlns:xlink="http://www.w3.org/1999/xlink" version="1.1" id="Capa_1" x="0px" y="0px" viewBox="0 0 512.01 512.01" style="enable-background:new 0 0 512.01 512.01;" xml:space="preserve">
<path style="fill:#AD1457;" d="M424.018,233.966c-1.57,2.364-3.371,4.566-5.376,6.571L240.539,418.64  c-16.965,16.897-44.393,16.897-61.359,0l-85.936-86.022c-4.497-4.472-7.937-9.899-10.07-15.873  c-5.786-15.83-1.86-33.581,10.07-45.486L271.261,93.242c16.889-16.94,44.317-16.991,61.256-0.102  c0.034,0.034,0.068,0.068,0.102,0.102l86.022,85.936C433.235,193.84,435.487,216.754,424.018,233.966z"/>
<path style="fill:#E91E63;" d="M424.018,233.966c-1.57,2.364-3.371,4.566-5.376,6.571L240.539,418.64  c-16.965,16.897-44.393,16.897-61.359,0l-85.936-86.022c-4.497-4.472-7.937-9.899-10.07-15.873c1.57-2.364,3.371-4.566,5.376-6.571  l178.017-178.017c16.948-16.965,44.436-16.982,61.401-0.043c0.017,0.017,0.026,0.026,0.043,0.043l85.936,85.936  C418.428,222.582,421.867,228.001,424.018,233.966z"/>
<polygon style="fill:#FDD834;" points="289.694,369.485 289.438,369.741 240.539,418.64 169.964,228.59 160.747,203.756   209.902,154.601 "/>
<polygon style="fill:#FFEB3A;" points="289.438,369.741 240.539,418.64 169.964,228.59 218.863,179.691 "/>
<path d="M240.539,427.174c-0.614,0-1.22-0.068-1.818-0.196c-2.842-0.614-5.172-2.637-6.187-5.368l-79.792-214.884  c-1.161-3.123-0.393-6.639,1.963-9.003l49.155-49.155c3.337-3.328,8.739-3.328,12.075,0.009c0.862,0.87,1.536,1.912,1.963,3.055  l79.801,214.884c1.161,3.123,0.393,6.639-1.963,9.003l-49.164,49.155C244.968,426.269,242.801,427.174,240.539,427.174z   M170.655,205.916l73.246,197.287l35.885-35.885l-73.255-197.27L170.655,205.916z"/>
<path d="M289.694,378.019c-0.614,0-1.22-0.068-1.818-0.196c-2.842-0.614-5.172-2.637-6.187-5.368l-79.801-214.884  c-1.161-3.123-0.393-6.639,1.963-9.003l61.359-61.359c9.72-9.78,22.956-15.267,36.747-15.233h0.068  c13.757-0.017,26.959,5.47,36.636,15.25l86.005,85.919c20.234,20.294,20.234,53.132,0,73.426l0,0L295.719,375.51  C294.132,377.123,291.964,378.019,289.694,378.019z M219.81,156.76l73.255,197.287l119.551-119.534  c13.586-13.62,13.586-35.672,0-49.292l-86.022-85.936c-6.494-6.563-15.344-10.249-24.578-10.232h-0.043  c-9.259-0.017-18.152,3.661-24.68,10.232L219.81,156.76z"/>
<path d="M209.86,439.847c-13.774,0.043-26.993-5.419-36.713-15.173L87.21,338.66c-20.277-20.225-20.319-53.064-0.094-73.34  c0.034-0.034,0.06-0.06,0.094-0.094l67.503-67.503c3.337-3.328,8.739-3.328,12.075,0.009c0.862,0.87,1.536,1.912,1.963,3.055  l79.792,214.884c1.161,3.123,0.393,6.639-1.963,9.003C236.852,434.428,223.633,439.898,209.86,439.847z M157.385,219.203  l-58.107,58.099c-13.612,13.569-13.654,35.595-0.085,49.206c0.026,0.026,0.043,0.043,0.068,0.068l85.953,86.03  c12.186,12.127,31.379,13.586,45.264,3.456L157.385,219.203z"/>
<path d="M139.259,338.123c-2.261,0-4.438-0.896-6.033-2.5l-21.488-21.497c-1.63-1.621-2.91-3.55-3.772-5.675  c-2.611-6.418-1.126-13.774,3.772-18.672c3.345-3.32,8.747-3.286,12.067,0.06c3.294,3.328,3.294,8.679,0,12.007l21.488,21.702  c3.328,3.337,3.328,8.739,0,12.067C143.688,337.227,141.52,338.123,139.259,338.123L139.259,338.123z"/>
<path d="M394.055,224.545c-4.711,0-8.534-3.823-8.534-8.534c0-2.261,0.896-4.429,2.5-6.033l-42.977-43.199  c-3.328-3.328-3.328-8.739,0-12.067s8.739-3.328,12.067,0l42.977,42.977c6.725,6.716,6.733,17.614,0.009,24.339l-0.009,0.009  C398.493,223.64,396.317,224.545,394.055,224.545z"/>
<path style="fill:#4527A0;" d="M160.747,400.207l-30.893,72.111c-0.768,1.792-1.621,3.584-2.56,5.376  c-3.678,7.04-8.389,13.484-13.996,19.116l-1.707,1.621c-3.192,3.294-7.612,5.12-12.203,5.035  c-5.163,0.077-10.087-2.185-13.398-6.144c-5.496-7.032-4.984-17.034,1.195-23.468h-0.085c-6.887,6.784-17.964,6.699-24.748-0.179  c-0.29-0.299-0.58-0.606-0.853-0.93c-5.547-6.989-5.112-16.991,1.024-23.468c-3.234,3.286-7.681,5.103-12.289,5.035  c-5.137,0.06-10.027-2.202-13.313-6.144c-5.504-6.972-5.069-16.923,1.024-23.383c-6.844,6.767-17.87,6.708-24.637-0.137  c-0.333-0.341-0.657-0.691-0.964-1.058c-5.692-7.271-4.95-17.674,1.707-24.066l0.939-0.939c5.692-5.684,12.229-10.463,19.372-14.166  c1.707-0.939,3.414-1.707,5.12-2.475l72.111-30.893L160.747,400.207z"/>
<path style="fill:#673AB7;" d="M160.747,400.207l-30.893,72.111c-0.768,1.792-1.621,3.584-2.56,5.376  c-0.76,0.145-1.536,0.196-2.304,0.171c-5.163,0.077-10.087-2.185-13.398-6.144c-5.667-7.322-4.89-17.742,1.792-24.151l-0.683,0.683  c-6.887,6.784-17.964,6.699-24.748-0.179c-0.29-0.299-0.58-0.606-0.853-0.93c-5.453-6.887-5.12-16.701,0.768-23.212  c-3.209,3.14-7.544,4.864-12.033,4.779c-5.137,0.06-10.027-2.202-13.313-6.144c-5.41-6.87-5.086-16.633,0.768-23.127  c-6.989,6.622-18.024,6.324-24.646-0.657c-0.239-0.256-0.478-0.521-0.7-0.794c-3.123-3.781-4.438-8.739-3.584-13.569  c1.707-0.939,3.414-1.707,5.12-2.475l72.111-30.893L160.747,400.207z"/>
<path style="fill:#4527A0;" d="M503.469,99.387c0.085,4.591-1.741,9.012-5.035,12.203l-1.621,1.707  c-5.632,5.607-12.075,10.326-19.116,13.996c-1.792,0.939-3.584,1.792-5.376,2.56l-72.111,30.893l-49.155-49.155l30.893-72.111  c0.768-1.707,1.536-3.414,2.475-5.12c3.704-7.143,8.483-13.68,14.166-19.372l0.939-0.939c6.392-6.656,16.795-7.399,24.066-1.707  c7.373,6.179,8.338,17.17,2.159,24.544c-0.307,0.367-0.632,0.717-0.964,1.058c6.46-6.093,16.411-6.528,23.383-1.024  c3.943,3.286,6.204,8.175,6.144,13.313c0.068,4.608-1.749,9.054-5.035,12.289c6.477-6.136,16.479-6.571,23.468-1.024  c7.356,6.272,8.235,17.324,1.954,24.68c-0.273,0.316-0.555,0.623-0.845,0.922l-0.683,0.683c6.409-6.682,16.829-7.459,24.151-1.792  C501.292,89.3,503.545,94.224,503.469,99.387z"/>
<path style="fill:#673AB7;" d="M477.867,124.989c0.026,0.768-0.026,1.545-0.171,2.304c-1.792,0.939-3.584,1.792-5.376,2.56  l-72.111,30.893l-49.155-49.155l30.893-72.111c0.768-1.707,1.536-3.414,2.475-5.12c4.83-0.853,9.788,0.461,13.569,3.584  c7.373,6.187,8.338,17.179,2.151,24.561c-0.23,0.273-0.461,0.529-0.7,0.785c6.494-5.846,16.257-6.17,23.127-0.768  c3.943,3.286,6.204,8.175,6.144,13.313c0.085,4.489-1.639,8.824-4.779,12.033c6.511-5.888,16.325-6.213,23.212-0.768  c7.356,6.272,8.235,17.324,1.954,24.68c-0.273,0.316-0.555,0.623-0.845,0.922l-0.683,0.683c6.409-6.682,16.829-7.459,24.151-1.792  C475.691,114.901,477.944,119.826,477.867,124.989z"/>
<path d="M98.91,512.001c-7.51-0.06-14.602-3.431-19.398-9.2c-3.61-4.327-5.667-9.737-5.829-15.37  c-7.271-0.256-14.081-3.601-18.732-9.191c-3.618-4.318-5.675-9.737-5.837-15.37c-7.271-0.256-14.081-3.601-18.723-9.191  c-3.618-4.318-5.667-9.737-5.829-15.37c-7.271-0.256-14.081-3.601-18.732-9.191c-8.551-10.676-7.587-26.105,2.219-35.646  l0.947-0.947c7.791-7.809,17.008-14.047,27.155-18.382l72.12-30.91c3.209-1.382,6.93-0.666,9.396,1.809l49.121,49.121  c2.466,2.466,3.183,6.187,1.809,9.396l-30.91,72.12c-4.335,10.147-10.574,19.363-18.373,27.155l-1.639,1.639  c-4.924,4.813-11.529,7.518-18.416,7.535h-0.35V512.001z M107.888,461.591c0,2.261-0.896,4.438-2.5,6.033l-11.589,11.589  c-3.524,3.286-4.054,8.679-1.237,12.587c1.604,1.971,4.011,3.123,6.563,3.132c0.077,0,0.162,0,0.239,0  c2.338,0.034,4.583-0.879,6.23-2.535l1.639-1.639c6.264-6.264,11.273-13.663,14.755-21.804l28.631-66.812l-40.954-40.954  l-66.795,28.64c-8.141,3.482-15.549,8.5-21.804,14.764l-0.947,0.947c-3.524,3.277-4.054,8.662-1.246,12.57  c1.749,1.86,4.139,2.978,6.682,3.14c2.407,0.179,4.753-0.76,6.375-2.543l0.282-0.282l0.384-0.401l11.598-11.58  c3.328-3.328,8.739-3.328,12.067,0s3.328,8.739,0,12.067l0,0l-11.837,11.837c-3.32,3.303-3.746,8.534-0.998,12.323  c1.604,1.98,4.019,3.132,6.571,3.14h0.239c2.338,0.034,4.583-0.879,6.23-2.535l12.28-12.28c3.328-3.328,8.739-3.328,12.067,0  c3.328,3.328,3.328,8.739,0,12.067l-11.589,11.589c-3.507,3.286-4.045,8.67-1.229,12.579c1.604,1.98,4.019,3.132,6.571,3.14  c0.077-0.009,0.162-0.009,0.239,0c2.338,0.034,4.583-0.879,6.23-2.535l12.28-12.28c3.337-3.328,8.739-3.328,12.067,0  C106.983,457.162,107.888,459.33,107.888,461.591L107.888,461.591z"/>
<path d="M400.2,169.279c-2.261,0-4.438-0.896-6.033-2.5l-49.121-49.121c-2.466-2.466-3.183-6.187-1.809-9.396l30.91-72.12  c4.335-10.147,10.573-19.363,18.382-27.155l0.947-0.947c9.541-9.805,24.97-10.761,35.655-2.21c5.581,4.66,8.918,11.461,9.174,18.723  c5.641,0.162,11.06,2.21,15.387,5.837c5.581,4.66,8.918,11.461,9.174,18.723c5.641,0.154,11.06,2.21,15.387,5.837  c5.581,4.66,8.918,11.461,9.174,18.723c5.632,0.162,11.051,2.21,15.378,5.829c5.914,4.933,9.293,12.263,9.2,19.961  c0.051,6.836-2.663,13.398-7.535,18.194l-1.639,1.639c-7.791,7.809-17.008,14.047-27.155,18.373l-72.12,30.91  C402.495,169.041,401.352,169.279,400.2,169.279z M361.191,109.679l40.954,40.954l66.812-28.631c8.141-3.49,15.54-8.5,21.804-14.755  l1.639-1.639c1.647-1.613,2.56-3.832,2.535-6.136c0.077-2.663-1.075-5.206-3.132-6.904c-3.909-2.825-9.302-2.296-12.587,1.237  l-11.589,11.589c-3.328,3.328-8.739,3.328-12.067,0c-3.328-3.328-3.328-8.739,0-12.067l0,0l12.28-12.28  c1.647-1.613,2.56-3.832,2.535-6.136c0.077-2.663-1.075-5.206-3.132-6.904c-3.909-2.825-9.302-2.296-12.587,1.237l-11.589,11.589  c-3.328,3.328-8.739,3.328-12.067,0c-3.328-3.328-3.328-8.739,0-12.067l12.28-12.28c1.647-1.613,2.56-3.832,2.535-6.136  c0.077-2.663-1.075-5.206-3.132-6.904c-3.798-2.756-9.037-2.33-12.34,0.998l-11.828,11.828c-3.328,3.328-8.739,3.328-12.067,0  c-3.328-3.328-3.328-8.739,0-12.067l0,0l11.581-11.589c0.128-0.137,0.256-0.256,0.393-0.393l0.299-0.29  c1.639-1.613,2.56-3.823,2.535-6.127c0.085-2.663-1.075-5.223-3.132-6.921c-3.9-2.825-9.293-2.296-12.579,1.237l-0.947,0.939  c-6.272,6.255-11.282,13.654-14.764,21.804L361.191,109.679z"/>
<g>
</g>
<g>
</g>
<g>
</g>
<g>
</g>
<g>
</g>
<g>
</g>
<g>
</g>
<g>
</g>
<g>
</g>
<g>
</g>
<g>
</g>
<g>
</g>
<g>
</g>
<g>
</g>
<g>
</g>
</svg>
