<?xml version="1.0" encoding="iso-8859-1"?>
<!-- Generator: Adobe Illustrator 19.0.0, SVG Export Plug-In . SVG Version: 6.00 Build 0)  -->
<svg xmlns="http://www.w3.org/2000/svg" xmlns:xlink="http://www.w3.org/1999/xlink" version="1.1" id="Capa_1" x="0px" y="0px" viewBox="0 0 512 512" style="enable-background:new 0 0 512 512;" xml:space="preserve">
<path d="M256.171,102.4H256c-4.736,0.017-8.61-3.797-8.67-8.533c-0.06-4.651,3.661-8.474,8.311-8.533c0.034,0,0.068,0,0.094,0  c4.753-0.017,8.653,3.78,8.747,8.533c0.102,4.617-3.558,8.431-8.175,8.533C256.273,102.4,256.222,102.4,256.171,102.4z"/>
<path style="fill:#C52828;" d="M486.4,283.221c0,121.685-103.168,220.245-230.4,220.245c-21.717,0.009-43.324-2.918-64.256-8.704  C95.744,468.224,25.6,383.573,25.6,283.221c0-82.347,47.36-140.032,117.419-168.619h0.085c3.755-1.621,7.595-3.072,11.52-4.352  l179.456-0.085h23.296c3.925,1.365,7.765,2.816,11.52,4.437h0.085C439.04,143.189,486.4,200.875,486.4,283.221z"/>
<path style="fill:#F44335;" d="M443.733,275.456c0,121.685-103.168,220.245-230.4,220.245c-7.253,0-14.507-0.341-21.589-0.939  C95.744,468.224,25.6,383.573,25.6,283.221c0-82.347,47.36-140.032,117.419-168.619h0.085c3.755-1.621,7.595-3.072,11.52-4.352  l179.456-0.085C399.872,139.776,443.733,196.181,443.733,275.456z"/>
<path id="SVGCleanerId_0" d="M256,512C124.254,512,17.067,409.378,17.067,283.221c0-80.358,44.732-144.691,122.726-176.529  c0.188-0.077,0.375-0.154,0.572-0.205c3.772-1.604,7.671-3.063,11.605-4.352c4.48-1.451,9.293,1.015,10.743,5.495  c1.442,4.463-0.99,9.25-5.436,10.718c-3.678,1.212-7.287,2.569-10.803,4.087c-0.273,0.119-0.546,0.213-0.836,0.299  C73.728,152.32,34.133,209.289,34.133,283.221c0,116.736,99.524,211.712,221.867,211.712s221.867-94.976,221.867-211.712  c0-73.95-39.612-130.927-111.548-160.503c-0.265-0.085-0.538-0.179-0.794-0.282c-3.499-1.51-7.074-2.859-10.735-4.139  c-4.497-1.399-7.006-6.178-5.606-10.675c1.109-3.55,4.386-5.973,8.107-5.99h0.085c0.956,0,1.903,0.162,2.807,0.478  c3.9,1.357,7.723,2.799,11.477,4.395c0.188,0.06,0.367,0.119,0.546,0.196c77.995,31.829,122.726,96.162,122.726,176.521  C494.933,409.378,387.746,512,256,512z"/>
<g>
	<path id="SVGCleanerId_0_1_" d="M256,512C124.254,512,17.067,409.378,17.067,283.221c0-80.358,44.732-144.691,122.726-176.529   c0.188-0.077,0.375-0.154,0.572-0.205c3.772-1.604,7.671-3.063,11.605-4.352c4.48-1.451,9.293,1.015,10.743,5.495   c1.442,4.463-0.99,9.25-5.436,10.718c-3.678,1.212-7.287,2.569-10.803,4.087c-0.273,0.119-0.546,0.213-0.836,0.299   C73.728,152.32,34.133,209.289,34.133,283.221c0,116.736,99.524,211.712,221.867,211.712s221.867-94.976,221.867-211.712   c0-73.95-39.612-130.927-111.548-160.503c-0.265-0.085-0.538-0.179-0.794-0.282c-3.499-1.51-7.074-2.859-10.735-4.139   c-4.497-1.399-7.006-6.178-5.606-10.675c1.109-3.55,4.386-5.973,8.107-5.99h0.085c0.956,0,1.903,0.162,2.807,0.478   c3.9,1.357,7.723,2.799,11.477,4.395c0.188,0.06,0.367,0.119,0.546,0.196c77.995,31.829,122.726,96.162,122.726,176.521   C494.933,409.378,387.746,512,256,512z"/>
</g>
<path style="fill:#558B30;" d="M255.915,91.477c0,2.227-0.341,4.446-1.024,6.571c-7.339,22.443-51.371,28.16-98.475,12.8  c-7.799-2.637-15.275-6.161-22.272-10.496c-25.532-16.973-47.846-38.349-65.877-63.147c0,0,56.405-19.029,101.973-10.667  c4.284,0.742,8.499,1.792,12.629,3.157c20.702,6.298,39.817,16.947,56.064,31.232C248.439,68.437,254.558,79.437,255.915,91.477z"/>
<path style="fill:#8BC34A;" d="M212.309,82.176c-6.229,19.2-39.339,26.112-78.165,18.176  c-25.532-16.973-47.846-38.349-65.877-63.147c0,0,56.405-19.029,101.973-10.667C200.192,42.837,217.941,64.939,212.309,82.176z"/>
<path style="fill:#558B30;" d="M257.109,98.048c7.339,22.443,51.371,28.16,98.475,12.8c7.799-2.637,15.275-6.161,22.272-10.496  c25.532-16.973,47.846-38.349,65.877-63.147c0,0-56.405-19.029-101.973-10.667c-4.284,0.742-8.499,1.792-12.629,3.157  C282.027,45.056,249.856,75.691,257.109,98.048z"/>
<path style="fill:#8BC34A;" d="M299.691,82.176c6.229,19.2,39.339,26.112,78.165,18.176c25.532-16.973,47.846-38.349,65.877-63.147  c0,0-56.405-19.029-101.973-10.667C311.808,42.837,294.059,64.939,299.691,82.176z"/>
<path d="M207.027,128.162c-18.116-0.282-36.07-3.379-53.231-9.182c-49.178-16.051-90.752-74.377-92.501-76.851  c-2.714-3.857-1.792-9.182,2.065-11.895c0.666-0.478,1.399-0.845,2.176-1.109c2.876-0.964,70.827-23.578,120.021-7.501  c22.042,6.724,42.368,18.133,59.58,33.451c16.102,15.3,22.434,31.514,17.826,45.662  C257.152,118.554,235.708,128.162,207.027,128.162z M82.662,41.899c13.534,16.683,43.861,50.219,76.433,60.843  c45.397,14.814,82.645,8.038,87.646-7.305c2.415-7.415-2.449-17.613-13.355-27.981c-15.369-13.568-33.485-23.671-53.12-29.602  C147.618,27.196,103.407,36.412,82.662,41.899z"/>
<path d="M304.87,128.154c-28.672,0-50.116-9.609-55.953-27.452c-0.964-2.978-1.459-6.093-1.451-9.225  c1.212-14.49,8.371-27.836,19.763-36.855c17.118-15.087,37.257-26.342,59.076-33.024c49.246-15.991,117.188,6.562,120.064,7.535  c4.463,1.51,6.861,6.349,5.359,10.812c-0.265,0.777-0.64,1.51-1.109,2.185c-1.749,2.475-43.332,60.783-92.57,76.843  C340.915,124.774,322.97,127.872,304.87,128.154z M366.822,32.956c-11.921-0.205-23.808,1.434-35.234,4.855  c-19.405,5.956-37.35,15.923-52.676,29.244c-7.74,5.965-12.894,14.677-14.387,24.346c-0.009,1.374,0.196,2.739,0.614,4.053  c5.026,15.309,42.24,22.118,87.62,7.287c32.597-10.633,62.933-44.151,76.484-60.834C408.883,36.378,387.925,33.374,366.822,32.956z"/>
<path style="fill:#795548;" d="M273.067,25.6v35.243c-9.591,7.492-15.744,18.534-17.067,30.635h-0.085  c-1.357-12.041-7.475-23.04-16.981-30.549V25.6c0-9.429,7.637-17.067,17.067-17.067C265.429,8.533,273.067,16.171,273.067,25.6z"/>
<path style="fill:#558B30;" d="M273.067,60.843V25.6c0-9.429-7.637-17.067-17.067-17.067c-9.429,0-17.067,7.637-17.067,17.067  v35.328"/>
<path d="M256,100.011c-4.727,0.009-8.576-3.806-8.619-8.533c-1.459-9.651-6.588-18.372-14.31-24.354  c-1.707-1.604-2.671-3.849-2.671-6.195V25.6C230.4,11.46,241.86,0,256,0c14.14,0,25.6,11.46,25.6,25.6v35.243  c0,2.355-0.981,4.617-2.697,6.221c-7.74,5.973-12.885,14.686-14.37,24.337c0.043,4.71-3.746,8.567-8.465,8.61  C256.043,100.011,256.026,100.011,256,100.011z M247.467,57.344c3.106,3.132,5.939,6.519,8.465,10.138  c2.569-3.661,5.444-7.083,8.602-10.24V25.6c0-4.71-3.823-8.533-8.533-8.533c-4.71,0-8.533,3.823-8.533,8.533V57.344z"/>
<path d="M238.933,69.461c-4.71,0-8.533-3.814-8.533-8.525v-0.009V25.6C230.4,11.46,241.86,0,256,0c14.14,0,25.6,11.46,25.6,25.6  v35.243c0,4.71-3.823,8.533-8.533,8.533s-8.533-3.823-8.533-8.533V25.6c0-4.71-3.823-8.533-8.533-8.533  c-4.71,0-8.533,3.823-8.533,8.533v35.328c0,4.71-3.814,8.533-8.525,8.533C238.942,69.461,238.933,69.461,238.933,69.461z"/>
<path d="M259.072,110.933h-6.144c-4.71,0-8.533-3.823-8.533-8.533c0-4.71,3.823-8.533,8.533-8.533h6.059  c4.71-0.026,8.55,3.772,8.576,8.491C267.588,107.068,263.791,110.908,259.072,110.933L259.072,110.933z"/>
<ellipse transform="matrix(-0.6136 0.7896 -0.7896 -0.6136 394.985 264.71)" style="fill:#FFFFFF;" cx="132.725" cy="228.997" rx="68.266" ry="46.933"/>
<path d="M113.391,298.795c-10.027,0.171-19.814-3.055-27.785-9.148c-12.681-10.641-19.149-26.948-17.229-43.383  c1.587-18.765,8.747-36.625,20.557-51.294c11.29-15.061,26.837-26.402,44.621-32.563c15.454-5.931,32.853-3.686,46.293,5.973  c12.681,10.641,19.149,26.948,17.22,43.383c-1.579,18.765-8.73,36.625-20.54,51.285l-0.009,0.009  C158.677,286.012,134.656,298.795,113.391,298.795z M152.26,176.41c-4.599,0.06-9.156,0.811-13.525,2.253  c-14.498,5.111-27.145,14.438-36.318,26.786c-9.702,11.93-15.625,26.487-16.99,41.805c-1.485,10.812,2.509,21.658,10.65,28.928  c16.461,12.757,47.113,1.954,66.987-23.612l-0.009,0.009c9.702-11.938,15.616-26.496,16.99-41.813  c1.485-10.812-2.509-21.649-10.65-28.911C164.454,178.159,158.421,176.239,152.26,176.41z"/>
<g>
</g>
<g>
</g>
<g>
</g>
<g>
</g>
<g>
</g>
<g>
</g>
<g>
</g>
<g>
</g>
<g>
</g>
<g>
</g>
<g>
</g>
<g>
</g>
<g>
</g>
<g>
</g>
<g>
</g>
</svg>
