<?xml version="1.0" encoding="iso-8859-1"?>
<!-- Generator: Adobe Illustrator 19.0.0, SVG Export Plug-In . SVG Version: 6.00 Build 0)  -->
<svg xmlns="http://www.w3.org/2000/svg" xmlns:xlink="http://www.w3.org/1999/xlink" version="1.1" id="Capa_1" x="0px" y="0px" viewBox="0 0 512 512" style="enable-background:new 0 0 512 512;" xml:space="preserve">
<path style="fill:#FDD834;" d="M329.301,143.701v0.085c-8.363,36.779-21.163,79.701-39.168,103.68  c-12.373,16.469-24.661,26.965-34.133,47.872c-0.768-1.621-1.451-3.157-2.219-4.693c-9.131-17.835-20.48-27.989-31.915-43.179  c-18.005-23.979-30.805-66.987-39.168-103.765c3.319-35.831,13.67-70.656,30.464-102.485C225.451,20.565,240.128,8.533,256,8.533  C290.475,8.533,319.659,65.365,329.301,143.701z"/>
<path style="fill:#FFEB3A;" d="M307.2,169.301v0.085c-8.363,36.779-21.163,79.701-39.168,103.68  c-4.864,6.4-9.643,11.947-14.251,17.579c-9.131-17.835-20.48-27.989-31.915-43.179c-18.005-23.979-30.805-66.987-39.168-103.765  c3.319-35.831,13.67-70.656,30.464-102.485c6.016-4.446,13.261-6.921,20.736-7.083C268.373,34.133,297.557,90.965,307.2,169.301z"/>
<path d="M256,303.872c-3.354,0-6.391-1.954-7.774-5.009c-5.649-11.802-13.03-22.69-21.888-32.307  c-3.712-4.412-7.492-8.917-11.29-13.969c-15.548-20.71-29.235-56.713-40.67-106.999c-0.213-0.964-0.265-1.954-0.145-2.935  C184.9,56.004,216.994,0,256,0c39.006,0,71.1,56.004,81.766,142.66c0.043,0.341,0.068,0.691,0.068,1.041v0.085  c0,0.64-0.077,1.271-0.205,1.894c-11.418,50.21-25.088,86.187-40.67,106.914c-3.797,5.052-7.586,9.557-11.29,13.969  c-8.866,9.617-16.247,20.506-21.888,32.307C262.391,301.918,259.354,303.872,256,303.872z M191.351,143.266  c10.675,46.515,23.578,80.759,37.342,99.072c3.593,4.787,7.194,9.062,10.701,13.235c6.042,6.878,11.588,14.174,16.606,21.837  c5.018-7.654,10.564-14.95,16.606-21.837c3.507-4.173,7.108-8.448,10.701-13.235c13.781-18.347,26.684-52.565,37.342-99.021  C311.373,70.076,284.271,17.067,256,17.067C227.738,17.067,200.644,70.05,191.351,143.266z"/>
<path d="M273.067,76.8c-4.71,0-8.533-3.814-8.533-8.525v-0.009c0-4.71-3.823-8.533-8.533-8.533c-4.71,0-8.533,3.823-8.533,8.533  s-3.823,8.533-8.533,8.533s-8.533-3.823-8.533-8.533c0-14.14,11.46-25.6,25.6-25.6c14.14,0,25.6,11.46,25.6,25.6  c0,4.71-3.814,8.533-8.525,8.533H273.067z"/>
<path d="M273.067,128c-4.71,0-8.533-3.814-8.533-8.525v-0.009c0-4.71-3.823-8.533-8.533-8.533c-4.71,0-8.533,3.823-8.533,8.533  c0,4.71-3.823,8.533-8.533,8.533s-8.533-3.823-8.533-8.533c0-14.14,11.46-25.6,25.6-25.6c14.14,0,25.6,11.46,25.6,25.6  c0,4.71-3.814,8.533-8.525,8.533H273.067z"/>
<path d="M213.333,153.6c-4.71,0-8.533-3.814-8.533-8.525v-0.009c0-4.71-3.823-8.533-8.533-8.533  c-2.261,0.009-4.429,0.922-6.007,2.543c-3.268,3.396-8.67,3.507-12.066,0.247c-3.396-3.268-3.507-8.67-0.247-12.066  c0.034-0.034,0.06-0.068,0.094-0.094c9.865-10.095,26.044-10.274,36.13-0.41c4.932,4.813,7.714,11.418,7.697,18.313  c0,4.71-3.814,8.533-8.525,8.533H213.333z"/>
<path d="M298.667,153.6c-4.71,0-8.533-3.814-8.533-8.525v-0.009c-0.026-14.114,11.392-25.574,25.506-25.6  c6.895-0.017,13.5,2.765,18.321,7.689c3.319,3.345,3.294,8.747-0.051,12.066c-3.345,3.319-8.747,3.294-12.066-0.051  c-0.034-0.034-0.06-0.068-0.094-0.094c-1.587-1.621-3.755-2.534-6.016-2.543c-4.71,0-8.533,3.823-8.533,8.533  c0,4.71-3.814,8.533-8.525,8.533H298.667z"/>
<path d="M273.067,179.2c-4.71,0-8.533-3.814-8.533-8.525v-0.009c0-4.71-3.823-8.533-8.533-8.533c-4.71,0-8.533,3.823-8.533,8.533  s-3.823,8.533-8.533,8.533s-8.533-3.823-8.533-8.533c0-14.14,11.46-25.6,25.6-25.6c14.14,0,25.6,11.46,25.6,25.6  c0,4.71-3.814,8.533-8.525,8.533H273.067z"/>
<path d="M273.067,230.4c-4.71,0-8.533-3.814-8.533-8.525v-0.009c0-4.71-3.823-8.533-8.533-8.533c-4.71,0-8.533,3.823-8.533,8.533  c0,4.71-3.823,8.533-8.533,8.533s-8.533-3.823-8.533-8.533c0-14.14,11.46-25.6,25.6-25.6c14.14,0,25.6,11.46,25.6,25.6  c0,4.71-3.814,8.533-8.525,8.533H273.067z"/>
<path style="fill:#558B30;" d="M290.133,412.928c-5.342,4.079-11.059,7.646-17.067,10.667v-5.461c0-7.253-0.085-13.995-0.256-20.48  c-0.085-3.328-0.171-6.485-0.256-9.643c-1.792-47.019-8.021-74.069-16.555-92.672c9.472-20.907,21.76-31.403,34.133-47.872  c13.824-18.347,24.491-47.787,32.597-77.141c2.389-8.96,4.608-17.92,6.571-26.539v-0.085c8.192-36.437,12.032-66.901,12.032-66.901  h3.157C344.491,76.8,399.701,331.008,290.133,412.928z"/>
<path style="fill:#8BC34A;" d="M272.811,397.653c-0.085-3.328-0.171-6.485-0.256-9.643c-1.792-47.019-8.021-74.069-16.555-92.672  c9.472-20.907,21.76-31.403,34.133-47.872c13.824-18.347,24.491-47.787,32.597-77.141  C327.68,243.968,323.157,343.04,272.811,397.653z"/>
<path d="M273.067,432.128c-4.71,0-8.533-3.814-8.533-8.525v-0.009v-5.461c0-10.812-0.171-20.693-0.503-29.807  c-1.562-40.934-6.579-69.35-15.795-89.421c-1.024-2.244-1.033-4.83-0.017-7.083c6.306-13.21,14.524-25.421,24.38-36.241  c3.507-4.173,7.108-8.448,10.701-13.235c13.884-18.475,26.863-53.06,37.572-100.019c0.026-0.179,0.06-0.333,0.094-0.503  c8.004-35.618,11.853-65.792,11.895-66.091c0.546-4.267,4.173-7.467,8.474-7.467h3.157c4.019,0,7.484,2.799,8.346,6.724  c9.131,45.824,13.85,92.416,14.097,139.145c0.145,100.753-23.97,169.933-71.663,205.611c-5.76,4.395-11.913,8.243-18.389,11.486  C275.695,431.812,274.389,432.128,273.067,432.128z M265.378,295.484c9.139,21.837,14.148,51.311,15.71,92.203  c0.247,6.579,0.401,13.534,0.478,20.932c1.143-0.794,2.278-1.621,3.413-2.492l0.051-0.034  c77.995-58.308,68.011-212.198,57.95-286.379c-1.493,7.859-3.243,16.444-5.248,25.421l-0.102,0.538  c-11.418,50.21-25.088,86.187-40.67,106.914c-3.797,5.052-7.586,9.557-11.29,13.969C277.7,275.294,270.882,285.013,265.378,295.484z  "/>
<path style="fill:#2E7D32;" d="M273.067,418.133v5.461c-5.495,2.807-11.204,5.171-17.067,7.083  c-5.862-1.911-11.571-4.275-17.067-7.083c-6.007-3.021-11.725-6.588-17.067-10.667c-66.133-49.408-72.192-161.536-66.645-242.688  c2.031-31.386,6.135-62.601,12.288-93.44h3.157c0,0,3.84,30.464,12.032,66.901c8.363,36.779,21.163,79.787,39.168,103.765  c12.373,16.469,24.661,26.965,34.133,47.872c8.533,18.603,14.763,45.653,16.555,92.672  C272.896,397.227,273.067,407.211,273.067,418.133z"/>
<path style="fill:#4CAF50;" d="M238.933,418.133v5.461c-6.007-3.021-11.725-6.588-17.067-10.667  c-66.133-49.408-72.192-161.536-66.645-242.688c8.021,29.355,18.688,58.88,32.512,77.227c12.373,16.469,24.661,26.965,34.133,47.872  c8.533,18.603,14.763,45.653,16.555,92.672C238.763,397.227,238.933,407.211,238.933,418.133z"/>
<path d="M256,439.211c-0.887,0-1.775-0.145-2.628-0.418c-6.298-2.039-12.416-4.574-18.313-7.595  c-6.468-3.243-12.612-7.083-18.355-11.477c-47.659-35.635-71.782-104.823-71.637-205.585c0.247-46.72,4.975-93.321,14.097-139.145  c0.853-3.925,4.326-6.724,8.346-6.724h3.157c4.301,0,7.927,3.2,8.465,7.467c0.043,0.299,3.891,30.515,11.895,66.091  c10.735,47.241,23.757,82.005,37.666,100.514c3.593,4.787,7.194,9.062,10.701,13.235c9.865,10.82,18.082,23.031,24.38,36.241  c10.155,22.144,15.659,52.617,17.306,95.863c0.35,9.327,0.521,19.413,0.521,30.455v5.461c0,3.209-1.801,6.153-4.668,7.612  c-5.888,3.012-12.015,5.555-18.313,7.595C257.775,439.066,256.887,439.211,256,439.211z M169.028,119.714  c-10.061,74.172-20.045,228.07,57.95,286.379c4.932,3.772,10.214,7.074,15.77,9.865c4.292,2.193,8.721,4.096,13.261,5.709  c2.867-1.007,5.7-2.15,8.533-3.43v-0.102c0-10.812-0.171-20.693-0.503-29.807c-1.562-40.934-6.579-69.35-15.795-89.421  c-5.649-11.81-13.039-22.716-21.905-32.341c-3.712-4.412-7.492-8.917-11.29-13.969c-15.548-20.71-29.235-56.713-40.67-106.999  C172.322,136.439,170.539,127.701,169.028,119.714z"/>
<path style="fill:#00695C;" d="M290.133,412.928V435.2c-0.043,18.833-15.3,34.091-34.133,34.133c-4.395-0.009-8.738-0.879-12.8-2.56  c-1.459-0.597-2.884-1.28-4.267-2.048c-10.573-6.067-17.092-17.331-17.067-29.525v-22.272c5.342,4.079,11.059,7.646,17.067,10.667  c1.365,0.683,2.816,1.365,4.267,1.963c4.147,1.988,8.422,3.695,12.8,5.12c2.901-0.939,5.803-2.048,8.533-3.157  c2.901-1.195,5.803-2.56,8.533-3.925C279.074,420.574,284.791,417.007,290.133,412.928z"/>
<path style="fill:#009688;" d="M264.533,427.52v7.68c0.026,12.194-6.494,23.458-17.067,29.525c-1.382,0.768-2.807,1.451-4.267,2.048  c-1.459-0.597-2.884-1.28-4.267-2.048c-10.573-6.067-17.092-17.331-17.067-29.525v-7.68c2.731,1.109,5.632,2.219,8.533,3.157  c4.378-1.425,8.653-3.132,12.8-5.12c4.147,1.988,8.422,3.695,12.8,5.12C258.901,429.739,261.803,428.629,264.533,427.52z"/>
<path d="M256,477.867c-23.543-0.051-42.615-19.123-42.667-42.667v-22.272c0-4.719,3.831-8.533,8.542-8.533  c1.86,0,3.669,0.606,5.146,1.732c4.924,3.763,10.18,7.057,15.718,9.83c4.292,2.193,8.721,4.096,13.261,5.709  c4.523-1.596,8.934-3.499,13.201-5.683c5.555-2.782,10.837-6.084,15.778-9.856c3.755-2.85,9.114-2.108,11.964,1.647  c1.118,1.485,1.724,3.294,1.724,5.154V435.2C298.624,458.752,279.552,477.824,256,477.867z M230.4,428.723v6.477  c0,14.14,11.46,25.6,25.6,25.6c14.14,0,25.6-11.46,25.6-25.6v-6.477c-1.553,0.879-3.123,1.707-4.727,2.5  c-5.871,3.004-11.972,5.538-18.253,7.569c-1.707,0.546-3.541,0.546-5.248,0c-6.298-2.039-12.416-4.574-18.313-7.595  C233.489,430.404,231.945,429.594,230.4,428.723z"/>
<path style="fill:#2E7D32;" d="M273.067,464.725v38.741h-34.133v-38.741C249.481,470.869,262.519,470.869,273.067,464.725z"/>
<path d="M273.067,512h-34.133c-4.71,0-8.533-3.814-8.533-8.525v-0.009v-38.741c0-4.71,3.814-8.533,8.525-8.533  c1.502,0,2.97,0.393,4.267,1.143c7.919,4.599,17.698,4.599,25.617,0c4.079-2.355,9.293-0.956,11.648,3.123  c0.751,1.297,1.143,2.765,1.143,4.267v38.741c0,4.71-3.814,8.533-8.525,8.533H273.067z M247.467,494.933h17.067v-17.946  c-5.632,1.152-11.435,1.152-17.067,0V494.933z"/>
<g>
</g>
<g>
</g>
<g>
</g>
<g>
</g>
<g>
</g>
<g>
</g>
<g>
</g>
<g>
</g>
<g>
</g>
<g>
</g>
<g>
</g>
<g>
</g>
<g>
</g>
<g>
</g>
<g>
</g>
</svg>
