<?xml version="1.0" encoding="iso-8859-1"?>
<!-- Generator: Adobe Illustrator 19.0.0, SVG Export Plug-In . SVG Version: 6.00 Build 0)  -->
<svg xmlns="http://www.w3.org/2000/svg" xmlns:xlink="http://www.w3.org/1999/xlink" version="1.1" id="Capa_1" x="0px" y="0px" viewBox="0 0 512.001 512.001" style="enable-background:new 0 0 512.001 512.001;" xml:space="preserve">
<path style="fill:#FFB301;" d="M475.491,503.468H36.55c-10.265-0.026-18.576-8.337-18.602-18.602V45.926  c-0.017-0.597,0.017-1.195,0.085-1.792c0.998-10.223,10.095-17.706,20.317-16.708c4.284,0.418,8.294,2.312,11.34,5.359  l438.94,438.94c7.262,7.27,7.245,19.046-0.026,26.307C485.124,501.506,480.406,503.46,475.491,503.468z"/>
<path style="fill:#FEC108;" d="M468.152,503.468H36.55c-10.265-0.026-18.576-8.337-18.602-18.602V45.926  c-0.017-0.597,0.017-1.195,0.085-1.792c2.27,0.922,4.326,2.278,6.058,4.011l438.94,438.94  C467.359,491.351,469.278,497.495,468.152,503.468z"/>
<path d="M475.491,512.001H36.542c-14.976-0.017-27.109-12.16-27.135-27.135V45.926c-0.111-11.008,6.545-20.949,16.759-25.044  c10.12-4.309,21.853-1.98,29.558,5.871l438.94,438.94c10.59,10.607,10.572,27.784-0.034,38.373  C489.553,509.143,482.667,511.993,475.491,512.001z M36.738,35.849c-1.391,0.009-2.765,0.282-4.053,0.802  c-3.789,1.51-6.255,5.197-6.204,9.275v438.94c0.009,5.555,4.505,10.06,10.069,10.069h438.94c5.564-0.017,10.06-4.531,10.043-10.095  c-0.009-2.654-1.058-5.205-2.935-7.082L43.65,38.818C41.85,36.924,39.349,35.849,36.738,35.849z"/>
<path d="M65.239,153.63c-4.71,0-8.533-3.823-8.533-8.533c0-2.261,0.896-4.429,2.5-6.033l19.737-19.737  c3.362-3.302,8.763-3.26,12.066,0.102c3.26,3.319,3.26,8.644,0,11.963L71.271,151.13C69.667,152.734,67.5,153.63,65.239,153.63z"/>
<path d="M58.66,239.157c-4.71,0-8.533-3.823-8.533-8.533c0-2.261,0.896-4.429,2.5-6.033l65.79-65.798  c3.328-3.328,8.738-3.328,12.066,0c3.328,3.328,3.328,8.738,0,12.066l-65.79,65.798C63.097,238.261,60.921,239.166,58.66,239.157z"/>
<path d="M58.66,318.113c-4.71,0-8.533-3.823-8.533-8.533c0-2.261,0.896-4.429,2.5-6.033L157.89,198.275  c3.328-3.328,8.738-3.328,12.066,0c3.328,3.328,3.328,8.738,0,12.066L64.692,315.613C63.097,317.217,60.921,318.122,58.66,318.113z"/>
<path d="M71.818,383.903c-4.71,0-8.533-3.823-8.533-8.533c0-2.261,0.896-4.429,2.5-6.033l131.588-131.588  c3.328-3.328,8.738-3.328,12.066,0c3.328,3.328,3.328,8.738,0,12.066L77.85,381.403C76.255,383.007,74.079,383.903,71.818,383.903z"/>
<path d="M381.047,469.438c-4.71,0-8.533-3.823-8.533-8.533c0-2.261,0.896-4.429,2.5-6.033l19.737-19.737  c3.328-3.328,8.738-3.328,12.066,0s3.328,8.738,0,12.066l0,0l-19.737,19.737C385.484,468.542,383.317,469.438,381.047,469.438z"/>
<path d="M295.52,476.017c-4.71,0-8.533-3.823-8.533-8.533c0-2.261,0.896-4.429,2.5-6.033l65.79-65.798  c3.328-3.328,8.738-3.328,12.066,0s3.328,8.738,0,12.066l0,0l-65.79,65.798C299.957,475.121,297.781,476.017,295.52,476.017z"/>
<path d="M216.564,476.017c-4.71,0-8.533-3.823-8.533-8.533c0-2.261,0.896-4.429,2.5-6.033l105.272-105.272  c3.328-3.328,8.738-3.328,12.066,0s3.328,8.738,0,12.066L222.597,473.517C221.001,475.121,218.825,476.017,216.564,476.017z"/>
<path d="M150.765,462.859c-4.71,0-8.533-3.823-8.533-8.533c0-2.261,0.896-4.429,2.5-6.033l131.588-131.588  c3.328-3.328,8.738-3.328,12.066,0s3.328,8.738,0,12.066L156.798,460.359C155.203,461.963,153.027,462.859,150.765,462.859z"/>
<path d="M91.555,443.122c-4.71,0-8.533-3.823-8.533-8.533c0-2.261,0.896-4.429,2.5-6.033l151.325-151.325  c3.328-3.328,8.738-3.328,12.066,0c3.328,3.328,3.328,8.738,0,12.066L97.587,440.622C95.983,442.227,93.816,443.122,91.555,443.122z  "/>
<path style="fill:#C52828;" d="M269.161,145.251c0.068,22.544-7.074,44.525-20.394,62.718l-9.386-15.104L152.003,52.07l-7.68-12.373  c5.888-1.007,11.861-1.493,17.834-1.451c59.074-0.026,106.979,47.836,107.004,106.911  C269.161,145.183,269.161,145.217,269.161,145.251z"/>
<path style="fill:#F44335;" d="M245.184,158.221c0.009,11.793-1.954,23.5-5.802,34.644L152.003,52.07  C205.317,59.016,245.201,104.446,245.184,158.221z"/>
<path d="M248.759,216.502c-0.111,0-0.213,0-0.324-0.009c-2.833-0.111-5.427-1.613-6.929-4.028L137.07,44.202  c-2.483-4.002-1.254-9.267,2.756-11.75c0.913-0.572,1.937-0.956,2.995-1.152c6.383-1.101,12.859-1.63,19.344-1.587  c63.776,0.068,115.461,51.753,115.537,115.529c0.094,24.362-7.637,48.118-22.049,67.761  C254.041,215.205,251.481,216.502,248.759,216.502z M158.786,46.831l90.075,145.104c7.782-14.327,11.827-30.386,11.776-46.693  c-0.068-54.356-44.116-98.403-98.471-98.463C161.005,46.779,159.879,46.796,158.786,46.831z"/>
<path style="fill:#FDD834;" d="M287.763,270.857L59.846,42.94l4.608-4.693l30.548-20.394l9.301-6.144  c8.465-5.717,19.967-3.49,25.684,4.975c0.145,0.213,0.29,0.435,0.427,0.657L287.763,270.857z"/>
<path style="fill:#FFEB3A;" d="M208.321,191.415L59.846,42.94l4.608-4.693l30.548-20.394c4.412,1.246,8.192,4.113,10.581,8.021  L208.321,191.415z"/>
<path d="M287.763,279.39c-2.261,0-4.437-0.896-6.033-2.5L53.813,48.972c-3.311-3.311-3.336-8.67-0.06-12.015l4.608-4.693  c0.418-0.418,0.87-0.785,1.357-1.118L99.567,4.609c12.381-8.337,29.183-5.052,37.511,7.33c0.205,0.299,0.393,0.606,0.589,0.913  L295.008,266.36c2.483,4.011,1.246,9.267-2.765,11.75C290.904,278.947,289.351,279.39,287.763,279.39L287.763,279.39z M72.27,43.298  l169.364,169.364l-0.119-0.196L123.169,21.846c-2.867-4.702-9.002-6.186-13.704-3.319c-0.137,0.085-0.273,0.171-0.41,0.265  L72.27,43.298z"/>
<path style="fill:#2E7D32;" d="M491.191,438.276l-8.021,27.988L287.763,270.857l-10.154-16.298l-7.168-11.605h45.225  c5.12-0.017,9.284,4.113,9.301,9.233c0,0.026,0,0.043,0,0.068c0.009,5.128,4.173,9.292,9.301,9.301h18.687  c5.128,0.009,9.292,4.173,9.301,9.301v16.554c0,5.145,4.173,9.31,9.318,9.301c0.597,0,1.195-0.06,1.775-0.171l14.08-2.816  c9.659-1.928,19.054,4.335,20.991,14.003c0.23,1.152,0.341,2.321,0.341,3.49c-0.009,8.866,6.502,16.392,15.274,17.663l22.954,3.243  c8.798,1.254,14.907,9.403,13.653,18.201c-0.384,2.688-1.442,5.231-3.072,7.398v0.085c-5.333,7.04-3.951,17.075,3.089,22.408  c0.794,0.606,1.647,1.126,2.543,1.57l4.096,2.048C487.292,393.895,497.327,416.747,491.191,438.276z"/>
<path style="fill:#4CAF50;" d="M468.408,449.881l-0.341,1.28L287.763,270.857l-10.154-16.298h15.274  c5.12-0.017,9.284,4.113,9.301,9.233c0,0.026,0,0.043,0,0.068c0.009,5.128,4.173,9.292,9.301,9.301h18.687  c5.128,0.009,9.292,4.173,9.301,9.301v16.554c0,5.145,4.173,9.31,9.318,9.301c0.597,0,1.195-0.06,1.775-0.171l14.08-2.816  c9.659-1.928,19.054,4.343,20.991,14.003c0.23,1.152,0.341,2.321,0.341,3.49c-0.009,8.866,6.502,16.392,15.274,17.663l22.954,3.243  c8.798,1.254,14.907,9.403,13.653,18.192c-0.384,2.688-1.442,5.231-3.072,7.407v0.085c-5.333,7.04-3.951,17.075,3.089,22.408  c0.794,0.606,1.647,1.126,2.543,1.57l4.096,2.048C464.508,405.5,474.543,428.352,468.408,449.881z"/>
<path d="M483.162,474.797c-2.261,0-4.437-0.896-6.033-2.5L281.731,276.89c-0.469-0.461-0.879-0.973-1.22-1.536l-17.322-27.912  c-2.483-4.002-1.254-9.258,2.748-11.75c1.348-0.836,2.91-1.288,4.505-1.288h45.225c9.847,0.009,17.826,7.987,17.843,17.834  c0.009,0.418,0.341,0.759,0.768,0.777h18.679c9.847,0.009,17.826,7.987,17.834,17.834v16.546l2.568,9.13l-1.672-8.362l14.071-2.816  c14.284-2.85,28.176,6.417,31.026,20.701c0.341,1.698,0.512,3.43,0.512,5.162c-0.026,4.642,3.379,8.584,7.978,9.224l22.92,3.234  c13.465,1.92,22.826,14.387,20.906,27.852c-0.538,3.78-1.946,7.373-4.113,10.513c-0.179,0.316-0.384,0.614-0.597,0.905  c-2.492,3.285-1.852,7.97,1.434,10.47c0.367,0.282,0.768,0.529,1.178,0.734l4.121,2.056c23.628,11.929,35.48,38.936,28.279,64.407  l-0.009,0.017l-8.021,27.98C490.312,472.263,486.967,474.789,483.162,474.797L483.162,474.797z M294.496,265.524l184.459,184.459  l4.028-14.045c4.975-17.587-3.208-36.24-19.524-44.483l-4.079-2.031c-12.125-6.041-17.058-20.769-11.016-32.895  c0.529-1.058,1.135-2.082,1.809-3.055c0.162-0.299,0.35-0.589,0.555-0.862c1.647-2.15,2.005-5.009,0.947-7.501  c-1.007-2.457-3.251-4.19-5.879-4.54l-22.954-3.243c-13.021-1.809-22.689-12.97-22.613-26.12c0-5.137-4.173-9.31-9.318-9.301  c-0.606,0-1.212,0.06-1.8,0.179l-14.08,2.816c-9.676,1.911-19.063-4.386-20.966-14.054c-0.222-1.135-0.333-2.287-0.341-3.439  v-16.546c-0.009-0.418-0.341-0.759-0.768-0.768h-18.687c-9.847-0.009-17.826-7.995-17.834-17.843  c0.009-0.41-0.307-0.751-0.725-0.768c-0.017,0-0.034,0-0.051,0h-29.883L294.496,265.524z"/>
<path d="M270.433,251.487h-1.271c-4.71,0-8.533-3.823-8.533-8.533c0-4.71,3.823-8.533,8.533-8.533h1.271  c4.71,0,8.533,3.823,8.533,8.533C278.966,247.664,275.152,251.487,270.433,251.487z"/>
<g>
</g>
<g>
</g>
<g>
</g>
<g>
</g>
<g>
</g>
<g>
</g>
<g>
</g>
<g>
</g>
<g>
</g>
<g>
</g>
<g>
</g>
<g>
</g>
<g>
</g>
<g>
</g>
<g>
</g>
</svg>
