<?xml version="1.0" encoding="iso-8859-1"?>
<!-- Generator: Adobe Illustrator 19.0.0, SVG Export Plug-In . SVG Version: 6.00 Build 0)  -->
<svg xmlns="http://www.w3.org/2000/svg" xmlns:xlink="http://www.w3.org/1999/xlink" version="1.1" id="Capa_1" x="0px" y="0px" viewBox="0 0 512 512" style="enable-background:new 0 0 512 512;" xml:space="preserve">
<path style="fill:#F57C00;" d="M374.406,297.57c-5.456,6.131-11.724,11.501-18.614,15.967l-303.12,184.69  c-12.492,8.957-29.885,6.088-38.842-6.412c-2.792-3.902-4.534-8.453-5.046-13.226c-0.649-6.814,1.101-13.636,4.952-19.297  l184.775-303.12c17.94-27.921,49.618-43.914,82.739-41.754c2.049,0.171,4.184,0.342,6.233,0.683c0.342,0.085,0.768,0.085,1.11,0.171  c17.026,2.604,32.763,10.596,44.913,22.798l1.452,1.452l37.058,37.058l0.512,0.512l1.452,1.452  c12.219,12.108,20.211,27.827,22.798,44.828C400.799,250.207,392.593,277.436,374.406,297.57z"/>
<path style="fill:#FF9801;" d="M374.406,297.57c-5.456,6.131-11.724,11.501-18.614,15.967l-303.12,184.69  c-12.492,8.957-29.885,6.088-38.842-6.412c-2.792-3.902-4.534-8.453-5.046-13.226l167.186-274.345  c17.94-27.921,49.618-43.914,82.739-41.754c2.049,0.171,4.184,0.342,6.319,0.683c0.342,0.085,0.683,0.085,1.11,0.171  c17,2.604,32.711,10.596,44.828,22.798l1.537,1.452l36.972,37.058l0.512,0.512l1.537,1.452  c12.219,12.108,20.211,27.827,22.798,44.828C375.67,280.1,375.696,288.904,374.406,297.57z"/>
<path d="M36.363,512c-20.168-0.102-36.434-16.531-36.332-36.69c0.034-7.403,2.322-14.61,6.549-20.681l184.639-302.898  c19.579-30.696,54.34-48.26,90.663-45.818c2.34,0.188,4.722,0.393,7.002,0.777c0.581,0.06,1.161,0.162,1.725,0.29  c18.563,2.937,35.7,11.715,48.926,25.061l40.473,40.473c13.508,13.38,22.337,30.756,25.197,49.558  c5.806,38.816-11.715,77.428-44.751,98.621l-0.222,0.145l-303.12,184.69C50.99,509.678,43.766,511.932,36.363,512z M274.684,122.708  c-27.972,0.239-53.93,14.584-69.026,38.125L21.028,463.74c-6.481,8.53-4.816,20.706,3.714,27.187  c6.856,5.209,16.317,5.277,23.251,0.162l303.248-184.775c27.341-17.53,41.865-49.464,37.109-81.595  c-2.305-15.216-9.452-29.287-20.382-40.114l-40.49-40.499c-10.87-10.921-24.958-18.068-40.191-20.399  c-0.615-0.068-1.221-0.171-1.819-0.307c-1.204-0.179-3.091-0.324-4.901-0.47C278.595,122.785,276.639,122.708,274.684,122.708z"/>
<path d="M292.231,214.003c-2.263,0-4.44-0.897-6.037-2.502l-42.266-42.266c-3.33-3.33-3.33-8.744,0-12.074s8.744-3.33,12.074,0  l42.266,42.266c3.33,3.339,3.33,8.744,0,12.074C296.662,213.098,294.493,213.994,292.231,214.003L292.231,214.003z"/>
<path d="M328.451,298.527c-2.263,0-4.44-0.897-6.037-2.502l-42.266-42.266c-3.33-3.33-3.33-8.744,0-12.074s8.744-3.33,12.074,0  l42.266,42.266c3.33,3.339,3.33,8.744,0,12.074C332.892,297.621,330.723,298.527,328.451,298.527L328.451,298.527z"/>
<path d="M237.891,268.343c-2.263,0-4.44-0.897-6.037-2.502l-30.192-30.192c-3.33-3.33-3.33-8.744,0-12.074s8.744-3.33,12.074,0  l30.192,30.192c3.33,3.339,3.33,8.744,0,12.074C242.323,267.437,240.154,268.343,237.891,268.343L237.891,268.343z"/>
<path d="M183.551,383.05c-2.263,0-4.44-0.897-6.037-2.502l-12.074-12.074c-3.33-3.33-3.33-8.744,0-12.074  c3.33-3.33,8.744-3.33,12.074,0l12.074,12.074c3.33,3.339,3.33,8.743,0,12.074C187.983,382.154,185.814,383.05,183.551,383.05  L183.551,383.05z"/>
<path d="M201.662,328.71c-2.263,0-4.44-0.897-6.037-2.502l-30.192-30.184c-3.33-3.33-3.33-8.744,0-12.074  c3.33-3.33,8.744-3.33,12.074,0l30.192,30.184c3.33,3.339,3.33,8.743,0,12.074C206.102,327.814,203.925,328.71,201.662,328.71  L201.662,328.71z"/>
<path d="M136.367,408.316c-2.263,0-4.44-0.897-6.037-2.502l-24.156-24.147c-3.33-3.33-3.33-8.743,0-12.074  c3.33-3.33,8.744-3.33,12.074,0l24.156,24.147c3.33,3.339,3.33,8.743,0,12.074C140.799,407.419,138.63,408.316,136.367,408.316  L136.367,408.316z"/>
<g>
	<path style="fill:#4CAF50;" d="M444.252,67.711c0,0-16.053,64.808-38.765,87.606c-0.137,0.085-0.256,0.205-0.342,0.342   c-6.481,6.549-13.944,12.057-22.115,16.309c-3.304,1.785-6.763,3.27-10.332,4.44c-0.239-0.009-0.478,0.051-0.683,0.171   l-37.058-37.058c0.256,0,0.427-0.085,0.683-0.085c1.059-3.322,2.399-6.549,4.013-9.649c4.261-8.487,9.888-16.215,16.65-22.883   l0.342-0.342C379.444,83.764,444.252,67.711,444.252,67.711z"/>
	<path style="fill:#4CAF50;" d="M356.902,97.169c-0.085,3.33-0.256,6.575-0.598,9.734c-9.358,9.059-16.437,20.211-20.663,32.532   c-0.256,0-0.427,0.085-0.683,0.085l-1.452-1.452c-1.366-1.366-2.818-2.732-4.269-4.013c-11.501-9.982-25.59-16.497-40.644-18.785   c-0.342-0.085-0.768-0.085-1.11-0.171c-2.049-0.342-4.184-0.512-6.233-0.683l7.258-1.025c-0.871-5.217-1.298-10.502-1.281-15.796   c1.904-18.392,7.326-36.255,15.967-52.598c5.849-12.483,12.347-24.651,19.468-36.46C322.662,8.539,357.073,65.15,356.902,97.169z"/>
	<path style="fill:#4CAF50;" d="M503.424,189.301c-11.8,7.113-23.968,13.576-36.46,19.383   c-16.326,8.709-34.189,14.157-52.598,16.053c-5.695,0-11.382-0.487-16.992-1.452l-0.598,0.085   c-2.271-15.054-8.82-29.125-18.87-40.558c-1.195-1.452-2.562-2.903-3.928-4.269l-1.452-1.452c-0.026-0.239,0.034-0.487,0.171-0.683   c12.27-4.312,23.379-11.416,32.447-20.749c3.074-0.342,6.404-0.427,9.649-0.512C446.814,154.89,503.424,189.301,503.424,189.301z"/>
</g>
<g>
	<path style="fill:#2E7D32;" d="M403.668,119.327c-5.243,18.145-12.15,35.768-20.646,52.64c-3.304,1.785-6.763,3.27-10.332,4.44   c-0.239-0.009-0.478,0.051-0.683,0.171l-37.058-37.058c0.256,0,0.427-0.085,0.683-0.085c1.059-3.322,2.399-6.549,4.013-9.649   c17.094-8.701,34.983-15.754,53.409-21.073c4.5-1.358,9.247,1.187,10.605,5.695C404.155,116.014,404.155,117.722,403.668,119.327z"/>
	<path style="fill:#2E7D32;" d="M331.286,122.785c-0.085,3.33-0.256,6.575-0.598,9.734c-0.512,0.512-1.025,1.025-1.452,1.537   c-11.501-9.982-25.59-16.497-40.644-18.785c-0.342-0.085-0.768-0.085-1.11-0.171c-2.049-0.342-4.184-0.512-6.233-0.683l7.258-1.025   c-0.871-5.217-1.298-10.502-1.281-15.796c1.904-18.392,7.326-36.255,15.967-52.598C313.184,63.015,331.372,99.475,331.286,122.785z   "/>
	<path style="fill:#2E7D32;" d="M466.965,208.683c-16.326,8.709-34.189,14.157-52.598,16.053c-5.695,0-11.382-0.487-16.992-1.452   l-0.598,0.085c-2.271-15.054-8.82-29.125-18.87-40.558c0.512-0.512,1.11-1.025,1.622-1.537c3.074-0.342,6.404-0.427,9.649-0.512   C412.574,180.591,448.948,198.864,466.965,208.683z"/>
</g>
<path d="M372.015,185.108c-2.263,0-4.44-0.897-6.045-2.493l-37.058-37.058c-2.442-2.442-3.176-6.114-1.853-9.307  c0.35-0.845,0.828-1.622,1.426-2.314c4.807-12.458,12.236-23.737,21.773-33.079c24.54-24.54,89.194-40.763,91.935-41.446  c4.585-1.127,9.213,1.674,10.349,6.25c0.333,1.349,0.333,2.749,0,4.099c-0.675,2.741-16.898,67.387-41.002,91.594l-0.188,0.179  l-0.171,0.179c-10.033,10.263-22.294,18.076-35.845,22.832c-0.333,0.111-0.666,0.196-1.008,0.256  C373.578,185.006,372.801,185.108,372.015,185.108z M345.307,137.796l28.937,28.946c9.307-4.056,17.752-9.862,24.864-17.111l0,0  c0.102-0.111,0.213-0.213,0.333-0.324v-0.009c13.679-13.73,25.923-47.312,32.549-69.308c-22.004,6.634-55.595,18.904-69.308,32.617  C355.297,119.779,349.397,128.344,345.307,137.796L345.307,137.796z"/>
<path d="M335.47,148.486c-4.713,0-8.539-3.817-8.539-8.53c0,0,0,0,0-0.009c0.06-1.554,0.453-3.082,1.153-4.474  c2.451-4.064,7.719-5.371,11.783-2.929c4.064,2.451,5.371,7.719,2.929,11.783C341.242,146.898,338.467,148.469,335.47,148.486z"/>
<path d="M334.958,148.059c-2.263,0-4.44-0.897-6.037-2.502l-1.452-1.452c-10.87-10.921-24.958-18.068-40.191-20.399  c-0.615-0.068-1.221-0.171-1.819-0.307c-1.204-0.179-3.091-0.324-4.901-0.47c-4.705-0.384-8.206-4.508-7.821-9.213  c0.29-3.586,2.809-6.609,6.284-7.548c-0.222-2.809-0.333-5.678-0.333-8.581c0.273-34.078,35.222-91.124,36.707-93.54  C316.95,1.537,319.699,0,322.662,0h0.026c2.971,0.009,5.721,1.563,7.266,4.099c1.452,2.391,35.666,59.07,35.478,93.105v0.179  c-0.085,3.569-0.273,7.053-0.64,10.434c-0.213,1.938-1.076,3.74-2.451,5.123c-8.376,8.095-14.729,18.051-18.554,29.057  c-1.033,3.279-3.928,5.618-7.343,5.943C335.948,148.008,335.453,148.051,334.958,148.059z M296.363,108.065  c13.115,2.98,25.377,8.923,35.837,17.376c4.21-8.154,9.555-15.668,15.865-22.32c0.145-1.989,0.231-4.022,0.29-6.079  c0.06-19.263-14.96-51.351-25.761-71.357c-11.109,20.177-26.683,52.658-26.837,71.98  C295.757,101.14,295.962,104.615,296.363,108.065L296.363,108.065z"/>
<path d="M288.534,122.922c-3.97,0.051-7.429-2.724-8.223-6.617l8.359-1.716l-8.385,1.605c-0.205-0.922-0.316-1.861-0.324-2.801  c0-4.713,3.825-8.539,8.547-8.53c4.5,0,8.231,3.501,8.513,8.001c0.726,4.551-2.22,8.889-6.728,9.879  C289.72,122.862,289.131,122.922,288.534,122.922z"/>
<path d="M414.435,233.275c-6.045,0.009-12.082-0.495-18.042-1.494c-3.97-0.307-7.258-3.202-8.06-7.104  c-2.305-15.199-9.452-29.253-20.373-40.072l-1.469-1.477c-1.605-1.597-2.502-3.774-2.502-6.037c0.06-1.904,0.606-3.766,1.588-5.396  c1.067-1.605,2.647-2.809,4.474-3.407c10.989-3.911,20.928-10.289,29.057-18.665c1.366-1.375,3.168-2.237,5.098-2.451  c3.296-0.367,6.882-0.478,10.374-0.564h0.418c34.248,0,90.484,33.949,92.866,35.401c4.03,2.451,5.311,7.71,2.86,11.741  c-0.7,1.153-1.665,2.118-2.809,2.826C505.491,198.053,448.444,233.001,414.435,233.275z M403.967,215.608  c3.45,0.401,6.925,0.598,10.4,0.589c19.272-0.162,51.735-15.728,71.912-26.837c-19.929-10.759-51.838-25.684-71.118-25.684h-0.299  c-1.93,0.051-3.962,0.102-5.951,0.222c-6.66,6.31-14.166,11.655-22.303,15.89C395.044,190.257,400.978,202.51,403.967,215.608z"/>
<g>
</g>
<g>
</g>
<g>
</g>
<g>
</g>
<g>
</g>
<g>
</g>
<g>
</g>
<g>
</g>
<g>
</g>
<g>
</g>
<g>
</g>
<g>
</g>
<g>
</g>
<g>
</g>
<g>
</g>
</svg>
