<?xml version="1.0" encoding="iso-8859-1"?>
<!-- Generator: Adobe Illustrator 19.0.0, SVG Export Plug-In . SVG Version: 6.00 Build 0)  -->
<svg xmlns="http://www.w3.org/2000/svg" xmlns:xlink="http://www.w3.org/1999/xlink" version="1.1" id="Capa_1" x="0px" y="0px" viewBox="0 0 511.994 511.994" style="enable-background:new 0 0 511.994 511.994;" xml:space="preserve">
<path style="fill:#C52828;" d="M463.61,395.597c-8.058,8.058-17.114,15.051-26.946,20.806  c-47.71,26.238-105.806,24.934-152.296-3.411l-41.698-157.071l-0.256-0.853c0.597-0.682,1.194-1.279,1.876-1.961  c14.198-13.891,32.745-22.478,52.528-24.303c1.492-18.206,8.885-35.422,21.062-49.032c1.023-1.194,2.132-2.388,3.24-3.496  c34.279-34.279,91.838-32.659,130.722,2.729c0.426,0.426,0.853,0.767,1.279,1.194c0.512,0.426,0.853,0.767,1.279,1.194  c0.35,0.392,0.716,0.759,1.109,1.109c0.512,0.512,0.938,0.938,1.45,1.535c0.512,0.512,0.938,1.023,1.45,1.535  c1.279,1.45,2.558,2.899,3.752,4.349c0.068,0.009,0.128,0.043,0.171,0.085c0.597,0.682,1.109,1.279,1.62,1.961  c0.512,0.682,1.109,1.279,1.535,1.961C515.967,255.921,516.223,342.984,463.61,395.597z"/>
<path style="fill:#F44335;" d="M438.113,415.039c-0.512,0.512-0.938,0.938-1.45,1.364c-47.71,26.238-105.806,24.934-152.296-3.411  l-41.698-157.071c9.03-4.204,18.726-6.805,28.651-7.674c0.435-4.75,1.262-9.457,2.473-14.07c7.376-2.899,15.127-4.707,23.023-5.372  c1.492-18.206,8.885-35.422,21.062-49.032c36.59-16.432,79.482-9.047,108.466,18.675c0.426,0.426,0.853,0.767,1.279,1.194  c0.512,0.426,0.853,0.767,1.279,1.194c0.35,0.392,0.716,0.759,1.109,1.109c0.938,1.023,1.961,2.047,2.899,3.07  c1.279,1.45,2.558,2.899,3.752,4.349c0.068,0.009,0.128,0.043,0.171,0.085c0.597,0.682,1.109,1.279,1.62,1.961  c0.512,0.682,1.109,1.279,1.535,1.961C490.471,275.363,490.726,362.426,438.113,415.039z"/>
<path style="fill:#C52828;" d="M298.608,344.263v2.899c0,1.364,0,2.814-0.085,4.178c0,1.961-0.256,3.837-0.426,5.713  c0.085,0.085,0.085,0.171,0,0.171l-0.256,2.558c-0.085,0.853-0.171,1.62-0.256,2.473l0.026-0.614  c-6.25,64.048-47.207,116.763-101.755,134.918c-13.601,4.588-27.858,6.924-42.21,6.907c-74.767,0-136.274-62.155-143.974-142.012  l0.034,0.802c-0.085-0.853-0.171-1.62-0.256-2.473c-0.085-0.853-0.256-1.705-0.256-2.558c-0.085,0-0.085-0.085,0-0.171  c-0.171-1.876-0.426-3.752-0.426-5.713c-0.085-1.364-0.085-2.814-0.085-4.178v-1.62c0-1.109,0.085-2.388,0.085-3.496  c1.057-29.052,14.377-56.288,36.667-74.954c15.161-12.484,34.169-19.348,53.807-19.442c19.749,0.017,38.859,6.992,53.977,19.698  c0.171,0.085,0.256,0.256,0.426,0.341c0.264-0.247,0.554-0.478,0.853-0.682c15.059-12.484,33.99-19.323,53.551-19.357  c48.435,0,88.001,41.869,90.474,94.396C298.599,342.779,298.625,343.521,298.608,344.263z"/>
<path style="fill:#F44335;" d="M264.499,361.318v2.899c0,1.364,0,2.814-0.085,4.178c0,1.961-0.256,3.837-0.426,5.713  c0.085,0.085,0.085,0.171,0,0.171l-0.256,2.558c-0.085,0.853-0.171,1.62-0.256,2.473l0.017-0.418  c-4.076,47.283-28.831,90.354-67.638,117.667c-13.601,4.588-27.858,6.924-42.21,6.907c-74.767,0-136.274-62.155-143.974-142.012  l0.034,0.802c-0.085-0.853-0.171-1.62-0.256-2.473s-0.256-1.705-0.256-2.558c-0.085,0-0.085-0.085,0-0.171  c-0.171-1.876-0.426-3.752-0.426-5.713c-0.085-1.364-0.085-2.814-0.085-4.178v-1.62c0-1.109,0.085-2.388,0.085-3.496  c1.057-29.052,14.377-56.288,36.667-74.954c26.102-6.378,53.679,0.188,74.102,17.651c9.781-8.246,21.292-14.198,33.683-17.396  c0.418-0.154,0.844-0.264,1.279-0.341c6.361-1.543,12.893-2.311,19.442-2.302c48.435,0,88.001,41.869,90.474,94.396  C264.491,359.834,264.516,360.576,264.499,361.318z"/>
<path d="M153.645,511.994c-78.919,0-145.764-66.845-152.825-152.484c-0.017-0.222-0.043-0.452-0.06-0.682  c-0.094-0.52-0.145-1.049-0.145-1.578v-0.222c-0.222-1.885-0.341-3.786-0.358-5.688c-0.094-0.921-0.102-2.635-0.102-4.204v-2.848  c-0.017-1.057,0.034-2.115,0.153-3.164c3.129-57.448,46.448-102.003,98.975-102.003c19.544-0.017,38.586,6.191,54.361,17.737  c15.775-11.546,34.817-17.754,54.361-17.737c52.707,0,96.144,44.862,99.001,102.182c0.102,0.989,0.145,1.987,0.128,2.984v2.848  c0,1.578-0.009,3.283-0.128,4.852c-0.017,1.688-0.136,3.368-0.341,5.048v0.213c0,0.529-0.051,1.057-0.145,1.578  c-0.017,0.23-0.034,0.46-0.06,0.682C299.41,445.149,232.573,511.994,153.645,511.994z M18.241,362.529  c8.203,74.724,66.657,132.411,135.404,132.411s127.201-57.695,135.404-132.411c-0.009-0.213,0-0.443,0-0.657l0.921-19.954  c-2.319-47.906-38.313-85.741-81.964-85.741c-17.924,0.026-35.252,6.412-48.895,18.027c-3.164,2.652-7.768,2.652-10.932,0  c-13.644-11.614-30.971-18.009-48.895-18.027c-43.566,0-79.499,37.682-81.964,85.852l0.912,19.834  C18.25,362.085,18.25,362.307,18.241,362.529z"/>
<path d="M42.791,355.664c-4.707,0-8.527-3.812-8.527-8.519c0,0,0,0,0-0.009l0.077-3.914c1.859-39.251,30.382-69.991,64.943-69.991  c4.707,0,8.527,3.82,8.527,8.527s-3.82,8.527-8.527,8.527c-25.437,0-46.482,23.612-47.906,53.747l-0.068,1.398l0.009,1.705  C51.327,351.844,47.507,355.664,42.791,355.664C42.8,355.664,42.8,355.664,42.791,355.664z"/>
<path d="M262.819,374.219c-0.324,0-0.64-0.017-0.964-0.051c-4.681-0.529-8.05-4.75-7.521-9.423l1.654-17.421l-0.077-3.385  c-0.171-4.707,3.513-8.647,8.212-8.817c0.009,0,0.009,0,0.017,0c4.639-0.23,8.578,3.343,8.809,7.981  c0,0.077,0.009,0.162,0.009,0.239l0.068,4.528l-0.384,6.489l-1.364,12.288C270.792,370.953,267.151,374.211,262.819,374.219z"/>
<path d="M365.052,443.605c-29.871-0.119-59.187-8.143-84.965-23.245c-4.068-2.379-5.44-7.598-3.061-11.665  c2.362-4.05,7.555-5.432,11.623-3.087c56.953,33.094,126.408,26.469,168.933-16.048c49.032-49.04,49.645-130.705,1.441-190.063  l-13.277-14.522c-35.499-32.25-87.72-33.555-118.597-2.669c-12.646,12.68-20.38,29.427-21.838,47.275  c-0.375,4.102-3.624,7.342-7.717,7.717c-17.847,1.45-34.595,9.192-47.275,21.838c-0.537,0.537-1.006,1.006-1.475,1.543  c-3.087,3.556-8.476,3.931-12.032,0.844c-3.556-3.087-3.931-8.476-0.844-12.032c0.009-0.009,0.009-0.017,0.017-0.017  c0.725-0.836,1.441-1.56,2.277-2.388c13.797-13.823,31.636-22.887,50.933-25.897c3.01-19.297,12.083-37.136,25.906-50.933  c37.247-37.238,99.581-36.283,142.123,2.123c0.691,0.52,1.339,1.109,1.919,1.748l0.256,0.23c0.264,0.23,0.657,0.614,1.1,1.074  l0.674,0.708c0.239,0.179,0.452,0.384,0.64,0.614l0.179,0.188c1.228,1.219,2.132,2.166,2.933,3.112l0.06,0.068  c1.194,1.211,2.311,2.49,3.343,3.829c0.87,0.921,1.688,1.893,2.456,2.899c0.691,0.827,1.177,1.433,1.578,1.995  c53.645,66.154,52.511,157.566-2.703,212.771C441.754,428.973,404.115,444.083,365.052,443.605z"/>
<path d="M345.243,208.919c-4.707,0-8.527-3.812-8.527-8.519c0-2.26,0.895-4.434,2.498-6.037c11.571-11.35,27.193-17.6,43.395-17.361  c4.707,0,8.527,3.82,8.527,8.527c0,4.707-3.82,8.527-8.527,8.527c-11.674-0.222-22.955,4.238-31.338,12.364  C349.669,208.024,347.503,208.919,345.243,208.919z"/>
<path d="M439.495,380.001c-4.707,0-8.527-3.82-8.527-8.527c0-2.26,0.895-4.426,2.498-6.029  c16.807-17.148,26.503-40.027,27.125-64.031c0.205-4.707,4.187-8.357,8.894-8.152c4.673,0.205,8.306,4.127,8.152,8.8  c-0.784,28.302-12.262,55.256-32.113,75.44C443.929,379.105,441.754,380.009,439.495,380.001z"/>
<path d="M153.645,290.286c-4.596,0-8.365-3.65-8.519-8.246c-0.196-5.978-4.076-147.308,66.367-221.222  c26.324-27.935,63.101-43.634,101.491-43.318l0.205,17.054c-33.776-0.307-66.154,13.473-89.357,38.031  c-65.557,68.781-61.712,207.501-61.669,208.891c0.162,4.698-3.522,8.647-8.229,8.8c-0.009,0-0.009,0-0.017,0  C153.833,290.286,153.739,290.286,153.645,290.286z"/>
<path d="M315.662,247.65c-1.015,0-2.021-0.179-2.967-0.537c-2.311-0.861-56.578-21.557-70.58-73.547  c-10.651-39.549,5.133-85.306,46.891-135.992c2.993-3.633,8.365-4.153,12.006-1.16c3.633,2.993,4.153,8.365,1.16,12.006  c-38.048,46.192-52.715,86.807-43.583,120.711c11.733,43.591,59.563,61.822,60.04,62.001c4.417,1.637,6.668,6.549,5.031,10.957  C322.425,245.433,319.235,247.65,315.662,247.65z"/>
<path style="fill:#2E7D32;" d="M454.486,100.129c-17.344,9.201-36.207,15.213-55.683,17.737c-21.148,3.104-42.738,0.819-62.76-6.651  c-28.123-10.079-42.798-40.999-32.83-69.156c3.863-10.011,10.787-18.547,19.783-24.388c15.17-9.764,34.1-11.665,50.908-5.116  C402.47,23.554,454.486,100.129,454.486,100.129z"/>
<path style="fill:#4CAF50;" d="M419.098,108.827c-6.515,3.539-13.302,6.566-20.295,9.039c-21.147,3.104-42.738,0.819-62.76-6.651  c-28.123-10.079-42.798-40.999-32.83-69.156c3.863-10.011,10.787-18.547,19.783-24.388c5.321,0.452,10.54,1.654,15.52,3.581  C367.082,32.252,419.098,108.827,419.098,108.827z"/>
<path d="M380.248,127.723c-16.142,0.085-32.156-2.814-47.249-8.553c-32.523-11.776-49.39-47.633-37.724-80.19  c13.115-32.003,49.645-47.369,81.691-34.348c30.203,11.588,79.107,82.612,84.582,90.678c2.643,3.888,1.637,9.192-2.251,11.836  c-0.171,0.119-0.341,0.222-0.52,0.333C434.6,120.424,407.671,127.365,380.248,127.723z M353.268,17.261  c-18.436-0.35-35.166,10.719-42.065,27.824c-8.297,23.765,4.187,49.765,27.91,58.156c42.423,16.296,85.093,1.407,102.71-6.421  c-17.327-24.354-51.965-68.985-70.972-76.276C365.248,18.378,359.279,17.27,353.268,17.261z"/>
<g>
</g>
<g>
</g>
<g>
</g>
<g>
</g>
<g>
</g>
<g>
</g>
<g>
</g>
<g>
</g>
<g>
</g>
<g>
</g>
<g>
</g>
<g>
</g>
<g>
</g>
<g>
</g>
<g>
</g>
</svg>
