<?xml version="1.0" encoding="iso-8859-1"?>
<!-- Generator: Adobe Illustrator 19.0.0, SVG Export Plug-In . SVG Version: 6.00 Build 0)  -->
<svg xmlns="http://www.w3.org/2000/svg" xmlns:xlink="http://www.w3.org/1999/xlink" version="1.1" id="Capa_1" x="0px" y="0px" viewBox="0 0 512 512" style="enable-background:new 0 0 512 512;" xml:space="preserve">
<path style="fill:#FDD834;" d="M200.522,174.933c-0.026,7.219,1.007,14.413,3.072,21.333H67.061  c-2.065-6.921-3.098-14.114-3.072-21.333c-0.017-39.535,30.02-72.602,69.376-76.373c2.466-0.316,4.941-0.452,7.424-0.427  c28.783,0,55.142,16.111,68.267,41.728C203.432,150.69,200.505,162.722,200.522,174.933z"/>
<path style="fill:#FFEB3A;" d="M234.655,174.933c-0.026,7.219,1.007,14.413,3.072,21.333H101.194  c-2.065-6.921-3.098-14.114-3.072-21.333c-0.017-39.535,30.02-72.602,69.376-76.373c2.466-0.316,4.941-0.452,7.424-0.427  c28.783,0,55.142,16.111,68.267,41.728C237.565,150.69,234.638,162.722,234.655,174.933z"/>
<path style="fill:#00838F;" d="M371.189,196.267c0.273,89.822-72.311,162.867-162.133,163.157  c-20.71,0.017-41.225-3.977-60.416-11.776C87.029,322.662,46.768,262.75,46.922,196.267H371.189z"/>
<path style="fill:#00BCD4;" d="M336.799,196.267c-4.804,85.973-75.767,153.318-161.877,153.6c-8.806,0-17.596-0.742-26.283-2.219  C87.029,322.662,46.768,262.75,46.922,196.267H336.799z"/>
<polyline style="fill:#00838F;" points="234.638,358.4 234.638,469.333 183.438,469.333 183.438,358.4 "/>
<polyline style="fill:#00BCD4;" points="209.055,358.4 209.055,469.333 183.455,469.333 183.455,358.4 "/>
<path style="fill:#00838F;" d="M140.772,469.333h136.533c9.429,0,17.067,7.637,17.067,17.067l0,0  c0,9.429-7.637,17.067-17.067,17.067H140.772c-9.429,0-17.067-7.637-17.067-17.067l0,0  C123.705,476.971,131.351,469.333,140.772,469.333z"/>
<path style="fill:#00BCD4;" d="M140.789,469.333h102.4c9.429,0,17.067,7.637,17.067,17.067l0,0c0,9.429-7.637,17.067-17.067,17.067  h-102.4c-9.429,0-17.067-7.637-17.067-17.067l0,0C123.722,476.971,131.368,469.333,140.789,469.333z"/>
<path d="M209.055,367.957c-94.498-0.393-170.846-77.193-170.667-171.691c0-4.71,3.814-8.533,8.525-8.533c0,0,0,0,0.009,0h324.267  c4.71,0,8.533,3.814,8.533,8.525c0,0,0,0,0,0.009C379.901,290.765,303.554,367.565,209.055,367.957z M55.686,204.8  c4.122,84.702,76.126,150.033,160.836,145.911c78.942-3.84,142.071-66.97,145.911-145.911L55.686,204.8L55.686,204.8z"/>
<path d="M234.638,477.867h-51.2c-4.71,0-8.533-3.814-8.533-8.525c0,0,0,0,0-0.009V358.4c0-4.71,3.823-8.533,8.533-8.533  s8.533,3.823,8.533,8.533v102.4h34.133V358.4c0-4.71,3.823-8.533,8.533-8.533s8.533,3.823,8.533,8.533v110.933  C243.172,474.044,239.357,477.867,234.638,477.867L234.638,477.867z"/>
<path d="M277.305,512H140.772c-14.14,0-25.6-11.46-25.6-25.6s11.46-25.6,25.6-25.6h136.533c14.14,0,25.6,11.46,25.6,25.6  S291.445,512,277.305,512z M140.772,477.867c-4.71,0-8.533,3.823-8.533,8.533s3.823,8.533,8.533,8.533h136.533  c4.71,0,8.533-3.823,8.533-8.533s-3.823-8.533-8.533-8.533H140.772z"/>
<path d="M110.623,153.31c-4.71,0-8.533-3.823-8.533-8.533c0-2.261,0.896-4.429,2.5-6.033c9.574-9.634,22.605-15.036,36.19-15.01  c4.71,0,8.533,3.823,8.533,8.533c0,4.71-3.823,8.533-8.533,8.533c-9.054-0.017-17.741,3.584-24.124,10.01  C115.052,152.414,112.885,153.31,110.623,153.31z"/>
<path style="fill:#6A1B9A;" d="M353.098,162.219v34.048H203.594c-2.065-6.921-3.098-14.114-3.072-21.333  c-0.017-12.211,2.91-24.243,8.533-35.072c5.239-10.18,12.672-19.063,21.76-26.027c13.355-10.197,29.705-15.71,46.507-15.701  c2.483-0.026,4.958,0.111,7.424,0.427C319.306,101.879,347.338,127.983,353.098,162.219z"/>
<path style="fill:#9D27B0;" d="M327.498,175.019v21.248H203.594c-2.065-6.921-3.098-14.114-3.072-21.333  c-0.017-12.211,2.91-24.243,8.533-35.072c5.239-10.18,12.672-19.063,21.76-26.027c6.801-1.92,13.841-2.901,20.907-2.901  c2.483-0.026,4.958,0.111,7.424,0.427C293.706,114.679,321.738,140.783,327.498,175.019z"/>
<path d="M353.098,204.8H203.594c-3.772,0-7.091-2.475-8.175-6.084c-2.295-7.723-3.447-15.727-3.43-23.782  c0.077-47.095,38.238-85.257,85.333-85.333c2.876-0.026,5.743,0.145,8.593,0.512c38.306,3.729,69.325,32.734,75.597,70.707  c0.077,0.461,0.119,0.93,0.119,1.399v34.048C361.631,200.977,357.817,204.8,353.098,204.8L353.098,204.8z M210.267,187.733h134.298  v-24.789c-5.325-30.148-30.131-53.018-60.612-55.885c-2.202-0.29-4.412-0.418-6.63-0.393c-37.675,0.077-68.19,30.592-68.267,68.267  C209.038,179.226,209.448,183.518,210.267,187.733z"/>
<path d="M255.11,147.029c-4.71,0-8.542-3.814-8.542-8.533c0-2.97,1.545-5.734,4.079-7.287c8.03-4.898,17.254-7.492,26.658-7.484  c4.71,0,8.533,3.823,8.533,8.533c0,4.71-3.823,8.533-8.533,8.533c-6.263-0.009-12.407,1.715-17.758,4.983  C258.216,146.603,256.671,147.038,255.11,147.029z"/>
<path d="M203.594,204.8H67.061c-3.772,0-7.091-2.475-8.175-6.084c-2.295-7.723-3.447-15.727-3.43-23.782  c-0.205-44.006,33.28-80.862,77.107-84.864c2.731-0.341,5.478-0.495,8.226-0.469c31.991-0.06,61.312,17.86,75.853,46.362  c1.263,2.466,1.263,5.385-0.017,7.842c-4.975,9.626-7.578,20.301-7.569,31.13c-0.034,6.391,0.879,12.757,2.714,18.884  c1.348,4.514-1.212,9.276-5.734,10.624C205.241,204.681,204.422,204.8,203.594,204.8z M73.734,187.733h119.219  c-2.449-16.171-0.196-32.7,6.502-47.616c-12.237-20.762-34.56-33.493-58.667-33.451c-2.091-0.026-4.181,0.085-6.255,0.341  c-35.183,3.089-62.131,32.606-62.012,67.925C72.505,179.226,72.915,183.518,73.734,187.733z"/>
<path style="fill:#AD1457;" d="M285.855,85.333c-0.017,4.429-0.393,8.858-1.109,13.227c-2.466-0.316-4.941-0.452-7.424-0.427  c-2.884,0-5.76,0.171-8.619,0.512c-21.376,2.338-40.755,13.628-53.333,31.061c-2.415,3.183-4.523,6.588-6.315,10.155  c-0.597-1.109-1.195-2.219-1.877-3.328c-13.653-23.774-38.98-38.417-66.389-38.4c-2.483-0.026-4.958,0.111-7.424,0.427  c-0.717-4.369-1.092-8.798-1.109-13.227c0-42.419,34.381-76.8,76.8-76.8S285.855,42.914,285.855,85.333z"/>
<path style="fill:#E91E63;" d="M268.703,98.645c-21.376,2.338-40.755,13.628-53.333,31.061c-2.901,2.065-5.641,4.343-8.192,6.827  c-13.653-23.774-38.98-38.417-66.389-38.4c-2.483-0.026-4.958,0.111-7.424,0.427c-0.717-4.369-1.092-8.798-1.109-13.227  c-0.017-16.196,5.129-31.974,14.677-45.056c34.27-24.926,82.253-17.348,107.179,16.922  C262.918,69.299,267.987,83.703,268.703,98.645z"/>
<path d="M209.055,148.395c-3.2,0-6.127-1.792-7.586-4.634c-11.631-22.801-35.081-37.137-60.681-37.094  c-2.091-0.026-4.181,0.085-6.255,0.341c-4.599,0.657-8.875-2.509-9.591-7.1c-0.794-4.821-1.195-9.694-1.22-14.575  C123.722,38.204,161.926,0,209.055,0s85.333,38.204,85.333,85.333c-0.017,4.881-0.427,9.754-1.22,14.575  c-0.708,4.599-4.992,7.765-9.591,7.1c-2.074-0.256-4.164-0.367-6.255-0.341c-25.591-0.043-49.05,14.293-60.681,37.094  C215.182,146.603,212.255,148.395,209.055,148.395z M140.925,89.6c26.837-0.017,52.105,12.655,68.13,34.185  c16.026-21.521,41.293-34.202,68.13-34.185c0.094-1.459,0.137-2.876,0.137-4.267c0-37.7-30.566-68.267-68.267-68.267  s-68.267,30.566-68.267,68.267C140.789,86.724,140.84,88.141,140.925,89.6z"/>
<path d="M178.89,63.71c-4.71,0-8.533-3.823-8.533-8.533c0-2.261,0.896-4.429,2.5-6.033c9.574-9.634,22.596-15.036,36.181-15.01  c4.71,0,8.533,3.823,8.533,8.533s-3.823,8.533-8.533,8.533c-9.054-0.017-17.741,3.584-24.124,10.01  C183.319,62.814,181.151,63.71,178.89,63.71z"/>
<g>
	<path style="fill:#607D8B;" d="M452.17,63.232c-48.896,16.384-71.936,86.443-82.091,133.035H351.05   c2.074-6.921,3.106-14.106,3.072-21.333c0.009-4.258-0.333-8.508-1.024-12.715c10.581-48.981,35.499-123.904,89.685-135.168   c7.979-1.647,16.068,2.278,19.712,9.557l0.683,1.451c4.361,8.969,0.623,19.772-8.346,24.132   C453.979,62.609,453.083,62.959,452.17,63.232z"/>
	<path style="fill:#607D8B;" d="M370.062,196.267c10.155-46.592,33.195-116.651,82.091-133.035   c9.54-2.884,14.942-12.962,12.049-22.511c-0.273-0.913-0.623-1.809-1.041-2.662l-0.683-1.451   c-3.644-7.279-11.733-11.204-19.712-9.557c-54.187,11.264-79.104,86.187-89.685,135.168"/>
</g>
<path d="M370.079,204.8H351.05c-4.71,0-8.533-3.823-8.533-8.533c0-0.836,0.119-1.673,0.367-2.475  c1.826-6.118,2.739-12.476,2.705-18.859c0.009-3.789-0.299-7.578-0.905-11.315c-0.179-1.058-0.154-2.15,0.077-3.2  c12.561-58.138,39.467-129.911,96.29-141.722c11.75-2.423,23.671,3.337,29.065,14.054l0.794,1.664  c3.337,6.716,3.593,14.541,0.717,21.461c-3.063,7.339-9.182,12.979-16.742,15.454c-45.833,15.369-67.575,86.016-76.459,126.754  C377.563,202.001,374.099,204.8,370.079,204.8z M361.7,187.733h1.562c12.348-52.873,37.154-116.156,86.204-132.591l0.034-0.009  c2.859-0.913,5.18-3.021,6.357-5.786c1.007-2.406,0.905-5.129-0.29-7.45l-0.785-1.647c-1.946-3.712-6.101-5.692-10.197-4.864  c-49.843,10.368-73.19,83.354-82.807,127.087c0.597,4.13,0.887,8.286,0.887,12.459C362.664,179.217,362.34,183.501,361.7,187.733  L361.7,187.733z"/>
<path d="M370.071,204.8c-4.702,0.017-8.533-3.789-8.542-8.491c0-0.623,0.068-1.246,0.196-1.86  c11.793-54.093,36.574-122.172,87.723-139.307c2.876-0.905,5.205-3.021,6.391-5.794c1.007-2.406,0.905-5.129-0.29-7.45l-0.785-1.647  c-1.937-3.712-6.093-5.692-10.197-4.855c-50.432,10.479-73.737,85.094-83.14,128.623c-0.99,4.608-5.538,7.535-10.138,6.545  c-4.608-0.99-7.535-5.538-6.545-10.138c12.561-58.138,39.467-129.911,96.29-141.722c11.75-2.432,23.671,3.337,29.065,14.054  l0.794,1.664c3.337,6.716,3.593,14.541,0.717,21.461c-3.072,7.347-9.19,12.996-16.768,15.462  c-45.807,15.351-67.558,85.999-76.433,126.754C377.546,202.001,374.082,204.791,370.071,204.8z"/>
<g>
</g>
<g>
</g>
<g>
</g>
<g>
</g>
<g>
</g>
<g>
</g>
<g>
</g>
<g>
</g>
<g>
</g>
<g>
</g>
<g>
</g>
<g>
</g>
<g>
</g>
<g>
</g>
<g>
</g>
</svg>
