<?xml version="1.0" encoding="iso-8859-1"?>
<!-- Generator: Adobe Illustrator 19.0.0, SVG Export Plug-In . SVG Version: 6.00 Build 0)  -->
<svg xmlns="http://www.w3.org/2000/svg" xmlns:xlink="http://www.w3.org/1999/xlink" version="1.1" id="Capa_1" x="0px" y="0px" viewBox="0 0 512.005 512.005" style="enable-background:new 0 0 512.005 512.005;" xml:space="preserve">
<path style="fill:#FDD834;" d="M405.092,58.589c-109-82.373-264.148-60.779-346.521,48.221c-66.692,88.251-66.692,210.049,0,298.3  l-7.721,7.721c-13.309,13.343-13.284,34.954,0.06,48.263c13.318,13.284,34.877,13.284,48.195,0l7.721-7.721  c109.009,82.373,264.148,60.779,346.521-48.221c66.692-88.251,66.692-210.049,0-298.3l7.721-7.721  c13.309-13.343,13.284-34.954-0.06-48.263c-13.318-13.284-34.877-13.284-48.195,0L405.092,58.589z"/>
<path style="fill:#FFEB3A;" d="M430.951,439.501c-87.304,87.304-225.61,96.877-324.117,22.438l-7.678,7.678  c-12.345,12.396-32.07,13.429-45.644,2.389c-0.921-0.751-1.8-1.544-2.645-2.389c-11.919-11.74-13.437-30.424-3.583-43.938  c1.049-1.536,2.252-2.969,3.583-4.266l7.678-7.764c-17.985-23.726-31.516-50.524-39.928-79.088  C3.44,198.781,101.204,76.412,236.976,61.242c62.921-7.03,126.149,10.332,176.647,48.511l7.678-7.678  c12.345-12.396,32.07-13.429,45.644-2.389c-1.519,2.969-3.507,5.674-5.887,8.02l-7.678,7.678  c7.363,9.692,13.983,19.93,19.793,30.629c15.476,28.214,25.22,59.209,28.666,91.203C510.27,311.919,484.163,386.391,430.951,439.501  z"/>
<path d="M255.626,511.704c-53.016,0.102-104.743-16.372-147.938-47.112l-2.542,2.542c-16.62,16.705-43.622,16.773-60.327,0.154  c-16.705-16.62-16.773-43.622-0.154-60.327c0.051-0.051,0.102-0.102,0.154-0.154l2.534-2.542  c-81.895-115.211-54.884-275,60.319-356.895c88.78-63.108,207.788-63.108,296.568,0l2.542-2.542  c16.62-16.696,43.631-16.765,60.327-0.154c16.696,16.611,16.765,43.631,0.154,60.327c-0.051,0.051-0.102,0.102-0.154,0.154  l-2.534,2.542c81.912,115.032,55.063,274.684-59.969,356.596C361.111,495.263,309.017,511.849,255.626,511.704z M106.843,444.841  c1.86,0,3.669,0.606,5.153,1.732c105.255,79.523,255.044,58.663,334.568-46.583c64.371-85.205,64.371-202.78,0-287.985  c-2.577-3.396-2.252-8.173,0.759-11.193l7.721-7.721c9.999-9.991,9.999-26.201,0.009-36.2c-9.991-9.999-26.201-9.999-36.2-0.009  l-7.721,7.721c-3.02,3.012-7.789,3.336-11.194,0.768c-105.255-79.506-255.044-58.655-334.568,46.6  C1,197.177,1,314.751,65.371,399.956c2.577,3.396,2.252,8.173-0.759,11.193l-7.721,7.721c-9.999,9.991-9.999,26.201,0,36.2  c9.999,9.999,26.201,9.999,36.2,0l7.721-7.721C102.398,445.737,104.574,444.841,106.843,444.841z"/>
<path d="M264.499,59.758c-1.118-0.017-2.218-0.247-3.242-0.683c-1.032-0.435-1.988-1.041-2.815-1.792  c-0.751-0.828-1.357-1.783-1.792-2.815c-0.904-2.065-0.904-4.419,0-6.484c0.41-1.041,1.024-2.005,1.792-2.815  c0.828-0.751,1.783-1.357,2.815-1.792c2.073-0.862,4.411-0.862,6.484,0c1.032,0.435,1.988,1.041,2.815,1.792  c0.768,0.819,1.382,1.775,1.792,2.815c0.913,2.065,0.913,4.419,0,6.484c-0.435,1.032-1.041,1.988-1.792,2.815  c-0.828,0.751-1.783,1.357-2.815,1.792C266.709,59.51,265.608,59.741,264.499,59.758z"/>
<path d="M298.626,59.758c-1.118-0.017-2.218-0.247-3.242-0.683c-1.032-0.435-1.988-1.041-2.815-1.792  c-0.751-0.828-1.357-1.783-1.792-2.815c-0.478-1.015-0.708-2.124-0.683-3.242c0.009-1.118,0.239-2.218,0.683-3.242  c1.664-4.334,6.527-6.501,10.869-4.837c2.227,0.853,3.984,2.611,4.837,4.837c0.435,1.024,0.665,2.124,0.683,3.242  c0.026,1.118-0.205,2.227-0.683,3.242c-0.435,1.032-1.041,1.988-1.792,2.815c-0.828,0.751-1.783,1.357-2.815,1.792  C300.835,59.51,299.735,59.741,298.626,59.758z"/>
<path d="M281.562,85.353c-1.118-0.017-2.218-0.247-3.242-0.683c-2.141-0.776-3.831-2.466-4.607-4.607  c-0.904-2.065-0.904-4.419,0-6.484c0.41-1.041,1.024-2.005,1.792-2.815c0.401-0.367,0.828-0.708,1.28-1.024  c0.478-0.324,0.99-0.58,1.536-0.768c0.486-0.247,0.998-0.418,1.536-0.52c2.807-0.555,5.716,0.307,7.764,2.312  c1.561,1.638,2.44,3.797,2.474,6.057c-0.017,1.118-0.247,2.218-0.683,3.242c-0.435,1.032-1.041,1.988-1.792,2.815  c-0.828,0.751-1.783,1.357-2.815,1.792C283.772,85.105,282.672,85.336,281.562,85.353z"/>
<path d="M247.436,85.353c-1.118-0.017-2.218-0.247-3.242-0.683c-2.141-0.776-3.831-2.466-4.607-4.607  c-0.478-1.015-0.708-2.124-0.683-3.242c0-4.709,3.822-8.532,8.532-8.532s8.532,3.822,8.532,8.532  c0.026,1.118-0.205,2.227-0.683,3.242c-0.435,1.032-1.041,1.988-1.792,2.815c-0.828,0.751-1.783,1.357-2.815,1.792  C249.646,85.105,248.545,85.336,247.436,85.353z"/>
<path d="M315.689,85.353c-1.118-0.017-2.218-0.247-3.242-0.683c-2.141-0.776-3.831-2.466-4.607-4.607  c-0.478-1.015-0.708-2.124-0.683-3.242c0-4.709,3.822-8.532,8.532-8.532s8.532,3.822,8.532,8.532  c0.026,1.118-0.205,2.227-0.683,3.242c-0.435,1.032-1.041,1.988-1.792,2.815c-0.828,0.751-1.783,1.357-2.815,1.792  C317.899,85.105,316.798,85.336,315.689,85.353z"/>
<path d="M332.752,59.758c-1.118-0.017-2.218-0.247-3.242-0.683c-1.032-0.435-1.988-1.041-2.815-1.792  c-0.751-0.828-1.357-1.783-1.792-2.815c-0.904-2.065-0.904-4.419,0-6.484c0.41-1.041,1.024-2.005,1.792-2.815  c2.474-2.389,6.117-3.088,9.299-1.792c1.032,0.435,1.988,1.041,2.815,1.792c0.768,0.819,1.382,1.775,1.792,2.815  c0.913,2.065,0.913,4.419,0,6.484c-0.435,1.032-1.041,1.988-1.792,2.815C337.197,58.879,335.022,59.775,332.752,59.758z"/>
<path d="M264.499,110.948c-2.269,0.017-4.454-0.87-6.057-2.474c-0.751-0.828-1.357-1.783-1.792-2.815  c-0.904-2.065-0.904-4.419,0-6.484c0.776-2.141,2.466-3.831,4.607-4.607c2.073-0.862,4.411-0.862,6.484,0  c1.041,0.41,1.996,1.024,2.815,1.792c1.561,1.638,2.44,3.797,2.474,6.057c0.026,1.118-0.205,2.227-0.683,3.242  c-0.435,1.032-1.041,1.988-1.792,2.815c-0.828,0.751-1.783,1.357-2.815,1.792C266.709,110.7,265.608,110.931,264.499,110.948z"/>
<path d="M298.626,110.948c-1.118-0.017-2.218-0.247-3.242-0.683c-2.141-0.776-3.831-2.466-4.607-4.607  c-0.904-2.065-0.904-4.419,0-6.484c1.664-4.334,6.527-6.501,10.869-4.837c2.227,0.853,3.984,2.611,4.837,4.837  c0.913,2.065,0.913,4.419,0,6.484c-0.435,1.032-1.041,1.988-1.792,2.815C303.071,110.077,300.895,110.965,298.626,110.948z"/>
<path d="M332.752,110.948c-2.269,0.017-4.453-0.87-6.057-2.474c-0.751-0.828-1.357-1.783-1.792-2.815  c-0.478-1.015-0.708-2.124-0.683-3.242c0.034-2.261,0.913-4.419,2.474-6.057c3.396-3.216,8.719-3.216,12.115,0  c1.561,1.638,2.44,3.797,2.474,6.057c-0.017,1.118-0.247,2.218-0.683,3.242c-0.435,1.032-1.041,1.988-1.792,2.815  C337.197,110.069,335.022,110.965,332.752,110.948z"/>
<path d="M366.879,110.948c-2.269,0.017-4.453-0.87-6.057-2.474c-0.751-0.828-1.357-1.783-1.792-2.815  c-0.435-1.024-0.665-2.124-0.683-3.242c0.034-2.261,0.913-4.419,2.474-6.057c0.811-0.768,1.766-1.382,2.815-1.792  c2.073-0.862,4.411-0.862,6.484,0c1.032,0.435,1.988,1.041,2.815,1.792c1.561,1.638,2.44,3.797,2.474,6.057  c-0.017,1.118-0.247,2.218-0.683,3.242c-0.435,1.032-1.041,1.988-1.792,2.815C371.324,110.069,369.148,110.965,366.879,110.948z"/>
<path d="M298.626,162.137c-1.118-0.017-2.218-0.247-3.242-0.683c-1.032-0.435-1.979-1.041-2.815-1.792  c-1.604-1.604-2.5-3.788-2.474-6.057c0.017-2.261,0.904-4.428,2.474-6.057c2.039-2.013,4.948-2.875,7.764-2.312  c0.537,0.094,1.049,0.273,1.536,0.52c0.546,0.188,1.066,0.444,1.536,0.768c0.444,0.316,0.87,0.657,1.28,1.024  c1.561,1.638,2.44,3.797,2.474,6.057c0.043,4.667-3.703,8.489-8.37,8.532C298.728,162.137,298.677,162.137,298.626,162.137z"/>
<path d="M332.752,162.137c-4.667,0.043-8.489-3.703-8.532-8.37c0-0.051,0-0.111,0-0.162c0.034-2.261,0.913-4.419,2.474-6.057  c0.401-0.367,0.828-0.708,1.28-1.024c0.478-0.324,0.99-0.58,1.536-0.768c0.486-0.247,0.998-0.418,1.536-0.52  c2.807-0.555,5.716,0.307,7.764,2.312c1.57,1.63,2.457,3.797,2.474,6.057c0.017,2.269-0.87,4.454-2.474,6.057  c-0.828,0.751-1.783,1.357-2.815,1.792C334.962,161.89,333.861,162.12,332.752,162.137z"/>
<path d="M366.879,162.137c-4.667,0.043-8.489-3.703-8.532-8.37c0-0.051,0-0.111,0-0.162c0.017-2.261,0.904-4.428,2.474-6.057  c3.319-3.344,8.719-3.37,12.064-0.051c1.63,1.612,2.534,3.814,2.525,6.109c0.043,4.667-3.703,8.489-8.37,8.532  C366.981,162.137,366.93,162.137,366.879,162.137z"/>
<path d="M349.815,85.353c-1.118-0.017-2.218-0.247-3.242-0.683c-2.141-0.776-3.831-2.466-4.607-4.607  c-0.904-2.065-0.904-4.419,0-6.484c0.41-1.041,1.024-2.005,1.792-2.815c0.401-0.367,0.828-0.708,1.28-1.024  c0.478-0.324,0.99-0.58,1.536-0.768c0.486-0.247,0.998-0.418,1.536-0.52c2.807-0.555,5.716,0.307,7.764,2.312  c1.561,1.638,2.44,3.797,2.474,6.057c-0.017,1.118-0.247,2.218-0.683,3.242c-0.435,1.032-1.041,1.988-1.792,2.815  c-0.828,0.751-1.783,1.357-2.815,1.792C352.025,85.105,350.925,85.336,349.815,85.353z"/>
<path d="M281.562,136.542c-1.118,0.026-2.235-0.205-3.242-0.683c-1.032-0.435-1.979-1.041-2.815-1.792  c-2.44-2.44-3.148-6.126-1.792-9.299c0.776-2.141,2.466-3.831,4.607-4.607c3.182-1.297,6.834-0.597,9.299,1.792  c0.751,0.828,1.357,1.783,1.792,2.815c1.834,4.291-0.154,9.257-4.436,11.091C283.892,136.321,282.731,136.551,281.562,136.542z"/>
<path d="M247.436,136.542c-2.269,0.017-4.454-0.87-6.057-2.474c-0.751-0.828-1.357-1.783-1.792-2.815  c-0.904-2.065-0.904-4.419,0-6.484c0.435-1.032,1.041-1.988,1.792-2.815c0.802-0.793,1.758-1.399,2.815-1.792  c3.182-1.254,6.808-0.555,9.299,1.792c0.751,0.828,1.357,1.783,1.792,2.815c0.913,2.065,0.913,4.419,0,6.484  c-0.435,1.032-1.041,1.988-1.792,2.815C251.881,135.664,249.705,136.56,247.436,136.542z"/>
<path d="M315.689,136.542c-1.118,0.026-2.235-0.205-3.242-0.683c-1.032-0.435-1.979-1.041-2.815-1.792  c-2.44-2.44-3.148-6.126-1.792-9.299c0.776-2.141,2.466-3.831,4.607-4.607c2.073-0.862,4.411-0.862,6.484,0  c2.141,0.776,3.831,2.466,4.607,4.607c1.834,4.291-0.154,9.257-4.436,11.091C318.018,136.321,316.858,136.551,315.689,136.542z"/>
<path d="M349.815,136.542c-4.667,0.043-8.489-3.703-8.532-8.37c-0.009-1.169,0.222-2.329,0.683-3.396  c0.776-2.141,2.466-3.831,4.607-4.607c2.073-0.862,4.411-0.862,6.484,0c2.141,0.776,3.831,2.466,4.607,4.607  c1.365,3.174,0.657,6.859-1.792,9.299c-0.828,0.751-1.783,1.357-2.815,1.792C352.042,136.329,350.933,136.568,349.815,136.542z"/>
<path d="M383.942,136.542c-4.667,0.043-8.489-3.703-8.532-8.37c-0.009-1.169,0.222-2.329,0.683-3.396  c0.435-1.032,1.041-1.988,1.792-2.815c2.474-2.389,6.117-3.088,9.299-1.792c1.041,0.41,1.996,1.024,2.815,1.792  c0.751,0.828,1.357,1.783,1.792,2.815c0.478,1.015,0.708,2.124,0.683,3.242c0.017,2.269-0.87,4.454-2.474,6.057  c-0.828,0.751-1.783,1.357-2.815,1.792C386.169,136.329,385.06,136.568,383.942,136.542z"/>
<path d="M238.904,460.744c-4.667,0.043-8.489-3.703-8.532-8.37c-0.009-1.169,0.222-2.329,0.683-3.396  c0.41-1.041,1.024-2.005,1.792-2.815c0.828-0.751,1.783-1.357,2.815-1.792c2.056-0.938,4.428-0.938,6.484,0  c2.141,0.776,3.831,2.466,4.607,4.607c0.913,2.065,0.913,4.419,0,6.484c-0.435,1.032-1.041,1.988-1.792,2.815  c-0.845,0.751-1.8,1.382-2.815,1.877C241.114,460.548,240.013,460.753,238.904,460.744z"/>
<path d="M204.778,460.744c-1.109,0.017-2.21-0.188-3.242-0.597c-1.015-0.495-1.962-1.126-2.815-1.877  c-2.44-2.44-3.148-6.126-1.792-9.299c0.41-1.041,1.024-2.005,1.792-2.815c2.048-2.005,4.948-2.867,7.764-2.312  c0.537,0.094,1.049,0.273,1.536,0.52c0.546,0.188,1.066,0.444,1.536,0.768c0.427,0.341,0.853,0.683,1.28,1.024  c0.768,0.819,1.382,1.775,1.792,2.815c1.365,3.174,0.648,6.859-1.792,9.299c-0.845,0.751-1.8,1.382-2.815,1.877  C206.987,460.548,205.887,460.753,204.778,460.744z"/>
<path d="M221.841,435.149c-4.667,0.043-8.489-3.703-8.532-8.37c-0.009-1.169,0.222-2.329,0.683-3.396  c0.776-2.141,2.466-3.831,4.607-4.607c3.182-1.288,6.825-0.589,9.299,1.792c0.751,0.828,1.357,1.783,1.792,2.815  c0.913,2.065,0.913,4.419,0,6.484c-0.435,1.032-1.041,1.988-1.792,2.815C226.286,434.279,224.102,435.166,221.841,435.149z"/>
<path d="M255.968,435.149c-2.269,0.017-4.454-0.87-6.057-2.474c-0.751-0.828-1.357-1.783-1.792-2.815  c-0.904-2.065-0.904-4.419,0-6.484c0.776-2.141,2.466-3.831,4.607-4.607c2.073-0.862,4.411-0.862,6.484,0  c2.141,0.776,3.831,2.466,4.607,4.607c0.913,2.065,0.913,4.419,0,6.484c-0.435,1.032-1.041,1.988-1.792,2.815  C260.413,434.271,258.228,435.166,255.968,435.149z"/>
<path d="M187.715,435.149c-1.118-0.017-2.218-0.247-3.242-0.683c-2.141-0.776-3.831-2.466-4.607-4.607  c-0.904-2.065-0.904-4.419,0-6.484c0.41-1.041,1.024-2.005,1.792-2.815c3.421-3.157,8.694-3.157,12.115,0  c0.751,0.828,1.357,1.783,1.792,2.815c0.913,2.065,0.913,4.419,0,6.484c-0.435,1.032-1.041,1.988-1.792,2.815  C192.16,434.271,189.984,435.166,187.715,435.149z"/>
<path d="M170.651,460.744c-1.109,0.017-2.21-0.188-3.242-0.597c-1.015-0.495-1.962-1.126-2.815-1.877  c-0.751-0.828-1.357-1.783-1.792-2.815c-0.904-2.065-0.904-4.419,0-6.484c0.776-2.141,2.466-3.831,4.607-4.607  c2.056-0.938,4.428-0.938,6.484,0c2.141,0.776,3.831,2.466,4.607,4.607c0.913,2.065,0.913,4.419,0,6.484  c-0.435,1.032-1.041,1.988-1.792,2.815C175.096,459.866,172.912,460.761,170.651,460.744z"/>
<path d="M238.904,409.555c-2.269,0.017-4.453-0.87-6.057-2.474c-0.751-0.828-1.357-1.783-1.792-2.815  c-0.904-2.065-0.904-4.419,0-6.484c0.776-2.141,2.466-3.831,4.607-4.607c3.182-1.297,6.834-0.597,9.299,1.792  c0.768,0.819,1.382,1.775,1.792,2.815c0.913,2.065,0.913,4.419,0,6.484c-0.435,1.032-1.041,1.988-1.792,2.815  C243.349,408.684,241.165,409.572,238.904,409.555z"/>
<path d="M204.778,409.555c-2.269,0.017-4.454-0.87-6.057-2.474c-0.751-0.828-1.357-1.783-1.792-2.815  c-0.904-2.065-0.904-4.419,0-6.484c0.435-1.032,1.041-1.988,1.792-2.815c3.216-3.344,8.54-3.447,11.885-0.23  c0.887,0.853,1.578,1.894,2.013,3.046c0.913,2.065,0.913,4.419,0,6.484c-0.435,1.032-1.041,1.988-1.792,2.815  C209.223,408.676,207.039,409.572,204.778,409.555z"/>
<path d="M170.651,409.555c-2.269,0.017-4.454-0.87-6.057-2.474c-0.751-0.828-1.357-1.783-1.792-2.815  c-0.904-2.065-0.904-4.419,0-6.484c0.435-1.032,1.041-1.988,1.792-2.815c3.216-3.344,8.54-3.447,11.885-0.23  c0.887,0.853,1.578,1.894,2.013,3.046c0.913,2.065,0.913,4.419,0,6.484c-0.435,1.032-1.041,1.988-1.792,2.815  c-0.828,0.751-1.783,1.357-2.815,1.792C172.861,409.307,171.76,409.537,170.651,409.555z"/>
<path d="M136.525,409.555c-2.269,0.017-4.454-0.87-6.057-2.474c-0.751-0.828-1.357-1.783-1.792-2.815  c-0.904-2.065-0.904-4.419,0-6.484c0.435-1.032,1.041-1.988,1.792-2.815c3.216-3.344,8.54-3.447,11.885-0.23  c0.887,0.853,1.578,1.894,2.013,3.046c0.913,2.065,0.913,4.419,0,6.484c-0.435,1.032-1.041,1.988-1.792,2.815  c-0.828,0.751-1.783,1.357-2.815,1.792C138.734,409.307,137.634,409.537,136.525,409.555z"/>
<path d="M204.778,358.365c-4.667,0.043-8.489-3.703-8.532-8.37c0-0.051,0-0.111,0-0.162c0.034-2.261,0.913-4.419,2.474-6.057  c0.811-0.768,1.766-1.382,2.815-1.792c2.073-0.862,4.411-0.862,6.484,0c1.041,0.41,1.996,1.024,2.815,1.792  c1.561,1.638,2.44,3.797,2.474,6.057c0.017,2.269-0.87,4.454-2.474,6.057c-0.828,0.776-1.783,1.408-2.815,1.877  C206.987,358.169,205.887,358.373,204.778,358.365z"/>
<path d="M170.651,358.365c-4.667,0.043-8.489-3.703-8.532-8.37c0-0.051,0-0.111,0-0.162c0-4.709,3.822-8.532,8.532-8.532  s8.532,3.822,8.532,8.532c0.043,4.667-3.703,8.489-8.37,8.532C170.754,358.365,170.702,358.365,170.651,358.365z"/>
<path d="M136.525,358.365c-4.667,0.043-8.489-3.703-8.532-8.37c0-0.051,0-0.111,0-0.162c0-4.709,3.822-8.532,8.532-8.532  s8.532,3.822,8.532,8.532c0.043,4.667-3.703,8.489-8.37,8.532C136.627,358.365,136.576,358.365,136.525,358.365z"/>
<path d="M153.588,435.149c-2.269,0.017-4.453-0.87-6.057-2.474c-0.751-0.828-1.357-1.783-1.792-2.815  c-0.904-2.065-0.904-4.419,0-6.484c0.41-1.041,1.024-2.005,1.792-2.815c3.216-3.344,8.54-3.447,11.885-0.23  c0.887,0.853,1.578,1.894,2.013,3.046c0.913,2.065,0.913,4.419,0,6.484c-0.435,1.032-1.041,1.988-1.792,2.815  c-0.828,0.751-1.783,1.357-2.815,1.792C155.798,434.902,154.697,435.132,153.588,435.149z"/>
<path d="M221.841,383.96c-4.667,0.043-8.489-3.703-8.532-8.37c0-0.051,0-0.111,0-0.162c0.034-2.261,0.913-4.419,2.474-6.057  c2.449-2.423,6.126-3.131,9.299-1.792c1.032,0.435,1.988,1.041,2.815,1.792c1.561,1.638,2.44,3.797,2.474,6.057  c0.043,4.667-3.703,8.489-8.37,8.532C221.943,383.96,221.892,383.96,221.841,383.96z"/>
<path d="M255.968,383.96c-4.667,0.043-8.489-3.703-8.532-8.37c0-0.051,0-0.111,0-0.162c0-4.709,3.822-8.532,8.532-8.532  s8.532,3.822,8.532,8.532c0.026,1.118-0.205,2.227-0.683,3.242c-0.435,1.032-1.041,1.988-1.792,2.815  C260.413,383.081,258.228,383.977,255.968,383.96z"/>
<path d="M187.715,383.96c-4.667,0.043-8.489-3.703-8.532-8.37c0-0.051,0-0.111,0-0.162c0-4.709,3.822-8.532,8.532-8.532  s8.532,3.822,8.532,8.532c0.017,2.269-0.87,4.454-2.474,6.057c-0.828,0.776-1.783,1.408-2.815,1.877  C189.924,383.763,188.824,383.968,187.715,383.96z"/>
<path d="M153.588,383.96c-1.109,0.017-2.21-0.188-3.242-0.597c-1.032-0.461-1.988-1.092-2.815-1.877  c-1.604-1.604-2.5-3.788-2.474-6.057c0-4.709,3.822-8.532,8.532-8.532c4.709,0,8.532,3.822,8.532,8.532  c0.043,4.667-3.703,8.489-8.37,8.532C153.69,383.96,153.639,383.96,153.588,383.96z"/>
<path d="M119.462,383.96c-4.667,0.043-8.489-3.703-8.532-8.37c0-0.051,0-0.111,0-0.162c0.034-2.261,0.913-4.419,2.474-6.057  c0.828-0.751,1.783-1.357,2.815-1.792c3.174-1.339,6.851-0.631,9.299,1.792c1.561,1.638,2.44,3.797,2.474,6.057  c0.043,4.667-3.703,8.489-8.37,8.532C119.564,383.96,119.513,383.96,119.462,383.96z"/>
<g>
</g>
<g>
</g>
<g>
</g>
<g>
</g>
<g>
</g>
<g>
</g>
<g>
</g>
<g>
</g>
<g>
</g>
<g>
</g>
<g>
</g>
<g>
</g>
<g>
</g>
<g>
</g>
<g>
</g>
</svg>
