<?xml version="1.0" encoding="iso-8859-1"?>
<!-- Generator: Adobe Illustrator 19.0.0, SVG Export Plug-In . SVG Version: 6.00 Build 0)  -->
<svg xmlns="http://www.w3.org/2000/svg" xmlns:xlink="http://www.w3.org/1999/xlink" version="1.1" id="Capa_1" x="0px" y="0px" viewBox="0 0 512.004 512.004" style="enable-background:new 0 0 512.004 512.004;" xml:space="preserve">
<path style="fill:#C52828;" d="M418.138,235.946c0,65.622-65.196,246.959-148.141,265.903c-4.582,1.092-9.284,1.638-13.995,1.621  c-89.516,0-162.136-198.233-162.136-267.524c0-42.923,27.904-87.212,70.487-114.69c27.282-17.75,59.103-27.264,91.65-27.392  C345.518,93.864,418.138,166.74,418.138,235.946z"/>
<path style="fill:#F44335;" d="M384.004,253.013c0,56.321-47.958,197.806-114.007,248.836c-4.582,1.092-9.284,1.638-13.995,1.621  c-89.516,0-162.136-198.233-162.136-267.524c0-42.923,27.904-87.212,70.487-114.69c18.415-6.81,37.889-10.3,57.516-10.326  C311.384,110.931,384.004,183.807,384.004,253.013z"/>
<path d="M256.002,512.004c-57.055,0-101.088-70.469-122.259-112.471c-28.058-55.655-48.41-124.444-48.41-163.578  c0-61.134,51.892-122.728,120.697-143.26c7.16-2.185,14.464-3.874,21.854-5.043c18.526-3.055,37.419-3.064,55.954-0.043  c0.162,0.017,0.324,0.034,0.469,0.06c7.339,1.212,14.584,2.893,21.709,5.035c68.763,20.523,120.655,82.118,120.655,143.251  c0,39.135-20.361,107.923-48.41,163.587C357.081,441.543,313.048,512.004,256.002,512.004z M256.002,102.397  c-8.508,0-16.999,0.708-25.396,2.099c-6.648,1.05-13.218,2.56-19.653,4.531C149.052,127.511,102.4,182.066,102.4,235.955  c0,30.763,16.325,95.865,46.584,155.907c19.405,38.503,59.111,103.084,107.018,103.084s87.613-64.581,107.018-103.084  c30.26-60.042,46.584-125.143,46.584-155.907c0-53.88-46.652-108.443-108.512-126.91c-6.323-1.903-12.758-3.396-19.277-4.48  c-0.145-0.017-0.29-0.034-0.418-0.06C273.001,103.106,264.51,102.406,256.002,102.397z"/>
<path d="M187.734,170.665c-4.71,0-8.533-3.814-8.533-8.525c0,0,0,0,0-0.009v-17.067c0-4.71,3.823-8.533,8.533-8.533  s8.533,3.823,8.533,8.533v17.067C196.268,166.851,192.445,170.665,187.734,170.665L187.734,170.665z"/>
<path d="M153.6,221.866c-4.71,0-8.533-3.814-8.533-8.525c0,0,0,0,0-0.009v-17.067c0-4.71,3.823-8.533,8.533-8.533  s8.533,3.823,8.533,8.533v17.067C162.134,218.052,158.311,221.866,153.6,221.866L153.6,221.866z"/>
<path d="M221.868,221.866c-4.71,0-8.533-3.814-8.533-8.525c0,0,0,0,0-0.009v-17.067c0-4.71,3.823-8.533,8.533-8.533  s8.533,3.823,8.533,8.533v17.067C230.402,218.052,226.579,221.866,221.868,221.866L221.868,221.866z"/>
<path d="M290.136,221.866c-4.71,0-8.533-3.814-8.533-8.525c0,0,0,0,0-0.009v-17.067c0-4.71,3.823-8.533,8.533-8.533  c4.71,0,8.533,3.823,8.533,8.533v17.067C298.67,218.052,294.847,221.866,290.136,221.866L290.136,221.866z"/>
<path d="M358.404,221.866c-4.71,0-8.533-3.814-8.533-8.525c0,0,0,0,0-0.009v-17.067c0-4.71,3.823-8.533,8.533-8.533  c4.71,0,8.533,3.823,8.533,8.533v17.067C366.937,218.052,363.114,221.866,358.404,221.866L358.404,221.866z"/>
<path d="M153.6,324.268c-4.71,0-8.533-3.814-8.533-8.525c0,0,0,0,0-0.009v-17.067c0-4.71,3.823-8.533,8.533-8.533  s8.533,3.823,8.533,8.533v17.067C162.134,320.453,158.311,324.268,153.6,324.268L153.6,324.268z"/>
<path d="M221.868,324.268c-4.71,0-8.533-3.814-8.533-8.525c0,0,0,0,0-0.009v-17.067c0-4.71,3.823-8.533,8.533-8.533  s8.533,3.823,8.533,8.533v17.067C230.402,320.453,226.579,324.268,221.868,324.268L221.868,324.268z"/>
<path d="M290.136,324.268c-4.71,0-8.533-3.814-8.533-8.525c0,0,0,0,0-0.009v-17.067c0-4.71,3.823-8.533,8.533-8.533  c4.71,0,8.533,3.823,8.533,8.533v17.067C298.67,320.453,294.847,324.268,290.136,324.268L290.136,324.268z"/>
<path d="M221.868,426.67c-4.71,0-8.533-3.814-8.533-8.525c0,0,0,0,0-0.009v-17.067c0-4.71,3.823-8.533,8.533-8.533  s8.533,3.823,8.533,8.533v17.067C230.402,422.855,226.579,426.67,221.868,426.67L221.868,426.67z"/>
<path d="M290.136,426.67c-4.71,0-8.533-3.814-8.533-8.525c0,0,0,0,0-0.009v-17.067c0-4.71,3.823-8.533,8.533-8.533  c4.71,0,8.533,3.823,8.533,8.533v17.067C298.67,422.855,294.847,426.67,290.136,426.67L290.136,426.67z"/>
<path d="M358.404,324.268c-4.71,0-8.533-3.814-8.533-8.525c0,0,0,0,0-0.009v-17.067c0-4.71,3.823-8.533,8.533-8.533  c4.71,0,8.533,3.823,8.533,8.533v17.067C366.937,320.453,363.114,324.268,358.404,324.268L358.404,324.268z"/>
<path d="M187.734,273.067c-4.71,0-8.533-3.814-8.533-8.525c0,0,0,0,0-0.009v-17.067c0-4.71,3.823-8.533,8.533-8.533  s8.533,3.823,8.533,8.533v17.067C196.268,269.253,192.445,273.067,187.734,273.067L187.734,273.067z"/>
<path d="M256.002,170.665c-4.71,0-8.533-3.814-8.533-8.525c0,0,0,0,0-0.009v-17.067c0-4.71,3.823-8.533,8.533-8.533  c4.71,0,8.533,3.823,8.533,8.533v17.067C264.536,166.851,260.713,170.665,256.002,170.665L256.002,170.665z"/>
<path d="M256.002,273.067c-4.71,0-8.533-3.814-8.533-8.525c0,0,0,0,0-0.009v-17.067c0-4.71,3.823-8.533,8.533-8.533  c4.71,0,8.533,3.823,8.533,8.533v17.067C264.536,269.253,260.713,273.067,256.002,273.067L256.002,273.067z"/>
<path d="M324.27,170.665c-4.71,0-8.533-3.814-8.533-8.525c0,0,0,0,0-0.009v-17.067c0-4.71,3.823-8.533,8.533-8.533  c4.71,0,8.533,3.823,8.533,8.533v17.067C332.803,166.851,328.98,170.665,324.27,170.665L324.27,170.665z"/>
<path d="M324.27,273.067c-4.71,0-8.533-3.814-8.533-8.525c0,0,0,0,0-0.009v-17.067c0-4.71,3.823-8.533,8.533-8.533  c4.71,0,8.533,3.823,8.533,8.533v17.067C332.803,269.253,328.98,273.067,324.27,273.067L324.27,273.067z"/>
<path d="M187.734,375.469c-4.71,0-8.533-3.814-8.533-8.525c0,0,0,0,0-0.009v-17.067c0-4.71,3.823-8.533,8.533-8.533  s8.533,3.823,8.533,8.533v17.067C196.268,371.654,192.445,375.469,187.734,375.469L187.734,375.469z"/>
<path d="M256.002,375.469c-4.71,0-8.533-3.814-8.533-8.525c0,0,0,0,0-0.009v-17.067c0-4.71,3.823-8.533,8.533-8.533  c4.71,0,8.533,3.823,8.533,8.533v17.067C264.536,371.654,260.713,375.469,256.002,375.469L256.002,375.469z"/>
<path d="M256.002,477.87c-4.71,0-8.533-3.814-8.533-8.525c0,0,0,0,0-0.009V452.27c0-4.71,3.823-8.533,8.533-8.533  c4.71,0,8.533,3.823,8.533,8.533v17.067C264.536,474.056,260.713,477.87,256.002,477.87L256.002,477.87z"/>
<path d="M324.27,375.469c-4.71,0-8.533-3.814-8.533-8.525c0,0,0,0,0-0.009v-17.067c0-4.71,3.823-8.533,8.533-8.533  c4.71,0,8.533,3.823,8.533,8.533v17.067C332.803,371.654,328.98,375.469,324.27,375.469L324.27,375.469z"/>
<path style="fill:#2E7D32;" d="M229.207,96.083c-7.015,1.109-13.944,2.705-20.736,4.779c-16.871-2.125-32.675-9.429-45.227-20.907  c-24.747-24.662-22.358-67.073-22.358-67.073s42.326-2.304,67.073,22.358c7.834,8.141,13.619,18.031,16.896,28.843  c-0.341,2.543-0.512,5.112-0.512,7.68C224.445,80.108,226.092,88.351,229.207,96.083z"/>
<g>
	<path style="fill:#4CAF50;" d="M224.855,64.082l-8.021,18.091l-8.363,18.688c-16.871-2.125-32.675-9.429-45.227-20.907   c-8.474-8.832-14.575-19.661-17.75-31.489c-3.362-11.554-4.915-23.552-4.608-35.585c0,0,42.326-2.304,67.073,22.358   C215.792,43.388,221.578,53.27,224.855,64.082z"/>
	<path style="fill:#4CAF50;" d="M366.511,48.466c-3.174,11.827-9.276,22.656-17.75,31.489   c-12.553,11.478-28.357,18.782-45.227,20.907c-5.12-1.536-10.24-2.816-15.446-3.84c-1.707-0.341-3.499-0.683-5.205-0.939   c3.038-7.757,4.659-15.992,4.779-24.32c0-2.569-0.171-5.137-0.512-7.68c3.277-10.812,9.063-20.702,16.896-28.843   c24.747-24.662,67.073-22.358,67.073-22.358C371.426,24.913,369.864,36.92,366.511,48.466z"/>
</g>
<g>
	<path style="fill:#2E7D32;" d="M216.833,82.173l-8.363,18.688c-16.871-2.125-32.675-9.429-45.227-20.907   c-8.474-8.832-14.575-19.661-17.75-31.489c11.691,0.256,42.667,2.731,62.465,22.443C211.346,74.305,214.325,78.086,216.833,82.173z   "/>
	<path style="fill:#2E7D32;" d="M366.511,48.466c-3.174,11.827-9.276,22.656-17.75,31.489   c-12.553,11.478-28.357,18.782-45.227,20.907c-5.12-1.536-10.24-2.816-15.446-3.84c3.337-9.771,8.789-18.68,15.958-26.112   C323.843,51.197,354.82,48.722,366.511,48.466z"/>
</g>
<path d="M208.471,109.403c-0.461,0-0.922-0.034-1.382-0.111c-18.688-2.278-36.165-10.445-49.904-23.313  c-27.111-27.026-24.926-71.681-24.824-73.576c0.247-4.344,3.721-7.8,8.056-8.03c1.903-0.102,46.431-2.202,73.559,24.832  c8.815,9.088,15.326,20.148,18.996,32.265c0.393,1.212,0.503,2.492,0.341,3.746c-0.29,2.176-0.435,4.361-0.435,6.554  c0.111,7.288,1.562,14.481,4.284,21.24c1.698,4.395-0.486,9.336-4.881,11.034c-0.572,0.222-1.161,0.375-1.758,0.469  c-6.622,1.041-13.159,2.552-19.567,4.514C210.152,109.275,209.307,109.403,208.471,109.403z M149.53,21.526  c0.708,12.595,4.173,36.873,19.738,52.396c10.803,9.771,24.269,16.111,38.691,18.202c3.388-0.981,6.784-1.852,10.18-2.62  c-1.519-5.786-2.304-11.751-2.33-17.733c0-2.27,0.119-4.531,0.35-6.784c-2.884-8.883-7.757-16.99-14.234-23.706  C186.284,25.69,162.083,22.234,149.53,21.526z"/>
<path d="M208.479,109.403c-0.461,0-0.93-0.034-1.391-0.111c-18.688-2.278-36.165-10.445-49.904-23.313  c-27.111-27.026-24.926-71.681-24.824-73.576c0.247-4.344,3.721-7.8,8.056-8.03c1.903-0.119,46.439-2.202,73.567,24.832  c8.815,9.088,15.326,20.148,18.996,32.265c1.442,4.489-1.015,9.293-5.504,10.735c-4.489,1.442-9.293-1.015-10.735-5.504  c-2.842-9.532-7.919-18.253-14.814-25.421c-15.557-15.497-39.809-19.004-52.396-19.729c0.708,12.595,4.181,36.856,19.738,52.37  c11.324,10.163,25.481,16.623,40.585,18.526c4.651,0.759,7.808,5.154,7.04,9.805C216.219,106.366,212.652,109.395,208.479,109.403z"/>
<path style="fill:#4CAF50;" d="M287.661,71.762c-0.077,6.904-1.229,13.756-3.413,20.31c-0.427,1.365-0.853,2.645-1.365,4.011h-0.085  c-17.741-2.961-35.849-2.961-53.59,0c-0.512-1.365-1.024-2.731-1.451-4.096c-2.227-6.511-3.379-13.346-3.413-20.224  c0-2.569,0.171-5.137,0.512-7.68c4.011-31.318,31.147-55.553,31.147-55.553s27.136,24.235,31.147,55.553  C287.491,66.634,287.661,69.194,287.661,71.762z"/>
<path style="fill:#2E7D32;" d="M284.248,92.072c-0.427,1.365-0.853,2.645-1.365,4.011h-0.085  c-17.101-2.85-34.544-2.953-51.679-0.307l-3.362-3.797c4.762-13.491,12.186-25.882,21.837-36.429  c3.098-3.533,8.465-3.891,12.007-0.794c0.247,0.213,0.478,0.444,0.7,0.691C272.011,66.053,279.478,78.512,284.248,92.072z"/>
<path d="M229.199,104.616c-3.524,0-6.69-2.167-7.953-5.461c-3.49-8.721-5.333-18.006-5.436-27.392c0-2.953,0.196-5.897,0.589-8.815  c4.361-34.032,32.717-59.709,33.921-60.784c3.243-2.884,8.124-2.884,11.367,0c1.203,1.075,29.56,26.752,33.929,60.835  c0.393,2.91,0.58,5.837,0.58,8.764c-0.102,9.353-1.903,18.612-5.325,27.316c-1.493,3.806-5.436,6.059-9.481,5.419  c-16.811-2.782-33.972-2.782-50.783,0C230.146,104.582,229.668,104.625,229.199,104.616z M256.002,85.33  c7.023,0,14.029,0.435,21.001,1.289c1.374-4.83,2.091-9.831,2.125-14.857c0-2.193-0.145-4.378-0.435-6.554  c-3.115-16.7-10.991-32.146-22.673-44.476c-11.665,12.322-19.55,27.751-22.699,44.425c-0.299,2.202-0.444,4.403-0.444,6.613  c0.034,5.026,0.768,10.018,2.159,14.848C241.99,85.766,248.988,85.339,256.002,85.33z"/>
<path d="M303.534,109.403c-0.845,0-1.681-0.128-2.483-0.367c-6.426-1.937-12.971-3.448-19.593-4.531  c-4.651-0.794-7.783-5.197-6.989-9.848c0.094-0.538,0.23-1.058,0.427-1.57c2.697-6.793,4.13-14.012,4.241-21.317  c0-2.193-0.145-4.378-0.435-6.554c-0.171-1.263-0.051-2.543,0.341-3.746c3.661-12.109,10.172-23.168,18.978-32.257  c27.136-27.043,71.673-24.969,73.576-24.841c4.344,0.23,7.817,3.695,8.056,8.03c0.102,1.894,2.287,46.533-24.841,73.584  c-13.739,12.868-31.207,21.035-49.895,23.305C304.455,109.369,303.994,109.403,303.534,109.403z M293.891,89.537  c3.507,0.777,6.878,1.63,10.155,2.586c14.405-2.082,27.87-8.414,38.665-18.176l0.026-0.026  c15.557-15.514,19.021-39.783,19.729-52.37c-12.578,0.725-36.831,4.224-52.404,19.729c-6.477,6.724-11.332,14.823-14.225,23.697  c0.23,2.253,0.35,4.514,0.35,6.784C296.169,77.761,295.401,83.735,293.891,89.537z"/>
<g>
</g>
<g>
</g>
<g>
</g>
<g>
</g>
<g>
</g>
<g>
</g>
<g>
</g>
<g>
</g>
<g>
</g>
<g>
</g>
<g>
</g>
<g>
</g>
<g>
</g>
<g>
</g>
<g>
</g>
</svg>
