<?xml version="1.0" encoding="iso-8859-1"?>
<!-- Generator: Adobe Illustrator 19.0.0, SVG Export Plug-In . SVG Version: 6.00 Build 0)  -->
<svg xmlns="http://www.w3.org/2000/svg" xmlns:xlink="http://www.w3.org/1999/xlink" version="1.1" id="Capa_1" x="0px" y="0px" viewBox="0 0 512 512" style="enable-background:new 0 0 512 512;" xml:space="preserve">
<path style="fill:#607D8B;" d="M503.467,230.4c0,103.68-79.36,190.805-186.539,215.04c-0.094-0.009-0.188,0.017-0.256,0.085  c-10.359,2.347-20.838,4.087-31.403,5.205l-109.141-10.325h-0.085C78.592,410.539,8.533,327.851,8.533,230.4  c0-92.501,63.147-171.861,153.003-205.141C191.787,14.14,223.77,8.474,256,8.533C392.704,8.533,503.467,107.861,503.467,230.4z"/>
<path style="fill:#CFD8DC;" d="M469.333,240.469c0,92.331-62.891,171.52-152.405,204.971c-0.094-0.009-0.188,0.017-0.256,0.085  c-10.359,2.347-20.838,4.087-31.403,5.205l-109.141-10.325h-0.085C78.592,410.539,8.533,327.851,8.533,230.4  c0-92.501,63.147-171.861,153.003-205.141c19.797-4.446,40.038-6.682,60.331-6.656C358.571,18.603,469.333,117.931,469.333,240.469z  "/>
<path d="M285.261,459.264c-4.71-0.009-8.525-3.831-8.525-8.542c0.009-4.361,3.294-8.013,7.629-8.474  C404.412,429.577,494.933,338.5,494.933,230.4c0-117.632-107.187-213.333-238.933-213.333S17.067,112.768,17.067,230.4  c0,91.068,64.802,172.134,161.263,201.779c4.548,1.237,7.219,5.931,5.982,10.479c-1.007,3.695-4.361,6.263-8.192,6.281h-0.085  c-0.845,0-1.69-0.128-2.5-0.375C69.743,416.751,0,329.079,0,230.4C0,103.356,114.842,0,256,0s256,103.356,256,230.4  c0,116.855-97.092,215.228-225.835,228.813C285.867,459.247,285.559,459.264,285.261,459.264z"/>
<path style="fill:#FFB301;" d="M315.733,174.933c0.026,37.811-26.112,70.605-62.976,79.019c-5.931,1.382-11.998,2.065-18.091,2.048  c-44.774,0-81.067-36.292-81.067-81.067s36.292-81.067,81.067-81.067S315.733,130.159,315.733,174.933z"/>
<path style="fill:#FEC108;" d="M281.6,192c0.068,23.91-10.505,46.609-28.843,61.952c-5.931,1.382-11.998,2.065-18.091,2.048  c-44.749,0.017-81.05-36.241-81.067-80.998c-0.009-23.919,10.547-46.618,28.843-62.02c5.931-1.382,11.998-2.065,18.091-2.048  c44.749-0.017,81.05,36.241,81.067,80.998C281.6,191.949,281.6,191.974,281.6,192z"/>
<path d="M234.667,264.533c-49.485,0-89.6-40.115-89.6-89.6s40.115-89.6,89.6-89.6s89.6,40.115,89.6,89.6  C324.215,224.393,284.126,264.482,234.667,264.533z M234.667,102.4c-40.055,0-72.533,32.478-72.533,72.533  s32.478,72.533,72.533,72.533s72.533-32.478,72.533-72.533C307.149,134.895,274.705,102.451,234.667,102.4z"/>
<path d="M187.733,183.467c-4.71,0-8.533-3.814-8.533-8.525v-0.009c0.034-30.618,24.849-55.433,55.467-55.467  c4.71,0,8.533,3.823,8.533,8.533c0,4.71-3.823,8.533-8.533,8.533c-21.197,0.026-38.374,17.203-38.4,38.4  c0,4.71-3.814,8.533-8.525,8.533H187.733z"/>
<g>
	<path style="fill:#C52828;" d="M188.928,437.163l-0.427,1.621c-1.655,6.673-5.931,12.399-11.861,15.872l-11.52-11.52   L188.928,437.163z"/>
	<path style="fill:#C52828;" d="M400.469,207.787l-3.584,25.173c-0.785,5.658-3.499,10.871-7.68,14.763   c-3.174,3.174-7.159,5.419-11.52,6.485l-9.643,2.389l-6.997,1.792c-9.148,2.321-16.282,9.455-18.603,18.603l-0.427,1.621   l-4.181,16.896c-2.33,9.173-9.506,16.316-18.688,18.603l-9.472,2.389l-8.96,2.219c-9.148,2.321-16.282,9.455-18.603,18.603   l-0.427,1.621l-4.181,16.896c-2.33,9.173-9.506,16.316-18.688,18.603l-9.557,2.389l-8.875,2.219   c-9.173,2.261-16.341,9.429-18.603,18.603l-0.427,1.621l-4.181,16.896c-2.33,9.173-9.506,16.316-18.688,18.603l-9.557,2.389   l-0.427,1.621c-1.655,6.673-5.931,12.399-11.861,15.872l48.811,48.811l23.808-5.973l9.557-2.389   c9.182-2.287,16.358-9.429,18.688-18.603l4.267-16.896l0.341-1.536c2.287-9.182,9.429-16.358,18.603-18.688l8.96-2.219l9.472-2.389   c9.182-2.287,16.358-9.429,18.688-18.603l4.181-16.896l0.427-1.621c2.321-9.148,9.455-16.282,18.603-18.603l8.96-2.219l9.557-2.389   c9.148-2.321,16.282-9.455,18.603-18.603l4.181-16.896l0.427-1.621c2.321-9.148,9.455-16.282,18.603-18.603l6.997-1.792   l9.728-2.389c10.086-2.509,17.638-10.88,19.115-21.163l3.584-25.259L400.469,207.787z"/>
</g>
<path style="fill:#F44335;" d="M432.213,290.731l-3.584,25.173c-0.043,0.35-0.128,0.691-0.256,1.024l-6.997,1.792  c-9.148,2.321-16.282,9.455-18.603,18.603l-0.427,1.621l-4.181,16.896c-2.321,9.148-9.455,16.282-18.603,18.603l-9.557,2.389  l-8.96,2.219c-9.148,2.321-16.282,9.455-18.603,18.603l-0.427,1.621l-4.181,16.896c-2.33,9.173-9.506,16.316-18.688,18.603  l-9.472,2.389l-8.96,2.219c-9.173,2.33-16.316,9.506-18.603,18.688l-0.341,1.536l-4.267,16.896  c-2.33,9.173-9.506,16.316-18.688,18.603l-9.557,2.389l-23.808,5.973l-48.811-48.811c5.931-3.473,10.206-9.199,11.861-15.872  l0.427-1.621l9.557-2.389c9.182-2.287,16.358-9.429,18.688-18.603l4.181-16.896l0.427-1.621c2.261-9.173,9.429-16.341,18.603-18.603  l8.875-2.219l9.557-2.389c9.182-2.287,16.358-9.429,18.688-18.603l4.181-16.896l0.427-1.621c2.321-9.148,9.455-16.282,18.603-18.603  l8.96-2.219l9.472-2.389c9.182-2.287,16.358-9.429,18.688-18.603l4.181-16.896l0.427-1.621c2.321-9.148,9.455-16.282,18.603-18.603  l6.997-1.792l9.643-2.389c4.361-1.067,8.346-3.311,11.52-6.485L432.213,290.731z"/>
<path d="M225.476,512c-2.261,0-4.429-0.905-6.033-2.5l-60.339-60.339c-3.328-3.328-3.337-8.73-0.009-12.058  c1.092-1.092,2.466-1.877,3.977-2.244l33.374-8.346c6.118-1.527,10.889-6.298,12.416-12.416l4.617-18.466  c3.038-12.237,12.587-21.794,24.823-24.841l18.475-4.617c6.118-1.527,10.897-6.306,12.425-12.425l4.617-18.458  c3.038-12.237,12.595-21.794,24.832-24.832l18.466-4.617c6.118-1.527,10.889-6.306,12.416-12.425l4.617-18.466  c3.046-12.237,12.604-21.794,24.841-24.832l16.666-4.164c6.741-1.664,11.793-7.262,12.749-14.14l3.601-25.207  c0.674-4.668,5.001-7.902,9.668-7.236c1.826,0.265,3.516,1.109,4.821,2.406l60.339,60.339c1.894,1.903,2.79,4.582,2.415,7.245  l-3.601,25.199c-1.937,13.756-12.032,24.951-25.515,28.279l-16.674,4.164c-6.118,1.527-10.889,6.298-12.416,12.416l-4.617,18.466  c-3.038,12.237-12.595,21.794-24.832,24.832l-18.466,4.617c-6.118,1.536-10.897,6.315-12.425,12.433l-4.617,18.458  c-3.038,12.237-12.595,21.794-24.832,24.832l-18.466,4.617c-6.118,1.527-10.889,6.298-12.416,12.416l-4.617,18.475  c-3.046,12.237-12.604,21.794-24.841,24.832l-33.365,8.346C226.867,511.915,226.176,512,225.476,512z M181.828,447.753  l46.268,46.268l28.681-7.168c6.118-1.527,10.897-6.306,12.425-12.425l4.617-18.466c3.038-12.237,12.595-21.794,24.832-24.832  l18.466-4.617c6.118-1.527,10.889-6.298,12.416-12.416l4.617-18.466c3.046-12.237,12.595-21.794,24.832-24.841l18.475-4.617  c6.118-1.527,10.889-6.298,12.416-12.416l4.617-18.466c3.038-12.237,12.595-21.794,24.832-24.832l16.674-4.164  c6.741-1.673,11.785-7.27,12.749-14.148l3.004-20.975l-45.261-45.261l-1.186,8.311c-1.929,13.756-12.032,24.951-25.515,28.279  l-16.666,4.164c-6.118,1.527-10.897,6.306-12.425,12.425l-4.617,18.458c-3.038,12.237-12.587,21.794-24.823,24.841l-18.475,4.617  c-6.118,1.527-10.889,6.298-12.416,12.416l-4.617,18.466c-3.046,12.237-12.604,21.794-24.841,24.832l-18.466,4.617  c-6.118,1.527-10.889,6.306-12.416,12.425l-4.617,18.466c-3.038,12.237-12.595,21.794-24.832,24.832L181.828,447.753z"/>
<path d="M195.302,481.835c-4.71-0.009-8.525-3.831-8.525-8.542c0.009-3.908,2.671-7.322,6.46-8.269l33.365-8.346  c6.118-1.527,10.889-6.306,12.416-12.425l4.617-18.466c3.038-12.245,12.595-21.794,24.841-24.832l18.466-4.617  c6.118-1.527,10.889-6.298,12.416-12.416l4.617-18.475c3.038-12.237,12.595-21.794,24.832-24.832L347.281,336  c6.118-1.527,10.889-6.298,12.416-12.416l4.617-18.475c3.038-12.237,12.595-21.794,24.832-24.832l16.674-4.164  c6.741-1.673,11.785-7.27,12.749-14.148l3.601-25.19c0.657-4.668,4.975-7.919,9.643-7.262c4.668,0.657,7.919,4.975,7.262,9.643  c0,0.017,0,0.026-0.009,0.043l-3.601,25.19c-1.937,13.747-12.032,24.943-25.506,28.279l-16.683,4.164  c-6.118,1.527-10.889,6.298-12.416,12.416l-4.617,18.475c-3.038,12.237-12.595,21.794-24.832,24.832l-18.475,4.617  c-6.118,1.527-10.889,6.298-12.416,12.416l-4.617,18.475c-3.038,12.237-12.595,21.794-24.832,24.832l-18.466,4.617  c-6.118,1.519-10.897,6.298-12.425,12.416l-4.617,18.466c-3.038,12.237-12.587,21.794-24.823,24.841l-33.374,8.346  C196.693,481.749,196.002,481.835,195.302,481.835z"/>
<g>
</g>
<g>
</g>
<g>
</g>
<g>
</g>
<g>
</g>
<g>
</g>
<g>
</g>
<g>
</g>
<g>
</g>
<g>
</g>
<g>
</g>
<g>
</g>
<g>
</g>
<g>
</g>
<g>
</g>
</svg>
