<?xml version="1.0" encoding="iso-8859-1"?>
<!-- Generator: Adobe Illustrator 19.0.0, SVG Export Plug-In . SVG Version: 6.00 Build 0)  -->
<svg xmlns="http://www.w3.org/2000/svg" xmlns:xlink="http://www.w3.org/1999/xlink" version="1.1" id="Capa_1" x="0px" y="0px" viewBox="0 0 511.998 511.998" style="enable-background:new 0 0 511.998 511.998;" xml:space="preserve">
<path style="fill:#F57C00;" d="M460.798,243.206c0.017,72.073-37.871,138.846-99.755,175.787  c-7.518,4.454-15.292,8.439-23.296,11.947c-25.771,11.298-53.615,17.109-81.749,17.067c-11.443,0.034-22.861-0.939-34.133-2.901  c-81.485-13.79-146.679-75.221-165.291-155.733c-3.61-15.121-5.419-30.618-5.376-46.165v-0.939  c0.026-17.621,2.406-35.149,7.083-52.139C74.076,131.71,114.814,83.223,169.64,57.606c27.068-12.544,56.525-19.098,86.357-19.2  C369.047,38.56,460.653,130.165,460.798,243.206z"/>
<path style="fill:#FF9801;" d="M426.664,268.806c0.043,57.028-23.748,111.479-65.621,150.187  c-7.518,4.454-15.292,8.439-23.296,11.947c-25.771,11.298-53.615,17.109-81.749,17.067c-11.443,0.034-22.861-0.939-34.133-2.901  c-81.485-13.79-146.679-75.221-165.291-155.733c-3.61-15.121-5.419-30.618-5.376-46.165v-0.939  c0.026-17.621,2.406-35.149,7.083-52.139c9.907-37.265,30.251-70.921,58.624-97.024c6.007-3.652,12.22-6.955,18.603-9.899  c15.906-7.518,32.759-12.851,50.091-15.872c11.955-2.236,24.098-3.345,36.267-3.328C334.914,64.16,426.519,155.765,426.664,268.806z  "/>
<path d="M256.006,456.54c-11.938,0.026-23.859-0.99-35.618-3.029c-85.009-14.063-153.054-78.191-172.126-162.227  c-3.755-15.753-5.623-31.889-5.589-48.077v-0.939c0.026-18.389,2.517-36.693,7.398-54.426  C66.25,126.871,108.781,76.286,166.065,49.867c28.186-13.073,58.871-19.9,89.941-19.994  c117.803-0.017,213.316,95.471,213.333,213.282c0.009,84.907-50.33,161.732-128.179,195.61  C314.314,450.549,285.31,456.608,256.006,456.54z M256.006,46.94c-28.57,0.094-56.789,6.366-82.705,18.381  C120.565,89.632,81.423,136.19,66.541,192.322c-4.48,16.282-6.767,33.092-6.801,49.98v0.896c-0.034,14.874,1.69,29.696,5.137,44.169  c17.536,77.346,80.162,136.371,158.404,149.316c10.803,1.877,21.76,2.807,32.725,2.782c26.965,0.06,53.641-5.513,78.327-16.35  c99.354-43.375,144.734-159.07,101.367-258.423C404.495,93.242,333.967,47.025,256.006,46.94z"/>
<path style="fill:#F44335;" d="M219.74,41.734c-17.331,3.021-34.185,8.354-50.091,15.872c-6.682-1.408-13.483-2.125-20.309-2.133  c-54.17,0.068-98.065,43.964-98.133,98.133c-0.034,12.518,2.372,24.926,7.083,36.523c-4.676,16.99-7.057,34.517-7.083,52.139  C2.233,188.081,6.457,104.446,60.653,55.473C84.964,33.5,116.572,21.34,149.34,21.34C174.265,21.288,198.696,28.363,219.74,41.734z"/>
<path d="M51.206,250.801c-2.415,0-4.71-1.015-6.323-2.807C-7.281,190.385-2.87,101.391,54.739,49.218  C101.561,6.824,170.895,0.817,224.313,34.532c3.977,2.526,5.154,7.799,2.62,11.785c-1.289,2.022-3.371,3.413-5.734,3.831  c-16.58,2.893-32.691,7.996-47.906,15.181c-1.681,0.785-3.575,1.007-5.393,0.64C119.362,55.823,71.78,86.944,61.634,135.49  c-1.246,5.965-1.886,12.032-1.903,18.125c-0.043,11.409,2.15,22.724,6.451,33.289c0.717,1.758,0.828,3.695,0.316,5.521  c-4.463,16.256-6.741,33.033-6.767,49.886C59.705,247.004,55.9,250.792,51.206,250.801z M149.34,29.873  C80.988,29.882,25.589,85.297,25.606,153.64c0,22.963,6.4,45.483,18.466,65.015c1.084-9.455,2.833-18.825,5.239-28.032  c-4.429-11.836-6.682-24.38-6.639-37.018C42.639,94.726,90.349,46.974,149.22,46.94c6.485,0,12.962,0.589,19.337,1.758  c8.661-3.942,17.587-7.279,26.709-9.975C180.665,32.868,165.075,29.856,149.34,29.873z"/>
<path style="fill:#C52828;" d="M169.649,57.606c-54.938,25.472-95.727,74.018-111.36,132.523  c-4.71-11.597-7.117-24.004-7.083-36.523c0.068-54.17,43.964-98.065,98.133-98.133C156.158,55.49,162.967,56.198,169.649,57.606z"/>
<path d="M58.289,198.671c-3.465,0-6.588-2.091-7.902-5.299c-5.137-12.621-7.757-26.129-7.714-39.757  C42.664,94.718,90.4,46.957,149.305,46.948c7.424,0,14.822,0.777,22.084,2.313c4.617,0.964,7.569,5.487,6.605,10.103  c-0.555,2.637-2.321,4.864-4.77,5.999c-52.702,24.32-91.819,70.869-106.692,126.976c-0.947,3.541-4.045,6.084-7.697,6.323  C58.647,198.662,58.46,198.671,58.289,198.671z M139.466,64.552c-45.363,5.086-79.676,43.409-79.735,89.062  c0,1.894,0.06,3.772,0.179,5.632C76.405,120.454,104.104,87.482,139.466,64.552L139.466,64.552z"/>
<path d="M162.14,123.74c-4.71,0-8.533-3.823-8.533-8.533c0-2.261,0.896-4.429,2.5-6.033l8.533-8.533  c3.362-3.302,8.764-3.251,12.066,0.111c3.26,3.319,3.26,8.636,0,11.955l-8.533,8.533C166.568,122.844,164.401,123.748,162.14,123.74  z"/>
<path d="M136.54,174.94c-2.261,0-4.437-0.896-6.033-2.5l-8.533-8.533c-3.302-3.362-3.251-8.764,0.111-12.066  c3.319-3.26,8.636-3.26,11.955,0l8.533,8.533c3.328,3.337,3.328,8.738,0,12.066C140.968,174.044,138.801,174.94,136.54,174.94z"/>
<path d="M238.94,106.673c-2.261,0-4.437-0.896-6.033-2.5l-8.533-8.533c-3.302-3.362-3.251-8.764,0.111-12.066  c3.319-3.26,8.636-3.26,11.955,0l8.533,8.533c3.328,3.337,3.328,8.738,0,12.066C243.368,105.777,241.201,106.673,238.94,106.673z"/>
<path d="M281.598,140.806c-4.71,0-8.533-3.823-8.533-8.533c0-2.261,0.896-4.429,2.5-6.033l8.533-8.533  c3.362-3.302,8.764-3.251,12.066,0.111c3.26,3.319,3.26,8.636,0,11.955l-8.533,8.533  C286.035,139.91,283.867,140.815,281.598,140.806z"/>
<path d="M213.34,192.006c-4.71,0-8.533-3.823-8.533-8.533c0-2.261,0.896-4.429,2.5-6.033l8.533-8.533  c3.362-3.302,8.764-3.251,12.066,0.111c3.26,3.319,3.26,8.636,0,11.955l-8.533,8.533C217.768,191.11,215.601,192.015,213.34,192.006  z"/>
<path d="M324.264,192.006c-2.261,0-4.437-0.896-6.033-2.5l-8.533-8.533c-3.302-3.362-3.251-8.764,0.111-12.066  c3.319-3.26,8.636-3.26,11.955,0l8.533,8.533c3.328,3.337,3.328,8.738,0,12.066C328.702,191.11,326.534,192.006,324.264,192.006z"/>
<path d="M409.598,260.273c-2.261,0-4.437-0.896-6.033-2.5l-8.533-8.533c-3.302-3.362-3.251-8.764,0.111-12.066  c3.319-3.26,8.636-3.26,11.955,0l8.533,8.533c3.328,3.337,3.328,8.738,0,12.066C414.035,259.377,411.868,260.273,409.598,260.273z"/>
<path d="M392.531,192.006c-2.261,0-4.437-0.896-6.033-2.5l-8.533-8.533c-3.302-3.362-3.251-8.764,0.111-12.066  c3.319-3.26,8.636-3.26,11.955,0l8.533,8.533c3.328,3.337,3.328,8.738,0,12.066C396.968,191.11,394.801,192.006,392.531,192.006z"/>
<path d="M341.331,123.74c-2.261,0-4.437-0.896-6.033-2.5l-8.533-8.533c-3.302-3.362-3.251-8.764,0.111-12.066  c3.319-3.26,8.636-3.26,11.955,0l8.533,8.533c3.328,3.337,3.328,8.738,0,12.066C345.768,122.844,343.601,123.74,341.331,123.74z"/>
<path d="M187.74,260.273c-2.261,0-4.437-0.896-6.033-2.5l-8.533-8.533c-3.302-3.362-3.251-8.764,0.111-12.066  c3.319-3.26,8.636-3.26,11.955,0l8.533,8.533c3.328,3.337,3.328,8.738,0,12.066C192.168,259.377,190.001,260.273,187.74,260.273z"/>
<path d="M110.94,243.206c-4.71,0-8.533-3.823-8.533-8.533c0-2.261,0.896-4.429,2.5-6.033l8.533-8.533  c3.362-3.302,8.764-3.251,12.066,0.111c3.26,3.319,3.26,8.636,0,11.955l-8.533,8.533C115.368,242.31,113.201,243.215,110.94,243.206  z"/>
<path d="M119.473,328.54c-2.261,0-4.437-0.896-6.033-2.5l-8.533-8.533c-3.302-3.362-3.251-8.764,0.111-12.066  c3.319-3.26,8.636-3.26,11.955,0l8.533,8.533c3.328,3.337,3.328,8.738,0,12.066C123.902,327.644,121.734,328.54,119.473,328.54z"/>
<path d="M264.54,243.206c-4.71,0-8.533-3.823-8.533-8.533c0-2.261,0.896-4.429,2.5-6.033l8.533-8.533  c3.362-3.302,8.764-3.251,12.066,0.111c3.26,3.319,3.26,8.636,0,11.955l-8.533,8.533C268.968,242.31,266.801,243.215,264.54,243.206  z"/>
<path d="M341.331,277.34c-2.261,0-4.437-0.896-6.033-2.5l-8.533-8.533c-3.302-3.362-3.251-8.764,0.111-12.066  c3.319-3.26,8.636-3.26,11.955,0l8.533,8.533c3.328,3.337,3.328,8.738,0,12.066C345.768,276.444,343.601,277.34,341.331,277.34z"/>
<path d="M392.531,328.54c-2.261,0-4.437-0.896-6.033-2.5l-8.533-8.533c-3.302-3.362-3.251-8.764,0.111-12.066  c3.319-3.26,8.636-3.26,11.955,0l8.533,8.533c3.328,3.337,3.328,8.738,0,12.066C396.968,327.644,394.801,328.54,392.531,328.54z"/>
<path d="M204.806,345.606c-2.261,0-4.437-0.896-6.033-2.5l-8.533-8.533c-3.302-3.362-3.251-8.764,0.111-12.066  c3.319-3.26,8.636-3.26,11.955,0l8.533,8.533c3.328,3.337,3.328,8.738,0,12.066C209.235,344.71,207.068,345.606,204.806,345.606z"/>
<path d="M170.673,379.74c-2.261,0-4.437-0.896-6.033-2.5l-8.533-8.533c-3.302-3.362-3.251-8.764,0.111-12.066  c3.319-3.26,8.636-3.26,11.955,0l8.533,8.533c3.328,3.337,3.328,8.738,0,12.066C175.102,378.844,172.934,379.74,170.673,379.74z"/>
<path d="M264.54,328.54c-4.71,0-8.533-3.823-8.533-8.533c0-2.261,0.896-4.429,2.5-6.033l8.533-8.533  c3.362-3.302,8.764-3.251,12.066,0.111c3.26,3.319,3.26,8.636,0,11.955l-8.533,8.533C268.968,327.644,266.801,328.548,264.54,328.54  z"/>
<path d="M264.54,413.873c-4.71,0-8.533-3.823-8.533-8.533c0-2.261,0.896-4.429,2.5-6.033l8.533-8.533  c3.362-3.302,8.764-3.251,12.066,0.111c3.26,3.319,3.26,8.636,0,11.955l-8.533,8.533  C268.968,412.977,266.801,413.882,264.54,413.873z"/>
<path d="M341.331,362.673c-2.261,0-4.437-0.896-6.033-2.5l-8.533-8.533c-3.302-3.362-3.251-8.764,0.111-12.066  c3.319-3.26,8.636-3.26,11.955,0l8.533,8.533c3.328,3.337,3.328,8.738,0,12.066C345.768,361.777,343.601,362.673,341.331,362.673z"/>
<g>
	<path style="fill:#558B30;" d="M221.873,445.105v13.397c0,0.862-0.085,1.715-0.256,2.56c-32.657-9.975-62.293-27.989-86.187-52.395   C161.013,427.381,190.607,439.857,221.873,445.105z"/>
	<path style="fill:#558B30;" d="M135.43,408.668c-29.039-21.197-51.994-49.647-66.56-82.517   c-5.316-11.819-9.429-24.141-12.288-36.779l-39.765,43.776c-3.78,4.352-5.154,10.3-3.669,15.872l5.205,19.627   c1.033,3.703,0.759,7.654-0.768,11.179l-7.68,17.749c-3.695,9.344,0.879,19.917,10.223,23.612c1.084,0.427,2.202,0.751,3.345,0.964   c4.258,0.93,8.081,3.277,10.837,6.656c2.065,2.526,3.388,5.564,3.84,8.789c0.102,0.734,0.162,1.476,0.171,2.219v10.155   c0.401,10.453,9.173,18.62,19.627,18.261h18.091c5.146-0.017,10.112,1.903,13.909,5.376l12.629,11.691   c1.382,1.331,2.961,2.423,4.693,3.243l1.792,0.768c4.719,1.818,9.941,1.852,14.677,0.085l27.989-10.411   c3.849-1.442,8.03-1.715,12.032-0.768l22.101,5.12c5.359,1.28,10.999,0.393,15.701-2.475l11.605-7.168   c4.523-2.782,7.603-7.39,8.448-12.629C188.951,451.087,159.315,433.073,135.43,408.668z"/>
</g>
<g>
	<path style="fill:#8BC34A;" d="M221.617,461.062c-0.845,5.239-3.925,9.847-8.448,12.629l-11.605,7.168   c-4.702,2.867-10.342,3.755-15.701,2.475l-22.101-5.12c-3.994-0.947-8.183-0.674-12.032,0.768l-27.989,10.411   c-4.736,1.766-9.958,1.732-14.677-0.085l-1.792-0.768c-1.732-0.819-3.311-1.911-4.693-3.243l-12.629-11.691   c-3.797-3.473-8.764-5.393-13.909-5.376H57.948c-10.453,0.358-19.226-7.808-19.627-18.261v-10.155   c-0.009-0.742-0.068-1.485-0.171-2.219c-0.452-3.226-1.775-6.263-3.84-8.789c-0.444-3.098-0.034-6.255,1.195-9.131l7.68-17.749   c1.527-3.524,1.801-7.475,0.768-11.179l-5.205-19.627c-1.485-5.572-0.111-11.52,3.669-15.872L68.87,326.15   c14.566,32.87,37.521,61.321,66.56,82.517C159.315,433.073,188.951,451.087,221.617,461.062z"/>
	<path style="fill:#8BC34A;" d="M38.15,437.596c-2.065-2.526-3.388-5.564-3.84-8.789C36.367,431.332,37.698,434.37,38.15,437.596z"/>
</g>
<path d="M116.495,499.189c-7.322,0.043-14.387-2.697-19.763-7.663L84.145,479.87c-2.219-2.014-5.111-3.115-8.107-3.098H57.948  c-15.164,0.35-27.759-11.631-28.16-26.795v-10.155c-0.205-4.651-3.618-8.533-8.201-9.344c-8.073-1.801-14.942-7.074-18.765-14.404  c-3.465-6.801-3.755-14.78-0.785-21.811l7.714-17.826c0.759-1.749,0.887-3.712,0.367-5.547l-5.222-19.669  c-2.193-8.303-0.145-17.161,5.47-23.654l39.902-43.921c3.166-3.49,8.567-3.746,12.058-0.58c1.289,1.169,2.193,2.714,2.577,4.412  c17.553,77.312,80.162,136.294,158.387,149.222c4.113,0.691,7.125,4.25,7.125,8.414v13.397c-0.085,9.148-4.873,17.604-12.663,22.391  l-11.691,7.219c-6.63,4.036-14.575,5.308-22.135,3.524l-22.084-5.111c-2.355-0.563-4.821-0.418-7.083,0.435l-28.032,10.428  C123.441,498.583,119.976,499.198,116.495,499.189z M52.392,306.677l-29.269,32.213c-1.86,2.21-2.509,5.197-1.724,7.979  l5.197,19.593c1.519,5.572,1.092,11.494-1.203,16.794l-7.663,17.715c-1.007,2.372-0.896,5.077,0.299,7.356  c1.527,2.842,4.224,4.855,7.381,5.513c12.356,2.551,21.274,13.355,21.436,25.975v10.155c0.41,5.734,5.35,10.069,11.093,9.728H76.03  c7.305,0,14.345,2.731,19.729,7.663l12.612,11.674c3.396,3.012,8.175,3.908,12.433,2.33l27.947-10.394  c5.419-2.039,11.315-2.406,16.947-1.075l22.084,5.111c3.149,0.777,6.485,0.273,9.267-1.399l11.631-7.185  c2.782-1.69,4.531-4.668,4.651-7.927v-6.298C137.034,436.93,75.253,381.054,52.392,306.677z"/>
<path style="fill:#FFEB3A;" d="M503.464,89.606V405.34c-0.009,14.131-11.469,25.591-25.6,25.6H337.747  c103.663-45.082,151.151-165.658,106.069-269.312c-17.647-40.585-47.983-74.359-86.443-96.256l0.768-1.365h119.723  C492.004,64.023,503.456,75.475,503.464,89.606z"/>
<path style="fill:#FDD834;" d="M477.864,89.606V405.34c-0.009,14.131-11.469,25.591-25.6,25.6H337.747  c103.663-45.082,151.151-165.658,106.069-269.312c-17.647-40.585-47.983-74.359-86.443-96.256l0.768-1.365h94.123  C466.404,64.023,477.856,75.475,477.864,89.606z"/>
<path d="M477.864,439.473H337.747c-4.71,0-8.533-3.814-8.533-8.525c0-3.405,2.014-6.477,5.137-7.834  c99.337-43.204,144.845-158.754,101.641-258.091c-16.913-38.895-45.978-71.253-82.833-92.237c-4.079-2.321-5.521-7.501-3.226-11.588  l0.768-1.365c1.51-2.688,4.352-4.361,7.441-4.361h119.723c18.842,0.017,34.116,15.292,34.133,34.133V405.34  C511.981,424.19,496.714,439.456,477.864,439.473z M371.735,422.406h106.129c9.421-0.009,17.058-7.646,17.067-17.067V89.606  c-0.009-9.421-7.646-17.058-17.067-17.067h-94.012c94.285,70.545,113.536,204.169,42.991,298.453  C411.671,391.268,393.009,408.676,371.735,422.406z"/>
<g>
</g>
<g>
</g>
<g>
</g>
<g>
</g>
<g>
</g>
<g>
</g>
<g>
</g>
<g>
</g>
<g>
</g>
<g>
</g>
<g>
</g>
<g>
</g>
<g>
</g>
<g>
</g>
<g>
</g>
</svg>
