<?xml version="1.0" encoding="iso-8859-1"?>
<!-- Generator: Adobe Illustrator 19.0.0, SVG Export Plug-In . SVG Version: 6.00 Build 0)  -->
<svg xmlns="http://www.w3.org/2000/svg" xmlns:xlink="http://www.w3.org/1999/xlink" version="1.1" id="Capa_1" x="0px" y="0px" viewBox="0 0 512 512" style="enable-background:new 0 0 512 512;" xml:space="preserve">
<path style="fill:#795548;" d="M299.776,8.534H110.934C54.392,8.516,8.551,54.34,8.534,110.874c0,0.026,0,0.043,0,0.06V128  c-0.026,4.531,1.792,8.875,5.035,12.032c3.166,3.243,7.501,5.06,12.032,5.035c4.71,0.017,8.516,3.823,8.533,8.533v315.733  c-0.009,18.85,15.266,34.125,34.116,34.133c0.009,0,0.009,0,0.017,0h273.067c18.85,0.009,34.125-15.266,34.133-34.116  c0-0.009,0-0.009,0-0.017V153.6c0.017-4.71,3.823-8.516,8.533-8.533c9.412-0.026,17.041-7.654,17.067-17.067v-17.067  C401.093,54.801,355.909,9.122,299.776,8.534z M363.691,116.054c-13.773,7.467-22.357,21.879-22.357,37.547v315.733H68.267V153.6  c0-15.667-8.585-30.08-22.357-37.547c-1.963-0.956-3.217-2.935-3.243-5.12c-0.051-37.649,30.43-68.215,68.087-68.267  c0.06,0,0.119,0,0.179,0h187.733c37.692-0.009,68.258,30.541,68.267,68.233c0,0.009,0,0.026,0,0.034  C366.908,113.118,365.654,115.098,363.691,116.054z"/>
<path d="M341.351,512c-0.009,0-0.017,0-0.017,0H68.267C44.732,511.992,25.6,492.851,25.6,469.334V153.6c-0.043,0-0.094,0-0.137,0  c-6.716,0-13.286-2.765-18.005-7.612C2.74,141.389-0.034,134.759,0,127.958v-17.024c0.009-29.687,11.554-57.532,32.503-78.473  C53.453,11.529,81.289,0,110.9,0c0.017,0,0.026,0,0.034,0h188.843c0.034,0,0.06,0,0.094,0  c60.535,0.631,109.756,50.398,109.73,110.933V128c-0.034,14.08-11.511,25.557-25.574,25.6L384,469.334  c-0.009,11.409-4.446,22.127-12.501,30.174C363.452,507.563,352.743,512,341.351,512z M25.558,136.534  c9.438,0.026,17.084,7.671,17.109,17.05v315.75c0,14.106,11.477,25.591,25.591,25.6h273.075h0.009  c14.106,0,25.583-11.477,25.591-25.583V153.6c0.034-9.404,7.671-17.041,17.041-17.067c4.71-0.009,8.55-3.857,8.559-8.55v-17.05  c0.026-51.209-41.6-93.303-92.8-93.867h-188.8c-0.009,0-0.017,0-0.026,0c-25.054,0-48.614,9.754-66.338,27.469  s-27.494,41.276-27.503,66.347V128c-0.009,2.244,0.887,4.386,2.458,5.922C21.214,135.655,23.117,136.414,25.558,136.534z   M341.334,477.867H68.267c-4.71,0-8.533-3.814-8.533-8.533V153.6c0-12.553-6.861-24.064-17.894-30.046  c-4.557-2.21-7.646-7.074-7.706-12.527c-0.026-20.574,7.927-39.842,22.4-54.349s33.715-22.519,54.204-22.545h187.93  c0.009,0,0.009,0,0.017,0c20.497,0,39.774,7.979,54.281,22.477c14.498,14.498,22.494,33.775,22.502,54.289  c-0.06,5.513-3.055,10.308-7.834,12.732c-10.957,5.999-17.758,17.468-17.766,29.978v315.733  C349.867,474.053,346.053,477.867,341.334,477.867z M76.8,460.8h256V153.6c0.009-18.347,9.779-35.209,25.583-44.348  c-0.41-15.292-6.579-29.67-17.485-40.567C329.617,57.412,314.624,51.2,298.684,51.2c-0.009,0-0.009,0-0.017,0H110.934  c-16.102,0.017-31.07,6.246-42.317,17.527C57.762,79.616,51.618,93.961,51.226,109.27C67.158,118.614,76.8,135.373,76.8,153.6V460.8  z"/>
<path style="fill:#AD1457;" d="M366.934,110.934c-0.026,2.185-1.28,4.164-3.243,5.12c-13.773,7.467-22.357,21.879-22.357,37.547  v315.733H68.267V153.6c0-15.667-8.585-30.08-22.357-37.547c-1.963-0.956-3.217-2.935-3.243-5.12  c-0.051-37.649,30.43-68.215,68.087-68.267c0.06,0,0.119,0,0.179,0h187.733c37.692-0.009,68.258,30.541,68.267,68.233  C366.934,110.908,366.934,110.925,366.934,110.934z"/>
<path style="fill:#E91E63;" d="M332.8,110.934c-0.026,2.185-1.28,4.164-3.243,5.12C315.785,123.52,307.2,137.933,307.2,153.6  v315.733H68.267V153.6c0-15.667-8.585-30.08-22.357-37.547c-1.963-0.956-3.217-2.935-3.243-5.12  c-0.051-37.649,30.43-68.215,68.087-68.267c0.06,0,0.119,0,0.179,0h153.6c37.692-0.009,68.258,30.541,68.267,68.233  C332.8,110.908,332.8,110.925,332.8,110.934z"/>
<path d="M341.334,477.867H68.267c-4.71,0-8.533-3.814-8.533-8.525v-0.009V153.6c-0.017-12.544-6.886-24.073-17.911-30.054  c-4.71-2.449-7.671-7.305-7.689-12.612c-0.051-42.359,34.253-76.749,76.612-76.8c0.06,0,0.128,0,0.188,0h187.733  c42.394,0.043,76.757,34.406,76.8,76.8c-0.034,5.367-3.055,10.266-7.842,12.689c-10.948,5.999-17.758,17.493-17.758,29.978v315.733  c0,4.71-3.814,8.533-8.525,8.533H341.334z M76.8,460.8h256V153.6c0.009-18.287,9.754-35.183,25.574-44.348  c-0.947-32.307-27.392-58.018-59.708-58.052H110.934c-32.358-0.051-58.854,25.711-59.708,58.061  c15.812,9.173,25.549,26.061,25.574,44.339V460.8z M359.612,108.561l-0.051,0.026L359.612,108.561z M49.844,108.476l0.068,0.043  L49.844,108.476z"/>
<g>
	<path style="fill:#4E342E;" d="M503.467,110.934V128c-0.026,9.412-7.654,17.041-17.067,17.067H384   c9.412-0.026,17.041-7.654,17.067-17.067v-17.067c0.026-56.132-45.158-101.811-101.291-102.4h101.291   c56.542-0.017,102.383,45.807,102.4,102.34C503.467,110.899,503.467,110.916,503.467,110.934z"/>
	<path style="fill:#4E342E;" d="M485.974,145.067c-4.531,0.256-8.081,3.994-8.107,8.533v315.733   c0.009,18.85-15.266,34.125-34.116,34.133c-0.009,0-0.009,0-0.017,0h-102.4c18.85,0.009,34.125-15.266,34.133-34.116   c0-0.009,0-0.009,0-0.017V153.6c0.026-4.634,3.729-8.414,8.363-8.533H485.974z"/>
</g>
<g>
	<path style="fill:#795548;" d="M468.224,110.934V128c-0.026,9.412-7.654,17.041-17.067,17.067H384   c9.412-0.026,17.041-7.654,17.067-17.067v-17.067c0.026-56.132-45.158-101.811-101.291-102.4h66.048   c56.542-0.017,102.383,45.807,102.4,102.34C468.224,110.899,468.224,110.916,468.224,110.934z"/>
	<path style="fill:#795548;" d="M450.731,145.067c-4.531,0.256-8.081,3.994-8.107,8.533v315.733   c0.009,18.85-15.266,34.125-34.116,34.133c-0.009,0-0.009,0-0.017,0h-67.157c18.85,0.009,34.125-15.266,34.133-34.116   c0-0.009,0-0.009,0-0.017V153.6c0.026-4.634,3.729-8.414,8.363-8.533H450.731z"/>
</g>
<path d="M486.4,153.6H384c-4.71,0-8.533-3.823-8.533-8.533s3.823-8.533,8.533-8.533s8.533-3.823,8.533-8.533v-17.067  c-0.162-51.379-41.481-93.141-92.851-93.867c-4.71-0.026-8.516-3.866-8.491-8.576c0.034-4.719,3.874-8.516,8.585-8.491h101.291  C462.302,0.068,511.932,49.698,512,110.934V128C511.983,142.131,500.532,153.583,486.4,153.6z M408.141,136.534H486.4  c4.71,0,8.533-3.823,8.533-8.533v-17.067c-0.06-51.814-42.052-93.807-93.867-93.867H357.59  c32.29,20.292,51.925,55.731,52.011,93.867V128C409.6,130.91,409.114,133.794,408.141,136.534z"/>
<path d="M443.734,512h-102.4c-4.71,0-8.533-3.823-8.533-8.533s3.823-8.533,8.533-8.533c14.131-0.017,25.583-11.469,25.6-25.6V153.6  c0.009-9.421,7.646-17.058,17.067-17.067h101.973c4.71,0,8.533,3.823,8.533,8.533c0,4.523-3.533,8.26-8.047,8.516  c-0.026,0.009-0.051,0.026-0.068,0.051l0.009,315.699C486.375,492.886,467.286,511.975,443.734,512z M375.45,494.934h68.284  c14.131-0.017,25.583-11.469,25.6-25.6V153.6H384v315.733C384.009,478.567,381.014,487.561,375.45,494.934z"/>
<path style="fill:#CFD8DC;" d="M290.134,273.067c0.836,33.442-13.841,65.382-39.765,86.528  c-13.013,10.189-29.039,15.778-45.568,15.872c-47.104,0-85.333-45.824-85.333-102.4c-0.299-25.02,7.68-49.442,22.699-69.461  c14.558-20.19,37.743-32.384,62.635-32.939C251.904,170.667,290.134,216.491,290.134,273.067z"/>
<path style="fill:#F5F5F5;" d="M273.067,290.134c0.299,25.02-7.68,49.442-22.699,69.461c-13.013,10.189-29.039,15.778-45.568,15.872  c-47.104,0-85.333-45.824-85.333-102.4c-0.299-25.02,7.68-49.442,22.699-69.461c13.013-10.189,29.039-15.77,45.568-15.872  C234.838,187.734,273.067,233.558,273.067,290.134z"/>
<path d="M204.8,384c-51.755,0-93.867-49.766-93.867-110.933s42.112-110.933,93.867-110.933s93.867,49.766,93.867,110.933  S256.564,384,204.8,384z M204.8,179.2c-42.351,0-76.8,42.112-76.8,93.867s34.449,93.867,76.8,93.867s76.8-42.112,76.8-93.867  S247.151,179.2,204.8,179.2z"/>
<path style="fill:#FFB301;" d="M256,273.067c-0.282,22.75-15.377,42.65-37.205,49.067c-4.523,1.451-9.242,2.167-13.995,2.133  c-28.117-0.384-50.816-23.083-51.2-51.2c0.043-11.691,4.139-23.006,11.605-32c9.651-12.015,24.183-19.063,39.595-19.2  C232.918,222.251,255.616,244.95,256,273.067z"/>
<path style="fill:#FEC108;" d="M230.4,290.134c-0.043,11.691-4.139,23.006-11.605,32c-4.523,1.451-9.242,2.167-13.995,2.133  c-28.117-0.384-50.816-23.083-51.2-51.2c0.043-11.691,4.139-23.006,11.605-32c4.523-1.442,9.25-2.159,13.995-2.133  C207.318,239.318,230.016,262.016,230.4,290.134z"/>
<path d="M204.8,332.8c-32.99,0-59.733-26.743-59.733-59.733s26.743-59.733,59.733-59.733s59.733,26.743,59.733,59.733  C264.098,305.878,237.611,332.365,204.8,332.8z M204.8,230.4c-23.561,0-42.667,19.106-42.667,42.667s19.106,42.667,42.667,42.667  s42.667-19.106,42.667-42.667C247.16,249.634,228.233,230.707,204.8,230.4z"/>
<path d="M110.934,153.6c-4.71,0-8.533-3.814-8.533-8.525v-0.009V128c0-4.71,3.823-8.533,8.533-8.533c4.71,0,8.533,3.823,8.533,8.533  v17.067c0,4.71-3.814,8.533-8.525,8.533H110.934z"/>
<path d="M110.934,375.467c-4.71,0-8.533-3.814-8.533-8.525v-0.009v-17.067c0-4.71,3.823-8.533,8.533-8.533  c4.71,0,8.533,3.823,8.533,8.533v17.067c0,4.71-3.814,8.533-8.525,8.533H110.934z"/>
<path d="M307.2,375.467c-4.71,0-8.533-3.814-8.533-8.525v-0.009v-17.067c0-4.71,3.823-8.533,8.533-8.533s8.533,3.823,8.533,8.533  v17.067c0,4.71-3.814,8.533-8.525,8.533H307.2z"/>
<path d="M145.067,102.4c-4.71,0-8.533-3.814-8.533-8.525v-0.009V76.8c0-4.71,3.823-8.533,8.533-8.533S153.6,72.09,153.6,76.8v17.067  c0,4.71-3.814,8.533-8.525,8.533H145.067z"/>
<path d="M196.267,136.534c-4.71,0-8.533-3.814-8.533-8.525V128v-17.067c0-4.71,3.823-8.533,8.533-8.533  c4.71,0,8.533,3.823,8.533,8.533V128c0,4.71-3.814,8.533-8.525,8.533H196.267z"/>
<path d="M230.4,102.4c-4.71,0-8.533-3.814-8.533-8.525v-0.009V76.8c0-4.71,3.823-8.533,8.533-8.533c4.71,0,8.533,3.823,8.533,8.533  v17.067c0,4.71-3.814,8.533-8.525,8.533H230.4z"/>
<path d="M264.534,136.534c-4.71,0-8.533-3.814-8.533-8.525V128v-17.067c0-4.71,3.823-8.533,8.533-8.533s8.533,3.823,8.533,8.533V128  c0,4.71-3.814,8.533-8.525,8.533H264.534z"/>
<path d="M298.667,153.6c-4.71,0-8.533-3.814-8.533-8.525v-0.009V128c0-4.71,3.823-8.533,8.533-8.533S307.2,123.29,307.2,128v17.067  c0,4.71-3.814,8.533-8.525,8.533H298.667z"/>
<path d="M110.934,452.267c-4.71,0-8.533-3.814-8.533-8.525v-0.009v-17.067c0-4.71,3.823-8.533,8.533-8.533  c4.71,0,8.533,3.823,8.533,8.533v17.067c0,4.71-3.814,8.533-8.525,8.533H110.934z"/>
<path d="M196.267,435.2c-4.71,0-8.533-3.814-8.533-8.525v-0.009V409.6c0-4.71,3.823-8.533,8.533-8.533  c4.71,0,8.533,3.823,8.533,8.533v17.067c0,4.71-3.814,8.533-8.525,8.533H196.267z"/>
<path d="M264.534,435.2c-4.71,0-8.533-3.814-8.533-8.525v-0.009V409.6c0-4.71,3.823-8.533,8.533-8.533s8.533,3.823,8.533,8.533  v17.067c0,4.71-3.814,8.533-8.525,8.533H264.534z"/>
<path d="M298.667,452.267c-4.71,0-8.533-3.814-8.533-8.525v-0.009v-17.067c0-4.71,3.823-8.533,8.533-8.533s8.533,3.823,8.533,8.533  v17.067c0,4.71-3.814,8.533-8.525,8.533H298.667z"/>
<g>
</g>
<g>
</g>
<g>
</g>
<g>
</g>
<g>
</g>
<g>
</g>
<g>
</g>
<g>
</g>
<g>
</g>
<g>
</g>
<g>
</g>
<g>
</g>
<g>
</g>
<g>
</g>
<g>
</g>
</svg>
