<?xml version="1.0" encoding="iso-8859-1"?>
<!-- Generator: Adobe Illustrator 19.0.0, SVG Export Plug-In . SVG Version: 6.00 Build 0)  -->
<svg xmlns="http://www.w3.org/2000/svg" xmlns:xlink="http://www.w3.org/1999/xlink" version="1.1" id="Capa_1" x="0px" y="0px" viewBox="0 0 512 512" style="enable-background:new 0 0 512 512;" xml:space="preserve">
<path style="fill:#00838F;" d="M332.629,88.747c-0.324,8.67-2.142,17.212-5.376,25.259c-2.5,6.323-5.854,12.262-9.984,17.664  l-0.085,0.085l-9.472,3.499c-6.144,2.295-12.646,3.482-19.2,3.499h-0.939c-10.402-0.171-20.54-3.337-29.184-9.131  c-17.143-11.435-39.287-12.194-57.173-1.963l-6.571,3.755c-9.361-12.305-14.703-27.213-15.275-42.667  c-11.733,3.797-23.125,8.593-34.048,14.336c-51.712,27.051-85.589,72.619-85.589,124.245c0.026,12.646,2.074,25.207,6.059,37.205  h12.459l12.117,12.117c6.63,6.647,17.391,6.656,24.038,0.026c0.009-0.009,0.017-0.017,0.026-0.026l1.536-1.536  c6.63-6.647,17.391-6.656,24.038-0.026c0.009,0.009,0.017,0.017,0.026,0.026l1.536,1.536c6.63,6.647,17.391,6.656,24.038,0.026  c0.009-0.009,0.017-0.017,0.026-0.026l1.536-1.536c6.63-6.647,17.391-6.656,24.038-0.026c0.009,0.009,0.017,0.017,0.026,0.026  l1.536,1.536c6.63,6.647,17.391,6.656,24.038,0.026c0.009-0.009,0.017-0.017,0.026-0.026l1.536-1.536  c6.63-6.647,17.391-6.656,24.038-0.026c0.009,0.009,0.017,0.017,0.026,0.026l1.536,1.536c6.63,6.647,17.391,6.656,24.038,0.026  c0.009-0.009,0.017-0.017,0.026-0.026l1.536-1.536c6.63-6.647,17.391-6.656,24.038-0.026c0.009,0.009,0.017,0.017,0.026,0.026  l1.536,1.536c6.63,6.647,17.391,6.656,24.038,0.026c0.009-0.009,0.017-0.017,0.026-0.026l1.536-1.536  c6.63-6.647,17.391-6.656,24.038-0.026c0.009,0.009,0.017,0.017,0.026,0.026l1.536,1.536c6.63,6.647,17.391,6.656,24.038,0.026  c0.009-0.009,0.017-0.017,0.026-0.026l1.536-1.536c6.63-6.647,17.391-6.656,24.038-0.026c0.009,0.009,0.017,0.017,0.026,0.026  l1.536,1.536c0.589,0.614,1.254,1.152,1.963,1.621c6.741,5.035,16.162,4.343,22.101-1.621l12.117-12.117h12.459  c3.985-11.998,6.033-24.559,6.059-37.205C452.267,165.035,402.944,111.616,332.629,88.747z"/>
<path style="fill:#00BCD4;" d="M418.133,240.981c-0.026,12.646-2.074,25.207-6.059,37.205h-12.459l-0.085,0.085  c-0.708-0.469-1.374-1.007-1.963-1.621l-1.536-1.536c-6.63-6.647-17.391-6.656-24.038-0.026c-0.009,0.009-0.017,0.017-0.026,0.026  l-1.536,1.536c-6.63,6.647-17.391,6.656-24.038,0.026c-0.009-0.009-0.017-0.017-0.026-0.026l-1.536-1.536  c-6.63-6.647-17.391-6.656-24.038-0.026c-0.009,0.009-0.017,0.017-0.026,0.026l-1.536,1.536c-6.63,6.647-17.391,6.656-24.038,0.026  c-0.009-0.009-0.017-0.017-0.026-0.026l-1.536-1.536c-6.63-6.647-17.391-6.656-24.038-0.026c-0.009,0.009-0.017,0.017-0.026,0.026  l-1.536,1.536c-6.63,6.647-17.391,6.656-24.038,0.026c-0.009-0.009-0.017-0.017-0.026-0.026l-1.536-1.536  c-6.63-6.647-17.391-6.656-24.038-0.026c-0.009,0.009-0.017,0.017-0.026,0.026l-1.536,1.536c-6.63,6.647-17.391,6.656-24.038,0.026  c-0.009-0.009-0.017-0.017-0.026-0.026l-1.536-1.536c-6.63-6.647-17.391-6.656-24.038-0.026c-0.009,0.009-0.017,0.017-0.026,0.026  l-1.536,1.536c-6.63,6.647-17.391,6.656-24.038,0.026c-0.009-0.009-0.017-0.017-0.026-0.026l-1.536-1.536  c-6.63-6.647-17.391-6.656-24.038-0.026c-0.009,0.009-0.017,0.017-0.026,0.026l-1.536,1.536c-6.63,6.647-17.391,6.656-24.038,0.026  c-0.009-0.009-0.017-0.017-0.026-0.026l-12.117-12.117H65.792c-3.985-11.998-6.033-24.559-6.059-37.205  c0-51.627,33.877-97.195,85.589-124.245c10.923-5.743,22.315-10.539,34.048-14.336c0.572,15.454,5.914,30.362,15.275,42.667  l6.571-3.755c17.886-10.231,40.03-9.472,57.173,1.963c8.644,5.794,18.782,8.96,29.184,9.131h0.939  c6.554-0.017,13.056-1.203,19.2-3.499l9.472-3.499l0.085-0.085c4.13-5.402,7.484-11.341,9.984-17.664  C381.867,140.715,418.133,187.563,418.133,240.981z"/>
<path d="M307.2,290.176c-6.784,0.017-13.286-2.679-18.065-7.492l-1.536-1.536c-3.319-3.302-8.678-3.302-11.998,0l-1.536,1.536  c-9.984,9.967-26.155,9.967-36.13,0l-1.536-1.536c-3.319-3.302-8.678-3.302-11.998,0l-1.536,1.536  c-10.103,9.668-26.027,9.668-36.13,0l-1.536-1.536c-3.319-3.302-8.678-3.302-11.998,0l-1.536,1.536  c-9.984,9.967-26.155,9.967-36.13,0l-1.536-1.536c-3.354-3.217-8.644-3.217-11.998,0l-1.536,1.536  c-9.984,9.967-26.155,9.967-36.13,0l-9.617-9.617h-8.926c-3.686,0-6.955-2.364-8.107-5.871c-4.267-12.86-6.451-26.317-6.485-39.868  c0-64.307,49.271-121.89,125.525-146.688c4.48-1.459,9.293,0.99,10.752,5.47c0.247,0.751,0.384,1.536,0.41,2.33  c0.418,11.17,3.644,22.059,9.387,31.65c20.676-11.58,46.089-10.633,65.852,2.441c12.305,8.175,27.793,9.933,41.617,4.727  l7.168-2.645c7.509-10.607,11.75-23.185,12.203-36.173c0.171-4.71,4.13-8.388,8.841-8.218c0.794,0.026,1.579,0.171,2.33,0.41  C411.529,105.429,460.8,163.021,460.8,227.328c-0.034,13.551-2.219,27.008-6.485,39.876c-1.152,3.499-4.42,5.862-8.107,5.862h-8.926  l-9.617,9.617c-9.984,9.967-26.155,9.967-36.13,0l-1.536-1.536c-3.354-3.217-8.644-3.217-11.998,0l-1.536,1.536  c-9.984,9.967-26.155,9.967-36.13,0l-1.536-1.536c-3.319-3.302-8.678-3.302-11.998,0l-1.536,1.536  C320.486,287.497,313.984,290.193,307.2,290.176z M384,261.589c6.784-0.017,13.286,2.679,18.065,7.492l1.536,1.536  c3.319,3.302,8.678,3.302,11.998,0l12.117-12.117c1.596-1.604,3.772-2.5,6.033-2.5h6.11c2.551-9.344,3.857-18.987,3.874-28.672  c0-53.999-40.371-102.946-103.757-126.95c-2.304,13.252-7.757,25.754-15.906,36.446c-0.162,0.196-0.401,0.486-0.563,0.674  c-0.922,1.015-2.082,1.792-3.371,2.27l-9.472,3.49c-18.961,7.066-40.149,4.634-57.02-6.545  c-14.464-9.574-33.084-10.214-48.179-1.655l-6.588,3.763c-3.729,2.125-8.448,1.161-11.042-2.261  c-8.081-10.633-13.491-23.04-15.804-36.19c-63.386,23.996-103.765,72.96-103.765,126.959c0.017,9.685,1.323,19.328,3.874,28.672  h6.11c2.261,0,4.437,0.896,6.033,2.5l12.117,12.117c3.319,3.302,8.678,3.302,11.998,0l1.536-1.536  c10.103-9.668,26.027-9.668,36.13,0l1.536,1.536c3.319,3.302,8.678,3.302,11.998,0l1.536-1.536c9.984-9.967,26.155-9.967,36.13,0  l1.536,1.536c3.319,3.302,8.678,3.302,11.998,0l1.536-1.536c9.984-9.967,26.155-9.967,36.13,0l1.536,1.536  c3.319,3.302,8.678,3.302,11.998,0l1.536-1.536c9.984-9.967,26.155-9.967,36.13,0l1.536,1.536c3.319,3.302,8.678,3.302,11.998,0  l1.536-1.536c9.984-9.967,26.155-9.967,36.13,0l1.536,1.536c3.319,3.302,8.678,3.302,11.998,0l1.536-1.536  C370.714,264.277,377.216,261.572,384,261.589z"/>
<path d="M78.251,273.067H65.792c-4.71,0-8.533-3.823-8.533-8.533c0-4.71,3.823-8.533,8.533-8.533h12.459  c4.71,0,8.533,3.823,8.533,8.533C86.784,269.244,82.961,273.067,78.251,273.067L78.251,273.067z"/>
<g>
	<path style="fill:#FDD834;" d="M92.928,278.784c-3.789,0.128-7.415,1.57-10.24,4.096L76.8,264.533h1.451l12.117,12.117   C91.162,277.436,92.015,278.144,92.928,278.784z"/>
	<path style="fill:#FDD834;" d="M435.2,264.533l-72.96,227.072c-2.287,7.066-8.866,11.861-16.299,11.861h-19.371   c0.649-1.041,1.161-2.159,1.536-3.328l71.339-221.952c6.741,5.103,16.213,4.446,22.187-1.536l12.117-12.117H435.2z"/>
</g>
<g>
	<path style="fill:#FFEB3A;" d="M399.445,278.187l-71.339,221.952c-0.375,1.169-0.887,2.287-1.536,3.328H166.059   c-7.433,0-14.012-4.796-16.299-11.861L82.688,282.88c2.825-2.526,6.451-3.968,10.24-4.096c6.793,4.361,15.701,3.482,21.504-2.133   l1.536-1.536c6.63-6.647,17.391-6.656,24.038-0.026c0.009,0.009,0.017,0.017,0.026,0.026l1.536,1.536   c0.794,0.785,1.647,1.493,2.56,2.133c3.063,2.057,6.733,3.021,10.411,2.731h0.085c4.147-0.179,8.081-1.911,11.008-4.864   l1.536-1.536c6.63-6.647,17.391-6.656,24.038-0.026c0.009,0.009,0.017,0.017,0.026,0.026l1.536,1.536   c0.794,0.785,1.647,1.493,2.56,2.133c3.063,2.057,6.733,3.021,10.411,2.731h0.085c4.147-0.179,8.081-1.911,11.008-4.864   l1.536-1.536c6.63-6.647,17.391-6.656,24.038-0.026c0.009,0.009,0.017,0.017,0.026,0.026l1.536,1.536   c0.794,0.785,1.647,1.493,2.56,2.133c3.063,2.057,6.733,3.021,10.411,2.731h0.085c4.147-0.179,8.081-1.911,11.008-4.864   l1.536-1.536c6.63-6.647,17.391-6.656,24.038-0.026c0.009,0.009,0.017,0.017,0.026,0.026l1.536,1.536   c0.794,0.785,1.647,1.493,2.56,2.133c3.063,2.057,6.733,3.021,10.411,2.731h0.085c4.147-0.179,8.081-1.911,11.008-4.864   l1.536-1.536c6.63-6.647,17.391-6.656,24.038-0.026c0.009,0.009,0.017,0.017,0.026,0.026l1.536,1.536   c0.794,0.785,1.647,1.493,2.56,2.133c6.793,4.361,15.701,3.482,21.504-2.133l1.536-1.536c6.63-6.647,17.391-6.656,24.038-0.026   c0.009,0.009,0.017,0.017,0.026,0.026l0.768,0.768l0.768,0.768C398.131,277.231,398.763,277.751,399.445,278.187z"/>
	<path style="fill:#FFEB3A;" d="M103.339,281.515c-3.678,0.29-7.347-0.674-10.411-2.731   C96.606,278.494,100.275,279.458,103.339,281.515z"/>
	<path style="fill:#FFEB3A;" d="M154.539,281.515c-3.678,0.29-7.347-0.674-10.411-2.731   C147.806,278.494,151.475,279.458,154.539,281.515z"/>
	<path style="fill:#FFEB3A;" d="M205.739,281.515c-3.678,0.29-7.347-0.674-10.411-2.731   C199.006,278.494,202.675,279.458,205.739,281.515z"/>
	<path style="fill:#FFEB3A;" d="M256.939,281.515c-3.678,0.29-7.347-0.674-10.411-2.731   C250.206,278.494,253.875,279.458,256.939,281.515z"/>
	<path style="fill:#FFEB3A;" d="M308.139,281.515c-3.678,0.29-7.347-0.674-10.411-2.731   C301.406,278.494,305.075,279.458,308.139,281.515z"/>
	<path style="fill:#FFEB3A;" d="M359.339,281.515c-3.678,0.29-7.347-0.674-10.411-2.731   C352.606,278.494,356.275,279.458,359.339,281.515z"/>
	<path style="fill:#FFEB3A;" d="M401.067,273.067l-1.621,5.12c-0.683-0.435-1.314-0.956-1.877-1.536l-0.768-0.768l2.816-2.816   H401.067z"/>
</g>
<path d="M345.941,512H166.059c-11.127,0.009-20.992-7.159-24.414-17.749L68.676,267.145c-1.434-4.489,1.041-9.301,5.53-10.735  c0.836-0.273,1.715-0.41,2.594-0.41h1.451c2.261,0,4.437,0.896,6.033,2.5l12.117,12.117c3.319,3.302,8.678,3.302,11.998,0  l1.536-1.536c9.984-9.967,26.155-9.967,36.13,0l1.536,1.536c3.319,3.302,8.678,3.302,11.998,0l1.536-1.536  c9.984-9.967,26.155-9.967,36.13,0l1.536,1.536c3.319,3.302,8.678,3.302,11.998,0l1.536-1.536c9.984-9.967,26.155-9.967,36.13,0  l1.536,1.536c3.319,3.302,8.678,3.302,11.998,0l1.536-1.536c9.984-9.967,26.155-9.967,36.13,0l1.536,1.536  c3.319,3.302,8.678,3.302,11.998,0l1.536-1.536c9.984-9.967,26.155-9.967,36.13,0l1.536,1.536c3.319,3.302,8.678,3.302,11.998,0  l1.536-1.536c9.984-9.967,26.155-9.967,36.13,0l1.536,1.536c3.319,3.302,8.678,3.302,11.998,0l12.117-12.117  c1.596-1.604,3.772-2.5,6.033-2.5h1.451c4.719,0.009,8.533,3.831,8.533,8.55c0,0.879-0.137,1.758-0.41,2.594l-72.96,227.072  C366.95,504.823,357.077,512.009,345.941,512z M93.483,288.555l64.401,200.44c1.152,3.55,4.454,5.939,8.175,5.939h179.883  c3.738,0,7.04-2.415,8.183-5.965l64.393-200.405c-9.37,3.49-19.908,1.195-26.982-5.871l-1.536-1.536  c-3.319-3.302-8.678-3.302-11.998,0l-1.536,1.536c-9.984,9.967-26.155,9.967-36.13,0l-1.536-1.536  c-3.319-3.302-8.678-3.302-11.998,0l-1.536,1.536c-9.984,9.967-26.155,9.967-36.13,0l-1.536-1.536  c-3.319-3.302-8.678-3.302-11.998,0l-1.536,1.536c-9.984,9.967-26.155,9.967-36.13,0l-1.536-1.536  c-3.319-3.302-8.678-3.302-11.998,0l-1.536,1.536c-9.984,9.967-26.155,9.967-36.13,0l-1.536-1.536  c-3.319-3.302-8.678-3.302-11.998,0l-1.536,1.536c-9.984,9.967-26.155,9.967-36.13,0l-1.536-1.536  c-3.319-3.302-8.678-3.302-11.998,0l-1.536,1.536C113.399,289.749,102.852,292.045,93.483,288.555L93.483,288.555z"/>
<path style="fill:#C52828;" d="M332.8,85.333c0.026,1.143-0.026,2.278-0.171,3.413c-0.563,15.548-5.931,30.541-15.36,42.923  l-0.085,0.085l-9.472,3.499c-1.621,0.597-3.328,1.109-4.949,1.621c-4.651,1.22-9.438,1.843-14.251,1.877  c-10.726,0.009-21.214-3.166-30.123-9.131c-17.143-11.435-39.287-12.194-57.173-1.963l-6.571,3.755  c-9.361-12.305-14.703-27.213-15.275-42.667c-0.145-1.135-0.205-2.27-0.171-3.413c-0.017-14.063,3.849-27.853,11.179-39.851  c0.085-0.171,0.171-0.171,0.171-0.171C212.617,9.131,259.84-2.313,296.021,19.755C318.882,33.698,332.826,58.556,332.8,85.333z"/>
<path style="fill:#F44335;" d="M307.2,110.933c0.026,1.143-0.026,2.278-0.171,3.413c-0.273,7.68-1.715,15.275-4.267,22.528  c-4.651,1.22-9.438,1.843-14.251,1.877c-10.726,0.009-21.214-3.166-30.123-9.131c-17.143-11.435-39.287-12.194-57.173-1.963  l-6.571,3.755c-9.361-12.305-14.703-27.213-15.275-42.667c-0.145-1.135-0.205-2.27-0.171-3.413  c-0.017-14.063,3.849-27.853,11.179-39.851c0.085-0.171,0.171-0.171,0.171-0.171c36.224-22.033,83.439-10.53,105.472,25.694  C303.343,83.038,307.209,96.853,307.2,110.933z"/>
<path d="M288.512,147.285c-12.416,0.026-24.55-3.661-34.867-10.564c-14.464-9.574-33.084-10.214-48.179-1.655l-6.588,3.763  c-3.729,2.125-8.448,1.161-11.042-2.261c-10.342-13.594-16.265-30.02-16.973-47.087c-0.154-1.374-0.222-2.765-0.196-4.147  C170.667,38.204,208.87,0,256,0s85.333,38.204,85.333,85.333c0.017,1.382-0.043,2.765-0.188,4.139  c-0.7,17.161-6.665,33.69-17.075,47.351c-0.162,0.196-0.401,0.486-0.563,0.674c-0.922,1.015-2.082,1.792-3.371,2.27l-9.472,3.49  C303.573,145.903,296.073,147.268,288.512,147.285z M228.139,112.017c12.442-0.026,24.619,3.627,34.987,10.505  c12.305,8.175,27.793,9.933,41.617,4.727l7.168-2.645c7.509-10.607,11.75-23.185,12.203-36.173c0.009-0.316,0.043-0.631,0.085-0.939  c0.077-0.717,0.094-1.442,0.068-2.159c0-37.7-30.566-68.267-68.267-68.267s-68.267,30.566-68.267,68.267  c-0.026,0.717-0.009,1.442,0.077,2.159c0.043,0.316,0.068,0.623,0.085,0.939c0.418,11.17,3.644,22.059,9.387,31.65  C206.694,114.773,217.327,111.991,228.139,112.017z"/>
<path d="M213.333,93.867c-4.71,0-8.533-3.814-8.533-8.525v-0.009c0.034-28.262,22.938-51.166,51.2-51.2  c4.71,0,8.533,3.823,8.533,8.533S260.71,51.2,256,51.2c-18.842,0.017-34.116,15.292-34.133,34.133c0,4.71-3.814,8.533-8.525,8.533  H213.333z"/>
<path d="M170.675,153.6c-4.71,0.009-8.542-3.806-8.542-8.525c0-3.072,1.638-5.905,4.309-7.424l23.979-13.653  c4.096-2.33,9.31-0.905,11.639,3.191s0.905,9.31-3.191,11.639l0,0l-23.979,13.653C173.611,153.216,172.151,153.6,170.675,153.6z"/>
<path d="M187.733,469.333c-3.78,0-7.117-2.492-8.183-6.127L136.883,318.14c-1.331-4.523,1.254-9.259,5.777-10.59  s9.259,1.254,10.59,5.777l42.667,145.067c1.331,4.514-1.246,9.259-5.769,10.59h-0.009  C189.363,469.214,188.553,469.333,187.733,469.333z"/>
<path d="M221.858,469.333c-4.139,0-7.68-2.978-8.388-7.049l-25.6-145.067c-0.836-4.634,2.253-9.071,6.886-9.907  c4.634-0.836,9.071,2.253,9.907,6.886c0,0.017,0.009,0.034,0.009,0.051l25.6,145.067c0.819,4.634-2.27,9.054-6.903,9.882  c-0.009,0-0.009,0-0.017,0C222.857,469.291,222.362,469.333,221.858,469.333z"/>
<path d="M324.267,469.333c-0.819,0-1.63-0.119-2.406-0.35c-4.514-1.323-7.108-6.067-5.777-10.581v-0.009l42.667-145.067  c1.331-4.523,6.076-7.108,10.59-5.777c4.523,1.331,7.108,6.076,5.777,10.59L332.45,463.206  C331.383,466.842,328.047,469.333,324.267,469.333z"/>
<path d="M290.142,469.333c-0.503,0-0.998-0.043-1.493-0.137c-4.634-0.811-7.731-5.231-6.921-9.865c0-0.009,0-0.009,0-0.017  l25.6-145.067c0.802-4.642,5.222-7.748,9.865-6.946s7.748,5.222,6.946,9.865c0,0.017-0.009,0.034-0.009,0.051l-25.6,145.067  C297.822,466.355,294.281,469.333,290.142,469.333z"/>
<path d="M256,469.333c-4.71,0-8.533-3.814-8.533-8.525V460.8V315.733c0-4.71,3.823-8.533,8.533-8.533  c4.71,0,8.533,3.823,8.533,8.533V460.8c0,4.71-3.814,8.533-8.525,8.533H256z"/>
<path d="M128,187.733c-4.71,0-8.533-3.823-8.533-8.533c0-2.261,0.896-4.429,2.5-6.033l8.533-8.533  c3.362-3.302,8.764-3.251,12.066,0.111c3.26,3.319,3.26,8.636,0,11.955l-8.533,8.533C132.437,186.837,130.261,187.733,128,187.733z"/>
<path d="M162.133,204.8c-4.71,0-8.533-3.823-8.533-8.533c0-2.261,0.896-4.429,2.5-6.033l8.533-8.533  c3.362-3.302,8.764-3.251,12.066,0.111c3.26,3.319,3.26,8.636,0,11.955l-8.533,8.533C166.571,203.904,164.395,204.8,162.133,204.8z"/>
<path d="M119.467,230.4c-2.261,0-4.437-0.896-6.033-2.5l-8.533-8.533c-3.302-3.362-3.251-8.764,0.111-12.066  c3.319-3.26,8.636-3.26,11.955,0l8.533,8.533c3.328,3.337,3.328,8.738,0,12.066C123.895,229.504,121.728,230.4,119.467,230.4z"/>
<path d="M204.8,187.733c-4.71,0-8.533-3.823-8.533-8.533c0-2.261,0.896-4.429,2.5-6.033l8.533-8.533  c3.362-3.302,8.764-3.251,12.066,0.111c3.26,3.319,3.26,8.636,0,11.955l-8.533,8.533C209.237,186.837,207.061,187.733,204.8,187.733  z"/>
<path d="M213.333,230.4c-2.261,0-4.437-0.896-6.033-2.5l-8.533-8.533c-3.302-3.362-3.251-8.764,0.111-12.066  c3.319-3.26,8.636-3.26,11.955,0l8.533,8.533c3.328,3.337,3.328,8.738,0,12.066C217.762,229.504,215.595,230.4,213.333,230.4z"/>
<path d="M238.933,204.8c-4.71,0-8.533-3.823-8.533-8.533c0-2.261,0.896-4.429,2.5-6.033l8.533-8.533  c3.362-3.302,8.764-3.251,12.066,0.111c3.26,3.319,3.26,8.636,0,11.955l-8.533,8.533C243.371,203.904,241.195,204.8,238.933,204.8z"/>
<path d="M281.6,187.733c-4.71,0-8.533-3.823-8.533-8.533c0-2.261,0.896-4.429,2.5-6.033l8.533-8.533  c3.362-3.302,8.764-3.251,12.066,0.111c3.26,3.319,3.26,8.636,0,11.955l-8.533,8.533C286.037,186.837,283.861,187.733,281.6,187.733  z"/>
<path d="M290.133,230.4c-2.261,0-4.437-0.896-6.033-2.5l-8.533-8.533c-3.302-3.362-3.251-8.764,0.111-12.066  c3.319-3.26,8.636-3.26,11.955,0l8.533,8.533c3.328,3.337,3.328,8.738,0,12.066C294.562,229.504,292.395,230.4,290.133,230.4z"/>
<path d="M324.267,204.8c-4.71,0-8.533-3.823-8.533-8.533c0-2.261,0.896-4.429,2.5-6.033l8.533-8.533  c3.362-3.302,8.764-3.251,12.066,0.111c3.26,3.319,3.26,8.636,0,11.955L330.3,202.3C328.704,203.904,326.528,204.8,324.267,204.8z"/>
<path d="M366.933,187.733c-4.71,0-8.533-3.823-8.533-8.533c0-2.261,0.896-4.429,2.5-6.033l8.533-8.533  c3.362-3.302,8.764-3.251,12.066,0.111c3.26,3.319,3.26,8.636,0,11.955l-8.533,8.533  C371.371,186.837,369.195,187.733,366.933,187.733z"/>
<path d="M392.533,230.4c-2.261,0-4.437-0.896-6.033-2.5l-8.533-8.533c-3.302-3.362-3.251-8.764,0.111-12.066  c3.319-3.26,8.636-3.26,11.955,0l8.533,8.533c3.328,3.337,3.328,8.738,0,12.066C396.962,229.504,394.795,230.4,392.533,230.4z"/>
<g>
</g>
<g>
</g>
<g>
</g>
<g>
</g>
<g>
</g>
<g>
</g>
<g>
</g>
<g>
</g>
<g>
</g>
<g>
</g>
<g>
</g>
<g>
</g>
<g>
</g>
<g>
</g>
<g>
</g>
</svg>
