<?xml version="1.0" encoding="iso-8859-1"?>
<!-- Generator: Adobe Illustrator 19.0.0, SVG Export Plug-In . SVG Version: 6.00 Build 0)  -->
<svg xmlns="http://www.w3.org/2000/svg" xmlns:xlink="http://www.w3.org/1999/xlink" version="1.1" id="Capa_1" x="0px" y="0px" viewBox="0 0 512.001 512.001" style="enable-background:new 0 0 512.001 512.001;" xml:space="preserve">
<g>
	<path style="fill:#0377BC;" d="M188.333,179.115c0.512,0.068,1.024,0.102,1.536,0.085h-8.107l0.768-1.707   C184.34,178.415,186.311,178.97,188.333,179.115z"/>
	<path style="fill:#0377BC;" d="M374.701,238.763h-0.085c-13.892-25.395-35.089-46.02-60.843-59.221   c-0.179-0.145-0.384-0.265-0.597-0.341l-0.768-1.621c-1.826,0.862-3.789,1.382-5.803,1.536c-0.512,0.068-1.024,0.102-1.536,0.085   H181.763c-48.691,24.661-79.377,74.615-79.36,129.195c15.932,12.928,35.123,21.205,55.467,23.893   c5.658,0.785,11.358,1.186,17.067,1.195c26.368,0.29,52.011-8.61,72.533-25.173c15.906-12.962,35.115-21.239,55.467-23.893   c5.658-0.785,11.358-1.186,17.067-1.195c12.604-0.026,25.131,1.929,37.12,5.803c12.937,4.139,24.951,10.709,35.413,19.371   C392.579,284.049,386.443,260.087,374.701,238.763z"/>
</g>
<g>
	<path style="fill:#02A9F4;" d="M357.123,289.024c-11.989-3.874-24.516-5.828-37.12-5.803c-5.709,0.009-11.409,0.41-17.067,1.195   c-20.352,2.654-39.561,10.931-55.467,23.893c-20.523,16.563-46.165,25.463-72.533,25.173c-5.709-0.009-11.409-0.41-17.067-1.195   c-20.343-2.688-39.535-10.965-55.467-23.893c-0.017-54.579,30.669-104.533,79.36-129.195h97.28   c0.213,0.077,0.418,0.196,0.597,0.341c25.754,13.201,46.95,33.826,60.843,59.221h0.085   C349.136,254.353,354.75,271.394,357.123,289.024z"/>
	<path style="fill:#02A9F4;" d="M278.275,177.579l0.768,1.621h-8.107c0.512,0.017,1.024-0.017,1.536-0.085   C274.486,178.961,276.449,178.441,278.275,177.579z"/>
</g>
<path d="M174.936,342.016c-28.339,0.29-55.902-9.267-77.969-27.051c-1.963-1.613-3.098-4.028-3.098-6.571  c-0.111-56.772,31.249-108.928,81.442-135.45c2.372-3.772,7.245-5.077,11.187-3.004c0.802,0.384,1.673,0.614,2.569,0.674  l116.002,0.051c1.254-0.026,2.5-0.29,3.661-0.785c3.874-1.86,8.533-0.546,10.854,3.063c26.129,13.807,47.676,34.927,62.003,60.783  c0.222,0.29,0.418,0.606,0.589,0.922c12.476,22.571,18.978,47.949,18.893,73.737c0,4.71-3.814,8.533-8.525,8.542  c-2.005,0-3.942-0.7-5.478-1.988c-39.373-30.882-94.737-30.916-134.144-0.068C230.872,332.723,203.301,342.323,174.936,342.016z   M110.996,304.307c18.509,13.645,40.951,20.89,63.94,20.642c24.38,0.307,48.102-7.902,67.081-23.211  c22.059-17.818,49.63-27.383,77.986-27.051c22.084-0.145,43.81,5.572,62.95,16.58c-2.057-16.649-7.228-32.759-15.232-47.497  c-0.222-0.29-0.418-0.606-0.589-0.922c-12.996-23.842-32.879-43.221-57.054-55.612c-0.913,0.179-1.826,0.299-2.748,0.375  c-0.751,0.102-1.502,0.137-2.261,0.119h-115.2c-0.973,0.017-1.954-0.051-2.918-0.188c-0.725-0.06-1.451-0.162-2.167-0.299  C140.666,209.877,112.387,254.746,110.996,304.307z"/>
<path style="fill:#4527A0;" d="M320.003,283.221c-24.687-0.239-48.785,7.509-68.693,22.101c-1.28,0.939-2.56,1.963-3.84,2.987  c-11.23,9.233-24.201,16.111-38.144,20.224c-11.17,3.277-22.75,4.949-34.389,4.949c-26.351,0.273-51.985-8.593-72.533-25.088v0.085  c0.145,12.356,1.263,24.678,3.328,36.864c8.636,51.866,24.909,102.161,48.299,149.248c3.081,5.572,8.994,8.986,15.36,8.875h156.245  c6.391,0.119,12.314-3.337,15.36-8.96c31.488-61.952,51.541-141.483,51.541-186.027v-0.085  C372.039,291.797,346.379,282.897,320.003,283.221z"/>
<g>
	<path style="fill:#673AB7;" d="M358.403,325.461v0.085c0,42.667-18.347,117.333-47.616,177.92H169.389   c-6.366,0.111-12.279-3.302-15.36-8.875c-23.39-47.087-39.663-97.382-48.299-149.248c-2.065-12.186-3.183-24.508-3.328-36.864   v-0.085c20.548,16.495,46.182,25.361,72.533,25.088c11.639,0,23.219-1.673,34.389-4.949c13.943-4.113,26.914-10.991,38.144-20.224   c1.28-1.024,2.56-2.048,3.84-2.987c11.213-3.362,22.852-5.06,34.56-5.035C312.246,299.964,337.906,308.864,358.403,325.461z"/>
	<path style="fill:#673AB7;" d="M251.309,305.323c-1.28,0.939-2.56,1.963-3.84,2.987c-11.23,9.233-24.201,16.111-38.144,20.224   c1.365-1.024,2.731-2.048,4.011-3.157C224.498,316.186,237.426,309.359,251.309,305.323z"/>
</g>
<path d="M325.635,512H169.389c-9.557,0.085-18.372-5.103-22.938-13.491c-29.995-58.906-52.582-140.587-52.582-190.029  c-0.017-4.727,3.806-8.576,8.533-8.593c1.98-0.009,3.9,0.674,5.436,1.92c19.012,15.249,42.726,23.433,67.098,23.134  c24.38,0.307,48.102-7.902,67.081-23.211c45.747-36.105,110.293-36.062,155.989,0.102c1.937,1.638,3.063,4.028,3.063,6.562v0.094  c0,49.417-22.562,131.046-52.463,189.892C344.084,506.837,335.235,512.085,325.635,512z M111.789,325.316  c6.929,57.6,23.799,113.562,49.852,165.402c1.63,2.705,4.591,4.318,7.748,4.215h156.245c3.183,0.119,6.161-1.536,7.748-4.292  c31.821-62.601,49.468-137.165,50.56-178.193c-39.339-28.459-92.766-27.477-131.021,2.423  c-22.042,17.843-49.621,27.443-77.986,27.145C152.775,342.144,130.981,336.384,111.789,325.316z"/>
<path style="fill:#1566C0;" d="M324.269,157.867c0.06,5.555-1.946,10.94-5.632,15.104c-0.768,0.879-1.63,1.681-2.56,2.389  c-1.143,0.87-2.372,1.613-3.669,2.219c-1.826,0.862-3.789,1.382-5.803,1.536c-0.512,0.068-1.024,0.102-1.536,0.085h-115.2  c-0.512,0.017-1.024-0.017-1.536-0.085c-2.022-0.145-3.994-0.7-5.803-1.621c-7.45-3.661-12.083-11.332-11.861-19.627  c-0.034-5.18,1.715-10.206,4.949-14.251c0.179-0.316,0.41-0.606,0.683-0.853c2.313-2.637,5.333-4.565,8.704-5.547  c1.579-0.444,3.217-0.674,4.864-0.683h14.933c12.109-15.053,19.422-33.399,20.992-52.651c0.247-2.355,0.358-4.719,0.341-7.083  h42.667c0.188,21.743,7.706,42.786,21.333,59.733h14.933C316.24,137.165,324.816,146.688,324.269,157.867z"/>
<path style="fill:#2296F3;" d="M299.693,164.949c0.034,5.18-1.715,10.206-4.949,14.251H189.869  c-0.512,0.017-1.024-0.017-1.536-0.085c-2.022-0.145-3.994-0.7-5.803-1.621c-7.45-3.661-12.083-11.332-11.861-19.627  c-0.034-5.18,1.715-10.206,4.949-14.251h4.608c1.715-2.039,3.311-4.173,4.779-6.4c1.579-0.444,3.217-0.674,4.864-0.683h14.933  c12.109-15.053,19.422-33.399,20.992-52.651h18.432c0.188,21.743,7.706,42.786,21.333,59.733h14.933  C291.664,144.247,300.24,153.771,299.693,164.949z"/>
<path d="M305.069,187.733h-115.2c-0.973,0.017-1.954-0.051-2.918-0.188c-2.935-0.265-5.786-1.118-8.388-2.5  c-10.291-5.103-16.691-15.701-16.427-27.179c-0.077-7.689,2.731-15.13,7.868-20.847c5.035-5.7,12.262-8.977,19.866-9.02h10.795  c10.769-14.925,16.683-32.802,16.939-51.2c0-4.71,3.814-8.533,8.525-8.533h0.009h42.667c4.71,0,8.533,3.814,8.533,8.525V76.8  c0.196,18.406,6.11,36.301,16.922,51.2h10.812c15.889,0.631,28.279,13.978,27.733,29.867c0.077,7.689-2.731,15.13-7.868,20.847  c-1.152,1.323-2.441,2.509-3.849,3.55c-1.579,1.195-3.285,2.219-5.086,3.046c-2.731,1.28-5.666,2.057-8.678,2.304  C306.58,187.716,305.82,187.759,305.069,187.733z M189.869,145.067c-2.765,0.043-5.376,1.271-7.185,3.371  c-2.287,2.603-3.533,5.965-3.482,9.429c-0.179,4.932,2.475,9.54,6.844,11.853c0.93,0.503,1.963,0.811,3.021,0.896l116.002,0.051  c1.254-0.026,2.5-0.29,3.661-0.785c0.751-0.35,1.468-0.777,2.125-1.271c0.521-0.384,0.998-0.828,1.417-1.323  c2.278-2.603,3.516-5.956,3.465-9.421c0.529-6.46-4.215-12.151-10.667-12.8h-14.933c-2.432,0-4.745-1.033-6.366-2.85  c-13.21-16.23-21.265-36.036-23.134-56.883h-26.334c-1.869,20.847-9.924,40.653-23.134,56.883c-1.621,1.818-3.934,2.85-6.366,2.85  H189.869z"/>
<path style="fill:#4E342E;" d="M213.336,8.533h68.267c9.429,0,17.067,7.637,17.067,17.067v42.667c0,4.71-3.823,8.533-8.533,8.533  h-85.333c-4.71,0-8.533-3.823-8.533-8.533V25.6C196.269,16.171,203.907,8.533,213.336,8.533z"/>
<path style="fill:#795548;" d="M213.336,8.533h42.667c9.429,0,17.067,7.637,17.067,17.067l0,0v42.667  c0,4.71-3.823,8.533-8.533,8.533h-59.733c-4.71,0-8.533-3.823-8.533-8.533V25.6C196.269,16.171,203.907,8.533,213.336,8.533z"/>
<path d="M290.136,85.333h-85.333c-9.421-0.009-17.058-7.646-17.067-17.067V25.6c0.017-14.131,11.469-25.583,25.6-25.6h68.267  c14.131,0.017,25.583,11.469,25.6,25.6v42.667C307.194,77.687,299.557,85.325,290.136,85.333z M213.336,17.067  c-4.71,0-8.533,3.823-8.533,8.533v42.667h85.35L290.136,25.6c0-4.71-3.823-8.533-8.533-8.533H213.336z"/>
<path d="M374.701,247.296c-4.719,0.017-8.559-3.797-8.576-8.516c-0.009-3.362,1.946-6.417,5.009-7.808  c28.595-16.452,38.434-52.975,21.982-81.57s-52.975-38.434-81.57-21.982c-6.042,3.473-11.418,7.979-15.906,13.303  c-3.029,3.61-8.405,4.079-12.015,1.05c-3.61-3.029-4.079-8.405-1.05-12.015c27.307-32.452,75.75-36.625,108.203-9.318  s36.625,75.75,9.318,108.203c-5.956,7.083-13.15,13.03-21.222,17.553C377.603,246.929,376.169,247.305,374.701,247.296z"/>
<g>
</g>
<g>
</g>
<g>
</g>
<g>
</g>
<g>
</g>
<g>
</g>
<g>
</g>
<g>
</g>
<g>
</g>
<g>
</g>
<g>
</g>
<g>
</g>
<g>
</g>
<g>
</g>
<g>
</g>
</svg>
