<?xml version="1.0" encoding="iso-8859-1"?>
<!-- Generator: Adobe Illustrator 19.0.0, SVG Export Plug-In . SVG Version: 6.00 Build 0)  -->
<svg xmlns="http://www.w3.org/2000/svg" xmlns:xlink="http://www.w3.org/1999/xlink" version="1.1" id="Capa_1" x="0px" y="0px" viewBox="0 0 512 512" style="enable-background:new 0 0 512 512;" xml:space="preserve">
<path style="fill:#FFB301;" d="M469.333,309.76l-256,83.541v7.765c0.009,9.412-7.62,17.058-17.033,17.067  c-8.175,0.009-15.206-5.794-16.759-13.824l-0.341,0.085l-33.109,10.837l-35.157,11.435v76.8h3.413l389.12-123.648v-81.152  L469.333,309.76z"/>
<g>
	<path style="fill:#FEC108;" d="M469.333,309.76v78.592l-358.4,113.92v-75.605l35.157-11.435l33.109-10.837l0.341-0.085   c1.783,9.25,10.726,15.3,19.968,13.517c8.03-1.553,13.833-8.585,13.824-16.759v-7.765L469.333,309.76z"/>
	<polygon style="fill:#FEC108;" points="179.2,199.595 179.2,301.995 110.933,324.267 110.933,221.867  "/>
</g>
<path style="fill:#FFB301;" d="M503.467,93.867v102.4l-290.133,94.635v-69.035c0,9.429,7.637,17.067,17.067,17.067  c9.429,0,17.067-7.637,17.067-17.067v-44.544L503.467,93.867z"/>
<path style="fill:#FEC108;" d="M466.133,108.8v102.4L176,305.835V236.8c0,9.429,7.637,17.067,17.067,17.067  c9.429,0,17.067-7.637,17.067-17.067v-44.544L466.133,108.8z"/>
<polygon style="fill:#C52828;" points="503.467,247.467 503.467,298.667 213.333,393.301 213.333,342.102 "/>
<g>
	<polygon style="fill:#F44335;" points="469.333,256 469.333,307.2 179.2,401.835 179.2,350.635  "/>
	<path style="fill:#F44335;" d="M179.541,404.31l-68.608,22.357v-51.2l68.267-22.272v47.872   C179.183,402.159,179.294,403.243,179.541,404.31z"/>
</g>
<polygon style="fill:#607D8B;" points="503.467,196.267 503.467,247.467 213.333,342.102 213.333,290.901 "/>
<g>
	<polygon style="fill:#CFD8DC;" points="465.596,207.471 465.596,258.671 175.462,353.306 175.462,302.106  "/>
	<polygon style="fill:#CFD8DC;" points="179.2,301.995 179.2,353.195 110.933,375.467 110.933,324.267  "/>
</g>
<path style="fill:#FDD834;" d="M110.933,221.867v281.6c-56.576,0-102.4-41.557-102.4-92.757V136.533h0.853  C17.758,186.018,60.749,222.148,110.933,221.867z"/>
<path d="M110.933,512C49.766,512,0,466.56,0,410.71V136.533C0,131.823,3.814,128,8.525,128c0.009,0,0.009,0,0.009,0h0.853  c4.267,0,7.876,3.157,8.457,7.381c7.791,45.252,47.172,78.225,93.09,77.952c4.71,0,8.533,3.814,8.533,8.525c0,0,0,0,0,0.009v281.6  C119.467,508.177,115.652,512,110.933,512L110.933,512z M17.067,179.985V410.71c0,43.861,37.555,80,85.333,83.883V230.067  C67.814,227.243,36.395,208.802,17.067,179.985z"/>
<path d="M9.387,145.067H8.533c-4.71,0-8.533-3.814-8.533-8.525c0-0.009,0-0.009,0-0.009v-11.776c0-4.71,3.823-8.533,8.533-8.533  s8.533,3.823,8.533,8.533v1.195c0.009,0.393,0.034,0.794,0.085,1.186c0.06,0.401,0.085,0.802,0.085,1.212v1.195  c0.068,1.673,0.299,3.746,0.589,5.751c0.691,4.659-2.526,9.003-7.185,9.694C10.231,145.033,9.805,145.067,9.387,145.067z"/>
<path style="fill:#FDD834;" d="M503.467,93.867l-127.403,41.557l-128.597,41.899v44.544c-0.009,6.161-3.337,11.836-8.704,14.848  c-2.534,1.476-5.427,2.244-8.363,2.219c-9.412-0.026-17.041-7.654-17.067-17.067v179.2c-0.009,6.161-3.337,11.836-8.704,14.848  c-2.534,1.476-5.427,2.244-8.363,2.219c-8.158-0.034-15.155-5.82-16.725-13.824c-0.247-1.067-0.358-2.15-0.341-3.243V199.595  l-68.267,22.272c-48.717,0.205-90.871-33.835-100.949-81.493c-0.256-1.28-0.427-2.56-0.597-3.84c-0.35-2.321-0.58-4.651-0.683-6.997  v-1.195c0.171-1.195,0.341-2.475,0.597-3.669c4.224-20.787,24.499-34.219,45.286-29.986c13.457,2.731,24.431,12.442,28.783,25.463  l3.413-0.853c6.989,29.841,36.838,48.358,66.679,41.378c22.775-5.333,39.757-24.371,42.462-47.607L503.467,93.867z"/>
<path style="fill:#FFEB3A;" d="M376.064,135.424l-128.597,41.899v31.317l-8.704,2.816v25.259c-2.534,1.476-5.427,2.244-8.363,2.219  c-9.412-0.026-17.041-7.654-17.067-17.067v48.981c-5.367-3.012-8.695-8.687-8.704-14.848v159.915  c-2.534,1.476-5.427,2.244-8.363,2.219c-8.158-0.034-15.155-5.82-16.725-13.824c-0.247-1.067-0.358-2.15-0.341-3.243V199.595  l-68.267,22.272c-48.717,0.205-90.871-33.835-100.949-81.493c14.362-15.59,38.639-16.58,54.221-2.219  c0.393,0.367,0.777,0.734,1.161,1.109c4.181,4.181,10.889,8.354,12.766,14.071l-0.051,0.094  c6.989,29.841,36.838,48.367,66.679,41.378c22.775-5.333,39.757-24.371,42.462-47.607L376.064,135.424z"/>
<path d="M196.267,426.667c-12.237-0.034-22.75-8.713-25.097-20.727c-0.367-1.596-0.529-3.234-0.503-4.873V211.354l-57.088,18.628  c-0.853,0.273-1.749,0.418-2.645,0.418C56.525,230.562,9.984,191.335,0.93,137.685c-0.393-2.594-0.649-5.205-0.759-7.825l0-1.519  c0-0.401,0.026-0.811,0.085-1.212c0.239-1.681,0.435-3.004,0.7-4.241c4.463-21.845,23.68-37.547,45.978-37.555  c12.476-0.06,24.448,4.915,33.212,13.798c3.473,3.482,6.391,7.484,8.627,11.87c3.14,0.759,5.589,3.217,6.323,6.366  c5.922,25.25,31.189,40.917,56.431,34.995c19.26-4.514,33.621-20.617,35.917-40.269c0.469-4.105,3.823-7.287,7.945-7.543  l307.541-19.2c4.702-0.299,8.755,3.277,9.054,7.987c0.247,3.883-2.176,7.441-5.879,8.653L256,183.518v38.349  c-0.009,14.148-11.486,25.609-25.626,25.6c-2.901,0-5.777-0.495-8.508-1.459v155.059C221.85,415.198,210.398,426.65,196.267,426.667  z M179.2,191.061c4.71,0,8.533,3.814,8.533,8.525v0.009v201.472c-0.017,0.384,0.017,0.777,0.085,1.161  c0.649,4.181,4.215,7.296,8.448,7.373c4.71-0.009,8.525-3.823,8.533-8.533v-179.2c0-4.71,3.823-8.533,8.533-8.533  s8.533,3.823,8.533,8.533s3.823,8.533,8.533,8.533s8.533-3.823,8.533-8.533v-44.544c0-3.695,2.381-6.972,5.888-8.115l192.154-62.643  l-233.796,14.601c-8.03,34.449-42.47,55.859-76.919,47.829c-21.197-4.941-38.434-20.318-45.764-40.806  c-2.483-0.887-4.412-2.867-5.239-5.367c-5.214-15.642-22.127-24.098-37.769-18.884c-10.146,3.379-17.707,11.93-19.823,22.409  c-0.205,0.973-0.333,1.894-0.461,2.773l0.034,0.418c0.068,1.673,0.299,3.746,0.589,5.751c7.663,44.8,46.319,77.679,91.776,78.037  l66.953-21.845C177.408,191.207,178.304,191.061,179.2,191.061z"/>
<path d="M213.333,299.435c-4.71,0-8.533-3.814-8.533-8.525v-0.009v-69.035c0-4.71,3.823-8.533,8.533-8.533s8.533,3.823,8.533,8.533  s3.823,8.533,8.533,8.533s8.533-3.823,8.533-8.533v-44.544c0-3.695,2.381-6.972,5.888-8.115l256-83.456  c4.48-1.459,9.301,0.998,10.761,5.478c0.273,0.853,0.418,1.741,0.418,2.637v102.4c0,3.695-2.372,6.963-5.879,8.115l-290.133,94.635  C215.125,299.29,214.229,299.435,213.333,299.435z M221.867,246.008v33.135l273.067-89.071v-84.446L256,183.518v38.349  c-0.009,14.148-11.486,25.609-25.626,25.6C227.473,247.467,224.597,246.972,221.867,246.008z"/>
<path d="M213.333,350.635c-4.71,0-8.533-3.814-8.533-8.525v-0.009v-51.2c0-3.695,2.381-6.972,5.888-8.115l290.133-94.635  c2.603-0.828,5.436-0.384,7.654,1.212c2.21,1.604,3.524,4.173,3.524,6.903v51.2c0,3.695-2.372,6.963-5.879,8.115l-290.133,94.635  C215.125,350.49,214.229,350.635,213.333,350.635z M221.867,297.097v33.246l273.067-89.071v-33.246L221.867,297.097z"/>
<path d="M213.333,401.835c-4.71,0-8.533-3.814-8.533-8.525v-0.009v-51.2c0-3.695,2.381-6.972,5.888-8.115l290.133-94.635  c2.603-0.828,5.436-0.384,7.654,1.212c2.21,1.604,3.524,4.173,3.524,6.903v51.2c0,3.695-2.372,6.963-5.879,8.115l-290.133,94.635  C215.125,401.69,214.229,401.835,213.333,401.835z M221.867,348.297v33.246l273.067-89.071v-33.246L221.867,348.297z"/>
<path d="M110.933,332.8c-4.71,0-8.533-3.814-8.533-8.525v-0.009v-102.4c0-3.695,2.372-6.963,5.888-8.107l68.267-22.272  c4.471-1.468,9.293,0.973,10.752,5.444c0.282,0.862,0.427,1.758,0.427,2.662v102.4c0,3.695-2.372,6.963-5.888,8.107l-68.267,22.272  C112.725,332.655,111.829,332.8,110.933,332.8z M119.467,228.062v84.446l51.2-16.708v-84.446L119.467,228.062z"/>
<path d="M110.933,384c-4.71,0-8.533-3.814-8.533-8.525v-0.009v-51.2c0-3.695,2.372-6.963,5.888-8.107l68.267-22.272  c4.471-1.468,9.293,0.973,10.752,5.444c0.282,0.862,0.427,1.758,0.427,2.662v51.2c0,3.695-2.372,6.963-5.888,8.107l-68.267,22.272  C112.725,383.855,111.829,384,110.933,384z M119.467,330.462v33.246l51.2-16.708v-33.246L119.467,330.462z"/>
<path d="M110.933,435.2c-4.71,0-8.533-3.814-8.533-8.525v-0.009v-51.2c0-3.695,2.372-6.963,5.888-8.107l68.267-22.272  c4.471-1.468,9.293,0.973,10.752,5.444c0.282,0.862,0.427,1.758,0.427,2.662v47.872c-0.017,0.384,0.017,0.777,0.085,1.161  c1.092,4.352-1.365,8.806-5.632,10.197l-68.608,22.357C112.725,435.055,111.829,435.2,110.933,435.2z M119.467,381.662v33.246  l51.2-16.683v-33.271L119.467,381.662z"/>
<path d="M114.347,512h-3.413c-4.71,0-8.533-3.814-8.533-8.525c0,0,0,0,0-0.009v-76.8c0-3.695,2.381-6.972,5.888-8.115l68.608-22.357  c2.33-0.742,4.855-0.469,6.972,0.759c2.108,1.237,3.584,3.328,4.053,5.726c0.879,4.625,5.333,7.654,9.958,6.775  c4.019-0.768,6.929-4.292,6.921-8.388v-7.765c0-3.695,2.381-6.972,5.888-8.115l290.133-94.635c2.603-0.828,5.436-0.375,7.654,1.212  c2.21,1.604,3.524,4.173,3.524,6.903v81.152c0,3.721-2.406,7.006-5.948,8.132l-389.12,123.648  C116.096,511.864,115.226,512,114.347,512z M119.467,432.862v60.023l375.467-119.305v-63.147l-273.067,89.062v1.57  c0.017,14.123-11.418,25.583-25.54,25.6c-8.738,0.009-16.879-4.446-21.589-11.819L119.467,432.862z"/>
<path style="fill:#C52828;" d="M196.267,106.667c-0.026,28.22-21.205,51.934-49.237,55.125c-2.065,0.247-4.147,0.358-6.229,0.341  c-30.635,0-55.467-24.832-55.467-55.467S110.165,51.2,140.8,51.2S196.267,76.032,196.267,106.667z"/>
<path style="fill:#F44335;" d="M162.133,123.733c0.043,14.157-5.367,27.785-15.104,38.059c-2.065,0.247-4.147,0.358-6.229,0.341  c-30.635-0.009-55.475-24.849-55.467-55.484c0-14.14,5.402-27.75,15.104-38.042c2.065-0.239,4.147-0.358,6.229-0.341  C137.301,68.267,162.133,93.099,162.133,123.733L162.133,123.733z"/>
<path d="M140.8,170.667c-29.781,0.119-55.663-20.412-62.327-49.434c-8.03-34.441,13.389-68.873,47.829-76.894  c4.753-1.109,9.617-1.673,14.498-1.673c4.471,0,8.934,0.461,13.312,1.365c29.483,6.417,50.56,32.461,50.688,62.635  c0.017,2.483-0.119,4.958-0.401,7.424C200.661,146.372,173.295,170.718,140.8,170.667z M140.8,59.733  c-25.907,0.034-46.899,21.026-46.933,46.933c0,3.61,0.418,7.211,1.237,10.735c5.939,25.242,31.223,40.892,56.465,34.953  c19.243-4.531,33.587-20.625,35.883-40.26c0.205-1.801,0.299-3.61,0.29-5.427c-0.085-22.118-15.514-41.207-37.12-45.935  C147.388,60.075,144.094,59.733,140.8,59.733z"/>
<path d="M8.533,145.067c-4.71,0-8.533-3.814-8.533-8.525c0-0.009,0-0.009,0-0.009v-4.267c0-1.092,0.094-2.313,0.205-3.524  c0.427-4.693,4.582-8.149,9.276-7.723s8.149,4.582,7.723,9.276c0,0.009,0,0.017,0,0.034c-0.068,0.666-0.137,1.331-0.137,1.937v4.267  C17.067,141.244,13.252,145.067,8.533,145.067L8.533,145.067z"/>
<path id="SVGCleanerId_0" d="M213.333,230.4c-4.71,0-8.533-3.814-8.533-8.525c0,0,0,0,0-0.009v-33.365  c0-4.71,3.823-8.533,8.533-8.533s8.533,3.823,8.533,8.533v33.365C221.867,226.577,218.052,230.4,213.333,230.4L213.333,230.4z"/>
<g>
	<path id="SVGCleanerId_0_1_" d="M213.333,230.4c-4.71,0-8.533-3.814-8.533-8.525c0,0,0,0,0-0.009v-33.365   c0-4.71,3.823-8.533,8.533-8.533s8.533,3.823,8.533,8.533v33.365C221.867,226.577,218.052,230.4,213.333,230.4L213.333,230.4z"/>
</g>
<path d="M153.591,85.333c-3.977,0-7.415-2.748-8.311-6.622c-0.333-1.442-7.876-35.558,10.573-58.726  C166.426,6.724,182.895,0,204.8,0c4.71,0,8.533,3.823,8.533,8.533s-3.823,8.533-8.533,8.533  c-13.329-1.263-26.479,3.746-35.593,13.559c-13.175,16.529-7.356,43.998-7.287,44.271c1.058,4.591-1.818,9.173-6.409,10.223l0,0  C154.88,85.265,154.24,85.333,153.591,85.333z"/>
<g>
</g>
<g>
</g>
<g>
</g>
<g>
</g>
<g>
</g>
<g>
</g>
<g>
</g>
<g>
</g>
<g>
</g>
<g>
</g>
<g>
</g>
<g>
</g>
<g>
</g>
<g>
</g>
<g>
</g>
</svg>
