<?xml version="1.0" encoding="iso-8859-1"?>
<!-- Generator: Adobe Illustrator 19.0.0, SVG Export Plug-In . SVG Version: 6.00 Build 0)  -->
<svg xmlns="http://www.w3.org/2000/svg" xmlns:xlink="http://www.w3.org/1999/xlink" version="1.1" id="Capa_1" x="0px" y="0px" viewBox="0 0 512.006 512.006" style="enable-background:new 0 0 512.006 512.006;" xml:space="preserve">
<path style="fill:#F57C00;" d="M385.261,347.819c-2.493,9.281-7.308,17.776-14.002,24.674c-3.612,3.603-7.761,6.625-12.295,8.965  c-2.792,1.494-5.703,2.749-8.709,3.757c-76.841,27.15-249.221-65.656-300.619-117.054C-3.042,215.482-4.75,130.359,43.062,70.338  c3.816-4.85,7.923-9.469,12.295-13.831c59.936-60.021,154.707-62.497,211.569-5.635  C317.555,101.501,408.313,269.271,385.261,347.819z"/>
<path style="fill:#FF9801;" d="M358.964,381.458c-71.718,38.335-255.88-59.851-309.328-113.298  C-3.042,215.482-4.75,130.359,43.062,70.338c60.107-51.057,147.962-50.374,201.75,3.415  C297.833,126.773,394.994,308.63,358.964,381.458z"/>
<path d="M318.17,398.568c-90.954,0-232.828-82.595-274.596-124.363C14.332,244.869-1.412,204.699,0.1,163.307  C3.353,75.23,74.004,4.57,162.08,1.318c41.4-1.537,81.571,14.207,110.899,43.475l0,0c31.505,31.505,72.666,99.842,97.87,162.493  c23.257,57.81,43.253,134.429,6.446,171.236C363.148,392.669,342.469,398.568,318.17,398.568z M166.452,18.334  c-1.298,0-2.596,0.017-3.902,0.051C83.54,21.399,20.181,84.75,17.167,163.768c-1.366,36.704,12.568,72.333,38.48,98.365  c57.964,57.964,255.727,158.156,309.584,104.316c23.232-23.232,19.509-78.916-10.211-152.794  c-27.714-68.85-68.32-130.997-94.113-156.79l0,0C235.848,31.9,201.824,18.018,166.452,18.334L166.452,18.334z"/>
<path d="M455.203,463.064c-0.256,0-0.521-0.009-0.785-0.034c-2.527-0.239-4.824-1.58-6.258-3.68  c-0.529-0.734-1.118-1.417-1.776-2.049c-3.33-3.33-3.33-8.743,0-12.073c3.33-3.33,8.743-3.33,12.073,0  c0.632,0.649,1.315,1.238,2.041,1.767c3.893,2.664,4.892,7.974,2.228,11.859c-0.299,0.435-0.64,0.845-1.007,1.221l-0.487,0.487  C459.634,462.167,457.466,463.064,455.203,463.064z"/>
<path style="fill:#CFD8DC;" d="M494.716,451.298c-10.527,10.459-27.133,11.62-39.018,2.732c-1.178-0.794-2.263-1.708-3.244-2.732  c1.025,0.982,1.938,2.066,2.732,3.244c9.878,13.2,7.18,31.915-6.019,41.793c-13.2,9.878-31.915,7.18-41.793-6.019  c-8.896-11.893-7.701-28.525,2.818-39.018c0.982-1.05,2.066-1.998,3.244-2.818l-63.18-63.18v-0.085  c3.005-1.007,5.917-2.263,8.709-3.757c4.534-2.339,8.683-5.362,12.295-8.965c6.694-6.899,11.509-15.394,14.002-24.674l64.376,64.461  c0.82-1.178,1.767-2.263,2.818-3.244c11.671-11.671,30.591-11.671,42.263,0S506.388,439.627,494.716,451.298L494.716,451.298z"/>
<path d="M431.271,510.79c-21.2,0.009-38.386-17.17-38.395-38.361c0-8.726,2.971-17.195,8.418-24l-57.084-57.093  c-1.605-1.597-2.502-3.774-2.502-6.036c-0.009-3.697,2.339-6.984,5.84-8.179c2.553-0.871,5.029-1.938,7.411-3.21  c3.782-1.938,7.249-4.448,10.263-7.454c5.669-5.883,9.742-13.114,11.842-21.012c1.315-4.534,6.045-7.138,10.578-5.823  c1.383,0.401,2.647,1.144,3.663,2.169l58.28,58.356c6.771-5.456,15.206-8.427,23.898-8.41h0.077  c21.234,0,38.446,17.212,38.446,38.438c0,10.177-4.038,19.936-11.219,27.142l-0.051,0.051c-8.248,8.12-19.688,12.132-31.197,10.937  c2.297,21.046-12.892,39.966-33.938,42.263C434.157,510.722,432.714,510.799,431.271,510.79z M364.949,387.913l54.523,54.531  c3.33,3.33,3.338,8.734,0,12.073c-0.435,0.435-0.914,0.82-1.434,1.153c-0.64,0.495-1.238,1.05-1.784,1.639  c-8.35,8.282-8.41,21.772-0.12,30.122c0.034,0.034,0.06,0.06,0.094,0.094c8.316,8.333,21.806,8.359,30.147,0.043  c7.522-7.496,8.376-19.381,2.006-27.876c-0.572-0.854-1.238-1.648-1.972-2.365c-3.33-3.338-3.321-8.751,0.017-12.081  c3.338-3.33,8.751-3.321,12.081,0.017c0.546,0.581,1.153,1.11,1.801,1.571c9.204,7.351,22.625,5.84,29.977-3.364  c6.779-8.495,6.088-20.73-1.605-28.406c-4.004-4.021-9.451-6.284-15.121-6.267h-0.051c-5.635-0.009-11.039,2.237-14.993,6.241  c-0.615,0.572-1.187,1.187-1.699,1.853c-2.553,3.97-7.838,5.114-11.808,2.561c-0.512-0.333-0.982-0.709-1.417-1.144l-55.172-55.249  c-2.869,5.712-6.625,10.928-11.133,15.462C373.624,382.201,369.466,385.36,364.949,387.913L364.949,387.913z"/>
<path d="M322.14,365.749h-12.081c-4.713,0-8.538-3.825-8.538-8.538c0-4.713,3.825-8.538,8.538-8.538h12.081  c4.713,0,8.538,3.825,8.538,8.538C330.678,361.924,326.862,365.749,322.14,365.749L322.14,365.749z"/>
<path d="M231.579,335.567h-12.073c-4.713,0-8.538-3.825-8.538-8.538c0-4.713,3.825-8.538,8.538-8.538h12.073  c4.713,0,8.538,3.825,8.538,8.538C240.117,331.742,236.3,335.567,231.579,335.567z"/>
<path d="M267.805,299.332h-12.073c-4.713,0-8.538-3.825-8.538-8.538s3.825-8.538,8.538-8.538h12.073  c4.713,0,8.538,3.825,8.538,8.538S272.518,299.332,267.805,299.332z"/>
<path d="M304.031,263.115h-12.073c-4.713,0-8.538-3.825-8.538-8.538c0-4.713,3.825-8.538,8.538-8.538h12.073  c4.713,0,8.538,3.825,8.538,8.538C312.569,259.29,308.744,263.115,304.031,263.115z"/>
<path d="M334.221,232.933h-12.073c-4.713,0-8.538-3.825-8.538-8.538c0-4.713,3.825-8.538,8.538-8.538h12.073  c4.713,0,8.538,3.825,8.538,8.538C342.759,229.108,338.934,232.933,334.221,232.933z"/>
<path d="M358.366,329.531c-4.713,0-8.538-3.816-8.538-8.529c0,0,0,0,0-0.009v-12.073c0-4.713,3.825-8.538,8.538-8.538  s8.538,3.825,8.538,8.538v12.073C366.904,325.706,363.079,329.522,358.366,329.531L358.366,329.531z"/>
<path d="M267.805,359.712c-4.713,0-8.538-3.816-8.538-8.529c0,0,0,0,0-0.009v-12.073c0-4.713,3.825-8.538,8.538-8.538  s8.538,3.825,8.538,8.538v12.073C276.343,355.887,272.526,359.712,267.805,359.712C267.814,359.712,267.805,359.712,267.805,359.712  z"/>
<path d="M310.068,317.45c-4.713,0-8.538-3.816-8.538-8.529c0,0,0,0,0-0.009v-12.081c0-4.713,3.825-8.538,8.538-8.538  s8.538,3.825,8.538,8.538v12.081C318.605,313.633,314.789,317.45,310.068,317.45L310.068,317.45z"/>
<path d="M346.294,281.224c-4.713,0-8.538-3.816-8.538-8.529c0,0,0,0,0-0.009v-12.073c0-4.713,3.825-8.538,8.538-8.538  s8.538,3.825,8.538,8.538v12.073C354.832,277.399,351.007,281.224,346.294,281.224L346.294,281.224z"/>
<g>
</g>
<g>
</g>
<g>
</g>
<g>
</g>
<g>
</g>
<g>
</g>
<g>
</g>
<g>
</g>
<g>
</g>
<g>
</g>
<g>
</g>
<g>
</g>
<g>
</g>
<g>
</g>
<g>
</g>
</svg>
