<?xml version="1.0" encoding="iso-8859-1"?>
<!-- Generator: Adobe Illustrator 19.0.0, SVG Export Plug-In . SVG Version: 6.00 Build 0)  -->
<svg xmlns="http://www.w3.org/2000/svg" xmlns:xlink="http://www.w3.org/1999/xlink" version="1.1" id="Capa_1" x="0px" y="0px" viewBox="0 0 511.998 511.998" style="enable-background:new 0 0 511.998 511.998;" xml:space="preserve">
<path style="fill:#AD1457;" d="M359.423,349.946l-16.299,138.411c-1.007,8.619-8.303,15.113-16.981,15.104H185.855  c-8.678,0.009-15.974-6.485-16.981-15.104l-14.421-122.539l-1.877-15.872l1.024-0.085c10.052,8.132,21.948,13.67,34.645,16.128  c5.453,1.067,10.999,1.613,16.555,1.621c18.603,0.188,36.702-6.084,51.2-17.749c10.01-8.201,21.922-13.747,34.645-16.128  c5.444-1.109,10.999-1.655,16.555-1.621c18.611-0.23,36.719,6.05,51.2,17.749L359.423,349.946z"/>
<path style="fill:#E91E63;" d="M326.314,349.946l-16.299,138.411c-1.007,8.619-8.303,15.113-16.981,15.104H185.855  c-8.678,0.009-15.974-6.485-16.981-15.104l-14.421-122.539c5.666,1.212,11.443,1.809,17.237,1.792  c5.555-0.009,11.102-0.555,16.555-1.621c5.453,1.067,10.999,1.613,16.555,1.621c18.603,0.188,36.702-6.084,51.2-17.749  c10.01-8.201,21.922-13.747,34.645-16.128c12.723,2.381,24.636,7.927,34.645,16.128L326.314,349.946z"/>
<path style="fill:#FFEB3A;" d="M253.012,503.46c1.997-3.968,3.021-8.354,2.987-12.8c0-16.495-13.372-29.867-29.867-29.867  s-29.867,13.372-29.867,29.867c-0.034,4.446,0.99,8.832,2.987,12.8"/>
<path d="M375.466,221.86H136.532c-4.71,0-8.533-3.823-8.533-8.533s3.823-8.533,8.533-8.533h238.933c4.71,0,8.533,3.823,8.533,8.533  S380.176,221.86,375.466,221.86z"/>
<path style="fill:#0377BC;" d="M341.332,247.46H140.543l12.032,102.485l1.024-0.085c10.445,8.508,22.903,14.174,36.181,16.469  c4.958,0.862,9.984,1.289,15.019,1.28c18.603,0.188,36.702-6.084,51.2-17.749c10.428-8.542,22.895-14.217,36.181-16.469  c4.958-0.862,9.984-1.289,15.019-1.28c8.055-0.026,16.077,1.126,23.808,3.413c10.027,2.825,19.354,7.706,27.392,14.336l1.024,0.085  l12.032-102.485L341.332,247.46L341.332,247.46z"/>
<path style="fill:#02A9F4;" d="M341.332,247.46l-10.325,88.064c-7.731-2.287-15.753-3.439-23.808-3.413  c-5.035-0.009-10.061,0.418-15.019,1.28c-13.286,2.253-25.754,7.927-36.181,16.469c-14.498,11.665-32.597,17.937-51.2,17.749  c-5.035,0.009-10.061-0.418-15.019-1.28c-13.278-2.295-25.737-7.962-36.181-16.469l-1.024,0.085L140.543,247.46L341.332,247.46  L341.332,247.46z"/>
<path d="M204.799,376.152c-19.627,0.162-38.767-6.153-54.443-17.954c-3.371-0.905-5.854-3.78-6.255-7.253l-12.032-102.485  c-0.546-4.676,2.799-8.917,7.475-9.463c0.333-0.043,0.666-0.06,0.998-0.06h230.912c4.71,0,8.533,3.814,8.533,8.525  c0,0.333-0.017,0.666-0.06,0.998l-12.032,102.485c-0.555,4.548-4.591,7.859-9.165,7.518l-1.024-0.085  c-1.749-0.145-3.413-0.828-4.77-1.954c-26.871-21.035-64.614-21.035-91.486,0C245.426,369.368,225.399,376.339,204.799,376.152z   M160.52,344.484c26.863,19.9,63.71,19.413,90.044-1.195c16.009-12.971,36.036-19.934,56.636-19.712  c15.889-0.094,31.522,3.985,45.338,11.844l9.327-79.428H150.135L160.52,344.484z"/>
<path d="M326.143,511.994H185.855c-12.988-0.009-23.919-9.728-25.455-22.622l-16.299-138.428c-0.555-4.685,2.799-8.926,7.484-9.481  c0.102-0.009,0.196-0.026,0.299-0.026l1.024-0.085c2.21-0.162,4.403,0.529,6.127,1.937c26.88,21.052,64.657,21.052,91.537,0  c32.512-25.719,78.268-26.325,111.454-1.476c3.891,1.246,6.357,5.077,5.879,9.131l-16.299,138.419  C350.071,502.266,339.131,511.985,326.143,511.994z M163.088,366.253l14.259,121.105c0.512,4.309,4.164,7.561,8.508,7.569h140.288  c4.343-0.009,7.996-3.26,8.508-7.578l15.659-133.001c-26.82-19.012-62.942-18.176-88.858,2.065  c-16.026,12.945-36.053,19.917-56.661,19.729C190.309,376.203,176.008,372.815,163.088,366.253z"/>
<path style="fill:#0377BC;" d="M375.466,213.327h-34.133c0.162-36.113-15.266-70.545-42.325-94.464  c4.181-4.642,7.014-10.334,8.192-16.469l0.341-0.683C349.541,123.002,375.858,166.249,375.466,213.327z"/>
<path style="fill:#02A9F4;" d="M341.332,213.327h-204.8c-0.162-36.113,15.266-70.545,42.325-94.464  c7.757-6.793,16.367-12.561,25.6-17.152l0.341,0.683c4.326,16.282,17.587,28.655,34.133,31.829  c5.555,1.562,11.298,2.338,17.067,2.304c16.196,0.495,31.838-5.931,43.008-17.664C326.066,142.79,341.486,177.214,341.332,213.327z"/>
<path d="M375.466,221.86H136.532c-4.71,0-8.533-3.814-8.533-8.525c0,0,0,0,0-0.009c-0.205-50.278,27.895-96.393,72.678-119.27  c4.215-2.074,9.31-0.367,11.418,3.831c0.469,0.947,0.845,1.946,1.101,2.978c2.807,15.471,21.205,27.127,42.803,27.127  s39.996-11.657,42.803-27.127c0.145-0.794,0.401-1.57,0.759-2.295c2.125-4.361,7.262-6.34,11.759-4.514  c44.774,22.869,72.875,68.983,72.678,119.27C383.999,218.046,380.185,221.86,375.466,221.86L375.466,221.86z M145.373,204.794  h221.252c-2.543-37.18-22.724-70.886-54.289-90.692c-8.644,18.423-30.626,30.959-56.337,30.959s-47.684-12.535-56.337-30.959  C168.097,133.907,147.916,167.622,145.373,204.794z"/>
<path style="fill:#283593;" d="M307.54,101.711l-0.341,0.683c-3.499,19.285-25.088,34.133-51.2,34.133s-47.701-14.848-51.2-34.133  l-0.341-0.683C236.919,85.557,275.08,85.557,307.54,101.711z"/>
<path d="M255.999,145.06c-29.978,0-54.886-17.041-59.494-40.593c-0.486-1.673-0.478-3.456,0.026-5.129  c0.64-2.227,2.116-4.122,4.122-5.274c34.876-17.263,75.81-17.263,110.686,0.009c4.079,2.031,5.845,6.903,4.011,11.076  C310.399,128.344,285.687,145.06,255.999,145.06z M214.885,106.328c5.632,12.663,22.144,21.666,41.114,21.666  c18.97,0,35.482-9.003,41.114-21.666C270.787,95.43,241.211,95.43,214.885,106.328z"/>
<path style="fill:#0377BC;" d="M401.066,230.394c-0.068,9.395-7.671,16.998-17.067,17.067h-256  c-9.412-0.026-17.041-7.654-17.067-17.067c0.068-9.395,7.671-16.998,17.067-17.067h256  C393.411,213.361,401.04,220.981,401.066,230.394z"/>
<path style="fill:#02A9F4;" d="M366.932,230.394c0.06,4.42-1.519,8.713-4.446,12.032c-2.62,3.166-6.511,5.001-10.615,5.035H125.994  c-8.841-0.614-15.548-8.218-15.061-17.067c-0.06-4.42,1.519-8.713,4.446-12.032c2.62-3.166,6.511-5.001,10.615-5.035H351.88  C360.712,213.941,367.427,221.545,366.932,230.394z"/>
<path d="M383.999,255.994h-256c-14.131-0.017-25.583-11.469-25.6-25.6c0.06-14.114,11.486-25.54,25.6-25.6h256  c14.131,0.017,25.583,11.469,25.6,25.6C409.539,244.508,398.113,255.934,383.999,255.994z M127.999,221.86  c-2.227-0.017-4.361,0.862-5.922,2.449c-1.673,1.587-2.62,3.789-2.611,6.084c0.009,4.71,3.823,8.525,8.533,8.533h256  c2.227,0.017,4.361-0.862,5.922-2.449c1.673-1.579,2.62-3.78,2.611-6.084c-0.009-4.71-3.823-8.525-8.533-8.533H127.999z"/>
<path d="M196.266,409.594c-2.27,0.017-4.454-0.87-6.059-2.475c-0.751-0.828-1.357-1.783-1.792-2.816  c-0.435-1.024-0.666-2.125-0.683-3.243c0.017-0.546,0.068-1.092,0.171-1.621c0.077-0.563,0.247-1.109,0.512-1.613  c0.188-0.546,0.444-1.067,0.768-1.545c0.316-0.444,0.657-0.87,1.024-1.271c0.828-0.751,1.783-1.357,2.816-1.792  c3.174-1.34,6.852-0.631,9.301,1.792c0.341,0.427,0.683,0.853,1.024,1.271c0.324,0.478,0.58,0.998,0.768,1.545  c0.256,0.503,0.427,1.05,0.512,1.613c0.102,0.538,0.154,1.084,0.171,1.621c0.026,1.118-0.205,2.227-0.683,3.243  c-0.435,1.033-1.041,1.988-1.792,2.816c-0.828,0.751-1.783,1.357-2.816,1.792C198.484,409.355,197.384,409.585,196.266,409.594z"/>
<path d="M204.799,443.727c-1.118-0.017-2.219-0.247-3.243-0.683c-1.033-0.435-1.98-1.041-2.816-1.792  c-1.604-1.604-2.5-3.789-2.475-6.059c0.034-2.261,0.913-4.42,2.475-6.059c2.014-1.997,4.898-2.867,7.68-2.313  c0.563,0.085,1.109,0.256,1.621,0.521c0.546,0.188,1.067,0.444,1.536,0.768c0.444,0.316,0.87,0.657,1.28,1.024  c0.341,0.427,0.683,0.853,1.024,1.271c0.324,0.478,0.58,0.998,0.768,1.545c0.247,0.486,0.418,0.998,0.512,1.536  c0.094,0.563,0.154,1.135,0.171,1.707c0.043,4.668-3.703,8.491-8.371,8.533C204.91,443.736,204.85,443.736,204.799,443.727z"/>
<path d="M253.004,511.994c-4.71,0-8.533-3.823-8.525-8.533c0-1.348,0.324-2.679,0.939-3.883c1.382-2.765,2.091-5.82,2.057-8.917  c0-11.785-9.549-21.333-21.333-21.333c-11.785,0-21.333,9.549-21.333,21.333c-0.034,3.098,0.666,6.153,2.057,8.917  c2.142,4.198,0.478,9.335-3.721,11.486c-4.198,2.142-9.335,0.478-11.486-3.721c-2.62-5.171-3.959-10.889-3.917-16.683  c0-21.205,17.195-38.4,38.4-38.4s38.4,17.195,38.4,38.4c0.043,5.794-1.306,11.511-3.917,16.683  C259.148,510.202,256.212,512.002,253.004,511.994z"/>
<path d="M238.932,435.194c-2.27,0.017-4.454-0.87-6.059-2.475c-0.751-0.828-1.357-1.783-1.792-2.816  c-0.478-1.015-0.708-2.125-0.683-3.243c0.017-2.261,0.905-4.429,2.475-6.059c3.422-3.157,8.695-3.157,12.117,0  c0.341,0.427,0.683,0.853,1.024,1.271c0.324,0.478,0.58,0.998,0.768,1.545c0.247,0.486,0.418,0.998,0.512,1.536  c0.102,0.563,0.154,1.135,0.171,1.707c0.026,1.118-0.205,2.227-0.683,3.243c-0.435,1.033-1.041,1.988-1.792,2.816  C243.387,434.323,241.202,435.219,238.932,435.194z"/>
<path d="M247.466,401.06c-1.118-0.017-2.219-0.247-3.243-0.683c-1.033-0.435-1.98-1.041-2.816-1.792  c-2.441-2.441-3.149-6.127-1.792-9.301c0.41-1.041,1.024-2.005,1.792-2.816c0.828-0.751,1.783-1.357,2.816-1.792  c1.553-0.683,3.285-0.862,4.949-0.521c0.538,0.094,1.05,0.273,1.536,0.521c0.529,0.171,1.015,0.427,1.451,0.768  c0.486,0.29,0.947,0.64,1.365,1.024c0.768,0.819,1.382,1.775,1.792,2.816c1.365,3.174,0.649,6.861-1.792,9.301  c-0.828,0.751-1.783,1.357-2.816,1.792C249.684,400.821,248.584,401.052,247.466,401.06z"/>
<path d="M255.999,119.46c-4.71,0-8.533-3.814-8.533-8.525c0,0,0,0,0-0.009V28.265c-0.282-10.65,5.453-20.557,14.831-25.626  c7.97-4.139,17.604-3.362,24.806,1.997c0.299,0.213,0.589,0.444,0.853,0.7l42.155,39.646c3.43,3.226,3.601,8.627,0.367,12.066  c-3.226,3.43-8.627,3.601-12.066,0.367l-41.677-39.202c-1.971-1.382-4.557-1.527-6.673-0.384c-3.661,2.159-5.803,6.195-5.53,10.436  v82.671C264.532,115.646,260.718,119.46,255.999,119.46L255.999,119.46z"/>
<g>
</g>
<g>
</g>
<g>
</g>
<g>
</g>
<g>
</g>
<g>
</g>
<g>
</g>
<g>
</g>
<g>
</g>
<g>
</g>
<g>
</g>
<g>
</g>
<g>
</g>
<g>
</g>
<g>
</g>
</svg>
