<?xml version="1.0" encoding="iso-8859-1"?>
<!-- Generator: Adobe Illustrator 19.0.0, SVG Export Plug-In . SVG Version: 6.00 Build 0)  -->
<svg xmlns="http://www.w3.org/2000/svg" xmlns:xlink="http://www.w3.org/1999/xlink" version="1.1" id="Capa_1" x="0px" y="0px" viewBox="0 0 512 512" style="enable-background:new 0 0 512 512;" xml:space="preserve">
<path style="fill:#37474F;" d="M503.467,405.171c-0.043,28.262-22.938,51.157-51.2,51.2H59.734  c-28.271-0.026-51.174-22.929-51.2-51.2c-0.026-4.531,1.792-8.875,5.035-12.032c3.157-3.243,7.501-5.06,12.032-5.035h460.8  C495.813,388.13,503.441,395.759,503.467,405.171z"/>
<path style="fill:#607D8B;" d="M469.334,405.171c0.111,13.397-4.89,26.342-13.986,36.181c-8.619,9.523-20.847,14.976-33.69,15.019  H56.201c-27.273-1.033-48.589-23.919-47.667-51.2c-0.051-4.463,1.63-8.772,4.685-12.032c2.85-3.2,6.921-5.026,11.204-5.035h429.022  C462.524,388.463,469.624,396.083,469.334,405.171z"/>
<path d="M452.267,464.905H59.734C26.761,464.862,0.043,438.144,0,405.171c-0.034-6.835,2.714-13.389,7.612-18.15  c4.745-4.813,11.23-7.501,17.988-7.45h460.8c14.131,0.017,25.583,11.469,25.6,25.6C511.958,438.144,485.24,464.862,452.267,464.905z   M25.6,396.638c-2.227-0.017-4.361,0.862-5.922,2.449c-1.673,1.579-2.62,3.78-2.611,6.084c0.026,23.552,19.115,42.641,42.667,42.667  h392.533c23.543-0.043,42.624-19.123,42.667-42.667c-0.009-4.71-3.823-8.525-8.533-8.533H25.6z"/>
<g>
	<path style="fill:#FDD834;" d="M469.334,388.105h-68.267c0-18.85,15.275-34.133,34.125-34.133c11.375,0,21.999,5.666,28.339,15.104   l1.28,2.048C467.806,376.278,469.368,382.14,469.334,388.105z"/>
	<path style="fill:#FDD834;" d="M110.934,388.105H42.667c-0.017-6.545,1.886-12.954,5.461-18.432   c10.163-15.855,31.249-20.471,47.104-10.317C105.029,365.636,110.951,376.474,110.934,388.105z"/>
</g>
<path d="M469.334,396.638h-68.267c-4.71,0-8.533-3.814-8.533-8.525c0,0,0,0,0-0.009c0-23.561,19.098-42.667,42.658-42.667  c14.208,0,27.486,7.074,35.413,18.867l1.434,2.304c3.831,6.519,5.837,13.943,5.82,21.504  C477.867,392.815,474.053,396.638,469.334,396.638L469.334,396.638z M411.06,379.571h48.299c-0.503-1.434-1.143-2.816-1.911-4.13  l-1.161-1.852c-8.021-11.648-23.962-14.583-35.61-6.571C416.231,370.082,412.869,374.477,411.06,379.571z"/>
<path style="fill:#FDD834;" d="M349.867,388.105H281.6c0-18.85,15.283-34.133,34.133-34.133S349.867,369.255,349.867,388.105z"/>
<path d="M349.867,396.638H281.6c-4.71,0-8.533-3.814-8.533-8.525c0,0,0,0,0-0.009c0-23.561,19.106-42.667,42.667-42.667  s42.667,19.106,42.667,42.667C358.4,392.815,354.586,396.638,349.867,396.638L349.867,396.638z M291.593,379.571h48.273  c-4.71-13.329-19.345-20.318-32.674-15.599C299.913,366.55,294.178,372.284,291.593,379.571z"/>
<path style="fill:#FDD834;" d="M230.4,388.105h-68.267c0.026-16.572,11.93-30.746,28.245-33.621c1.946-0.35,3.917-0.521,5.888-0.512  c18.85-0.009,34.125,15.266,34.133,34.116C230.4,388.088,230.4,388.096,230.4,388.105z"/>
<path d="M230.4,396.638h-68.267c-4.71,0-8.533-3.814-8.533-8.525c0,0,0,0,0-0.009c-0.026-20.736,14.882-38.477,35.302-42.035  c2.432-0.427,4.898-0.64,7.364-0.632c23.552,0.026,42.641,19.115,42.667,42.667C238.934,392.815,235.119,396.638,230.4,396.638  L230.4,396.638z M172.118,379.571h48.282c-3.627-10.223-13.295-17.058-24.141-17.067c-1.459-0.009-2.918,0.119-4.361,0.367  C182.776,364.45,175.215,370.842,172.118,379.571z"/>
<path d="M110.934,396.638H42.667c-4.71,0-8.533-3.814-8.533-8.525c0,0,0,0,0-0.009c0.068-23.535,19.132-42.598,42.667-42.667  c23.552,0.026,42.641,19.115,42.667,42.667C119.467,392.815,115.653,396.638,110.934,396.638L110.934,396.638z M52.677,379.571  h48.256c-4.804-13.329-19.507-20.233-32.828-15.428C60.928,366.737,55.271,372.386,52.677,379.571z"/>
<g>
	<path style="fill:#F57C00;" d="M163.158,380.169c-0.683,2.586-1.033,5.257-1.024,7.936h-14.592   C151.945,384.111,157.338,381.372,163.158,380.169z"/>
	<path style="fill:#F57C00;" d="M282.539,380.169c-0.623,2.603-0.939,5.265-0.939,7.936h-14.677   C271.352,384.145,276.728,381.406,282.539,380.169z"/>
	<path style="fill:#F57C00;" d="M386.39,388.105c4.42-3.959,9.805-6.699,15.616-7.936c-0.623,2.603-0.939,5.265-0.939,7.936H386.39z   "/>
	<path style="fill:#F57C00;" d="M443.734,200.371c-5.06-7.194-10.496-14.123-16.299-20.736c-0.853,0.768-1.792,1.536-2.645,2.304   c-8.175,7.561-15.317,16.171-21.248,25.6c-6.033,9.498-10.743,19.78-13.995,30.549c0.051,0.043,0.051,0.119,0,0.171l0,0   c2.287,22.801-5.794,45.423-22.016,61.611c-14.02,13.926-32.819,21.982-52.565,22.528c-42.436,0.93-77.594-32.717-78.524-75.162   c-0.324-14.942,3.712-29.662,11.622-42.342v-0.085c3.089-4.915,6.724-9.463,10.837-13.568   c16.188-16.222,38.81-24.303,61.611-22.016c0.043-0.051,0.119-0.051,0.171,0l0,0c7.45-2.27,14.677-5.205,21.589-8.789   c11.52-6.093,22.076-13.858,31.317-23.04c-42.837-21.077-84.907-16.043-109.056,3.243c-17.835,14.251-36.864,32.171-52.224,45.824   c-7.953,8.021-16.973,14.908-26.795,20.48c-22.281-38.827-71.825-52.233-110.643-29.943c-11.23,6.443-20.745,15.488-27.767,26.359   c0,0.043-0.034,0.085-0.085,0.085l0,0c-8.448,13.065-12.928,28.305-12.885,43.861c-0.009,13.389,3.277,26.573,9.557,38.4   c-14.182,26.65-12.476,58.957,4.437,83.968c10.163-15.855,31.249-20.471,47.104-10.317c9.796,6.272,15.71,17.109,15.701,28.749   h36.608c4.403-3.994,9.796-6.733,15.616-7.936c3.149-13.218,13.841-23.305,27.221-25.685c1.946-0.35,3.917-0.521,5.888-0.512   c18.85-0.009,34.125,15.266,34.133,34.116c0,0.009,0,0.017,0,0.017h36.523c4.42-3.959,9.805-6.699,15.616-7.936   c2.287-9.532,8.525-17.63,17.152-22.272c2.918-1.468,6.016-2.56,9.216-3.243c2.244-0.444,4.531-0.674,6.827-0.683   c18.85-0.009,34.125,15.266,34.133,34.116c0,0.009,0,0.017,0,0.017h36.523c4.42-3.959,9.805-6.699,15.616-7.936   c4.378-18.33,22.793-29.645,41.122-25.259c8.337,1.988,15.625,7.049,20.403,14.165l0.427,0.683l0.853,1.365l4.523-0.085   c16.119-12.083,25.6-31.053,25.6-51.2C494.934,319.838,503.467,285.705,443.734,200.371z"/>
</g>
<path style="fill:#FF9801;" d="M468.907,345.267c0.068,8.422-1.621,16.759-4.949,24.491l-0.427-0.683  c-10.505-15.65-31.71-19.814-47.36-9.31c-7.117,4.779-12.177,12.066-14.165,20.403c-5.811,1.237-11.196,3.977-15.616,7.936h-36.523  c0.009-18.85-15.266-34.125-34.116-34.133c-0.009,0-0.017,0-0.017,0c-2.295,0.009-4.582,0.239-6.827,0.683  c-3.2,0.683-6.298,1.775-9.216,3.243c-8.627,4.642-14.865,12.74-17.152,22.272c-5.811,1.237-11.196,3.977-15.616,7.936H230.4  c0.009-18.85-15.266-34.125-34.116-34.133c-0.009,0-0.017,0-0.017,0c-1.971-0.009-3.942,0.162-5.888,0.512  c-13.38,2.381-24.073,12.467-27.221,25.685c-5.82,1.203-11.213,3.942-15.616,7.936h-36.608  c0.017-18.833-15.232-34.116-34.057-34.133c-11.631-0.009-22.468,5.905-28.749,15.701c-16.913-25.011-18.62-57.318-4.437-83.968  c-6.281-11.827-9.566-25.011-9.557-38.4c-0.043-15.556,4.437-30.797,12.885-43.861c0.043,0,0.085-0.034,0.085-0.085l0,0  c38.409-23.185,88.337-10.846,111.522,27.554c0.29,0.486,0.58,0.964,0.862,1.459c8.704-2.987,30.293-23.893,53.76-44.8  c8.363-7.424,16.896-14.848,25.259-21.504c23.125-18.517,62.805-23.893,103.765-5.632c-6.912,3.584-14.14,6.519-21.589,8.789  c-0.043-0.051-0.119-0.051-0.171,0l0,0c-22.801-2.287-45.423,5.794-61.611,22.016c-4.113,4.105-7.748,8.653-10.837,13.568v0.085  c-22.46,36.019-11.46,83.422,24.559,105.882c12.689,7.91,27.401,11.947,42.342,11.622c19.746-0.546,38.545-8.602,52.565-22.528  c16.222-16.188,24.303-38.81,22.016-61.611c0.051-0.043,0.051-0.119,0-0.171l0,0c3.251-10.769,7.962-21.052,13.995-30.549  c4.779,5.632,9.557,11.691,14.165,18.261C477.44,311.134,468.907,345.267,468.907,345.267z"/>
<path d="M401.067,396.638h-51.2c-4.71,0-8.533-3.814-8.533-8.525c0,0,0,0,0-0.009c0-14.14-11.46-25.6-25.6-25.6  c-14.14,0-25.6,11.46-25.6,25.6c0,4.71-3.814,8.533-8.525,8.533c0,0,0,0-0.009,0h-51.2c-4.71,0-8.533-3.814-8.533-8.525  c0,0,0,0,0-0.009c-0.017-14.131-11.469-25.583-25.6-25.6c-1.459-0.009-2.918,0.119-4.361,0.367  c-12.279,2.116-21.248,12.774-21.239,25.233c0,4.71-3.814,8.533-8.525,8.533c0,0,0,0-0.009,0h-51.2c-4.71,0-8.533-3.814-8.533-8.525  c0,0,0,0,0-0.009c0.017-14.114-11.409-25.583-25.523-25.6c-8.721-0.017-16.853,4.42-21.564,11.767  c-1.545,2.415-4.207,3.891-7.074,3.934c-2.859,0.017-5.547-1.382-7.177-3.738c-10.086-14.857-15.479-32.41-15.462-50.364  c0.017-13.269,2.935-26.377,8.559-38.4c-5.623-12.023-8.542-25.131-8.559-38.4c0-49.485,40.115-89.6,89.6-89.6  c29.039,0,56.286,14.08,73.088,37.769c7.509-5.53,19.678-16.546,30.729-26.547c12.518-11.332,26.709-24.183,40.192-34.953  c29.346-23.441,75.733-25.105,118.153-4.233c4.233,2.082,5.965,7.202,3.883,11.435c-0.41,0.836-0.956,1.604-1.621,2.261  c-15.795,15.753-35.191,27.418-56.516,33.971c-0.819,0.247-1.664,0.367-2.517,0.35c-0.29-0.017-0.606-0.017-0.905-0.043  c-37.478-3.652-70.81,23.774-74.462,61.252c-1.98,20.318,5.248,40.448,19.703,54.869c26.573,26.667,69.743,26.743,96.41,0.171  c0.051-0.051,0.111-0.102,0.162-0.162c14.396-14.396,21.581-34.492,19.558-54.75c-0.034-0.299-0.043-0.597-0.043-0.896  c-0.009-0.862,0.111-1.715,0.358-2.543c7.049-22.98,20.045-43.691,37.683-60.023l2.662-2.313c3.499-3.157,8.9-2.876,12.058,0.623  c0.026,0.026,0.051,0.051,0.068,0.077c5.999,6.844,11.631,14.003,16.87,21.453c56.218,80.316,54.076,117.478,52.753,125.235  c-0.239,22.699-11.119,43.972-29.397,57.446c-1.357,0.905-2.944,1.4-4.574,1.434l-4.523,0.085c-2.995,0.034-5.794-1.485-7.398-4.019  l-1.28-2.048c-8.021-11.648-23.962-14.583-35.61-6.571c-6.938,4.762-11.085,12.646-11.085,21.069  C409.6,392.815,405.786,396.638,401.067,396.638L401.067,396.638z M357.538,379.571h35.849c4.71-23.083,27.247-37.982,50.33-33.271  c9.6,1.963,18.236,7.159,24.448,14.737c11.648-10.53,18.27-25.506,18.227-41.199c0-0.632,0.068-1.263,0.205-1.886  c0.171-0.981,5.154-34.082-49.869-112.691c-3.243-4.599-6.605-9.054-10.052-13.295c-12.988,13.295-22.741,29.397-28.51,47.07  c3.695,46.925-31.36,87.962-78.285,91.648c-1.579,0.128-3.157,0.205-4.736,0.239c-23.305,0.461-45.79-8.576-62.293-25.028  c-33.331-33.237-33.408-87.202-0.171-120.533c17.638-17.69,42.146-26.743,67.038-24.781c13.935-4.463,26.914-11.477,38.281-20.693  c-39.117-14.925-71.433-5.939-88.166,7.407c-13.073,10.445-27.051,23.1-39.39,34.27c-21.495,19.465-34.057,30.618-42.146,33.425  c-3.874,1.357-8.158-0.239-10.197-3.797c-20.062-34.714-64.461-46.583-99.174-26.53c-33.886,19.584-46.148,62.515-27.708,97.041  c1.323,2.5,1.323,5.487,0,7.987c-10.837,20.361-11.426,44.638-1.587,65.502c18.176-15.002,45.065-12.425,60.058,5.751  c4.446,5.385,7.501,11.785,8.9,18.628h35.866c3.49-17.195,17.169-30.49,34.449-33.502c2.432-0.427,4.898-0.64,7.364-0.632  c20.267,0.026,37.726,14.285,41.805,34.133h35.849c4.719-23.091,27.255-37.982,50.347-33.271  C341.026,349.722,354.117,362.812,357.538,379.571z"/>
<path style="fill:#CFD8DC;" d="M497.238,121.865c-8.311,8.346-21.811,8.363-30.157,0.051c-0.017-0.017-0.034-0.034-0.051-0.051  c-0.998-1.033-1.911-2.142-2.731-3.328l-27.648,27.733c-3.072-11.836-12.314-21.077-24.149-24.149l27.733-27.648  c-1.186-0.819-2.296-1.732-3.328-2.731c-8.329-8.329-8.337-21.837-0.009-30.165s21.837-8.337,30.165-0.009  c8.038,8.038,8.363,20.975,0.734,29.406c8.747-7.91,22.238-7.228,30.148,1.51C505.558,100.907,505.25,113.818,497.238,121.865z"/>
<path d="M436.651,154.803c-3.891,0-7.296-2.637-8.26-6.409c-2.296-8.823-9.19-15.718-18.014-18.005  c-4.565-1.178-7.313-5.837-6.135-10.394c0.384-1.476,1.152-2.833,2.236-3.908l21.598-21.53c-8.926-11.895-7.731-28.544,2.807-39.04  c11.819-11.23,30.37-11.23,42.189,0c5.692,5.675,8.849,13.406,8.764,21.444c8.004,0.06,15.684,3.191,21.436,8.755  c11.614,11.665,11.614,30.524,0,42.189c-10.624,10.257-27.068,11.435-39.049,2.807l-21.53,21.589  C441.088,153.899,438.921,154.803,436.651,154.803z M427.256,119.467c4.796,3.157,8.9,7.262,12.058,12.049l18.944-19.004  c1.792-1.749,4.241-2.654,6.741-2.483c2.5,0.205,4.787,1.51,6.246,3.55c0.546,0.802,1.152,1.553,1.818,2.253  c5.069,4.864,13.073,4.864,18.133,0h0.009c4.949-5.001,4.941-13.056,0-18.057c-4.838-4.83-12.621-5.026-17.698-0.452  c-3.507,3.149-8.9,2.859-12.049-0.64c-2.918-3.243-2.918-8.175,0.009-11.418c4.582-5.077,4.378-12.851-0.452-17.69  c-5.069-4.787-12.988-4.787-18.057,0c-5.009,4.966-5.043,13.056-0.077,18.065c0.026,0.026,0.043,0.043,0.068,0.068  c0.7,0.666,1.451,1.28,2.253,1.818c3.84,2.739,4.727,8.064,1.988,11.904c-0.273,0.384-0.58,0.751-0.922,1.084L427.256,119.467z"/>
<path style="fill:#F57C00;" d="M427.862,179.209l-0.427,0.427c-0.768,0.683-1.621,1.365-2.389,2.048l-0.256,0.256  c-16.452,15.317-28.604,34.671-35.243,56.149c0.051,0.043,0.051,0.119,0,0.171l0,0c0.341,3.43,0.427,6.878,0.256,10.325  c-0.666,19.302-8.619,37.623-22.272,51.285c-29.926,30.063-78.566,30.174-108.629,0.247c-30.063-29.926-30.174-78.566-0.247-108.629  c16.239-16.316,38.946-24.482,61.858-22.263c0.043-0.051,0.119-0.051,0.171,0l0,0c19.959-6.153,38.118-17.075,52.907-31.829  c1.365-1.365,2.475-2.56,3.413-3.584c0.043-0.094,0.102-0.179,0.171-0.256c0.683-0.683,1.195-1.195,1.536-1.621  c0.239-0.375,0.521-0.725,0.853-1.024c8.619-8.61,21.18-11.964,32.939-8.789c11.836,3.072,21.077,12.314,24.149,24.149  C439.825,158.029,436.48,170.59,427.862,179.209z"/>
<path style="fill:#FF9801;" d="M425.046,181.683l-0.256,0.256c-16.452,15.317-28.604,34.671-35.243,56.149  c0.051,0.043,0.051,0.119,0,0.171l0,0c0.341,3.43,0.427,6.878,0.256,10.325c-4.796,8.294-8.636,17.118-11.435,26.283  c0.051,0.043,0.051,0.119,0,0.171l0,0c0.341,3.575,0.427,7.168,0.256,10.752c-3.123,5.12-6.844,9.847-11.093,14.08  c-30.003,29.995-78.643,29.995-108.646-0.017c-15.181-15.189-23.322-36.045-22.426-57.498c3.149-5.222,6.938-10.035,11.264-14.336  c16.188-16.222,38.81-24.303,61.611-22.016c0.043-0.051,0.119-0.051,0.171,0l0,0c19.959-6.153,38.118-17.075,52.907-31.829  c1.365-1.365,2.475-2.56,3.413-3.584c0.043-0.094,0.102-0.179,0.171-0.256c0.683-0.683,1.195-1.195,1.536-1.621  c0.239-0.375,0.521-0.725,0.853-1.024c8.619-8.619,21.18-11.964,32.939-8.789C412.664,161.826,421.658,170.471,425.046,181.683z"/>
<path d="M313.293,330.948c-47.113,0.119-85.402-37.982-85.521-85.094c-0.119-47.113,37.982-85.402,85.094-85.521  c2.295-0.009,4.582,0.085,6.869,0.256c18.022-5.828,34.406-15.846,47.821-29.227c1.092-1.092,2.005-2.074,2.807-2.935  c0.282-0.375,0.597-0.725,0.93-1.058c0.188-0.188,0.427-0.418,0.623-0.631c0.478-0.657,1.007-1.271,1.587-1.835  c10.795-10.752,26.496-14.95,41.216-11.025c14.805,3.874,26.359,15.454,30.199,30.268c3.908,14.677-0.282,30.327-11.008,41.079  l-0.222,0.222l-3.174,2.816c-14.882,13.926-26.01,31.386-32.333,50.765c3.695,46.925-31.36,87.962-78.285,91.648  c-1.579,0.128-3.157,0.205-4.736,0.239C314.539,330.94,313.916,330.948,313.293,330.948z M313.003,177.391  c-37.658,0.043-68.139,30.609-68.096,68.267c0.026,18.082,7.228,35.405,20.019,48.179c26.573,26.667,69.743,26.743,96.41,0.171  c0.051-0.051,0.111-0.102,0.162-0.162c14.396-14.396,21.581-34.492,19.558-54.75c-0.034-0.299-0.043-0.597-0.043-0.896  c-0.009-0.862,0.111-1.715,0.358-2.543c7.049-22.98,20.045-43.691,37.683-60.023l2.662-2.313l6.144,5.897l-6.033-6.033  c6.434-6.468,8.943-15.872,6.579-24.687c-2.27-8.866-9.182-15.804-18.039-18.099c-8.806-2.389-18.21,0.077-24.704,6.494  c-0.094,0.137-0.196,0.273-0.307,0.41c-0.393,0.486-0.922,1.058-1.621,1.766c-0.145,0.179-0.29,0.358-0.444,0.538  c-1.007,1.092-2.193,2.364-3.652,3.831c-15.795,15.761-35.2,27.426-56.525,33.98c-0.819,0.247-1.664,0.367-2.517,0.35  c-0.299,0-0.606-0.009-0.905-0.043C317.457,177.494,315.222,177.391,313.003,177.391z M386.04,136.303L386.04,136.303  L386.04,136.303z"/>
<g>
</g>
<g>
</g>
<g>
</g>
<g>
</g>
<g>
</g>
<g>
</g>
<g>
</g>
<g>
</g>
<g>
</g>
<g>
</g>
<g>
</g>
<g>
</g>
<g>
</g>
<g>
</g>
<g>
</g>
</svg>
