<?xml version="1.0" encoding="iso-8859-1"?>
<!-- Generator: Adobe Illustrator 19.0.0, SVG Export Plug-In . SVG Version: 6.00 Build 0)  -->
<svg xmlns="http://www.w3.org/2000/svg" xmlns:xlink="http://www.w3.org/1999/xlink" version="1.1" id="Capa_1" x="0px" y="0px" viewBox="0 0 511.991 511.991" style="enable-background:new 0 0 511.991 511.991;" xml:space="preserve">
<path style="fill:#AD1457;" d="M247.467,255.953c0,98.56-44.288,180.224-101.973,194.133c-5.717,1.442-11.597,2.159-17.493,2.133  c-65.963,0-119.467-87.893-119.467-196.267c0-77.995,27.733-145.408,67.84-177.067C90.914,66.82,109.116,60.053,128,59.686  C193.963,59.686,247.467,147.58,247.467,255.953z"/>
<path style="fill:#E91E63;" d="M213.333,273.02c0,77.995-27.733,145.408-67.84,177.067c-5.717,1.442-11.597,2.159-17.493,2.133  c-65.963,0-119.467-87.893-119.467-196.267c0-77.995,27.733-145.408,67.84-177.067c5.717-1.442,11.597-2.159,17.493-2.133  C159.829,76.753,213.333,164.646,213.333,273.02z"/>
<path d="M128,460.753c-70.579,0-128-91.878-128-204.8s57.421-204.8,128-204.8s128,91.878,128,204.8S198.579,460.753,128,460.753z   M128,68.22c-61.167,0-110.933,84.215-110.933,187.733S66.833,443.686,128,443.686s110.933-84.215,110.933-187.733  S189.167,68.22,128,68.22z"/>
<ellipse style="fill:#CFD8DC;" cx="153.941" cy="307.153" rx="25.967" ry="42.667"/>
<path d="M153.967,358.353c-19.354,0-34.5-22.494-34.5-51.2s15.155-51.2,34.5-51.2s34.5,22.494,34.5,51.2  C188.476,335.859,173.321,358.353,153.967,358.353z M153.967,273.02c-8.235,0-17.434,14.601-17.434,34.133  s9.207,34.133,17.434,34.133s17.434-14.601,17.434-34.133C171.409,287.62,162.202,273.02,153.967,273.02z"/>
<g>
	<path style="fill:#4E342E;" d="M401.067,307.58c0.051,11.273-0.691,22.537-2.219,33.707C381.696,459.473,268.885,452.22,128,452.22   c65.963,0,119.467-87.893,119.467-196.267S193.963,59.686,128,59.686c146.603,0,262.741,101.717,272.384,230.4   C400.811,295.889,401.067,301.692,401.067,307.58z"/>
	<path style="fill:#4E342E;" d="M401.067,307.58c0.051,11.273-0.691,22.537-2.219,33.707c-6.741,46.677-28.501,73.813-60.928,89.515   c-44.885,21.675-110.251,21.675-185.173,21.504c-8.192-0.085-16.384-0.085-24.747-0.085c11.042-0.017,21.948-2.492,31.915-7.253   c50.517-22.869,87.552-98.816,87.552-189.013c0-59.904-16.299-113.493-42.24-149.504C184.491,77.35,157.44,59.686,128,59.686   c146.603,0,262.741,101.717,272.384,230.4C400.811,295.889,401.067,301.692,401.067,307.58z"/>
</g>
<path id="SVGCleanerId_0" style="fill:#795548;" d="M366.933,333.18c0.051,11.273-0.691,22.536-2.219,33.707  c-2.509,23.458-11.819,45.679-26.795,63.915c-44.885,21.675-110.251,21.675-185.173,21.504c2.475-2.304,4.864-4.779,7.168-7.339  c50.517-22.869,87.552-98.816,87.552-189.013c0-59.904-16.299-113.493-42.24-149.504c90.539,36.181,154.027,115.541,161.024,209.237  C366.677,321.489,366.933,327.292,366.933,333.18z"/>
<g>
	<path id="SVGCleanerId_0_1_" style="fill:#795548;" d="M366.933,333.18c0.051,11.273-0.691,22.536-2.219,33.707   c-2.509,23.458-11.819,45.679-26.795,63.915c-44.885,21.675-110.251,21.675-185.173,21.504c2.475-2.304,4.864-4.779,7.168-7.339   c50.517-22.869,87.552-98.816,87.552-189.013c0-59.904-16.299-113.493-42.24-149.504   c90.539,36.181,154.027,115.541,161.024,209.237C366.677,321.489,366.933,327.292,366.933,333.18z"/>
</g>
<path id="SVGCleanerId_1" d="M172.151,460.838c-6.963,0-13.986-0.017-21.06-0.043L128,460.753c-4.71,0-8.533-3.823-8.533-8.533  s3.823-8.533,8.533-8.533c61.167,0,110.933-84.215,110.933-187.733S189.167,68.22,128,68.22c-4.71,0-8.533-3.823-8.533-8.533  s3.823-8.533,8.533-8.533c149.956,0,270.711,102.443,280.892,238.293c0.478,6.502,0.708,12.425,0.708,18.133  c0.043,11.674-0.725,23.339-2.304,34.91C390.98,454.916,291.234,460.838,172.151,460.838z M186.615,73.911  C227.789,107.985,256,176.806,256,255.953c0,83.925-31.71,156.22-76.971,187.819c115.533-0.179,197.333-6.997,211.379-103.706  c1.468-10.769,2.176-21.623,2.125-32.486c0-5.282-0.213-10.803-0.666-16.87C383.727,182.029,299.281,96.243,186.615,73.911z"/>
<g>
	<path style="fill:#607D8B;" d="M503.467,345.553c-2.526,18.85-19.857,32.085-38.707,29.559   c-15.394-2.065-27.503-14.174-29.559-29.559c-0.017-1.434,0.094-2.859,0.341-4.267h-36.693c1.527-11.17,2.27-22.434,2.219-33.707   c0-5.888-0.256-11.691-0.683-17.493h35.157c-0.247-1.408-0.358-2.833-0.341-4.267c2.526-18.85,19.857-32.085,38.707-29.559   c15.394,2.065,27.503,14.174,29.559,29.559c-1.263,17.63-16.486,30.959-34.133,29.867   C486.98,314.594,502.204,327.923,503.467,345.553z"/>
	<path style="fill:#607D8B;" d="M503.467,345.553c-0.905,15.607-13.175,28.169-28.757,29.44c-1.775,0.273-3.575,0.418-5.376,0.427   c-17.647,1.092-32.87-12.237-34.133-29.867c-0.017-1.434,0.094-2.859,0.341-4.267h-36.693c1.527-11.17,2.27-22.434,2.219-33.707   v-0.427c0-5.717-0.256-11.435-0.683-17.067h35.157c-0.247-1.408-0.358-2.833-0.341-4.267c-0.009-4.326,1.075-8.585,3.157-12.373   c6.272-11.136,18.202-17.869,30.976-17.493c17.647-1.092,32.87,12.237,34.133,29.867c-0.905,15.607-13.175,28.169-28.757,29.44   c-1.775,0.316-3.575,0.461-5.376,0.427C486.613,315.627,501.231,328.427,503.467,345.553z"/>
</g>
<path style="fill:#CFD8DC;" d="M477.867,362.62c0.009,4.326-1.075,8.585-3.157,12.373c-1.775,0.273-3.575,0.418-5.376,0.427  c-17.647,1.092-32.87-12.237-34.133-29.867c-0.017-1.434,0.094-2.859,0.341-4.267h-36.693c1.527-11.17,2.27-22.434,2.219-33.707  v-0.427h8.875c-0.247-1.408-0.358-2.833-0.341-4.267c0-4.48,1.143-8.883,3.328-12.8h22.613c-0.247-1.408-0.358-2.833-0.341-4.267  c-0.009-4.326,1.075-8.585,3.157-12.373c1.775-0.316,3.575-0.461,5.376-0.427c17.647-1.092,32.87,12.237,34.133,29.867  c0.009,4.326-1.075,8.585-3.157,12.373c-0.077,0.29-0.222,0.555-0.427,0.768c-6.434,10.658-18.099,17.05-30.549,16.725  C461.38,331.661,476.604,344.99,477.867,362.62z"/>
<path id="SVGCleanerId_2" d="M469.333,383.953c-20.685,0.836-38.801-13.747-42.402-34.133h-28.083  c-4.719-0.009-8.542-3.831-8.533-8.55c0-0.393,0.026-0.794,0.085-1.186c1.468-10.769,2.185-21.632,2.133-32.512  c0-5.282-0.213-10.803-0.666-16.87c-0.341-4.702,3.191-8.798,7.893-9.139c0.205-0.017,0.41-0.026,0.614-0.026h26.547  c3.601-20.386,21.717-34.97,42.402-34.133c22.357-1.092,41.404,16.051,42.667,38.4c-0.171,11.93-6.084,23.049-15.881,29.867  c9.796,6.818,15.71,17.937,15.881,29.867C510.737,367.902,491.691,385.045,469.333,383.953z M408.448,332.753h27.093  c4.71,0,8.533,3.823,8.533,8.533c0,0.529-0.051,1.058-0.145,1.579c-0.145,0.887-0.213,1.783-0.188,2.679  c2.594,14.14,16.154,23.501,30.293,20.907c10.633-1.946,18.961-10.274,20.907-20.907c-1.297-12.902-12.681-22.391-25.6-21.333  c-4.71,0-8.533-3.823-8.533-8.533s3.823-8.533,8.533-8.533c12.919,1.05,24.303-8.431,25.6-21.333  c-2.594-14.14-16.154-23.501-30.293-20.907c-10.633,1.946-18.961,10.274-20.907,20.907c-0.017,0.896,0.043,1.801,0.188,2.679  c0.87,4.634-2.176,9.097-6.801,9.967c-0.521,0.102-1.05,0.145-1.579,0.145h-26.121c0.128,3.072,0.179,6.042,0.179,8.96  C409.6,316.326,409.216,324.757,408.448,332.753z"/>
<g>
	<path id="SVGCleanerId_1_1_" d="M172.151,460.838c-6.963,0-13.986-0.017-21.06-0.043L128,460.753c-4.71,0-8.533-3.823-8.533-8.533   s3.823-8.533,8.533-8.533c61.167,0,110.933-84.215,110.933-187.733S189.167,68.22,128,68.22c-4.71,0-8.533-3.823-8.533-8.533   s3.823-8.533,8.533-8.533c149.956,0,270.711,102.443,280.892,238.293c0.478,6.502,0.708,12.425,0.708,18.133   c0.043,11.674-0.725,23.339-2.304,34.91C390.98,454.916,291.234,460.838,172.151,460.838z M186.615,73.911   C227.789,107.985,256,176.806,256,255.953c0,83.925-31.71,156.22-76.971,187.819c115.533-0.179,197.333-6.997,211.379-103.706   c1.468-10.769,2.176-21.623,2.125-32.486c0-5.282-0.213-10.803-0.666-16.87C383.727,182.029,299.281,96.243,186.615,73.911z"/>
</g>
<g>
	<path id="SVGCleanerId_2_1_" d="M469.333,383.953c-20.685,0.836-38.801-13.747-42.402-34.133h-28.083   c-4.719-0.009-8.542-3.831-8.533-8.55c0-0.393,0.026-0.794,0.085-1.186c1.468-10.769,2.185-21.632,2.133-32.512   c0-5.282-0.213-10.803-0.666-16.87c-0.341-4.702,3.191-8.798,7.893-9.139c0.205-0.017,0.41-0.026,0.614-0.026h26.547   c3.601-20.386,21.717-34.97,42.402-34.133c22.357-1.092,41.404,16.051,42.667,38.4c-0.171,11.93-6.084,23.049-15.881,29.867   c9.796,6.818,15.71,17.937,15.881,29.867C510.737,367.902,491.691,385.045,469.333,383.953z M408.448,332.753h27.093   c4.71,0,8.533,3.823,8.533,8.533c0,0.529-0.051,1.058-0.145,1.579c-0.145,0.887-0.213,1.783-0.188,2.679   c2.594,14.14,16.154,23.501,30.293,20.907c10.633-1.946,18.961-10.274,20.907-20.907c-1.297-12.902-12.681-22.391-25.6-21.333   c-4.71,0-8.533-3.823-8.533-8.533s3.823-8.533,8.533-8.533c12.919,1.05,24.303-8.431,25.6-21.333   c-2.594-14.14-16.154-23.501-30.293-20.907c-10.633,1.946-18.961,10.274-20.907,20.907c-0.017,0.896,0.043,1.801,0.188,2.679   c0.87,4.634-2.176,9.097-6.801,9.967c-0.521,0.102-1.05,0.145-1.579,0.145h-26.121c0.128,3.072,0.179,6.042,0.179,8.96   C409.6,316.326,409.216,324.757,408.448,332.753z"/>
</g>
<path d="M142.242,277.628c-3.994-0.009-7.45-2.773-8.32-6.673c-10.701-48.819-54.076-83.524-104.055-83.268  c-3.678-0.017-7.356,0.162-11.008,0.546c-4.745,0.486-8.986-2.97-9.472-7.714c-0.026-0.256-0.043-0.512-0.043-0.768  c-0.026-4.693,3.763-8.508,8.448-8.533c0.009,0,0.026,0,0.034,0c3.994-0.435,8.013-0.631,12.032-0.597  c57.993-0.299,108.297,39.97,120.713,96.614c1.024,4.608-1.886,9.165-6.494,10.189C143.479,277.559,142.865,277.628,142.242,277.628  z"/>
<path d="M167.339,279.164c-4.71,0-8.533-3.823-8.533-8.533c0-2.227,0.87-4.361,2.423-5.956  C188.51,236.71,204.8,190.391,204.8,140.753c0-7.612-0.384-15.428-1.152-23.236c-0.461-4.693,2.97-8.866,7.654-9.327  s8.866,2.97,9.327,7.654l0,0c0.819,8.371,1.237,16.742,1.237,24.909c0,53.99-18.099,104.764-48.418,135.834  C171.844,278.234,169.634,279.164,167.339,279.164z"/>
<path d="M69.043,435.153c-0.333,0-0.657-0.017-0.99-0.06c-4.676-0.538-8.038-4.762-7.509-9.438v-0.009  c4.702-42.812,32.913-79.411,73.122-94.84c4.42-1.621,9.327,0.649,10.948,5.069c1.621,4.42-0.649,9.327-5.069,10.948l0,0  c-34.167,13.193-58.112,44.356-62.046,80.777C77.013,431.902,73.378,435.145,69.043,435.153z"/>
<path d="M231.595,362.116c-1.877,0-3.695-0.614-5.18-1.758c-14.95-11.571-33.143-18.185-52.045-18.91  c-4.71-0.171-8.388-4.122-8.218-8.832c0,0,0,0,0-0.009c0.085-4.634,3.908-8.311,8.542-8.226c0.102,0,0.196,0.009,0.299,0.009  c22.426,0.845,44.032,8.678,61.79,22.409c3.746,2.867,4.454,8.218,1.596,11.964C236.757,360.879,234.249,362.116,231.595,362.116  L231.595,362.116z"/>
<g>
</g>
<g>
</g>
<g>
</g>
<g>
</g>
<g>
</g>
<g>
</g>
<g>
</g>
<g>
</g>
<g>
</g>
<g>
</g>
<g>
</g>
<g>
</g>
<g>
</g>
<g>
</g>
<g>
</g>
</svg>
