<?xml version="1.0" encoding="iso-8859-1"?>
<!-- Generator: Adobe Illustrator 19.0.0, SVG Export Plug-In . SVG Version: 6.00 Build 0)  -->
<svg xmlns="http://www.w3.org/2000/svg" xmlns:xlink="http://www.w3.org/1999/xlink" version="1.1" id="Capa_1" x="0px" y="0px" viewBox="0 0 511.999 511.999" style="enable-background:new 0 0 511.999 511.999;" xml:space="preserve">
<g>
	<path style="fill:#F57C00;" d="M358.385,110.894c0.034,32.774-15.641,63.586-42.152,82.853l-0.171,0.085   c-2.56,1.792-5.12,3.498-7.765,5.205c-32.279,19.002-72.332,19.002-104.612,0c-2.645-1.707-5.29-3.413-7.85-5.205   c-45.795-33.21-55.992-97.248-22.782-143.043s97.248-55.992,143.043-22.782C342.65,47.265,358.376,78.086,358.385,110.894z"/>
	<path style="fill:#F57C00;" d="M481.001,219.772l-122.616,44.626v0.085c-15.999,31.742-19.054,68.441-8.533,102.393l-0.597,0.683   l68.689,57.938l12.117,10.154c16.17,13.712,18.158,37.945,4.446,54.115c-13.652,16.101-37.749,18.149-53.936,4.591l-4.778-4.01   l-83.365-70.139l-2.304-2.133h-68.262l-2.304,2.133l-88.143,74.15c-16.255,13.618-40.462,11.485-54.081-4.77   c-13.559-16.187-11.511-40.275,4.591-53.936l80.805-68.091l-0.597-0.683c10.436-33.858,7.441-70.429-8.362-102.137l-0.085-0.085   L30.983,219.943c-17.714-6.451-26.853-26.042-20.402-43.756c4.923-13.516,17.791-22.501,32.177-22.458   c3.959,0.017,7.884,0.708,11.605,2.048l141.473,38.056c2.56,1.792,5.205,3.498,7.85,5.205c32.279,19.002,72.332,19.002,104.612,0   c2.645-1.707,5.205-3.413,7.765-5.205l0.171-0.085l141.388-38.141c3.72-1.34,7.645-2.031,11.605-2.048   c18.857-0.051,34.182,15.188,34.233,34.037C503.501,201.981,494.517,214.849,481.001,219.772z"/>
	<path style="fill:#F57C00;" d="M358.385,119.427c0.043,32.177-15.069,62.494-40.787,81.829c-0.427,0.341-0.939,0.683-1.365,1.024   l-0.171,0.085c-2.56,1.792-5.12,3.498-7.765,5.205c-13.61,8.072-28.926,12.833-44.712,13.908c-2.526,0.247-5.06,0.358-7.594,0.341   c-18.397,0.026-36.461-4.898-52.306-14.25c-2.645-1.707-5.29-3.413-7.85-5.205c-45.787-33.21-55.992-97.248-22.782-143.043   S270.301,3.33,316.096,36.54C342.65,55.798,358.376,86.619,358.385,119.427z"/>
	<path style="fill:#F57C00;" d="M481.001,228.305l-122.616,44.626v0.085c-15.999,31.742-19.054,68.441-8.533,102.393l-0.597,0.683   l68.689,57.937l12.117,10.154c16.255,13.618,18.388,37.834,4.77,54.081c-13.618,16.246-37.834,18.388-54.081,4.77   c-0.06-0.051-0.119-0.102-0.179-0.154l-4.778-4.01l-83.365-70.139l-2.304-2.133h-68.262l-2.304,2.133l-7.594,6.4l-80.549,67.75   c-9.284,7.816-21.716,10.785-33.534,8.021c-20.641-4.855-33.44-25.53-28.576-46.171c1.886-8.029,6.314-15.24,12.62-20.555   l80.805-68.091l-0.597-0.683c10.436-33.858,7.441-70.429-8.362-102.137l-0.085-0.085L30.983,228.467   c-17.697-6.485-26.81-26.059-20.393-43.773c1.732-4.642,4.437-8.866,7.935-12.373c6.417-6.451,15.137-10.077,24.233-10.069   c3.959,0.017,7.884,0.708,11.605,2.048l141.473,38.056c2.56,1.792,5.205,3.498,7.85,5.205c15.845,9.352,33.909,14.275,52.306,14.25   c2.56,0,5.034-0.085,7.509-0.256l0.085-0.085c15.786-1.075,31.102-5.836,44.712-13.908c2.645-1.707,5.205-3.413,7.765-5.205   l0.171-0.085L433.132,170.7l24.489-6.57c3.72-1.34,7.645-2.031,11.605-2.048c18.857-0.051,34.182,15.188,34.233,34.037   C503.501,210.514,494.517,223.382,481.001,228.305z"/>
</g>
<g>
	<path style="fill:#FF9801;" d="M324.254,127.96c0.034,32.774-15.641,63.586-42.152,82.853l-0.171,0.085   c-2.56,1.792-5.12,3.498-7.765,5.205c-3.396,2.048-6.929,3.84-10.581,5.376c-2.526,0.247-5.06,0.358-7.594,0.341   c-18.397,0.026-36.461-4.898-52.306-14.25c-2.645-1.707-5.29-3.413-7.85-5.205c-45.795-33.286-55.932-97.393-22.646-143.188   c10.521-14.48,24.66-25.948,40.991-33.269c2.56-0.256,5.12-0.341,7.679-0.341C278.399,25.55,324.237,71.37,324.254,127.9   C324.254,127.917,324.254,127.943,324.254,127.96z"/>
	<path style="fill:#FF9801;" d="M446.87,236.838l-122.616,44.626v0.085c-15.999,31.742-19.054,68.441-8.533,102.393l-0.597,0.683   l68.689,57.938l12.117,10.154c16.204,13.669,18.269,37.885,4.608,54.098c-1.246,1.451-2.585,2.816-4.01,4.096   c-5.871-1.391-11.332-4.138-15.956-8.021l-4.778-4.01l-83.365-70.139l-2.304-2.133h-68.262l-2.304,2.133l-7.594,6.4h-24.233   l-2.304,2.133L97.879,510.91c-20.641-4.855-33.44-25.53-28.576-46.171c1.886-8.029,6.314-15.24,12.62-20.555l80.805-68.091   l-0.597-0.683c10.436-33.858,7.441-70.429-8.362-102.137l-0.085-0.085L30.983,228.476c-17.697-6.485-26.81-26.059-20.393-43.773   c1.732-4.642,4.437-8.866,7.935-12.373c0.58,0.128,1.152,0.299,1.707,0.512l141.473,38.056c2.56,1.792,5.205,3.498,7.85,5.205   c28.61,16.844,63.578,18.874,93.946,5.461l0.085-0.085c3.652-1.536,7.185-3.328,10.581-5.376c2.645-1.707,5.205-3.413,7.765-5.205   l0.171-0.085l35.496-9.557l105.892-28.585c3.106-1.109,6.348-1.775,9.642-1.963c0.648-0.068,1.306-0.102,1.963-0.085   c18.857-0.051,34.182,15.188,34.233,34.037C469.37,219.047,460.385,231.914,446.87,236.838z"/>
</g>
<path d="M255.992,187.689c-20.376,0.043-39.916-8.063-54.277-22.509c-3.319-3.353-3.285-8.755,0.06-12.074  c3.328-3.285,8.678-3.294,12.006,0c23.252,23.312,61.001,23.363,84.312,0.119c0.043-0.043,0.077-0.077,0.119-0.119  c3.353-3.311,8.755-3.277,12.074,0.077c3.285,3.328,3.285,8.678,0,11.997C295.908,179.626,276.359,187.732,255.992,187.689z"/>
<g>
	<circle style="fill:#2296F3;" cx="213.319" cy="93.829" r="17.066"/>
	<circle style="fill:#2296F3;" cx="298.647" cy="93.829" r="17.066"/>
</g>
<path d="M213.328,119.427c-14.139,0-25.598-11.46-25.598-25.598s11.46-25.598,25.598-25.598c14.139,0,25.598,11.46,25.598,25.598  C238.909,107.959,227.458,119.41,213.328,119.427z M213.328,85.296c-4.71,0-8.533,3.823-8.533,8.533c0,4.71,3.823,8.533,8.533,8.533  s8.533-3.823,8.533-8.533C221.852,89.119,218.038,85.296,213.328,85.296z"/>
<path d="M298.655,119.427c-14.139,0-25.598-11.46-25.598-25.598s11.46-25.598,25.598-25.598s25.598,11.46,25.598,25.598  C324.237,107.959,312.786,119.41,298.655,119.427z M298.655,85.296c-4.71,0-8.533,3.823-8.533,8.533c0,4.71,3.823,8.533,8.533,8.533  c4.71,0,8.533-3.823,8.533-8.533C307.18,89.119,303.366,85.296,298.655,85.296z"/>
<path d="M255.992,221.82c-19.915,0-39.473-5.324-56.64-15.427l-0.776-0.495c-2.577-1.664-5.154-3.336-7.645-5.086  C141.294,164.89,130.185,95.535,166.107,45.9s105.286-60.745,154.921-24.822s60.745,105.277,24.822,154.912  c-6.843,9.463-15.146,17.782-24.583,24.651c-0.239,0.179-0.495,0.341-0.759,0.495c-2.492,1.741-5,3.405-7.577,5.068  C295.686,216.41,276.027,221.803,255.992,221.82z M255.992,17.034c-51.862,0.026-93.886,42.092-93.86,93.963  c0.017,30.052,14.412,58.279,38.722,75.933c2.201,1.544,4.599,3.089,6.988,4.642c29.703,17.253,66.368,17.296,96.122,0.119  c2.253-1.459,4.727-3.106,7.202-4.838c0.171-0.119,0.333-0.23,0.512-0.333c41.742-30.769,50.633-89.56,19.864-131.302  C313.844,31.215,285.805,17.042,255.992,17.034z"/>
<path d="M106.736,511.926c-1.348,0-2.696-0.06-4.062-0.171c-25.82-2.21-44.968-24.933-42.766-50.753  c1.058-12.39,6.988-23.858,16.494-31.87l77.768-65.532c9.113-30.445,6.818-63.16-6.468-92.034L28.056,227.955  C5.913,219.866-5.469,195.36,2.62,173.218c8.072-22.083,32.476-33.474,54.593-25.487l140.842,37.86  c0.964,0.256,1.869,0.683,2.679,1.254c2.312,1.621,4.719,3.174,7.108,4.719c29.703,17.253,66.368,17.296,96.122,0.119  c2.253-1.459,4.727-3.106,7.202-4.838c0.393-0.273,0.802-0.521,1.237-0.717c0.521-0.247,1.067-0.452,1.613-0.614l141.379-38.141  c4.446-1.561,9.122-2.355,13.832-2.346c23.568-0.051,42.715,19.011,42.758,42.578c0.034,17.961-11.169,34.02-28.047,40.181h-0.026  l-119.476,43.491c-13.243,28.977-15.606,61.752-6.647,92.325l77.751,65.506c19.822,16.699,22.347,46.307,5.649,66.129  c-16.699,19.822-46.307,22.347-66.129,5.649l-88.271-74.278h-61.598L136.9,500.884C128.478,508.018,117.786,511.934,106.736,511.926  z M171.159,366.237c0.452,2.952-0.657,5.922-2.935,7.85L87.41,442.179c-12.594,10.649-14.173,29.489-3.524,42.075  c10.632,12.569,29.421,14.164,42.024,3.575l90.14-76.01c1.579-1.459,3.652-2.278,5.802-2.278h68.262c2.15,0,4.224,0.811,5.802,2.278  l2.304,2.133l87.836,73.877c12.603,10.632,31.443,9.036,42.075-3.567c10.632-12.603,9.036-31.443-3.567-42.075l0,0l-80.814-68.091  c-2.278-1.928-3.388-4.906-2.935-7.85c-10.12-35.206-6.562-72.938,9.958-105.636c0.964-1.954,2.645-3.464,4.693-4.215  l122.599-44.626c13.294-4.83,20.163-19.514,15.333-32.817c-4.83-13.294-19.514-20.163-32.817-15.333  c-0.034,0.017-0.077,0.026-0.111,0.043L319.8,201.632c-2.27,1.57-4.539,3.072-6.877,4.582  c-35.087,20.427-78.425,20.496-113.58,0.188l-0.776-0.495c-2.142-1.391-4.292-2.782-6.382-4.215l-140.04-37.681  c-3.004-1.118-6.186-1.715-9.395-1.758c-14.139-0.051-25.649,11.366-25.701,25.504c-0.043,10.794,6.69,20.453,16.835,24.156  l122.718,44.72c1.169,0.427,2.227,1.101,3.106,1.98c0.572,0.563,1.058,1.203,1.468,1.903  C177.635,293.265,181.202,330.988,171.159,366.237L171.159,366.237z"/>
<path d="M153.675,273.187c-2.338,0-4.574-0.956-6.186-2.654c-1.536-1.647-2.406-3.806-2.432-6.05  c0.06-4.744,3.959-8.541,8.703-8.482c4.744,0.06,8.541,3.959,8.482,8.703C162.182,269.399,158.368,273.17,153.675,273.187z"/>
<g>
	<circle style="fill:#E91E63;" cx="255.983" cy="281.549" r="17.066"/>
	<circle style="fill:#E91E63;" cx="255.983" cy="349.812" r="17.066"/>
</g>
<path d="M255.992,307.148c-14.139,0-25.598-11.459-25.598-25.598c0-14.139,11.46-25.598,25.598-25.598s25.598,11.46,25.598,25.598  C281.573,295.68,270.122,307.131,255.992,307.148z M255.992,273.017c-4.71,0-8.533,3.823-8.533,8.533  c0,4.71,3.823,8.533,8.533,8.533s8.533-3.823,8.533-8.533C264.516,276.839,260.702,273.017,255.992,273.017z"/>
<path d="M255.992,375.41c-14.139,0-25.598-11.459-25.598-25.598c0-14.139,11.46-25.598,25.598-25.598s25.598,11.46,25.598,25.598  C281.573,363.942,270.122,375.393,255.992,375.41z M255.992,341.279c-4.71,0-8.533,3.823-8.533,8.533  c0,4.71,3.823,8.533,8.533,8.533s8.533-3.823,8.533-8.533C264.516,345.102,260.702,341.279,255.992,341.279z"/>
<path d="M34.14,255.951c-4.71,0-8.533-3.814-8.533-8.524c0,0,0,0,0-0.009c-1.229-41.282,15.504-81.061,45.864-109.057  c3.678-2.952,9.045-2.364,11.997,1.314c2.952,3.678,2.364,9.045-1.314,11.997l0,0c-1.698,1.374-39.481,32.8-39.481,95.746  C42.673,252.129,38.85,255.951,34.14,255.951L34.14,255.951z"/>
<path d="M153.59,511.934c-1.655,0-3.268-0.478-4.65-1.382c-35.266-21.494-59.465-57.229-66.342-97.948  c-0.444-4.693,2.995-8.857,7.688-9.301c4.667-0.444,8.814,2.961,9.292,7.628c0.23,2.244,5.973,51,58.68,85.328  c3.951,2.568,5.068,7.859,2.492,11.809C159.17,510.475,156.474,511.934,153.59,511.934z"/>
<path d="M358.393,511.934c-4.71,0.009-8.533-3.814-8.541-8.524c0-2.884,1.459-5.58,3.874-7.159  c52.801-34.396,58.466-83.271,58.68-85.336c0.469-4.693,4.642-8.115,9.335-7.645c4.693,0.469,8.115,4.642,7.645,9.335l0,0  c-6.877,40.718-31.085,76.454-66.342,97.948C361.661,511.456,360.04,511.934,358.393,511.934z"/>
<path d="M477.843,255.951c-4.71,0-8.533-3.814-8.533-8.524c0,0,0,0,0-0.009c1.067-36.068-13.286-70.89-39.464-95.729  c-3.686-2.935-4.301-8.302-1.365-11.989c2.935-3.686,8.302-4.301,11.989-1.365c0.017,0.009,0.026,0.026,0.043,0.034  c30.36,27.996,47.092,67.776,45.864,109.057C486.376,252.129,482.554,255.951,477.843,255.951L477.843,255.951z"/>
<g>
</g>
<g>
</g>
<g>
</g>
<g>
</g>
<g>
</g>
<g>
</g>
<g>
</g>
<g>
</g>
<g>
</g>
<g>
</g>
<g>
</g>
<g>
</g>
<g>
</g>
<g>
</g>
<g>
</g>
</svg>
