<?xml version="1.0" encoding="iso-8859-1"?>
<!-- Generator: Adobe Illustrator 19.0.0, SVG Export Plug-In . SVG Version: 6.00 Build 0)  -->
<svg xmlns="http://www.w3.org/2000/svg" xmlns:xlink="http://www.w3.org/1999/xlink" version="1.1" id="Capa_1" x="0px" y="0px" viewBox="0 0 511.992 511.992" style="enable-background:new 0 0 511.992 511.992;" xml:space="preserve">
<g>
	<path style="fill:#F57C00;" d="M501.59,261.108C486.742,350.452,382.464,375.199,256,375.199S25.259,350.452,10.411,261.108   c8.107-52.736,42.752-98.987,93.013-130.048l-8.107,22.272l-16.981,46.677c-4.855,13.286,1.988,27.998,15.275,32.853   s27.998-1.988,32.853-15.275l35.072-96.427l6.997-19.2c15.949-4.813,32.273-8.235,48.811-10.24l-6.571,18.005l-32.853,90.283   c-4.83,13.295,2.031,27.998,15.334,32.828c13.269,4.821,27.93-1.997,32.794-15.249l40.363-111.019h0.085l6.059-16.725   c14.498,0.674,28.937,2.415,43.179,5.205v0.085l-5.888,15.957l-32.341,88.917c-4.855,13.269,1.963,27.955,15.232,32.811   c13.269,4.855,27.955-1.963,32.811-15.232l0,0l33.963-93.269l5.461-15.019c13.261,5.103,26.078,11.29,38.315,18.517l-5.12,14.165   l-21.163,58.027c-4.855,13.286,1.988,27.998,15.275,32.853c13.286,4.855,27.998-1.988,32.853-15.275l16.299-44.971l4.693-12.8   C475.409,186.441,494.942,222.102,501.59,261.108z"/>
	<path style="fill:#F57C00;" d="M501.59,269.897c-2.543,16.452-8.943,32.068-18.688,45.568   C444.758,368.031,357.547,383.988,256,383.988c-126.464,0-230.741-24.747-245.589-114.091c2.62-16.828,7.885-33.126,15.616-48.299   c17.741-33.886,44.527-62.191,77.397-81.749l-8.107,22.272l-16.981,46.677c-4.881,13.244,1.903,27.93,15.147,32.802   c8.55,3.149,18.125,1.51,25.139-4.301c3.593-2.833,6.306-6.622,7.851-10.923l35.072-96.427l0.853-2.389l6.144-16.811   c15.949-4.813,32.273-8.235,48.811-10.24l-6.571,18.005l-32.853,90.283c-4.881,13.244,1.903,27.93,15.147,32.802   c8.55,3.149,18.125,1.51,25.139-4.301c3.593-2.833,6.306-6.622,7.851-10.923l39.851-109.483l0.512-1.536h0.085l6.059-16.725   c14.498,0.674,28.937,2.415,43.179,5.205v0.085l-5.888,15.957l-32.341,88.917c-4.873,13.244,1.911,27.938,15.155,32.811   c8.508,3.132,18.031,1.519,25.037-4.224c3.575-2.884,6.289-6.69,7.851-11.008l32.341-88.917l1.621-4.352l5.461-15.019   c13.261,5.103,26.078,11.29,38.315,18.517l-5.12,14.165l-21.163,58.027c-4.881,13.244,1.903,27.93,15.147,32.802   c8.55,3.149,18.125,1.51,25.139-4.301c3.593-2.833,6.306-6.622,7.851-10.923l13.397-36.949l2.901-8.021l4.693-12.8   C475.409,195.231,494.942,230.892,501.59,269.897z"/>
</g>
<path style="fill:#FF9801;" d="M491.179,287.903c-1.519,9.515-4.301,18.782-8.277,27.563  C444.758,368.031,357.547,383.988,256,383.988c-126.464,0-230.741-24.747-245.589-114.091c2.62-16.828,7.885-33.126,15.616-48.299  c17.399-25.89,40.269-47.65,66.987-63.744l-8.107,22.272l-16.981,46.677c-4.813,13.303,2.074,27.989,15.377,32.811  c13.244,4.796,27.878-2.014,32.751-15.232l2.56-7.083l32.512-89.344l6.997-19.2c1.365-0.427,2.816-0.853,4.267-1.195  c14.583-4.181,29.483-7.211,44.544-9.045l-6.571,18.005l-32.853,90.283c-4.898,13.278,1.903,28.006,15.172,32.896  c13.278,4.898,28.006-1.903,32.896-15.172c0.017-0.051,0.034-0.094,0.051-0.145l2.56-7.083L256,133.364h0.085l6.059-16.725  c1.28,0.085,2.475,0.085,3.755,0.256c13.235,0.768,26.411,2.415,39.424,4.949v0.085l-5.888,15.957l-32.341,88.917  c-4.855,13.269,1.963,27.955,15.232,32.811c13.269,4.855,27.955-1.963,32.811-15.232l2.56-6.997l31.403-86.272l5.461-15.019  c1.109,0.427,2.219,0.853,3.328,1.365c12.1,4.787,23.799,10.522,34.987,17.152l-5.12,14.165l-21.163,58.027  c-4.855,13.286,1.988,27.998,15.275,32.853c13.286,4.855,27.998-1.988,32.853-15.275l2.56-7.083l13.739-37.888l4.693-12.8  c0.939,0.939,1.877,1.792,2.816,2.816C466.347,215.643,484.83,250.22,491.179,287.903z"/>
<path d="M256,383.732c-157.363,0-240.452-39.646-254.012-121.225c-0.154-0.896-0.154-1.801-0.017-2.697  c8.337-54.221,42.769-102.519,96.964-136.013c4.011-2.475,9.267-1.229,11.742,2.782c1.374,2.219,1.647,4.949,0.759,7.398  l-25.088,68.949c-3.251,8.866,1.306,18.679,10.163,21.931c8.866,3.251,18.679-1.306,21.931-10.163  c0.009-0.017,0.009-0.026,0.017-0.043l42.061-115.601c0.922-2.526,2.978-4.471,5.547-5.248c16.418-4.958,33.229-8.482,50.253-10.547  c4.676-0.563,8.934,2.765,9.498,7.45c0.162,1.331,0.009,2.688-0.452,3.951l-39.424,108.279c-3.251,8.858,1.297,18.679,10.163,21.931  c8.858,3.251,18.679-1.297,21.931-10.163c0.009-0.017,0.009-0.034,0.017-0.051l40.354-110.985c0.137-0.375,0.299-0.742,0.486-1.092  l5.649-15.616c1.263-3.516,4.676-5.803,8.414-5.623c14.916,0.7,29.764,2.492,44.425,5.359c3.994,0.768,6.886,4.275,6.886,8.363  c0,1.033-0.179,2.057-0.529,3.029l-38.221,104.841c-3.251,8.841,1.289,18.637,10.129,21.879c8.841,3.243,18.637-1.289,21.879-10.129  l0,0l39.424-108.297c1.613-4.429,6.511-6.716,10.94-5.103c0.051,0.017,0.102,0.034,0.154,0.06  c13.704,5.274,26.948,11.674,39.595,19.14c3.524,2.091,5.069,6.383,3.678,10.24l-26.291,72.218  c-3.243,8.866,1.314,18.679,10.172,21.922c8.866,3.243,18.679-1.314,21.922-10.172c0.009-0.017,0.009-0.026,0.017-0.043  l20.992-57.762c1.621-4.42,6.519-6.699,10.948-5.077c1.092,0.401,2.091,1.015,2.927,1.818  c30.686,27.904,51.123,65.297,58.035,106.197c0.137,0.896,0.137,1.801-0.017,2.697C496.453,344.086,413.364,383.732,256,383.732z   M19.055,261.057C31.761,332.114,109.295,366.666,256,366.666s224.239-34.551,236.945-105.609  c-5.666-32.239-20.787-62.063-43.426-85.692l-0.077,0.196l-16.282,44.945c-6.451,17.724-26.052,26.863-43.776,20.412  c-17.724-6.451-26.863-26.052-20.412-43.776l23.859-65.468c-7.424-4.096-15.053-7.808-22.861-11.127l-36.403,99.968  c-6.468,17.698-26.061,26.795-43.75,20.326c-17.698-6.468-26.795-26.061-20.326-43.75l0,0l34.739-95.411  c-8.585-1.374-17.22-2.355-25.813-2.953l-3.883,10.743c-0.137,0.384-0.307,0.759-0.503,1.126L234.07,220.507  c-6.468,17.715-26.078,26.837-43.793,20.369s-26.837-26.078-20.369-43.793l34.526-94.839c-9.899,1.707-19.695,3.934-29.346,6.69  l-40.602,111.573c-6.451,17.724-26.052,26.863-43.776,20.403s-26.863-26.052-20.403-43.776l15.881-43.657  C51.021,179.564,27.034,218.006,19.055,261.057z"/>
<path style="fill:#4E342E;" d="M501.59,261.108c-4.062,26.522-18.108,50.483-39.253,66.987  C418.048,363.679,342.187,375.199,256,375.199c-5.717,0-11.435-0.085-17.067-0.171c-118.699-2.219-214.357-28.672-228.523-113.92  c-1.271,7.936-1.894,15.949-1.877,23.979c0,2.901,0.085,5.717,0.256,8.448c0.546,11.785,2.816,23.433,6.741,34.56  c25.088,69.461,114.603,91.819,223.403,93.867c5.632,0.085,11.349,0.171,17.067,0.171c133.035,0,241.579-27.392,247.211-128.597  v-0.683c0.171-2.56,0.256-5.12,0.256-7.765C503.484,277.057,502.861,269.044,501.59,261.108z"/>
<path style="fill:#795548;" d="M462.336,328.095c-25.088,69.461-114.603,91.819-223.403,93.867  c-108.8-2.048-198.315-24.405-223.403-93.867c-3.925-11.127-6.195-22.775-6.741-34.56c-0.171-2.731-0.256-5.547-0.256-8.448  c-0.017-8.03,0.606-16.051,1.877-23.979c14.165,85.248,109.824,111.701,228.523,113.92c5.632,0.085,11.349,0.171,17.067,0.171  C342.187,375.199,418.048,363.679,462.336,328.095z"/>
<path d="M256,430.666c-166.963,0-250.615-44.698-255.727-136.653C0.094,291.18,0,288.176,0,285.095  c-0.017-8.491,0.649-16.964,1.98-25.344c0.674-4.122,4.233-7.159,8.405-7.168h0.026c4.173,0,7.731,3.021,8.414,7.134  c11.964,71.97,89.54,106.948,237.175,106.948s225.212-34.987,237.175-106.957c0.683-4.113,4.241-7.134,8.414-7.134h0.017  c4.181,0.009,7.731,3.046,8.405,7.168c1.34,8.38,1.997,16.862,1.98,25.344c0,2.842-0.094,5.598-0.273,8.346  C506.616,385.968,422.964,430.666,256,430.666z M18.902,307.043C31.394,378.732,109.184,413.599,256,413.599  c146.867,0,224.657-34.901,237.116-106.573C459.648,358.55,381.415,383.732,256,383.732  C130.603,383.732,52.369,358.55,18.902,307.043z"/>
<g>
	<path style="fill:#4E342E;" d="M161.536,121.161l-31.061,85.504l-4.011,10.923c-4.855,13.286-19.567,20.13-32.853,15.275   s-20.13-19.567-15.275-32.853l16.981-46.677c1.365-0.939,2.816-1.877,4.181-2.645C118.784,138.151,139.64,128.219,161.536,121.161z   "/>
	<path style="fill:#4E342E;" d="M359.51,124.319l-30.037,82.432l-3.925,10.837c-4.855,13.269-19.541,20.087-32.811,15.232   c-13.269-4.855-20.087-19.541-15.232-32.811l32.341-88.917c1.024,0.171,1.963,0.341,2.987,0.597   C328.738,114.505,344.354,118.738,359.51,124.319z"/>
	<path style="fill:#4E342E;" d="M441.43,172.617l-12.373,34.048l-3.925,10.923c-4.855,13.286-19.567,20.13-32.853,15.275   c-13.286-4.855-20.13-19.567-15.275-32.853l21.163-58.027c0.853,0.512,1.707,0.939,2.56,1.536   C415.326,151.694,428.98,161.447,441.43,172.617z"/>
	<path style="fill:#4E342E;" d="M266.411,106.569l-36.352,100.096l-4.011,10.923c-4.881,13.278-19.601,20.096-32.879,15.215   c-13.252-4.864-20.07-19.533-15.249-32.794l32.853-90.283c1.109-0.171,2.219-0.341,3.328-0.427   c13.875-1.963,27.878-2.935,41.899-2.901C259.499,106.399,262.998,106.484,266.411,106.569z"/>
</g>
<g>
	<path style="fill:#795548;" d="M158.37,118.004l-31.061,85.504c-10.462,9.523-26.658,8.764-36.181-1.698   c-6.417-7.049-8.388-17.084-5.12-26.035l10.325-28.245C115.618,134.985,136.482,125.053,158.37,118.004z"/>
	<path style="fill:#795548;" d="M356.344,121.161l-30.037,82.432c-10.496,9.455-26.667,8.61-36.122-1.886   c-6.349-7.049-8.277-17.033-5.009-25.933l24.491-67.243C325.573,111.348,341.197,115.572,356.344,121.161z"/>
	<path style="fill:#795548;" d="M441.43,172.617l-12.373,34.048c-10.445,9.506-26.624,8.738-36.13-1.707   c-6.409-7.049-8.371-17.075-5.086-26.027l12.885-35.413C415.326,151.694,428.98,161.447,441.43,172.617z"/>
	<path style="fill:#795548;" d="M263.245,103.412l-36.352,100.096c-10.462,9.523-26.658,8.764-36.181-1.698   c-6.417-7.049-8.388-17.084-5.12-26.035l25.344-69.632c13.875-1.963,27.878-2.935,41.899-2.901   C256.333,103.241,259.832,103.327,263.245,103.412z"/>
</g>
<path d="M102.255,242.915c-18.799,0-34.048-15.241-34.048-34.039c0-4.002,0.708-7.979,2.091-11.742l16.998-46.72  c0.614-1.69,1.741-3.14,3.226-4.147c21.12-14.208,44.126-25.387,68.352-33.212c4.48-1.468,9.293,0.973,10.769,5.444  c0.597,1.818,0.563,3.78-0.094,5.581l-35.063,96.427C129.485,233.981,116.625,242.915,102.255,242.915z M102.383,158.87  l-16.034,44.058c-3.251,8.866,1.306,18.679,10.163,21.931c8.866,3.251,18.679-1.306,21.931-10.163  c0.009-0.017,0.009-0.026,0.017-0.043l28.809-79.206C131.559,141.718,116.514,149.569,102.383,158.87L102.383,158.87z"/>
<path d="M301.466,242.924c-18.825,0-34.074-15.266-34.074-34.082c0-4.011,0.708-7.987,2.091-11.75l32.35-88.909  c1.417-3.874,5.402-6.187,9.463-5.495c17.434,2.978,34.56,7.535,51.166,13.628c4.403,1.63,6.665,6.511,5.06,10.923l-33.963,93.269  C328.645,233.989,315.81,242.941,301.466,242.924z M315.401,120.803l-29.884,82.133c-3.251,8.841,1.289,18.637,10.129,21.879  c8.841,3.243,18.637-1.289,21.879-10.129l0,0l31.01-85.171C337.681,125.923,326.614,123.013,315.401,120.803L315.401,120.803z"/>
<path d="M400.922,242.915c-18.799,0-34.048-15.241-34.048-34.039c0-4.002,0.708-7.979,2.091-11.742l21.18-58.069  c1.621-4.429,6.528-6.707,10.957-5.086c0.41,0.154,0.811,0.333,1.195,0.546c16.102,8.858,31.147,19.507,44.843,31.761  c2.586,2.321,3.499,5.982,2.313,9.25l-16.299,44.971C428.152,233.972,415.301,242.915,400.922,242.915z M402.688,154.484  l-17.673,48.452c-3.243,8.866,1.314,18.679,10.172,21.922c8.866,3.243,18.679-1.314,21.922-10.172  c0.009-0.017,0.009-0.026,0.017-0.043l14.302-39.45C422.409,167.549,412.8,160.62,402.688,154.484L402.688,154.484z"/>
<path d="M201.839,242.915c-18.799,0-34.048-15.241-34.048-34.039c0-4.019,0.708-8.013,2.108-11.785l32.862-90.274  c1.067-2.935,3.652-5.052,6.741-5.521c18.91-2.731,38.025-3.814,57.122-3.243c4.71,0.119,8.431,4.036,8.311,8.747  c-0.026,0.922-0.196,1.835-0.512,2.697L234.07,220.515C229.069,233.981,216.209,242.915,201.839,242.915z M217.046,117.458  l-31.113,85.47c-3.243,8.866,1.306,18.679,10.172,21.922c8.866,3.243,18.679-1.306,21.922-10.172  c0.009-0.017,0.009-0.026,0.017-0.043l36.25-99.695C241.835,114.992,229.393,115.837,217.046,117.458z"/>
<g>
</g>
<g>
</g>
<g>
</g>
<g>
</g>
<g>
</g>
<g>
</g>
<g>
</g>
<g>
</g>
<g>
</g>
<g>
</g>
<g>
</g>
<g>
</g>
<g>
</g>
<g>
</g>
<g>
</g>
</svg>
