<?xml version="1.0" encoding="iso-8859-1"?>
<!-- Generator: Adobe Illustrator 19.0.0, SVG Export Plug-In . SVG Version: 6.00 Build 0)  -->
<svg xmlns="http://www.w3.org/2000/svg" xmlns:xlink="http://www.w3.org/1999/xlink" version="1.1" id="Capa_1" x="0px" y="0px" viewBox="0 0 512 512" style="enable-background:new 0 0 512 512;" xml:space="preserve">
<path style="fill:#4E342E;" d="M503.467,256C503.458,392.661,392.661,503.45,256,503.441  C119.339,503.433,8.55,392.636,8.559,255.974C8.567,119.322,119.347,8.542,256,8.533C392.294,8.158,503.091,118.34,503.467,254.635  C503.467,255.095,503.467,255.548,503.467,256z"/>
<path style="fill:#795548;" d="M477.867,281.6c0.111,59.392-21.257,116.83-60.16,161.707  c-103.441,89.318-259.695,77.867-349.013-25.574c-80.213-92.894-80.213-230.545,0-323.439  c103.441-89.318,259.695-77.867,349.013,25.566C456.516,164.813,477.867,222.217,477.867,281.6z"/>
<path style="fill:#2E7D32;" d="M469.333,256c-0.026,87.714-53.76,166.468-135.424,198.485  c-24.789,9.873-51.234,14.908-77.909,14.848c-117.777,0.043-213.291-95.394-213.333-213.171  c-0.026-74.001,38.306-142.729,101.291-181.581C177.57,53.632,216.397,42.573,256,42.667  C373.777,42.769,469.231,138.223,469.333,256z"/>
<path style="fill:#4CAF50;" d="M435.2,273.067c0.009,73.95-38.332,142.626-101.291,181.419  c-24.789,9.873-51.234,14.908-77.909,14.848c-117.777,0.043-213.291-95.394-213.333-213.171  c-0.026-74.001,38.306-142.729,101.291-181.581c24.789-9.873,51.234-14.908,77.909-14.848  C339.644,59.836,435.098,155.29,435.2,273.067z"/>
<g>
	<path style="fill:#558B30;" d="M312.491,149.845l-26.027,14.421c-11.17,6.178-25.242,2.125-31.411-9.054   c-0.819-1.485-1.476-3.055-1.954-4.685l-9.045-31.403c-1.621-5.99-5.675-11.034-11.179-13.909l0.939-3.157   c3.524-12.254,16.316-19.328,28.57-15.804c7.637,2.193,13.611,8.166,15.804,15.804l9.045,31.403   C290.398,144.452,301.167,151.433,312.491,149.845z"/>
	<path style="fill:#558B30;" d="M349.184,380.587c0.7-4.949-0.256-9.993-2.731-14.336l-15.787-28.587   c-6.178-11.17-2.125-25.242,9.054-31.411c1.485-0.819,3.055-1.476,4.685-1.954l20.309-5.888   c-3.772,6.921-3.738,15.292,0.085,22.187l15.787,28.587c6.17,11.179,2.108,25.233-9.071,31.403   C364.57,384.418,356.13,384.418,349.184,380.587z"/>
</g>
<path style="fill:#8BC34A;" d="M389.803,283.989l-11.264,3.243c-5.931,1.707-10.914,5.734-13.824,11.179l-20.309,5.888  c-12.254,3.584-19.277,16.427-15.693,28.681c0.478,1.63,1.135,3.2,1.954,4.685l15.787,28.587c2.475,4.343,3.43,9.387,2.731,14.336  L320.597,364.8c-11.17-6.178-25.242-2.125-31.411,9.054c-0.819,1.485-1.476,3.055-1.954,4.685l-0.939,3.243l-8.107,28.16  c-3.439,12.22-16.137,19.337-28.348,15.889c-1.681-0.478-3.311-1.143-4.847-1.98c-5.547-2.825-9.617-7.885-11.179-13.909  l-9.045-31.403c-3.584-12.254-16.427-19.277-28.681-15.693c-1.63,0.478-3.2,1.135-4.685,1.954l-26.027,14.421  c-2.85,0.333-5.606,1.229-8.107,2.645l-2.731,1.536c-12.732,1.536-24.286-7.535-25.822-20.267c-0.58-4.821,0.367-9.702,2.697-13.952  l15.787-28.587c6.178-11.17,2.125-25.242-9.054-31.411c-1.485-0.819-3.055-1.476-4.685-1.954l-31.403-9.045  c-12.237-3.447-19.354-16.162-15.906-28.399c0.461-1.638,1.101-3.217,1.911-4.71l11.264-3.243  c5.931-1.707,10.914-5.734,13.824-11.179l20.309-5.888c12.254-3.584,19.277-16.427,15.693-28.681c-0.478-1.63-1.135-3.2-1.954-4.685  l-15.787-28.587c-2.475-4.343-3.43-9.387-2.731-14.336c1.766-12.663,13.466-21.504,26.129-19.738  c2.807,0.393,5.521,1.297,8.004,2.671l28.587,15.787c0.085,0,0.085,0.085,0.171,0.085c11.238,6.076,25.276,1.886,31.351-9.353  c0.768-1.425,1.382-2.918,1.843-4.471l8.107-28.245c5.504,2.876,9.557,7.919,11.179,13.909l9.045,31.403  c3.584,12.254,16.427,19.277,28.681,15.693c1.63-0.478,3.2-1.135,4.685-1.954l26.027-14.421c2.85-0.333,5.606-1.237,8.107-2.645  l2.731-1.536h0.256c12.715-1.434,24.183,7.714,25.609,20.429c0.538,4.77-0.418,9.591-2.739,13.79l-15.787,28.587  c-6.178,11.17-2.125,25.233,9.054,31.411c1.485,0.819,3.055,1.476,4.685,1.954l31.403,9.045  c12.237,3.447,19.354,16.162,15.906,28.399C391.253,280.917,390.613,282.496,389.803,283.989z"/>
<path d="M256,512C114.611,512,0,397.389,0,256S114.611,0,256,0s256,114.611,256,256C511.838,397.321,397.321,511.838,256,512z   M256,17.067C124.041,17.067,17.067,124.041,17.067,256S124.041,494.933,256,494.933S494.933,387.96,494.933,256  C494.788,124.1,387.9,17.212,256,17.067z"/>
<path d="M256,477.867C133.47,477.867,34.133,378.53,34.133,256S133.47,34.133,256,34.133S477.867,133.47,477.867,256  C477.73,378.479,378.479,477.73,256,477.867z M256,51.2C142.891,51.2,51.2,142.891,51.2,256S142.891,460.8,256,460.8  S460.8,369.109,460.8,256C460.672,142.942,369.058,51.328,256,51.2z"/>
<path style="fill:#CFD8DC;" d="M298.667,256c0,23.561-19.106,42.667-42.667,42.667S213.333,279.561,213.333,256  c0-13.431,6.323-26.078,17.067-34.133c7.364-5.572,16.358-8.567,25.6-8.533C279.561,213.342,298.658,232.439,298.667,256z"/>
<path style="fill:#F5F5F5;" d="M273.067,264.533c-0.009,13.423-6.332,26.069-17.067,34.133c-23.561,0-42.667-19.106-42.667-42.667  c0-13.431,6.323-26.078,17.067-34.133C253.961,221.875,273.058,240.973,273.067,264.533z"/>
<path d="M256,307.2c-28.279,0-51.2-22.921-51.2-51.2c0-28.279,22.921-51.2,51.2-51.2c28.279,0,51.2,22.921,51.2,51.2  C307.166,284.262,284.262,307.166,256,307.2z M256,221.867c-18.85,0-34.133,15.283-34.133,34.133  c0,18.85,15.283,34.133,34.133,34.133c18.85,0,34.133-15.283,34.133-34.133C290.116,237.158,274.842,221.884,256,221.867z"/>
<g>
	<path style="fill:#558B30;" d="M113.152,230.656c-2.91,5.444-7.893,9.472-13.824,11.179l-11.264,3.243   c2.901-5.53,7.97-9.617,13.995-11.264L113.152,230.656z"/>
	<path style="fill:#558B30;" d="M165.376,379.221l-2.56,1.365c-2.569,1.425-5.367,2.381-8.277,2.816l2.731-1.536   C159.77,380.45,162.526,379.554,165.376,379.221z"/>
	<path style="fill:#558B30;" d="M409.941,278.187l-20.139,5.803c6.05-11.179,1.894-25.148-9.284-31.198   c-1.493-0.811-3.072-1.451-4.71-1.911l-31.403-9.045c-12.254-3.584-19.277-16.427-15.693-28.681c0.478-1.63,1.135-3.2,1.954-4.685   l15.787-28.587c6.187-11.196,2.125-25.293-9.079-31.479c-4.198-2.321-9.02-3.277-13.79-2.739l25.6-14.251   c11.179-6.17,25.233-2.108,31.403,9.071c3.831,6.946,3.831,15.386,0,22.332L364.8,191.403c-6.178,11.17-2.125,25.233,9.054,31.411   c1.485,0.819,3.055,1.476,4.685,1.954l31.403,9.045c12.254,3.524,19.328,16.316,15.804,28.57   C423.552,270.02,417.579,275.994,409.941,278.187z"/>
</g>
<g>
	<path style="fill:#8BC34A;" d="M323.328,145.664l-2.731,1.536c-2.5,1.408-5.257,2.313-8.107,2.645l2.56-1.365   C317.619,147.055,320.418,146.099,323.328,145.664z"/>
	<path style="fill:#8BC34A;" d="M389.803,283.989c-2.901,5.538-7.97,9.617-13.995,11.264l-11.093,3.157   c2.91-5.444,7.893-9.472,13.824-11.179L389.803,283.989z"/>
</g>
<path d="M256,435.2c-14.157,0.222-26.658-9.19-30.379-22.852l-9.071-31.411c-2.227-7.723-10.291-12.177-18.014-9.95  c-1.041,0.299-2.048,0.717-3.004,1.246l-28.621,15.804c-15.292,8.439-34.517,2.884-42.957-12.399  c-5.248-9.515-5.248-21.052,0-30.558l15.804-28.621c3.883-7.031,1.331-15.881-5.7-19.763c-0.956-0.529-1.963-0.947-3.012-1.246  l-31.411-9.062c-16.777-4.847-26.453-22.374-21.606-39.151c3.012-10.436,11.17-18.594,21.606-21.606l31.411-9.062  c7.723-2.219,12.177-10.283,9.958-17.997c-0.299-1.05-0.717-2.057-1.246-3.012l-15.804-28.621  c-8.439-15.283-2.893-34.517,12.399-42.957c9.506-5.248,21.052-5.248,30.558,0l28.612,15.804c7.031,3.883,15.889,1.331,19.772-5.7  c0.529-0.947,0.939-1.954,1.246-3.004l9.071-31.411c4.838-16.777,22.366-26.453,39.142-21.615  c10.436,3.012,18.603,11.17,21.615,21.615l9.071,31.411c2.227,7.723,10.291,12.177,18.014,9.95c1.041-0.299,2.048-0.717,3.004-1.246  l28.621-15.804c15.292-8.439,34.517-2.884,42.957,12.399c5.248,9.515,5.248,21.052,0,30.558l-15.804,28.621  c-3.883,7.031-1.331,15.881,5.7,19.763c0.956,0.529,1.963,0.947,3.012,1.246l31.411,9.062c16.777,4.847,26.453,22.374,21.606,39.151  c-3.012,10.436-11.17,18.594-21.606,21.606l-31.411,9.062c-7.723,2.219-12.177,10.283-9.95,17.997  c0.299,1.05,0.717,2.057,1.246,3.012l15.804,28.621c8.439,15.283,2.893,34.517-12.399,42.957c-9.506,5.248-21.052,5.248-30.558,0  l-28.612-15.804c-7.031-3.883-15.889-1.331-19.772,5.7c-0.529,0.947-0.939,1.954-1.246,3.004l-9.071,31.411  C282.658,426.01,270.157,435.422,256,435.2z M202.556,353.34c14.089,0.017,26.479,9.335,30.404,22.869l9.071,31.411  c2.227,7.714,10.283,12.169,18.005,9.95c4.804-1.382,8.567-5.146,9.95-9.95l9.071-31.411c4.847-16.777,22.374-26.453,39.151-21.606  c2.261,0.657,4.446,1.562,6.511,2.697l28.621,15.804c7.04,3.883,15.889,1.323,19.772-5.709c2.415-4.378,2.415-9.685,0-14.063  l-15.804-28.621c-8.439-15.283-2.901-34.517,12.382-42.957c2.065-1.143,4.258-2.048,6.528-2.705l31.411-9.062  c7.723-2.227,12.177-10.291,9.95-18.014c-1.382-4.804-5.146-8.559-9.95-9.95l-31.42-9.062  c-16.777-4.838-26.453-22.366-21.615-39.142c0.657-2.27,1.562-4.454,2.705-6.528l15.804-28.621  c3.883-7.04,1.323-15.889-5.717-19.772c-4.378-2.415-9.685-2.415-14.063,0l-28.621,15.804c-15.292,8.439-34.526,2.893-42.965-12.399  c-1.135-2.065-2.048-4.25-2.697-6.511l-9.071-31.411l0,0c-2.227-7.714-10.283-12.169-18.005-9.95  c-4.804,1.382-8.567,5.146-9.95,9.95l-9.054,31.42c-4.847,16.777-22.374,26.453-39.151,21.606c-2.261-0.657-4.446-1.562-6.511-2.697  l-28.621-15.804c-7.04-3.883-15.889-1.323-19.772,5.709c-2.415,4.378-2.415,9.685,0,14.063l15.804,28.621  c8.439,15.283,2.901,34.517-12.382,42.957c-2.065,1.143-4.258,2.048-6.528,2.705l-31.411,9.062  c-7.723,2.227-12.177,10.291-9.95,18.014c1.382,4.804,5.146,8.559,9.95,9.95l31.411,9.062c16.777,4.838,26.453,22.366,21.615,39.142  c-0.657,2.27-1.562,4.454-2.705,6.519l-15.804,28.621c-3.883,7.04-1.323,15.889,5.717,19.772c4.378,2.415,9.685,2.415,14.063,0  l28.621-15.804C191.966,354.705,197.214,353.34,202.556,353.34z"/>
<path d="M256,187.733c-4.71,0-8.533-3.814-8.533-8.525c0,0,0,0,0-0.009v-17.067c0-4.71,3.823-8.533,8.533-8.533  c4.71,0,8.533,3.823,8.533,8.533V179.2C264.533,183.91,260.719,187.733,256,187.733L256,187.733z"/>
<path d="M256,358.4c-4.71,0-8.533-3.814-8.533-8.525c0,0,0,0,0-0.009V332.8c0-4.71,3.823-8.533,8.533-8.533  c4.71,0,8.533,3.823,8.533,8.533v17.067C264.533,354.577,260.719,358.4,256,358.4L256,358.4z"/>
<path d="M201.694,210.227c-2.261,0-4.437-0.896-6.033-2.5l-12.066-12.075c-3.328-3.328-3.328-8.738,0-12.066  c3.328-3.328,8.738-3.328,12.066,0l12.066,12.075c3.328,3.337,3.328,8.738,0,12.066  C206.123,209.331,203.955,210.227,201.694,210.227L201.694,210.227z"/>
<path d="M322.372,330.906c-2.261,0-4.437-0.896-6.033-2.5l-12.066-12.075c-3.328-3.328-3.328-8.738,0-12.066  c3.328-3.328,8.738-3.328,12.066,0l12.066,12.075c3.328,3.337,3.328,8.738,0,12.066C326.81,330.01,324.634,330.906,322.372,330.906  L322.372,330.906z"/>
<path d="M179.2,264.533h-17.067c-4.71,0-8.533-3.823-8.533-8.533c0-4.71,3.823-8.533,8.533-8.533H179.2  c4.71,0,8.533,3.823,8.533,8.533C187.733,260.71,183.91,264.533,179.2,264.533z"/>
<path d="M349.867,264.533H332.8c-4.71,0-8.533-3.823-8.533-8.533c0-4.71,3.823-8.533,8.533-8.533h17.067  c4.71,0,8.533,3.823,8.533,8.533C358.4,260.71,354.577,264.533,349.867,264.533z"/>
<path d="M189.628,330.906c-4.71,0-8.533-3.823-8.533-8.533c0-2.261,0.896-4.429,2.5-6.033l12.066-12.075  c3.328-3.328,8.738-3.328,12.066,0c3.328,3.328,3.328,8.738,0,12.066l0,0l-12.066,12.075  C194.057,330.01,191.889,330.914,189.628,330.906z"/>
<path d="M310.306,210.227c-4.71,0-8.533-3.823-8.533-8.533c0-2.261,0.896-4.429,2.5-6.033l12.066-12.075  c3.328-3.328,8.738-3.328,12.066,0c3.328,3.328,3.328,8.738,0,12.066l-12.066,12.075  C314.743,209.331,312.576,210.236,310.306,210.227z"/>
<g>
</g>
<g>
</g>
<g>
</g>
<g>
</g>
<g>
</g>
<g>
</g>
<g>
</g>
<g>
</g>
<g>
</g>
<g>
</g>
<g>
</g>
<g>
</g>
<g>
</g>
<g>
</g>
<g>
</g>
</svg>
