<?xml version="1.0" encoding="iso-8859-1"?>
<!-- Generator: Adobe Illustrator 19.0.0, SVG Export Plug-In . SVG Version: 6.00 Build 0)  -->
<svg xmlns="http://www.w3.org/2000/svg" xmlns:xlink="http://www.w3.org/1999/xlink" version="1.1" id="Capa_1" x="0px" y="0px" viewBox="0 0 512.005 512.005" style="enable-background:new 0 0 512.005 512.005;" xml:space="preserve">
<path style="fill:#F57C00;" d="M503.461,285.869c0,84.82-110.761,153.597-247.463,153.597c-5.717,0-11.434-0.085-17.066-0.341  C110.166,433.664,8.536,367.105,8.536,285.869c-0.034-2.85,0.111-5.7,0.427-8.533h494.072  C503.35,280.169,503.495,283.019,503.461,285.869z"/>
<path style="fill:#FF9801;" d="M469.328,285.869c0,81.236-101.63,147.795-230.396,153.256  C110.166,433.664,8.536,367.105,8.536,285.869c-0.034-2.85,0.111-5.7,0.427-8.533h459.939  C469.217,280.169,469.362,283.019,469.328,285.869z"/>
<path style="fill:#FFB301;" d="M503.461,226.136c0,84.82-110.761,153.597-247.463,153.597c-5.717,0-11.434-0.085-17.066-0.341  C110.166,373.931,8.536,307.372,8.536,226.136S110.166,78.342,238.932,72.88c5.632-0.256,11.349-0.341,17.066-0.341  C392.7,72.539,503.461,141.317,503.461,226.136z"/>
<path style="fill:#FEC108;" d="M469.328,226.136c0,81.236-101.63,147.795-230.396,153.256  C110.166,373.931,8.536,307.372,8.536,226.136S110.166,78.342,238.932,72.88C367.698,78.342,469.328,144.9,469.328,226.136z"/>
<path d="M255.998,388.267c-141.156,0-255.996-72.728-255.996-162.131S114.842,64.006,255.998,64.006s255.996,72.728,255.996,162.131  S397.154,388.267,255.998,388.267z M255.998,81.072c-131.744,0-238.929,65.074-238.929,145.064s107.185,145.064,238.929,145.064  s238.929-65.074,238.929-145.064S387.751,81.072,255.998,81.072z"/>
<path d="M255.998,447.999c-141.156,0-255.996-72.728-255.996-162.131c-0.026-3.191,0.137-6.391,0.486-9.566  c0.572-4.685,4.821-8.013,9.506-7.449c4.685,0.563,8.013,4.821,7.449,9.506c-0.282,2.5-0.41,5.009-0.375,7.509  c0,79.99,107.185,145.064,238.929,145.064s238.929-65.074,238.929-145.064c0.034-2.509-0.085-5.009-0.367-7.501  c-0.572-4.685,2.765-8.934,7.449-9.506c4.685-0.572,8.934,2.765,9.506,7.449c0.35,3.174,0.512,6.366,0.486,9.566  C511.994,375.271,397.154,447.999,255.998,447.999z"/>
<path d="M503.461,285.869c-4.753,0.017-8.644-3.78-8.738-8.533c0-0.657,0.068-1.306,0.205-1.954v-49.245  c0-4.71,3.823-8.533,8.533-8.533s8.533,3.823,8.533,8.533v51.199C511.994,282.046,508.18,285.869,503.461,285.869  C503.469,285.869,503.469,285.869,503.461,285.869z"/>
<path d="M8.962,285.869H8.536c-4.71,0-8.533-3.814-8.533-8.525c0,0,0,0,0-0.009v-51.199c0-4.71,3.823-8.533,8.533-8.533  s8.533,3.823,8.533,8.533v49.347c0.145,0.606,0.213,1.229,0.205,1.852c0.102,4.608-3.55,8.431-8.166,8.533  C9.065,285.869,9.014,285.869,8.962,285.869z"/>
<g>
	<circle style="fill:#795548;" cx="260.265" cy="128.005" r="21.333"/>
	<circle style="fill:#795548;" cx="85.335" cy="200.537" r="25.6"/>
	<circle style="fill:#795548;" cx="273.065" cy="311.468" r="25.6"/>
	<circle style="fill:#795548;" cx="413.862" cy="256.003" r="21.333"/>
	<circle style="fill:#795548;" cx="366.93" cy="140.805" r="17.066"/>
	<circle style="fill:#795548;" cx="145.067" cy="140.805" r="17.066"/>
	<circle style="fill:#795548;" cx="213.332" cy="209.07" r="17.066"/>
	<circle style="fill:#795548;" cx="332.797" cy="226.136" r="17.066"/>
	<circle style="fill:#795548;" cx="140.8" cy="298.669" r="21.333"/>
</g>
<path d="M260.265,157.871c-16.495,0-29.866-13.372-29.866-29.866s13.372-29.866,29.866-29.866s29.866,13.372,29.866,29.866  C290.114,144.491,276.751,157.854,260.265,157.871z M260.265,115.205c-7.065,0-12.8,5.734-12.8,12.8c0,7.065,5.734,12.8,12.8,12.8  c7.065,0,12.8-5.726,12.8-12.8C273.056,120.939,267.33,115.213,260.265,115.205z"/>
<path d="M85.335,234.67c-18.85,0-34.133-15.283-34.133-34.133s15.283-34.133,34.133-34.133s34.133,15.283,34.133,34.133  C119.45,219.387,104.184,234.653,85.335,234.67z M85.335,183.47c-9.429,0-17.066,7.637-17.066,17.066s7.637,17.066,17.066,17.066  s17.066-7.637,17.066-17.066C102.392,191.116,94.755,183.488,85.335,183.47z"/>
<path d="M273.065,345.601c-18.85,0-34.133-15.283-34.133-34.133c0-18.85,15.283-34.133,34.133-34.133s34.133,15.283,34.133,34.133  C307.18,330.318,291.915,345.584,273.065,345.601z M273.065,294.402c-9.429,0-17.066,7.637-17.066,17.066  s7.637,17.066,17.066,17.066s17.066-7.637,17.066-17.066C290.123,302.048,282.485,294.419,273.065,294.402z"/>
<path d="M413.862,285.869c-16.495,0-29.866-13.372-29.866-29.866s13.372-29.866,29.866-29.866c16.495,0,29.866,13.372,29.866,29.866  C443.711,272.489,430.348,285.852,413.862,285.869z M413.862,243.203c-7.065,0-12.8,5.734-12.8,12.8c0,7.065,5.734,12.8,12.8,12.8  c7.065,0,12.8-5.726,12.8-12.8C426.654,248.937,420.928,243.211,413.862,243.203z"/>
<path d="M366.93,166.404c-14.139,0-25.6-11.46-25.6-25.6s11.46-25.6,25.6-25.6c14.14,0,25.6,11.46,25.6,25.6  C392.521,154.936,381.061,166.396,366.93,166.404z M366.93,132.271c-4.71,0-8.533,3.823-8.533,8.533c0,4.71,3.823,8.533,8.533,8.533  c4.71,0,8.533-3.823,8.533-8.533C375.463,136.094,371.64,132.28,366.93,132.271z"/>
<path d="M145.067,166.404c-14.139,0-25.6-11.46-25.6-25.6s11.46-25.6,25.6-25.6s25.6,11.46,25.6,25.6  C170.658,154.936,159.198,166.396,145.067,166.404z M145.067,132.271c-4.71,0-8.533,3.823-8.533,8.533  c0,4.71,3.823,8.533,8.533,8.533c4.71,0,8.533-3.823,8.533-8.533C153.6,136.094,149.777,132.28,145.067,132.271z"/>
<path d="M213.332,234.67c-14.139,0-25.6-11.46-25.6-25.6s11.46-25.6,25.6-25.6s25.6,11.46,25.6,25.6  C238.923,223.201,227.463,234.661,213.332,234.67z M213.332,200.537c-4.71,0-8.533,3.823-8.533,8.533  c0,4.71,3.823,8.533,8.533,8.533c4.71,0,8.533-3.823,8.533-8.533C221.866,204.36,218.043,200.545,213.332,200.537z"/>
<path d="M332.797,251.736c-14.14,0-25.6-11.46-25.6-25.6c0-14.139,11.46-25.6,25.6-25.6c14.139,0,25.6,11.46,25.6,25.6  C358.388,240.267,346.928,251.727,332.797,251.736z M332.797,217.603c-4.71,0-8.533,3.823-8.533,8.533  c0,4.71,3.823,8.533,8.533,8.533s8.533-3.823,8.533-8.533C341.33,221.426,337.507,217.612,332.797,217.603z"/>
<path d="M140.8,328.535c-16.495,0-29.866-13.372-29.866-29.866c0-16.495,13.372-29.866,29.866-29.866s29.866,13.372,29.866,29.866  C170.649,315.155,157.286,328.518,140.8,328.535z M140.8,285.869c-7.065,0-12.8,5.734-12.8,12.8c0,7.065,5.734,12.8,12.8,12.8  s12.8-5.734,12.8-12.8C153.592,291.603,147.866,285.877,140.8,285.869z"/>
<g>
</g>
<g>
</g>
<g>
</g>
<g>
</g>
<g>
</g>
<g>
</g>
<g>
</g>
<g>
</g>
<g>
</g>
<g>
</g>
<g>
</g>
<g>
</g>
<g>
</g>
<g>
</g>
<g>
</g>
</svg>
