<?xml version="1.0" encoding="iso-8859-1"?>
<!-- Generator: Adobe Illustrator 19.0.0, SVG Export Plug-In . SVG Version: 6.00 Build 0)  -->
<svg xmlns="http://www.w3.org/2000/svg" xmlns:xlink="http://www.w3.org/1999/xlink" version="1.1" id="Capa_1" x="0px" y="0px" viewBox="0 0 512 512" style="enable-background:new 0 0 512 512;" xml:space="preserve">
<path style="fill:#AD1457;" d="M430.703,92.482c-3.255-3.341-6.681-6.51-10.108-9.594h-0.086c-0.086-0.086-0.171-0.171-0.171-0.257  c-6.887-6.15-14.125-11.898-21.672-17.218l-0.086-0.086c0-0.086,0-0.086-0.086-0.086c-11.487-5.654-24.43-7.658-37.091-5.739  c-12.892,1.867-24.833,7.881-34.007,17.132c-24.148,24.67-23.728,64.245,0.942,88.401l14.905,14.905  c45.991,45.169,46.762,119.042,1.713,165.153c-32.988,32.594-82.285,42.273-125.15,24.584  c-14.956-5.996-28.542-14.973-39.918-26.383l-14.905-14.905c-13.928-14.074-33.656-20.798-53.281-18.16  c-13.329,1.653-25.724,7.709-35.206,17.218c-18.563,18.845-23.137,47.396-11.393,71.098c0,0.171,0,0.171,0.171,0.171  c0,0.086,0.086,0.171,0.086,0.257c5.388,7.564,11.221,14.802,17.475,21.672c2.998,3.426,6.253,6.853,9.508,10.194  c28.808,28.919,64.331,50.257,103.392,62.104c84.247,26.101,176.023,3.598,238.65-58.506  C527.842,340.982,526.214,187.907,430.703,92.482z"/>
<path style="fill:#E91E63;" d="M393.526,425.871c-51.961,51.824-125.021,76.606-197.79,67.072  c-39.061-11.847-74.584-33.185-103.392-62.104c-3.255-3.341-6.51-6.767-9.508-10.194c-6.253-6.87-12.087-14.108-17.475-21.672  c0-0.086-0.086-0.171-0.086-0.257c-0.171,0-0.171,0-0.171-0.171c-11.744-23.702-7.17-52.253,11.393-71.098  c9.483-9.508,21.878-15.564,35.206-17.218c19.625-2.638,39.352,4.086,53.281,18.16l14.905,14.905  c11.376,11.41,24.961,20.387,39.918,26.383c42.864,17.689,92.162,8.009,125.15-24.584c45.049-46.111,44.278-119.984-1.713-165.153  l-14.905-14.905c-24.67-24.156-25.09-63.731-0.942-88.401c9.174-9.251,21.115-15.265,34.007-17.132  c6.168,4.454,12.249,9.423,18.074,14.562c0,0.086,0.086,0.171,0.171,0.257h0.086c3.426,3.084,6.853,6.253,10.108,9.594  C485.354,179.341,486.982,332.416,393.526,425.871z"/>
<path d="M266.698,511.909c-67.714-0.051-132.628-27.034-180.418-75.004c-3.435-3.538-6.81-7.076-9.902-10.613  c-6.433-7.058-12.429-14.502-17.963-22.289c-0.24-0.326-0.454-0.66-0.634-1.019c-0.137-0.214-0.257-0.445-0.368-0.677l-0.017,0.009  c-17.338-34.727-3.238-76.923,31.489-94.261c27.557-13.757,60.853-7.966,82.148,14.28l14.905,14.905  c41.794,42.616,110.176,43.421,152.955,1.79c20.139-20.139,31.249-47.593,30.778-76.075c-0.283-28.927-11.958-56.579-32.491-76.957  l-14.905-14.905c-27.96-27.523-28.388-72.477-0.942-100.514c21.407-21.209,53.94-26.443,80.923-13.029l0,0  c0.634,0.317,1.234,0.702,1.773,1.156c7.649,5.422,14.991,11.273,21.989,17.509c0.171,0.146,0.326,0.3,0.48,0.463  c3.504,3.152,7.007,6.399,10.339,9.817c47.43,47.01,74.422,110.827,75.133,177.599c1.062,66.061-24.756,129.724-71.535,176.383l0,0  C394.349,486.476,331.808,512.183,266.698,511.909z M72.832,394.682c5.028,7.033,10.468,13.757,16.293,20.147  c3.05,3.495,6.21,6.801,9.363,10.031c91.888,91.836,239.909,93.447,329.843,3.521c43.498-43.413,67.509-102.638,66.515-164.091  c-0.668-62.335-25.895-121.895-70.19-165.753c-2.998-3.075-6.065-5.936-9.14-8.712c-0.377-0.266-0.728-0.565-1.054-0.891  c-0.154-0.154-0.3-0.308-0.445-0.471c-6.399-5.671-13.097-10.99-20.087-15.924c-20.276-9.714-44.475-5.654-60.476,10.142  c-20.764,21.347-20.336,55.465,0.942,76.289l14.905,14.905c23.719,23.539,37.194,55.482,37.511,88.898  c0.54,33.091-12.386,64.982-35.806,88.367c-49.477,48.304-128.696,47.499-177.18-1.799l-14.905-14.905  c-20.85-21.312-55.011-21.732-76.375-0.942c-15.744,16.027-19.796,40.192-10.142,60.485  C72.557,394.211,72.703,394.443,72.832,394.682z"/>
<path d="M82.837,429.212c-2.073,0-4.077-0.728-5.662-2.064c-1.996-1.713-3.855-3.315-5.636-5.003  c-5.679-5.671-10.382-12.258-13.903-19.471c-2.047-4.274-0.24-9.388,4.026-11.436s9.388-0.24,11.427,4.035l0,0  c2.655,5.431,6.185,10.382,10.459,14.648c1.311,1.242,2.887,2.595,4.463,3.949c3.743,2.878,4.454,8.241,1.576,11.992  C87.976,427.97,85.484,429.204,82.837,429.212L82.837,429.212z"/>
<path d="M420.347,91.197c-2.587,0.009-5.037-1.165-6.664-3.178c-1.165-1.49-2.424-2.904-3.769-4.223  c-4.274-4.412-9.311-8.009-14.862-10.622c-4.292-2.004-6.142-7.101-4.137-11.384c2.004-4.292,7.101-6.142,11.384-4.137l0,0  c7.315,3.426,13.963,8.146,19.616,13.92c1.816,1.782,3.521,3.675,5.097,5.679c2.972,3.675,2.407,9.071-1.276,12.044  C424.201,90.52,422.3,91.197,420.347,91.197L420.347,91.197z"/>
<g>
	<path style="fill:#AD1457;" d="M8.569,312.003c12.952,2.835,26.426-1.525,35.249-11.419c9.877-8.84,14.237-22.306,11.419-35.249   l0,0l17.877,17.877c13.166,12.609,13.611,33.502,1.002,46.668c-12.609,13.157-33.502,13.611-46.668,1.002   c-0.343-0.326-0.677-0.66-1.002-1.002L8.569,312.003z"/>
	<path style="fill:#AD1457;" d="M265.25,55.314c12.952,2.835,26.426-1.525,35.249-11.419c9.877-8.84,14.237-22.306,11.419-35.249   l0,0l17.877,17.877c13.157,12.618,13.603,33.51,0.985,46.668c-12.618,13.157-33.51,13.603-46.668,0.985   c-0.334-0.326-0.668-0.651-0.985-0.985L265.25,55.314L265.25,55.314z"/>
</g>
<path d="M50.491,348.443c-11.299,0-22.135-4.506-30.11-12.506L2.504,318.059c-3.341-3.349-3.341-8.772,0.009-12.112  c2.381-2.373,5.928-3.144,9.071-1.953c9.765,1.533,19.642-2.039,26.178-9.457c7.478-6.51,11.059-16.438,9.448-26.229  c-1.636-4.437,0.625-9.363,5.063-10.999c3.135-1.156,6.656-0.385,9.02,1.979l17.877,17.877c16.481,16.25,16.704,42.762,0.505,59.285  C71.932,344.16,61.43,348.486,50.491,348.443z M28.502,319.824l4,4c9.551,9.8,25.227,10.022,35.061,0.505  c9.525-9.825,9.303-25.51-0.505-35.061l-4.017-4.017c-2.63,8.078-7.144,15.402-13.166,21.389  C43.896,312.671,36.572,317.186,28.502,319.824z"/>
<path d="M307.172,91.753c-11.299,0-22.126-4.506-30.101-12.506L259.194,61.37c-3.341-3.349-3.341-8.772,0-12.112  c2.381-2.381,5.936-3.144,9.08-1.953c9.765,1.542,19.642-2.03,26.169-9.457c7.478-6.519,11.05-16.438,9.448-26.229  c-1.636-4.437,0.625-9.363,5.063-10.999c3.135-1.156,6.664-0.385,9.029,1.979l17.877,17.877  c16.481,16.25,16.704,42.762,0.505,59.285C328.613,87.479,318.111,91.796,307.172,91.753z M285.192,63.134l4,4  c9.551,9.8,25.227,10.022,35.061,0.505c9.525-9.825,9.303-25.51-0.505-35.061l-4.026-4.017c-2.63,8.078-7.135,15.41-13.157,21.398  C300.577,55.973,293.253,60.496,285.192,63.134z"/>
<g>
</g>
<g>
</g>
<g>
</g>
<g>
</g>
<g>
</g>
<g>
</g>
<g>
</g>
<g>
</g>
<g>
</g>
<g>
</g>
<g>
</g>
<g>
</g>
<g>
</g>
<g>
</g>
<g>
</g>
</svg>
