<?xml version="1.0" encoding="iso-8859-1"?>
<!-- Generator: Adobe Illustrator 19.0.0, SVG Export Plug-In . SVG Version: 6.00 Build 0)  -->
<svg xmlns="http://www.w3.org/2000/svg" xmlns:xlink="http://www.w3.org/1999/xlink" version="1.1" id="Capa_1" x="0px" y="0px" viewBox="0 0 511.998 511.998" style="enable-background:new 0 0 511.998 511.998;" xml:space="preserve">
<g>
	<path style="fill:#607D8B;" d="M347.002,57.882l-0.427,0.427l-10.752,10.666l-14.848,14.677l-0.341-0.341   c-8.286-3.226-16.776-5.879-25.429-7.936l17.237-17.066l0.427-0.427l-0.427-0.512c-32.401-14.643-67.37-22.767-102.91-23.893   c5.547-0.256,11.264-0.427,16.981-0.427c41.318-0.811,82.311,7.492,120.062,24.32L347.002,57.882z"/>
	<path style="fill:#607D8B;" d="M376.953,76.057l-0.427,0.427l-16.298,16.213l-7.595,7.509   c13.892,8.533,23.697,22.374,27.136,38.314c0.102,0.503,0.154,1.024,0.171,1.536c0.145,1.306,0.196,2.611,0.171,3.925   c0.017,0.683-0.017,1.365-0.085,2.048c-0.828,10.709-5.316,20.804-12.714,28.586v0.085   c-23.722,27.136-77.823,46.079-140.798,46.079c-5.803,0-11.434-0.171-17.066-0.512c-55.636-2.987-102.228-20.906-123.646-45.653   c-7.961-8.252-12.561-19.174-12.885-30.634c0-39.509,59.732-72.02,136.446-76.287c5.632-0.341,11.349-0.512,17.152-0.512   c23.151-0.137,46.224,2.62,68.692,8.192l17.237-17.066l0.427-0.427l-0.427-0.512c-32.401-14.643-67.37-22.767-102.91-23.893h-0.171   C113.107,38.17,41.94,82.201,38.954,140.056c-0.085,1.28-0.171,2.56-0.171,3.925c0.512,22.357,10.129,43.528,26.624,58.623   c29.61,29.184,81.577,48.895,144.04,51.796c5.632,0.341,11.264,0.512,17.066,0.512c70.057,0,128.851-20.48,161.107-52.308   c16.495-15.095,26.112-36.266,26.624-58.623C414.243,117.955,400.59,94.489,376.953,76.057z"/>
</g>
<g>
	<path style="fill:#CFD8DC;" d="M380.025,146.03c-1.033,21.623-10.573,41.958-26.538,56.575   c-29.61,29.184-81.577,48.895-144.04,51.796c-62.463-2.901-114.43-22.613-144.04-51.796   c-16.495-15.095-26.112-36.266-26.624-58.623c0-1.365,0.085-2.645,0.171-3.925C41.94,82.201,113.107,38.17,209.361,33.477h0.171   c35.541,1.126,70.51,9.25,102.91,23.893l0.427,0.512l-0.427,0.427l-17.237,17.066c-22.468-5.572-45.542-8.328-68.692-8.192   c-5.803,0-11.52,0.171-17.152,0.512c-76.713,4.267-136.446,36.778-136.446,76.287c0.324,11.46,4.924,22.383,12.885,30.634   c21.418,24.746,68.01,42.666,123.646,45.653c5.632,0.341,11.264,0.512,17.066,0.512c62.975,0,117.075-18.944,140.798-46.079v-0.085   C374.709,166.833,379.198,156.739,380.025,146.03z"/>
	<path style="fill:#CFD8DC;" d="M352.634,100.206l7.595-7.509c11.324,12.74,18.184,28.834,19.541,45.823   C376.339,122.58,366.534,108.74,352.634,100.206z"/>
</g>
<path d="M226.513,263.446c-69.878,0-132.35-20.471-167.105-54.766C41.3,191.972,30.77,168.617,30.25,143.982  c0-68.103,84.376-119.465,196.263-119.465c42.598-0.836,84.854,7.757,123.74,25.156c1.101,0.529,2.074,1.28,2.859,2.219  c2.97,3.482,2.927,8.627-0.111,12.057l-26.026,25.77c-1.596,1.579-3.755,2.466-6.007,2.475c-1.69,0.128-3.362-0.375-4.702-1.417  c-28.774-10.359-59.178-15.462-89.761-15.061c-78.633,0-145.064,31.266-145.064,68.266c0.324,9.369,4.156,18.27,10.718,24.96  c22.792,26.342,75.493,43.306,134.347,43.306c58.23,0,110.599-16.674,133.817-42.529c0.179-0.265,0.375-0.512,0.58-0.751  c6.536-6.716,10.334-15.624,10.666-24.985c0-16.333-12.996-29.038-23.901-36.829c-3.831-2.739-4.719-8.072-1.98-11.904  c0.282-0.393,0.589-0.751,0.93-1.092l23.893-23.722c3.115-3.149,8.038-3.61,11.69-1.101c26.538,20.693,40.575,46.514,40.575,74.657  c-0.521,24.627-11.05,47.982-29.158,64.69C358.863,242.967,296.4,263.446,226.513,263.446z M226.513,41.583  c-102.159,0-179.197,44.023-179.197,102.398c0.461,20.087,9.173,39.099,24.098,52.564c31.624,31.206,89.607,49.834,155.099,49.834  s123.484-18.636,155.116-49.851c14.916-13.457,23.628-32.469,24.081-52.547c-0.683-22.033-11.008-42.657-28.245-56.413  l-11.981,11.904c13.935,10.675,22.417,26.973,23.151,44.509c-0.256,13.209-5.342,25.864-14.31,35.558  c-0.179,0.273-0.384,0.529-0.597,0.777c-26.018,29.764-83.813,48.998-147.223,48.998c-63.589,0-121.35-19.276-147.172-49.117  c-9.301-9.805-14.626-22.707-14.959-36.215c0-47.846,71.218-85.332,162.131-85.332c31.462-0.35,62.745,4.702,92.5,14.933  l13.329-13.192C298.593,47.403,262.668,41.012,226.513,41.583z"/>
<path d="M376.945,84.591c-1.323,0-2.628-0.307-3.806-0.896c-0.649-0.341-1.254-0.742-1.818-1.212  c-3.738-2.876-4.429-8.235-1.553-11.972c2.534-3.285,7.057-4.275,10.726-2.347c0.58,0.307,1.126,0.683,1.621,1.101  c3.755,2.85,4.48,8.209,1.621,11.955C382.133,83.345,379.616,84.591,376.945,84.591z"/>
<path style="fill:#1566C0;" d="M367.311,174.616v0.085c-23.722,27.136-77.823,46.079-140.798,46.079  c-63.06,0-117.161-18.944-140.712-46.165c23.722-27.05,77.823-45.994,140.712-45.994c15.198-0.026,30.37,1.118,45.397,3.413  l0.171,0.171l-0.171,0.171l-36.863,36.522l1.707,1.707h44.885l29.354-29.098l0.171-0.171  C332.427,147.42,351.763,158.881,367.311,174.616z"/>
<path d="M226.513,229.313c-63.589,0-121.35-19.276-147.172-49.117c-2.79-3.226-2.773-8.004,0.034-11.204  c26.052-29.704,83.804-48.895,147.129-48.895c15.633-0.026,31.249,1.152,46.702,3.516c1.792,0.282,3.447,1.118,4.727,2.398  c3.379,3.354,3.456,8.789,0.171,12.237L254.05,162.08h24.064l26.854-26.624c2.321-2.313,5.726-3.166,8.866-2.21  c22.707,6.536,43.34,18.85,59.869,35.737c1.374,1.562,2.133,3.567,2.133,5.64v0.085c0,2.065-0.751,4.062-2.108,5.615  C347.719,210.08,289.923,229.313,226.513,229.313z M97.722,174.65c25.002,23.023,74.264,37.597,128.791,37.597  c54.408,0,103.704-14.558,128.877-37.563c-12.365-10.462-26.624-18.457-41.992-23.552l-25.753,25.531  c-1.596,1.587-3.755,2.475-6.007,2.475h-44.885c-2.261,0-4.429-0.896-6.033-2.5l-1.707-1.707c-3.328-3.328-3.336-8.729,0-12.066  c0.009-0.009,0.026-0.026,0.034-0.034l24.669-24.448c-8.917-0.819-18.014-1.237-27.204-1.237  C172.174,137.155,122.912,151.687,97.722,174.65z"/>
<path id="SVGCleanerId_0" d="M85.801,183.149c-2.432,0-4.753-1.041-6.374-2.859c-9.344-9.822-14.703-22.758-15.044-36.309  c0-47.846,71.218-85.332,162.131-85.332c33.16-0.427,66.115,5.239,97.227,16.708c1.118,0.435,2.125,1.101,2.97,1.954  c3.379,3.371,3.524,8.789,0.341,12.33l-0.341,0.341l-48.614,48.272c-2.321,2.295-5.743,3.072-8.823,2.005  c-14.157-2.091-28.441-3.132-42.751-3.106c-58.632,0-111.341,16.913-134.295,43.084C90.665,182.176,88.284,183.26,85.801,183.149z   M226.513,75.716c-78.633,0-145.064,31.266-145.064,68.266c0.077,6.263,1.903,12.373,5.265,17.655  c28.603-25.48,81.867-41.548,139.799-41.548c14.285-0.017,28.561,0.964,42.709,2.927l36.258-35.993  C279.88,79.283,253.256,75.469,226.513,75.716z"/>
<path d="M352.634,108.74c-1.911,0-3.772-0.64-5.274-1.826c-0.384-0.282-0.751-0.597-1.092-0.93c-3.328-3.336-3.328-8.738,0-12.066  c3.055-3.055,7.91-3.345,11.306-0.674c0.384,0.282,0.751,0.597,1.092,0.93c3.328,3.336,3.328,8.738,0,12.066  C357.062,107.844,354.895,108.74,352.634,108.74L352.634,108.74z"/>
<path d="M85.716,183.234c-4.736,0.009-8.584-3.823-8.593-8.559c-0.009-4.736,3.823-8.584,8.559-8.593s8.584,3.823,8.593,8.559  c0.009,2.244-0.87,4.403-2.44,6.007l-0.085,0.085C90.153,182.338,87.977,183.234,85.716,183.234z"/>
<path d="M311.162,149.861c-4.736,0.068-8.627-3.712-8.695-8.448c-0.068-4.736,3.712-8.627,8.448-8.695c0.026,0,0.06,0,0.085,0  c2.321,0.026,4.548,0.956,6.204,2.586c3.328,3.336,3.328,8.738,0,12.066C315.591,148.965,313.424,149.861,311.162,149.861  L311.162,149.861z"/>
<path style="fill:#0377BC;" d="M387.62,202.605c-10.82,10.402-23.159,19.097-36.607,25.77  c-38.886,18.363-81.509,27.443-124.499,26.538c-5.803,0-11.434-0.171-17.066-0.512c-62.463-2.901-114.43-22.613-144.04-51.796  l-1.024,1.109l3.499,24.661l13.226,92.329l22.357,156.84c33.203,15.667,69.281,24.328,105.982,25.429  c5.632,0.256,11.264,0.427,17.066,0.427c42.453,0.896,84.547-7.944,123.049-25.856l22.357-156.84l16.725-116.99L387.62,202.605z"/>
<path style="fill:#02A9F4;" d="M351.012,228.375l-13.226,92.329l-22.357,156.84c-33.203,15.667-69.281,24.328-105.982,25.429  c-36.701-1.101-72.78-9.762-105.982-25.429l-22.357-156.84l-13.226-92.329l-3.499-24.661l1.024-1.109  c29.61,29.184,81.577,48.895,144.04,51.796c5.632,0.341,11.264,0.512,17.066,0.512C269.512,255.818,312.127,246.738,351.012,228.375  z"/>
<path d="M226.513,511.933c-43.784,0.939-87.192-8.226-126.871-26.76c-2.5-1.254-4.224-3.652-4.625-6.425L55.935,204.926  c-0.367-2.543,0.435-5.12,2.176-7.006l1.024-1.109c3.208-3.464,8.619-3.669,12.074-0.452c0.06,0.06,0.128,0.119,0.188,0.179  c31.633,31.214,89.616,49.851,155.108,49.851s123.484-18.636,155.116-49.851c3.362-3.311,8.772-3.268,12.074,0.094  c0.06,0.06,0.119,0.128,0.179,0.188l1.024,1.109c1.741,1.886,2.543,4.463,2.184,7.006l-39.091,273.822  c-0.393,2.773-2.116,5.171-4.625,6.425C313.714,503.707,270.297,512.863,226.513,511.933z M111.272,471.852  c36.275,15.974,75.613,23.833,115.241,23.014c39.628,0.811,78.958-7.04,115.241-23.014l35.618-249.545  c-36.223,26.018-90.802,41.139-150.858,41.139s-114.635-15.121-150.85-41.139L111.272,471.852z"/>
<g>
	<path style="fill:#607D8B;" d="M320.976,83.652l-0.341,0.341l-48.554,48.213l-0.171-0.171c-15.027-2.295-30.199-3.439-45.397-3.413   c-62.89,0-116.99,18.944-140.712,45.994c-7.961-8.252-12.561-19.174-12.885-30.634c0-42.41,68.778-76.799,153.597-76.799   c32.093-0.41,63.99,5.052,94.121,16.128L320.976,83.652z"/>
	<path style="fill:#607D8B;" d="M380.111,143.982c-0.316,11.443-4.881,22.365-12.8,30.634   c-15.547-15.735-34.884-27.195-56.148-33.279l41.13-40.789l0.341-0.341C369.956,112.579,380.111,127.683,380.111,143.982z"/>
</g>
<g>
	<path id="SVGCleanerId_0_1_" d="M85.801,183.149c-2.432,0-4.753-1.041-6.374-2.859c-9.344-9.822-14.703-22.758-15.044-36.309   c0-47.846,71.218-85.332,162.131-85.332c33.16-0.427,66.115,5.239,97.227,16.708c1.118,0.435,2.125,1.101,2.97,1.954   c3.379,3.371,3.524,8.789,0.341,12.33l-0.341,0.341l-48.614,48.272c-2.321,2.295-5.743,3.072-8.823,2.005   c-14.157-2.091-28.441-3.132-42.751-3.106c-58.632,0-111.341,16.913-134.295,43.084C90.665,182.176,88.284,183.26,85.801,183.149z    M226.513,75.716c-78.633,0-145.064,31.266-145.064,68.266c0.077,6.263,1.903,12.373,5.265,17.655   c28.603-25.48,81.867-41.548,139.799-41.548c14.285-0.017,28.561,0.964,42.709,2.927l36.258-35.993   C279.88,79.283,253.256,75.469,226.513,75.716z"/>
</g>
<path d="M367.311,183.149L367.311,183.149c-2.449,0-4.779-1.05-6.4-2.893c-14.541-14.6-32.597-25.216-52.436-30.822  c-4.471-1.476-6.895-6.306-5.419-10.777c0.418-1.271,1.143-2.432,2.091-3.379l41.13-40.789c3.012-3.029,7.723-3.541,11.315-1.229  c20.309,14.506,31.044,32.051,31.044,50.713c-0.273,13.534-5.606,26.47-14.933,36.275  C372.089,182.091,369.76,183.149,367.311,183.149z M326.684,137.957c14.464,5.589,27.878,13.593,39.671,23.654  c3.328-5.282,5.137-11.383,5.214-17.63c-1.033-12.962-7.705-24.823-18.244-32.443L326.684,137.957z"/>
<path style="fill:#C52828;" d="M473.208,69.828l-24.064,23.808l-38.911-38.57c-3.354-3.328-8.764-3.328-12.117,0l-21.162,20.992  l-0.427,0.427l-23.893,23.722l-0.341,0.341l-41.13,40.789l-0.171,0.171l-29.354,29.098h-44.885l-1.707-1.707l36.863-36.522  l0.171-0.171l48.554-48.213l0.341-0.341l25.6-25.344l0.427-0.427l33.109-32.597h0.085l11.946-11.861  c6.673-6.571,17.391-6.571,24.064,0L473.208,69.828z"/>
<path d="M281.638,179.138h-44.885c-2.261,0-4.429-0.896-6.033-2.5l-1.707-1.707c-3.328-3.328-3.336-8.729,0-12.066  c0.009-0.009,0.026-0.026,0.034-0.034L374.129,19.201c0.23-0.23,0.469-0.444,0.725-0.64l11.281-11.196  c10.018-9.813,26.043-9.822,36.07-0.017l57.01,56.413c3.354,3.311,3.379,8.712,0.068,12.066c-0.026,0.026-0.043,0.043-0.068,0.068  l-24.064,23.808c-3.328,3.294-8.687,3.294-12.006-0.009l-38.911-38.57l-116.58,115.539  C286.049,178.251,283.89,179.138,281.638,179.138z M254.058,162.072h24.064L392.108,49.007c6.784-6.408,17.391-6.4,24.157,0.017  l32.887,32.597l11.921-11.801l-50.866-50.337c-3.354-3.268-8.712-3.268-12.066,0.017l-11.929,11.844  c-0.239,0.247-0.503,0.469-0.777,0.683L254.058,162.072z"/>
<path d="M311.845,179.138h-30.208c-4.71,0-8.533-3.823-8.533-8.533c0-4.71,3.823-8.533,8.533-8.533h30.208  c4.71,0,8.533,3.823,8.533,8.533C320.378,175.315,316.555,179.138,311.845,179.138z"/>
<path d="M236.753,179.138h-27.306c-4.71,0-8.533-3.823-8.533-8.533c0-4.71,3.823-8.533,8.533-8.533h27.306  c4.71,0,8.533,3.823,8.533,8.533C245.286,175.315,241.472,179.138,236.753,179.138z"/>
<g>
</g>
<g>
</g>
<g>
</g>
<g>
</g>
<g>
</g>
<g>
</g>
<g>
</g>
<g>
</g>
<g>
</g>
<g>
</g>
<g>
</g>
<g>
</g>
<g>
</g>
<g>
</g>
<g>
</g>
</svg>
