<?xml version="1.0" encoding="iso-8859-1"?>
<!-- Generator: Adobe Illustrator 19.0.0, SVG Export Plug-In . SVG Version: 6.00 Build 0)  -->
<svg xmlns="http://www.w3.org/2000/svg" xmlns:xlink="http://www.w3.org/1999/xlink" version="1.1" id="Capa_1" x="0px" y="0px" viewBox="0 0 512 512" style="enable-background:new 0 0 512 512;" xml:space="preserve">
<g>
	<path style="fill:#FFB301;" d="M503.467,204.8c0,9.344-1.527,18.628-4.523,27.477c-4.267,1.707-8.704,3.413-13.141,5.035   c-32.307,11.409-65.579,19.866-99.413,25.259c-43.093,7.117-86.707,10.633-130.389,10.496c-87.979,0-168.277-13.397-229.803-35.755   c-4.437-1.621-8.875-3.328-13.141-5.035c-2.995-8.849-4.523-18.133-4.523-27.477c0-59.221,60.501-110.08,147.2-132.608   C188.493,63.795,222.182,59.605,256,59.733C392.704,59.733,503.467,124.672,503.467,204.8z"/>
	<path style="fill:#FFB301;" d="M499.541,334.251c-3.157,1.195-6.315,2.304-9.557,3.413c-10.069,3.499-20.48,6.912-31.232,10.069   c-6.4,1.877-12.885,3.755-19.456,5.461c-0.077,0.247-0.196,0.469-0.341,0.683c-9.984,17.408-34.645,29.696-63.488,29.696   c-1.024,0-2.133,0-3.157-0.085c-14.737-0.239-29.167-4.258-41.899-11.691c-4.139-2.398-7.953-5.325-11.349-8.704   c-2.27,3.831-5.12,7.279-8.448,10.24c-4.813,4.318-10.249,7.885-16.128,10.581c-12.066,5.538-25.207,8.337-38.485,8.192   c-1.109,0-2.219,0-3.328-0.085c-18.833-0.06-37.043-6.733-51.456-18.859h-0.085c-3.2-2.944-5.965-6.332-8.192-10.069   c-3.294,3.294-6.997,6.161-11.008,8.533c-7.415,4.471-15.514,7.706-23.979,9.557c-7.031,1.596-14.208,2.398-21.419,2.389   c-1.109,0-2.219,0-3.328-0.085c-27.819-0.853-51.2-13.227-60.501-30.293c-17.749-4.693-34.645-9.873-50.688-15.531   c-3.243-1.109-6.4-2.219-9.557-3.413c-2.577,5.504-3.917,11.503-3.925,17.579c0,1.28,0.085,2.569,0.256,3.84   c4.864,53.675,113.664,96.597,247.211,96.597c29.312,0.068,58.581-2.125,87.552-6.571c93.525-14.251,159.915-50.944,159.915-93.867   C503.458,345.754,502.118,339.755,499.541,334.251z"/>
</g>
<g>
	<path style="fill:#FEC108;" d="M460.8,360.363c0,36.096-46.848,67.755-117.248,85.333c-28.971,4.446-58.24,6.639-87.552,6.571   c-133.547,0-242.347-42.923-247.211-96.597c-0.171-1.271-0.256-2.56-0.256-3.84c0.009-6.076,1.348-12.075,3.925-17.579   c3.157,1.195,6.315,2.304,9.557,3.413c16.043,5.632,32.939,10.812,50.688,15.531c9.301,17.067,32.683,29.44,60.501,30.293   c1.109,0.085,2.219,0.085,3.328,0.085c7.211,0.009,14.387-0.794,21.419-2.389c8.465-1.852,16.563-5.086,23.979-9.557   c4.011-2.372,7.714-5.239,11.008-8.533c2.227,3.738,4.992,7.125,8.192,10.069h0.085c14.413,12.126,32.623,18.799,51.456,18.859   c1.109,0.085,2.219,0.085,3.328,0.085c13.278,0.145,26.419-2.654,38.485-8.192c5.879-2.697,11.315-6.263,16.128-10.581   c3.328-2.961,6.178-6.409,8.448-10.24c3.396,3.379,7.211,6.306,11.349,8.704c12.732,7.432,27.162,11.452,41.899,11.691   c1.024,0.085,2.133,0.085,3.157,0.085c28.843,0,53.504-12.288,63.488-29.696c0.145-0.213,0.265-0.435,0.341-0.683   c6.571-1.707,13.056-3.584,19.456-5.461C460.109,351.804,460.8,356.07,460.8,360.363z"/>
	<path style="fill:#FEC108;" d="M157.952,381.184c-7.031,1.596-14.208,2.398-21.419,2.389c-1.109,0-2.219,0-3.328-0.085   L157.952,381.184z"/>
	<path style="fill:#FEC108;" d="M460.8,213.333c0,9.344-1.527,18.628-4.523,27.477c-4.267,1.707-8.704,3.413-13.141,5.035   c-18.586,6.647-37.53,12.228-56.747,16.725c-43.093,7.117-86.707,10.633-130.389,10.496c-87.979,0-168.277-13.397-229.803-35.755   c-4.437-1.621-8.875-3.328-13.141-5.035c-2.995-8.849-4.523-18.133-4.523-27.477c0-59.221,60.501-110.08,147.2-132.608   c19.089-2.628,38.332-3.934,57.6-3.925C350.037,68.267,460.8,133.205,460.8,213.333z"/>
</g>
<path d="M256,460.8c-143.548,0-256-47.863-256-108.971c0.009-7.313,1.613-14.541,4.71-21.163c1.869-4.079,6.579-5.999,10.769-4.395  c3.072,1.161,6.144,2.236,9.301,3.319c16.128,5.666,32.956,10.82,50.108,15.36c2.27,0.606,4.19,2.108,5.316,4.173  c8.422,15.505,31.061,25.924,56.329,25.924c14.362,0.213,28.51-3.482,40.934-10.692c3.439-2.022,6.605-4.471,9.429-7.287  c3.337-3.337,8.738-3.337,12.075-0.009c0.503,0.503,0.939,1.058,1.297,1.664c1.664,2.79,3.695,5.342,6.042,7.595  c0.239,0.179,0.478,0.367,0.7,0.572c13.773,11.315,31.181,17.237,48.99,16.683c17.741,0.555,35.081-5.316,48.845-16.529  c2.688-2.381,5.001-5.163,6.844-8.243c2.364-4.079,7.586-5.461,11.665-3.089c0.64,0.375,1.229,0.828,1.749,1.348  c2.867,2.859,6.093,5.325,9.591,7.347c12.382,7.168,26.47,10.837,40.772,10.633c24.832,0,47.369-10.214,56.081-25.412  c0.853-2.466,2.987-4.267,5.564-4.685c17.152-4.54,33.98-9.694,50.039-15.334c3.217-1.101,6.298-2.176,9.37-3.345  c4.19-1.596,8.892,0.324,10.769,4.395c3.098,6.622,4.702,13.85,4.71,21.163C512,412.937,399.548,460.8,256,460.8z M17.749,345.216  c-0.452,2.176-0.683,4.395-0.683,6.613c0,44.382,96.009,91.904,238.933,91.904s238.933-47.522,238.933-91.904  c0-2.219-0.23-4.437-0.683-6.613l-1.51,0.521c-15.351,5.393-31.454,10.368-47.855,14.797  c-12.143,19.063-39.194,31.573-69.419,31.573c-17.374,0.213-34.483-4.292-49.502-13.03c-1.886-1.092-3.721-2.287-5.478-3.575  c-1.314,1.468-2.697,2.859-4.164,4.173c-16.853,14.148-38.323,21.615-60.322,20.966c-21.786,0.614-43.051-6.69-59.861-20.557  c-0.282-0.196-0.546-0.418-0.802-0.649c-1.348-1.246-2.62-2.551-3.831-3.908c-1.681,1.229-3.43,2.381-5.231,3.447  c-15.087,8.798-32.282,13.346-49.741,13.141c-30.157,0-56.875-12.271-69.376-31.565c-16.418-4.429-32.538-9.412-47.966-14.831  C18.705,345.549,18.227,345.387,17.749,345.216z"/>
<path d="M256,281.6c-85.709,0-168.354-12.877-232.713-36.267c-4.531-1.655-9.054-3.396-13.397-5.137  c-2.321-0.93-4.113-2.825-4.915-5.197C1.681,225.271,0,215.074,0,204.8C0,120.107,114.842,51.2,256,51.2s256,68.907,256,153.6  c0,10.274-1.681,20.471-4.975,30.199c-0.802,2.364-2.594,4.267-4.915,5.197c-4.343,1.741-8.866,3.482-13.38,5.137  C424.098,268.723,341.461,281.6,256,281.6z M19.994,225.843c3.004,1.178,6.067,2.338,9.131,3.456  C91.648,252.015,172.228,264.533,256,264.533c83.524,0,164.105-12.518,226.901-35.243c3.046-1.109,6.101-2.27,9.105-3.447  c1.937-6.844,2.927-13.926,2.927-21.043c0-75.281-107.187-136.533-238.933-136.533S17.067,129.519,17.067,204.8  C17.067,211.917,18.057,218.999,19.994,225.843z"/>
<g>
	<path style="fill:#8BC34A;" d="M74.24,317.44c-3.84,5.666-5.922,12.348-5.973,19.2c0.017,5.811,1.545,11.52,4.437,16.555   c-17.749-4.693-34.645-9.873-50.688-15.531c-7.671-11.588-6.178-26.965,3.584-36.864l-1.195-4.693   c-0.512-1.024-0.939-2.048-1.365-3.072c0.614,0.264,1.237,0.495,1.877,0.683c16.853,6.144,34.031,11.358,51.456,15.616   L74.24,317.44z"/>
	<path style="fill:#8BC34A;" d="M489.984,337.664c-16.043,5.632-32.939,10.812-50.688,15.531c2.893-5.035,4.42-10.743,4.437-16.555   c-0.043-6.682-2.031-13.201-5.717-18.773l-2.304-8.533c17.237-4.352,33.425-9.242,48.555-14.677l2.133,6.144l0.085,0.085   C496.196,310.775,497.655,326.118,489.984,337.664z"/>
</g>
<path d="M72.704,361.728c-0.734,0-1.468-0.094-2.185-0.282c-17.579-4.651-34.85-9.95-51.337-15.735  c-1.869-0.657-3.456-1.954-4.48-3.652c-8.678-13.338-8.098-30.686,1.459-43.409c-0.35-0.785-0.683-1.57-1.007-2.355  c-1.801-4.352,0.265-9.344,4.617-11.153c2.133-0.887,4.54-0.862,6.665,0.051c0.273,0.119,0.546,0.222,0.828,0.307  c16.759,6.11,33.835,11.298,51.166,15.539c4.574,1.135,7.364,5.76,6.229,10.334c-0.009,0.043-0.017,0.085-0.034,0.119l-2.133,8.107  c-0.23,0.887-0.606,1.724-1.109,2.492c-2.944,4.292-4.54,9.353-4.582,14.549c0.009,4.335,1.161,8.593,3.328,12.348  c2.321,4.096,0.887,9.301-3.217,11.631C75.631,361.344,74.18,361.728,72.704,361.728z M27.938,330.692  c10.402,3.584,21.111,6.972,32.009,10.121c-0.145-1.382-0.213-2.782-0.213-4.173c0.026-7.475,2.022-14.814,5.786-21.282  c-11.443-3.029-22.417-6.323-32.811-9.839c-0.367,0.546-0.794,1.05-1.271,1.502C25.301,313.336,23.893,322.876,27.938,330.692z"/>
<path d="M439.296,361.728c-4.71,0-8.533-3.814-8.533-8.525c0-1.476,0.384-2.927,1.109-4.207c2.167-3.755,3.319-8.013,3.328-12.348  c-0.051-5.043-1.57-9.967-4.369-14.165c-0.469-0.734-0.828-1.536-1.058-2.381l-2.304-8.533c-1.229-4.548,1.468-9.233,6.016-10.462  c0.043-0.009,0.085-0.026,0.137-0.034c17.212-4.343,33.271-9.199,47.735-14.43c4.437-1.604,9.327,0.691,10.931,5.12  c0.009,0.034,0.026,0.068,0.034,0.102l1.502,4.335c11.366,12.757,12.791,31.548,3.465,45.867c-1.024,1.707-2.611,2.995-4.489,3.661  c-16.486,5.786-33.758,11.085-51.337,15.736C440.764,361.634,440.03,361.728,439.296,361.728z M446.473,315.358  c3.78,6.46,5.777,13.807,5.794,21.291c0,1.391-0.068,2.782-0.213,4.173c10.897-3.149,21.606-6.537,32-10.121  c4.096-7.782,2.714-17.323-3.439-23.612c-0.503-0.495-0.956-1.041-1.34-1.63C468.975,308.949,457.984,312.26,446.473,315.358  L446.473,315.358z"/>
<path style="fill:#4E342E;" d="M488.96,293.035h-0.085c-1.536,0.597-3.072,1.109-4.608,1.621  c-15.104,5.461-31.292,10.351-48.555,14.677c-0.265,0.017-0.521,0.077-0.768,0.171c-36.873,9.045-74.436,15.01-112.299,17.835  h-0.341c-0.222,0.068-0.452,0.102-0.683,0.085c-21.248,1.707-43.179,2.56-65.621,2.56c-5.632,0-11.179-0.085-16.725-0.171h-1.621  c-16.043-0.341-31.829-1.109-47.189-2.389c-38.17-2.825-76.049-8.789-113.237-17.835c-0.256-0.085-0.597-0.171-0.853-0.256  c-17.425-4.258-34.603-9.472-51.456-15.616c-0.64-0.188-1.263-0.418-1.877-0.683c-6.17-14.566-6.656-30.916-1.365-45.824  c1.024-2.884,2.338-5.658,3.925-8.277l0.597-1.621c67.968,23.023,139.179,35.038,210.944,35.584h2.731  c5.376,0.085,10.667,0.171,16.128,0.171c67.294,0.597,134.349-8.132,199.253-25.941c10.667-2.987,20.821-6.315,30.549-9.813  l0.597,1.621C495.718,255.565,496.666,275.601,488.96,293.035z"/>
<path style="fill:#795548;" d="M453.888,293.035h-0.085c-1.536,0.597-3.072,1.109-4.608,1.621  c-15.104,5.461-31.292,10.351-48.555,14.677c-0.264,0.017-0.521,0.077-0.768,0.171c-36.873,9.045-74.436,15.01-112.299,17.835  h-0.341c-0.222,0.068-0.452,0.102-0.683,0.085c-15.445,1.28-31.232,2.048-47.275,2.389h-1.621  c-16.043-0.341-31.829-1.109-47.189-2.389c-38.17-2.825-76.049-8.789-113.237-17.835c-0.256-0.085-0.597-0.171-0.853-0.256  c-17.425-4.258-34.603-9.472-51.456-15.616c-0.64-0.188-1.263-0.418-1.877-0.683c-6.17-14.566-6.656-30.916-1.365-45.824  c64.905,17.783,131.959,26.479,199.253,25.856c5.461,0,10.837-0.085,16.213-0.171h2.731c5.376,0.085,10.667,0.171,16.128,0.171  c67.294,0.597,134.349-8.132,199.253-25.941C460.595,262.059,460.1,278.451,453.888,293.035z"/>
<path d="M256,338.517c-22.63,0-44.919-0.87-66.219-2.586c-38.63-2.859-76.971-8.892-114.611-18.057l1.203-8.533l-2.057,8.286  c-17.732-4.335-35.209-9.643-52.361-15.898c-0.794-0.239-1.562-0.521-2.313-0.862c-2.057-0.896-3.678-2.56-4.514-4.634  c-8.542-19.678-7.526-42.197,2.756-61.03l0.307-0.828c1.63-4.403,6.502-6.673,10.923-5.077  C91.648,252.015,172.228,264.533,256,264.533c83.524,0,164.105-12.518,226.901-35.243c4.412-1.587,9.284,0.674,10.914,5.077  l0.307,0.828c10.274,18.833,11.29,41.353,2.756,61.03c-0.981,2.432-3.021,4.275-5.538,5.001c-1.408,0.538-2.816,1.007-4.224,1.476  c-14.933,5.393-31.539,10.419-49.306,14.908c-0.316,0.077-0.631,0.137-0.947,0.179c-37.282,9.156-75.255,15.189-113.545,18.057  h-0.034c-0.546,0.077-1.101,0.119-1.655,0.111C300.911,337.647,278.605,338.517,256,338.517z M79.283,301.303  c36.736,8.934,74.138,14.831,111.838,17.613c43.187,3.354,86.571,3.362,129.766,0.009c0.469-0.077,0.947-0.119,1.425-0.119  c37.282-2.79,74.257-8.67,110.566-17.579c0.196-0.051,0.461-0.102,0.751-0.162l0,0c17.212-4.343,33.271-9.199,47.735-14.43  l0.998-0.333c4.489-12.467,4.164-26.163-0.905-38.4C408.585,271.104,332.467,282.487,256,281.6  c-76.476,0.922-152.602-10.453-225.459-33.698c-5.069,12.271-5.376,26.001-0.862,38.485c15.991,5.726,32.265,10.615,48.751,14.66  l-1.203,8.533L79.283,301.303z"/>
<path d="M488.875,301.611c-4.693,0.017-8.508-3.763-8.533-8.457c0-0.009,0-0.017,0-0.034v-0.085c0.026-4.71,3.866-8.516,8.576-8.491  c4.71,0.026,8.516,3.866,8.491,8.576C497.382,297.813,493.568,301.611,488.875,301.611z"/>
<g>
	<path style="fill:#C52828;" d="M192.939,363.093c-1.63,1.596-3.337,3.106-5.12,4.523c-1.877,1.451-3.849,2.79-5.888,4.011   c-13.764,8.038-29.457,12.169-45.397,11.947c-29.269,0-54.187-12.629-63.829-30.379c-0.93-1.553-1.673-3.217-2.219-4.949   c-1.468-3.695-2.219-7.629-2.219-11.605c0.051-6.852,2.133-13.534,5.973-19.2l2.133-8.107c0.256,0.085,0.597,0.171,0.853,0.256   c37.188,9.045,75.068,15.01,113.237,17.835l-0.512,5.803c-1.459,3.814-2.21,7.859-2.219,11.947c0,1.86,0.171,3.721,0.512,5.547   c0.316,2.057,0.896,4.062,1.707,5.973v0.171C190.737,359.031,191.735,361.122,192.939,363.093z"/>
	<path style="fill:#C52828;" d="M443.733,336.64c0,3.977-0.751,7.91-2.219,11.605c-0.546,1.732-1.289,3.396-2.219,4.949   c-0.077,0.247-0.196,0.469-0.341,0.683c-9.984,17.408-34.645,29.696-63.488,29.696c-15.812,0.23-31.386-3.84-45.056-11.776   c-2.15-1.271-4.233-2.671-6.229-4.181c-1.801-1.399-3.507-2.91-5.12-4.523c0.853-1.357,1.596-2.782,2.219-4.267   c0.085,0,0.085,0,0.085-0.085c0.589-1.425,1.101-2.876,1.536-4.352c0.068-0.068,0.094-0.162,0.085-0.256v-0.085   c0.333-1.092,0.597-2.202,0.768-3.328c0.068-0.051,0.085-0.154,0.034-0.222c-0.009-0.009-0.017-0.026-0.034-0.034   c0.171-0.58,0.256-1.186,0.256-1.792c0.171-1.161,0.256-2.33,0.256-3.499c0-2.031-0.171-4.053-0.512-6.059l-1.109-11.776   c37.862-2.825,75.426-8.789,112.299-17.835c0.247-0.094,0.503-0.154,0.768-0.171l2.304,8.533   C441.702,323.439,443.691,329.958,443.733,336.64z"/>
	<path style="fill:#C52828;" d="M324.267,345.173c0,1.169-0.085,2.338-0.256,3.499c0,0.606-0.085,1.212-0.256,1.792   c0.068,0.051,0.085,0.154,0.034,0.222c-0.009,0.009-0.017,0.026-0.034,0.034c-0.171,1.126-0.435,2.236-0.768,3.328v0.085   c0.009,0.094-0.017,0.188-0.085,0.256c-0.41,1.485-0.922,2.935-1.536,4.352c0,0.085,0,0.085-0.085,0.085   c-0.623,1.485-1.365,2.91-2.219,4.267c-2.27,3.831-5.12,7.279-8.448,10.24c-15.3,12.715-34.731,19.396-54.613,18.773   c-19.968,0.623-39.467-6.118-54.784-18.944h-0.085c-3.2-2.944-5.965-6.332-8.192-10.069c-1.203-1.971-2.202-4.062-2.987-6.229   v-0.085c-0.819-1.946-1.391-3.977-1.707-6.059c-0.341-1.826-0.512-3.686-0.512-5.547c0.009-4.087,0.759-8.132,2.219-11.947   l0.512-5.803c21.163,1.707,43.093,2.56,65.536,2.56c22.443,0,44.373-0.853,65.621-2.56c0.23,0.017,0.461-0.017,0.683-0.085h0.341   l1.109,11.776C324.096,341.12,324.267,343.142,324.267,345.173z"/>
</g>
<g>
	<path style="fill:#F44335;" d="M190.464,350.891l-0.512,5.803v0.171c-1.34,3.43-2.057,7.074-2.133,10.752   c-1.877,1.451-3.849,2.79-5.888,4.011c-13.764,8.038-29.457,12.169-45.397,11.947c-29.269,0-54.187-12.629-63.829-30.379   c-0.93-1.553-1.673-3.217-2.219-4.949c0.973-2.577,2.236-5.035,3.755-7.339l2.133-8.107c0.256,0.085,0.597,0.171,0.853,0.256   c36.471,8.849,73.6,14.754,111.019,17.664C188.928,350.805,189.696,350.805,190.464,350.891z"/>
	<path style="fill:#F44335;" d="M441.515,348.245c-0.546,1.732-1.289,3.396-2.219,4.949c-0.077,0.247-0.196,0.469-0.341,0.683   c-9.984,17.408-34.645,29.696-63.488,29.696c-15.812,0.23-31.386-3.84-45.056-11.776c-2.15-1.271-4.233-2.671-6.229-4.181   c-0.017-1.69-0.154-3.371-0.427-5.035l-0.768-8.448l-0.341-3.328c0.341,0,0.768-0.085,1.109-0.085   c37.487-2.842,74.675-8.781,111.189-17.749c0.247-0.094,0.503-0.154,0.768-0.171l2.304,8.533   C439.45,343.492,440.627,345.813,441.515,348.245z"/>
	<path style="fill:#F44335;" d="M324.181,367.616c-1.801-1.399-3.507-2.91-5.12-4.523c-2.27,3.831-5.12,7.279-8.448,10.24   c-15.3,12.715-34.731,19.396-54.613,18.773c-19.968,0.623-39.467-6.118-54.784-18.944h-0.085c-3.2-2.944-5.965-6.332-8.192-10.069   c-1.63,1.596-3.337,3.106-5.12,4.523c0.077-3.678,0.794-7.322,2.133-10.752v-0.171l0.512-5.803   c21.163,1.707,43.093,2.56,65.536,2.56s44.373-0.853,65.621-2.56c0.23,0.017,0.461-0.017,0.683-0.085h0.341l0.341,3.243v0.085   l0.768,8.448C324.028,364.245,324.164,365.926,324.181,367.616z"/>
</g>
<path d="M136.533,392.107c-31.829,0-59.827-13.679-71.33-34.842c-3.567-6.289-5.444-13.389-5.47-20.625  c0.034-8.013,2.321-15.863,6.588-22.647l1.792-6.835c1.203-4.557,5.862-7.279,10.428-6.084c0.162,0.043,0.324,0.094,0.486,0.145  c36.813,8.986,74.3,14.899,112.085,17.69c4.702,0.367,8.218,4.471,7.851,9.173c0,0.026-0.009,0.06-0.009,0.085l-0.512,5.803  c-0.068,0.777-0.239,1.536-0.521,2.261c-1.092,2.85-1.655,5.879-1.664,8.934c0.06,4.77,1.425,9.429,3.951,13.474  c2.048,3.362,1.536,7.689-1.246,10.47c-3.806,3.806-8.073,7.108-12.698,9.847C171.187,387.772,154.001,392.311,136.533,392.107z   M82.492,319.642c-0.23,0.879-0.606,1.707-1.101,2.466c-2.953,4.275-4.548,9.335-4.591,14.532c0.009,4.335,1.161,8.593,3.328,12.348  c8.499,15.633,31.13,26.052,56.405,26.052c14.362,0.213,28.51-3.482,40.934-10.692c1.698-0.998,3.337-2.108,4.898-3.311  c-3.405-8.201-4.087-17.28-1.937-25.89C147.456,332.288,114.731,327.1,82.492,319.642z"/>
<path d="M74.231,325.973c-4.71-0.009-8.533-3.831-8.525-8.542c0-1.536,0.418-3.038,1.203-4.352c0.7-1.161,1.468-2.278,2.304-3.354  c2.893-3.721,8.252-4.395,11.972-1.502c3.721,2.893,4.395,8.252,1.502,11.972c-0.401,0.512-0.777,1.041-1.109,1.604  C80.034,324.395,77.244,325.982,74.231,325.973z"/>
<path d="M438.025,326.4c-3.004,0.009-5.786-1.57-7.322-4.139c-0.341-0.555-0.708-1.092-1.109-1.604  c-2.901-3.712-2.253-9.071,1.459-11.981c3.712-2.91,9.071-2.253,11.981,1.459c0.836,1.067,1.604,2.185,2.304,3.345  c2.423,4.045,1.118,9.284-2.927,11.708C441.088,325.982,439.569,326.4,438.025,326.4z"/>
<path d="M375.467,392.107c-17.374,0.213-34.483-4.292-49.502-13.03c-4.727-2.748-9.079-6.093-12.937-9.958  c-2.79-2.79-3.302-7.134-1.229-10.496c2.543-4.028,3.908-8.687,3.934-13.449c0-1.562-0.137-3.115-0.393-4.651l-1.186-12.382  c-0.444-4.693,3.004-8.858,7.697-9.293c0.043,0,0.094-0.009,0.137-0.009c37.385-2.782,74.479-8.67,110.891-17.604  c0.93-0.222,1.886-0.367,2.842-0.427c3.857,0,7.228,2.586,8.235,6.306l1.98,7.322c8.115,13.022,8.457,29.449,0.887,42.795  c-0.23,0.486-0.495,0.956-0.785,1.408C434.517,378.769,406.69,392.107,375.467,392.107z M329.66,361.054  c1.604,1.229,3.285,2.355,5.035,3.362c12.382,7.168,26.47,10.837,40.772,10.633c24.832,0,47.369-10.214,56.081-25.412  c5.111-8.405,4.838-19.029-0.717-27.153c-0.469-0.734-0.828-1.536-1.058-2.381l-0.154-0.546  c-32.145,7.518-64.794,12.723-97.681,15.573l0.299,3.2c0.375,2.27,0.563,4.557,0.546,6.861  C332.809,350.618,331.742,356.019,329.66,361.054z"/>
<path d="M256,400.64c-21.786,0.614-43.051-6.69-59.861-20.557c-0.282-0.196-0.546-0.418-0.802-0.649  c-3.797-3.507-7.083-7.535-9.737-11.972c-4.139-6.699-6.349-14.413-6.4-22.281c0.009-4.702,0.802-9.37,2.347-13.807l0.418-4.693  c0.384-4.668,4.489-8.141,9.156-7.757c0.009,0,0.017,0,0.026,0c43.179,3.354,86.554,3.354,129.741,0  c4.898-0.759,9.481,2.594,10.24,7.492c0.009,0.043,0.009,0.085,0.017,0.128l1.109,11.776c0.375,2.27,0.563,4.557,0.546,6.861  c-0.009,7.919-2.253,15.684-6.468,22.391c-2.697,4.523-6.076,8.61-10.01,12.109C299.469,393.83,277.999,401.289,256,400.64z   M206.31,366.319c0.239,0.179,0.478,0.367,0.7,0.572c13.773,11.315,31.181,17.237,48.99,16.683  c17.741,0.555,35.081-5.316,48.845-16.529c2.688-2.381,5.001-5.163,6.844-8.243c2.611-4.07,4.011-8.798,4.053-13.628  c0-1.562-0.137-3.115-0.393-4.651l-0.384-4.053c-38.997,2.679-78.131,2.705-117.129,0.06c-1.024,2.765-1.545,5.692-1.562,8.644  c0.06,4.77,1.425,9.429,3.951,13.474C201.899,361.464,203.947,364.049,206.31,366.319L206.31,366.319z"/>
<path d="M323.746,347.648c-3.985-0.009-7.433-2.765-8.32-6.647c-0.341-1.587-0.777-3.157-1.314-4.685  c-1.596-4.437,0.7-9.327,5.137-10.923c4.412-1.587,9.284,0.683,10.906,5.086c0.777,2.21,1.425,4.463,1.929,6.758  c1.041,4.599-1.843,9.165-6.443,10.206C325.018,347.58,324.386,347.648,323.746,347.648z"/>
<path d="M196.267,119.467c-2.261,0-4.437-0.896-6.033-2.5l-8.533-8.533c-3.302-3.362-3.251-8.764,0.111-12.066  c3.319-3.26,8.636-3.26,11.955,0l8.533,8.533c3.328,3.337,3.328,8.738,0,12.066C200.695,118.571,198.528,119.467,196.267,119.467z"/>
<path d="M238.933,110.933c-2.261,0-4.437-0.896-6.033-2.5l-8.533-8.533c-3.302-3.362-3.251-8.764,0.111-12.066  c3.319-3.26,8.636-3.26,11.955,0l8.533,8.533c3.328,3.337,3.328,8.738,0,12.066C243.362,110.037,241.195,110.933,238.933,110.933z"/>
<path d="M281.6,110.933c-4.71,0-8.533-3.823-8.533-8.533c0-2.261,0.896-4.429,2.5-6.033l8.533-8.533  c3.362-3.302,8.764-3.251,12.066,0.111c3.26,3.319,3.26,8.636,0,11.955l-8.533,8.533C286.037,110.037,283.861,110.933,281.6,110.933  z"/>
<path d="M324.267,128c-4.71,0-8.533-3.823-8.533-8.533c0-2.261,0.896-4.429,2.5-6.033l8.533-8.533  c3.362-3.302,8.764-3.251,12.066,0.111c3.26,3.319,3.26,8.636,0,11.955L330.3,125.5C328.704,127.104,326.528,128,324.267,128z"/>
<path d="M375.467,128c-4.71,0-8.533-3.823-8.533-8.533c0-2.261,0.896-4.429,2.5-6.033l8.533-8.533  c3.362-3.302,8.764-3.251,12.066,0.111c3.26,3.319,3.26,8.636,0,11.955L381.5,125.5C379.904,127.104,377.728,128,375.467,128z"/>
<path d="M153.6,128c-2.261,0-4.437-0.896-6.033-2.5l-8.533-8.533c-3.302-3.362-3.251-8.764,0.111-12.066  c3.319-3.26,8.636-3.26,11.955,0l8.533,8.533c3.328,3.337,3.328,8.738,0,12.066C158.029,127.104,155.861,128,153.6,128z"/>
<path d="M136.533,179.2c-4.71,0-8.533-3.823-8.533-8.533c0-2.261,0.896-4.429,2.5-6.033l8.533-8.533  c3.362-3.302,8.764-3.251,12.066,0.111c3.26,3.319,3.26,8.636,0,11.955l-8.533,8.533C140.971,178.304,138.795,179.2,136.533,179.2z"/>
<path d="M196.267,162.133c-4.71,0-8.533-3.823-8.533-8.533c0-2.261,0.896-4.429,2.5-6.033l8.533-8.533  c3.362-3.302,8.764-3.251,12.066,0.111c3.26,3.319,3.26,8.636,0,11.955l-8.533,8.533  C200.704,161.237,198.528,162.133,196.267,162.133z"/>
<path d="M247.467,162.133c-4.71,0-8.533-3.823-8.533-8.533c0-2.261,0.896-4.429,2.5-6.033l8.533-8.533  c3.362-3.302,8.764-3.251,12.066,0.111c3.26,3.319,3.26,8.636,0,11.955l-8.533,8.533  C251.904,161.237,249.728,162.133,247.467,162.133z"/>
<path d="M358.4,179.2c-2.261,0-4.437-0.896-6.033-2.5l-8.533-8.533c-3.302-3.362-3.251-8.764,0.111-12.066  c3.319-3.26,8.636-3.26,11.955,0l8.533,8.533c3.328,3.337,3.328,8.738,0,12.066C362.829,178.304,360.661,179.2,358.4,179.2z"/>
<path d="M409.6,162.133c-2.261,0-4.437-0.896-6.033-2.5l-8.533-8.533c-3.302-3.362-3.251-8.764,0.111-12.066  c3.319-3.26,8.636-3.26,11.955,0l8.533,8.533c3.328,3.337,3.328,8.738,0,12.066C414.029,161.237,411.861,162.133,409.6,162.133z"/>
<path d="M307.2,162.133c-2.261,0-4.437-0.896-6.033-2.5l-8.533-8.533c-3.302-3.362-3.251-8.764,0.111-12.066  c3.319-3.26,8.636-3.26,11.955,0l8.533,8.533c3.328,3.337,3.328,8.738,0,12.066C311.629,161.237,309.461,162.133,307.2,162.133z"/>
<path d="M93.867,162.133c-4.71,0-8.533-3.823-8.533-8.533c0-2.261,0.896-4.429,2.5-6.033l8.533-8.533  c3.362-3.302,8.764-3.251,12.066,0.111c3.26,3.319,3.26,8.636,0,11.955l-8.533,8.533C98.304,161.237,96.128,162.133,93.867,162.133z  "/>
<g>
</g>
<g>
</g>
<g>
</g>
<g>
</g>
<g>
</g>
<g>
</g>
<g>
</g>
<g>
</g>
<g>
</g>
<g>
</g>
<g>
</g>
<g>
</g>
<g>
</g>
<g>
</g>
<g>
</g>
</svg>
