<?xml version="1.0" encoding="iso-8859-1"?>
<!-- Generator: Adobe Illustrator 19.0.0, SVG Export Plug-In . SVG Version: 6.00 Build 0)  -->
<svg xmlns="http://www.w3.org/2000/svg" xmlns:xlink="http://www.w3.org/1999/xlink" version="1.1" id="Capa_1" x="0px" y="0px" viewBox="0 0 511.997 511.997" style="enable-background:new 0 0 511.997 511.997;" xml:space="preserve">
<path style="fill:#424242;" d="M204.8,8.533h102.397c4.71,0,8.533,3.823,8.533,8.533v26.367c0,4.71-3.823,8.533-8.533,8.533H204.8  c-4.71,0-8.533-3.823-8.533-8.533V17.066C196.267,12.356,200.09,8.533,204.8,8.533z"/>
<path style="fill:#9E9E9E;" d="M281.598,17.066v26.367c0,4.693-2.739,8.533-6.093,8.533h-73.137c-3.353,0-6.093-3.84-6.093-8.533  V17.066c0-4.693,2.739-8.533,6.093-8.533h73.137C278.85,8.533,281.598,12.373,281.598,17.066z"/>
<path d="M307.197,60.499H204.8c-9.42-0.009-17.058-7.646-17.066-17.066V17.066C187.743,7.646,195.38,0.009,204.8,0h102.397  c9.42,0.009,17.058,7.646,17.066,17.066v26.367C324.254,52.854,316.617,60.491,307.197,60.499z M204.8,17.066v26.367h102.397V17.092  L204.8,17.066z"/>
<path style="fill:#37474F;" d="M340.476,122.279c-7.287-7.424-15.522-13.849-24.49-19.114  c-10.692-6.314-17.279-17.791-17.322-30.207V51.966h-85.33v21.077c0.051,12.219-6.332,23.568-16.81,29.866  c-17.22,10.12-31.666,24.336-42.068,41.385c-1.963,3.157-3.755,6.4-5.461,9.813l4.608,2.048l27.306-9.301l4.352-1.451  c12.33-4.156,25.898-2.33,36.692,4.949l8.448,5.802c1.869,1.271,3.831,2.389,5.888,3.328c14.412,6.741,31.419,4.582,43.689-5.546  c2.765-2.278,5.837-4.147,9.13-5.546c5.384-2.543,11.281-3.857,17.237-3.84c5.017,0.017,9.992,0.947,14.677,2.731l4.608,1.792  l41.3,15.786l0.597-0.256C361.535,148.774,352.319,134.361,340.476,122.279z"/>
<path style="fill:#607D8B;" d="M325.628,149.072l-4.608-1.792c-4.685-1.783-9.659-2.714-14.677-2.731  c-5.956-0.017-11.852,1.297-17.237,3.84c-3.294,1.399-6.366,3.268-9.13,5.546c-12.271,10.129-29.277,12.288-43.689,5.546  c-2.056-0.939-4.019-2.056-5.888-3.328l-8.448-5.802c-10.794-7.279-24.362-9.105-36.692-4.949l-4.352,1.451l-27.306,9.301  l-4.608-2.048c1.707-3.413,3.499-6.656,5.461-9.813c10.402-17.049,24.848-31.265,42.068-41.385  c10.479-6.297,16.861-17.646,16.81-29.866V51.966h50.601v20.991c0.043,12.416,6.63,23.893,17.322,30.207  c8.968,5.265,17.203,11.69,24.49,19.114C313.562,130.266,320.252,139.276,325.628,149.072z"/>
<path d="M366.928,173.392c-1.041,0-2.074-0.188-3.046-0.563l-45.908-17.578c-11.05-4.139-23.466-2.116-32.63,5.325  c-17.092,14.105-41.454,15.18-59.723,2.654l-8.499-5.837c-8.567-5.785-19.344-7.227-29.132-3.908l-31.649,10.743  c-2.031,0.691-4.249,0.597-6.204-0.282l-4.608-2.048c-4.309-1.911-6.246-6.954-4.335-11.255c0.051-0.111,0.102-0.213,0.154-0.324  c11.221-22.851,28.91-41.897,50.866-54.782c7.859-4.761,12.637-13.312,12.586-22.502V51.966c0-4.71,3.823-8.533,8.533-8.533h85.33  c4.71,0,8.533,3.823,8.533,8.533v20.991c0.077,9.403,5.069,18.082,13.158,22.877c9.6,5.649,18.414,12.535,26.222,20.479  c12.689,12.911,22.544,28.33,28.927,45.268c1.613,4.275-0.427,9.071-4.633,10.863l-0.597,0.256  C369.215,173.161,368.08,173.392,366.928,173.392z M198.648,134.652c10.001,0.017,19.763,3.012,28.048,8.61l8.533,5.854  c12.04,8.243,28.082,7.518,39.337-1.775c13.892-11.264,32.707-14.327,49.449-8.055l26.811,10.265  c-4.625-7.722-10.146-14.873-16.452-21.307c-6.758-6.886-14.404-12.851-22.732-17.74c-13.26-7.885-21.418-22.126-21.512-37.554  v-12.45h-68.264v12.544c0.043,15.24-7.936,29.371-21,37.213c-14.097,8.26-26.214,19.481-35.532,32.895l17.186-5.837  C187.708,135.565,193.161,134.66,198.648,134.652z"/>
<path style="fill:#4E342E;" d="M367.525,164.603l-0.597,0.256L321.02,147.28c-4.685-1.783-9.659-2.714-14.677-2.731  c-5.854,0.009-11.648,1.254-16.981,3.669c-3.362,1.493-6.519,3.413-9.386,5.717c-14.199,11.665-34.388,12.569-49.577,2.219  l-8.448-5.802c-10.794-7.279-24.362-9.105-36.692-4.949l-4.011,1.365l-27.647,9.386l-4.608-2.048  c-8.217,16.853-12.475,35.352-12.458,54.1v8.704h238.925v-8.704C375.47,193.308,372.782,178.537,367.525,164.603z"/>
<path style="fill:#795548;" d="M341.329,208.206v8.704H136.536v-8.704c-0.017-18.747,4.241-37.247,12.458-54.1l4.608,2.048  l27.647-9.386l4.011-1.365c12.33-4.156,25.898-2.33,36.692,4.949l8.448,5.802c15.189,10.351,35.378,9.446,49.577-2.219  c2.867-2.304,6.024-4.224,9.386-5.717l43.433,16.639l0.597-0.256C338.65,178.537,341.337,193.308,341.329,208.206z"/>
<path style="fill:#4E342E;" d="M341.329,373.236H136.536v93.864c-0.102,12.774,6.383,24.703,17.151,31.572  c4.121,2.543,8.755,4.113,13.568,4.608c11.008,1.143,21.87-3.234,29.012-11.69c5.521-6.34,8.55-14.464,8.533-22.869  c-0.094-4.71,3.652-8.61,8.362-8.704c4.71-0.094,8.61,3.652,8.704,8.362c0,0.111,0,0.23,0,0.341  c-0.188,19.003,15.069,34.567,34.081,34.747c5.495,0.051,10.931-1.212,15.837-3.686c3.942-1.809,7.39-4.531,10.069-7.936  c5.086-6.895,7.97-15.163,8.277-23.722c0.239-4.71,4.249-8.337,8.96-8.089c4.608,0.239,8.192,4.079,8.106,8.687  c-0.051,12.288,6.408,23.679,16.981,29.951c6.169,3.737,13.388,5.359,20.565,4.608c17.954-2.492,31.171-18.064,30.719-36.18v-93.864  L341.329,373.236L341.329,373.236z"/>
<path style="fill:#795548;" d="M341.329,373.236v93.864c0.102,12.774-6.383,24.703-17.151,31.572  c-10.572-6.272-17.032-17.663-16.981-29.951c0.094-4.719-3.661-8.61-8.379-8.704c-4.608-0.085-8.456,3.499-8.687,8.106  c-0.307,8.559-3.191,16.827-8.277,23.722c-2.679,3.405-6.127,6.127-10.069,7.936c-16.972,8.559-37.665,1.749-46.232-15.223  c-2.475-4.907-3.746-10.342-3.686-15.837c0.094-4.71-3.652-8.61-8.362-8.704c-4.71-0.094-8.61,3.652-8.704,8.362  c0,0.111,0,0.23,0,0.341c0.017,8.405-3.012,16.529-8.533,22.869c-7.142,8.456-18.005,12.834-29.012,11.69  c-4.813-0.495-9.446-2.065-13.568-4.608c-10.769-6.869-17.254-18.798-17.151-31.572v-93.864H341.329z"/>
<path d="M375.461,225.443H136.536c-4.71,0-8.533-3.823-8.533-8.533v-8.704c-0.043-20.044,4.514-39.824,13.32-57.828  c2.014-4.13,6.929-5.93,11.136-4.07l1.562,0.691l28.5-9.676c14.839-5.052,31.197-2.859,44.176,5.939l8.533,5.854  c12.04,8.243,28.082,7.518,39.337-1.775c13.892-11.264,32.707-14.327,49.449-8.055l44.517,17.049c0.7,0.085,1.391,0.273,2.039,0.546  c2.21,0.845,3.985,2.543,4.932,4.71c5.632,14.899,8.507,30.693,8.49,46.616v8.704C383.994,221.62,380.171,225.443,375.461,225.443  L375.461,225.443z M145.069,208.377l221.859-0.171c0.009-12.399-1.988-24.72-5.922-36.479l-43.032-16.477  c-11.05-4.139-23.466-2.116-32.63,5.325c-17.092,14.105-41.454,15.18-59.723,2.654l-8.499-5.837  c-8.567-5.785-19.344-7.227-29.132-3.908l-31.649,10.743c-0.879,0.299-1.809,0.452-2.739,0.452l0,0  c-5.666,13.806-8.567,28.594-8.533,43.519V208.377z"/>
<path d="M170.762,511.991c-1.442,0-2.901-0.077-4.36-0.222c-22.263-3.021-38.757-22.203-38.399-44.671v-93.864  c0-4.71,3.823-8.533,8.533-8.533h238.925c4.71,0,8.533,3.823,8.533,8.533v93.864c0.358,22.468-16.127,41.65-38.399,44.671  c-11.912,1.246-23.799-2.671-32.639-10.752c-9.113-8.269-14.301-19.993-14.301-32.298c0.273,23.56-18.602,42.887-42.17,43.16  c-23.568,0.273-42.887-18.602-43.16-42.17c0-0.333,0-0.666,0-0.998c0,12.296-5.188,24.029-14.301,32.298  C191.318,508.083,181.223,512,170.762,511.991z M145.069,381.769v85.33c-0.427,13.73,9.472,25.608,23.048,27.69  c7.108,0.725,14.199-1.613,19.472-6.425c5.538-5.026,8.687-12.16,8.678-19.635c-0.094-9.429,7.466-17.143,16.895-17.237  c9.429-0.094,17.143,7.466,17.237,16.895c0,0.111,0,0.23,0,0.341c-0.188,14.293,11.238,26.034,25.531,26.222  c4.267,0.06,8.473-0.939,12.253-2.901c8.456-5.231,13.559-14.515,13.422-24.464c0.538-9.412,8.61-16.605,18.022-16.068  c9.096,0.521,16.179,8.098,16.093,17.211c-0.009,7.475,3.149,14.609,8.678,19.635c5.273,4.83,12.364,7.176,19.481,6.425  c13.576-2.074,23.466-13.96,23.039-27.69v-85.33H145.069z"/>
<rect id="SVGCleanerId_0" x="136.527" y="216.91" style="fill:#C52828;" width="238.925" height="156.325"/>
<g>
	<rect id="SVGCleanerId_0_1_" x="136.527" y="216.91" style="fill:#C52828;" width="238.925" height="156.325"/>
</g>
<rect id="SVGCleanerId_1" x="136.527" y="216.91" style="fill:#F44335;" width="204.793" height="156.325"/>
<g>
	<rect id="SVGCleanerId_1_1_" x="136.527" y="216.91" style="fill:#F44335;" width="204.793" height="156.325"/>
</g>
<path id="SVGCleanerId_2" d="M375.461,381.769H136.536c-4.71,0-8.533-3.823-8.533-8.533V216.91c0-4.71,3.823-8.533,8.533-8.533  h238.925c4.71,0,8.533,3.823,8.533,8.533v156.325C383.994,377.954,380.171,381.769,375.461,381.769z M145.069,364.703h221.859  V225.443H145.069V364.703z"/>
<g>
	<path id="SVGCleanerId_2_1_" d="M375.461,381.769H136.536c-4.71,0-8.533-3.823-8.533-8.533V216.91c0-4.71,3.823-8.533,8.533-8.533   h238.925c4.71,0,8.533,3.823,8.533,8.533v156.325C383.994,377.954,380.171,381.769,375.461,381.769z M145.069,364.703h221.859   V225.443H145.069V364.703z"/>
</g>
<path d="M238.932,34.431c-4.71,0-8.533-3.823-8.533-8.533V8.533c0-4.71,3.823-8.533,8.533-8.533c4.71,0,8.533,3.823,8.533,8.533  v17.365C247.465,30.608,243.643,34.431,238.932,34.431z"/>
<path d="M273.065,34.431c-4.71,0-8.533-3.823-8.533-8.533V8.533c0-4.71,3.823-8.533,8.533-8.533c4.71,0,8.533,3.823,8.533,8.533  v17.365C281.598,30.608,277.775,34.431,273.065,34.431z"/>
<path style="fill:#9E9E9E;" d="M298.664,295.073c0.085,17.527-10.385,33.381-26.538,40.191c-5.103,2.159-10.59,3.268-16.127,3.243  c-23.773-0.222-42.87-19.66-42.665-43.433c0-9.907,3.336-19.524,9.472-27.306c8.03-10.154,20.249-16.093,33.194-16.127  C279.771,251.861,298.868,271.3,298.664,295.073z"/>
<path style="fill:#F5F5F5;" d="M281.598,307.958c0,9.907-3.336,19.524-9.472,27.306c-5.103,2.159-10.59,3.268-16.127,3.243  c-23.773-0.222-42.87-19.66-42.665-43.433c0-9.907,3.336-19.524,9.472-27.306c5.103-2.159,10.59-3.268,16.127-3.243  C262.705,264.746,281.802,284.185,281.598,307.958z"/>
<path d="M255.998,347.013c-28.688,0.418-52.282-22.502-52.7-51.19c-0.418-28.688,22.502-52.282,51.19-52.7  c28.688-0.418,52.282,22.502,52.7,51.19c0,0.256,0.009,0.503,0.009,0.759C307.367,323.539,284.465,346.775,255.998,347.013z   M255.998,260.19c-19.268-0.418-35.216,14.856-35.634,34.124c-0.418,19.268,14.856,35.216,34.124,35.634  s35.216-14.856,35.634-34.124c0.009-0.247,0.009-0.503,0.009-0.751C290.31,276.019,275.044,260.42,255.998,260.19z"/>
<path d="M213.333,303.606h-76.797c-4.71,0-8.533-3.823-8.533-8.533c0-4.71,3.823-8.533,8.533-8.533h76.797  c4.71,0,8.533,3.823,8.533,8.533C221.866,299.783,218.043,303.606,213.333,303.606z"/>
<path d="M375.461,303.606h-76.797c-4.71,0-8.533-3.823-8.533-8.533c0-4.71,3.823-8.533,8.533-8.533h76.797  c4.71,0,8.533,3.823,8.533,8.533C383.994,299.783,380.171,303.606,375.461,303.606z"/>
<path d="M179.201,425.202c-1.118-0.009-2.219-0.239-3.243-0.683c-1.067-0.41-2.022-1.05-2.816-1.877  c-0.768-0.785-1.382-1.715-1.792-2.731c-0.427-1.032-0.657-2.133-0.683-3.243c0-1.143,0.23-2.27,0.683-3.328  c0.418-1.015,1.024-1.946,1.792-2.731c0.785-0.828,1.749-1.468,2.816-1.877c3.2-1.263,6.844-0.529,9.301,1.877  c3.302,3.336,3.302,8.704,0,12.032C183.655,424.255,181.479,425.176,179.201,425.202z"/>
<path d="M179.201,190.714c-4.668-0.051-8.405-3.874-8.354-8.533c0.051-4.668,3.874-8.405,8.533-8.354s8.405,3.874,8.354,8.533  c-0.026,2.21-0.913,4.318-2.475,5.888C183.621,189.792,181.462,190.68,179.201,190.714z"/>
<path d="M315.73,190.714c-1.118-0.009-2.219-0.239-3.243-0.683c-1.032-0.435-1.98-1.041-2.816-1.792  c-3.302-3.371-3.302-8.755,0-12.117c0.828-0.751,1.783-1.357,2.816-1.792c2.082-0.853,4.412-0.853,6.485,0  c1.033,0.435,1.988,1.041,2.816,1.792c1.553,1.638,2.44,3.797,2.475,6.058c-0.017,0.572-0.068,1.143-0.171,1.707  c-0.094,0.538-0.264,1.05-0.512,1.536c-0.188,0.546-0.444,1.058-0.768,1.536c-0.341,0.427-0.683,0.853-1.024,1.28  c-0.828,0.751-1.783,1.357-2.816,1.792C317.948,190.466,316.839,190.697,315.73,190.714z"/>
<path d="M213.333,407.794c-1.118,0.026-2.236-0.205-3.243-0.683c-1.041-0.41-1.997-1.024-2.816-1.792  c-1.562-1.638-2.44-3.797-2.475-6.058c0.009-1.118,0.239-2.219,0.683-3.243c0.777-2.142,2.466-3.831,4.608-4.608  c2.082-0.853,4.412-0.853,6.485,0c1.033,0.435,1.988,1.041,2.816,1.792c0.768,0.819,1.374,1.775,1.792,2.816  c0.478,1.015,0.717,2.125,0.683,3.243c-0.034,2.261-0.922,4.42-2.475,6.058c-0.828,0.751-1.783,1.357-2.816,1.792  C215.56,407.59,214.451,407.82,213.333,407.794z"/>
<path d="M247.465,442.524c-4.668-0.043-8.414-3.865-8.371-8.533c0.043-4.668,3.865-8.414,8.533-8.371  c4.668,0.043,8.414,3.865,8.371,8.533c-0.026,2.21-0.913,4.326-2.475,5.896C251.885,441.611,249.727,442.49,247.465,442.524z"/>
<path d="M298.664,407.794c-0.572-0.017-1.143-0.077-1.707-0.171c-0.538-0.094-1.05-0.265-1.536-0.512  c-0.521-0.171-1.015-0.435-1.451-0.768c-0.486-0.29-0.947-0.631-1.365-1.024c-1.562-1.638-2.44-3.797-2.475-6.058  c0.009-1.118,0.239-2.219,0.683-3.243c0.418-1.041,1.024-1.997,1.792-2.816c0.418-0.384,0.87-0.725,1.365-1.024  c0.435-0.341,0.93-0.597,1.451-0.768c0.486-0.247,0.998-0.418,1.536-0.512c1.126-0.256,2.287-0.256,3.413,0  c0.538,0.094,1.05,0.265,1.536,0.512c0.546,0.188,1.058,0.444,1.536,0.768c0.444,0.316,0.87,0.657,1.28,1.024  c0.768,0.819,1.374,1.775,1.792,2.816c0.435,1.024,0.666,2.133,0.683,3.243c0.043,4.668-3.703,8.49-8.371,8.533  C298.775,407.794,298.715,407.794,298.664,407.794z"/>
<path d="M332.796,442.524c-1.118-0.017-2.219-0.247-3.243-0.683c-1.032-0.435-1.98-1.041-2.816-1.792  c-3.302-3.362-3.302-8.755,0-12.117c0.811-0.768,1.766-1.382,2.816-1.792c2.056-0.939,4.429-0.939,6.485,0  c1.041,0.41,1.997,1.024,2.816,1.792c3.302,3.362,3.302,8.755,0,12.117c-0.819,0.768-1.775,1.382-2.816,1.792  C335.014,442.276,333.914,442.507,332.796,442.524z"/>
<g>
</g>
<g>
</g>
<g>
</g>
<g>
</g>
<g>
</g>
<g>
</g>
<g>
</g>
<g>
</g>
<g>
</g>
<g>
</g>
<g>
</g>
<g>
</g>
<g>
</g>
<g>
</g>
<g>
</g>
</svg>
