<?xml version="1.0" encoding="iso-8859-1"?>
<!-- Generator: Adobe Illustrator 19.0.0, SVG Export Plug-In . SVG Version: 6.00 Build 0)  -->
<svg xmlns="http://www.w3.org/2000/svg" xmlns:xlink="http://www.w3.org/1999/xlink" version="1.1" id="Capa_1" x="0px" y="0px" viewBox="0 0 512 512" style="enable-background:new 0 0 512 512;" xml:space="preserve">
<path style="fill:#AD1457;" d="M375.467,68.267H136.533c-28.211-0.068-51.132,22.758-51.2,50.97c0,0.077,0,0.154,0,0.23v57.6  c1.809,0.777,3.695,1.348,5.632,1.707c11.426,2.091,22.886-3.516,28.245-13.824c0.085-0.085,0.085-0.256,0.171-0.341l5.547-11.179  c6.545-13.056,22.434-18.33,35.49-11.785c5.094,2.551,9.233,6.69,11.785,11.785l5.547,11.179c3.618,7.484,10.65,12.74,18.859,14.08  c11.426,2.261,22.972-3.345,28.245-13.739c0.085-0.085,0.085-0.256,0.171-0.341l5.547-11.179  c6.545-13.056,22.434-18.33,35.49-11.785c5.094,2.551,9.233,6.69,11.785,11.785l5.547,11.179c3.618,7.484,10.65,12.74,18.859,14.08  c11.426,2.261,22.972-3.345,28.245-13.739c0.085-0.085,0.085-0.256,0.171-0.341l5.547-11.179  c6.545-13.056,22.434-18.33,35.49-11.785c5.094,2.551,9.233,6.69,11.785,11.785l5.547,11.179c0.939,1.877,2.108,3.627,3.499,5.205  c8.448,10.044,23.006,12.339,34.133,5.376v-55.723C426.641,91.196,403.738,68.292,375.467,68.267z"/>
<path style="fill:#E91E63;" d="M392.533,145.067v24.747c-1.391-1.579-2.56-3.328-3.499-5.205l-5.547-11.179  c-6.545-13.056-22.434-18.33-35.49-11.785c-5.094,2.551-9.233,6.69-11.785,11.785l-5.547,11.179  c-0.085,0.085-0.085,0.256-0.171,0.341c-5.274,10.394-16.819,16-28.245,13.739c-8.209-1.34-15.241-6.596-18.859-14.08l-5.547-11.179  c-6.545-13.056-22.434-18.33-35.49-11.785c-5.094,2.551-9.233,6.69-11.785,11.785l-5.547,11.179  c-0.085,0.085-0.085,0.256-0.171,0.341c-5.274,10.394-16.819,16-28.245,13.739c-8.209-1.34-15.241-6.596-18.859-14.08l-5.547-11.179  c-6.545-13.056-22.434-18.33-35.49-11.785c-5.094,2.551-9.233,6.69-11.785,11.785l-5.547,11.179  c-0.085,0.085-0.085,0.256-0.171,0.341c-5.359,10.308-16.819,15.915-28.245,13.824c-1.937-0.358-3.823-0.93-5.632-1.707v-57.6  c-0.026-8.525,2.091-16.913,6.144-24.405c3.584-0.794,7.253-1.195,10.923-1.195h238.933  C369.604,93.892,392.508,116.796,392.533,145.067z"/>
<path d="M307.029,187.733c-13.252,0.051-25.378-7.441-31.275-19.311l-5.555-11.204c-4.446-8.832-15.215-12.382-24.047-7.936  c-3.439,1.732-6.221,4.523-7.945,7.962l-5.53,11.153c-5.888,11.878-18.022,19.379-31.283,19.337l0,0  c-13.252,0.051-25.378-7.441-31.266-19.311l-5.555-11.204c-4.446-8.832-15.215-12.382-24.047-7.936  c-3.439,1.732-6.221,4.523-7.945,7.962l-5.53,11.153c-8.329,16.503-28.015,23.723-45.039,16.521  c-3.174-1.34-5.214-4.429-5.214-7.851v-57.6c0.034-32.973,26.761-59.699,59.733-59.733h238.933  c32.973,0.034,59.699,26.761,59.733,59.733v55.723c0,2.935-1.51,5.666-3.994,7.228c-8.38,5.214-18.569,6.665-28.075,3.994  c-9.472-2.62-17.374-9.156-21.717-17.971l-5.564-11.221c-4.446-8.832-15.215-12.382-24.047-7.936  c-3.439,1.732-6.221,4.523-7.945,7.962l-5.53,11.153C332.425,180.284,320.29,187.776,307.029,187.733z M254.208,130.304  c13.252-0.051,25.378,7.441,31.275,19.311l5.555,11.204c4.446,8.832,15.215,12.382,24.047,7.936  c3.439-1.732,6.221-4.523,7.945-7.962l5.53-11.153c8.636-17.28,29.653-24.277,46.925-15.642c6.758,3.379,12.245,8.858,15.625,15.616  l5.555,11.204c2.21,4.489,6.221,7.817,11.034,9.156c3.413,0.964,7.031,0.905,10.419-0.171v-50.338  c-0.026-23.552-19.115-42.641-42.667-42.667H136.533c-23.552,0.026-42.641,19.115-42.667,42.667v51.081  c7.441,0.913,14.643-3.021,17.894-9.779l5.521-11.136c8.636-17.28,29.653-24.277,46.925-15.642  c6.758,3.379,12.245,8.858,15.625,15.616l5.555,11.204c2.987,6.101,9.207,9.941,16,9.856l0,0c6.793,0.085,13.03-3.763,16-9.873  l5.53-11.153C228.813,137.754,240.947,130.261,254.208,130.304z"/>
<rect x="85.333" y="213.333" style="fill:#CFD8DC;" width="341.333" height="34.133"/>
<rect x="85.333" y="247.467" style="fill:#C52828;" width="341.333" height="34.133"/>
<rect x="85.333" y="281.6" style="fill:#CFD8DC;" width="341.333" height="34.133"/>
<g>
	<path style="fill:#FFB301;" d="M426.667,315.733v25.6c-0.017,4.71-3.823,8.516-8.533,8.533H93.867   c-4.71-0.017-8.516-3.823-8.533-8.533v-25.6H426.667z"/>
	<path style="fill:#FFB301;" d="M396.203,173.483c-3.029-2.381-5.478-5.41-7.168-8.875l-5.547-11.179   c-6.545-13.056-22.443-18.338-35.507-11.793c-1.86,0.93-3.61,2.082-5.197,3.43c-2.765,2.278-5.009,5.137-6.571,8.363l-5.547,11.179   c-6.545,13.056-22.443,18.338-35.507,11.793c-1.86-0.93-3.61-2.082-5.197-3.43c-2.765-2.278-5.009-5.137-6.571-8.363l-5.547-11.179   c-6.545-13.056-22.443-18.338-35.507-11.793c-1.86,0.93-3.61,2.082-5.197,3.43c-2.765,2.278-5.009,5.137-6.571,8.363l-5.547,11.179   c-6.545,13.056-22.443,18.338-35.507,11.793c-1.86-0.93-3.61-2.082-5.197-3.43c-2.765-2.278-5.009-5.137-6.571-8.363l-5.547-11.179   c-6.545-13.056-22.443-18.338-35.507-11.793c-1.86,0.93-3.61,2.082-5.197,3.43c-2.765,2.278-5.009,5.137-6.571,8.363l-5.547,11.179   c-6.255,12.518-21.188,17.988-34.048,12.459v36.267h341.333v-38.144C417.169,181.12,404.975,180.437,396.203,173.483z"/>
</g>
<path style="fill:#FEC108;" d="M396.203,173.483l-3.669,1.707v38.144h-307.2v-36.267c12.86,5.53,27.793,0.06,34.048-12.459  l5.547-11.179c1.562-3.226,3.806-6.084,6.571-8.363c11.17-9.421,27.853-8.004,37.274,3.166c1.34,1.596,2.492,3.337,3.43,5.197  l5.547,11.179c1.562,3.226,3.806,6.084,6.571,8.363c11.17,9.421,27.853,8.004,37.274-3.166c1.34-1.596,2.492-3.337,3.43-5.197  l5.547-11.179c1.562-3.226,3.806-6.084,6.571-8.363c11.17-9.421,27.853-8.004,37.274,3.166c1.34,1.596,2.492,3.337,3.43,5.197  l5.547,11.179c1.562,3.226,3.806,6.084,6.571,8.363c11.17,9.421,27.853,8.004,37.274-3.166c1.34-1.596,2.492-3.337,3.43-5.197  l5.547-11.179c1.562-3.226,3.806-6.084,6.571-8.363c11.17-9.421,27.853-8.004,37.274,3.166c1.34,1.596,2.492,3.337,3.43,5.197  l5.547,11.179C390.724,168.073,393.173,171.102,396.203,173.483z"/>
<rect x="85.333" y="213.333" style="fill:#F5F5F5;" width="307.2" height="34.133"/>
<rect x="85.333" y="247.467" style="fill:#F44335;" width="307.2" height="34.133"/>
<rect x="85.333" y="281.6" style="fill:#F5F5F5;" width="307.2" height="34.133"/>
<path style="fill:#FEC108;" d="M392.533,315.733v25.6c-0.017,4.71-3.823,8.516-8.533,8.533H93.867  c-4.71-0.017-8.516-3.823-8.533-8.533v-25.6H392.533z"/>
<path d="M426.667,221.867H85.333c-4.71,0-8.533-3.823-8.533-8.533v-36.267c0-4.71,3.823-8.533,8.533-8.533  c1.152,0,2.287,0.23,3.345,0.683c8.713,3.797,18.876,0.077,23.091-8.448l5.521-11.136c8.636-17.28,29.653-24.277,46.925-15.642  c6.758,3.379,12.245,8.858,15.625,15.616l5.555,11.204c2.978,6.101,9.199,9.941,15.991,9.856l0,0c6.793,0.085,13.03-3.763,16-9.873  l5.53-11.153c8.636-17.28,29.653-24.277,46.925-15.642c6.758,3.379,12.245,8.858,15.625,15.616l5.555,11.204  c4.446,8.832,15.215,12.382,24.047,7.936c3.439-1.732,6.221-4.523,7.945-7.962l5.53-11.153c8.636-17.28,29.653-24.277,46.925-15.642  c6.758,3.379,12.245,8.858,15.625,15.616l5.555,11.204c2.21,4.489,6.221,7.817,11.034,9.156c4.873,1.391,10.112,0.657,14.413-2.014  c3.994-2.5,9.259-1.297,11.767,2.697c0.887,1.357,1.34,2.927,1.34,4.531v38.144C435.2,218.044,431.377,221.867,426.667,221.867z   M93.867,204.8h324.267v-17.51c-5.009,0.777-10.121,0.478-15.002-0.879c-9.472-2.62-17.374-9.156-21.717-17.971l-5.564-11.221  c-4.446-8.832-15.215-12.382-24.047-7.936c-3.439,1.732-6.221,4.523-7.945,7.962l-5.53,11.153  c-8.636,17.28-29.653,24.277-46.925,15.642c-6.758-3.379-12.245-8.858-15.625-15.616l-5.555-11.204  c-4.446-8.832-15.215-12.382-24.047-7.936c-3.439,1.732-6.221,4.523-7.945,7.962l-5.53,11.153  c-5.888,11.878-18.022,19.379-31.283,19.337l0,0c-13.252,0.051-25.378-7.441-31.266-19.311l-5.555-11.204  c-4.446-8.832-15.215-12.382-24.047-7.936c-3.439,1.732-6.221,4.523-7.945,7.962l-5.53,11.153  c-6.263,12.425-19.268,19.985-33.161,19.26V204.8H93.867z"/>
<path d="M426.667,256H85.333c-4.71,0-8.533-3.823-8.533-8.533v-34.133c0-4.71,3.823-8.533,8.533-8.533h341.333  c4.71,0,8.533,3.823,8.533,8.533v34.133C435.2,252.177,431.377,256,426.667,256z M93.867,238.933h324.267v-17.067H93.867V238.933z"/>
<path d="M426.667,290.133H85.333c-4.71,0-8.533-3.823-8.533-8.533v-34.133c0-4.71,3.823-8.533,8.533-8.533h341.333  c4.71,0,8.533,3.823,8.533,8.533V281.6C435.2,286.31,431.377,290.133,426.667,290.133z M93.867,273.067h324.267V256H93.867V273.067z  "/>
<path d="M426.667,324.267H85.333c-4.71,0-8.533-3.823-8.533-8.533V281.6c0-4.71,3.823-8.533,8.533-8.533h341.333  c4.71,0,8.533,3.823,8.533,8.533v34.133C435.2,320.444,431.377,324.267,426.667,324.267z M93.867,307.2h324.267v-17.067H93.867  V307.2z"/>
<path d="M418.133,358.4H93.867c-9.421-0.009-17.058-7.646-17.067-17.067v-25.6c0-4.71,3.823-8.533,8.533-8.533h341.333  c4.71,0,8.533,3.823,8.533,8.533v25.6C435.191,350.754,427.554,358.391,418.133,358.4z M93.867,324.267v17.067h324.267v-17.067  H93.867z"/>
<path style="fill:#607D8B;" d="M460.8,371.2c0.034,11.75-9.455,21.299-21.205,21.333c-0.043,0-0.085,0-0.128,0H72.533  c-11.785,0-21.333-9.549-21.333-21.333s9.549-21.333,21.333-21.333h366.933C451.251,349.875,460.792,359.415,460.8,371.2z"/>
<path style="fill:#CFD8DC;" d="M426.667,371.2c0.043,5.572-1.997,10.957-5.709,15.104c-3.533,3.934-8.559,6.195-13.85,6.229H70.758  C59.477,392.021,50.739,382.481,51.2,371.2c-0.043-5.572,1.997-10.957,5.709-15.104c3.533-3.934,8.559-6.195,13.85-6.229h336.358  C418.389,350.379,427.128,359.919,426.667,371.2z"/>
<path d="M439.467,401.067H72.533c-16.495,0-29.867-13.372-29.867-29.867c0-16.495,13.372-29.867,29.867-29.867h366.933  c16.495,0,29.867,13.372,29.867,29.867C469.333,387.695,455.962,401.067,439.467,401.067z M72.533,358.4  c-3.396-0.017-6.665,1.323-9.071,3.729c-4.992,5.026-4.966,13.15,0.06,18.142c2.389,2.381,5.632,3.721,9.011,3.729h366.933  c7.066,0,12.8-5.734,12.8-12.8c0-7.066-5.734-12.8-12.8-12.8H72.533z"/>
<rect x="221.867" y="392.533" style="fill:#607D8B;" width="68.267" height="76.8"/>
<rect x="221.867" y="392.533" style="fill:#CFD8DC;" width="34.133" height="76.8"/>
<path d="M290.133,477.867h-68.267c-4.71,0-8.533-3.823-8.533-8.533v-76.8c0-4.71,3.823-8.533,8.533-8.533h68.267  c4.71,0,8.533,3.823,8.533,8.533v76.8C298.667,474.044,294.844,477.867,290.133,477.867z M230.4,460.8h51.2v-59.733h-51.2V460.8z"/>
<path style="fill:#607D8B;" d="M366.933,503.467H145.067c-0.026-18.825,15.215-34.108,34.039-34.133c0.034,0,0.06,0,0.094,0h153.6  c18.85-0.009,34.125,15.266,34.133,34.116C366.933,503.45,366.933,503.458,366.933,503.467z"/>
<path style="fill:#CFD8DC;" d="M332.8,503.467H145.067c-0.085-8.789,2.91-17.331,8.448-24.149c5.009-6.17,12.484-9.822,20.437-9.984  h129.971C319.872,469.333,332.8,484.608,332.8,503.467z"/>
<path d="M366.933,512H145.067c-4.71,0-8.533-3.823-8.533-8.533c-0.026-23.535,19.038-42.641,42.573-42.667c0.034,0,0.06,0,0.094,0  h153.6c23.552,0.026,42.641,19.115,42.667,42.667C375.467,508.177,371.644,512,366.933,512z M155.059,494.933h201.882  c-3.627-10.223-13.295-17.058-24.141-17.067H179.2C168.337,477.841,158.652,484.685,155.059,494.933z"/>
<g>
	<circle style="fill:#9D27B0;" cx="202.667" cy="44.8" r="23.467"/>
	<circle style="fill:#9D27B0;" cx="309.333" cy="44.8" r="23.467"/>
	<circle style="fill:#9D27B0;" cx="256" cy="38.4" r="29.867"/>
</g>
<path d="M202.667,76.8c-17.673,0-32-14.327-32-32s14.327-32,32-32s32,14.327,32,32C234.65,62.464,220.331,76.783,202.667,76.8z   M202.667,29.867c-8.243,0-14.933,6.69-14.933,14.933s6.69,14.933,14.933,14.933c8.243,0,14.933-6.69,14.933-14.933  C217.591,36.557,210.91,29.875,202.667,29.867z"/>
<path d="M309.333,76.8c-17.673,0-32-14.327-32-32s14.327-32,32-32c17.673,0,32,14.327,32,32  C341.316,62.464,326.997,76.783,309.333,76.8z M309.333,29.867c-8.243,0-14.933,6.69-14.933,14.933s6.69,14.933,14.933,14.933  s14.933-6.69,14.933-14.933C324.258,36.557,317.577,29.875,309.333,29.867z"/>
<path d="M256,76.8c-21.205,0-38.4-17.195-38.4-38.4S234.795,0,256,0c21.205,0,38.4,17.195,38.4,38.4  C294.374,59.597,277.197,76.774,256,76.8z M256,17.067c-11.785,0-21.333,9.549-21.333,21.333S244.215,59.733,256,59.733  c11.785,0,21.333-9.549,21.333-21.333C277.316,26.624,267.776,17.084,256,17.067z"/>
<g>
</g>
<g>
</g>
<g>
</g>
<g>
</g>
<g>
</g>
<g>
</g>
<g>
</g>
<g>
</g>
<g>
</g>
<g>
</g>
<g>
</g>
<g>
</g>
<g>
</g>
<g>
</g>
<g>
</g>
</svg>
