<?xml version="1.0" encoding="iso-8859-1"?>
<!-- Generator: Adobe Illustrator 19.0.0, SVG Export Plug-In . SVG Version: 6.00 Build 0)  -->
<svg xmlns="http://www.w3.org/2000/svg" xmlns:xlink="http://www.w3.org/1999/xlink" version="1.1" id="Capa_1" x="0px" y="0px" viewBox="0 0 512.011 512.011" style="enable-background:new 0 0 512.011 512.011;" xml:space="preserve">
<g>
	<path style="fill:#2E7D32;" d="M69.723,285.995c-18.041,34.255-29.066,71.77-32.429,110.343l-0.683-0.085l-25.26-44.803   c-1.835-3.379-2.808-7.16-2.816-11.009c-0.094-8.312,4.532-15.958,11.947-19.713c9.387-4.873,14.064-15.677,11.179-25.858   l-6.827-24.578c-3.388-11.666,3.32-23.869,14.986-27.257c0.521-0.154,1.041-0.282,1.57-0.393l13.569-2.731   C55.233,256.399,60.37,272.426,69.723,285.995z"/>
	<path style="fill:#2E7D32;" d="M500.685,351.449l-25.26,44.803l-0.768,0.085c-3.294-38.573-14.294-76.097-32.344-110.343   c9.345-13.577,14.482-29.604,14.764-46.083l13.569,2.731c11.879,2.518,19.474,14.2,16.948,26.08   c-0.111,0.529-0.247,1.05-0.393,1.57l-6.827,24.578c-0.572,1.971-0.862,4.011-0.853,6.059c-0.017,8.329,4.634,15.975,12.033,19.799   c10.949,5.76,15.148,19.304,9.387,30.253C500.856,351.142,500.771,351.296,500.685,351.449z"/>
	<path style="fill:#2E7D32;" d="M384.027,154.231l-0.085,0.597c-2.995-0.41-6.016-0.606-9.046-0.597   c-8.858,0-17.657,1.468-26.028,4.352c-1.109,0.341-2.133,0.768-3.243,1.195c-9.165,3.55-17.631,8.688-25.004,15.19   c-41.722-15.25-87.481-15.25-129.203,0c-14.951-13.304-34.255-20.686-54.276-20.737c-3.021,0-6.042,0.171-9.046,0.512l-0.085-0.512   l10.07-47.79c-0.009-0.094,0.017-0.188,0.085-0.256c4.267-19.799,28.759-31.149,50.265-23.127l0.768,0.256   c8.278,3.021,17.281,3.379,25.772,1.024v-0.085c4.617-1.195,8.944-3.32,12.715-6.23l13.057-12.545   c8.67-7.851,21.881-7.851,30.551,0l13.057,12.545c11.12,8.133,25.585,10.121,38.488,5.291l0.768-0.256   c21.505-8.022,46.168,3.414,50.35,23.383L384.027,154.231z"/>
</g>
<path style="fill:#4CAF50;" d="M345.624,159.778c-9.165,3.55-17.631,8.688-25.004,15.19c-41.722-15.25-87.481-15.25-129.203,0  c-14.951-13.304-34.255-20.686-54.276-20.737c-3.021,0-6.042,0.171-9.046,0.512l-0.085-0.512l10.07-47.79  c-0.009-0.094,0.017-0.188,0.085-0.256c5.487-0.265,10.975,0.572,16.129,2.475l0.768,0.256c12.903,4.83,27.368,2.842,38.488-5.291  l13.057-12.545c2.518-2.355,5.564-4.079,8.875-5.035c2.091-0.546,4.241-0.836,6.4-0.853c5.658-0.077,11.128,2.031,15.276,5.888  l13.057,12.545c11.12,8.133,25.585,10.121,38.488,5.291l0.768-0.256c21.505-8.022,46.168,3.414,50.35,23.383L345.624,159.778z"/>
<path style="fill:#FFB301;" d="M475.34,404.104c0.666,6.904-2.594,13.594-8.449,17.324c-9.063,4.992-18.544,9.191-28.333,12.545  c-50.862,18.007-114.013,18.177-182.54,18.177c-81.925,0-156.256-0.256-210.873-30.722c-5.854-3.729-9.114-10.42-8.449-17.324  c0.171-2.56,0.341-5.206,0.597-7.681v-0.085c3.362-38.573,14.388-76.088,32.429-110.343c14.337-27.582,33.735-52.219,57.177-72.624  c0.043-0.043,0.102-0.077,0.171-0.085c18.928-16.59,40.741-29.579,64.346-38.317c41.722-15.25,87.481-15.25,129.203,0  c52.885,20.703,96.237,60.258,121.693,111.026c18.049,34.247,29.049,71.77,32.344,110.343v0.085  C474.998,398.898,475.169,401.543,475.34,404.104z"/>
<path style="fill:#FEC108;" d="M438.729,429.705c0.119,1.425,0.06,2.859-0.171,4.267c-50.862,18.007-114.013,18.177-182.54,18.177  c-81.925,0-156.256-0.256-210.873-30.722c-5.854-3.729-9.114-10.42-8.449-17.324c0.171-2.56,0.341-5.206,0.597-7.681v-0.085  c3.362-38.573,14.388-76.088,32.429-110.343c14.337-27.582,33.735-52.219,57.177-72.624c0.043-0.043,0.102-0.077,0.171-0.085  c8.901-4.941,18.177-9.2,27.735-12.716c41.722-15.25,87.481-15.25,129.203,0c52.885,20.703,96.237,60.258,121.693,111.026  c18.049,34.247,29.049,71.77,32.344,110.343v0.085C438.388,424.5,438.559,427.145,438.729,429.705z"/>
<path d="M256.018,460.683c-81.26,0-158.014,0-215.029-31.806c-8.764-5.317-13.74-15.165-12.801-25.371  c0.188-2.808,0.358-5.325,0.597-7.689l0.017-0.247c3.431-39.708,14.781-78.333,33.393-113.578  c26.438-52.637,71.429-93.617,126.293-115.028c43.625-15.865,91.432-15.865,135.058,0c54.882,21.42,99.881,62.408,126.319,115.054  c18.621,35.236,29.945,73.861,33.299,113.578c0.316,2.27,0.503,5.035,0.683,7.723l-8.508,0.794l8.517-0.597  c0.939,10.181-4.011,20.012-12.741,25.337C414.032,460.683,337.278,460.683,256.018,460.683z M256.018,172.075  c-21.036-0.017-41.919,3.678-61.675,10.915c-50.905,19.978-92.61,58.09-117.077,106.998  c-17.546,33.248-28.247,69.679-31.473,107.135c-0.247,2.441-0.401,4.822-0.555,7.151c-0.538,3.763,1.05,7.518,4.13,9.746  c53.081,29.604,127.676,29.604,206.648,29.604s153.576,0,206.717-29.647c2.953-2.116,4.514-5.667,4.096-9.268v-0.026l-0.017-0.222  c-0.154-2.296-0.307-4.651-0.606-6.861c-0.051-0.384-0.077-0.777-0.077-1.169c-3.226-37.216-13.885-73.409-31.345-106.426  c-24.467-48.916-66.18-87.037-117.094-107.015C297.928,175.771,277.055,172.075,256.018,172.075z"/>
<path d="M437.782,403.421c-4.344-0.009-7.996-3.277-8.474-7.604c-3.303-30.807-12.357-60.719-26.703-88.181  c-20.251-40.826-54.882-72.726-97.235-89.572c-15.813-5.786-32.523-8.747-49.36-8.739c-4.711,0-8.534-3.823-8.534-8.534  c0-4.711,3.823-8.534,8.534-8.534c18.834-0.009,37.524,3.303,55.214,9.78c46.313,18.288,84.23,53.055,106.452,97.611  c15.353,29.365,25.047,61.359,28.589,94.3c0.512,4.685-2.867,8.901-7.552,9.421C438.414,403.404,438.098,403.421,437.782,403.421z"/>
<path style="fill:#C52828;" d="M191.417,174.968c-43.088,16.513-79.971,46.006-105.564,84.4  c-5.871,8.568-11.256,17.452-16.129,26.626c-9.362-13.569-14.491-29.604-14.764-46.083c-0.068-0.623-0.102-1.254-0.085-1.877  c0.009-8.295,1.212-16.547,3.584-24.492v-0.085c9.404-31.721,36.781-54.805,69.637-58.713c3.004-0.341,6.025-0.512,9.046-0.512  c16.155,0,31.942,4.847,45.315,13.91C185.605,170.198,188.601,172.485,191.417,174.968z"/>
<path style="fill:#F44335;" d="M191.417,174.968c-43.088,16.513-79.971,46.006-105.564,84.4c-0.256-2.219-0.341-4.608-0.427-6.912  c-0.068-0.623-0.102-1.254-0.085-1.877c0.009-8.295,1.212-16.547,3.584-24.492v-0.085c9.404-31.721,36.781-54.805,69.637-58.713  c3.004-0.341,6.025-0.512,9.046-0.512c4.984-0.026,9.959,0.427,14.849,1.365C185.605,170.198,188.601,172.485,191.417,174.968z"/>
<path style="fill:#C52828;" d="M324.29,174.968c43.088,16.513,79.971,46.006,105.564,84.4c5.871,8.568,11.256,17.452,16.129,26.626  c9.362-13.569,14.491-29.604,14.764-46.083c0.068-0.623,0.102-1.254,0.085-1.877c-0.009-8.295-1.212-16.547-3.584-24.492v-0.085  c-9.404-31.721-36.781-54.805-69.637-58.713c-3.004-0.341-6.025-0.512-9.046-0.512c-16.155,0-31.942,4.847-45.315,13.91  C330.101,170.198,327.106,172.485,324.29,174.968z"/>
<path style="fill:#F44335;" d="M324.29,174.968c43.088,16.513,79.971,46.006,105.564,84.4c0.256-2.219,0.341-4.608,0.427-6.912  c0.068-0.623,0.102-1.254,0.085-1.877c-0.009-8.295-1.212-16.547-3.584-24.492v-0.085c-9.404-31.721-36.781-54.805-69.637-58.713  c-3.004-0.341-6.025-0.512-9.046-0.512c-4.984-0.026-9.959,0.427-14.849,1.365C330.101,170.198,327.106,172.485,324.29,174.968z"/>
<path d="M69.723,294.528c-2.791,0-5.402-1.365-6.998-3.652c-10.275-14.832-15.941-32.369-16.291-50.41  c-0.077-0.811-0.094-1.664-0.094-2.432c0.009-8.935,1.28-17.819,3.781-26.395c0.043-0.222,0.102-0.435,0.162-0.649  c13.808-47.909,63.842-75.551,111.751-61.743c12.972,3.738,24.936,10.343,35.023,19.312c3.533,3.115,3.874,8.508,0.751,12.05  c-0.939,1.067-2.133,1.877-3.465,2.364c-50.905,19.978-92.618,58.09-117.085,106.998c-1.391,2.637-4.054,4.352-7.023,4.531  C70.073,294.528,69.903,294.528,69.723,294.528z M66.779,215.428c-0.043,0.188-0.085,0.367-0.145,0.538  c-2.133,7.16-3.217,14.593-3.226,22.069c0.043,0.333,0.077,1.365,0.085,1.707c0.171,9.933,2.287,19.747,6.238,28.862  c24.287-41.731,60.668-75.107,104.327-95.725c-34.827-20.473-79.655-8.833-100.12,25.994  C70.875,204.078,68.477,209.642,66.779,215.428L66.779,215.428z"/>
<path d="M442.314,294.528c-0.162,0-0.333,0-0.495-0.009c-2.978-0.171-5.658-1.895-7.049-4.54  c-24.467-48.908-66.18-87.02-117.085-106.998c-4.429-1.621-6.699-6.528-5.069-10.958c0.486-1.323,1.297-2.509,2.355-3.448  c9.08-8.03,19.662-14.175,31.14-18.066c12.519-4.344,25.866-5.752,39.017-4.13c1.724,0.171,3.439,0.452,5.129,0.828  c34.042,5.974,61.751,30.739,71.506,63.902c0.06,0.213,0.119,0.427,0.162,0.649c2.492,8.542,3.763,17.384,3.772,26.284  c0.009,0.802-0.017,1.604-0.094,2.407c-0.358,18.024-6.016,35.544-16.249,50.376C447.758,293.146,445.13,294.528,442.314,294.528z   M337.987,172.886c43.642,20.618,80.005,53.977,104.301,95.682c3.985-9.08,6.11-18.868,6.255-28.785c0-0.307,0.026-0.606,0.06-0.905  l0.017-0.845c-0.017-7.442-1.101-14.849-3.226-21.983c-0.06-0.196-0.111-0.393-0.154-0.589  c-8.107-26.839-30.688-46.783-58.312-51.528c-1.314-0.29-2.646-0.504-3.985-0.632c-10.556-1.323-21.266-0.179-31.302,3.354  C346.896,168.269,342.322,170.36,337.987,172.886z"/>
<path d="M164.586,162.773c-4.711,0-8.534-3.823-8.525-8.534c0-1.69,0.503-3.345,1.442-4.745l16.624-24.825  c7.066-10.778,21.284-14.217,32.506-7.868l7.783,4.352c3.379,1.86,7.621,0.879,9.84-2.279l11.7-16.377  c7.851-11.086,23.212-13.705,34.298-5.854c2.27,1.604,4.25,3.584,5.854,5.854l10.522,14.738c1.186,1.69,3.004,2.825,5.044,3.149  c1.997,0.307,4.028-0.205,5.641-1.417c10.215-7.689,24.629-6.23,33.086,3.362l23.417,26.225c3.123,3.533,2.791,8.926-0.742,12.05  c-3.507,3.098-8.858,2.799-11.99-0.683l-23.417-26.225c-2.594-2.936-7.006-3.396-10.138-1.058  c-5.274,3.985-11.947,5.649-18.476,4.608c-6.58-1.016-12.468-4.651-16.308-10.087l-10.522-14.738  c-2.577-3.414-7.442-4.096-10.855-1.519c-0.572,0.435-1.084,0.947-1.519,1.519l-11.7,16.377  c-7.271,10.258-21.096,13.381-32.07,7.245l-7.774-4.352c-3.456-1.929-7.826-0.845-9.976,2.475l-16.624,24.825  C170.099,161.357,167.437,162.782,164.586,162.773z"/>
<path d="M37.295,404.872c-0.341,0-0.691-0.017-1.033-0.06c-2.884-0.341-5.479-1.937-7.083-4.361l-25.26-44.803  c-2.543-4.668-3.891-9.891-3.917-15.199c-0.111-11.546,6.349-22.154,16.667-27.351c5.735-3.064,8.551-9.712,6.759-15.967  l-6.81-24.552c-2.313-8.227-1.118-17.042,3.303-24.356c4.369-7.177,11.529-12.229,19.756-13.936l13.595-2.739  c4.625-0.93,9.123,2.065,10.053,6.682c0.102,0.495,0.154,1.007,0.162,1.51c0.205,14.798,4.813,29.194,13.228,41.372  c1.826,2.628,2.04,6.059,0.538,8.892c-17.546,33.24-28.247,69.662-31.465,107.109C45.393,401.509,41.715,404.872,37.295,404.872  L37.295,404.872z M47.168,250.186l-4.088,0.828c-3.584,0.734-6.691,2.936-8.568,6.076c-1.997,3.26-2.526,7.211-1.459,10.881  l6.836,24.62c3.926,14.089-2.552,28.998-15.532,35.749c-4.54,2.313-7.373,7.006-7.288,12.11c0.009,2.441,0.632,4.83,1.801,6.972  l13.168,23.349c4.967-29.331,14.345-57.749,27.812-84.281C53.091,275.43,48.764,263.055,47.168,250.186z"/>
<path d="M475.365,404.795c-2.074,0.026-4.088-0.649-5.735-1.903c-1.869-1.4-3.123-3.49-3.473-5.803  c-3.158-37.447-13.825-73.869-31.379-107.092c-1.493-2.808-1.297-6.213,0.503-8.833c8.414-12.178,13.031-26.575,13.27-41.381  c0.077-4.719,3.951-8.483,8.67-8.406c0.521,0.009,1.033,0.06,1.545,0.162l13.569,2.731c8.244,1.707,15.412,6.759,19.79,13.944  c4.429,7.322,5.624,16.163,3.294,24.398l-6.819,24.535c-0.367,1.229-0.546,2.5-0.538,3.772c0.009,5.12,2.85,9.823,7.382,12.203  c7.314,3.712,12.801,10.249,15.173,18.1c2.492,8.099,1.613,16.863-2.441,24.313l-0.06,0.102l-25.26,44.803  c-1.348,2.398-3.781,3.994-6.511,4.293C476.022,404.778,475.698,404.795,475.365,404.795z M452.179,286.455  c13.492,26.549,22.862,55.001,27.795,84.366l13.253-23.511c1.843-3.379,2.236-7.356,1.092-11.026  c-1.033-3.439-3.422-6.315-6.622-7.945c-10.3-5.248-16.761-15.856-16.709-27.411c-0.009-2.859,0.393-5.709,1.195-8.457l6.793-24.467  c1.075-3.678,0.555-7.646-1.442-10.923c-1.886-3.149-5.009-5.359-8.602-6.085l-4.037-0.811  C463.256,263.047,458.921,275.404,452.179,286.455z"/>
<path d="M320.62,183.502c-0.998,0-1.988-0.171-2.919-0.521c-39.845-14.482-83.504-14.482-123.349,0  c-2.936,1.075-6.23,0.452-8.577-1.613c-15.532-13.705-36.098-20.294-56.708-18.143c-4.532,0.538-8.679-2.603-9.396-7.109  c-0.196-1.203-0.205-2.432-0.009-3.644l10.07-47.79c2.552-11.487,10.053-21.258,20.481-26.686  c12.673-6.853,27.675-7.919,41.185-2.936c10.198,4.011,21.727,2.68,30.748-3.542l12.681-12.195  c12.11-10.659,30.253-10.667,42.362-0.009L289.89,71.52c8.756,6.127,19.969,7.544,29.98,3.798c0.094-0.034,0.956-0.324,1.05-0.358  c13.424-4.89,28.307-3.789,40.869,3.03c10.454,5.436,17.964,15.207,20.524,26.703l10.07,47.773c0.205,0.964,0.239,1.954,0.102,2.936  l-0.085,0.597c-0.316,2.244-1.502,4.267-3.311,5.632c-1.801,1.383-4.079,1.971-6.324,1.639c-10.497-1.237-21.138-0.085-31.123,3.379  c-9.353,3.166-17.972,8.167-25.371,14.704C324.716,182.743,322.702,183.502,320.62,183.502z M256.018,155.008  c21.369,0,42.601,3.482,62.844,10.309c8.167-6.452,17.384-11.461,27.24-14.806c8.824-3.038,18.075-4.66,27.402-4.805l-7.902-37.507  c-1.57-6.614-5.982-12.203-12.058-15.267c-8.295-4.472-18.117-5.154-26.959-1.886c-0.102,0.034-0.964,0.324-1.067,0.358  c-15.574,5.803-33.026,3.311-46.365-6.614c-0.256-0.196-0.495-0.401-0.725-0.623l-13.057-12.545  c-5.428-4.523-13.313-4.523-18.74,0.009l-13.04,12.536c-0.23,0.222-0.469,0.427-0.725,0.623  c-13.424,9.976-31.004,12.434-46.646,6.511c-9.054-3.516-19.184-2.927-27.769,1.621c-6.059,3.064-10.463,8.645-12.024,15.259  l-7.911,37.515c19.867,0.358,39.068,7.245,54.634,19.602C213.409,158.472,234.641,154.991,256.018,155.008z"/>
<path d="M384.027,162.773c-4.711,0-8.534-3.823-8.534-8.542c0-3.635,2.304-6.878,5.743-8.065l4.694-1.621  c4.455-1.536,9.319,0.828,10.855,5.282c1.536,4.455-0.828,9.319-5.283,10.855l0,0l-4.694,1.621  C385.922,162.611,384.974,162.773,384.027,162.773z"/>
<g>
</g>
<g>
</g>
<g>
</g>
<g>
</g>
<g>
</g>
<g>
</g>
<g>
</g>
<g>
</g>
<g>
</g>
<g>
</g>
<g>
</g>
<g>
</g>
<g>
</g>
<g>
</g>
<g>
</g>
</svg>
