<?xml version="1.0" encoding="iso-8859-1"?>
<!-- Generator: Adobe Illustrator 19.0.0, SVG Export Plug-In . SVG Version: 6.00 Build 0)  -->
<svg xmlns="http://www.w3.org/2000/svg" xmlns:xlink="http://www.w3.org/1999/xlink" version="1.1" id="Capa_1" x="0px" y="0px" viewBox="0 0 512 512" style="enable-background:new 0 0 512 512;" xml:space="preserve">
<g>
	<path style="fill:#F57C00;" d="M179.2,184.747c1.442-0.017,2.884,0.188,4.267,0.597c-3.584,1.067-6.63,3.439-8.533,6.656   c-0.597,1.015-1.34,1.937-2.219,2.731c-3.84,3.959-9.557,5.47-14.848,3.925c1.493-0.529,2.927-1.212,4.267-2.048   c1.715-1.237,3.166-2.799,4.267-4.608C169.097,187.503,173.952,184.747,179.2,184.747z"/>
	<path style="fill:#F57C00;" d="M230.4,184.747c1.442-0.017,2.884,0.188,4.267,0.597c-3.584,1.067-6.63,3.439-8.533,6.656   c-3.49,5.914-10.598,8.636-17.152,6.571c2.449-0.649,4.668-1.98,6.4-3.84c0.879-0.794,1.621-1.715,2.219-2.731   C220.297,187.503,225.152,184.747,230.4,184.747z"/>
	<path style="fill:#F57C00;" d="M281.6,184.747c1.442-0.017,2.884,0.188,4.267,0.597c-3.584,1.067-6.63,3.439-8.533,6.656   c-2.697,4.497-7.552,7.253-12.8,7.253c-1.442,0.017-2.884-0.188-4.267-0.597c3.584-1.067,6.63-3.439,8.533-6.656   C271.497,187.503,276.352,184.747,281.6,184.747z"/>
	<path style="fill:#F57C00;" d="M315.733,199.253c-1.442,0.017-2.884-0.188-4.267-0.597c3.584-1.067,6.63-3.439,8.533-6.656   c2.611-4.42,7.33-7.168,12.459-7.253h0.341c1.442-0.017,2.884,0.188,4.267,0.597c-3.584,1.067-6.63,3.439-8.533,6.656   C325.837,196.497,320.981,199.253,315.733,199.253z"/>
	<path style="fill:#F57C00;" d="M435.2,153.6v286.293c0,7.987-2.807,15.718-7.936,21.845l-19.371,23.296   c-9.728,11.682-24.141,18.432-39.339,18.432h-42.667c15.198,0,29.611-6.75,39.339-18.432l19.371-23.296   c5.129-6.127,7.936-13.858,7.936-21.845V187.392c1.715,1.237,3.166,2.799,4.267,4.608l2.645,4.437l18.688-22.357L435.2,153.6z"/>
</g>
<g>
	<path style="fill:#FF9801;" d="M392.533,187.392v252.501c0,7.987-2.807,15.718-7.936,21.845l-19.371,23.296   c-9.728,11.682-24.141,18.432-39.339,18.432H143.445c-15.198,0-29.611-6.75-39.339-18.432l-19.371-23.296   c-5.129-6.127-7.936-13.858-7.936-21.845V153.6l17.067,20.48l18.688,22.357L115.2,192c2.697-4.497,7.552-7.253,12.8-7.253   c1.442-0.017,2.884,0.188,4.267,0.597c3.584,1.067,6.63,3.439,8.533,6.656c2.697,4.497,7.552,7.253,12.8,7.253   c1.442-0.026,2.876-0.222,4.267-0.597c5.291,1.545,11.008,0.034,14.848-3.925c0.879-0.794,1.621-1.715,2.219-2.731   c1.903-3.217,4.949-5.589,8.533-6.656c3.584,1.067,6.63,3.439,8.533,6.656c2.697,4.497,7.552,7.253,12.8,7.253   c1.425,0.034,2.842-0.205,4.181-0.683c6.554,2.065,13.662-0.657,17.152-6.571c1.903-3.217,4.949-5.589,8.533-6.656   c3.584,1.067,6.63,3.439,8.533,6.656c2.697,4.497,7.552,7.253,12.8,7.253c1.442,0.017,2.884-0.188,4.267-0.597   c1.382,0.41,2.825,0.614,4.267,0.597c5.248,0,10.103-2.756,12.8-7.253c1.903-3.217,4.949-5.589,8.533-6.656   c3.584,1.067,6.63,3.439,8.533,6.656c2.697,4.497,7.552,7.253,12.8,7.253c1.442,0.017,2.884-0.188,4.267-0.597   c1.382,0.41,2.825,0.614,4.267,0.597c5.248,0,10.103-2.756,12.8-7.253c1.903-3.217,4.949-5.589,8.533-6.656   c3.584,1.067,6.63,3.439,8.533,6.656c4.233,7.066,13.397,9.37,20.471,5.129c2.108-1.263,3.866-3.021,5.129-5.129   c4.241-7.083,13.431-9.387,20.514-5.137C391.987,187.034,392.269,187.204,392.533,187.392z"/>
	<path style="fill:#FF9801;" d="M157.867,198.656c-1.391,0.375-2.825,0.572-4.267,0.597c-5.248,0-10.103-2.756-12.8-7.253   c-1.903-3.217-4.949-5.589-8.533-6.656c1.382-0.41,2.825-0.614,4.267-0.597c5.248,0,10.103,2.756,12.8,7.253   C151.236,195.217,154.283,197.589,157.867,198.656z"/>
	<path style="fill:#FF9801;" d="M208.981,198.571c-1.34,0.478-2.756,0.717-4.181,0.683c-5.248,0-10.103-2.756-12.8-7.253   c-1.903-3.217-4.949-5.589-8.533-6.656c1.382-0.41,2.825-0.614,4.267-0.597c5.248,0,10.103,2.756,12.8,7.253   C202.453,195.149,205.457,197.478,208.981,198.571z"/>
	<path style="fill:#FF9801;" d="M260.267,198.656c-1.382,0.41-2.825,0.614-4.267,0.597c-5.248,0-10.103-2.756-12.8-7.253   c-1.903-3.217-4.949-5.589-8.533-6.656c1.382-0.41,2.825-0.614,4.267-0.597c5.248,0,10.103,2.756,12.8,7.253   C253.636,195.217,256.683,197.589,260.267,198.656z"/>
	<path style="fill:#FF9801;" d="M311.467,198.656c-1.382,0.41-2.825,0.614-4.267,0.597c-5.248,0-10.103-2.756-12.8-7.253   c-1.903-3.217-4.949-5.589-8.533-6.656c1.28-0.375,2.594-0.572,3.925-0.597h0.341c5.248,0,10.103,2.756,12.8,7.253   C304.836,195.217,307.883,197.589,311.467,198.656z"/>
</g>
<path d="M368.546,512H143.454c-17.741,0.026-34.569-7.859-45.901-21.513l-19.379-23.296c-6.391-7.663-9.899-17.323-9.907-27.307  V153.6c0-4.71,3.814-8.533,8.533-8.533c2.534,0,4.941,1.126,6.562,3.072l28.663,34.364c9.472-8.823,24.311-8.294,33.135,1.178  c1.109,1.195,2.099,2.5,2.935,3.9c1.92,3.081,5.982,4.019,9.062,2.099c0.085-0.051,0.162-0.102,0.239-0.154  c0.657-0.512,1.22-1.143,1.655-1.852c6.63-11.127,21.026-14.771,32.154-8.141c3.319,1.98,6.101,4.745,8.09,8.055  c1.903,3.029,5.897,3.942,8.917,2.039c0.341-0.213,0.666-0.461,0.964-0.742c0.41-0.341,0.759-0.742,1.058-1.186  c6.613-11.136,21.001-14.797,32.137-8.183c3.328,1.98,6.118,4.753,8.115,8.073c2.014,3.046,6.118,3.874,9.165,1.852  c0.734-0.486,1.365-1.118,1.852-1.852c6.673-11.093,21.077-14.686,32.171-8.013c3.285,1.971,6.033,4.727,8.013,8.013  c2.014,3.046,6.118,3.874,9.165,1.852c0.734-0.486,1.365-1.118,1.852-1.852c4.122-6.929,11.537-11.23,19.601-11.366  c8.397-0.154,16.239,4.181,20.582,11.366c2.014,3.046,6.118,3.874,9.165,1.852c0.734-0.486,1.365-1.118,1.852-1.852  c6.716-11.11,21.171-14.66,32.273-7.945c1.357,0.819,2.628,1.783,3.797,2.859l28.655-34.355c3.012-3.618,8.397-4.113,12.015-1.101  c1.963,1.613,3.089,4.019,3.089,6.554v286.293c-0.017,9.984-3.516,19.644-9.907,27.307l-19.379,23.287  C403.123,504.141,386.287,512.026,368.546,512z M85.333,177.169v262.724c0.009,5.99,2.116,11.785,5.956,16.384l19.379,23.296  c8.09,9.754,20.113,15.377,32.785,15.36h225.101c12.672,0.026,24.687-5.606,32.785-15.36l19.379-23.296  c3.84-4.599,5.948-10.394,5.956-16.384V177.169l-20.668,24.738c-3.021,3.618-8.397,4.105-12.015,1.084  c-0.742-0.614-1.365-1.357-1.86-2.176l-2.654-4.437c-1.852-3.021-5.794-3.977-8.823-2.133c-0.879,0.538-1.613,1.271-2.142,2.159  c-6.656,11.102-21.06,14.711-32.162,8.047c-3.294-1.98-6.05-4.727-8.03-8.021c-1.152-1.946-3.243-3.14-5.504-3.149  c-2.253-0.017-4.343,1.169-5.487,3.115c-6.656,11.11-21.06,14.72-32.171,8.064c-3.294-1.98-6.059-4.736-8.038-8.03  c-2.014-3.046-6.118-3.874-9.165-1.852c-0.734,0.486-1.365,1.118-1.852,1.852c-6.673,11.093-21.077,14.686-32.171,8.013  c-3.285-1.971-6.033-4.727-8.013-8.013c-2.014-3.046-6.118-3.874-9.165-1.852c-0.734,0.486-1.365,1.118-1.852,1.852  c-1.024,1.732-2.304,3.294-3.789,4.642c-4.301,4.343-10.18,6.775-16.299,6.724c-8.235,0.017-15.863-4.301-20.087-11.366  c-2.014-3.046-6.118-3.874-9.165-1.852c-0.734,0.486-1.365,1.118-1.852,1.852c-1.664,2.756-3.874,5.154-6.485,7.049  c-10.684,7.475-25.412,4.873-32.896-5.811c-0.282-0.401-0.555-0.811-0.811-1.237c-2.014-3.046-6.118-3.874-9.165-1.852  c-0.734,0.486-1.365,1.118-1.852,1.852l-2.62,4.386c-2.415,4.045-7.654,5.367-11.699,2.953c-0.828-0.495-1.562-1.118-2.176-1.86  L85.333,177.169z"/>
<path d="M110.933,443.733c-4.71,0-8.533-3.814-8.533-8.525c0,0,0,0,0-0.009V247.467c0-4.71,3.823-8.533,8.533-8.533  c4.71,0,8.533,3.823,8.533,8.533V435.2C119.467,439.91,115.652,443.733,110.933,443.733L110.933,443.733z"/>
<path d="M401.067,443.733c-4.71,0-8.533-3.814-8.533-8.525c0,0,0,0,0-0.009V247.467c0-4.71,3.823-8.533,8.533-8.533  s8.533,3.823,8.533,8.533V435.2C409.6,439.91,405.786,443.733,401.067,443.733L401.067,443.733z"/>
<g>
	<path style="fill:#FDD834;" d="M162.133,42.667v153.941c-2.526,1.698-5.487,2.62-8.533,2.645c-5.248,0-10.103-2.756-12.8-7.253   c-4.233-7.066-13.397-9.37-20.463-5.137c-2.108,1.263-3.874,3.029-5.137,5.137l-2.645,4.437L93.867,174.08V42.667   c0-18.85,15.283-34.133,34.133-34.133S162.133,23.817,162.133,42.667z"/>
	<path style="fill:#FDD834;" d="M230.4,137.472c-10.974,11.11-17.109,26.112-17.067,41.728c-0.017,5.248,0.674,10.47,2.048,15.531   c-2.748,2.91-6.579,4.54-10.581,4.523c-5.248,0-10.103-2.756-12.8-7.253c-4.233-7.066-13.397-9.37-20.463-5.137   c-2.108,1.263-3.874,3.029-5.137,5.137c-1.101,1.809-2.551,3.371-4.267,4.608V76.8c0-18.85,15.283-34.133,34.133-34.133   S230.4,57.95,230.4,76.8V137.472z"/>
</g>
<path d="M153.6,207.787c-8.235,0.017-15.863-4.301-20.087-11.366c-2.014-3.046-6.118-3.874-9.165-1.852  c-0.734,0.486-1.365,1.118-1.852,1.852l-2.62,4.386c-2.415,4.045-7.654,5.367-11.699,2.953c-0.828-0.495-1.562-1.118-2.176-1.86  l-18.679-22.357c-1.289-1.527-1.988-3.465-1.988-5.461V42.667C85.333,19.106,104.439,0,128,0s42.667,19.106,42.667,42.667v153.941  c0,2.85-1.425,5.513-3.789,7.1C162.953,206.353,158.336,207.77,153.6,207.787z M128,176.213c8.235-0.017,15.863,4.301,20.087,11.366  c1.152,1.946,3.243,3.14,5.513,3.149V42.667c0-14.14-11.46-25.6-25.6-25.6c-14.14,0-25.6,11.46-25.6,25.6v128.316l9.626,11.52  C116.352,178.441,122.069,176.196,128,176.213z"/>
<path d="M204.8,207.787c-8.235,0.017-15.863-4.301-20.087-11.366c-2.014-3.046-6.118-3.874-9.165-1.852  c-0.734,0.486-1.365,1.118-1.852,1.852c-1.664,2.756-3.874,5.154-6.485,7.049c-3.789,2.799-9.131,2.005-11.938-1.783  c-1.084-1.468-1.673-3.251-1.673-5.077V76.8c0-23.561,19.106-42.667,42.667-42.667s42.667,19.106,42.667,42.667v60.672  c0,2.236-0.879,4.386-2.449,5.99c-9.404,9.515-14.66,22.357-14.618,35.738c-0.017,4.48,0.563,8.934,1.741,13.261  c0.794,2.876,0.034,5.956-2.014,8.124C217.216,205.184,211.149,207.795,204.8,207.787z M179.2,176.213  c8.235-0.017,15.863,4.301,20.087,11.366c1.348,2.219,3.883,3.422,6.46,3.072c-0.631-3.789-0.956-7.612-0.947-11.452  c-0.051-16.614,6.025-32.674,17.067-45.09V76.8c0-14.14-11.46-25.6-25.6-25.6c-14.14,0-25.6,11.46-25.6,25.6v101.009  C173.389,176.751,176.282,176.205,179.2,176.213z"/>
<path style="fill:#C52828;" d="M332.8,179.2c0.017,1.852-0.094,3.712-0.341,5.547c-5.129,0.085-9.847,2.833-12.459,7.253  c-1.135,1.86-2.645,3.456-4.437,4.693c-6.827,4.617-16.111,2.825-20.727-4.011c-0.154-0.222-0.299-0.452-0.435-0.683  c-4.233-7.066-13.397-9.37-20.463-5.137c-2.108,1.263-3.874,3.029-5.137,5.137c-2.031,3.388-5.308,5.837-9.131,6.827  c-1.203,0.265-2.432,0.41-3.669,0.427c-5.248,0-10.103-2.756-12.8-7.253c-4.233-7.066-13.397-9.37-20.463-5.137  c-2.108,1.263-3.874,3.029-5.137,5.137c-0.597,1.015-1.34,1.937-2.219,2.731c-5.069-18.825-0.606-38.929,11.947-53.845  c0.956-1.195,1.98-2.338,3.072-3.413c11.196-11.537,26.59-18.031,42.667-18.005c8.866-0.026,17.613,1.963,25.6,5.803  C319.539,135.1,332.843,156.126,332.8,179.2z"/>
<path style="fill:#F44335;" d="M315.733,193.28c0.026,1.143-0.026,2.278-0.171,3.413c-6.827,4.617-16.111,2.825-20.727-4.011  c-0.154-0.222-0.299-0.452-0.435-0.683c-4.233-7.066-13.397-9.37-20.463-5.137c-2.108,1.263-3.874,3.029-5.137,5.137  c-2.031,3.388-5.308,5.837-9.131,6.827c-1.203,0.265-2.432,0.41-3.669,0.427c-5.248,0-10.103-2.756-12.8-7.253  c-4.233-7.066-13.397-9.37-20.463-5.137c-2.108,1.263-3.874,3.029-5.137,5.137c-0.597,1.015-1.34,1.937-2.219,2.731  c-5.069-18.825-0.606-38.929,11.947-53.845c28.971-15.821,65.271-5.163,81.092,23.808  C313.207,173.466,315.725,183.287,315.733,193.28z"/>
<path d="M307.2,207.787c-8.235,0.017-15.863-4.301-20.087-11.366c-2.014-3.046-6.118-3.874-9.165-1.852  c-0.734,0.486-1.365,1.118-1.852,1.852c-6.673,11.093-21.077,14.686-32.171,8.013c-3.285-1.971-6.033-4.727-8.013-8.013  c-2.014-3.046-6.118-3.874-9.165-1.852c-0.734,0.486-1.365,1.118-1.852,1.852c-1.024,1.732-2.304,3.294-3.789,4.642  c-3.499,3.157-8.9,2.876-12.049-0.623c-0.887-0.99-1.536-2.167-1.886-3.447c-1.596-5.794-2.389-11.776-2.372-17.792  c0.068-37.675,30.592-68.198,68.267-68.267c10.155-0.034,20.173,2.236,29.321,6.656c23.902,11.17,39.108,35.226,38.946,61.611  c0.017,2.261-0.128,4.523-0.427,6.758c-0.597,4.139-4.113,7.236-8.303,7.313c-2.193,0.034-4.198,1.212-5.291,3.115  C323.089,203.469,315.443,207.804,307.2,207.787z M281.6,176.213c8.235-0.017,15.863,4.301,20.087,11.366  c2.014,3.046,6.118,3.874,9.165,1.852c0.734-0.486,1.365-1.118,1.852-1.852c2.654-4.454,6.716-7.893,11.546-9.779  c-0.418-19.285-11.742-36.659-29.227-44.809c-19.755-9.122-43.11-4.966-58.496,10.419c-9.079,9.182-14.319,21.478-14.643,34.389  c10.641-4.122,22.716,0,28.612,9.779c2.014,3.046,6.118,3.874,9.165,1.852c0.734-0.486,1.365-1.118,1.852-1.852  C265.737,180.514,273.365,176.196,281.6,176.213z"/>
<path style="fill:#2E7D32;" d="M418.133,119.467v54.613l-18.688,22.357L396.8,192c-1.101-1.809-2.551-3.371-4.267-4.608  c-6.793-4.702-16.102-3.004-20.804,3.789c-0.188,0.265-0.358,0.538-0.529,0.819c-4.233,7.066-13.397,9.37-20.471,5.129  c-2.108-1.263-3.866-3.021-5.129-5.129c-2.697-4.497-7.552-7.253-12.8-7.253h-0.341c0.247-1.835,0.358-3.695,0.341-5.547  c0.043-23.074-13.261-44.1-34.133-53.931v-5.803c-0.034-4.949,0.836-9.865,2.56-14.507c6.11-16.887,22.144-28.143,40.107-28.16  h34.133C399.027,76.809,418.125,95.906,418.133,119.467z"/>
<path style="fill:#4CAF50;" d="M392.533,145.067v42.325c-6.793-4.702-16.102-3.004-20.804,3.789  c-0.188,0.265-0.358,0.538-0.529,0.819c-4.233,7.066-13.397,9.37-20.471,5.129c-2.108-1.263-3.866-3.021-5.129-5.129  c-2.697-4.497-7.552-7.253-12.8-7.253h-0.341c0.247-1.835,0.358-3.695,0.341-5.547c0.043-23.074-13.261-44.1-34.133-53.931v-5.803  c-0.034-4.949,0.836-9.865,2.56-14.507c4.642-1.724,9.557-2.594,14.507-2.56h34.133  C373.427,102.409,392.525,121.506,392.533,145.067z"/>
<path d="M358.4,207.787c-8.235,0.017-15.863-4.301-20.087-11.366c-1.152-1.946-3.243-3.14-5.513-3.149  c-2.526,0-4.932-1.067-6.622-2.944c-1.664-1.852-2.458-4.326-2.167-6.801c0.188-1.434,0.273-2.876,0.256-4.326  c0.119-19.797-11.307-37.845-29.244-46.217c-2.987-1.408-4.89-4.412-4.89-7.714v-5.803c0.034-28.262,22.938-51.166,51.2-51.2h34.133  c28.262,0.034,51.166,22.938,51.2,51.2v54.613c0,1.997-0.7,3.934-1.98,5.47l-18.679,22.357c-3.021,3.618-8.397,4.105-12.015,1.084  c-0.742-0.614-1.365-1.357-1.86-2.176l-2.654-4.437c-1.843-3.021-5.786-3.985-8.815-2.142c-0.879,0.538-1.621,1.28-2.15,2.159  C374.281,203.477,366.643,207.804,358.4,207.787z M341.316,177.835c4.838,1.869,8.909,5.299,11.571,9.745  c2.014,3.046,6.118,3.874,9.165,1.852c0.734-0.486,1.365-1.118,1.852-1.852c6.716-11.102,21.154-14.669,32.265-7.953  c1.365,0.828,2.645,1.783,3.814,2.867l9.617-11.511v-51.516c-0.017-18.842-15.292-34.116-34.133-34.133h-34.133  c-18.842,0.017-34.116,15.292-34.133,34.133v0.64C328.004,131.934,340.992,153.899,341.316,177.835z"/>
<rect x="341.333" y="42.667" style="fill:#2E7D32;" width="34.133" height="34.133"/>
<path d="M375.467,85.333h-34.133c-4.71,0-8.533-3.814-8.533-8.525c0-0.009,0-0.009,0-0.009V42.667c0-4.71,3.814-8.533,8.525-8.533  c0.009,0,0.009,0,0.009,0h34.133c4.71,0,8.533,3.814,8.533,8.525c0,0.009,0,0.009,0,0.009V76.8  C384,81.51,380.186,85.333,375.467,85.333L375.467,85.333z M349.867,68.267h17.067V51.2h-17.067V68.267z"/>
<path style="fill:#607D8B;" d="M332.8,8.533H384c4.71,0,8.533,3.823,8.533,8.533v17.067c0,4.71-3.823,8.533-8.533,8.533h-51.2  c-4.71,0-8.533-3.823-8.533-8.533V17.067C324.267,12.356,328.09,8.533,332.8,8.533z"/>
<path style="fill:#CFD8DC;" d="M358.4,17.067v17.067c0,4.693-1.92,8.533-4.267,8.533h-25.6c-2.347,0-4.267-3.84-4.267-8.533V17.067  c0-4.693,1.92-8.533,4.267-8.533h25.6C356.48,8.533,358.4,12.373,358.4,17.067z"/>
<path d="M384,51.2h-51.2c-9.421-0.009-17.058-7.646-17.067-17.067V17.067C315.742,7.646,323.379,0.009,332.8,0H384  c9.421,0.009,17.058,7.646,17.067,17.067v17.067C401.058,43.554,393.421,51.191,384,51.2z M332.8,17.067v17.067H384V17.092  L332.8,17.067z"/>
<path d="M119.467,85.333c-4.71,0-8.533-3.823-8.533-8.533c0-2.261,0.896-4.429,2.5-6.033l8.533-8.533  c3.362-3.302,8.764-3.251,12.066,0.111c3.26,3.319,3.26,8.636,0,11.955l-8.533,8.533C123.904,84.437,121.728,85.333,119.467,85.333z  "/>
<path d="M119.467,119.467c-4.71,0-8.533-3.823-8.533-8.533c0-2.261,0.896-4.429,2.5-6.033l8.533-8.533  c3.362-3.302,8.764-3.251,12.066,0.111c3.26,3.319,3.26,8.636,0,11.955l-8.533,8.533  C123.904,118.571,121.728,119.467,119.467,119.467z"/>
<path d="M119.467,153.6c-4.71,0-8.533-3.823-8.533-8.533c0-2.261,0.896-4.429,2.5-6.033l8.533-8.533  c3.362-3.302,8.764-3.251,12.066,0.111c3.26,3.319,3.26,8.636,0,11.955L125.5,151.1C123.904,152.704,121.728,153.6,119.467,153.6z"/>
<path d="M187.733,119.467c-4.71,0-8.533-3.823-8.533-8.533c0-2.261,0.896-4.429,2.5-6.033l8.533-8.533  c3.362-3.302,8.764-3.251,12.066,0.111c3.26,3.319,3.26,8.636,0,11.955l-8.533,8.533  C192.171,118.571,189.995,119.467,187.733,119.467z"/>
<path d="M187.733,153.6c-4.71,0-8.533-3.823-8.533-8.533c0-2.261,0.896-4.429,2.5-6.033l8.533-8.533  c3.362-3.302,8.764-3.251,12.066,0.111c3.26,3.319,3.26,8.636,0,11.955l-8.533,8.533C192.171,152.704,189.995,153.6,187.733,153.6z"/>
<g>
</g>
<g>
</g>
<g>
</g>
<g>
</g>
<g>
</g>
<g>
</g>
<g>
</g>
<g>
</g>
<g>
</g>
<g>
</g>
<g>
</g>
<g>
</g>
<g>
</g>
<g>
</g>
<g>
</g>
</svg>
