<?xml version="1.0" encoding="iso-8859-1"?>
<!-- Generator: Adobe Illustrator 19.0.0, SVG Export Plug-In . SVG Version: 6.00 Build 0)  -->
<svg xmlns="http://www.w3.org/2000/svg" xmlns:xlink="http://www.w3.org/1999/xlink" version="1.1" id="Capa_1" x="0px" y="0px" viewBox="0 0 512.005 512.005" style="enable-background:new 0 0 512.005 512.005;" xml:space="preserve">
<polygon style="fill:#FFB301;" points="489.97,168.249 488.648,169.042 252.085,304.197 246.27,300.849 53.847,190.893   15.521,169.042 14.199,168.249 222.657,49.13 252.085,32.302 "/>
<polygon style="fill:#FEC108;" points="454.728,181.73 453.406,182.523 246.27,300.849 53.847,190.893 15.521,169.042   14.199,168.249 222.657,49.13 "/>
<path d="M252.085,313.007c-1.533,0-3.04-0.396-4.37-1.163L9.679,175.818c-4.176-2.493-5.542-7.903-3.048-12.079  c0.775-1.304,1.877-2.379,3.198-3.137L247.715,24.655c2.705-1.551,6.035-1.551,8.74,0L494.34,160.602  c4.22,2.414,5.692,7.789,3.278,12.018c-0.749,1.322-1.833,2.414-3.137,3.198l-1.322,0.793L256.455,311.853  C255.124,312.611,253.618,313.007,252.085,313.007z M31.935,168.258l220.141,125.789l220.167-125.78L252.085,42.452L31.935,168.258z  "/>
<g>
	<polygon style="fill:#FFB301;" points="489.97,171.333 489.97,204.108 482.305,208.514 252.613,339.703 252.085,338.734    252.085,304.197 488.648,169.042  "/>
	<polygon style="fill:#FFB301;" points="252.613,339.703 252.085,340.056 53.847,226.752 21.864,208.514 14.199,204.108    14.199,171.333 15.521,169.042 53.847,190.893 246.27,300.849 252.085,304.197 252.085,338.734  "/>
</g>
<path d="M252.613,348.514c-3.216,0-6.167-1.745-7.718-4.564l-0.537-0.969c-0.714-1.304-1.093-2.767-1.093-4.247v-34.537  c0-3.163,1.692-6.079,4.441-7.648L484.27,161.395c4.211-2.405,9.577-0.96,12,3.242l1.322,2.291c0.775,1.339,1.181,2.863,1.181,4.405  v32.775c0,3.154-1.692,6.07-4.423,7.639l-7.665,4.405l-229.7,131.198C255.653,348.117,254.146,348.514,252.613,348.514z   M260.895,309.315v15.524l220.264-125.824v-15.542L260.895,309.315z"/>
<path d="M14.455,316.937c-1.533,0-3.031-0.423-4.344-1.216c-2.749-1.639-4.458-4.59-4.502-7.797  c-0.053-3.137,1.559-6.062,4.238-7.692l13.04-7.401c4.229-2.396,9.604-0.916,12.009,3.313c2.396,4.229,0.916,9.604-3.313,12.009l0,0  l-11.137,6.326C18.842,316.047,16.692,316.928,14.455,316.937z"/>
<g>
	<path style="fill:#FFB301;" d="M67.063,338.734v35.242l-13.216-7.577l-39.648-22.643v-34.89l0.441-0.705l0.881,0.529l20.529,11.718   l2.907,11.63c0.96,3.938,4.493,6.714,8.546,6.696H67.063z"/>
	<path style="fill:#FFB301;" d="M252.613,479.351l-0.529,0.352l-140.617-80.352l45.286-10.044l8.018,4.582l5.463,16.388   c1.436,4.379,6.009,6.916,10.485,5.815l18.767-4.758c4.714-1.154,9.48,1.718,10.661,6.432l3.7,14.537   c1.101,4.678,5.78,7.586,10.467,6.485c1.048-0.247,2.035-0.687,2.925-1.286l6.432-4.229l18.414,10.485v34.626L252.613,479.351z"/>
	<path style="fill:#FFB301;" d="M405.917,391.774l-153.304,87.577l-0.529-0.969v-34.626l11.718-6.696l6.872,3.436   c4.335,2.185,9.612,0.449,11.806-3.877l4.846-9.78l5.639-16.74c1.507-4.599,6.458-7.11,11.066-5.595   c0.405,0.132,0.802,0.3,1.181,0.485l19.559,9.78c3.833,1.885,8.458,0.775,11.013-2.643l20.881-27.753L405.917,391.774z"/>
	<polygon style="fill:#FFB301;" points="489.97,310.981 489.97,343.756 463.538,358.822 463.538,329.923 488.913,309.659  "/>
</g>
<path d="M67.063,382.787c-1.533,0-3.048-0.396-4.379-1.163l-52.855-30.22c-2.749-1.568-4.441-4.485-4.441-7.648v-34.89  c0-1.648,0.458-3.251,1.322-4.652c2.573-4.256,7.982-5.824,12.441-3.612l0.89,0.529l20.379,11.63  c2.088,1.189,3.595,3.181,4.176,5.515l2.907,11.63l19.559,0.026c4.863,0,8.811,3.938,8.811,8.802c0,0,0,0,0,0.009v35.242  C75.864,378.849,71.926,382.787,67.063,382.787z M23.01,338.646l35.242,20.123v-11.216H47.503  c-8.123,0.018-15.198-5.533-17.101-13.427l-1.982-7.921l-5.41-3.093C23.01,323.113,23.01,338.646,23.01,338.646z"/>
<path d="M252.085,488.514c-1.533,0-3.04-0.405-4.37-1.163l-140.617-80.352c-4.22-2.414-5.692-7.797-3.278-12.026  c1.233-2.15,3.313-3.683,5.736-4.229l45.286-10.044c2.141-0.476,4.379-0.141,6.282,0.952l8.018,4.582  c1.885,1.075,3.304,2.802,3.982,4.863l5.463,16.388l18.731-4.696c9.454-2.335,19.022,3.427,21.392,12.872l3.674,14.467l6.449-4.22  c2.767-1.815,6.317-1.93,9.198-0.291l18.414,10.485c2.749,1.568,4.449,4.493,4.449,7.656v32.573  c1.401,3.833-0.018,8.115-3.418,10.37l-0.537,0.352C255.503,488.012,253.811,488.514,252.085,488.514z M172.463,424.064  l70.802,40.458v-15.639l-9.278-5.286l-1.93,1.269c-8.035,5.383-18.916,3.233-24.3-4.811c-1.172-1.745-2.018-3.692-2.502-5.745  l-3.656-14.379l-18.722,4.696C179.433,425.465,175.811,425.263,172.463,424.064z M135.635,403.016l31.718,18.123  c-2.581-2.141-4.493-4.978-5.507-8.176l-4.37-13.092l-2.132-1.225L135.635,403.016z"/>
<path d="M252.613,488.161c-3.216,0-6.167-1.745-7.718-4.564l-0.537-0.96c-0.714-1.304-1.093-2.767-1.093-4.256v-34.626  c0-3.163,1.692-6.079,4.441-7.648l11.718-6.696c2.564-1.454,5.674-1.542,8.308-0.229l6.872,3.436l4.555-9.154l5.445-16.167  c3.057-9.216,13.004-14.203,22.22-11.145c0.793,0.264,1.568,0.582,2.317,0.96l19.559,9.78l20.916-27.815  c1.938-2.59,5.145-3.903,8.344-3.418l49.251,7.401c4.811,0.714,8.132,5.198,7.41,10.009c-0.396,2.67-2,5.013-4.344,6.352  l-153.295,87.577C255.653,487.765,254.146,488.17,252.613,488.161z M260.895,448.866v15.604l70.361-40.203  c-3.507,0.511-7.084-0.026-10.282-1.559l-19.7-9.85l-5.604,16.775c-0.123,0.379-0.273,0.749-0.449,1.101l-4.846,9.797  c-2.106,4.194-5.797,7.374-10.255,8.837c-4.441,1.489-9.295,1.119-13.454-1.031l-2.59-1.295L260.895,448.866z M360.543,393.871  l-17.727,23.551c-0.115,0.15-0.22,0.3-0.344,0.449l37.031-21.154L360.543,393.871z"/>
<path d="M463.538,367.633c-4.863,0-8.811-3.947-8.811-8.811v-28.899c0-2.678,1.216-5.216,3.313-6.881l25.374-20.264  c3.797-3.04,9.348-2.414,12.379,1.383l1.057,1.322c1.251,1.559,1.93,3.498,1.93,5.498v32.775c0,3.163-1.7,6.088-4.449,7.656  L467.9,366.479C466.569,367.236,465.063,367.633,463.538,367.633z M472.349,334.161v9.498l8.811-5.022v-11.515L472.349,334.161z"/>
<path d="M252.085,348.866c-1.533,0-3.04-0.405-4.37-1.163L9.811,211.747c-2.731-1.568-4.423-4.485-4.423-7.639v-32.775  c0-1.551,0.405-3.066,1.181-4.405l1.322-2.291c2.423-4.194,7.789-5.648,11.991-3.242l236.59,135.172  c2.731,1.577,4.414,4.485,4.414,7.639v32.493c1.401,3.833-0.018,8.115-3.418,10.37l-0.537,0.352  C255.503,348.355,253.811,348.866,252.085,348.866z M23.01,199.007l220.264,125.868v-15.586L23.01,183.456  C23.01,183.456,23.01,199.007,23.01,199.007z"/>
<path style="fill:#AD1457;" d="M481.159,259.439l-3.789,2.203l-13.833,8.018l-20.176,11.63L286.181,371.95l-25.286,14.626  c-3.066,1.762-6.608,2.529-10.132,2.203l7.93-4.582l157.181-90.661l20.176-11.63l13.833-8.018l3.789-2.203  c9.322-14.485,10.264-32.828,2.467-48.194l26.167-14.978C491.38,224.39,490.939,243.985,481.159,259.439z"/>
<g>
	<path style="fill:#E91E63;" d="M453.67,271.686l-3.789,2.203l-13.833,8.018l-20.176,11.63l-157.181,90.661l-7.93,4.582   c-2.634-0.132-5.198-0.89-7.489-2.203l-20.529-11.982h-0.176L67.503,285.166l-6.696-3.877l-37.797-21.85   c-5.357-7.877-8.044-17.269-7.665-26.784c0.291-8.441,2.52-16.705,6.52-24.141l31.982,18.238l195.154,111.542l3.084,1.762   l0.529-0.352l203.524-116.211C463.926,238.857,462.992,257.201,453.67,271.686z"/>
	<path style="fill:#E91E63;" d="M456.129,223.492L252.604,339.703l-0.529,0.352l-3.084-1.762L454.807,220.76   C455.168,221.465,455.697,222.434,456.129,223.492z"/>
</g>
<path d="M252.058,397.677c-4.59,0.009-9.11-1.172-13.11-3.427l-19.762-11.533c-0.352-0.141-0.687-0.3-1.013-0.493L18.613,267.069  c-1.181-0.678-2.185-1.63-2.943-2.758c-11.612-18.176-12.194-41.286-1.524-60.026c1.137-2.07,3.057-3.604,5.33-4.238  c2.273-0.652,4.705-0.352,6.758,0.828l225.815,129.031l225.894-129.022c4.229-2.414,9.612-0.943,12.026,3.278  c0.026,0.044,0.053,0.088,0.07,0.132c10.67,18.74,10.088,41.85-1.524,60.026c-0.749,1.128-1.745,2.07-2.916,2.749l-37.833,21.868  L265.309,394.205C261.256,396.478,256.693,397.677,252.058,397.677z M226.102,366.461c0.37,0.15,0.731,0.317,1.075,0.52  l20.529,11.982c2.767,1.507,6.115,1.489,8.855-0.062L474.851,252.91c5.639-9.648,6.819-21.269,3.216-31.841L256.983,347.351  c-2.837,1.656-6.317,1.789-9.278,0.352L26.085,221.06c-3.604,10.581-2.423,22.194,3.216,31.841L226.102,366.461z"/>
<g>
	<polygon style="fill:#FDD834;" points="222.569,374.593 179.485,384.197 156.754,389.307 111.468,399.351 67.063,409.219    67.063,285.871 67.503,285.166  "/>
	<polygon style="fill:#FDD834;" points="463.538,269.659 463.538,400.408 405.917,391.774 356.666,384.373 356.226,384.285    287.327,373.976 286.181,371.95 443.362,281.289  "/>
</g>
<g>
	<polygon style="fill:#FFEB3A;" points="179.485,384.197 156.754,389.307 111.468,399.351 67.063,409.219 67.063,319.439  "/>
	<polygon style="fill:#FFEB3A;" points="437.107,282.434 437.107,404.373 379.855,396.32 330.922,389.421 330.49,389.333    262.032,379.721 260.895,377.835 417.063,293.28  "/>
</g>
<path d="M67.063,418.029c-4.863,0-8.811-3.938-8.811-8.793c0-0.009,0-0.009,0-0.018V285.871c0-1.648,0.458-3.251,1.322-4.652  c2.555-4.211,7.885-5.806,12.326-3.683l155.075,89.427c4.211,2.432,5.656,7.824,3.216,12.044c-1.233,2.132-3.304,3.656-5.709,4.194  L68.966,417.827C68.34,417.959,67.697,418.029,67.063,418.029z M75.873,300.161v98.079l122.714-27.313L75.873,300.161z"/>
<path d="M463.538,409.219c-0.441,0-0.872-0.035-1.304-0.097L286.023,382.69c-2.687-0.405-5.031-2.018-6.37-4.379l-1.145-2.026  c-2.37-4.211-0.916-9.542,3.269-11.965l177.366-102.291c4.22-2.432,9.604-0.978,12.035,3.233c0.767,1.339,1.172,2.855,1.172,4.396  v130.749C472.34,405.28,468.402,409.219,463.538,409.219z M309.891,368.443l144.828,21.736V284.91L309.891,368.443z"/>
<g>
	<path style="fill:#558B30;" d="M67.503,285.166l-0.441,0.705v52.863H47.503c-4.053,0.018-7.586-2.758-8.546-6.696l-2.907-11.63   l-3.436-13.568c-0.511-2.123-1.797-3.982-3.612-5.198l-1.762-1.145l-14.537-9.692c-4.026-2.722-5.128-8.176-2.467-12.247   l12.775-19.119l37.797,21.85L67.503,285.166z"/>
	<path style="fill:#558B30;" d="M356.666,384.373l-20.881,27.753c-2.555,3.419-7.181,4.529-11.013,2.643l-19.559-9.78   c-4.335-2.167-9.595-0.405-11.762,3.93c-0.194,0.379-0.352,0.775-0.485,1.181l-5.639,16.74l-4.846,9.78   c-2.194,4.326-7.471,6.062-11.806,3.877l-6.872-3.436l-15.947-7.93c-2.819-1.418-6.185-1.216-8.811,0.529l-5.374,3.612   l-6.432,4.229c-3.974,2.714-9.383,1.7-12.106-2.273c-0.608-0.89-1.048-1.877-1.286-2.925l-3.7-14.537   c-1.181-4.714-5.947-7.586-10.661-6.432l-18.767,4.758c-4.476,1.101-9.048-1.436-10.485-5.815l-5.463-16.388l-8.018-4.582   l65.815-14.714h0.176l20.529,11.982c5.471,3.084,12.15,3.084,17.621,0l25.286-14.626l1.145,2.026l68.899,10.308L356.666,384.373z"/>
	<path style="fill:#558B30;" d="M499.926,300.849l-11.013,8.811l-25.374,20.264v-60.264l13.833-8.018l3.789,6.608l19.471,19.471   c3.445,3.48,3.419,9.101-0.062,12.546C500.358,300.478,500.146,300.672,499.926,300.849z"/>
</g>
<path d="M67.063,347.545H47.503c-8.123,0.018-15.198-5.533-17.101-13.427l-6.335-25.11L7.811,298.135  c-8.009-5.427-10.211-16.264-4.96-24.388l12.837-19.207c2.581-3.859,7.709-5.057,11.727-2.731l44.502,25.727  c3.604,2.088,5.251,6.414,3.956,10.37v50.828C75.873,343.606,71.926,347.545,67.063,347.545L67.063,347.545z M25.741,271.201  l-8.194,12.255l16.273,10.819c3.674,2.441,6.291,6.167,7.339,10.449l6.344,25.181l10.749,0.018v-39.921L25.741,271.201z"/>
<path d="M164.763,402.708c-3.753,0-7.101-2.388-8.326-5.938l-0.793-2.291c-1.586-4.599,0.855-9.621,5.454-11.207  c4.599-1.586,9.621,0.855,11.207,5.454l0.793,2.291c1.586,4.608-0.872,9.63-5.48,11.216  C166.701,402.54,165.732,402.699,164.763,402.708z"/>
<path d="M274.604,450.267c-2.767,0-5.48-0.661-7.938-1.921l-22.74-11.322l-11.859,7.85c-8.035,5.383-18.916,3.233-24.3-4.811  c-1.172-1.745-2.018-3.692-2.502-5.744l-3.656-14.379l-18.722,4.696c-8.996,2.308-18.238-2.811-21.048-11.665l-4.37-13.093  l-5.092-2.916c-4.229-2.414-5.7-7.789-3.286-12.018c1.233-2.159,3.313-3.692,5.736-4.229l65.824-14.714  c2.229-0.476,4.546-0.123,6.529,0.987l20.529,11.982c2.767,1.507,6.115,1.489,8.855-0.062l25.198-14.581  c3.515-2.026,7.956-1.401,10.775,1.524l64.996,9.727c3.128,0.467,5.797,2.511,7.066,5.419c1.251,2.846,0.908,6.141-0.899,8.678  l-20.881,27.753c-5.092,6.731-14.229,8.952-21.841,5.304l-19.7-9.85l-5.604,16.775c-0.123,0.379-0.273,0.749-0.449,1.101  l-4.846,9.771C287.371,446.487,281.274,450.249,274.604,450.267L274.604,450.267z M243.908,419.395c2.74,0,5.436,0.634,7.885,1.859  l22.828,11.366l4.555-9.154l5.445-16.167c3.057-9.216,13.004-14.203,22.22-11.145c0.793,0.264,1.568,0.582,2.317,0.96l19.559,9.78  l12.044-16.018l-54.74-8.185c-0.203-0.026-0.405-0.07-0.608-0.115l-20.097,11.621c-8.176,4.608-18.167,4.626-26.361,0.044  l-17.7-10.326l-47.013,10.502l4.352,13.057l18.731-4.696c9.454-2.335,19.022,3.427,21.392,12.872l3.674,14.467l11.736-7.78  C237.018,420.417,240.419,419.395,243.908,419.395z"/>
<path d="M463.538,338.734c-4.863,0-8.811-3.938-8.811-8.802v-0.009v-60.264c0-3.145,1.674-6.044,4.396-7.621l13.833-8.018  c4.211-2.441,9.604-1.004,12.044,3.207c0.009,0.009,0.018,0.026,0.026,0.035l3.198,5.586l18.634,18.643  c6.89,6.934,6.855,18.132-0.07,25.022c-0.423,0.423-0.872,0.819-1.339,1.198l-0.018,0.009l-36.396,29.084  C467.468,338.056,465.53,338.734,463.538,338.734z M472.349,274.734v36.881l22.026-17.604l-19.445-19.524  c-0.255-0.256-0.502-0.529-0.722-0.819L472.349,274.734z"/>
<g>
</g>
<g>
</g>
<g>
</g>
<g>
</g>
<g>
</g>
<g>
</g>
<g>
</g>
<g>
</g>
<g>
</g>
<g>
</g>
<g>
</g>
<g>
</g>
<g>
</g>
<g>
</g>
<g>
</g>
</svg>
