<?xml version="1.0" encoding="iso-8859-1"?>
<!-- Generator: Adobe Illustrator 19.0.0, SVG Export Plug-In . SVG Version: 6.00 Build 0)  -->
<svg xmlns="http://www.w3.org/2000/svg" xmlns:xlink="http://www.w3.org/1999/xlink" version="1.1" id="Capa_1" x="0px" y="0px" viewBox="0 0 512 512" style="enable-background:new 0 0 512 512;" xml:space="preserve">
<g>
	<path style="fill:#00695C;" d="M443.733,332.8c0,94.259-84.053,170.667-187.733,170.667S68.267,427.059,68.267,332.8   S152.32,8.533,256,8.533S443.733,238.541,443.733,332.8z"/>
	<path style="fill:#00695C;" d="M443.733,332.8c0,70.997-47.616,131.755-115.285,157.525c-23.151,8.738-47.701,13.184-72.448,13.141   c-103.68,0-187.733-76.373-187.733-170.667c0-77.568,56.917-247.125,134.827-304.64C218.138,16.06,236.706,9.165,256,8.533   C359.68,8.533,443.733,238.507,443.733,332.8z"/>
</g>
<path id="SVGCleanerId_0" style="fill:#009688;" d="M409.6,349.867c-0.896,57.719-31.599,110.857-81.152,140.459  c-23.151,8.738-47.701,13.184-72.448,13.141c-103.68,0-187.733-76.373-187.733-170.667c0-77.568,56.917-247.125,134.827-304.64  c6.11-1.698,12.425-2.56,18.773-2.56C325.547,25.6,409.6,255.573,409.6,349.867z"/>
<g>
	<path id="SVGCleanerId_0_1_" style="fill:#009688;" d="M409.6,349.867c-0.896,57.719-31.599,110.857-81.152,140.459   c-23.151,8.738-47.701,13.184-72.448,13.141c-103.68,0-187.733-76.373-187.733-170.667c0-77.568,56.917-247.125,134.827-304.64   c6.11-1.698,12.425-2.56,18.773-2.56C325.547,25.6,409.6,255.573,409.6,349.867z"/>
</g>
<path id="SVGCleanerId_1" d="M256,512c-108.228,0-196.267-80.384-196.267-179.2C59.733,236.288,144.674,0,256,0  s196.267,236.288,196.267,332.8C452.267,431.616,364.228,512,256,512z M256,17.067c-92.561,0-179.2,217.105-179.2,315.733  c0,89.404,80.393,162.133,179.2,162.133s179.2-72.73,179.2-162.133C435.2,234.172,348.561,17.067,256,17.067z"/>
<g>
	<path id="SVGCleanerId_1_1_" d="M256,512c-108.228,0-196.267-80.384-196.267-179.2C59.733,236.288,144.674,0,256,0   s196.267,236.288,196.267,332.8C452.267,431.616,364.228,512,256,512z M256,17.067c-92.561,0-179.2,217.105-179.2,315.733   c0,89.404,80.393,162.133,179.2,162.133s179.2-72.73,179.2-162.133C435.2,234.172,348.561,17.067,256,17.067z"/>
</g>
<path style="fill:#FFE0B2;" d="M392.533,332.8c-0.623,36.13-18.398,69.803-47.872,90.709  c-25.677,18.901-56.781,28.988-88.661,28.757c-72.363,0-131.84-49.579-136.277-111.957c-0.171-2.475-0.256-4.949-0.256-7.509  c0-91.648,82.944-273.067,136.533-273.067S392.533,241.152,392.533,332.8z"/>
<path style="fill:#FFECB3;" d="M366.933,358.4c-0.06,23.561-7.885,46.447-22.272,65.109c-25.677,18.901-56.781,28.988-88.661,28.757  c-72.363,0-131.84-49.579-136.277-111.957c4.608-81.323,64.341-218.88,113.92-254.72C287.232,92.501,366.933,268.544,366.933,358.4z  "/>
<path d="M256,460.8c-79.991,0-145.067-57.421-145.067-128c0-88.38,82.773-281.6,145.067-281.6s145.067,193.22,145.067,281.6  C401.067,403.379,335.991,460.8,256,460.8z M256,68.267c-44.262,0-128,173.056-128,264.533c0,61.167,57.421,110.933,128,110.933  S384,393.967,384,332.8C384,241.323,300.262,68.267,256,68.267z"/>
<path style="fill:#4E342E;" d="M307.2,307.2c0,33.536-18.176,61.44-42.069,67.157c-2.987,0.751-6.05,1.126-9.131,1.109  c-28.245,0-51.2-30.549-51.2-68.267c-0.358-18.082,5.453-35.746,16.469-50.091c8.166-11.076,20.975-17.775,34.731-18.176  C284.245,238.933,307.2,269.483,307.2,307.2z"/>
<path style="fill:#795548;" d="M281.6,324.267c0.358,18.082-5.453,35.746-16.469,50.091c-2.987,0.751-6.05,1.126-9.131,1.109  c-28.245,0-51.2-30.549-51.2-68.267c-0.358-18.082,5.453-35.746,16.469-50.091c2.987-0.751,6.05-1.126,9.131-1.109  C258.645,256,281.6,286.549,281.6,324.267z"/>
<path d="M256,384c-32.93,0-59.733-34.458-59.733-76.8S223.07,230.4,256,230.4s59.733,34.458,59.733,76.8S288.93,384,256,384z   M256,247.467c-23.526,0-42.667,26.795-42.667,59.733s19.14,59.733,42.667,59.733c23.526,0,42.667-26.795,42.667-59.733  S279.526,247.467,256,247.467z"/>
<path d="M256,179.2c-4.71,0-8.533-3.814-8.533-8.525c0,0,0,0,0-0.009v-34.133c0-4.71,3.823-8.533,8.533-8.533  c4.71,0,8.533,3.823,8.533,8.533v34.133C264.533,175.377,260.719,179.2,256,179.2L256,179.2z"/>
<path d="M221.867,196.267c-3.669,0-6.929-2.355-8.09-5.837l-8.533-25.6c-1.502-4.463,0.896-9.301,5.359-10.803  c4.463-1.502,9.301,0.896,10.803,5.359c0.009,0.017,0.009,0.034,0.017,0.043l8.533,25.6c1.493,4.471-0.93,9.31-5.402,10.803  C223.684,196.122,222.78,196.267,221.867,196.267z"/>
<path d="M290.133,196.267c-4.719-0.009-8.533-3.831-8.525-8.55c0-0.913,0.145-1.818,0.435-2.688l8.533-25.6  c1.476-4.471,6.306-6.903,10.778-5.419c4.471,1.476,6.903,6.306,5.419,10.778c-0.009,0.017-0.009,0.034-0.017,0.043l-8.533,25.6  C297.062,193.92,293.803,196.267,290.133,196.267z"/>
<path d="M241.954,305.954c-2.261,0-4.437-0.896-6.033-2.5l-6.033-6.033c-3.328-3.328-3.328-8.738,0-12.066  c3.328-3.328,8.738-3.328,12.066,0l6.033,6.033c3.328,3.337,3.328,8.738,0,12.066C246.383,305.05,244.215,305.946,241.954,305.954  L241.954,305.954z"/>
<path d="M256,341.333c-4.71,0-8.533-3.814-8.533-8.525c0,0,0,0,0-0.009v-8.533c0-4.71,3.823-8.533,8.533-8.533  c4.71,0,8.533,3.823,8.533,8.533v8.533C264.533,337.51,260.719,341.333,256,341.333L256,341.333z"/>
<path d="M276.087,305.954c-2.261,0-4.437-0.896-6.033-2.5l-6.033-6.033c-3.328-3.328-3.328-8.738,0-12.066s8.738-3.328,12.066,0l0,0  l6.033,6.033c3.328,3.337,3.328,8.738,0,12.066C280.516,305.05,278.349,305.946,276.087,305.954L276.087,305.954z"/>
<g>
</g>
<g>
</g>
<g>
</g>
<g>
</g>
<g>
</g>
<g>
</g>
<g>
</g>
<g>
</g>
<g>
</g>
<g>
</g>
<g>
</g>
<g>
</g>
<g>
</g>
<g>
</g>
<g>
</g>
</svg>
