<?xml version="1.0" encoding="iso-8859-1"?>
<!-- Generator: Adobe Illustrator 19.0.0, SVG Export Plug-In . SVG Version: 6.00 Build 0)  -->
<svg xmlns="http://www.w3.org/2000/svg" xmlns:xlink="http://www.w3.org/1999/xlink" version="1.1" id="Capa_1" x="0px" y="0px" viewBox="0 0 511.99 511.99" style="enable-background:new 0 0 511.99 511.99;" xml:space="preserve">
<path style="fill:#607D8B;" d="M332.549,102.342c-1.579-12.742-7.101-24.681-15.788-34.137l-1.707-0.683  c-2.304,6.059-10.241,11.521-22.189,15.959c-22.932,7.357-46.93,10.847-71.006,10.327c-5.633,0-11.18-0.171-16.557-0.512h-1.024  c-39.941-2.39-70.92-12.887-75.614-25.859l-1.792,0.768c-4.071,4.583-7.459,9.729-10.071,15.276  c-2.978,5.906-4.89,12.289-5.633,18.861c-0.188,1.331-0.273,2.671-0.256,4.011v0.853c0.529,1.075,1.161,2.108,1.878,3.072  c0.427,0.512,0.853,0.939,1.365,1.451c5.829,5.445,12.801,9.524,20.397,11.948c1.963,0.768,4.096,1.536,6.315,2.304  c2.304,0.683,4.694,1.365,7.254,2.048c2.475,0.683,5.035,1.28,7.681,1.878c2.56,0.512,5.206,1.109,7.937,1.622h0.256  c2.816,0.512,5.718,1.024,8.705,1.451c9.729,1.451,20.312,2.475,31.406,3.072c5.803,0.256,11.692,0.427,17.751,0.427  c6.827,0,13.484-0.171,19.97-0.597c8.876-0.512,17.325-1.28,25.347-2.39c34.649-4.609,60.082-14.508,65.629-26.286v-0.853  C332.822,105.005,332.736,103.665,332.549,102.342z"/>
<g>
	<path style="fill:#CFD8DC;" d="M298.667,106.353v0.853c-5.547,11.777-30.98,21.677-65.629,26.286   c-8.022,1.109-16.471,1.878-25.347,2.39c-1.195,0.085-2.39,0.171-3.584,0.171c-11.095-0.597-21.677-1.622-31.406-3.072   c-2.987-0.427-5.889-0.939-8.705-1.451h-0.256c-2.731-0.512-5.377-1.109-7.937-1.622c-2.646-0.597-5.206-1.195-7.681-1.878   c-2.56-0.683-4.95-1.366-7.254-2.048c-2.219-0.768-4.353-1.536-6.315-2.304c-7.596-2.424-14.568-6.503-20.397-11.948   c-0.512-0.512-0.939-0.939-1.365-1.451c-0.717-0.964-1.348-1.997-1.878-3.072v-0.853c-0.017-1.34,0.068-2.68,0.256-4.011   c0.742-6.571,2.654-12.955,5.633-18.861c2.612-5.547,6-10.694,10.071-15.276l1.792-0.768c4.694,12.972,35.673,23.469,75.614,25.859   h1.024c5.377,0.341,10.924,0.512,16.557,0.512c24.075,0.521,48.074-2.97,71.006-10.327c2.919,5.923,4.796,12.298,5.547,18.861   C298.599,103.665,298.685,105.005,298.667,106.353z"/>
	<path style="fill:#CFD8DC;" d="M292.864,83.481c-22.932,7.357-46.93,10.847-71.006,10.327c-5.633,0-11.18-0.171-16.557-0.512   c39.855-2.39,70.75-12.887,75.614-25.774l1.707,0.683C286.711,72.805,290.159,77.951,292.864,83.481z"/>
</g>
<path d="M221.858,145.014c-16.872,0.034-33.728-1.169-50.421-3.593c-2.859-0.401-5.692-0.896-8.458-1.4  c-0.273-0.017-0.538-0.051-0.811-0.102c-1.732-0.324-3.431-0.683-5.104-1.033l-2.944-0.606c-2.987-0.674-5.667-1.297-8.278-2.023  c-2.56-0.683-5.027-1.383-7.408-2.091c-2.688-0.922-4.924-1.732-6.99-2.535c-8.825-2.842-16.889-7.664-23.563-14.107  c-0.589-0.572-1.144-1.169-1.664-1.792c-1.135-1.476-2.125-3.055-2.953-4.728c-0.589-1.178-0.896-2.475-0.888-3.789v-0.853  c-0.017-1.75,0.102-3.491,0.341-5.223c1.784-14.372,7.98-27.839,17.726-38.541c0.845-0.964,1.895-1.724,3.064-2.227l1.792-0.768  c4.335-1.852,9.345,0.154,11.206,4.481c0.068,0.154,0.128,0.307,0.179,0.461c3.064,8.475,35.161,20.738,85.164,20.738  c49.84,0,82.015-12.272,85.207-20.755c1.656-4.412,6.571-6.64,10.984-4.984c0.06,0.017,0.111,0.043,0.162,0.068l1.707,0.683  c1.237,0.495,2.347,1.28,3.235,2.287c9.891,10.787,16.147,24.408,17.879,38.942c0.222,1.604,0.316,3.226,0.299,4.847v0.853  c0,1.255-0.273,2.501-0.819,3.636c-9.755,20.704-53.758,28.65-72.226,31.108c-7.945,1.101-16.454,1.903-25.979,2.458  C236.085,144.809,229.369,145.014,221.858,145.014z M164.798,123.038c0.265,0.026,0.521,0.051,0.725,0.094  c2.714,0.495,5.513,0.99,8.381,1.4c15.882,2.313,31.91,3.448,47.954,3.414c7.135,0,13.484-0.188,19.407-0.58  c9.132-0.529,17.205-1.289,24.732-2.33c33.591-4.463,53.152-13.245,58.23-20.081c-0.026-0.418-0.068-0.888-0.145-1.4  c-0.956-8.201-3.875-16.053-8.509-22.889c-17.137,14.892-56.847,21.677-93.724,21.677c-36.971,0-76.672-6.793-93.75-21.703  c-4.566,6.734-7.459,14.466-8.44,22.539c-0.102,0.708-0.154,1.306-0.179,1.792l0.145,0.188l-0.009-0.017  c0.154,0.119,0.299,0.247,0.427,0.393c4.984,4.685,10.975,8.159,17.521,10.147c1.954,0.768,3.994,1.502,6.102,2.227  c1.869,0.546,4.165,1.212,6.648,1.86c2.432,0.674,4.865,1.246,7.365,1.801l2.902,0.597  C161.965,122.466,163.373,122.765,164.798,123.038z"/>
<path style="fill:#C52828;" d="M298.667,127.092c-8.236,2.355-16.616,4.182-25.091,5.462c-2.134,0.341-4.267,0.683-6.401,0.939  c-8.022,1.109-16.471,1.878-25.347,2.39c-6.486,0.427-13.143,0.597-19.97,0.597c-6.059,0-11.948-0.171-17.751-0.427  c-11.095-0.597-21.677-1.622-31.406-3.072c-2.987-0.341-5.889-0.853-8.705-1.451h-0.256c-2.731-0.512-5.377-1.109-7.937-1.622  c-2.646-0.512-5.206-1.195-7.681-1.878c-2.56-0.683-4.95-1.366-7.254-2.048c-2.219-0.768-4.353-1.536-6.315-2.304  c-7.596-2.424-14.568-6.503-20.397-11.948c-0.512-0.512-0.939-0.939-1.365-1.451c-0.717-0.964-1.348-1.997-1.878-3.072v332.241  c0.009,1.348,0.358,2.671,1.024,3.84c0,0.171,0.085,0.256,0.171,0.427c6.913,12.887,44.72,23.213,92.683,25.176  c5.547,0.341,11.265,0.427,17.069,0.427c55.9,0,102.071-11.18,109.751-25.603c0.76-1.297,1.169-2.765,1.195-4.267V107.207  C329.135,114.973,316.675,121.971,298.667,127.092z"/>
<path style="fill:#F44335;" d="M298.667,127.092v312.356c-0.026,1.502-0.435,2.97-1.195,4.267  c-6.913,12.887-44.72,23.213-92.683,25.176c-47.963-1.963-85.77-12.289-92.683-25.176c-0.085-0.171-0.171-0.256-0.171-0.427  c-0.666-1.169-1.016-2.492-1.024-3.84V107.207c0.529,1.075,1.161,2.108,1.878,3.072c0.427,0.512,0.853,0.939,1.365,1.451  c5.829,5.445,12.801,9.524,20.397,11.948c1.963,0.768,4.096,1.536,6.315,2.304c2.304,0.683,4.694,1.365,7.254,2.048  c2.475,0.683,5.035,1.365,7.681,1.878c2.56,0.512,5.206,1.109,7.937,1.622h0.256c2.816,0.597,5.718,1.109,8.705,1.451  c9.729,1.451,20.312,2.475,31.406,3.072c5.803,0.256,11.692,0.427,17.751,0.427c6.827,0,13.484-0.171,19.97-0.597  c8.876-0.512,17.325-1.28,25.347-2.39c2.134-0.256,4.267-0.597,6.401-0.939C282.051,131.265,290.432,129.447,298.667,127.092z"/>
<path d="M221.858,477.853c-50.387,0-106.193-9.311-117.287-30.126c-0.137-0.256-0.265-0.538-0.393-0.845  c-1.178-2.304-1.792-4.848-1.801-7.442V107.198c0-4.711,3.815-8.534,8.526-8.534c3.243,0,6.204,1.835,7.647,4.745  c0.307,0.614,0.657,1.203,1.067,1.758l-0.009-0.017c0.154,0.119,0.299,0.247,0.427,0.393c4.984,4.685,10.975,8.159,17.521,10.147  c1.954,0.768,3.994,1.502,6.102,2.227c1.869,0.546,4.165,1.212,6.648,1.86c2.355,0.649,4.702,1.28,7.118,1.75l3.149,0.657  c1.391,0.29,2.808,0.589,4.242,0.87c0.316,0.026,0.64,0.068,0.947,0.137c2.56,0.546,5.189,1.007,7.903,1.314  c15.959,2.321,32.063,3.473,48.185,3.448c7.135,0,13.484-0.188,19.407-0.58c9.132-0.529,17.205-1.289,24.732-2.33  c2.176-0.256,4.199-0.589,6.222-0.905c32.038-5.061,49.858-14.218,52.862-20.576c2.014-4.259,7.109-6.076,11.368-4.062  c2.978,1.408,4.882,4.412,4.882,7.715v332.241c-0.026,2.961-0.811,5.872-2.287,8.44C328.06,468.533,272.254,477.853,221.858,477.853  z M119.481,439.406c4.754,8.91,43.79,21.37,102.378,21.37s97.624-12.46,102.224-21.08l0.179-313.534  c-15.558,7.536-32.217,12.537-49.354,14.816c-2.236,0.358-4.472,0.708-6.725,0.981c-7.826,1.084-16.335,1.886-25.859,2.441  c-6.23,0.41-12.955,0.606-20.457,0.606c-16.872,0.034-33.728-1.169-50.421-3.593c-2.774-0.316-5.718-0.811-8.603-1.417  c-0.222-0.017-0.444-0.043-0.666-0.085c-1.732-0.324-3.431-0.683-5.104-1.033l-2.944-0.606c-2.816-0.546-5.59-1.28-8.278-2.023  c-2.56-0.683-5.027-1.383-7.408-2.091c-2.688-0.922-4.924-1.732-6.99-2.535c-4.122-1.519-8.133-3.328-11.999-5.428v313.227  L119.481,439.406z"/>
<path d="M145.05,179.151c-4.711,0-8.534-3.815-8.534-8.526c0,0,0,0,0-0.009v-17.069c0-4.711,3.823-8.534,8.534-8.534  s8.534,3.823,8.534,8.534v17.069C153.592,175.328,149.769,179.143,145.05,179.151C145.058,179.151,145.058,179.151,145.05,179.151z"/>
<path d="M145.05,315.701c-4.711,0-8.534-3.815-8.534-8.526c0,0,0,0,0-0.009V204.754c0-4.711,3.823-8.534,8.534-8.534  s8.534,3.823,8.534,8.534v102.412C153.592,311.877,149.769,315.692,145.05,315.701C145.058,315.701,145.058,315.701,145.05,315.701z  "/>
<path d="M204.79,247.426c-4.711,0-8.534-3.823-8.534-8.534c0-2.262,0.896-4.429,2.501-6.034l59.74-59.74  c3.363-3.303,8.765-3.252,12.068,0.111c3.26,3.32,3.26,8.637,0,11.957l-59.74,59.74C209.228,246.521,207.06,247.426,204.79,247.426z  "/>
<path d="M204.79,298.632c-4.711,0-8.534-3.823-8.534-8.534c0-2.262,0.896-4.429,2.501-6.034l59.74-59.74  c3.363-3.303,8.765-3.252,12.068,0.111c3.26,3.32,3.26,8.637,0,11.957l-59.74,59.74C209.228,297.727,207.06,298.632,204.79,298.632z  "/>
<path style="fill:#C52828;" d="M332.805,443.716v29.87c-0.026,1.502-0.435,2.97-1.195,4.267  c-7.681,14.423-53.852,25.603-109.751,25.603c-5.803,0-11.521-0.085-17.069-0.427c-47.963-1.963-85.77-12.289-92.683-25.176  c-0.76-1.297-1.169-2.765-1.195-4.267v-29.87l1.024-0.427c0,0.171,0.085,0.256,0.171,0.427c6.913,12.887,44.72,23.213,92.683,25.176  c5.547,0.341,11.265,0.427,17.069,0.427c25.85,0.358,51.641-2.449,76.809-8.364c17.41-4.523,29.358-10.497,32.943-17.239H332.805z"/>
<path style="fill:#F44335;" d="M298.667,443.716v29.87c-0.026,1.502-0.435,2.97-1.195,4.267  c-6.913,12.887-44.72,23.213-92.683,25.176c-47.963-1.963-85.77-12.289-92.683-25.176c-0.76-1.297-1.169-2.765-1.195-4.267v-12.631  c25.168,5.914,50.958,8.722,76.809,8.364c5.803,0,11.521-0.085,17.069-0.427c47.963-1.963,85.77-12.289,92.683-25.176H298.667z"/>
<path d="M221.858,511.99c-50.387,0-106.193-9.311-117.287-30.126c-1.417-2.535-2.176-5.377-2.193-8.278v-29.87  c0-3.448,2.074-6.563,5.266-7.886l1.024-0.427c4.301-1.784,9.243,0.213,11.095,4.489c5.872,8.867,44.558,20.892,102.096,20.892  c58.588,0,97.624-12.46,102.224-21.08c1.485-2.782,4.378-4.523,7.536-4.523h1.195c4.711,0,8.534,3.815,8.534,8.526c0,0,0,0,0,0.009  v29.87c-0.026,2.961-0.811,5.872-2.287,8.44C328.06,502.671,272.254,511.99,221.858,511.99z M119.447,460.673v12.904  c4.788,8.876,43.824,21.336,102.412,21.336s97.624-12.46,102.224-21.08l0.085-13.1c-22.539,11.726-63.99,17.111-102.301,17.111  C183.48,477.853,141.96,472.442,119.447,460.673z"/>
<path d="M332.805,486.387c-4.711,0-8.534-3.815-8.534-8.526c0,0,0,0,0-0.009v-4.267c0-4.711,3.823-8.534,8.534-8.534  c4.711,0,8.534,3.823,8.534,8.534v4.267C341.348,482.564,337.524,486.379,332.805,486.387  C332.813,486.387,332.813,486.387,332.805,486.387z"/>
<ellipse style="fill:#607D8B;" cx="221.858" cy="63.938" rx="93.878" ry="29.87"/>
<ellipse style="fill:#CFD8DC;" cx="204.79" cy="63.938" rx="76.809" ry="29.87"/>
<path d="M221.858,102.342c-44.617,0-93.22-9.891-101.217-32.004c-0.768-2.048-1.169-4.216-1.195-6.401  c0-26.388,53.092-38.404,102.412-38.404S324.27,37.55,324.27,63.938c-0.017,2.202-0.41,4.378-1.178,6.443  C314.78,92.502,266.28,102.342,221.858,102.342z M221.858,42.602c-56.309,0-85.343,14.952-85.343,21.336  c3.243,9.072,35.341,21.336,85.343,21.336c49.84,0,82.015-12.272,85.207-20.755l0.137-0.58  C307.202,57.554,278.168,42.602,221.858,42.602z"/>
<path d="M401.088,85.274c-2.705,0.009-5.257-1.28-6.87-3.456l-45.309-61.242c-2.646-3.678-7.698-4.651-11.53-2.236l-76.297,56.719  c-3.781,2.816-9.132,2.023-11.94-1.758c-2.816-3.781-2.023-9.132,1.758-11.94L327.71,4.291c11.445-7.587,26.823-4.865,34.965,6.196  l45.266,61.174c2.799,3.789,2.006,9.132-1.784,11.94C404.689,84.685,402.914,85.265,401.088,85.274z"/>
<g>
</g>
<g>
</g>
<g>
</g>
<g>
</g>
<g>
</g>
<g>
</g>
<g>
</g>
<g>
</g>
<g>
</g>
<g>
</g>
<g>
</g>
<g>
</g>
<g>
</g>
<g>
</g>
<g>
</g>
</svg>
