<?xml version="1.0" encoding="iso-8859-1"?>
<!-- Generator: Adobe Illustrator 19.0.0, SVG Export Plug-In . SVG Version: 6.00 Build 0)  -->
<svg xmlns="http://www.w3.org/2000/svg" xmlns:xlink="http://www.w3.org/1999/xlink" version="1.1" id="Capa_1" x="0px" y="0px" viewBox="0 0 512 512" style="enable-background:new 0 0 512 512;" xml:space="preserve">
<path style="fill:#FDD834;" d="M392.534,191.403v1.536c0.017,17.135-2.722,34.167-8.107,50.432  c-3.217,2.364-6.613,4.48-10.155,6.315v0.085c-7.612,3.994-15.548,7.339-23.723,9.984c-30.652,9.242-62.541,13.73-94.549,13.312  c-48.811,0-91.989-9.216-118.272-23.296v-0.085c-3.541-1.835-6.938-3.951-10.155-6.315c-5.385-16.265-8.124-33.297-8.107-50.432  v-1.536c0.597-59.221,32.683-128.683,78.848-162.389C214.853,16.179,235.077,9.003,256,8.533  C330.923,8.533,391.766,109.653,392.534,191.403z"/>
<path style="fill:#FFEB3A;" d="M358.4,208.469v1.536c0.009,16.896-2.645,33.681-7.851,49.749  c-30.652,9.242-62.541,13.73-94.549,13.312c-48.811,0-91.989-9.216-118.272-23.296v-0.085c-3.541-1.835-6.938-3.951-10.155-6.315  c-5.385-16.265-8.124-33.297-8.107-50.432v-1.536c0.597-59.221,32.683-128.683,78.848-162.389  c7.646-2.253,15.582-3.396,23.552-3.413C296.79,25.6,357.633,126.72,358.4,208.469z"/>
<path d="M256,281.6c-48.171,0-93.892-9.088-122.308-24.311c-0.324-0.179-0.649-0.375-0.947-0.589  c-3.567-1.911-6.997-4.079-10.257-6.477c-1.408-1.041-2.458-2.5-3.012-4.164c-5.675-17.135-8.559-35.072-8.542-53.12v-1.536  C111.753,104.67,176.632,0,256,0s144.247,104.67,145.067,191.326v1.613c0.017,18.048-2.867,35.985-8.542,53.12  c-0.555,1.664-1.604,3.115-3.012,4.164c-3.268,2.406-6.707,4.574-10.283,6.494c-0.299,0.213-0.606,0.41-0.922,0.58  C349.893,272.512,304.171,281.6,256,281.6z M142.695,242.748c26.129,13.653,68.361,21.786,113.306,21.786  c44.962,0,87.202-8.141,113.323-21.794c0.316-0.23,0.649-0.435,0.99-0.614c2.364-1.229,4.651-2.586,6.861-4.07  c4.54-14.609,6.835-29.815,6.827-45.116v-1.485c-0.751-78.515-59.947-174.387-128-174.387c-68.062,0-127.266,95.906-128,174.413  v1.451c-0.009,15.3,2.287,30.507,6.827,45.116c2.21,1.485,4.497,2.842,6.861,4.07C142.038,242.304,142.371,242.517,142.695,242.748z  "/>
<path style="fill:#6A1B9A;" d="M290.134,370.347v56.32c0,18.85-15.283,34.133-34.133,34.133s-34.133-15.283-34.133-34.133v-56.32  c5.581,1.715,11.29,2.995,17.067,3.84c5.649,0.853,11.358,1.289,17.067,1.28C267.572,375.458,279.075,373.734,290.134,370.347z"/>
<path style="fill:#9D27B0;" d="M256,370.347v56.32c0.026,12.194-6.494,23.458-17.067,29.525  c-10.573-6.067-17.092-17.331-17.067-29.525v-51.2c5.709,0.009,11.418-0.427,17.067-1.28  C244.711,373.342,250.42,372.062,256,370.347z"/>
<path d="M256,469.333c-23.552-0.026-42.641-19.115-42.667-42.667v-56.32c0-4.71,3.823-8.533,8.533-8.533  c0.845,0,1.681,0.128,2.483,0.367c20.634,6.298,42.667,6.298,63.3,0c4.506-1.374,9.276,1.169,10.65,5.683  c0.239,0.802,0.367,1.638,0.367,2.483v56.32C298.642,450.219,279.552,469.308,256,469.333z M230.4,381.338v45.329  c0,14.14,11.46,25.6,25.6,25.6c14.14,0,25.6-11.46,25.6-25.6v-45.329C264.722,384.879,247.288,384.879,230.4,381.338z"/>
<path style="fill:#6A1B9A;" d="M311.296,414.891h-0.085c-6.656-1.365-13.739-2.475-21.077-3.328v15.104  c0,18.85-15.283,34.133-34.133,34.133s-34.133-15.283-34.133-34.133v-15.104c-11.494,1.28-22.878,3.422-34.048,6.4  c-30.976,8.533-51.285,22.613-51.285,38.571c0,11.947,11.435,22.955,30.123,31.147c28.442,11.145,58.812,16.512,89.344,15.787  c65.963,0,119.467-20.992,119.467-46.933C375.467,438.443,349.44,422.741,311.296,414.891z"/>
<path style="fill:#9D27B0;" d="M341.334,446.037c0,25.941-53.504,46.933-119.467,46.933c-18.534,0.102-37.035-1.673-55.211-5.291  c-18.688-8.192-30.123-19.2-30.123-31.147c0-15.957,20.309-30.037,51.285-38.571c11.17-2.978,22.554-5.12,34.048-6.4v15.104  c0,18.85,15.283,34.133,34.133,34.133s34.133-15.283,34.133-34.133v-15.104c7.339,0.853,14.421,1.963,21.077,3.328h0.085  C329.984,423.168,341.334,434.091,341.334,446.037z"/>
<path d="M256,512c-62.046,0-128-19.439-128-55.467c0-25.933,36.454-46.908,92.885-53.444c4.685-0.546,8.917,2.816,9.463,7.492  c0.034,0.324,0.051,0.657,0.051,0.981v15.104c0,14.14,11.46,25.6,25.6,25.6c14.14,0,25.6-11.46,25.6-25.6v-15.104  c0-2.432,1.041-4.753,2.859-6.374c1.809-1.63,4.241-2.398,6.656-2.108c56.431,6.545,92.885,27.52,92.885,53.453  C384,492.561,318.055,512,256,512z M213.334,421.325c-42.94,6.665-68.267,22.605-68.267,35.209c0,18.125,47.445,38.4,110.933,38.4  s110.933-20.275,110.933-38.4c0-12.604-25.327-28.544-68.267-35.209v5.342c0,23.561-19.106,42.667-42.667,42.667  s-42.667-19.106-42.667-42.667V421.325z"/>
<ellipse transform="matrix(-0.3665 0.9304 -0.9304 -0.3665 390.6479 -43.3332)" style="fill:#F5F5F5;" cx="210.076" cy="111.324" rx="55.466" ry="25.6"/>
<path d="M194.373,172.348c-2.662,0.009-5.291-0.495-7.765-1.468c-9.634-3.789-15.42-14.165-16.273-29.201  c-0.367-14.686,2.347-29.286,7.979-42.854c13.372-33.946,37.146-54.178,55.219-47.036c18.108,7.125,21.675,38.11,8.311,72.055l0,0  c-5.137,13.764-13.107,26.291-23.398,36.779C212.207,167.467,203.597,171.665,194.373,172.348z M225.622,67.379  c-7.194,0-21.888,13.5-31.437,37.7c-4.702,11.281-7.023,23.407-6.818,35.618c0.427,7.543,2.586,13.158,5.495,14.293  c2.227,0.879,7.125-0.35,13.773-6.707c8.474-8.798,15.044-19.251,19.311-30.703c10.342-26.249,7.646-47.437,1.323-49.929  C226.748,67.473,226.185,67.379,225.622,67.379z"/>
<path style="fill:#6A1B9A;" d="M398.166,228.779c-11.008,69.547-53.589,125.013-108.032,141.568  c-11.059,3.388-22.562,5.111-34.133,5.12c-6.665,0.009-13.321-0.589-19.883-1.792c-4.821-0.768-9.583-1.877-14.251-3.328  c-46.165-13.995-83.797-56.064-100.864-110.848c-3.106-10.061-5.504-20.326-7.168-30.72c3.413,5.837,8.115,10.829,13.739,14.592  c3.217,2.364,6.613,4.48,10.155,6.315v0.085c30.874,14.31,64.375,22.067,98.389,22.784c6.485,0.341,13.141,0.512,19.883,0.512  c32.256,0.435,64.384-4.139,95.232-13.568c7.936-2.594,15.642-5.845,23.04-9.728v-0.085c3.541-1.835,6.938-3.951,10.155-6.315  C390.051,239.607,394.752,234.615,398.166,228.779z"/>
<path style="fill:#9D27B0;" d="M351.232,259.499c-17.067,54.784-54.699,96.853-100.864,110.848  c-4.668,1.451-9.429,2.56-14.251,3.328c-4.821-0.768-9.583-1.877-14.251-3.328c-46.165-13.995-83.797-56.064-100.864-110.848  c30.848,9.429,62.976,14.003,95.232,13.568c6.741,0,13.397-0.171,19.883-0.512c6.485,0.341,13.141,0.512,19.883,0.512  C288.256,273.502,320.384,268.928,351.232,259.499z"/>
<path d="M256,384c-12.407-0.009-24.747-1.86-36.617-5.495c-57.754-17.562-102.494-75.81-113.971-148.395  c-0.734-4.651,2.441-9.028,7.091-9.762c3.575-0.563,7.117,1.186,8.841,4.369c2.807,4.693,6.639,8.695,11.204,11.716  c2.893,2.133,5.948,4.036,9.139,5.692c0.35,0.188,0.683,0.393,1.007,0.623c26.129,13.653,68.361,21.786,113.306,21.786  c44.962,0,87.202-8.141,113.323-21.794c0.316-0.23,0.649-0.435,0.99-0.614c3.149-1.63,6.161-3.499,9.02-5.598  c4.608-3.038,8.482-7.074,11.324-11.802c2.244-4.147,7.424-5.683,11.563-3.447c3.183,1.724,4.932,5.265,4.369,8.841  c-11.486,72.585-56.226,130.842-113.971,148.395C280.747,382.14,268.408,383.991,256,384z M128.274,254.123  c15.787,53.444,51.678,94.558,96.077,108.058c20.634,6.298,42.667,6.298,63.3,0c44.399-13.5,80.282-54.622,96.077-108.058  c-1.442,0.887-2.935,1.741-4.489,2.586c-0.299,0.213-0.606,0.41-0.922,0.58C349.893,272.512,304.171,281.6,256,281.6  s-93.892-9.088-122.308-24.311c-0.324-0.179-0.649-0.375-0.947-0.589C131.209,255.872,129.724,255.01,128.274,254.123z"/>
<g>
</g>
<g>
</g>
<g>
</g>
<g>
</g>
<g>
</g>
<g>
</g>
<g>
</g>
<g>
</g>
<g>
</g>
<g>
</g>
<g>
</g>
<g>
</g>
<g>
</g>
<g>
</g>
<g>
</g>
</svg>
