<?xml version="1.0" encoding="iso-8859-1"?>
<!-- Generator: Adobe Illustrator 19.0.0, SVG Export Plug-In . SVG Version: 6.00 Build 0)  -->
<svg xmlns="http://www.w3.org/2000/svg" xmlns:xlink="http://www.w3.org/1999/xlink" version="1.1" id="Capa_1" x="0px" y="0px" viewBox="0 0 512.009 512.009" style="enable-background:new 0 0 512.009 512.009;" xml:space="preserve">
<path style="fill:#FFB301;" d="M503.495,180.391c-0.145,31.179-22.547,57.8-53.241,63.277l-8.505,1.531L323.53,266.036l-5.018,0.851  l-113.797,19.987l-14.884,2.637L84.114,308.136c-2.186,0.425-4.406,0.68-6.634,0.765h-0.595c-2.262,0.153-4.533,0.187-6.804,0.085  c-0.595,0.017-1.191-0.017-1.786-0.085c-2.296-0.17-4.593-0.425-6.804-0.765l-2.296-0.51c-0.978-0.179-1.939-0.408-2.892-0.68  c-0.17-0.043-0.349-0.102-0.51-0.17c-1.327-0.306-2.637-0.706-3.912-1.191h-0.085c-1.446-0.51-2.807-1.021-4.167-1.616  c-5.596-2.364-10.818-5.545-15.479-9.441c-1.191-0.936-2.296-1.956-3.402-2.977c-1.106-1.021-2.211-2.126-3.232-3.232  c-8.352-8.99-13.906-20.225-15.989-32.319c-6.294-34.853,16.857-68.201,51.71-74.495c0.17-0.034,0.34-0.06,0.51-0.094l15.989-2.807  l25.005-4.423c-0.425,2.296-0.851,4.508-1.361,6.889c-0.264,0.757-0.493,1.522-0.68,2.296c-1.191,4.508-2.296,8.93-3.147,13.183  l-0.51,2.551c-0.34,1.871-0.68,3.657-0.936,5.358c-0.765,4.338-1.361,8.505-1.701,12.417c-0.17,1.701-0.34,3.317-0.34,4.848  c-0.085,1.021-0.17,2.041-0.17,2.977c-0.51,13.863,1.701,23.389,6.719,24.749c9.015,2.381,23.814-23.219,32.914-57.239  c2.16-8.037,3.895-16.185,5.188-24.409l15.479-2.722l0.765-0.17l35.551-6.209c-0.085,0.425-0.255,0.765-0.34,1.191  c-0.51,1.786-0.936,3.657-1.361,5.443c-0.085,0.255-0.17,0.595-0.255,0.936c-0.34,1.446-0.68,2.892-0.936,4.338  c-0.765,3.232-1.361,6.464-1.871,9.526c-0.34,1.514-0.595,3.053-0.765,4.593c-0.34,2.381-0.68,4.678-0.936,6.974  c-0.255,2.296-0.425,4.508-0.51,6.634c-0.085,1.106-0.17,2.126-0.17,3.062c-0.51,13.863,1.786,23.219,6.719,24.494  c9.1,2.466,23.814-23.048,32.914-57.153c1.531-5.698,2.807-11.142,3.742-16.415l17.265-3.062l26.451-4.678l8.08-1.446l1.871-0.34  c-0.17,0.765-0.34,1.616-0.51,2.466c-0.102,0.272-0.162,0.561-0.17,0.85c-0.085,0.255-0.085,0.425-0.17,0.68  c-0.017,0.179-0.077,0.357-0.17,0.51c-0.085,0.085-0.085,0.085-0.085,0.17c-0.936,3.487-1.786,6.889-2.466,10.206  c-1.446,6.175-2.552,12.417-3.317,18.711c-0.17,1.191-0.34,2.296-0.425,3.402c-0.17,2.126-0.34,4.167-0.51,6.124  c0,0.936-0.085,1.871-0.085,2.807c-0.97,7.578,0.238,15.283,3.487,22.198c0.085,0.085,0.17,0.255,0.255,0.34v0.085  c0.408,0.493,0.868,0.953,1.361,1.361c0.493,0.34,1.038,0.595,1.616,0.765c9.015,2.296,23.814-23.304,32.914-57.324  c1.786-6.804,3.317-13.353,4.338-19.732l17.775-3.147l36.231-6.379c-0.255,1.531-0.595,3.147-0.936,4.763  c-0.255,0.936-0.51,1.786-0.765,2.722c-1.956,7.314-3.487,14.373-4.593,21.092c-0.255,1.276-0.425,2.466-0.595,3.742  c-0.425,2.892-0.765,5.613-1.106,8.335c-0.085,1.786-0.255,3.572-0.34,5.273c-0.085,1.106-0.17,2.126-0.17,3.062  c-0.51,13.863,1.786,23.219,6.719,24.494c9.1,2.466,23.814-23.048,32.914-57.153c2.033-7.476,3.649-15.054,4.848-22.708  l14.629-2.551l6.804-1.191c34.964-6.217,68.346,17.095,74.563,52.059c0.009,0.051,0.017,0.111,0.026,0.162  C503.146,172.762,503.487,176.573,503.495,180.391z"/>
<path style="fill:#FEC108;" d="M468.625,180.391c-0.145,31.179-22.547,57.8-53.241,63.277l-8.505,1.531l-118.219,20.837  l-5.018,0.851l-113.797,19.987l-14.884,2.637l-98.743,17.435c-11.788-3.172-22.436-9.636-30.703-18.626  c-8.352-8.99-13.906-20.225-15.989-32.319c-6.294-34.853,16.857-68.201,51.71-74.495c0.17-0.034,0.34-0.06,0.51-0.094l4.933-0.851  l36.061-6.379c-0.425,2.381-0.851,4.763-1.446,7.229c0,0.085-0.085,0.255-0.085,0.34c-0.221,0.519-0.391,1.063-0.51,1.616  c-1.021,3.742-1.871,7.399-2.637,10.971c-6.464,29.257-5.528,52.901,2.551,55.112c9.015,2.381,23.814-23.219,32.914-57.239  c2.16-8.037,3.895-16.185,5.188-24.409l15.224-2.722l36.571-6.379c-0.085,0.425-0.255,0.765-0.34,1.191  c-0.936,3.657-1.871,7.229-2.551,10.716c-6.464,29.342-5.698,53.241,2.466,55.282c9.1,2.466,23.814-23.049,32.914-57.153  c1.531-5.698,2.807-11.142,3.742-16.415l17.265-3.062l36.401-6.464c-0.17,0.765-0.34,1.616-0.51,2.466  c-0.085,0.255-0.085,0.595-0.17,0.851c-0.085,0.255-0.085,0.425-0.17,0.68c-0.017,0.179-0.077,0.357-0.17,0.51  c0,0.085,0,0.085-0.085,0.17c-0.936,3.487-1.786,6.889-2.466,10.206c-6.634,29.512-5.783,53.496,2.381,55.793  c9.015,2.296,23.814-23.304,32.914-57.324c1.786-6.804,3.317-13.353,4.338-19.732l17.775-3.147l36.231-6.379  c-0.255,1.531-0.595,3.147-0.936,4.763c-0.085,0.459-0.196,0.919-0.34,1.361c-0.179,0.442-0.323,0.893-0.425,1.361  c-0.936,3.657-1.871,7.229-2.552,10.716c-6.464,29.342-5.698,53.241,2.466,55.282c9.1,2.466,23.814-23.048,32.914-57.153  c2.033-7.476,3.649-15.054,4.848-22.708l14.629-2.551c24.078,6.566,42.202,26.451,46.522,51.03  C468.276,172.762,468.616,176.573,468.625,180.391z"/>
<g>
	<path style="fill:#FFB301;" d="M103.421,174.098c-0.765,2.466-1.446,4.763-2.126,7.314c0.595-2.466,1.021-4.848,1.446-7.229   L103.421,174.098z"/>
	<path style="fill:#FFB301;" d="M280.579,142.799c-0.255,0.765-0.425,1.616-0.68,2.466c0.17-0.851,0.34-1.701,0.51-2.466H280.579z"/>
	<path style="fill:#FFB301;" d="M370.987,126.81c-0.51,1.616-1.021,3.232-1.446,4.848c0.34-1.616,0.68-3.232,0.936-4.763   L370.987,126.81z"/>
</g>
<path style="fill:#FEC108;" d="M155.641,158.704c-0.085,0.425-0.255,0.765-0.34,1.191c-0.425,1.701-0.936,3.487-1.361,5.188  l-15.224,2.722c-1.293,8.224-3.028,16.372-5.188,24.409c-9.1,34.02-23.899,59.62-32.914,57.239  c-8.08-2.211-9.015-25.855-2.551-55.112c0.17-0.68,0.425-1.446,0.595-2.126c0.936-3.487,1.786-7.059,2.551-10.461  c0-0.085,0.085-0.255,0.085-0.34c0.595-2.466,1.021-4.848,1.446-7.229c0.425-2.126,0.765-4.338,1.106-6.379L155.641,158.704z"/>
<path id="SVGCleanerId_0" style="fill:#FF9801;" d="M245.709,142.799c-0.425,1.531-0.85,3.062-1.276,4.678  c-0.179,0.587-0.323,1.182-0.425,1.786l-17.265,3.062c-0.936,5.273-2.211,10.716-3.742,16.415  c-9.1,34.105-23.814,59.62-32.914,57.153c-8.165-2.041-8.93-25.94-2.466-55.282c0.17-0.595,0.34-1.276,0.51-1.871  c1.531-5.698,2.807-11.142,3.742-16.415L245.709,142.799z"/>
<g>
	<path style="fill:#FF9801;" d="M138.716,167.804c-1.293,8.224-3.028,16.372-5.188,24.409c-9.1,34.02-23.899,59.62-32.914,57.239   c-9.1-2.466-9.1-32.064,0.085-66.084c0.85-3.232,1.786-6.209,2.722-9.27L138.716,167.804z"/>
	<path style="fill:#FF9801;" d="M316.47,136.421c-1.021,6.379-2.551,12.928-4.338,19.732c-9.1,34.02-23.899,59.62-32.914,57.324   c-9.1-2.551-9.1-31.979,0.085-65.999c0.425-1.616,0.85-3.147,1.276-4.678L316.47,136.421z"/>
	<path style="fill:#FF9801;" d="M406.453,120.516c-1.199,7.654-2.815,15.232-4.848,22.708c-9.1,34.105-23.814,59.62-32.914,57.153   c-9.1-2.296-9.015-31.979,0.085-65.999c0.68-2.551,1.446-5.018,2.211-7.569L406.453,120.516z"/>
</g>
<g>
	<path id="SVGCleanerId_0_1_" style="fill:#FF9801;" d="M245.709,142.799c-0.425,1.531-0.85,3.062-1.276,4.678   c-0.179,0.587-0.323,1.182-0.425,1.786l-17.265,3.062c-0.936,5.273-2.211,10.716-3.742,16.415   c-9.1,34.105-23.814,59.62-32.914,57.153c-8.165-2.041-8.93-25.94-2.466-55.282c0.17-0.595,0.34-1.276,0.51-1.871   c1.531-5.698,2.807-11.142,3.742-16.415L245.709,142.799z"/>
</g>
<g>
	<path style="fill:#FF9801;" d="M336.117,126.81c-0.68,2.211-1.276,4.338-1.871,6.464l-17.775,3.147   c-1.021,6.379-2.551,12.928-4.338,19.732c-9.1,34.02-23.899,59.62-32.914,57.324c-8.165-2.296-9.015-26.28-2.381-55.793   c0.17-0.51,0.255-1.021,0.425-1.531c0.765-2.892,1.531-5.868,2.041-8.675c0.085-0.085,0.085-0.085,0.085-0.17   c0.094-0.153,0.153-0.332,0.17-0.51c0.085-0.255,0.085-0.425,0.17-0.68c0.085-0.255,0.085-0.595,0.17-0.85   c0.17-0.851,0.34-1.701,0.51-2.466c0.425-2.126,0.85-4.252,1.191-6.379L336.117,126.81z"/>
	<path style="fill:#FF9801;" d="M421.082,117.965l-14.629,2.551c-1.199,7.654-2.815,15.232-4.848,22.708   c-9.1,34.105-23.814,59.62-32.914,57.153c-8.165-2.041-8.93-25.94-2.466-55.282c0.17-0.595,0.34-1.276,0.51-1.871   c0.936-3.487,1.786-6.889,2.466-10.206c0.145-0.442,0.255-0.902,0.34-1.361c0.34-1.616,0.68-3.232,0.936-4.763   c0.425-2.126,0.765-4.252,1.106-6.379l21.433-3.742C402.345,115.116,411.93,115.524,421.082,117.965z"/>
</g>
<path d="M72.93,317.551c-1.046,0-2.126-0.017-3.189-0.068c-0.902,0.051-1.803-0.008-2.688-0.17c-1.905-0.111-4.431-0.4-6.864-0.774  l-2.841-0.612c-0.868-0.136-2.075-0.442-3.274-0.765c-0.187-0.051-0.434-0.128-0.689-0.221c-1.344-0.323-2.671-0.723-3.972-1.191  c-0.153-0.043-0.298-0.094-0.442-0.145c-1.65-0.578-3.189-1.165-4.737-1.846c-6.345-2.688-12.256-6.302-17.546-10.716  c-1.131-0.876-2.381-2.016-3.623-3.164c-1.361-1.25-2.637-2.526-3.81-3.802C6.906,280.597,0.043,262.983,0,244.689  c0.017-35.355,25.438-65.582,60.266-71.654l40.994-7.229c0.153-0.026,0.987-0.128,1.131-0.153c4.661-0.57,8.905,2.747,9.475,7.408  c0.145,1.157,0.043,2.33-0.289,3.445l-0.655,2.169c-0.451,1.463-0.91,2.943-1.293,4.457c-0.349,1.123-0.519,1.582-0.612,2.033  c-1.233,4.703-2.305,8.947-3.113,13.038l-0.663,3.376c-0.264,1.429-0.519,2.807-0.714,4.125c-0.757,4.304-1.327,8.224-1.641,11.898  c-0.17,1.684-0.306,2.926-0.306,4.108c-0.102,1.573-0.17,2.305-0.17,2.977c-0.323,4.899-0.009,9.815,0.936,14.629  c10.708-14.714,18.192-31.519,21.977-49.312c2.084-7.748,3.759-15.607,5.001-23.542c0.57-3.589,3.351-6.421,6.932-7.051l51.804-9.1  c4.627-0.808,9.032,2.288,9.84,6.915c0.179,1.029,0.17,2.075-0.034,3.096c-0.068,0.357-0.34,1.31-0.451,1.65  c-0.459,1.65-0.808,3.13-1.148,4.567c-0.06,0.264-0.306,1.25-0.391,1.505c-0.366,1.582-0.655,2.807-0.876,4.04  c-0.816,3.504-1.378,6.54-1.846,9.424c-0.306,1.369-0.544,2.756-0.706,4.142l-0.153,1.123c-0.289,1.982-0.561,3.912-0.774,5.843  c-0.238,2.101-0.391,4.108-0.468,6.047c-0.094,1.259-0.162,2.016-0.162,2.713c-0.323,4.839,0,9.704,0.953,14.467  c10.725-14.697,18.209-31.511,21.96-49.312c1.599-5.945,2.764-11.073,3.581-15.709c0.621-3.513,3.376-6.268,6.889-6.898  l53.632-9.517c3.257-0.57,6.549,0.748,8.513,3.402c1.624,2.211,2.084,5.069,1.242,7.68l-0.493,1.829  c-0.094,0.612-0.247,1.216-0.468,1.795c-0.043,0.162-0.094,0.332-0.145,0.502l-0.008,0.051c-0.893,3.308-1.701,6.549-2.347,9.704  c-1.395,5.936-2.466,11.941-3.198,17.997c-0.213,1.488-0.332,2.288-0.391,3.079l-0.604,8.284c-0.357,4.882-0.043,9.789,0.936,14.578  c10.699-14.731,18.184-31.545,21.977-49.354c2.007-7.663,3.291-13.489,4.15-18.873c0.57-3.581,3.351-6.404,6.915-7.034l54.015-9.526  c2.994-0.519,6.056,0.502,8.131,2.73c2.033,2.177,2.773,5.256,1.965,8.131c-0.468,1.48-0.944,2.96-1.327,4.44l-0.791,2.824  c-1.846,6.923-3.334,13.744-4.406,20.225c-0.272,1.369-0.408,2.381-0.553,3.479c-0.425,2.943-0.765,5.605-1.097,8.267l-0.289,4.652  c-0.085,1.174-0.162,1.931-0.162,2.628c-0.323,4.839,0,9.704,0.953,14.467c10.725-14.697,18.209-31.511,21.96-49.312  c1.948-7.178,3.504-14.467,4.661-21.815c0.553-3.606,3.351-6.455,6.94-7.085l21.424-3.734c39.599-7.025,77.395,19.383,84.42,58.982  c0.009,0.051,0.017,0.102,0.026,0.145c0.748,4.244,1.123,8.548,1.14,12.86c-0.145,35.296-25.489,65.437-60.232,71.646l-8.505,1.539  L85.586,316.522c-2.569,0.493-5.171,0.791-7.791,0.884c-0.111,0-0.808,0-0.91,0C75.737,317.509,74.368,317.551,72.93,317.551z   M58.693,298.781c0.621,0.187,1.259,0.34,1.905,0.459l2.739,0.595c1.437,0.204,3.504,0.434,5.571,0.578  c0.111,0,1.395,0.068,1.505,0.077c1.939,0.094,3.887,0.068,5.826-0.068c0.213-0.017,1.021-0.025,1.242-0.025  c1.684-0.085,3.368-0.289,5.018-0.612l366.242-64.493c26.646-4.737,46.106-27.837,46.25-54.908  c-0.008-3.334-0.306-6.668-0.885-9.951c-5.333-30.354-34.267-50.639-64.621-45.306c-0.034,0.009-0.068,0.009-0.102,0.017  l-15.539,2.713c-1.063,5.698-2.398,11.592-4.014,17.571c-6.549,24.511-18.405,53.513-32.047,61.38  c-3.368,2.118-7.459,2.756-11.312,1.769c-9.304-2.407-13.71-13.523-12.996-33.016c0-0.799,0.077-1.99,0.179-3.291l0.332-5.146  c0.408-3.419,0.748-6.2,1.191-9.151c0.179-1.352,0.374-2.705,0.663-4.167c0.85-5.137,1.973-10.64,3.359-16.296l-35.406,6.243  c-0.859,4.287-1.965,8.981-3.427,14.544c-1.922,7.161-19.357,69.52-43.239,63.413c-1.505-0.408-2.934-1.063-4.235-1.931  c-1.165-0.876-2.22-1.871-3.164-2.977c-0.332-0.4-0.629-0.825-0.885-1.267c-4.295-8.369-5.988-17.826-4.839-27.165l0.077-2.458  c0-0.238,0.043-0.91,0.068-1.157l0.468-5.63c0.094-1.157,0.255-2.305,0.425-3.53c0.808-6.668,1.982-13.293,3.513-19.842  c0.153-0.748,0.315-1.514,0.493-2.296l-35.083,6.209c-0.748,3.487-1.658,7.212-2.747,11.261  c-6.549,24.52-18.405,53.522-32.047,61.389c-3.368,2.118-7.459,2.756-11.312,1.769c-9.304-2.407-13.71-13.523-12.996-33.016  c0-0.799,0.077-1.99,0.179-3.291c0.085-2.126,0.264-4.533,0.544-7.042c0.23-2.101,0.536-4.21,0.842-6.379l0.128-0.851  c0.204-1.761,0.493-3.504,0.885-5.239c0.417-2.611,1.004-5.775,1.744-8.973l-33.093,5.817c-1.199,6.54-2.662,13.004-4.355,19.306  c-1.905,7.119-19.298,69.545-43.299,63.243c-9.398-2.551-13.77-13.744-13.047-33.288c0-0.791,0.085-1.999,0.179-3.206  c-0.017-1.182,0.153-2.994,0.34-4.89c0.357-4.108,0.953-8.411,1.812-13.31c0.187-1.267,0.476-2.832,0.774-4.457l0.706-3.64  c0.655-3.266,1.446-6.634,2.322-10.07l-28.322,4.975c-30.278,5.197-50.605,33.952-45.408,64.23c0.026,0.162,0.06,0.332,0.085,0.493  c1.803,10.478,6.617,20.208,13.838,28.007c0.893,0.978,1.829,1.914,2.773,2.781c0.995,0.91,1.897,1.761,2.883,2.534  c4.074,3.428,8.641,6.226,13.548,8.309c1.08,0.468,2.109,0.868,3.181,1.242c0.315,0.085,0.621,0.179,0.919,0.306  c0.91,0.34,1.837,0.612,2.79,0.825C58.123,298.594,58.412,298.679,58.693,298.781L58.693,298.781z"/>
<g>
	<path style="fill:#795548;" d="M502.645,257.361c-9.372,17.172-26.059,29.13-45.332,32.489l-27.726,4.933   c13.098-7.314,21.433-17.69,21.433-29.342c-0.221-7.723-3.572-15.028-9.27-20.242l8.505-1.531   c13.94-2.466,26.672-9.458,36.231-19.902c8.318,9.015,13.872,20.233,15.989,32.319   C502.576,256.511,502.628,256.936,502.645,257.361z"/>
	<path style="fill:#795548;" d="M114.477,350.321l-23.304,4.082c-34.998,6.192-68.38-17.155-74.58-52.153   c0-0.026-0.009-0.043-0.009-0.068c-0.102-0.391-0.153-0.791-0.17-1.191c2.475-4.593,5.537-8.854,9.1-12.672   c13.098,14.322,32.004,21.892,51.37,20.582h0.085v2.892c-0.102,0.876-0.162,1.752-0.17,2.637   C76.8,330.419,92.279,344.197,114.477,350.321z"/>
</g>
<path d="M429.578,303.288c-4.695-0.009-8.496-3.819-8.496-8.513c0.009-3.079,1.667-5.911,4.355-7.416  c9.177-3.759,15.666-12.103,17.069-21.917c-0.238-5.469-2.688-10.597-6.778-14.229c-3.325-3.325-3.317-8.709,0.008-12.035  c1.225-1.225,2.79-2.041,4.499-2.356l8.505-1.531c12.111-2.126,23.168-8.199,31.468-17.274c1.531-1.871,3.861-2.9,6.268-2.764  c2.373,0,4.644,0.995,6.251,2.739c9.415,10.214,15.709,22.912,18.116,36.597c0.187,0.91,0.289,1.837,0.298,2.764  c0,1.429-0.357,2.841-1.046,4.091c-10.597,19.451-29.504,32.991-51.328,36.767l-27.701,4.933  C430.582,303.246,430.08,303.297,429.578,303.288z M456.267,251.085c2.135,4.491,3.249,9.39,3.257,14.356  c-0.034,5.639-1.471,11.176-4.176,16.125l0.485-0.085c15.751-2.722,29.563-12.094,37.915-25.719  c-1.471-6.923-4.235-13.506-8.148-19.408C477.07,243.439,467.043,248.482,456.267,251.085z"/>
<path style="fill:#795548;" d="M193.488,336.373c6.6-5.418,10.563-13.404,10.886-21.943c-0.57-10.138-5.988-19.374-14.544-24.835  v-0.085l14.884-2.637v0.085c-0.247,1.318-0.357,2.654-0.34,3.997c0,16.5,16.585,30.618,40.144,36.401L193.488,336.373z"/>
<path d="M193.488,344.886c-4.695,0-8.505-3.819-8.496-8.513c0-2.39,1.004-4.661,2.764-6.268c4.831-3.81,7.791-9.517,8.122-15.666  c-0.638-7.416-4.754-14.093-11.09-17.988c-2.169-1.607-3.453-4.142-3.453-6.847c0-4.142,2.951-7.706,7.025-8.462l14.884-2.637  c4.627-0.816,9.041,2.271,9.857,6.898c0.085,0.485,0.128,0.978,0.128,1.48c0,0.587-0.051,1.165-0.162,1.744  c-0.136,0.774-0.196,1.556-0.179,2.339c0,11.89,13.531,23.202,33.663,28.143c4.559,1.114,7.357,5.724,6.234,10.283  c-0.799,3.274-3.462,5.766-6.787,6.353l-51.03,9.015C194.475,344.844,193.982,344.886,193.488,344.886z M212.148,321.395  c-0.23,1.072-0.519,2.143-0.851,3.198l4.15-0.731C214.3,323.062,213.203,322.237,212.148,321.395z"/>
<path style="fill:#FF9801;" d="M503.495,267.397c-0.06,31.213-22.504,57.876-53.241,63.277l-366.14,64.553  c-35.16,6.081-68.584-17.495-74.665-52.654c-0.621-3.589-0.936-7.229-0.944-10.878c0-10.733,2.722-21.297,7.91-30.703  c0.017,0.4,0.068,0.799,0.17,1.191c6.158,34.998,39.514,58.387,74.521,52.229c0.026,0,0.043-0.009,0.068-0.009l23.304-4.082h0.085  c8.479,2.305,17.24,3.453,26.025,3.402c19.145,0.74,37.915-5.418,52.901-17.35l51.03-9.015c7.74,1.871,15.683,2.815,23.644,2.807  c18.413,0.612,36.486-5.026,51.285-15.989l57.068-10.121h0.17c3.496,0.417,7.025,0.612,10.546,0.595  c14.688,0.23,29.206-3.155,42.27-9.866h0.085l27.726-4.933c19.272-3.359,35.959-15.317,45.332-32.489  C503.223,260.678,503.504,264.038,503.495,267.397z"/>
<path d="M72.871,404.727C32.651,404.753,0.026,372.162,0,331.942c-0.009-12.256,3.079-24.307,8.964-35.049  c2.271-4.116,7.442-5.613,11.558-3.342c2.713,1.497,4.397,4.346,4.397,7.45c5.571,30.244,34.479,50.341,64.774,45.034l23.321-4.082  c1.276-0.23,2.594-0.162,3.844,0.187c7.731,2.101,15.717,3.147,23.737,3.087c17.018,0.723,33.748-4.644,47.169-15.13  c1.191-1.08,2.662-1.812,4.252-2.092l51.03-9.015c1.157-0.204,2.347-0.17,3.496,0.111c24.044,5.885,52.62,0.893,67.47-11.456  c1.14-0.944,2.5-1.582,3.955-1.837l57.068-10.121c0.902-0.136,1.812-0.162,2.722-0.06c3.147,0.374,6.319,0.544,9.483,0.527  c13.259,0.221,26.382-2.807,38.204-8.828c0.953-0.519,1.999-0.85,3.07-0.978l27.318-4.856c16.738-2.9,31.239-13.285,39.361-28.211  c2.262-4.116,7.433-5.622,11.558-3.359c2.262,1.242,3.836,3.445,4.287,5.979c0.663,3.802,0.987,7.654,0.97,11.507  c0.043,35.381-25.413,65.641-60.283,71.655L85.603,403.613C81.393,404.353,77.132,404.727,72.871,404.727z M17.146,327.91  c-0.094,1.259-0.136,2.517-0.136,3.785c-0.06,30.873,24.928,55.954,55.801,56.005c3.291,0.008,6.583-0.281,9.823-0.85  l366.139-64.553c21.203-3.649,38.4-19.196,44.175-39.914c-9.798,8.207-21.586,13.667-34.182,15.845l-26.502,4.72  c-13.999,6.898-29.427,10.393-45.034,10.206c-3.47,0.017-6.949-0.153-10.402-0.519l-53.777,9.543  c-16.049,11.252-35.304,17.035-54.9,16.491c-8.037,0.008-16.049-0.876-23.89-2.628l-46.99,8.301  c-16.355,12.162-36.325,18.464-56.694,17.894c-8.913,0.043-17.801-1.038-26.442-3.215l-21.501,3.768  C62.665,368.045,32.566,354.148,17.146,327.91z"/>
<path d="M79.921,363.903c-35.33-0.094-65.522-25.455-71.714-60.232c-0.196-0.876-0.298-1.778-0.298-2.679  c0-1.403,0.349-2.79,1.012-4.023c2.824-5.239,6.302-10.104,10.368-14.45c1.616-1.727,3.87-2.705,6.226-2.705h0.026  c2.364,0.009,4.627,1.004,6.226,2.747c11.337,12.434,27.743,19.009,44.532,17.86c2.364-0.145,4.686,0.672,6.43,2.271  c1.735,1.607,2.73,3.853,2.747,6.217v2.892c0,0.289-0.017,0.578-0.043,0.868c-0.077,0.587-0.111,1.174-0.128,1.769  c0,11.38,12.63,22.504,31.426,27.692c4.525,1.242,7.187,5.928,5.945,10.453c-0.876,3.172-3.496,5.554-6.736,6.124l-23.304,4.082  C88.443,363.529,84.191,363.903,79.921,363.903z M25.251,302.676c6.107,28.245,32.685,47.211,61.38,43.809  c-9.942-6.617-16.568-17.18-18.192-29.01c-15.437-0.859-30.184-6.685-42.04-16.602C26,301.468,25.617,302.064,25.251,302.676z"/>
<path style="fill:#795548;" d="M376.516,304.054l-57.068,10.121c7.459-5.46,12.052-13.991,12.502-23.219  c-0.026-2.475-0.391-4.941-1.106-7.314C343.014,295.872,359.293,303.144,376.516,304.054z"/>
<path d="M319.447,322.68c-4.695,0-8.505-3.81-8.496-8.513c0-2.534,1.131-4.941,3.087-6.549c5.435-3.904,8.871-9.993,9.415-16.661  c-0.025-1.684-0.289-3.359-0.782-4.967c-1.293-4.516,1.318-9.228,5.834-10.521c3.215-0.919,6.668,0.128,8.828,2.671  c10.767,10.521,25.022,16.729,40.05,17.452c4.669,0.476,8.071,4.652,7.595,9.321c-0.383,3.785-3.232,6.847-6.974,7.51  l-57.068,10.121C320.442,322.637,319.94,322.68,319.447,322.68z M338.839,301.103c-0.119,0.357-0.238,0.706-0.366,1.063l1.693-0.298  C339.723,301.613,339.281,301.358,338.839,301.103L338.839,301.103z"/>
<g>
	<path style="fill:#C52828;" d="M204.375,314.43c-0.323,8.539-4.287,16.525-10.886,21.943c-14.986,11.932-33.756,18.09-52.901,17.35   c-8.786,0.051-17.546-1.097-26.025-3.402h-0.085c-11.89-2.756-22.64-9.109-30.788-18.201c-0.043,0-0.085-0.034-0.085-0.085l0,0   c-4.261-4.89-6.668-11.125-6.804-17.605c0.009-0.885,0.068-1.761,0.17-2.637v-2.892h0.51c2.228-0.085,4.448-0.34,6.634-0.765   l101.039-17.775l4.678-0.85v0.085c0.51,0.425,1.021,0.765,1.531,1.191v0.085c3.963,3.002,7.263,6.795,9.696,11.142   C203.193,305.806,204.332,310.084,204.375,314.43z"/>
	<path style="fill:#C52828;" d="M331.949,290.956c-0.451,9.228-5.043,17.758-12.502,23.219   c-14.799,10.963-32.872,16.602-51.285,15.989c-7.961,0.009-15.904-0.936-23.644-2.807c-12.902-2.594-24.639-9.245-33.51-18.966   c-4.176-4.865-6.515-11.031-6.634-17.435c-0.017-1.344,0.094-2.679,0.34-3.997v-0.085l108.524-19.051l5.273-0.936l5.018-0.85   c-0.008,2.254,0.34,4.491,1.021,6.634c2.807,3.028,4.924,6.625,6.209,10.546v0.085c0.085,0.085,0.085,0.085,0.085,0.17v0.17   C331.558,286.015,331.932,288.481,331.949,290.956z"/>
	<path style="fill:#C52828;" d="M451.019,265.441c0,11.652-8.335,22.028-21.433,29.342h-0.085   c-13.064,6.71-27.582,10.095-42.27,9.866c-3.521,0.017-7.051-0.179-10.546-0.595h-0.17c-17.231-0.91-33.501-8.182-45.672-20.412   v-0.17c0-0.085,0-0.085-0.085-0.17v-0.085c-1.284-3.921-3.402-7.518-6.209-10.546c-0.68-2.143-1.029-4.38-1.021-6.634   l110.31-19.476l7.91-1.361C447.447,250.421,450.798,257.719,451.019,265.441z"/>
</g>
<g>
	<path style="fill:#F44335;" d="M187.96,301.757c-0.323,8.539-4.287,16.525-10.886,21.943c-14.986,11.932-33.756,18.09-52.901,17.35   c-8.786,0.051-17.546-1.097-26.025-3.402h-0.085c-4.958-1.361-9.781-3.215-14.373-5.528c-0.043,0-0.085-0.034-0.085-0.085l0,0   c-4.261-4.89-6.668-11.125-6.804-17.605c0.009-0.885,0.068-1.761,0.17-2.637v-2.892h0.51c2.228-0.085,4.448-0.34,6.634-0.765   l101.039-17.775C187.008,293.873,187.969,297.786,187.96,301.757z"/>
	<path style="fill:#F44335;" d="M201.058,302.013c-3.946-3.028-7.246-6.813-9.696-11.142   C195.325,293.882,198.625,297.675,201.058,302.013z"/>
	<path style="fill:#F44335;" d="M315.535,278.284c-0.451,9.228-5.043,17.758-12.502,23.219   c-14.799,10.963-32.872,16.602-51.285,15.989c-7.961,0.008-15.904-0.936-23.644-2.807c-5.936-1.395-11.677-3.513-17.095-6.294   c-4.176-4.865-6.515-11.031-6.634-17.435c-0.017-1.344,0.094-2.679,0.34-3.997v-0.085l108.524-19.051   c0.425,0.936,0.765,1.871,1.106,2.807c0.085,0.085,0.085,0.085,0.085,0.17v0.17C315.144,273.342,315.518,275.809,315.535,278.284z"/>
	<path style="fill:#F44335;" d="M434.605,252.769c0,11.652-8.335,22.028-21.433,29.342h-0.085   c-13.064,6.71-27.582,10.095-42.27,9.866c-3.521,0.017-7.042-0.179-10.546-0.595h-0.17c-10.18-0.936-20.114-3.674-29.342-8.08   v-0.085c-6.226-2.917-11.779-7.093-16.33-12.247v-0.17c0-0.085,0-0.085-0.085-0.17c-0.34-0.936-0.68-1.871-1.106-2.807l5.273-0.936   l5.018-0.85l110.31-19.476C434.349,248.593,434.605,250.676,434.605,252.769z"/>
</g>
<path d="M140.587,362.236c-9.389,0.051-18.736-1.157-27.811-3.581c-0.187-0.034-0.383-0.085-0.561-0.136  c-26.68-7.357-43.92-24.664-43.92-44.09c0-1.08,0.077-2.075,0.17-3.062v-2.466c0-4.695,3.81-8.505,8.505-8.505  c1.854-0.051,3.708-0.255,5.528-0.612l105.853-18.651c2.475-0.425,5.018,0.255,6.94,1.863c0.162,0.145,0.323,0.281,0.476,0.434  c10.283,7.051,16.619,18.549,17.112,31.009c-0.298,10.929-5.265,21.211-13.65,28.22C182.653,355.985,161.85,362.934,140.587,362.236  z M116.272,341.994c0.196,0.043,0.391,0.085,0.578,0.145c7.731,2.101,15.717,3.147,23.737,3.087  c17.018,0.723,33.748-4.644,47.169-15.13c4.822-3.81,7.782-9.517,8.114-15.658c-0.4-6.26-3.479-12.035-8.445-15.862L85.586,316.514  l-0.136,0.025C86.878,327.068,98.887,337.087,116.272,341.994z"/>
<path d="M76.979,320.298c-0.247,0-0.51-0.008-0.757-0.034c-4.678-0.417-8.131-4.542-7.723-9.219  c0.128-1.497,0.408-2.968,0.833-4.406c1.301-4.516,6.022-7.11,10.529-5.809c4.516,1.301,7.11,6.022,5.809,10.529  c-0.017,0.051-0.026,0.102-0.043,0.153c-0.094,0.34-0.153,0.68-0.179,1.038C85.05,316.93,81.384,320.298,76.979,320.298z"/>
<path d="M268.162,338.669c-8.65,0.008-17.265-1.012-25.668-3.045c-28.33-6.957-46.624-24.486-46.624-44.668  c-0.017-1.829,0.145-3.657,0.459-5.46c0.604-3.555,3.368-6.353,6.915-7l118.874-20.846c2.466-0.434,5.001,0.264,6.906,1.888  c1.914,1.616,3.011,3.989,3.011,6.498c0,0.867,0.077,1.743,0.247,2.594c2.849,3.47,5.043,7.433,6.455,11.694  c0.213,0.536,0.374,1.097,0.476,1.667c0.808,2.917,1.225,5.928,1.242,8.956c-0.442,11.771-6.175,22.708-15.59,29.776  C308.552,332.979,288.557,339.307,268.162,338.669z M213.177,294.026c2.092,10.733,14.969,20.557,33.365,25.081  c24.018,5.868,52.612,0.885,67.462-11.465c5.443-3.904,8.896-10.002,9.441-16.678c-0.026-1.684-0.289-3.359-0.782-4.967  l-0.102-0.374c-0.936-2.696-2.415-5.171-4.355-7.263c-0.655-0.731-1.182-1.573-1.556-2.492L213.177,294.026z"/>
<path d="M387.232,313.154c-3.742,0.017-7.493-0.179-11.21-0.612c-0.136-0.008-0.264-0.017-0.374-0.025  c-19.425-1.072-37.737-9.407-51.294-23.372c-0.868-1.021-1.48-2.237-1.786-3.547c-0.936-2.696-2.415-5.171-4.355-7.263  c-0.799-0.885-1.395-1.939-1.761-3.07c-0.953-2.985-1.437-6.098-1.429-9.228c0-4.125,2.96-7.654,7.025-8.377l118.219-20.837  c2.73-0.485,5.528,0.4,7.493,2.364c7.306,6.804,11.541,16.279,11.762,26.255c0,14.22-9.398,27.624-25.787,36.767  c-0.281,0.153-0.561,0.298-0.859,0.417C418.726,309.744,403.068,313.35,387.232,313.154z M377.102,295.566  c0.23,0.008,0.459,0.026,0.646,0.051c3.147,0.374,6.319,0.544,9.483,0.527c13.259,0.221,26.382-2.807,38.204-8.828  c0.204-0.111,0.417-0.213,0.621-0.315c8.888-3.802,15.139-11.984,16.457-21.569c-0.077-4.014-1.48-7.893-3.997-11.031  L335.13,272.628c1.318,2.118,2.415,4.363,3.266,6.71C349.07,289,362.729,294.732,377.102,295.566z"/>
<path d="M101.856,258.127c-1.148,0-2.296-0.153-3.41-0.451c-24.103-6.54-7.884-69.384-5.953-76.528  c0.731-2.807,1.556-5.486,2.381-8.182l0.417-1.352c0.936-3.053,3.496-5.324,6.642-5.885l35.296-6.294  c4.627-0.825,9.041,2.254,9.866,6.881c0.17,0.936,0.179,1.888,0.026,2.815c-1.335,8.522-3.138,16.967-5.375,25.302  C139.932,201.212,124.037,258.127,101.856,258.127z M110.037,181.556c-0.383,1.293-0.757,2.611-1.114,3.963  c-5.698,17.35-7.62,35.721-5.656,53.871c10.75-14.722,18.26-31.545,22.036-49.38c1.038-3.836,1.973-7.74,2.815-11.686  L110.037,181.556z"/>
<path d="M191.345,234.56c-1.174,0-2.347-0.153-3.487-0.459c-3.759-1.046-6.932-3.581-8.777-7.025  c-7.961-13.548-3.428-45.842,2.866-69.384c0.043-0.17,0.264-0.919,0.315-1.08c0.663-3.334,3.393-5.868,6.761-6.285l36.231-6.379  c4.627-0.816,9.041,2.279,9.849,6.906c0.17,0.978,0.17,1.973,0,2.951c-0.91,5.12-2.186,10.725-3.904,17.138  c-6.549,24.52-18.405,53.522-32.047,61.389C196.805,233.76,194.109,234.526,191.345,234.56z M197.341,166.137  c-4.899,16.108-6.455,33.05-4.576,49.788c10.767-14.705,18.277-31.536,22.019-49.371c0.34-1.25,0.655-2.466,0.953-3.649  L197.341,166.137z"/>
<path d="M280.409,222.134c-1.114,0-2.22-0.136-3.291-0.417c-24.103-6.753-7.944-69.341-6.022-76.46l1.293-4.754  c0.885-3.147,3.487-5.511,6.71-6.081l35.891-6.379c4.627-0.825,9.041,2.262,9.857,6.881c0.17,0.936,0.179,1.897,0.026,2.832  c-1.157,6.923-2.662,13.778-4.508,20.548C318.537,165.142,302.616,222.134,280.409,222.134z M287.375,150.233  c-5.571,17.129-7.45,35.245-5.494,53.148c10.742-14.739,18.26-31.579,22.045-49.422c0.655-2.5,1.233-4.814,1.752-6.974  L287.375,150.233z"/>
<path d="M369.95,209.045c-1.174,0-2.347-0.153-3.487-0.459c-3.759-1.046-6.932-3.581-8.777-7.025  c-7.961-13.548-3.428-45.842,2.866-69.384c0.561-2.118,1.182-4.184,1.812-6.277l0.468-1.539c0.919-3.079,3.496-5.367,6.659-5.928  l35.466-6.294c2.705-0.502,5.477,0.357,7.433,2.288c1.956,1.922,2.875,4.669,2.458,7.382c-1.25,7.961-2.934,15.845-5.043,23.627  c-6.549,24.511-18.405,53.513-32.047,61.38C375.41,208.245,372.714,209.011,369.95,209.045z M377.638,134.269  c-0.221,0.765-0.434,1.531-0.646,2.305c-5.639,17.35-7.561,35.695-5.622,53.837c10.767-14.705,18.277-31.536,22.019-49.371  c0.91-3.376,1.727-6.71,2.449-9.993L377.638,134.269z"/>
<g>
</g>
<g>
</g>
<g>
</g>
<g>
</g>
<g>
</g>
<g>
</g>
<g>
</g>
<g>
</g>
<g>
</g>
<g>
</g>
<g>
</g>
<g>
</g>
<g>
</g>
<g>
</g>
<g>
</g>
</svg>
