<?xml version="1.0" encoding="iso-8859-1"?>
<!-- Generator: Adobe Illustrator 19.0.0, SVG Export Plug-In . SVG Version: 6.00 Build 0)  -->
<svg xmlns="http://www.w3.org/2000/svg" xmlns:xlink="http://www.w3.org/1999/xlink" version="1.1" id="Capa_1" x="0px" y="0px" viewBox="0 0 512.005 512.005" style="enable-background:new 0 0 512.005 512.005;" xml:space="preserve">
<g>
	<path style="fill:#FFB301;" d="M503.47,151.145c0,9.19-1.536,18.321-4.523,27.008c-4.267,1.681-8.704,3.354-13.141,4.949   c-61.525,21.897-141.824,35.149-229.803,35.149c-5.461,0-11.008-0.085-16.384-0.171h-1.365   c-72.081-0.478-143.642-12.288-212.053-34.978c-4.437-1.596-8.875-3.268-13.141-4.949c-2.987-8.687-4.514-17.818-4.523-27.008   c0-75.494,101.632-137.242,230.4-142.268c5.632-0.256,11.349-0.341,17.067-0.341C392.707,8.536,503.47,72.373,503.47,151.145z"/>
	<path style="fill:#FFB301;" d="M503.47,404.738c0,54.528-110.763,98.731-247.467,98.731c-5.717,0-11.435-0.085-17.067-0.256   c-122.88-3.345-221.013-42.445-229.717-91.349c-0.444-2.347-0.666-4.736-0.683-7.125c-0.017-0.649,0.017-1.289,0.085-1.929   c4.779,1.34,9.557,2.688,14.507,3.942c15.787,4.275,32.427,8.141,49.92,11.58l1.28-0.751c11.008,14.208,27.221,23.45,45.056,25.668   c17.51,3.123,35.55,1.382,52.139-5.035c3.593-1.476,7.074-3.217,10.411-5.197c6.315,0.589,12.715,1.092,19.2,1.51h0.085   c10.709,9.139,23.782,15.07,37.717,17.109c5.632,1.024,11.341,1.527,17.067,1.51c17.946,0.41,35.558-4.847,50.347-15.019   c1.536-1.092,2.901-2.261,4.267-3.439c6.656-0.418,13.312-0.836,19.797-1.51c8.619,5.001,18.074,8.414,27.904,10.069   c5.658,1.024,11.401,1.527,17.152,1.51c28.843,0,53.504-12.083,63.488-29.193c10.325-2.014,20.395-4.198,30.123-6.545   c6.485-1.51,12.8-3.106,19.029-4.779c5.12-1.34,10.155-2.688,15.019-4.113C503.376,401.649,503.487,403.194,503.47,404.738z"/>
</g>
<g>
	<path style="fill:#FEC108;" d="M469.337,151.145c0,9.19-1.536,18.321-4.523,27.008c-4.267,1.681-8.704,3.354-13.141,4.949   C383.244,205.758,311.7,217.56,239.619,218.08h-1.365c-72.081-0.478-143.642-12.288-212.053-34.978   c-4.437-1.596-8.875-3.268-13.141-4.949c-2.987-8.687-4.514-17.818-4.523-27.008c0-75.494,101.632-137.242,230.4-142.268   C367.705,13.903,469.337,75.65,469.337,151.145z"/>
	<path style="fill:#FEC108;" d="M469.081,409.013c-5.291,50.253-104.875,90.854-230.144,94.208   c-122.88-3.354-221.013-42.453-229.717-91.358c9.643,2.347,19.541,4.446,29.696,6.46l1.28-0.751   c10.667,16.026,34.475,27.179,62.208,27.179c5.692,0.017,11.375-0.486,16.981-1.51c17.51,3.123,35.55,1.382,52.139-5.035   c14.814,10.103,32.418,15.326,50.347,14.933c5.726,0.017,11.435-0.486,17.067-1.51c5.632,1.024,11.341,1.527,17.067,1.51   c17.946,0.41,35.558-4.847,50.347-15.019c16.512,6.485,34.509,8.252,51.968,5.12c5.658,1.024,11.401,1.527,17.152,1.51   c28.843,0,53.504-12.083,63.488-29.193C449.283,413.545,459.353,411.36,469.081,409.013z"/>
</g>
<path d="M256.003,226.784c-85.692,0-168.32-12.655-232.678-35.644c-4.531-1.63-9.045-3.345-13.38-5.043  c-2.33-0.913-4.147-2.807-4.958-5.18c-3.294-9.583-4.975-19.644-4.983-29.773c0-83.337,114.842-151.142,256-151.142  s256,67.797,256,151.142c-0.009,10.129-1.69,20.19-4.983,29.773c-0.811,2.372-2.628,4.267-4.958,5.18  c-4.343,1.707-8.849,3.413-13.363,5.035C424.076,214.129,341.447,226.784,256.003,226.784z M19.971,171.684  c3.004,1.152,6.059,2.295,9.114,3.388c62.541,22.34,143.138,34.645,226.918,34.645c83.541,0,164.139-12.305,226.944-34.654  c3.038-1.092,6.093-2.227,9.088-3.379c1.92-6.673,2.901-13.594,2.901-20.54c0-73.924-107.179-134.076-238.933-134.076  S17.07,77.22,17.07,151.145C17.078,158.091,18.051,165.011,19.971,171.684L19.971,171.684z"/>
<path d="M503.129,408.655c-4.71,0-8.533-3.823-8.533-8.533c0-3.78,2.492-7.117,6.118-8.183c4.582-1.417,9.446,1.152,10.863,5.743  c0.239,0.768,0.367,1.562,0.384,2.364c0.017,4.053-2.833,7.561-6.81,8.363C504.494,408.57,503.811,408.647,503.129,408.655z"/>
<path d="M8.622,411.343H8.537c-4.71-0.026-8.516-3.866-8.491-8.576c0.026-4.71,3.866-8.516,8.576-8.491  c4.71,0.026,8.516,3.866,8.491,8.576C17.087,407.529,13.307,411.317,8.622,411.343z"/>
<path style="fill:#C52828;" d="M488.963,237.886h-0.085c-61.867,22.647-143.445,36.326-232.875,36.326  c-5.547,0-11.008-0.085-16.555-0.171c-72.943-0.316-145.365-12.288-214.528-35.482c-0.64-0.188-1.263-0.41-1.877-0.674  c-6.272-14.455-6.699-30.788-1.195-45.551c0.99-2.671,2.244-5.222,3.755-7.637l0.597-1.596  c68.719,22.775,140.595,34.586,212.992,34.978h0.427c5.376,0.085,10.923,0.171,16.384,0.171  c67.857,0.623,135.484-8.107,200.96-25.924c9.984-2.85,19.627-5.956,28.843-9.225l0.597,1.596  C495.713,200.996,496.66,220.768,488.963,237.886z"/>
<path style="fill:#F44335;" d="M455.769,237.886h-0.085c-69.666,23.612-142.677,35.814-216.235,36.156  c-72.943-0.316-145.365-12.288-214.528-35.482c-0.64-0.188-1.263-0.41-1.877-0.674c-6.272-14.455-6.699-30.788-1.195-45.551  c65.485,17.809,133.103,26.539,200.96,25.924c5.461,0,10.923-0.085,16.384-0.171h0.427c5.376,0.085,10.923,0.171,16.384,0.171  c67.857,0.623,135.484-8.107,200.96-25.924C462.476,207.098,462.041,223.431,455.769,237.886z"/>
<path d="M256.003,282.746c-86.417,0-169.515-12.843-233.984-36.164c-0.794-0.23-1.57-0.512-2.321-0.845  c-2.065-0.879-3.695-2.543-4.548-4.617c-8.559-19.396-7.535-41.685,2.765-60.211l0.299-0.794c1.63-4.378,6.468-6.622,10.863-5.043  c62.558,22.349,143.155,34.654,226.935,34.654c83.541,0,164.139-12.305,226.944-34.654c4.386-1.562,9.216,0.691,10.854,5.052  l0.299,0.794c10.3,18.534,11.324,40.815,2.765,60.211c-1.007,2.449-3.089,4.292-5.641,4.992  C426.405,269.732,342.907,282.746,256.003,282.746z M29.639,231.204c62.899,22.306,142.942,34.475,226.364,34.475  c83.618,0,163.814-12.245,226.381-34.517c4.446-12.177,4.13-25.574-0.896-37.521c-72.951,22.835-149.043,34.031-225.485,33.143  c-76.442,0.913-152.55-10.274-225.493-33.143C25.492,205.604,25.177,219.019,29.639,231.204z"/>
<path style="fill:#2E7D32;" d="M494.766,266.908c0.887,4.557-2.091,8.977-6.647,9.865c-0.256,0.051-0.512,0.085-0.777,0.111  c-0.307,0.077-0.623,0.102-0.939,0.085h-14.677c-5.623-0.009-10.889,2.756-14.08,7.381l-2.645,3.942  c-5.265,7.663-15.693,9.711-23.467,4.617c-2.799-1.801-6.059-2.756-9.387-2.765c-4.463,0-8.755,1.741-11.947,4.864l-12.373,12.16  c-6.656,6.46-17.237,6.46-23.893,0l-1.707-1.681c-6.656-6.46-17.237-6.46-23.893,0l-1.707,1.681c-6.656,6.46-17.237,6.46-23.893,0  l-0.341-0.333c-6.767-6.562-17.57-6.4-24.141,0.358c-0.333,0.341-0.649,0.7-0.947,1.067l-8.704,10.65  c-1.024,1.289-2.236,2.415-3.584,3.354c-7.484,5.018-17.57,3.405-23.125-3.695l-0.853-1.092c-1.152-1.493-2.534-2.799-4.096-3.857  c-1.562,1.058-2.944,2.364-4.096,3.857l-0.853,1.092c-5.769,7.45-16.478,8.815-23.927,3.046c-1.024-0.794-1.963-1.707-2.782-2.714  l-8.704-10.65c-5.982-7.287-16.742-8.354-24.03-2.372c-0.367,0.299-0.717,0.614-1.058,0.947l-0.341,0.333  c-6.656,6.46-17.237,6.46-23.893,0l-1.707-1.664c-6.656-6.46-17.237-6.46-23.893,0l-1.707,1.681c-6.656,6.46-17.237,6.46-23.893,0  l-12.373-12.16c-5.751-5.589-14.601-6.46-21.333-2.099c-7.774,5.103-18.202,3.046-23.467-4.617l-2.645-3.942  c-3.191-4.625-8.457-7.39-14.08-7.381H27.481c-0.597-0.009-1.203-0.068-1.792-0.171c-4.523-0.956-7.441-5.359-6.571-9.899  l5.291-26.001c-0.512-1.007-0.939-2.014-1.365-3.021c0.614,0.265,1.237,0.486,1.877,0.674  c61.696,22.315,142.507,35.652,231.083,35.652c89.429,0,171.008-13.67,232.875-36.326v0.085L494.766,266.908z"/>
<path d="M238.561,333.775c-7.689-0.017-14.967-3.465-19.849-9.404l-8.738-10.701c-1.519-1.86-3.755-2.987-6.161-3.098  c-2.355-0.154-4.659,0.7-6.34,2.355c-9.95,9.975-26.061,10.121-36.198,0.341l-1.707-1.681c-3.337-3.183-8.585-3.183-11.921,0  l-1.707,1.681c-9.975,9.719-25.882,9.719-35.857,0l-12.373-12.16c-2.927-2.697-7.287-3.123-10.675-1.05  c-11.682,7.612-27.298,4.531-35.2-6.955l-2.679-3.994c-1.596-2.278-4.215-3.627-6.997-3.601H27.481  c-1.058-0.009-2.116-0.102-3.166-0.282c-9.242-1.741-15.326-10.65-13.585-19.891c0.009-0.043,0.017-0.085,0.026-0.128l4.736-23.279  c-0.102-0.247-0.205-0.486-0.307-0.734c-1.826-4.343,0.205-9.344,4.548-11.179c2.133-0.896,4.531-0.896,6.665,0.017  c0.265,0.119,0.546,0.222,0.828,0.307c63.258,22.852,144.299,35.337,228.787,35.337c85.214,0,166.878-12.715,229.939-35.806  c4.429-1.621,9.327,0.657,10.948,5.077c0.205,0.572,0.358,1.161,0.435,1.758l5.794,28.501l0.017,0.085  c1.775,9.19-4.233,18.082-13.423,19.866c-0.299,0.06-0.606,0.111-0.905,0.154c-0.794,0.145-1.604,0.213-2.415,0.196h-14.677  c-2.807-0.017-5.444,1.357-7.04,3.669l-2.603,3.874c-7.902,11.511-23.552,14.618-35.243,6.98c-3.396-2.031-7.731-1.604-10.658,1.067  l-12.365,12.16c-9.975,9.719-25.882,9.728-35.866,0l-1.707-1.69c-3.345-3.174-8.585-3.174-11.921,0.009l-1.698,1.673  c-9.975,9.719-25.882,9.719-35.866,0.009c-1.749-1.835-4.207-2.816-6.741-2.697c-2.364,0.102-4.574,1.22-6.067,3.055l-8.738,10.692  c-1.545,1.929-3.371,3.618-5.41,5.018c-10.359,6.878-24.132,5.436-32.845-3.422C252.163,330.951,245.507,333.784,238.561,333.775z   M203.361,293.489c0.461,0,0.913,0.009,1.374,0.034c7.185,0.384,13.884,3.772,18.449,9.335l8.713,10.658  c0.529,0.649,1.152,1.22,1.843,1.69c3.703,2.492,8.695,1.715,11.469-1.783l0.905-1.169c1.724-2.227,3.797-4.173,6.144-5.743  c2.842-1.877,6.519-1.877,9.37-0.009c2.33,1.562,4.395,3.49,6.11,5.7l0.879,1.126c2.799,3.533,7.834,4.352,11.605,1.894  c0.657-0.469,1.254-1.033,1.758-1.673l8.721-10.675c8.96-10.94,25.097-12.544,36.036-3.584c0.572,0.469,1.118,0.956,1.647,1.476  c3.319,3.43,8.772,3.575,12.271,0.333l1.698-1.673c9.975-9.719,25.882-9.728,35.866-0.009l1.707,1.69  c3.345,3.174,8.585,3.166,11.921-0.009l12.373-12.16c8.678-8.158,21.751-9.481,31.889-3.217c3.891,2.62,9.165,1.63,11.844-2.219  l2.611-3.891c4.77-6.997,12.698-11.17,21.163-11.162h14.421l0.213-0.026l-3.908-19.209  c-73.216,23.159-149.666,34.475-226.458,33.536c-76.169,0.922-151.996-10.189-224.7-32.922l-3.823,18.79l14.677-0.171  c8.439-0.017,16.341,4.139,21.12,11.093l2.688,4.011c2.645,3.789,7.825,4.779,11.682,2.244c10.146-6.34,23.296-5.043,32.017,3.14  l12.373,12.16c3.337,3.183,8.585,3.183,11.921,0l1.707-1.681c9.975-9.719,25.882-9.719,35.857,0l1.707,1.681  c3.337,3.183,8.585,3.183,11.921,0C189.989,296.254,196.534,293.523,203.361,293.489z M484.697,268.777h-0.009H484.697z"/>
<path d="M436.313,386.298c-4.693,0.017-8.516-3.772-8.533-8.465c0-0.009,0-0.017,0-0.026v-0.085c0.026-4.71,3.866-8.516,8.576-8.491  c4.71,0.026,8.516,3.866,8.491,8.576C444.82,382.5,441.014,386.298,436.313,386.298L436.313,386.298z"/>
<path d="M196.27,67.407c-2.236,0-4.386-0.879-5.982-2.449l-8.533-8.388c-3.354-3.311-3.379-8.721-0.068-12.066  c3.302-3.337,8.678-3.379,12.032-0.102l8.533,8.388c3.362,3.302,3.405,8.704,0.102,12.066  C200.75,66.485,198.557,67.407,196.27,67.407z"/>
<path d="M238.937,59.01c-2.236,0-4.386-0.879-5.982-2.449l-8.533-8.388c-3.354-3.311-3.379-8.721-0.068-12.075  c3.302-3.337,8.678-3.379,12.032-0.102l8.533,8.388c3.362,3.302,3.413,8.704,0.111,12.066  C243.425,58.097,241.232,59.01,238.937,59.01z"/>
<path d="M281.603,59.01c-4.71,0-8.533-3.814-8.533-8.533c0-2.287,0.922-4.489,2.551-6.093l8.533-8.388  c3.371-3.294,8.781-3.234,12.075,0.145c3.277,3.354,3.234,8.73-0.102,12.032l-8.533,8.388  C285.998,58.14,283.847,59.019,281.603,59.01z"/>
<path d="M324.27,75.795c-4.71,0-8.533-3.814-8.533-8.533c0-2.287,0.922-4.489,2.551-6.093l8.533-8.388  c3.371-3.294,8.781-3.234,12.075,0.145c3.277,3.354,3.234,8.73-0.102,12.032l-8.533,8.388  C328.665,74.916,326.514,75.795,324.27,75.795z"/>
<path d="M375.47,75.795c-4.71,0-8.533-3.814-8.533-8.533c0-2.287,0.922-4.489,2.551-6.093l8.533-8.388  c3.371-3.294,8.781-3.234,12.075,0.145c3.277,3.354,3.234,8.73-0.102,12.032l-8.533,8.388  C379.865,74.916,377.714,75.795,375.47,75.795z"/>
<path d="M153.603,75.795c-2.236,0-4.386-0.879-5.982-2.449l-8.533-8.388c-3.354-3.311-3.379-8.721-0.068-12.075  c3.302-3.337,8.678-3.379,12.032-0.102l8.533,8.388c3.362,3.302,3.413,8.704,0.111,12.066  C158.092,74.874,155.899,75.795,153.603,75.795z"/>
<path d="M136.537,126.125c-4.71,0-8.533-3.823-8.533-8.533c0-2.287,0.922-4.48,2.551-6.084l8.533-8.388  c3.371-3.294,8.772-3.234,12.066,0.137c3.285,3.354,3.234,8.73-0.102,12.032l-8.533,8.388  C140.931,125.246,138.781,126.125,136.537,126.125z"/>
<path d="M196.27,109.348c-4.71,0-8.533-3.814-8.533-8.533c0-2.287,0.922-4.489,2.551-6.093l8.533-8.388  c3.354-3.311,8.755-3.285,12.075,0.068c3.311,3.354,3.285,8.755-0.068,12.075c-0.017,0.009-0.026,0.026-0.043,0.034l-8.533,8.388  C200.665,108.469,198.514,109.348,196.27,109.348z"/>
<path d="M247.47,109.348c-4.71,0-8.533-3.814-8.533-8.533c0-2.287,0.922-4.489,2.551-6.093l8.533-8.388  c3.354-3.311,8.755-3.285,12.075,0.068c3.311,3.354,3.285,8.755-0.068,12.075c-0.017,0.009-0.026,0.026-0.043,0.034l-8.533,8.388  C251.865,108.469,249.714,109.348,247.47,109.348z"/>
<path d="M358.403,126.125c-2.236,0-4.386-0.879-5.982-2.449l-8.533-8.388c-3.354-3.311-3.379-8.713-0.068-12.066  c3.302-3.337,8.678-3.379,12.032-0.102l8.533,8.388c3.362,3.302,3.405,8.704,0.102,12.066  C362.883,125.203,360.69,126.125,358.403,126.125z"/>
<path d="M409.603,109.348c-2.236,0-4.386-0.879-5.982-2.449l-8.533-8.388c-3.371-3.294-3.439-8.695-0.145-12.075  c3.294-3.371,8.695-3.439,12.075-0.145c0.017,0.009,0.026,0.026,0.043,0.034l8.533,8.388c3.362,3.302,3.413,8.704,0.111,12.066  C414.092,108.427,411.899,109.348,409.603,109.348z"/>
<path d="M307.203,109.348c-2.236,0-4.386-0.879-5.982-2.449l-8.533-8.388c-3.371-3.294-3.439-8.695-0.145-12.075  c3.294-3.371,8.695-3.439,12.075-0.145c0.017,0.009,0.026,0.026,0.043,0.034l8.533,8.388c3.362,3.302,3.413,8.704,0.111,12.066  C311.692,108.427,309.499,109.348,307.203,109.348z"/>
<path d="M93.87,109.348c-4.71,0-8.533-3.814-8.533-8.533c0-2.287,0.922-4.489,2.551-6.093l8.533-8.388  c3.354-3.311,8.755-3.285,12.075,0.068c3.311,3.354,3.285,8.755-0.068,12.075c-0.017,0.009-0.026,0.026-0.043,0.034l-8.533,8.388  C98.265,108.469,96.114,109.348,93.87,109.348z"/>
<g>
	<path style="fill:#8BC34A;" d="M72.707,414.884c0.486,0.922,1.033,1.818,1.621,2.688l-1.28,0.751   c-17.493-3.439-34.133-7.296-49.92-11.58l1.109-3.942c-0.597-0.674-1.024-1.425-1.536-2.099   c-8.439-11.435-7.202-27.332,2.901-37.333l0.597-1.092c16.307,5.888,32.913,10.897,49.749,15.019   c-4.855,6.05-7.561,13.551-7.68,21.308C68.287,404.337,69.823,409.952,72.707,414.884z"/>
	<path style="fill:#8BC34A;" d="M489.305,400.711c-0.512,0.674-0.939,1.425-1.536,2.099l0.341,1.425   c-15.531,4.113-31.915,7.97-49.152,11.324c3.089-5.12,4.736-10.974,4.779-16.947c-0.085-7.569-2.697-14.891-7.424-20.804   c16.887-4.079,33.553-9.028,49.92-14.848l0.171,0.418C496.507,373.378,497.744,389.276,489.305,400.711z"/>
	<path style="fill:#8BC34A;" d="M443.737,398.611c-0.043,5.973-1.69,11.827-4.779,16.947c-9.984,17.109-34.645,29.193-63.488,29.193   c-15.787,0.23-31.343-3.763-45.056-11.58c-4.139-2.355-7.953-5.231-11.349-8.559c5.623-8.687,6.758-19.533,3.072-29.193   c38.477-2.756,76.663-8.644,114.176-17.613C441.04,383.721,443.651,391.042,443.737,398.611z"/>
	<path style="fill:#8BC34A;" d="M324.27,407c-0.026,6.246-1.835,12.356-5.205,17.613c-2.278,3.772-5.129,7.168-8.448,10.069   c-15.386,12.535-34.782,19.089-54.613,18.458c-19.917,0.631-39.381-5.99-54.784-18.62h-0.085c-3.191-2.884-5.956-6.221-8.192-9.899   c-3.345-5.274-5.146-11.375-5.205-17.613c0.009-4.019,0.759-7.996,2.219-11.742c1.621,0.171,3.243,0.333,4.864,0.418   c20.224,1.51,41.131,2.261,62.464,2.261c22.187,0,43.861-0.836,64.853-2.517C323.536,399.123,324.253,403.049,324.27,407z"/>
	<path style="fill:#8BC34A;" d="M192.942,424.621c-3.302,3.243-7.006,6.059-11.008,8.388c-13.807,7.919-29.483,11.972-45.397,11.742   c-27.733,0-51.541-11.153-62.208-27.179c-0.589-0.862-1.135-1.758-1.621-2.688c-2.884-4.932-4.42-10.547-4.437-16.273   c0.119-7.757,2.825-15.258,7.68-21.308c37.444,9.097,75.58,15.104,114.005,17.954c-1.459,3.746-2.21,7.723-2.219,11.742   C187.796,413.246,189.597,419.347,192.942,424.621z"/>
</g>
<path d="M73.049,426.857c-0.555,0-1.101-0.051-1.647-0.162c-17.596-3.456-34.594-7.398-50.509-11.716  c-4.557-1.237-7.236-5.939-5.999-10.487c0.009-0.017,0.009-0.043,0.017-0.06l0.017-0.051c-9.762-14.379-8.183-33.613,3.789-46.208  c2.039-3.678,6.443-5.333,10.394-3.908c16.017,5.777,32.333,10.701,48.879,14.754c4.574,1.126,7.364,5.751,6.238,10.325  c-0.282,1.135-0.794,2.202-1.502,3.132c-3.712,4.574-5.794,10.249-5.922,16.137c0.017,4.224,1.152,8.371,3.302,12.015l0.06,0.111  l0.026,0.051c0.333,0.631,0.691,1.246,1.092,1.835c2.731,3.84,1.835,9.165-2.005,11.895c-0.196,0.145-0.401,0.273-0.614,0.401  l-1.28,0.751C76.069,426.447,74.576,426.857,73.049,426.857z M32.31,400.352c9.139,2.364,18.62,4.608,28.339,6.707  c-0.597-2.773-0.905-5.606-0.905-8.448c0.017-5.444,1.118-10.829,3.234-15.838c-11.742-3.157-23.083-6.639-33.886-10.394  c-4.983,7.194-4.676,16.802,0.751,23.654l0.478,0.666C31.235,397.767,31.918,399.012,32.31,400.352z"/>
<path d="M438.958,424.092c-4.71,0-8.533-3.814-8.533-8.533c0-1.527,0.41-3.029,1.186-4.343c2.304-3.806,3.541-8.158,3.593-12.612  c-0.077-5.709-2.082-11.221-5.692-15.642c-2.85-3.755-2.125-9.105,1.63-11.955c0.939-0.717,2.014-1.22,3.157-1.502  c16.597-4.011,32.973-8.883,49.067-14.592c3.695-1.314,7.808,0.051,9.975,3.319c12.16,12.843,13.525,32.503,3.26,46.908  c-0.375,3.516-2.884,6.434-6.306,7.339c-17.075,4.514-33.331,8.26-49.707,11.452C440.059,424.041,439.504,424.092,438.958,424.092z   M449.266,383.328c1.988,4.855,3.004,10.044,3.004,15.292c0,1.869-0.137,3.729-0.393,5.581c9.694-2.099,19.456-4.42,29.483-7.014  l0.017-0.017l0.794-1.126l0,0c5.188-6.665,5.649-15.863,1.161-23.023C472.263,376.8,460.863,380.248,449.266,383.328z"/>
<g>
	<path style="fill:#4E342E;" d="M258.051,314.558l-3.584,4.361c-1.024,1.289-2.236,2.415-3.584,3.354   c-2.995,2.082-6.605,3.081-10.24,2.85c4.506-0.58,8.585-2.935,11.349-6.545l0.853-1.092c1.152-1.493,2.534-2.799,4.096-3.857   C257.352,313.892,257.727,314.2,258.051,314.558z"/>
	<path style="fill:#4E342E;" d="M419.075,290.485c-2.458,2.603-5.692,4.335-9.216,4.949l0.341-0.418   C412.615,292.619,415.722,291.032,419.075,290.485z"/>
	<path style="fill:#4E342E;" d="M487.427,277.139c-0.051-0.043-0.077-0.102-0.085-0.171v-0.085   c-0.307,0.077-0.623,0.102-0.939,0.085h-14.677c-5.623-0.009-10.889,2.756-14.08,7.381l-1.28,1.929l-1.365,2.014   c-5.265,7.663-15.693,9.711-23.467,4.617c-2.799-1.801-6.059-2.756-9.387-2.765c-1.033-0.017-2.065,0.102-3.072,0.333   c-2.458,2.603-5.692,4.335-9.216,4.949l-12.032,11.742c-6.656,6.46-17.237,6.46-23.893,0l-1.707-1.681   c-1.143-1.169-2.509-2.116-4.011-2.765c-6.519-3.524-14.575-2.406-19.883,2.765l-1.707,1.681c-1.024,0.981-2.167,1.835-3.413,2.517   c-6.613,3.857-14.993,2.833-20.48-2.517l-0.341-0.333c-1.527-1.536-3.362-2.731-5.376-3.524c-1.024,0.606-1.971,1.34-2.816,2.185   l-1.707,1.681c-4.617,4.514-11.401,6.016-17.493,3.857l-6.4,7.885c-1.024,1.289-2.236,2.415-3.584,3.354   c-7.484,5.018-17.57,3.405-23.125-3.695l-0.853-1.092c-0.845-1.126-1.852-2.108-2.987-2.935l-3.584,4.361   c-1.024,1.289-2.236,2.415-3.584,3.354c-2.995,2.082-6.605,3.081-10.24,2.85h-1.707c-3.558,0.23-7.083-0.777-9.984-2.85   c-1.382-0.939-2.62-2.065-3.669-3.354l-3.584-4.361l-5.12-6.289c-5.982-7.287-16.742-8.354-24.03-2.372   c-0.367,0.299-0.717,0.614-1.058,0.947l-0.341,0.333c-1.783,1.792-3.985,3.115-6.4,3.857c-6.093,2.15-12.877,0.657-17.493-3.857   l-1.707-1.673c-0.683-0.674-1.195-1.178-1.877-1.758c-0.085-0.171-0.256-0.256-0.427-0.418h-1.024   c-6.502-4.258-15.104-3.345-20.565,2.185l-1.707,1.681c-1.024,0.981-2.167,1.835-3.413,2.517   c-6.613,3.857-14.993,2.833-20.48-2.517l-4.523-4.446l-7.851-7.714c-5.751-5.589-14.601-6.46-21.333-2.099   c-3.635,2.423-8.081,3.319-12.373,2.517c-3.558-0.597-6.818-2.33-9.301-4.949c-0.691-0.649-1.289-1.382-1.792-2.185l-2.645-3.942   c-3.191-4.625-8.457-7.39-14.08-7.381H27.481c-0.597-0.009-1.203-0.068-1.792-0.171l-0.085,0.162   c-1.161,2.697-2.133,5.47-2.901,8.303c-6.391,23.27-6.272,47.846,0.341,71.049c0.427,1.51,0.853,3.021,1.365,4.531l-0.085,0.751   c0.614,0.265,1.237,0.486,1.877,0.674c16.307,5.888,32.913,10.897,49.749,15.019c37.444,9.097,75.58,15.104,114.005,17.954   c1.621,0.171,3.243,0.333,4.864,0.418c14.421,1.092,29.013,1.758,43.947,2.099h1.707c5.632,0.085,11.179,0.171,16.811,0.171   c22.187,0,43.861-0.836,64.853-2.517c38.477-2.756,76.663-8.644,114.176-17.613c16.887-4.079,33.553-9.028,49.92-14.848   l2.304-2.099c0.512-1.51,0.939-3.021,1.365-4.531C497.573,330.353,496.703,302.594,487.427,277.139z"/>
</g>
<g>
	<path style="fill:#795548;" d="M455.769,356.329c-0.427,1.51-0.853,3.021-1.365,4.531l-2.304,2.099   c-16.367,5.82-33.033,10.769-49.92,14.848c-37.513,8.969-75.699,14.865-114.176,17.613c-15.531,1.254-31.403,2.014-47.531,2.347   h-1.707c-14.933-0.333-29.525-1.007-43.947-2.099c-1.621-0.085-3.243-0.247-4.864-0.418c-38.426-2.85-76.561-8.858-114.005-17.954   c-16.836-4.122-33.442-9.131-49.749-15.019c-0.64-0.188-1.263-0.41-1.877-0.674l0.085-0.751c-0.512-1.51-0.939-3.021-1.365-4.531   c-6.613-23.211-6.733-47.787-0.341-71.049c0.768-2.833,1.741-5.606,2.901-8.303l0.085-0.171c0.589,0.102,1.195,0.154,1.792,0.171   h14.677c5.623-0.009,10.889,2.756,14.08,7.381l2.645,3.942c0.503,0.802,1.101,1.536,1.792,2.185   c2.483,2.62,5.743,4.352,9.301,4.949c4.292,0.802,8.738-0.094,12.373-2.517c6.733-4.369,15.582-3.499,21.333,2.099l7.851,7.714   l4.523,4.446c5.487,5.342,13.867,6.374,20.48,2.517c1.246-0.683,2.389-1.527,3.413-2.517l1.707-1.681   c5.461-5.53,14.063-6.443,20.565-2.185h1.024c0.171,0.171,0.341,0.247,0.427,0.418c0.683,0.589,1.195,1.092,1.877,1.758   l1.707,1.681c4.617,4.514,11.401,6.016,17.493,3.857c2.415-0.742,4.617-2.065,6.4-3.857l0.341-0.333   c6.767-6.562,17.579-6.4,24.141,0.367c0.333,0.341,0.64,0.691,0.947,1.058l5.12,6.289l3.584,4.361   c1.05,1.289,2.287,2.423,3.669,3.354c2.901,2.074,6.426,3.081,9.984,2.85h1.707c3.635,0.23,7.245-0.777,10.24-2.85   c1.348-0.939,2.56-2.065,3.584-3.354l3.584-4.361c1.135,0.828,2.142,1.809,2.987,2.935l0.853,1.092   c5.555,7.1,15.642,8.704,23.125,3.695c1.348-0.939,2.56-2.065,3.584-3.354l6.4-7.885c6.093,2.15,12.877,0.657,17.493-3.857   l1.707-1.681c0.845-0.845,1.792-1.579,2.816-2.185c2.014,0.794,3.849,1.988,5.376,3.524l0.341,0.333   c5.487,5.342,13.867,6.374,20.48,2.517c1.246-0.683,2.389-1.527,3.413-2.517l1.707-1.681c5.308-5.171,13.363-6.298,19.883-2.765   c1.502,0.657,2.867,1.596,4.011,2.765l1.707,1.681c6.656,6.46,17.237,6.46,23.893,0l12.032-11.742   c3.524-0.614,6.758-2.347,9.216-4.949c1.007-0.239,2.039-0.35,3.072-0.333c3.328,0.009,6.588,0.973,9.387,2.765   c7.774,5.103,18.202,3.046,23.467-4.617l1.365-2.014C462.442,309.267,462.237,333.459,455.769,356.329z"/>
	<path style="fill:#795548;" d="M69.977,295.435c-3.558-0.597-6.818-2.33-9.301-4.949c3.354,0.555,6.46,2.133,8.875,4.531   L69.977,295.435z"/>
	<path style="fill:#795548;" d="M238.937,325.131c-3.558,0.23-7.083-0.777-9.984-2.85c-1.382-0.939-2.62-2.065-3.669-3.354   l-3.584-4.361c0.324-0.358,0.7-0.666,1.109-0.922c1.562,1.058,2.944,2.364,4.096,3.857l0.853,1.092   C230.437,322.195,234.474,324.559,238.937,325.131z"/>
</g>
<path d="M257.283,406.479c-21.547,0-42.778-0.768-63.104-2.296c-1.562-0.077-3.311-0.256-5.077-0.435  c-38.835-2.884-77.372-8.96-115.209-18.159c-17.135-4.19-34.031-9.293-50.62-15.283c-0.785-0.23-1.562-0.512-2.313-0.845  c-3.029-1.297-5.043-4.215-5.171-7.501c-0.341-1.084-0.649-2.176-0.947-3.26c-8.363-27.981-7.322-57.933,2.987-85.257  c1.596-3.558,5.367-5.623,9.225-5.06l15.104,0.051c8.439-0.017,16.341,4.139,21.12,11.093l2.688,4.011  c2.645,3.789,7.825,4.779,11.682,2.244c10.146-6.34,23.296-5.043,32.017,3.14l12.373,12.16c3.337,3.183,8.585,3.183,11.921,0  l1.707-1.681c9.975-9.719,25.882-9.719,35.857,0l1.707,1.681c3.337,3.183,8.585,3.183,11.921,0  c9.95-10.052,26.172-10.138,36.224-0.188c0.631,0.623,1.229,1.28,1.792,1.963l8.713,10.658c0.529,0.649,1.152,1.22,1.843,1.69  c3.703,2.492,8.695,1.715,11.469-1.783l0.905-1.169c1.724-2.227,3.797-4.173,6.144-5.743c2.842-1.877,6.519-1.877,9.37-0.009  c2.33,1.562,4.395,3.49,6.11,5.7l0.879,1.126c2.799,3.533,7.834,4.352,11.605,1.894c0.657-0.469,1.254-1.033,1.758-1.673  l8.721-10.675c8.96-10.94,25.097-12.544,36.036-3.584c0.572,0.469,1.118,0.956,1.647,1.476c3.319,3.43,8.772,3.575,12.271,0.333  l1.698-1.673c9.975-9.719,25.882-9.728,35.866-0.009l1.707,1.69c3.345,3.174,8.585,3.174,11.921-0.009l12.373-12.16  c8.678-8.158,21.751-9.481,31.889-3.217c3.891,2.62,9.165,1.63,11.844-2.219l2.611-3.891c4.77-6.997,12.698-11.17,21.163-11.162  h14.421c4.036-0.572,7.919,1.801,9.25,5.658c9.907,27.153,10.863,56.764,2.731,84.497l-0.017,0.077l-8.209-2.33l8.132,2.594  c-0.444,1.562-0.887,3.123-1.425,4.685c-0.461,1.365-1.271,2.594-2.338,3.567l-2.304,2.099c-0.836,0.759-1.809,1.348-2.876,1.724  c-16.649,5.914-33.604,10.957-50.782,15.104c-37.965,9.088-76.604,15.053-115.541,17.835  C301.716,405.617,279.666,406.479,257.283,406.479z M31.585,355.177c14.874,5.265,30.293,9.865,46.404,13.85  c36.992,8.986,74.658,14.916,112.623,17.732c1.707,0.179,3.174,0.333,4.642,0.401c42.01,3.072,84.198,2.995,126.199-0.23  c38.025-2.714,75.759-8.533,112.828-17.399c16.085-3.9,31.855-8.55,46.933-13.841c0.137-0.478,0.273-0.947,0.41-1.425l8.277,2.074  l-8.226-2.261c6.391-22.426,6.281-46.199-0.307-68.565h-9.634c-2.807-0.017-5.444,1.357-7.04,3.669l-2.603,3.874  c-7.902,11.511-23.552,14.618-35.243,6.98c-3.396-2.031-7.731-1.604-10.658,1.067l-12.365,12.16c-9.975,9.719-25.882,9.728-35.866,0  l-1.707-1.69c-3.345-3.174-8.585-3.174-11.921,0.009l-1.698,1.673c-9.975,9.719-25.882,9.719-35.866,0.009  c-1.749-1.835-4.207-2.816-6.741-2.697c-2.364,0.102-4.574,1.22-6.067,3.055l-8.738,10.692c-1.545,1.929-3.371,3.618-5.41,5.018  c-10.359,6.878-24.132,5.436-32.845-3.422c-9.83,10.18-26.052,10.462-36.233,0.632c-0.708-0.683-1.382-1.417-2.005-2.176  l-8.738-10.701c-1.519-1.86-3.755-2.987-6.161-3.098c-2.355-0.154-4.659,0.7-6.34,2.355c-9.95,9.975-26.061,10.121-36.198,0.341  l-1.707-1.681c-3.337-3.183-8.585-3.183-11.921,0l-1.707,1.681c-9.975,9.719-25.882,9.719-35.857,0l-12.373-12.16  c-2.927-2.697-7.287-3.123-10.675-1.05c-11.699,7.62-27.315,4.54-35.217-6.946l-2.679-3.994c-1.596-2.278-4.215-3.627-6.997-3.601  H31.577c-6.588,22.366-6.69,46.14-0.299,68.557C31.38,354.434,31.483,354.81,31.585,355.177z M484.705,268.777h-0.017H484.705z"/>
<path d="M375.47,453.284c-17.323,0.213-34.398-4.207-49.442-12.791c-4.719-2.697-9.062-5.99-12.945-9.796  c-2.859-2.807-3.371-7.219-1.246-10.607c4.215-6.443,5.069-14.524,2.304-21.7c-1.638-4.42,0.623-9.327,5.043-10.965  c0.751-0.273,1.527-0.444,2.321-0.503c38.007-2.714,75.733-8.533,112.794-17.399c3.302-0.811,6.767,0.418,8.823,3.123  c10.914,13.5,12.194,32.401,3.2,47.249C434.486,440.16,406.676,453.284,375.47,453.284z M329.714,422.539  c1.57,1.178,3.217,2.253,4.924,3.226c12.433,7.057,26.53,10.667,40.832,10.453c24.858,0,47.411-10.027,56.115-24.96  c2.313-3.814,3.567-8.183,3.618-12.646c0-3.874-0.956-7.68-2.782-11.102c-32.853,7.552-66.21,12.774-99.806,15.616  c0.128,1.297,0.188,2.586,0.188,3.874C332.812,412.333,331.762,417.615,329.714,422.539L329.714,422.539z"/>
<path d="M256.003,461.673c-21.709,0.623-42.923-6.545-59.802-20.198c-0.282-0.196-0.546-0.41-0.802-0.64  c-3.806-3.439-7.091-7.415-9.754-11.802c-4.156-6.605-6.383-14.234-6.434-22.033c0.009-5.06,0.956-10.078,2.782-14.797  c1.357-3.618,5.001-5.845,8.841-5.427c1.493,0.154,2.97,0.307,4.437,0.384c42.01,3.072,84.198,2.995,126.199-0.23  c3.814-0.333,7.381,1.937,8.687,5.538c1.741,4.651,2.645,9.574,2.662,14.541c-0.017,7.851-2.27,15.531-6.502,22.144  c-2.705,4.471-6.084,8.499-10.027,11.93C299.344,455.008,277.925,462.33,256.003,461.673z M206.262,427.642  c0.247,0.179,0.478,0.367,0.7,0.563c13.858,11.153,31.258,16.973,49.041,16.401c17.715,0.563,35.046-5.197,48.896-16.256  c2.679-2.321,4.975-5.043,6.818-8.073c2.586-3.951,3.977-8.559,4.019-13.278c0-0.845-0.043-1.69-0.137-2.526  c-39.68,2.697-79.497,2.662-119.177-0.128c-0.102,0.887-0.154,1.766-0.154,2.654c0.06,4.651,1.417,9.19,3.917,13.116  C201.868,422.88,203.916,425.415,206.262,427.642z"/>
<path d="M136.537,453.284c-30.029,0-56.585-11.87-69.316-30.985c-0.7-1.041-1.357-2.108-1.946-3.217  c-3.601-6.221-5.504-13.278-5.538-20.471c0.137-9.626,3.447-18.935,9.429-26.487c2.065-2.697,5.53-3.917,8.832-3.106  c36.992,8.986,74.658,14.916,112.614,17.732c4.702,0.367,8.209,4.471,7.842,9.173c-0.06,0.819-0.247,1.63-0.538,2.398  c-1.084,2.765-1.638,5.709-1.647,8.687c0.06,4.651,1.417,9.19,3.917,13.116c2.108,3.388,1.579,7.782-1.263,10.581  c-3.814,3.746-8.09,6.997-12.715,9.685C171.105,449.043,153.953,453.498,136.537,453.284z M79.807,387.023  c-1.937,3.558-2.97,7.535-3.004,11.588c0.017,4.224,1.152,8.371,3.302,12.015c0.358,0.683,0.751,1.348,1.178,1.997  c9.6,14.413,31.232,23.595,55.253,23.595c14.362,0.213,28.51-3.422,40.994-10.522c1.655-0.964,3.26-2.022,4.796-3.174  c-2.039-4.924-3.098-10.197-3.115-15.522c0-1.357,0.068-2.714,0.205-4.062C145.872,400.002,112.592,394.677,79.807,387.023z"/>
<path d="M256.003,512.002c-143.548,0-256-47.113-256-107.264c-0.017-0.998,0.034-1.988,0.154-2.978  c0.58-4.676,4.847-7.996,9.523-7.415c0.427,0.051,0.845,0.137,1.254,0.256c4.71,1.323,9.421,2.645,14.302,3.891  c14.797,4.011,30.447,7.671,46.652,10.914c3.593-1.075,7.467,0.324,9.549,3.447c9.455,14.199,31.087,23.373,55.108,23.373  c14.362,0.213,28.51-3.422,40.994-10.522c1.562-0.93,3.379-1.348,5.197-1.186c6.238,0.58,12.561,1.075,18.961,1.493  c1.954,0.128,3.814,0.905,5.274,2.202c13.858,11.153,31.258,16.973,49.041,16.401c17.715,0.563,35.046-5.197,48.896-16.256  c1.434-1.289,3.26-2.065,5.18-2.185c6.741-0.427,13.175-0.828,19.456-1.476c1.835-0.179,3.678,0.23,5.265,1.169  c12.399,7.006,26.436,10.581,40.67,10.359c24.858,0,47.411-10.027,56.115-24.96c1.237-2.125,3.328-3.61,5.734-4.079  c16-3.115,31.898-6.775,48.606-11.204c5.052-1.323,10.01-2.645,14.788-4.053c4.523-1.331,9.276,1.263,10.598,5.794  c0.094,0.316,0.162,0.631,0.222,0.956c0.324,2.005,0.478,4.028,0.461,6.05C512.003,464.89,399.56,512.002,256.003,512.002z   M18.614,414.398c12.86,40.525,104.994,80.538,237.389,80.538c135.595,0,228.966-41.975,238.182-83.482  c-1.297,0.341-2.603,0.691-3.908,1.033c-15.812,4.181-30.933,7.706-46.106,10.735c-12.834,18.381-39.262,30.063-68.702,30.063  c-16.341,0.162-32.469-3.738-46.933-11.349c-4.787,0.444-9.651,0.777-14.524,1.084c-16.666,12.612-37.111,19.183-58.001,18.654  c-20.983,0.546-41.532-6.101-58.214-18.842c-4.873-0.324-9.446-0.683-13.935-1.084c-14.566,7.731-30.831,11.699-47.317,11.537  c-24.926,1.152-49.101-8.636-66.21-26.795c-17.22-3.405-33.835-7.279-49.425-11.503C20.133,414.791,19.374,414.594,18.614,414.398z"/>
<path d="M201.142,443.053c-0.188,0-0.367,0-0.555-0.017c-6.562-0.427-13.039-0.939-19.439-1.536  c-4.693-0.435-8.141-4.591-7.706-9.284c0.256-2.748,1.826-5.205,4.215-6.588c3.388-1.963,6.511-4.343,9.301-7.091  c3.362-3.302,8.764-3.26,12.075,0.102c0.461,0.469,0.87,0.998,1.22,1.562c1.809,2.97,4.045,5.666,6.63,8.004  c3.49,3.166,3.746,8.567,0.58,12.058C205.836,442.029,203.54,443.044,201.142,443.053L201.142,443.053z"/>
<path d="M310.898,443.198c-3.482,0.009-6.63-2.057-8.013-5.248c-1.451-3.328-0.614-7.219,2.082-9.651  c2.654-2.313,4.932-5.018,6.758-8.021c1.34-2.261,3.635-3.78,6.238-4.122c2.603-0.324,5.205,0.555,7.091,2.381  c2.876,2.816,6.093,5.239,9.591,7.228c4.096,2.338,5.521,7.543,3.183,11.639c-1.365,2.389-3.797,3.977-6.536,4.258  c-6.502,0.674-13.167,1.092-19.849,1.519C311.265,443.189,311.086,443.198,310.898,443.198z"/>
<g>
</g>
<g>
</g>
<g>
</g>
<g>
</g>
<g>
</g>
<g>
</g>
<g>
</g>
<g>
</g>
<g>
</g>
<g>
</g>
<g>
</g>
<g>
</g>
<g>
</g>
<g>
</g>
<g>
</g>
</svg>
