<?xml version="1.0" encoding="iso-8859-1"?>
<!-- Generator: Adobe Illustrator 19.0.0, SVG Export Plug-In . SVG Version: 6.00 Build 0)  -->
<svg xmlns="http://www.w3.org/2000/svg" xmlns:xlink="http://www.w3.org/1999/xlink" version="1.1" id="Capa_1" x="0px" y="0px" viewBox="0 0 512 512" style="enable-background:new 0 0 512 512;" xml:space="preserve">
<path style="fill:#FDD834;" d="M256,187.733v110.933c-5.632,0-11.349-0.171-17.067-0.427v145.493  c0,9.429-7.637,17.067-17.067,17.067c-9.429,0-17.067-7.637-17.067-17.067v-51.2c0,9.429-7.637,17.067-17.067,17.067  c-9.429,0-17.067-7.637-17.067-17.067V288.341c-14.72-3.55-29.175-8.107-43.264-13.653l0.597-1.621L256,187.733z"/>
<g>
	<path style="fill:#FFB301;" d="M93.269,274.688c14.089,5.547,28.544,10.103,43.264,13.653v34.987   c-76.288-24.747-128-72.363-128-127.061c-0.026-1.365,0.026-2.739,0.171-4.096C11.435,226.987,46.08,255.829,93.269,274.688z"/>
	<path style="fill:#FFB301;" d="M503.467,196.267c-0.119,15.087-3.925,29.909-11.093,43.179   C461.056,298.496,367.104,341.333,256,341.333c-5.717,0-11.435-0.085-17.067-0.341V298.24c5.717,0.256,11.435,0.427,17.067,0.427   c43.989,0,87.586-8.158,128.597-24.064c47.189-18.773,81.835-47.616,84.565-82.432c0.085-1.451,0.171-2.901,0.171-4.437   c-0.179-12.39-4.045-24.457-11.093-34.645c-0.171-0.256-0.341-0.597-0.597-0.939C427.52,96.683,341.931,55.637,238.933,51.541   C244.565,51.285,250.283,51.2,256,51.2C392.704,51.2,503.467,116.139,503.467,196.267z"/>
</g>
<g>
	<path style="fill:#FEC108;" d="M136.533,288.341v34.987c-76.288-24.747-128-72.363-128-127.061   c-0.026-1.365,0.026-2.739,0.171-4.096c2.731,34.816,37.376,63.659,84.565,82.517C107.358,280.235,121.813,284.791,136.533,288.341   z"/>
	<path style="fill:#FEC108;" d="M457.643,152.149c-14.336-20.907-40.789-38.485-73.045-51.285C343.586,84.958,299.989,76.8,256,76.8   c-5.632,0-11.349,0.171-17.067,0.427c-38.212,1.766-75.887,9.754-111.531,23.637c-49.152,19.541-84.736,50.091-84.736,86.869   s35.584,67.328,84.736,86.955c14.089,5.547,28.544,10.103,43.264,13.653v44.117c-11.861-2.56-23.211-5.632-34.133-9.131v-34.987   c-14.72-3.55-29.175-8.107-43.264-13.653c-47.189-18.859-81.835-47.701-84.565-82.517c0.683-13.679,4.412-27.034,10.923-39.083   c0.171-0.256,0.341-0.597,0.597-0.939C50.347,96.683,135.936,55.637,238.933,51.541C341.931,55.637,427.52,96.683,457.643,152.149z   "/>
</g>
<path d="M256,349.867c-5.845,0-11.699-0.085-17.459-0.35l-8.141-0.375v-59.819l8.909,0.393c5.589,0.247,11.179,0.418,16.691,0.418  c42.889-0.051,85.402-7.996,125.414-23.45c50.458-20.062,79.386-48.836,79.386-78.95s-28.928-58.889-79.36-78.942  c-80.691-31.275-170.163-31.275-250.854-0.009C80.128,128.845,51.2,157.619,51.2,187.733c0,30.089,28.928,58.889,79.369,79.027  c13.713,5.393,27.785,9.83,42.121,13.286l6.511,1.587v61.389l-10.325-2.227C67.866,319.027,0,260.949,0,196.267  c0-84.693,114.842-153.6,256-153.6s256,68.907,256,153.6c-0.111,16.469-4.258,32.649-12.075,47.147  C466.15,307.098,368.137,349.867,256,349.867z M247.467,332.723c2.842,0.06,5.683,0.077,8.533,0.077  c104.337,0,198.434-40.03,228.838-97.357c6.511-12.041,9.975-25.489,10.095-39.177c0-75.281-107.187-136.533-238.933-136.533  S17.067,120.986,17.067,196.267c0,54.323,57.856,103.953,145.067,125.466v-26.743c-12.86-3.362-25.506-7.484-37.871-12.365  c-57.284-22.878-90.129-57.455-90.129-94.891c0-37.478,32.845-72.03,90.121-94.797c84.762-32.896,178.765-32.887,263.526,0.009  c57.242,22.758,90.086,57.31,90.086,94.788s-32.845,72.03-90.121,94.797C345.754,298.889,301.073,307.26,256,307.2  c-2.833,0-5.675-0.043-8.533-0.119V332.723z"/>
<g>
	<path style="fill:#795548;" d="M170.667,332.459v42.752C76.032,353.536,8.533,296.96,8.533,230.4v-34.133   C8.533,258.816,76.032,312.064,170.667,332.459z"/>
	<path style="fill:#795548;" d="M503.467,196.267V230.4c0,85.248-110.763,154.283-247.467,154.283   c-5.717,0-11.435-0.085-17.067-0.341v-43.349c5.632,0.256,11.349,0.341,17.067,0.341c111.104,0,205.056-42.837,236.373-101.888   C499.541,226.176,503.347,211.354,503.467,196.267z"/>
</g>
<path d="M179.2,385.92l-10.436-2.389C67.823,360.414,0,298.871,0,230.4v-34.133h17.067c0,56.439,62.447,107.819,155.392,127.846  l6.741,1.451V385.92z M21.367,257.69c14.899,46.899,67.456,87.39,140.766,106.633v-25.037  C98.048,324.224,48.034,294.383,21.367,257.69z"/>
<rect y="230.4" width="17.067" height="9.216"/>
<path d="M256,393.216c-5.845,0-11.691-0.094-17.451-0.35l-8.149-0.367v-60.442l8.926,0.41c5.504,0.256,11.085,0.333,16.674,0.333  c104.337,0,198.434-40.03,228.838-97.357c6.511-12.041,9.975-25.489,10.095-39.177H512V230.4  C512,320.179,397.158,393.216,256,393.216z M247.467,376.073c2.842,0.051,5.683,0.077,8.533,0.077  c116.019,0,212.992-50.705,234.487-117.692c-40.294,55.287-131.43,91.409-234.487,91.409c-2.842,0-5.692-0.017-8.533-0.068V376.073z  "/>
<rect x="494.933" y="230.4" width="17.067" height="9.216"/>
<g>
	<path style="fill:#FDD834;" d="M256,76.8v110.933L128,102.4l-0.597-1.536C168.414,84.958,212.011,76.8,256,76.8z"/>
	<path style="fill:#FDD834;" d="M384.597,100.864L384,102.4l-128,85.333V76.8C299.989,76.8,343.586,84.958,384.597,100.864z"/>
	<path style="fill:#FDD834;" d="M256,187.733H42.667c0-36.779,35.584-67.328,84.736-86.869L128,102.4L256,187.733z"/>
	<path style="fill:#FDD834;" d="M469.333,187.733c0,36.779-35.584,67.328-84.736,86.869L384,273.067l-128-85.333H469.333z"/>
	<path style="fill:#FDD834;" d="M469.333,187.733H256L384,102.4l0.597-1.536C433.749,120.405,469.333,150.955,469.333,187.733z"/>
	<path style="fill:#FDD834;" d="M256,187.733l-128,85.333l-0.597,1.621c-49.152-19.627-84.736-50.176-84.736-86.955H256z"/>
	<path style="fill:#FDD834;" d="M384.597,274.603c-41.011,15.906-84.608,24.064-128.597,24.064V187.733l128,85.333L384.597,274.603z   "/>
</g>
<path d="M264.533,203.682L121.02,107.998l-4.625-11.913l7.825-3.14c42.01-16.367,86.699-24.738,131.78-24.678h8.533V203.682z   M144.973,103.467l102.494,68.318v-86.34C212.608,86.391,178.074,92.467,144.973,103.467z"/>
<path d="M247.467,203.682V68.267H256c45.082-0.06,89.771,8.311,131.772,24.678l7.825,3.14l-4.625,11.913L247.467,203.682z   M264.533,85.444v86.34l102.494-68.326C333.926,92.467,299.392,86.391,264.533,85.444z"/>
<path d="M284.186,196.267H34.133v-8.533c0-37.478,32.845-72.03,90.121-94.797l8.004-3.183l2.731,7.049L284.186,196.267z   M51.977,179.2h175.838L125.38,110.916C82.799,128.887,56.695,153.267,51.977,179.2z"/>
<path d="M379.75,285.713l-2.731-7.049L227.814,179.2h250.052v8.533c0,37.478-32.845,72.03-90.121,94.797L379.75,285.713z   M284.186,196.267L386.62,264.55c42.59-17.971,68.685-42.351,73.412-68.284H284.186z"/>
<path d="M477.867,196.267H227.814L377.02,96.802l2.731-7.049l8.004,3.183c57.267,22.767,90.112,57.318,90.112,94.797V196.267z   M284.186,179.2h175.838c-4.719-25.933-30.822-50.313-73.412-68.284L284.186,179.2z"/>
<path d="M290.133,119.467c-0.572-0.017-1.143-0.068-1.707-0.171c-0.538-0.094-1.05-0.265-1.536-0.512  c-0.521-0.171-1.015-0.435-1.451-0.768c-0.512-0.341-0.939-0.683-1.365-1.024c-3.319-3.345-3.294-8.747,0.051-12.066  s8.747-3.294,12.066,0.051c3.302,3.328,3.302,8.695,0,12.015c-0.427,0.341-0.853,0.683-1.28,1.024  c-0.478,0.324-0.99,0.58-1.536,0.768c-0.486,0.247-1.007,0.418-1.536,0.512C291.277,119.39,290.705,119.45,290.133,119.467z"/>
<path d="M384,153.6c-2.261-0.034-4.42-0.913-6.059-2.475c-0.341-0.427-0.683-0.853-1.024-1.28c-0.324-0.478-0.58-0.99-0.768-1.536  c-0.247-0.486-0.418-0.998-0.512-1.536c-0.102-0.563-0.154-1.135-0.171-1.707c0.034-2.261,0.913-4.42,2.475-6.059  c2.039-2.014,4.949-2.876,7.765-2.304c0.538,0.094,1.05,0.265,1.536,0.512c0.546,0.188,1.058,0.444,1.536,0.768  c0.427,0.341,0.853,0.683,1.28,1.024c1.562,1.638,2.441,3.797,2.475,6.059c-0.017,0.572-0.077,1.143-0.171,1.707  c-0.094,0.538-0.264,1.05-0.512,1.536c-0.188,0.546-0.444,1.058-0.768,1.536c-0.341,0.427-0.683,0.853-1.024,1.28  c-0.427,0.341-0.853,0.683-1.28,1.024c-0.478,0.324-0.99,0.58-1.536,0.768c-0.486,0.247-1.007,0.418-1.536,0.512  C385.143,153.523,384.572,153.583,384,153.6z"/>
<path d="M418.133,221.867c-1.118-0.017-2.219-0.247-3.243-0.683c-2.142-0.777-3.831-2.466-4.608-4.608  c-0.444-1.024-0.674-2.125-0.683-3.243c0.017-0.572,0.077-1.143,0.171-1.707c0.094-0.538,0.265-1.05,0.512-1.536  c0.188-0.546,0.444-1.058,0.768-1.536c0.341-0.427,0.683-0.853,1.024-1.28c0.828-0.751,1.783-1.365,2.816-1.792  c2.082-0.853,4.412-0.853,6.485,0c1.033,0.435,1.988,1.041,2.816,1.792c0.341,0.427,0.683,0.853,1.024,1.28  c0.324,0.478,0.58,0.99,0.768,1.536c0.247,0.486,0.418,1.007,0.512,1.536c0.094,0.563,0.154,1.135,0.171,1.707  c-0.017,1.118-0.247,2.219-0.683,3.243c-0.777,2.142-2.466,3.831-4.608,4.608C420.352,221.619,419.251,221.85,418.133,221.867z"/>
<path d="M366.933,230.4c-1.118-0.017-2.219-0.247-3.243-0.683c-1.033-0.435-1.98-1.041-2.816-1.792  c-0.341-0.427-0.683-0.853-1.024-1.28c-0.324-0.478-0.58-0.99-0.768-1.536c-0.247-0.486-0.418-0.998-0.512-1.536  c-0.102-0.563-0.154-1.135-0.171-1.707c0.009-1.118,0.239-2.219,0.683-3.243c0.785-2.142,2.466-3.823,4.608-4.608  c1.553-0.683,3.285-0.853,4.949-0.512c0.538,0.094,1.05,0.265,1.536,0.512c0.546,0.188,1.058,0.444,1.536,0.768  c0.444,0.316,0.87,0.657,1.28,1.024c0.751,0.828,1.357,1.783,1.792,2.816c0.435,1.024,0.666,2.133,0.683,3.243  c-0.017,0.572-0.077,1.143-0.171,1.707c-0.094,0.538-0.265,1.05-0.512,1.536c-0.188,0.546-0.444,1.058-0.768,1.536  c-0.341,0.427-0.683,0.853-1.024,1.28c-0.41,0.367-0.836,0.708-1.28,1.024c-0.478,0.324-0.99,0.58-1.536,0.768  c-0.486,0.247-1.007,0.418-1.536,0.512C368.077,230.323,367.505,230.383,366.933,230.4z"/>
<path d="M281.6,247.467c-1.118-0.017-2.219-0.247-3.243-0.683c-1.033-0.435-1.98-1.041-2.816-1.792  c-0.768-0.819-1.382-1.775-1.792-2.816c-0.444-1.024-0.674-2.125-0.683-3.243c0.017-2.261,0.905-4.429,2.475-6.059  c0.828-0.751,1.783-1.365,2.816-1.792c1.553-0.683,3.285-0.853,4.949-0.512c0.538,0.094,1.05,0.265,1.536,0.512  c0.546,0.188,1.058,0.444,1.536,0.768c0.427,0.341,0.853,0.683,1.28,1.024c1.562,1.638,2.441,3.797,2.475,6.059  c-0.017,1.118-0.247,2.219-0.683,3.243c-0.435,1.033-1.041,1.988-1.792,2.816c-0.427,0.341-0.853,0.683-1.28,1.024  c-0.478,0.324-0.99,0.58-1.536,0.768c-0.486,0.247-1.007,0.418-1.536,0.512C282.743,247.39,282.172,247.45,281.6,247.467z"/>
<path d="M307.2,273.067c-0.572-0.017-1.143-0.068-1.707-0.171c-0.538-0.094-1.05-0.265-1.536-0.512  c-0.546-0.188-1.058-0.444-1.536-0.768c-0.427-0.341-0.853-0.683-1.28-1.024c-0.768-0.819-1.382-1.775-1.792-2.816  c-0.444-1.024-0.674-2.125-0.683-3.243c0.017-2.261,0.905-4.429,2.475-6.059c0.401-0.367,0.828-0.708,1.28-1.024  c0.478-0.324,0.99-0.58,1.536-0.768c0.486-0.247,0.998-0.418,1.536-0.512c1.664-0.35,3.396-0.171,4.949,0.512  c1.033,0.435,1.988,1.041,2.816,1.792c1.562,1.638,2.441,3.797,2.475,6.059c-0.017,1.118-0.247,2.219-0.683,3.243  c-0.777,2.142-2.466,3.831-4.608,4.608C309.419,272.819,308.318,273.05,307.2,273.067z"/>
<path d="M349.867,170.667c-2.261-0.034-4.42-0.913-6.059-2.475c-0.367-0.41-0.708-0.836-1.024-1.28  c-0.324-0.478-0.58-0.99-0.768-1.536c-0.247-0.486-0.418-0.998-0.512-1.536c-0.102-0.563-0.154-1.135-0.171-1.707  c0.034-2.261,0.913-4.42,2.475-6.059c2.065-1.98,4.958-2.833,7.765-2.304c0.538,0.094,1.05,0.265,1.536,0.512  c0.546,0.188,1.058,0.444,1.536,0.768c0.427,0.341,0.853,0.683,1.28,1.024c1.562,1.638,2.441,3.797,2.475,6.059  c-0.017,0.572-0.077,1.143-0.171,1.707c-0.094,0.538-0.264,1.05-0.512,1.536c-0.188,0.546-0.444,1.058-0.768,1.536  c-0.341,0.427-0.683,0.853-1.024,1.28c-0.427,0.341-0.853,0.683-1.28,1.024c-0.478,0.324-0.99,0.58-1.536,0.768  c-0.486,0.247-1.007,0.418-1.536,0.512C351.01,170.59,350.438,170.65,349.867,170.667z"/>
<path d="M221.867,119.467c-4.668-0.043-8.414-3.866-8.371-8.533s3.866-8.414,8.533-8.371c4.668,0.043,8.414,3.866,8.371,8.533  c-0.026,2.21-0.913,4.326-2.475,5.897c-0.427,0.341-0.853,0.683-1.365,1.024c-0.435,0.341-0.922,0.597-1.451,0.768  c-0.486,0.247-1.007,0.418-1.536,0.512C223.01,119.398,222.438,119.45,221.867,119.467z"/>
<path d="M128,153.6c-2.261-0.034-4.42-0.913-6.059-2.475c-0.341-0.427-0.683-0.853-1.024-1.28c-0.324-0.478-0.58-0.99-0.768-1.536  c-0.247-0.486-0.418-0.998-0.512-1.536c-0.102-0.563-0.154-1.135-0.171-1.707c0-4.71,3.823-8.533,8.533-8.533  s8.533,3.823,8.533,8.533c-0.017,0.572-0.077,1.143-0.171,1.707c-0.094,0.538-0.265,1.05-0.512,1.536  c-0.188,0.546-0.444,1.058-0.768,1.536c-0.341,0.427-0.683,0.853-1.024,1.28C132.42,152.678,130.261,153.566,128,153.6z"/>
<path d="M93.867,221.867c-2.261-0.034-4.42-0.913-6.059-2.475c-0.751-0.828-1.365-1.783-1.792-2.816  c-0.444-1.024-0.674-2.125-0.683-3.243c0.017-0.572,0.077-1.143,0.171-1.707c0.094-0.538,0.265-1.05,0.512-1.536  c0.188-0.546,0.444-1.058,0.768-1.536c0.341-0.427,0.683-0.853,1.024-1.28c0.427-0.341,0.853-0.683,1.28-1.024  c0.478-0.324,0.99-0.58,1.536-0.768c0.486-0.247,0.998-0.418,1.536-0.512c1.664-0.35,3.396-0.171,4.949,0.512  c1.033,0.435,1.988,1.041,2.816,1.792c0.341,0.427,0.683,0.853,1.024,1.28c0.324,0.478,0.58,0.99,0.768,1.536  c0.247,0.486,0.418,1.007,0.512,1.536c0.094,0.563,0.154,1.135,0.171,1.707c-0.017,1.118-0.247,2.219-0.683,3.243  c-0.777,2.142-2.466,3.831-4.608,4.608C96.085,221.619,94.985,221.85,93.867,221.867z"/>
<path d="M145.067,230.4c-0.572-0.017-1.143-0.068-1.707-0.171c-0.538-0.094-1.05-0.265-1.536-0.512  c-0.546-0.188-1.058-0.444-1.536-0.768c-0.452-0.316-0.879-0.657-1.28-1.024c-0.341-0.427-0.683-0.853-1.024-1.28  c-0.324-0.478-0.58-0.99-0.768-1.536c-0.247-0.486-0.418-0.998-0.512-1.536c-0.102-0.563-0.154-1.135-0.171-1.707  c0.009-1.118,0.239-2.219,0.683-3.243c0.435-1.033,1.041-1.988,1.792-2.816c0.401-0.367,0.828-0.708,1.28-1.024  c0.478-0.324,0.99-0.58,1.536-0.768c0.486-0.247,0.998-0.418,1.536-0.512c1.664-0.35,3.396-0.171,4.949,0.512  c2.142,0.777,3.831,2.466,4.608,4.608c0.478,1.015,0.717,2.125,0.683,3.243c-0.017,0.572-0.077,1.143-0.171,1.707  c-0.094,0.538-0.265,1.05-0.512,1.536c-0.188,0.546-0.444,1.058-0.768,1.536c-0.341,0.427-0.683,0.853-1.024,1.28  c-0.828,0.751-1.783,1.357-2.816,1.792C147.285,230.153,146.185,230.383,145.067,230.4z"/>
<path d="M230.4,247.467c-1.118-0.017-2.219-0.247-3.243-0.683c-2.142-0.777-3.831-2.466-4.608-4.608  c-0.435-1.024-0.674-2.125-0.683-3.243c0.034-2.261,0.913-4.42,2.475-6.059c0.828-0.751,1.783-1.365,2.816-1.792  c3.183-1.34,6.852-0.631,9.301,1.792c1.562,1.638,2.441,3.797,2.475,6.059c-0.017,1.118-0.247,2.219-0.683,3.243  c-0.435,1.033-1.041,1.988-1.792,2.816C234.82,246.545,232.661,247.433,230.4,247.467z"/>
<path d="M204.8,273.067c-0.572-0.017-1.143-0.077-1.707-0.171c-0.538-0.094-1.05-0.265-1.536-0.512  c-0.546-0.188-1.058-0.444-1.536-0.768c-0.427-0.341-0.853-0.683-1.28-1.024c-0.751-0.828-1.365-1.783-1.792-2.816  c-0.444-1.024-0.674-2.125-0.683-3.243c0.034-2.261,0.913-4.42,2.475-6.059c0.401-0.367,0.828-0.708,1.28-1.024  c0.478-0.324,0.99-0.58,1.536-0.768c0.486-0.247,0.998-0.418,1.536-0.512c1.664-0.35,3.396-0.171,4.949,0.512  c1.041,0.418,1.997,1.024,2.816,1.792c1.562,1.638,2.441,3.797,2.475,6.059c-0.017,1.118-0.247,2.219-0.683,3.243  c-0.435,1.033-1.041,1.988-1.792,2.816c-0.819,0.768-1.775,1.374-2.816,1.792C207.019,272.819,205.918,273.05,204.8,273.067z"/>
<path d="M162.133,170.667c-2.261-0.034-4.42-0.913-6.059-2.475c-3.302-3.362-3.302-8.755,0-12.117  c2.449-2.423,6.118-3.132,9.301-1.792c1.033,0.435,1.988,1.041,2.816,1.792c1.562,1.638,2.441,3.797,2.475,6.059  c-0.017,0.572-0.077,1.143-0.171,1.707c-0.094,0.538-0.265,1.05-0.512,1.536c-0.188,0.546-0.444,1.058-0.768,1.536  c-0.316,0.444-0.657,0.87-1.024,1.28c-0.828,0.751-1.783,1.357-2.816,1.792C164.352,170.419,163.251,170.65,162.133,170.667z"/>
<path id="SVGCleanerId_0" d="M204.8,401.067c-4.71,0-8.533-3.823-8.533-8.533v-102.4c0-4.71,3.823-8.533,8.533-8.533  c4.71,0,8.533,3.823,8.533,8.533v102.4C213.333,397.244,209.51,401.067,204.8,401.067z"/>
<path d="M132.386,285.867l-8.149-3.251c-57.259-22.869-90.103-57.446-90.103-94.882V179.2h250.052l-149.137,99.422L132.386,285.867z   M51.977,196.267c4.719,25.899,30.797,50.295,73.344,68.335l102.494-68.335H51.977z"/>
<path d="M256,307.2h-8.533V171.785L390.98,267.46l4.625,11.913l-7.825,3.14C345.771,298.889,301.082,307.26,256,307.2z   M264.533,203.682v86.34c34.859-0.947,69.393-7.014,102.494-18.014L264.533,203.682z"/>
<path d="M221.867,469.333c-14.131-0.017-25.583-11.469-25.6-25.6v-27.059c-13.329,4.71-27.964-2.278-32.674-15.616  c-0.964-2.739-1.459-5.623-1.459-8.525V294.98c-12.86-3.362-25.506-7.484-37.871-12.365l-7.74-3.063l4.429-12.049l143.582-95.718  V307.2H256c-2.833,0-5.675-0.043-8.533-0.119v136.653C247.45,457.865,235.998,469.316,221.867,469.333z M213.333,392.533v51.2  c0,4.71,3.823,8.533,8.533,8.533c4.71,0,8.533-3.823,8.533-8.533V289.323l8.909,0.393c2.722,0.119,5.444,0.222,8.158,0.299v-86.332  l-102.528,68.352c8.951,3.021,18.227,5.709,27.742,8.021l6.519,1.579v110.899c0,4.71,3.823,8.533,8.533,8.533  c4.71,0,8.533-3.823,8.533-8.533H213.333z"/>
<g>
	<path id="SVGCleanerId_0_1_" d="M204.8,401.067c-4.71,0-8.533-3.823-8.533-8.533v-102.4c0-4.71,3.823-8.533,8.533-8.533   c4.71,0,8.533,3.823,8.533,8.533v102.4C213.333,397.244,209.51,401.067,204.8,401.067z"/>
</g>
<g>
</g>
<g>
</g>
<g>
</g>
<g>
</g>
<g>
</g>
<g>
</g>
<g>
</g>
<g>
</g>
<g>
</g>
<g>
</g>
<g>
</g>
<g>
</g>
<g>
</g>
<g>
</g>
<g>
</g>
</svg>
