<?xml version="1.0" encoding="iso-8859-1"?>
<!-- Generator: Adobe Illustrator 19.0.0, SVG Export Plug-In . SVG Version: 6.00 Build 0)  -->
<svg xmlns="http://www.w3.org/2000/svg" xmlns:xlink="http://www.w3.org/1999/xlink" version="1.1" id="Capa_1" x="0px" y="0px" viewBox="0 0 511.99 511.99" style="enable-background:new 0 0 511.99 511.99;" xml:space="preserve">
<path style="fill:#FDD834;" d="M392.565,145.074c0.009,38.25-16.101,74.735-44.368,100.511l-16.553,65.272  c-0.444,1.988-1.416,3.814-2.816,5.29v0.085c-4.181,4.266-10.921,2.816-13.14-4.693l-8.447-27.73l-8.532,22.44l-0.939,2.389  c-1.536,4.198-6.169,6.348-10.367,4.821c-2.235-0.819-4.002-2.585-4.821-4.821l-9.471-24.829l-8.703,40.187  c-1.015,4.616-5.589,7.534-10.205,6.519c-3.259-0.717-5.802-3.259-6.519-6.519l-8.703-40.187l-9.983,19.71  c-1.98,3.908-6.758,5.478-10.665,3.498c-1.51-0.759-2.73-1.988-3.498-3.498l-9.983-19.71l-8.874,23.293  c-2.474,6.57-8.618,7.85-12.543,4.181l-0.085-0.085v-0.085c-1.305-1.28-2.27-2.867-2.816-4.607l-1.962-7.167l-14.505-53.583  c-55.699-50.708-59.743-136.97-9.036-192.669c21.877-24.027,51.621-39.462,83.864-43.506c0.512-0.085,0.939-0.085,1.451-0.171  C315.28,0.775,383.026,54.511,391.67,129.451C392.258,134.639,392.565,139.852,392.565,145.074z"/>
<path style="fill:#FFEB3A;" d="M358.436,145.074c0.009,38.25-16.101,74.735-44.368,100.511l-15.358,60.665l-1.195,4.607  c-2.474,9.983-13.054,10.409-15.955,0.683l-8.447-27.73l-9.471,24.829c-1.536,4.198-6.169,6.348-10.367,4.821  c-2.235-0.819-4.002-2.585-4.821-4.821l-9.471-24.829l-9.983,19.71c-1.98,3.908-6.758,5.478-10.665,3.498  c-1.51-0.759-2.73-1.988-3.498-3.498l-9.983-19.71l-9.983,19.71c-1.98,3.908-6.758,5.478-10.665,3.498  c-1.51-0.759-2.73-1.988-3.498-3.498l-2.133-4.181l-14.505-53.583c-55.699-50.708-59.743-136.97-9.036-192.669  c21.877-24.027,51.621-39.462,83.864-43.506C307.199,18.164,358.428,76.235,358.436,145.074z"/>
<path d="M328.411,225.969c-4.71,0-8.532-3.822-8.532-8.532c0-2.261,0.896-4.428,2.5-6.032c17.636-17.568,27.542-41.442,27.525-66.33  c0-4.71,3.823-8.532,8.532-8.532s8.532,3.822,8.532,8.532c0.017,29.419-11.681,57.636-32.525,78.395  C332.848,225.073,330.672,225.977,328.411,225.969z"/>
<path d="M256.048,339.278c-8.046,0.043-15.008-5.572-16.672-13.438l-3.669-16.885c-5,7.611-15.222,9.735-22.841,4.735  c-2.406-1.578-4.36-3.763-5.657-6.331l-1.237-2.44l-1.979,5.205c-2.543,8.643-11.613,13.592-20.256,11.049  c-5.665-1.664-9.991-6.271-11.305-12.031l-15.998-58.839c-34.291-32.09-50.75-78.907-44.07-125.391  C121.834,59.648,173.882,8.846,239.359,0.971c79.598-9.189,151.577,47.883,160.775,127.482c0.64,5.52,0.956,11.075,0.956,16.63  c-0.094,39.71-16.433,77.661-45.221,105.016l-15.938,62.9c-1.468,7.824-8.072,13.643-16.015,14.104  c-7.833-0.085-14.607-5.486-16.433-13.106l-1.143-3.771l-0.563,1.476c-3.276,8.618-12.926,12.952-21.544,9.676  c-3.805-1.451-6.954-4.232-8.848-7.833l-2.671,12.304C271.056,333.707,264.086,339.321,256.048,339.278z M238.975,275.303  c0.367,0,0.734,0.026,1.092,0.068c3.584,0.461,6.485,3.123,7.252,6.647l8.729,40.187l8.729-40.187  c0.998-4.607,5.546-7.526,10.145-6.527c2.816,0.614,5.137,2.611,6.16,5.307l9.428,24.829l8.746-24.829  c1.195-3.49,4.582-5.742,8.268-5.503c3.643,0.128,6.809,2.551,7.867,6.041l8.157,26.817l16.391-64.701  c0.41-1.613,1.28-3.072,2.5-4.189c52.064-47.764,55.554-128.693,7.79-180.758S221.552,2.967,169.479,50.732  c-21.86,20.06-36.075,47.09-40.204,76.467c-6.007,41.817,9.172,83.881,40.512,112.217c1.195,1.092,2.056,2.5,2.474,4.061  l16.177,59.539l8.438-22.21c1.672-4.403,6.596-6.621,11.007-4.949c1.988,0.751,3.618,2.227,4.582,4.121l9.454,18.66l9.454-18.66  C232.823,277.112,235.767,275.303,238.975,275.303L238.975,275.303z"/>
<path d="M175.144,295.345c-3.225,0.009-6.169-1.826-7.577-4.727l-0.085-0.171c-1.98-4.241-0.145-9.292,4.104-11.271  s9.292-0.145,11.271,4.104c1.98,4.241,0.145,9.292-4.104,11.271C177.627,295.081,176.39,295.354,175.144,295.345L175.144,295.345z"/>
<path id="SVGCleanerId_0" d="M183.378,319.799c-2.167,0-4.258-0.836-5.819-2.329c-1.715-1.63-2.705-3.891-2.739-6.263  c0.026-4.718,3.874-8.532,8.592-8.507c4.718,0.026,8.532,3.874,8.507,8.592C191.893,315.993,188.079,319.79,183.378,319.799  L183.378,319.799z"/>
<path id="SVGCleanerId_1" d="M328.82,324.722c-4.693,0.017-8.507-3.763-8.532-8.456c0-0.009,0-0.017,0-0.034v-0.085  c0.026-4.71,3.865-8.515,8.575-8.49c4.71,0.026,8.515,3.865,8.49,8.575C337.336,320.925,333.522,324.722,328.82,324.722  L328.82,324.722z"/>
<g>
	<path style="fill:#F57C00;" d="M204.854,283.809l1.621,3.157l-7.252,14.334c-0.435,0.904-1.075,1.698-1.877,2.304L204.854,283.809z   "/>
	<polygon style="fill:#F57C00;" points="268.932,304.031 268.505,305.14 273.113,283.809 274.905,288.417  "/>
	<path style="fill:#F57C00;" d="M315.689,311.539l-8.447-27.73l-8.532,22.44l-0.939,2.389c-1.416,3.925-5.606,6.109-9.642,5.034   c0-0.043-0.034-0.085-0.085-0.085l0,0c-2.56-0.589-4.625-2.457-5.461-4.949l-7.679-20.222l-5.973,15.614l-0.427,1.109   l-4.096,18.856c-1.015,4.616-5.589,7.534-10.205,6.519c-3.259-0.717-5.802-3.259-6.519-6.519l-6.741-31.228l-1.962-8.959   l-9.983,19.71c-1.98,3.908-6.758,5.478-10.665,3.498c-1.51-0.759-2.73-1.988-3.498-3.498l-1.536-3.072l-6.826-13.481l-7.252,14.334   c-0.435,0.904-1.075,1.698-1.877,2.304l-1.365,3.498c-2.474,6.57-8.618,7.85-12.543,4.181l60.75,180.886l0.171,0.597   c2.969,8.362,12.167,12.73,20.529,9.761c4.735-1.681,8.413-5.486,9.932-10.273l54.01-176.022   C324.648,320.498,317.908,319.048,315.689,311.539z"/>
</g>
<g>
	<path style="fill:#FF9801;" d="M299.051,314.014l-54.01,176.022c-0.256,0.768-0.597,1.451-0.853,2.133l-60.75-180.886   c3.925,3.669,10.068,2.389,12.543-4.181l1.365-3.498c0.802-0.606,1.442-1.399,1.877-2.304l7.252-14.334l6.826,13.481l1.536,3.072   c1.98,3.908,6.758,5.478,10.665,3.498c1.51-0.759,2.73-1.988,3.498-3.498l9.983-19.71l1.962,8.959l6.741,31.228   c1.015,4.616,5.589,7.534,10.205,6.519c3.259-0.717,5.802-3.259,6.519-6.519l4.096-18.856l0.427-1.109l5.973-15.614l7.679,20.222   c0.836,2.491,2.901,4.36,5.461,4.949c0.043,0,0.085,0.034,0.085,0.085l0,0c2.466,3.097,6.979,3.609,10.077,1.135   C298.505,314.568,298.787,314.304,299.051,314.014z"/>
	<polygon style="fill:#FF9801;" points="209.206,281.591 213.301,300.447 206.475,286.966  "/>
	<path style="fill:#FF9801;" d="M288.044,313.587c-2.56-0.589-4.625-2.457-5.461-4.949l-7.679-20.222l2.56-6.826l8.447,27.73   C286.355,310.857,287.08,312.307,288.044,313.587z"/>
</g>
<path d="M259.495,511.99c-10.307-0.034-19.513-6.467-23.097-16.135l-61.057-181.85c-1.502-4.471,0.913-9.309,5.384-10.81  c2.432-0.819,5.102-0.495,7.278,0.879l8.874-23.302c1.203-3.157,4.155-5.307,7.526-5.486c3.387-0.222,6.57,1.621,8.055,4.667  l9.462,18.669l9.454-18.669c2.133-4.206,7.261-5.887,11.467-3.754c2.295,1.16,3.942,3.294,4.488,5.802l8.703,40.187l8.746-40.187  c0.998-4.607,5.538-7.534,10.145-6.536c2.816,0.614,5.137,2.602,6.169,5.299l9.471,24.829l0.213-2.466l8.498-22.355  c1.246-3.447,4.599-5.683,8.259-5.495c3.643,0.119,6.809,2.551,7.875,6.041l8.447,27.73l0.068,0.213  c3.857-2.705,9.181-1.775,11.894,2.09c1.51,2.15,1.945,4.872,1.177,7.389l-54.01,176.022c-3.225,10.068-12.474,16.979-23.046,17.227  H259.495z M195.409,320.132l57.039,169.922c1.067,3.029,3.985,5,7.193,4.872c3.319-0.077,6.203-2.295,7.124-5.486l50.238-163.753  c-4.718-2.346-8.183-6.63-9.496-11.732l-1.16-3.805l-0.631,1.613c-3.251,8.584-12.841,12.901-21.425,9.642  c-3.831-1.45-6.988-4.275-8.874-7.909l-2.671,12.304c-2.014,9.223-11.126,15.068-20.35,13.054  c-6.519-1.425-11.621-6.51-13.054-13.037l-3.652-16.851c-4.991,7.611-15.205,9.727-22.815,4.735  c-2.423-1.587-4.377-3.788-5.683-6.374l-1.246-2.457l-2.005,5.264C202.448,314.423,199.402,317.981,195.409,320.132z"/>
<g>
	<path id="SVGCleanerId_0_1_" d="M183.378,319.799c-2.167,0-4.258-0.836-5.819-2.329c-1.715-1.63-2.705-3.891-2.739-6.263   c0.026-4.718,3.874-8.532,8.592-8.507c4.718,0.026,8.532,3.874,8.507,8.592C191.893,315.993,188.079,319.79,183.378,319.799   L183.378,319.799z"/>
</g>
<g>
	<path id="SVGCleanerId_1_1_" d="M328.82,324.722c-4.693,0.017-8.507-3.763-8.532-8.456c0-0.009,0-0.017,0-0.034v-0.085   c0.026-4.71,3.865-8.515,8.575-8.49c4.71,0.026,8.515,3.865,8.49,8.575C337.336,320.925,333.522,324.722,328.82,324.722   L328.82,324.722z"/>
</g>
<path d="M256.048,255.994c-29.428,0.034-57.653-11.655-78.429-32.491c-3.328-3.328-3.328-8.737,0-12.065s8.737-3.328,12.065,0l0,0  c8.549,8.575,18.686,15.401,29.838,20.119c23.37,9.778,49.684,9.778,73.062,0c4.343-1.834,9.343,0.196,11.186,4.531  c1.843,4.334-0.196,9.343-4.531,11.186C285.561,253.059,270.877,256.02,256.048,255.994z"/>
<path d="M196.322,68.283c-4.71,0-8.532-3.822-8.532-8.532c0-2.261,0.896-4.428,2.5-6.032l8.532-8.532  c3.362-3.302,8.763-3.251,12.065,0.111c3.259,3.319,3.259,8.635,0,11.954l-8.532,8.532C200.75,67.387,198.583,68.283,196.322,68.283  z"/>
<path d="M162.192,153.606c-4.71,0-8.532-3.822-8.532-8.532c0-2.261,0.896-4.428,2.5-6.032l8.532-8.532  c3.362-3.302,8.763-3.251,12.065,0.111c3.259,3.319,3.259,8.635,0,11.954l-8.532,8.532  C166.621,152.71,164.453,153.606,162.192,153.606z"/>
<path d="M213.386,145.074c-2.261,0-4.437-0.896-6.032-2.5l-8.532-8.532c-3.302-3.362-3.251-8.763,0.111-12.065  c3.319-3.259,8.635-3.259,11.954,0l8.532,8.532c3.328,3.336,3.328,8.737,0,12.065C217.815,144.178,215.647,145.074,213.386,145.074z  "/>
<path d="M162.192,102.412c-4.71,0-8.532-3.822-8.532-8.532c0-2.261,0.896-4.428,2.5-6.032l8.532-8.532  c3.362-3.302,8.763-3.251,12.065,0.111c3.259,3.319,3.259,8.635,0,11.954l-8.532,8.532  C166.621,101.516,164.453,102.412,162.192,102.412z"/>
<path d="M238.983,59.75c-4.71,0-8.532-3.822-8.532-8.532c0-2.261,0.896-4.428,2.5-6.032l8.532-8.532  c3.362-3.302,8.763-3.251,12.065,0.111c3.259,3.319,3.259,8.635,0,11.954l-8.532,8.532C243.412,58.854,241.244,59.75,238.983,59.75z  "/>
<path d="M290.177,59.75c-2.261,0-4.437-0.896-6.032-2.5l-8.532-8.532c-3.302-3.362-3.251-8.763,0.111-12.065  c3.319-3.259,8.635-3.259,11.954,0l8.532,8.532c3.328,3.336,3.328,8.737,0,12.065C294.606,58.854,292.438,59.75,290.177,59.75z"/>
<path d="M213.386,102.412c-2.261,0-4.437-0.896-6.032-2.5l-8.532-8.532c-3.302-3.362-3.251-8.763,0.111-12.065  c3.319-3.259,8.635-3.259,11.954,0l8.532,8.532c3.328,3.336,3.328,8.737,0,12.065C217.815,101.516,215.647,102.412,213.386,102.412z  "/>
<path d="M247.516,102.412c-4.71,0-8.532-3.822-8.532-8.532c0-2.261,0.896-4.428,2.5-6.032l8.532-8.532  c3.362-3.302,8.763-3.251,12.065,0.111c3.259,3.319,3.259,8.635,0,11.954l-8.532,8.532  C251.944,101.516,249.777,102.412,247.516,102.412z"/>
<path d="M298.71,102.412c-2.261,0-4.437-0.896-6.032-2.5l-8.532-8.532c-3.302-3.362-3.251-8.763,0.111-12.065  c3.319-3.259,8.635-3.259,11.954,0l8.532,8.532c3.328,3.336,3.328,8.737,0,12.065C303.138,101.516,300.971,102.412,298.71,102.412z"/>
<path d="M332.839,102.412c-4.71,0-8.532-3.822-8.532-8.532c0-2.261,0.896-4.428,2.5-6.032l8.532-8.532  c3.362-3.302,8.763-3.251,12.065,0.111c3.259,3.319,3.259,8.635,0,11.954l-8.532,8.532  C337.267,101.516,335.1,102.412,332.839,102.412z"/>
<g>
</g>
<g>
</g>
<g>
</g>
<g>
</g>
<g>
</g>
<g>
</g>
<g>
</g>
<g>
</g>
<g>
</g>
<g>
</g>
<g>
</g>
<g>
</g>
<g>
</g>
<g>
</g>
<g>
</g>
</svg>
