<?xml version="1.0" encoding="iso-8859-1"?>
<!-- Generator: Adobe Illustrator 19.0.0, SVG Export Plug-In . SVG Version: 6.00 Build 0)  -->
<svg xmlns="http://www.w3.org/2000/svg" xmlns:xlink="http://www.w3.org/1999/xlink" version="1.1" id="Capa_1" x="0px" y="0px" viewBox="0 0 511.997 511.997" style="enable-background:new 0 0 511.997 511.997;" xml:space="preserve">
<path style="fill:#CFD8DC;" d="M503.467,230.501c-0.043,53.286-40.342,97.937-93.347,103.415  c-28.303,2.978-52.877,20.785-64.507,46.759l-25.854,58.278c-15.359,34.668-52.979,53.738-90.019,45.65  c-0.512-0.085-1.024-0.256-1.536-0.341c-24.045-6.033-44.045-22.68-54.353-45.223l-14.676-30.973  c-12.159-25.402-34.165-44.728-60.923-53.5c-25.692-8.558-48.133-24.821-64.251-46.588c-42.8-58.21-30.316-140.106,27.902-182.905  c17.859-13.132,38.764-21.511,60.752-24.352c9.215-1.271,18.55-1.468,27.816-0.597c0.802,0.017,1.596,0.068,2.389,0.171l7.594,0.768  c23.098,2.398,46.17-4.719,63.909-19.71l49.66-42.066c5.939-5.051,12.85-8.823,20.308-11.092c12.415-3.84,25.76-3.387,37.885,1.28  c15.205,6.161,27.236,18.277,33.277,33.533l19.71,47.441c3.729,8.934,12.04,15.12,21.673,16.127  c52.45,4.795,93.492,47.254,96.504,99.832C503.467,227.77,503.467,229.136,503.467,230.501z"/>
<path style="fill:#F5F5F5;" d="M469.336,230.501c-0.043,53.286-40.342,97.937-93.347,103.415  c-28.303,2.978-52.877,20.785-64.507,46.759l-25.854,58.278c-10.299,23.251-31.05,40.197-55.889,45.65  c-0.512-0.085-1.024-0.256-1.536-0.341c-24.045-6.033-44.045-22.68-54.353-45.223l-14.676-30.973  c-12.159-25.402-34.165-44.728-60.923-53.5c-25.692-8.558-48.133-24.821-64.251-46.588c-42.8-58.21-30.316-140.106,27.902-182.905  c17.859-13.132,38.764-21.511,60.752-24.352l3.669,0.341c8.055,0.845,16.186,0.529,24.147-0.939  c0.802,0.017,1.596,0.068,2.389,0.171l7.594,0.768c23.098,2.398,46.17-4.719,63.909-19.71l49.66-42.066  c5.939-5.051,12.85-8.823,20.308-11.092c1.28,0.333,2.534,0.768,3.754,1.28c15.205,6.161,27.236,18.277,33.277,33.533l19.71,47.441  c3.729,8.934,12.04,15.12,21.673,16.127c52.45,4.795,93.492,47.254,96.504,99.832C469.336,227.77,469.336,229.136,469.336,230.501z"/>
<path d="M246.549,494.884c-6.818,0-13.618-0.785-20.256-2.338c-26.545-6.681-48.653-25.009-60.138-49.856l-14.668-30.956  c-11.203-23.277-31.4-40.991-55.94-49.054C22.491,338.464-17.1,259.623,7.115,186.566C27.688,124.492,88.67,85.071,153.723,91.795  l7.586,0.785c20.785,2.099,41.528-4.309,57.51-17.765l49.66-42.015c18.541-15.632,44.105-19.949,66.751-11.289  c17.389,6.997,31.153,20.803,38.107,38.209l19.779,47.467c2.509,6.033,8.123,10.214,14.625,10.879l0.205,0.026  c56.58,5.358,100.753,51.23,103.979,107.972c2.142,59.276-41.955,110.096-100.932,116.351  c-25.257,2.645-47.185,18.567-57.535,41.759l-25.905,58.278C313.257,474.38,281.533,494.918,246.549,494.884z M139.431,108.126  c-67.536-0.017-122.298,54.711-122.324,122.247c-0.017,52.723,33.764,99.525,83.807,116.112c28.96,9.548,52.783,30.47,65.991,57.954  l14.668,30.956c9.249,20.154,27.1,35.052,48.585,40.538c33.422,7.876,67.74-9.079,81.794-40.411l25.905-58.278  c12.833-28.772,40.035-48.517,71.367-51.802c50.044-5.307,87.451-48.431,85.633-98.722c-2.876-48.329-40.649-87.297-88.867-91.666  l-0.222-0.026c-12.645-1.374-23.533-9.531-28.414-21.272l-19.779-47.467c-5.145-13.081-15.418-23.49-28.431-28.823  c-16.843-6.442-35.854-3.242-49.66,8.362l-49.66,42.015c-19.523,16.451-44.882,24.284-70.283,21.707l-7.585-0.785  C147.801,108.339,143.62,108.126,139.431,108.126z"/>
<path d="M108.978,330.725c-0.913,0-1.817-0.145-2.688-0.435c-43.073-14.224-72.152-54.489-72.118-99.849  c0-4.71,3.823-8.533,8.533-8.533s8.533,3.823,8.533,8.533c-0.034,38.004,24.335,71.734,60.428,83.654  c4.471,1.485,6.894,6.314,5.41,10.794C115.915,328.37,112.655,330.725,108.978,330.725z"/>
<path d="M246.822,460.796c-21.664,0.077-41.272-12.799-49.813-32.706l-14.676-30.965c-2.022-4.258-0.205-9.352,4.062-11.365  c4.258-2.014,9.352-0.205,11.365,4.062l0,0l14.676,30.965c4.761,10.768,14.13,18.814,25.495,21.903  c17.475,4.13,35.427-4.676,42.842-21.024c1.911-4.309,6.954-6.246,11.263-4.335c4.309,1.911,6.246,6.954,4.335,11.263  C287.651,448.168,268.248,460.779,246.822,460.796z"/>
<path d="M406.587,308.515c-4.71-0.009-8.524-3.831-8.524-8.541c0.009-4.369,3.311-8.021,7.654-8.473  c32.177-3.422,56.221-31.153,55.044-63.483c-2.167-31.366-26.938-56.443-58.278-59.003l-2.44-0.256  c-0.41-0.043-0.819-0.111-1.22-0.213c-4.616-1.152-7.466-5.794-6.399-10.435c1.032-4.488,5.504-7.295,9.992-6.263h0.009l1.817,0.188  c39.771,3.464,71.043,35.487,73.568,75.335c1.493,41.315-29.233,76.742-70.343,81.103  C407.184,308.498,406.886,308.515,406.587,308.515z"/>
<path style="fill:#FFB301;" d="M247.488,230.416c0,42.407-34.386,76.794-76.794,76.794c-5.742-0.009-11.459-0.64-17.065-1.877  c-41.375-9.454-67.254-50.658-57.8-92.033c6.57-28.763,29.037-51.221,57.8-57.8c5.606-1.237,11.323-1.869,17.065-1.877  C213.11,153.622,247.488,188,247.488,230.416z"/>
<path style="fill:#FEC108;" d="M213.357,230.416c-0.009,35.846-24.787,66.93-59.728,74.916c-41.375-9.454-67.254-50.658-57.8-92.033  c6.57-28.763,29.037-51.221,57.8-57.8C188.579,163.486,213.357,194.57,213.357,230.416z"/>
<path d="M170.694,315.742c-47.126,0-85.326-38.201-85.326-85.326s38.201-85.326,85.326-85.326s85.326,38.201,85.326,85.326  C255.969,277.516,217.803,315.691,170.694,315.742z M170.694,162.155c-37.697,0-68.261,30.564-68.261,68.261  s30.564,68.261,68.261,68.261s68.261-30.564,68.261-68.261C238.913,192.736,208.383,162.197,170.694,162.155z"/>
<ellipse transform="matrix(-0.7071 0.7071 -0.7071 -0.7071 412.7898 247.4351)" style="fill:#F5F5F5;" cx="155.149" cy="209.209" rx="22.108" ry="19.975"/>
<path d="M152.998,238.769c-7.304,0.077-14.335-2.773-19.523-7.91c-11.092-11.98-10.418-30.675,1.51-41.818  c5.521-5.606,12.935-8.959,20.794-9.411c7.816-0.495,15.47,2.381,21.033,7.893l0,0l0,0l0,0c5.521,5.555,8.396,13.217,7.893,21.033  C183.638,225.356,169.832,238.513,152.998,238.769z M157.281,196.652c-0.213,0-0.427,0-0.64,0.017  c-3.635,0.239-7.056,1.817-9.591,4.428c-5.248,4.497-5.913,12.372-1.51,17.688c5.324,4.403,13.191,3.737,17.688-1.51  c2.611-2.534,4.19-5.956,4.428-9.591c0.23-2.995-0.836-5.939-2.918-8.097l0,0C162.742,197.65,160.054,196.592,157.281,196.652  L157.281,196.652z"/>
<g>
</g>
<g>
</g>
<g>
</g>
<g>
</g>
<g>
</g>
<g>
</g>
<g>
</g>
<g>
</g>
<g>
</g>
<g>
</g>
<g>
</g>
<g>
</g>
<g>
</g>
<g>
</g>
<g>
</g>
</svg>
