<?xml version="1.0" encoding="iso-8859-1"?>
<!-- Generator: Adobe Illustrator 19.0.0, SVG Export Plug-In . SVG Version: 6.00 Build 0)  -->
<svg xmlns="http://www.w3.org/2000/svg" xmlns:xlink="http://www.w3.org/1999/xlink" version="1.1" id="Capa_1" x="0px" y="0px" viewBox="0 0 512 512" style="enable-background:new 0 0 512 512;" xml:space="preserve">
<path style="fill:#37474F;" d="M366.933,89.6c0,26.027-16.725,49.152-42.837,64H187.904c-26.112-14.848-42.837-37.973-42.837-64  c0-40.533,40.619-74.069,93.696-80.128h0.341c5.615-0.614,11.255-0.93,16.896-0.939C317.269,8.533,366.933,44.8,366.933,89.6z"/>
<path style="fill:#607D8B;" d="M332.8,89.6c0,26.027-16.725,49.152-42.837,64H187.904c-26.112-14.848-42.837-37.973-42.837-64  c0-40.533,40.619-74.069,93.696-80.128h0.341C292.181,15.531,332.8,49.067,332.8,89.6z"/>
<rect x="145.067" y="187.733" style="fill:#1566C0;" width="221.867" height="281.6"/>
<rect x="145.067" y="187.733" style="fill:#2296F3;" width="187.733" height="281.6"/>
<path d="M366.933,477.867H145.067c-4.71,0-8.533-3.814-8.533-8.525c0,0,0,0,0-0.009v-281.6c0-4.71,3.814-8.533,8.525-8.533  c0,0,0,0,0.009,0h221.867c4.71,0,8.533,3.814,8.533,8.525c0,0,0,0,0,0.009v281.6C375.467,474.044,371.652,477.867,366.933,477.867  L366.933,477.867z M153.6,460.8h204.8V196.267H153.6V460.8z"/>
<g>
	<path style="fill:#37474F;" d="M136.533,469.333h238.933c9.429,0,17.067,7.637,17.067,17.067v8.533c0,4.71-3.823,8.533-8.533,8.533   H128c-4.71,0-8.533-3.823-8.533-8.533V486.4C119.467,476.971,127.104,469.333,136.533,469.333z"/>
	<path style="fill:#37474F;" d="M128,153.6h256c4.71,0,8.533,3.823,8.533,8.533v8.533c0,9.429-7.637,17.067-17.067,17.067H136.533   c-9.429,0-17.067-7.637-17.067-17.067v-8.533C119.467,157.423,123.29,153.6,128,153.6z"/>
</g>
<g>
	<path style="fill:#607D8B;" d="M136.533,469.333h204.8c9.429,0,17.067,7.637,17.067,17.067v8.533c0,4.71-3.823,8.533-8.533,8.533   H128c-4.71,0-8.533-3.823-8.533-8.533V486.4C119.467,476.971,127.104,469.333,136.533,469.333z"/>
	<path style="fill:#607D8B;" d="M128,153.6h221.867c4.71,0,8.533,3.823,8.533,8.533v8.533c0,9.429-7.637,17.067-17.067,17.067   h-204.8c-9.429,0-17.067-7.637-17.067-17.067v-8.533C119.467,157.423,123.29,153.6,128,153.6z"/>
</g>
<path d="M384,512H128c-9.421-0.009-17.058-7.646-17.067-17.067V486.4c0.017-14.131,11.469-25.583,25.6-25.6h238.933  c14.131,0.017,25.583,11.469,25.6,25.6v8.533C401.058,504.354,393.421,511.991,384,512z M136.533,477.867  c-4.71,0.009-8.525,3.823-8.533,8.533v8.533h256.009L384,486.4c-0.009-4.71-3.823-8.525-8.533-8.533H136.533z"/>
<path d="M375.467,196.267H136.533c-14.131-0.017-25.583-11.469-25.6-25.6v-8.533c0.009-9.421,7.646-17.058,17.067-17.067h256  c9.421,0.009,17.058,7.646,17.067,17.067v8.533C401.05,184.798,389.598,196.25,375.467,196.267z M128,162.133v8.533  c0.009,4.71,3.823,8.525,8.533,8.533h238.933c4.71-0.009,8.525-3.823,8.533-8.533v-8.533H128z"/>
<path d="M366.933,230.4H145.067c-4.71,0-8.533-3.814-8.533-8.525c0,0,0,0,0-0.009v-34.133c0-4.71,3.814-8.533,8.525-8.533  c0,0,0,0,0.009,0h221.867c4.71,0,8.533,3.814,8.533,8.525c0,0,0,0,0,0.009v34.133C375.467,226.577,371.652,230.4,366.933,230.4  L366.933,230.4z M153.6,213.333h204.8v-17.067H153.6V213.333z"/>
<path style="fill:#F57C00;" d="M324.267,349.867c0.009,37.692-30.541,68.258-68.233,68.267c-0.009,0-0.026,0-0.034,0  c-5.751-0.009-11.486-0.725-17.067-2.133c-36.523-9.446-58.47-46.72-49.024-83.243c6.221-24.038,24.986-42.803,49.024-49.024  c5.581-1.408,11.315-2.125,17.067-2.133c37.692-0.009,68.258,30.541,68.267,68.233C324.267,349.841,324.267,349.858,324.267,349.867  z"/>
<path style="fill:#FF9801;" d="M290.133,349.867c0,31.138-21.06,58.334-51.2,66.133c-36.523-9.446-58.47-46.72-49.024-83.243  c6.221-24.038,24.986-42.803,49.024-49.024C269.073,291.533,290.133,318.729,290.133,349.867z"/>
<path d="M256,426.667c-42.419,0-76.8-34.381-76.8-76.8s34.381-76.8,76.8-76.8s76.8,34.381,76.8,76.8  C332.749,392.26,298.394,426.615,256,426.667z M256,290.133c-32.99,0-59.733,26.743-59.733,59.733S223.01,409.6,256,409.6  s59.733-26.743,59.733-59.733C315.691,316.894,288.973,290.176,256,290.133z"/>
<path d="M221.867,358.4c-4.71,0-8.533-3.814-8.533-8.525c0,0,0,0,0-0.009c0.026-23.552,19.115-42.641,42.667-42.667  c4.71,0,8.533,3.823,8.533,8.533c0,4.71-3.823,8.533-8.533,8.533c-14.131,0.017-25.583,11.469-25.6,25.6  C230.4,354.577,226.586,358.4,221.867,358.4L221.867,358.4z"/>
<path d="M187.733,358.4h-42.667c-4.71,0-8.533-3.823-8.533-8.533c0-4.71,3.823-8.533,8.533-8.533h42.667  c4.71,0,8.533,3.823,8.533,8.533C196.267,354.577,192.444,358.4,187.733,358.4z"/>
<path d="M366.933,358.4h-42.667c-4.71,0-8.533-3.823-8.533-8.533c0-4.71,3.823-8.533,8.533-8.533h42.667  c4.71,0,8.533,3.823,8.533,8.533C375.467,354.577,371.644,358.4,366.933,358.4z"/>
<path d="M324.105,162.133c-4.71,0.009-8.533-3.814-8.542-8.525c0-3.072,1.647-5.905,4.318-7.424  C344.354,132.258,358.4,111.642,358.4,89.6c0-39.996-45.935-72.533-102.4-72.533S153.6,49.604,153.6,89.6  c0,22.042,14.046,42.658,38.519,56.585c4.096,2.321,5.538,7.526,3.217,11.631c-2.321,4.096-7.526,5.538-11.631,3.217  c-0.009,0-0.017-0.009-0.026-0.009c-29.961-17.05-47.147-43.076-47.147-71.424C136.533,40.192,190.123,0,256,0  s119.467,40.192,119.467,89.6c0,28.348-17.186,54.374-47.147,71.415C327.031,161.749,325.581,162.133,324.105,162.133z"/>
<path d="M332.8,98.133c-4.71,0-8.533-3.814-8.533-8.525c0,0,0,0,0-0.009c0-20.813-31.258-38.4-68.267-38.4  s-68.267,17.587-68.267,38.4c0,4.71-3.823,8.533-8.533,8.533s-8.533-3.823-8.533-8.533c0-31.104,37.487-55.467,85.333-55.467  s85.333,24.363,85.333,55.467C341.333,94.31,337.519,98.133,332.8,98.133L332.8,98.133z"/>
<path d="M290.133,102.4c-4.71,0-8.533-3.814-8.533-8.525c0,0,0,0,0-0.009c0-2.125-9.079-8.533-25.6-8.533  c-16.521,0-25.6,6.409-25.6,8.533c0,4.71-3.823,8.533-8.533,8.533c-4.71,0-8.533-3.823-8.533-8.533  c0-14.592,18.338-25.6,42.667-25.6s42.667,11.008,42.667,25.6C298.667,98.577,294.852,102.4,290.133,102.4L290.133,102.4z"/>
<g>
</g>
<g>
</g>
<g>
</g>
<g>
</g>
<g>
</g>
<g>
</g>
<g>
</g>
<g>
</g>
<g>
</g>
<g>
</g>
<g>
</g>
<g>
</g>
<g>
</g>
<g>
</g>
<g>
</g>
</svg>
