<?xml version="1.0" encoding="iso-8859-1"?>
<!-- Generator: Adobe Illustrator 19.0.0, SVG Export Plug-In . SVG Version: 6.00 Build 0)  -->
<svg xmlns="http://www.w3.org/2000/svg" xmlns:xlink="http://www.w3.org/1999/xlink" version="1.1" id="Capa_1" x="0px" y="0px" viewBox="0 0 512 512" style="enable-background:new 0 0 512 512;" xml:space="preserve">
<path style="fill:#37474F;" d="M149.333,8.533H320c42.419,0,76.8,34.381,76.8,76.8v341.333c0,42.419-34.381,76.8-76.8,76.8H149.333  c-42.419,0-76.8-34.381-76.8-76.8V85.333C72.533,42.914,106.914,8.533,149.333,8.533z"/>
<path style="fill:#607D8B;" d="M149.333,8.533h136.533c42.419,0,76.8,34.381,76.8,76.8v341.333c0,42.419-34.381,76.8-76.8,76.8  H149.333c-42.419,0-76.8-34.381-76.8-76.8V85.333C72.533,42.914,106.914,8.533,149.333,8.533z"/>
<path d="M320,512H149.333C102.281,512,64,473.719,64,426.667V85.333C64,38.281,102.281,0,149.333,0H320l0,0  c47.053,0,85.333,38.281,85.333,85.333v341.333C405.333,473.719,367.053,512,320,512z M149.333,17.067  c-37.641,0-68.267,30.626-68.267,68.267v341.333c0,37.641,30.626,68.267,68.267,68.267H320c37.641,0,68.267-30.626,68.267-68.267  V85.333c0-37.641-30.626-68.267-68.267-68.267H149.333z M320,477.867H149.333c-28.228-0.009-51.191-22.972-51.2-51.2V85.333  c0.009-28.228,22.972-51.191,51.2-51.2H320c28.228,0.009,51.191,22.972,51.2,51.2v341.333l0,0  C371.191,454.895,348.228,477.858,320,477.867z M149.333,51.2c-18.816,0.009-34.125,15.317-34.133,34.133v341.333  c0.009,18.816,15.317,34.125,34.133,34.133H320c18.816-0.009,34.125-15.317,34.133-34.133V85.333  C354.125,66.517,338.816,51.209,320,51.2H149.333z"/>
<g>
	<path style="fill:#009688;" d="M362.667,110.336v102.997h-29.184c2.423-11.213,3.618-22.656,3.584-34.133   c-1.382-22.767-7.953-44.919-19.2-64.768c6.81-13.124,14.66-25.677,23.467-37.547C349.269,87.484,356.403,98.671,362.667,110.336z"/>
	<path style="fill:#009688;" d="M337.067,179.2c0.034,11.477-1.161,22.921-3.584,34.133h-78.165   c-2.423-11.213-3.618-22.656-3.584-34.133c0-2.731,0.171-5.547,0.427-8.277c2.389-18.313,8.03-36.053,16.64-52.395   c7.313-14.626,15.881-28.587,25.6-41.728c8.832,11.887,16.683,24.474,23.467,37.632C329.114,134.281,335.684,156.433,337.067,179.2   z"/>
	<path style="fill:#009688;" d="M226.133,179.2c0.034,11.477-1.161,22.921-3.584,34.133h-78.165   c-2.423-11.213-3.618-22.656-3.584-34.133c0-2.731,0.171-5.547,0.427-8.277c2.389-18.313,8.03-36.053,16.64-52.395   c7.313-14.626,15.881-28.587,25.6-41.728c11.759,15.855,21.769,32.939,29.867,50.944C221.03,143.855,225.382,161.357,226.133,179.2   z"/>
	<path style="fill:#009688;" d="M251.733,179.2c-0.034,11.477,1.161,22.921,3.584,34.133h-32.768   c2.423-11.213,3.618-22.656,3.584-34.133c-0.751-17.843-5.103-35.345-12.8-51.456c8.098-18.005,18.108-35.089,29.867-50.944   c9.719,13.141,18.287,27.102,25.6,41.728c-8.61,16.341-14.251,34.082-16.64,52.395C251.904,173.653,251.733,176.469,251.733,179.2z   "/>
	<path style="fill:#009688;" d="M140.8,179.2c-0.034,11.477,1.161,22.921,3.584,34.133h-37.717v-94.805   c7.27-14.643,15.838-28.612,25.6-41.728c9.719,13.141,18.287,27.102,25.6,41.728c-8.61,16.341-14.251,34.082-16.64,52.395   C140.971,173.653,140.8,176.469,140.8,179.2z"/>
</g>
<path d="M362.667,221.867h-29.184c-4.71,0-8.533-3.823-8.533-8.542c0-0.614,0.068-1.229,0.196-1.835  c2.287-10.607,3.422-21.436,3.379-32.29c-1.263-21.427-7.509-42.257-18.244-60.843c-1.271-2.466-1.271-5.393,0-7.859  c7.04-13.577,15.155-26.564,24.286-38.827c1.596-2.074,4.062-3.302,6.682-3.319c2.603,0.051,5.06,1.22,6.741,3.209  c8.26,10.991,15.676,22.605,22.178,34.722c0.674,1.246,1.024,2.645,1.024,4.062v102.989  C371.2,218.044,367.386,221.867,362.667,221.867L362.667,221.867z M343.731,204.8h10.402v-92.279  c-4.668-8.474-9.242-15.659-12.774-20.907c-3.831,5.709-8.866,13.662-13.875,22.912c10.871,19.908,17.067,42.027,18.116,64.683  C345.617,187.767,344.994,196.326,343.731,204.8z"/>
<path d="M333.483,221.867h-78.165c-4.002,0-7.467-2.782-8.337-6.69c-2.56-11.819-3.823-23.885-3.78-35.977  c0-2.995,0.179-6.084,0.469-9.079c2.432-19.371,8.363-38.135,17.493-55.39c7.552-15.121,16.41-29.551,26.479-43.127  c1.604-2.099,4.105-3.337,6.75-3.337h0.009c2.645,0,5.137,1.229,6.75,3.319c9.156,12.288,17.289,25.31,24.303,38.938  c12.015,20.992,18.918,44.518,20.147,68.676c0.043,12.092-1.229,24.158-3.78,35.977  C340.949,219.085,337.485,221.867,333.483,221.867z M262.349,204.8h64.102c1.408-8.457,2.099-17.024,2.082-25.6  c-1.263-21.427-7.509-42.257-18.244-60.843c-4.787-9.225-10.086-18.167-15.881-26.786c-6.63,9.865-12.629,20.139-17.963,30.763  c-8.192,15.377-13.542,32.111-15.795,49.391c-0.23,2.466-0.384,5.009-0.384,7.475C260.25,187.776,260.941,196.343,262.349,204.8z"/>
<path style="fill:#4527A0;" d="M362.667,85.333v25.003c-6.263-11.665-13.397-22.852-21.333-33.451  c-8.806,11.87-16.657,24.422-23.467,37.547c-6.784-13.158-14.635-25.745-23.467-37.632c-9.719,13.141-18.287,27.102-25.6,41.728  c-7.313-14.626-15.881-28.587-25.6-41.728c-11.759,15.855-21.769,32.939-29.867,50.944c-8.098-18.005-18.108-35.089-29.867-50.944  c-9.719,13.141-18.287,27.102-25.6,41.728c-7.313-14.626-15.881-28.587-25.6-41.728c-9.762,13.116-18.33,27.085-25.6,41.728V85.333  c0.009-23.561,19.106-42.658,42.667-42.667H320C343.561,42.675,362.658,61.773,362.667,85.333z"/>
<path d="M213.333,136.277c-3.379,0-6.443-1.997-7.808-5.094c-6.204-13.807-13.585-27.059-22.05-39.603  c-6.63,9.865-12.629,20.139-17.963,30.754c-2.509,4.224-7.962,5.606-12.177,3.106c-1.28-0.759-2.347-1.826-3.106-3.106  c-5.342-10.624-11.341-20.898-17.98-30.771c-6.639,9.847-12.629,20.122-17.937,30.754c-2.091,4.224-7.211,5.956-11.435,3.866  c-2.901-1.442-4.745-4.412-4.745-7.654V85.333c0.034-28.262,22.938-51.166,51.2-51.2H320c28.262,0.034,51.166,22.938,51.2,51.2  v25.003c0,4.71-3.823,8.533-8.542,8.533c-3.132,0-6.016-1.715-7.501-4.471c-5.018-9.293-10.001-17.152-13.798-22.784  c-5.794,8.619-11.11,17.553-15.915,26.761c-1.468,2.825-4.386,4.599-7.578,4.599h-0.017c-3.191-0.009-6.11-1.783-7.569-4.625  c-4.787-9.216-10.086-18.159-15.872-26.778c-6.63,9.865-12.629,20.139-17.963,30.763c-2.509,4.224-7.962,5.606-12.177,3.106  c-1.28-0.759-2.347-1.826-3.106-3.106c-5.333-10.615-11.332-20.89-17.963-30.754c-8.465,12.544-15.846,25.796-22.05,39.603  C219.776,134.281,216.713,136.277,213.333,136.277z M183.467,68.267c2.645,0,5.137,1.229,6.758,3.319  c8.636,11.597,16.358,23.842,23.108,36.625c6.75-12.791,14.473-25.037,23.108-36.625c1.621-2.091,4.113-3.319,6.758-3.319h0.009  c2.645,0,5.146,1.237,6.758,3.337c6.869,9.225,13.158,18.867,18.833,28.868c5.675-10.001,11.964-19.644,18.833-28.868  c1.613-2.099,4.113-3.337,6.758-3.337h0.009c2.645,0,5.137,1.229,6.75,3.319c6.059,8.081,11.648,16.512,16.734,25.242  c5.086-8.687,10.667-17.092,16.691-25.156c1.596-2.074,4.062-3.302,6.682-3.319c2.603,0.051,5.06,1.22,6.741,3.209  c0.051,0.06,2.219,2.833,5.589,7.706C350.635,63.027,336.503,51.226,320,51.2H149.333c-18.842,0.017-34.116,15.292-34.133,34.133  v1.058c5.76-8.892,10.001-14.404,10.317-14.814c1.621-2.091,4.113-3.311,6.75-3.311h0.017c2.645,0.009,5.137,1.237,6.75,3.337  c6.869,9.225,13.158,18.867,18.833,28.868c5.675-10.001,11.964-19.644,18.833-28.868C178.313,69.504,180.813,68.267,183.467,68.267  L183.467,68.267z"/>
<path style="fill:#0377BC;" d="M362.667,281.6v145.067c-0.009,23.561-19.106,42.658-42.667,42.667H149.333  c-23.561-0.009-42.658-19.106-42.667-42.667V281.6h42.667v128c0.026,9.412,7.654,17.041,17.067,17.067h136.533  c9.412-0.026,17.041-7.654,17.067-17.067v-128H362.667z"/>
<path d="M320,477.867H149.333c-28.262-0.034-51.166-22.938-51.2-51.2V281.6c0-4.71,3.814-8.533,8.525-8.533c0,0,0,0,0.009,0h42.667  c4.71,0,8.533,3.814,8.533,8.525c0,0,0,0,0,0.009v128c0.009,4.71,3.823,8.525,8.533,8.533h136.533  c4.71-0.009,8.525-3.823,8.533-8.533v-128c0-4.71,3.814-8.533,8.525-8.533c0,0,0,0,0.009,0h42.667c4.71,0,8.533,3.814,8.533,8.525  c0,0,0,0,0,0.009v145.067C371.166,454.929,348.262,477.833,320,477.867z M115.2,290.133v136.533  c0.017,18.842,15.292,34.116,34.133,34.133H320c18.842-0.017,34.116-15.292,34.133-34.133V290.133h-25.6V409.6  c-0.017,14.131-11.469,25.583-25.6,25.6H166.4c-14.131-0.017-25.583-11.469-25.6-25.6V290.133H115.2z"/>
<rect x="106.667" y="213.333" style="fill:#424242;" width="256" height="68.267"/>
<rect x="106.667" y="238.933" style="fill:#9E9E9E;" width="256" height="42.667"/>
<path d="M362.667,290.133h-256c-4.71,0-8.533-3.814-8.533-8.525c0,0,0,0,0-0.009v-68.267c0-4.71,3.814-8.533,8.525-8.533  c0,0,0,0,0.009,0h256c4.71,0,8.533,3.814,8.533,8.525c0,0,0,0,0,0.009V281.6C371.2,286.31,367.386,290.133,362.667,290.133  L362.667,290.133z M115.2,273.067h238.933v-51.2H115.2V273.067z"/>
<path d="M439.467,298.667c-4.71,0-8.533-3.814-8.533-8.525c0,0,0,0,0-0.009V256h-68.267c-4.71,0-8.533-3.823-8.533-8.533  s3.823-8.533,8.533-8.533h68.267V204.8c0-4.71,3.823-8.533,8.533-8.533c4.71,0,8.533,3.823,8.533,8.533v85.333  C448,294.844,444.186,298.667,439.467,298.667L439.467,298.667z"/>
<path d="M222.549,221.867h-78.165c-4.002,0-7.467-2.782-8.337-6.69c-2.56-11.819-3.823-23.885-3.78-35.977  c0-2.995,0.179-6.084,0.469-9.079c2.432-19.371,8.363-38.135,17.493-55.39c7.552-15.121,16.41-29.551,26.479-43.127  c1.604-2.099,4.105-3.337,6.75-3.337h0.009c2.645,0,5.137,1.229,6.758,3.319c12.194,16.393,22.562,34.074,30.916,52.719  c8.235,17.178,12.834,35.866,13.525,54.895c0.043,12.092-1.229,24.158-3.78,35.977C230.016,219.085,226.551,221.867,222.549,221.867  z M151.415,204.8h64.102c1.408-8.457,2.099-17.024,2.082-25.6c-0.7-16.657-4.813-32.998-12.075-48.009  c-6.204-13.815-13.585-27.068-22.05-39.62c-6.63,9.865-12.629,20.139-17.963,30.754c-8.192,15.377-13.542,32.111-15.795,49.391  c-0.23,2.475-0.384,5.018-0.384,7.484C149.316,187.776,150.007,196.343,151.415,204.8z"/>
<path d="M161.015,183.006c-7.91,0.119-15.77-1.323-23.125-4.233c-4.335-1.843-6.366-6.852-4.523-11.187s6.852-6.366,11.187-4.523  l0,0c11.742,4.13,24.576,3.959,36.198-0.495c4.471-1.485,9.301,0.939,10.786,5.41c1.476,4.454-0.922,9.267-5.367,10.769  C178.074,181.53,169.574,182.963,161.015,183.006z"/>
<path d="M255.317,221.867h-32.768c-4.719-0.009-8.533-3.831-8.533-8.55c0-0.614,0.068-1.229,0.196-1.826  c2.287-10.607,3.422-21.436,3.379-32.29c-0.7-16.657-4.813-32.998-12.075-48.009c-0.964-2.193-0.964-4.693,0-6.886  c8.354-18.645,18.722-36.326,30.916-52.719c1.63-2.091,4.122-3.319,6.767-3.319h0.009c2.645,0,5.146,1.237,6.758,3.337  c10.061,13.577,18.927,28.006,26.479,43.127c1.195,2.398,1.195,5.205,0,7.603c-8.192,15.386-13.542,32.111-15.795,49.399  c-0.23,2.458-0.384,5.001-0.384,7.467c-0.043,10.854,1.092,21.683,3.379,32.29c1.015,4.608-1.903,9.165-6.511,10.172  C256.546,221.798,255.932,221.867,255.317,221.867z M232.798,204.8h12.271c-1.254-8.474-1.877-17.033-1.869-25.6  c0-2.995,0.179-6.084,0.469-9.079c2.193-17.937,7.467-35.362,15.599-51.499c-4.855-9.301-10.223-18.33-16.077-27.034  c-7.765,11.529-14.635,23.646-20.531,36.241c7.347,16.154,11.426,33.621,12.006,51.371  C234.684,187.767,234.061,196.326,232.798,204.8z"/>
<path d="M144.384,221.867h-37.717c-4.71,0-8.533-3.814-8.533-8.525c0,0,0,0,0-0.009v-94.805c0-1.314,0.299-2.611,0.887-3.78  c7.518-15.155,16.384-29.611,26.496-43.17c1.621-2.091,4.113-3.311,6.75-3.311h0.017c2.645,0.009,5.137,1.237,6.75,3.337  c10.061,13.577,18.927,28.006,26.479,43.127c1.195,2.398,1.195,5.205,0,7.603c-8.192,15.386-13.542,32.111-15.795,49.399  c-0.23,2.458-0.384,5.001-0.384,7.467c-0.043,10.854,1.092,21.683,3.379,32.29c1.015,4.608-1.903,9.165-6.511,10.172  C145.613,221.798,144.998,221.867,144.384,221.867z M115.2,204.8h18.935c-1.254-8.474-1.877-17.033-1.869-25.6  c0-2.995,0.179-6.084,0.469-9.079c2.193-17.937,7.467-35.362,15.599-51.499c-4.864-9.31-10.231-18.338-16.085-27.051  c-6.263,9.31-11.955,18.987-17.05,28.979C115.2,120.55,115.2,204.8,115.2,204.8z"/>
<path d="M271.949,183.006c-7.91,0.119-15.77-1.323-23.125-4.233c-4.335-1.843-6.366-6.852-4.523-11.187s6.852-6.366,11.187-4.523  l0,0c11.742,4.13,24.576,3.959,36.198-0.495c4.471-1.485,9.301,0.939,10.786,5.41c1.476,4.454-0.922,9.267-5.367,10.769  C289.007,181.53,280.508,182.963,271.949,183.006z"/>
<path style="fill:#3F51B5;" d="M320,281.6v128c-0.026,9.412-7.654,17.041-17.067,17.067H166.4  c-9.412-0.026-17.041-7.654-17.067-17.067v-128H320z"/>
<path d="M302.933,435.2H166.4c-14.131-0.017-25.583-11.469-25.6-25.6v-128c0-4.71,3.814-8.533,8.525-8.533c0,0,0,0,0.009,0H320  c4.71,0,8.533,3.814,8.533,8.525c0,0,0,0,0,0.009v128C328.516,423.731,317.065,435.183,302.933,435.2z M157.867,290.133V409.6  c0.009,4.71,3.823,8.525,8.533,8.533h136.533c4.71-0.009,8.525-3.823,8.533-8.533V290.133H157.867z"/>
<g>
</g>
<g>
</g>
<g>
</g>
<g>
</g>
<g>
</g>
<g>
</g>
<g>
</g>
<g>
</g>
<g>
</g>
<g>
</g>
<g>
</g>
<g>
</g>
<g>
</g>
<g>
</g>
<g>
</g>
</svg>
