<?xml version="1.0" encoding="iso-8859-1"?>
<!-- Generator: Adobe Illustrator 19.0.0, SVG Export Plug-In . SVG Version: 6.00 Build 0)  -->
<svg xmlns="http://www.w3.org/2000/svg" xmlns:xlink="http://www.w3.org/1999/xlink" version="1.1" id="Capa_1" x="0px" y="0px" viewBox="0 0 511.996 511.996" style="enable-background:new 0 0 511.996 511.996;" xml:space="preserve">
<path style="fill:#FDD834;" d="M455.919,160.936l-2.743,8.144v8.573H58.822v-21.432c-0.009-7.09,5.735-12.851,12.825-12.859  c0.009,0,0.026,0,0.034,0c7.09,0.009,12.851-5.735,12.859-12.825c0-0.009,0-0.026,0-0.034v-8.573  c-0.009-7.09,5.735-12.851,12.825-12.859c0.009,0,0.026,0,0.034,0h2.229l0.857-17.489l0.772-17.232  c0.171-2.666,1.56-5.101,3.772-6.601c1.389-1.029,3.078-1.569,4.801-1.543h14.06c1.252,0.026,2.495-0.274,3.601-0.857l2.743-19.632  l1.972-14.231c0.214-7.69,6.627-13.742,14.317-13.528c0.574,0.017,1.149,0.069,1.715,0.154l14.488,3.515  c4.604,1.003,9.379-0.729,12.259-4.458l3.086-3.772c3.189-4.321,8.882-5.967,13.888-4.029l10.287,4.201  c2.066,0.857,3.892,2.212,5.315,3.944l11.059,13.459c3.875,5.264,11.291,6.395,16.554,2.52c0.206-0.146,0.403-0.3,0.592-0.463  l12.002-9.687l9.945-8.059c5.238-4.218,12.911-3.386,17.129,1.86c0.66,0.823,1.209,1.723,1.637,2.692  c2.1,4.338,6.413,7.167,11.231,7.373c2.16-0.026,4.261-0.652,6.087-1.8l2.143-1.286c0.874-0.54,1.835-0.943,2.829-1.2l16.289-4.972  c6.601-1.646,13.348,2.1,15.431,8.573l1.8,4.458c0.249,0.617,0.54,1.217,0.857,1.8l5.744,7.716l11.402-8.573l11.659-5.83  c3.301-1.612,7.253-0.96,9.859,1.629l4.201,4.201v8.573c0.017,4.732,3.841,8.556,8.573,8.573h8.573l8.573,25.719l1.715,3.429  l1.372-0.686c3.301-1.612,7.253-0.96,9.859,1.629l10.288,10.287c1.603,1.577,3.755,2.469,6.001,2.486h7.458  c3.678,0.026,6.936,2.358,8.144,5.83l6.601,19.889l-8.573,17.146l-1.029,4.029l0.171,0.086c9.19,2.255,14.805,11.531,12.551,20.712  C456.185,160.061,456.065,160.507,455.919,160.936z"/>
<path style="fill:#FFEB3A;" d="M430.629,177.653H58.822v-21.432c-0.009-7.09,5.735-12.851,12.825-12.859c0.009,0,0.026,0,0.034,0  c7.09,0.009,12.851-5.735,12.859-12.825c0-0.009,0-0.026,0-0.034v-8.573c-0.009-7.09,5.735-12.851,12.825-12.859  c0.009,0,0.026,0,0.034,0h2.229l0.857-17.489c0.454-0.094,0.892-0.266,1.286-0.514l3.258-23.318  c1.389-1.029,3.078-1.569,4.801-1.543h14.06c1.252,0.026,2.495-0.274,3.601-0.857l2.743-19.632l6.773,1.629  c4.604,1.003,9.379-0.729,12.259-4.458l3.086-3.772c3.189-4.321,8.882-5.967,13.888-4.029l10.287,4.201  c2.066,0.857,3.892,2.212,5.315,3.944l11.059,13.459c3.875,5.264,11.291,6.395,16.554,2.52c0.206-0.146,0.403-0.3,0.592-0.463  l12.002-9.687l9.945-8.059c5.238-4.218,12.911-3.386,17.129,1.86c0.66,0.823,1.209,1.723,1.637,2.692  c2.1,4.338,6.413,7.167,11.231,7.373c2.16-0.026,4.261-0.652,6.087-1.8l2.143-1.286c0.874-0.54,1.835-0.943,2.829-1.2l16.289-4.972  c6.601-1.646,13.348,2.1,15.431,8.573l1.8,4.458c0.249,0.617,0.54,1.217,0.857,1.8l5.744,7.716l11.402-8.573l11.659-5.83  c3.301-1.612,7.253-0.96,9.859,1.629l4.201,4.201v8.573c0.017,4.732,3.841,8.556,8.573,8.573h8.573l8.573,25.719l1.715,3.429  l1.372-0.686c3.301-1.612,7.253-0.96,9.859,1.629l10.288,10.287c1.603,1.577,3.755,2.469,6.001,2.486h7.458  c3.678,0.026,6.936,2.358,8.144,5.83l6.601,19.889l-8.573,17.146l-1.029,4.029l0.171,0.086  C424.388,166.182,429.283,171.249,430.629,177.653z"/>
<path style="fill:#AD1457;" d="M444.603,211.945l-68.583,291.479h-42.865l13.802-117.449c18.089-11.573,29.062-26.747,29.062-43.293  c-0.754-14.471-7.956-27.845-19.632-36.435l11.059-94.302H444.603z"/>
<path style="fill:#E91E63;" d="M418.884,211.945l-68.583,291.479h-17.146l13.802-117.449c18.089-11.573,29.062-26.747,29.062-43.293  c-0.754-14.471-7.956-27.845-19.632-36.435l11.059-94.302H418.884z"/>
<path d="M376.019,511.996h-42.865c-4.732,0-8.573-3.841-8.573-8.581c0-0.334,0.017-0.669,0.06-0.994l13.802-117.449  c0.3-2.555,1.732-4.835,3.892-6.224c16.194-10.365,25.11-23.173,25.11-36.075c-0.917-11.899-6.97-22.804-16.58-29.877  c-2.212-1.852-3.335-4.698-3.001-7.561l11.059-94.302c0.506-4.321,4.166-7.57,8.513-7.57h77.156c4.732,0,8.573,3.832,8.573,8.564  c0,0.66-0.077,1.329-0.231,1.972l-68.583,291.479C383.452,509.262,379.997,511.996,376.019,511.996z M342.791,494.851h26.439  l64.545-274.333h-58.707l-9.653,82.291c11.719,9.996,18.68,24.476,19.169,39.873c0,17.909-10.468,34.909-29.577,48.223  L342.791,494.851z"/>
<g>
	<path style="fill:#9D27B0;" d="M367.446,211.945l-11.059,94.302c-19.306-14.625-42.084-23.996-66.097-27.176v-67.126   L367.446,211.945L367.446,211.945z"/>
	<path style="fill:#9D27B0;" d="M346.957,385.975l-13.802,117.449H290.29v-97.045C310.351,403.429,329.614,396.494,346.957,385.975z   "/>
</g>
<path d="M356.387,314.819c-2.015,0-3.961-0.712-5.512-1.997c-18.132-13.639-39.487-22.35-61.982-25.29  c-4.141-0.677-7.176-4.261-7.176-8.453v-67.126c0-4.732,3.832-8.573,8.564-8.573c0,0,0,0,0.009,0h77.156  c4.732,0,8.573,3.841,8.573,8.581c0,0.334-0.017,0.669-0.06,0.994L364.9,307.258C364.386,311.57,360.734,314.819,356.387,314.819z   M298.863,271.938c17.857,3.369,35.003,9.782,50.692,18.955l8.256-70.375h-58.947L298.863,271.938L298.863,271.938z"/>
<g>
	<path style="fill:#E91E63;" d="M290.29,211.945v67.126c-22.718-3.661-45.865-3.661-68.583,0v-67.126L290.29,211.945L290.29,211.945   z"/>
	<path style="fill:#E91E63;" d="M290.29,406.378v97.045h-68.583v-97.045C244.417,410.039,267.572,410.039,290.29,406.378z"/>
</g>
<path d="M290.29,287.643c-0.471,0-0.934-0.034-1.397-0.111c-21.792-3.498-43.996-3.498-65.788,0c-4.672,0.772-9.087-2.4-9.859-7.073  c-0.077-0.463-0.111-0.926-0.111-1.389v-67.126c0-4.732,3.832-8.573,8.564-8.573c0,0,0,0,0.009,0h68.583  c4.732,0,8.573,3.832,8.573,8.564c0,0,0,0,0,0.009v67.126C298.855,283.811,295.022,287.643,290.29,287.643z M255.999,267.754  c8.59-0.009,17.18,0.48,25.719,1.457v-48.694H230.28v48.694C238.818,268.234,247.4,267.746,255.999,267.754z"/>
<g>
	<path style="fill:#9D27B0;" d="M221.707,211.945v67.126c-24.013,3.181-46.791,12.551-66.097,27.176l-11.059-94.302H221.707z"/>
	<path style="fill:#9D27B0;" d="M221.707,406.378v97.045h-42.865L165.04,385.975C182.374,396.494,201.646,403.429,221.707,406.378z"/>
</g>
<path d="M155.61,314.819c-4.346,0-8.007-3.258-8.513-7.57l-11.059-94.302c-0.549-4.707,2.812-8.967,7.518-9.516  c0.334-0.043,0.66-0.06,0.994-0.06h77.156c4.732,0,8.573,3.832,8.573,8.564c0,0,0,0,0,0.009v67.126c0,4.192-3.035,7.776-7.176,8.453  c-22.495,2.94-43.85,11.659-61.982,25.29C159.57,314.117,157.624,314.819,155.61,314.819z M154.187,220.517l8.256,70.375  c15.688-9.173,32.834-15.586,50.692-18.955v-51.42H154.187z"/>
<path style="fill:#E91E63;" d="M178.842,503.424h-42.865L67.395,211.945h77.156l11.059,94.302  c-11.659,8.599-18.86,21.964-19.632,36.435c0,16.546,10.973,31.72,29.062,43.293L178.842,503.424z"/>
<path d="M178.842,511.996h-42.865c-3.978,0-7.433-2.735-8.35-6.61L59.045,213.908c-1.089-4.604,1.766-9.224,6.378-10.305  c0.643-0.154,1.303-0.231,1.972-0.231h77.156c4.346,0,8.007,3.258,8.513,7.57l11.059,94.302c0.334,2.855-0.78,5.684-2.975,7.536  c-9.585,7.107-15.637,18.003-16.597,29.894c0,12.902,8.916,25.71,25.11,36.075c2.16,1.389,3.592,3.669,3.892,6.224l13.802,117.449  c0.549,4.707-2.812,8.967-7.518,9.516C179.503,511.979,179.177,511.996,178.842,511.996z M142.768,494.851h26.439l-12.225-103.947  c-19.109-13.314-29.577-30.314-29.577-48.223c0.523-15.38,7.476-29.842,19.169-39.847l-9.653-82.317H78.214L142.768,494.851z"/>
<path d="M221.707,511.996h-42.865c-4.346,0-8.007-3.258-8.513-7.57l-13.802-117.449c-0.557-4.698,2.812-8.959,7.51-9.516  c1.972-0.231,3.961,0.223,5.632,1.303c16.357,9.893,34.523,16.409,53.435,19.16c4.141,0.686,7.176,4.269,7.176,8.461v97.045  C230.28,508.156,226.439,511.996,221.707,511.996L221.707,511.996z M186.464,494.851h26.662v-81.331  c-12.979-2.555-25.607-6.618-37.652-12.096L186.464,494.851z"/>
<path d="M290.29,511.996h-68.583c-4.732,0-8.573-3.832-8.573-8.564c0,0,0,0,0-0.009v-97.045c0-4.732,3.832-8.573,8.564-8.573  c0.472,0,0.952,0.043,1.415,0.12c21.784,3.481,43.988,3.481,65.771,0c4.664-0.78,9.087,2.375,9.859,7.038  c0.077,0.472,0.12,0.943,0.12,1.415v97.045C298.863,508.156,295.022,511.996,290.29,511.996L290.29,511.996z M230.28,494.851h51.437  v-78.605c-17.094,1.937-34.343,1.937-51.437,0V494.851z"/>
<path d="M333.155,511.996H290.29c-4.732,0-8.573-3.832-8.573-8.564c0,0,0,0,0-0.009v-97.045c0-4.192,3.035-7.776,7.176-8.461  c18.912-2.752,37.086-9.267,53.435-19.16c3.986-2.555,9.284-1.397,11.848,2.58c1.072,1.672,1.535,3.661,1.303,5.632l-13.802,117.449  C341.162,508.747,337.501,511.996,333.155,511.996z M298.863,494.851h26.662l10.982-93.428  c-12.036,5.478-24.673,9.542-37.652,12.096v81.331H298.863z"/>
<path style="fill:#FDD834;" d="M376.019,342.681c0,16.546-10.973,31.72-29.062,43.293c-13.082,8.11-27.425,14-42.436,17.403  c-4.629,1.2-9.344,2.229-14.231,3.001c-22.718,3.661-45.865,3.661-68.583,0c-20.061-2.949-39.333-9.885-56.667-20.404  c-18.089-11.573-29.062-26.747-29.062-43.293c0.772-14.471,7.973-27.836,19.632-36.435c5.341-4.415,11.153-8.239,17.317-11.402  c15.32-7.818,31.78-13.151,48.78-15.774c22.718-3.661,45.865-3.661,68.583,0c24.013,3.181,46.791,12.551,66.097,27.176  C368.055,314.837,375.265,328.21,376.019,342.681z"/>
<path style="fill:#FFEB3A;" d="M341.728,355.455c0,16.546-10.973,31.72-29.062,43.293c-2.615,1.715-5.332,3.258-8.144,4.629  c-4.629,1.2-9.344,2.229-14.231,3.001c-22.718,3.661-45.865,3.661-68.583,0c-20.061-2.949-39.333-9.885-56.667-20.404  c-18.089-11.573-29.062-26.747-29.062-43.293c0.772-14.471,7.973-27.836,19.632-36.435c5.341-4.415,11.153-8.239,17.317-11.402  c4.715-1.2,9.516-2.229,14.488-3.001c22.718-3.661,45.865-3.661,68.583,0c24.013,3.181,46.791,12.551,66.097,27.176  C333.763,327.61,340.973,340.984,341.728,355.455z"/>
<path d="M255.999,417.694c-11.959,0.026-23.901-0.926-35.698-2.855c-21.209-3.138-41.579-10.493-59.89-21.647  c-21.278-13.614-33.006-31.557-33.006-50.512c0.737-17,9.053-32.766,22.667-42.976c20.489-15.628,44.699-25.659,70.238-29.096  c23.644-3.789,47.734-3.789,71.378,0c25.53,3.438,49.723,13.451,70.204,29.062c13.665,10.185,21.998,25.984,22.692,43.01  c0,18.955-11.719,36.889-33.014,50.512c-18.32,11.145-38.681,18.509-59.89,21.647C279.891,416.769,267.949,417.729,255.999,417.694z   M255.999,284.9c-11.016-0.026-22.015,0.857-32.894,2.632c-22.495,2.941-43.85,11.651-61.982,25.29  c-9.567,7.098-15.611,17.986-16.571,29.859c0,12.902,8.916,25.71,25.11,36.075c16.357,9.893,34.532,16.409,53.444,19.169  c21.784,3.489,43.988,3.489,65.78,0c18.92-2.76,37.086-9.276,53.444-19.169c16.203-10.365,25.119-23.173,25.119-36.075  c-0.917-11.899-6.97-22.804-16.58-29.877c-18.132-13.631-39.487-22.332-61.974-25.273  C278.014,285.757,267.015,284.883,255.999,284.9z"/>
<path style="fill:#6A1B9A;" d="M478.894,194.799c-0.026,9.456-7.69,17.12-17.146,17.146h-411.5  c-9.439-0.069-17.077-7.707-17.146-17.146c0.026-9.456,7.69-17.12,17.146-17.146h411.5  C471.187,177.722,478.826,185.36,478.894,194.799z"/>
<path style="fill:#9D27B0;" d="M444.603,194.799c0.326,9.087-6.738,16.743-15.826,17.146H48.928  c-4.269-0.009-8.333-1.852-11.162-5.058c-3.052-3.283-4.715-7.613-4.672-12.088c-0.326-9.087,6.738-16.743,15.826-17.146h379.849  c4.269,0.009,8.333,1.852,11.162,5.058C442.982,185.994,444.654,190.324,444.603,194.799z"/>
<path d="M461.748,220.517h-411.5c-6.858,0.034-13.442-2.726-18.226-7.647c-4.844-4.758-7.544-11.282-7.493-18.072  c0.017-14.197,11.522-25.702,25.719-25.719h411.5c14.18,0.06,25.659,11.539,25.719,25.719  C487.45,208.995,475.945,220.5,461.748,220.517z M50.249,186.226c-4.732,0.009-8.564,3.841-8.573,8.573  c-0.017,2.238,0.866,4.381,2.46,5.95c1.586,1.68,3.798,2.632,6.112,2.623h411.5c4.732-0.009,8.564-3.841,8.573-8.573  c0.017-2.238-0.866-4.381-2.46-5.95c-1.586-1.68-3.798-2.632-6.112-2.623H50.249z"/>
<path d="M135.978,151.943c-3.695-0.009-6.97-2.375-8.136-5.881l-6.515-19.632c-0.429-1.286-1.432-2.289-2.718-2.718l-17.634-5.812  c-0.437-0.154-0.892-0.24-1.346-0.257c-4.732,0-8.573-3.841-8.573-8.573s3.841-8.573,8.573-8.573  c2.298,0.009,4.578,0.394,6.755,1.132l17.626,5.812c6.43,2.109,11.471,7.15,13.588,13.571l6.524,19.649  c1.483,4.501-0.96,9.362-5.461,10.845C137.787,151.797,136.887,151.943,135.978,151.943z"/>
<path d="M213.125,83.351c-1.689,0-3.343-0.497-4.749-1.44l-21.604-14.402l-8.221,4.141c-5.487,2.743-12.028,2.349-17.146-1.046  l-15.8-10.553l-9.653,9.73c-1.552,1.612-3.446,2.846-5.538,3.626c-4.449,1.612-9.37-0.686-10.982-5.135  c-1.526-4.209,0.437-8.882,4.509-10.733l9.576-9.567c5.77-5.778,14.814-6.695,21.621-2.178l15.774,10.545l8.213-4.141  c5.495-2.735,12.028-2.34,17.146,1.046l21.612,14.411c3.944,2.623,5.007,7.947,2.375,11.891  C218.672,81.928,215.989,83.359,213.125,83.351z"/>
<path d="M290.29,151.934c-1.329,0-2.64-0.309-3.832-0.9l-17.146-8.573c-1.663-0.832-3.001-2.178-3.832-3.832l-6.207-12.405h-16.871  l-14.634,14.634c-3.343,3.343-8.77,3.352-12.122,0l0,0l-11.085-11.085l-19.658,19.658c-3.369,3.326-8.796,3.292-12.122-0.077  c-3.301-3.335-3.301-8.71,0-12.045L198.5,111.59c3.343-3.343,8.77-3.352,12.122,0l0,0l11.085,11.085l11.085-11.085  c1.603-1.612,3.789-2.512,6.061-2.512h25.719c3.249,0,6.215,1.835,7.673,4.741l7.296,14.591l10.142,5.067l21.587-14.385  c3.961-2.589,9.276-1.475,11.865,2.495c2.555,3.909,1.509,9.147-2.358,11.771l-25.719,17.146  C293.634,151.437,291.979,151.934,290.29,151.934z"/>
<path d="M127.413,74.778c-0.283,0-0.557-0.017-0.84-0.043c-4.715-0.454-8.161-4.647-7.698-9.362l0,0l0.086-0.857  c0.472-4.707,4.672-8.144,9.379-7.681c4.698,0.472,8.127,4.647,7.681,9.344l-0.086,0.857  C135.506,71.426,131.82,74.778,127.413,74.778z"/>
<path d="M255.99,91.924c-4.732,0-8.573-3.841-8.564-8.581c0-1.329,0.309-2.64,0.909-3.832l7.296-14.591  c1.663-3.318,4.355-6.001,7.673-7.673l14.591-7.296c4.226-2.135,9.387-0.429,11.513,3.798c2.135,4.226,0.429,9.387-3.798,11.513  c-0.017,0.009-0.034,0.017-0.051,0.026l-14.591,7.296l-7.296,14.591C262.214,90.098,259.239,91.932,255.99,91.924z"/>
<path d="M316.018,66.205c-4.732,0.009-8.581-3.824-8.581-8.556c0-2.709,1.269-5.255,3.438-6.875l22.89-17.146  c3.789-2.838,9.164-2.066,12.002,1.723c2.838,3.789,2.066,9.164-1.723,12.002l0,0l-22.89,17.146  C319.67,65.605,317.869,66.205,316.018,66.205z"/>
<path d="M376.028,100.497c-4.732,0.009-8.581-3.824-8.581-8.564c0-3.249,1.835-6.224,4.741-7.681l27.433-13.717  c4.244-2.1,9.387-0.369,11.488,3.866c2.092,4.226,0.386,9.344-3.824,11.471l-27.433,13.717  C378.66,100.188,377.357,100.497,376.028,100.497z"/>
<path d="M453.176,186.226H58.822c-4.732,0-8.573-3.832-8.573-8.564c0,0,0,0,0-0.009v-21.432  c0.009-11.831,9.602-21.424,21.432-21.432c2.366,0,4.286-1.92,4.286-4.286v-8.573c0.009-9.525,6.293-17.9,15.44-20.575l1.286-27.399  c0.48-9.122,7.999-16.289,17.137-16.314h10.073l3.806-27.33c0.806-6.987,4.518-13.314,10.236-17.42  c4.724-3.343,10.656-4.475,16.271-3.112l14.514,3.523c1.406,0.189,2.795-0.42,3.618-1.577l3.078-3.755  c5.572-7.218,15.243-9.885,23.73-6.541l10.322,4.209c3.335,1.372,6.275,3.532,8.581,6.301l11.171,13.597  c0.952,1.612,3.026,2.143,4.629,1.192c0.171-0.103,0.343-0.223,0.497-0.351l21.955-17.746c4.707-3.875,10.913-5.435,16.897-4.252  c6.37,1.415,11.788,5.564,14.805,11.351c1.32,2.409,3.078,3.721,5.349,2.34l2.169-1.303c1.612-0.977,3.361-1.715,5.195-2.169  l15.843-4.852c10.828-2.992,22.135,2.906,25.873,13.502l1.826,4.518c0.043,0.111,0.103,0.266,0.18,0.429l0.197,0.266l4.518-3.395  c0.412-0.309,0.857-0.583,1.312-0.814l11.659-5.83c6.593-3.283,14.548-1.98,19.752,3.232l4.201,4.201  c1.612,1.612,2.512,3.789,2.512,6.061v8.573h8.573c3.686,0,6.961,2.358,8.127,5.864l7.236,21.707h0.094  c4.552,0,8.907,1.817,12.122,5.032l10.287,10.287l7.398-0.026c7.313,0.026,13.82,4.655,16.237,11.565l6.644,20.026  c0.712,2.152,0.54,4.501-0.471,6.533l-6.498,12.988c9.353,6.498,13.305,18.38,9.705,29.182l-0.009,0.026l-2.298,6.815v7.167  C461.748,182.385,457.908,186.226,453.176,186.226L453.176,186.226z M67.395,169.08h377.208c0-0.934,0.154-1.86,0.454-2.735  l2.735-8.144c0.754-2.246,0.532-4.698-0.617-6.773c-1.149-2.118-3.146-3.643-5.487-4.209c-4.664-1.166-7.518-5.855-6.421-10.536  l1.029-4.029c0.154-0.592,0.369-1.166,0.634-1.715l6.987-13.974l-5.487-16.52l-7.467,0.043c-4.526-0.009-8.864-1.809-12.071-5.007  l-10.279-10.27l-1.329,0.669c-4.235,2.118-9.379,0.403-11.505-3.832l-1.715-3.429c-0.18-0.369-0.334-0.737-0.463-1.123  l-6.618-19.855h-2.392c-9.464-0.009-17.137-7.681-17.146-17.146v-5.032l-1.697-1.689l-10.922,5.461l-10.785,8.101  c-3.781,2.846-9.156,2.083-11.993-1.697c-0.009-0.009-0.017-0.026-0.026-0.034l-5.744-7.716c-0.206-0.283-0.403-0.574-0.574-0.883  c-0.497-0.874-0.934-1.783-1.312-2.718l-1.852-4.561c-0.883-2.152-2.786-4.244-4.981-3.583l-16.28,4.972l-0.909,0.343l-2.143,1.286  c-9.996,5.804-22.804,2.409-28.608-7.578c-0.231-0.403-0.454-0.814-0.66-1.234c-0.609-1.329-1.757-2.34-3.155-2.76  c-0.994-0.154-2.006,0.146-2.752,0.823L241.15,39.706c-8.727,7.167-21.621,5.907-28.788-2.829c-0.111-0.137-0.223-0.283-0.334-0.42  l-11.085-13.502c-0.497-0.6-1.114-1.08-1.826-1.406l-10.39-4.244c-1.543-0.437-3.189,0.197-4.046,1.552l-3.061,3.746  c-4.955,6.25-13.039,9.113-20.824,7.373l-14.574-3.532c-0.892-0.206-1.826,0-2.546,0.566c-1.715,1.38-2.786,3.403-2.975,5.598  l-4.724,33.923c-0.377,2.709-2.023,5.075-4.432,6.37c-2.358,1.26-4.989,1.903-7.664,1.877h-14.06l-1.637,34.695  c-0.214,4.569-3.986,8.17-8.564,8.17h-2.229c-2.366,0-4.286,1.92-4.286,4.286v8.573c-0.009,11.831-9.602,21.424-21.432,21.432  c-2.366,0-4.286,1.92-4.286,4.286v12.859H67.395z"/>
<path d="M443.582,147.399c-0.703,0-1.406-0.086-2.083-0.257l-16.117-4.029c-4.587-1.174-7.356-5.838-6.19-10.425  c1.166-4.552,5.77-7.321,10.339-6.207l16.117,4.029c4.595,1.149,7.39,5.804,6.241,10.39  C450.938,144.716,447.509,147.391,443.582,147.399z"/>
<path d="M376.011,160.507c-4.732,0-8.573-3.841-8.564-8.581c0-1.329,0.309-2.64,0.909-3.832l4.149-8.307l-16.34-5.444  c-4.492-1.5-6.918-6.353-5.418-10.845c1.5-4.492,6.353-6.918,10.845-5.418l16.34,5.444c8.984,3.001,13.837,12.722,10.836,21.707  c-0.257,0.763-0.566,1.509-0.926,2.229l-4.149,8.299C382.235,158.681,379.26,160.516,376.011,160.507z"/>
<g>
</g>
<g>
</g>
<g>
</g>
<g>
</g>
<g>
</g>
<g>
</g>
<g>
</g>
<g>
</g>
<g>
</g>
<g>
</g>
<g>
</g>
<g>
</g>
<g>
</g>
<g>
</g>
<g>
</g>
</svg>
