<?xml version="1.0" encoding="iso-8859-1"?>
<!-- Generator: Adobe Illustrator 19.0.0, SVG Export Plug-In . SVG Version: 6.00 Build 0)  -->
<svg xmlns="http://www.w3.org/2000/svg" xmlns:xlink="http://www.w3.org/1999/xlink" version="1.1" id="Capa_1" x="0px" y="0px" viewBox="0 0 511.994 511.994" style="enable-background:new 0 0 511.994 511.994;" xml:space="preserve">
<polygon style="fill:#FDD834;" points="388.275,145.031 371.463,321.515 365.916,379.887 362.417,416.925 356.87,475.213   354.139,503.46 157.856,503.46 143.433,352.066 137.203,286.952 133.278,245.562 127.048,180.447 123.72,145.031 "/>
<polygon style="fill:#FFEB3A;" points="354.139,145.031 339.494,321.515 334.664,379.887 331.617,416.925 326.787,475.213   324.406,503.46 153.452,503.46 140.89,352.066 135.462,286.952 132.04,245.562 126.621,180.447 123.72,145.031 "/>
<path d="M354.139,511.994H157.856c-4.404,0-8.073-3.345-8.491-7.723L115.22,145.833c-0.435-4.694,3.021-8.858,7.715-9.294  c0.265-0.026,0.521-0.034,0.785-0.034h264.555c4.711-0.009,8.526,3.806,8.534,8.517c0,0.273-0.017,0.555-0.043,0.828L362.63,504.288  C362.212,508.658,358.534,511.994,354.139,511.994z M165.622,494.926h180.777l32.506-341.362H133.098L165.622,494.926z"/>
<g>
	<path style="fill:#558B30;" d="M132.254,102.36h247.487c14.141,0,25.602,11.461,25.602,25.602v8.534   c0,4.711-3.823,8.534-8.534,8.534H115.185c-4.711,0-8.534-3.823-8.534-8.534v-8.534C106.651,113.822,118.113,102.36,132.254,102.36   z"/>
	<path style="fill:#558B30;" d="M362.673,102.36L362.673,102.36c0-18.852-15.284-34.136-34.136-34.136H183.458   c-18.852,0-34.136,15.284-34.136,34.136l0,0"/>
</g>
<g>
	<path style="fill:#8BC34A;" d="M132.254,102.36h213.351c14.141,0,25.602,11.461,25.602,25.602v8.534   c0,4.711-3.823,8.534-8.534,8.534H115.185c-4.711,0-8.534-3.823-8.534-8.534v-8.534C106.651,113.822,118.113,102.36,132.254,102.36   z"/>
	<path style="fill:#8BC34A;" d="M333.418,102.36L333.418,102.36c1.007-17.751-12.494-32.993-30.236-34.136H174.685   c-17.742,1.144-31.243,16.385-30.236,34.136l0,0"/>
</g>
<path d="M396.809,153.565H115.185c-9.422-0.009-17.06-7.646-17.068-17.068v-8.534c0.017-18.843,15.293-34.119,34.136-34.136h247.487  c18.843,0.017,34.119,15.293,34.136,34.136v8.534C413.868,145.918,406.231,153.556,396.809,153.565z M132.254,110.894  c-9.422,0.009-17.06,7.646-17.068,17.068v8.534h281.623v-8.534c-0.009-9.422-7.647-17.06-17.068-17.068H132.254z"/>
<path d="M362.673,110.894c-4.711,0-8.534-3.815-8.534-8.526c0,0,0,0,0-0.009c-0.017-14.132-11.47-25.585-25.602-25.602H183.458  c-14.132,0.017-25.585,11.47-25.602,25.602c0,4.711-3.823,8.534-8.534,8.534c-4.711,0-8.534-3.823-8.534-8.534  c0.026-23.554,19.116-42.645,42.67-42.67h145.079c23.554,0.026,42.645,19.116,42.67,42.67  C371.207,107.071,367.392,110.894,362.673,110.894C362.681,110.894,362.681,110.894,362.673,110.894z"/>
<g>
	<polygon style="fill:#F57C00;" points="371.463,321.515 365.916,379.887 133.278,245.562 133.107,243.855 127.048,180.447    342.362,304.703  "/>
	<polygon style="fill:#F57C00;" points="362.417,416.925 356.87,475.213 143.433,352.066 143.262,350.274 137.203,286.952    333.316,400.113  "/>
</g>
<g>
	<polygon style="fill:#FF9801;" points="342.362,304.703 336.985,361.539 133.107,243.855 127.048,180.447  "/>
	<polygon style="fill:#FF9801;" points="333.316,400.113 327.939,456.865 143.262,350.274 137.203,286.952  "/>
</g>
<path d="M365.916,388.422c-1.502,0-2.97-0.393-4.267-1.144L129.011,252.952c-2.39-1.383-3.968-3.832-4.224-6.58l-6.23-65.115  c-0.452-4.694,2.987-8.858,7.672-9.311c1.767-0.171,3.55,0.213,5.086,1.101l244.424,141.068c2.893,1.673,4.54,4.873,4.224,8.201  l-5.547,58.373C373.989,385.076,370.319,388.422,365.916,388.422L365.916,388.422z M141.359,240.364l217.328,125.485l3.764-39.683  l-225.324-130.05L141.359,240.364z"/>
<path d="M356.878,483.747c-1.502,0-2.97-0.393-4.267-1.144L139.166,359.457c-2.39-1.383-3.968-3.832-4.224-6.58l-6.221-65.115  c-0.452-4.694,2.987-8.858,7.672-9.311c1.767-0.171,3.55,0.213,5.086,1.101l225.213,129.973c2.893,1.673,4.54,4.873,4.224,8.201  l-5.539,58.288C364.96,480.401,361.273,483.747,356.878,483.747L356.878,483.747z M151.506,346.869l198.126,114.314l3.764-39.607  L147.273,302.612L151.506,346.869z"/>
<path d="M354.139,187.701h-85.34c-4.711,0-8.534-3.823-8.534-8.534c0-4.711,3.823-8.534,8.534-8.534h85.34  c4.711,0,8.534,3.823,8.534,8.534C362.673,183.878,358.858,187.701,354.139,187.701z"/>
<path d="M234.662,187.701h-17.068c-4.711,0-8.534-3.823-8.534-8.534c0-4.711,3.823-8.534,8.534-8.534h17.068  c4.711,0,8.534,3.823,8.534,8.534C243.196,183.878,239.381,187.701,234.662,187.701z"/>
<path d="M251.73,76.758c-4.711,0-8.534-3.815-8.534-8.526c0,0,0,0,0-0.009V48.229c-0.247-15.421,6.597-30.108,18.562-39.837  c9.481-7.51,21.924-10.173,33.65-7.203l112.069,28.982c4.566,1.178,7.305,5.837,6.127,10.394c-1.178,4.566-5.837,7.305-10.394,6.127  L291.14,17.711c-6.614-1.681-13.637-0.137-18.937,4.173c-7.8,6.494-12.204,16.198-11.939,26.345v19.995  C260.264,72.935,256.45,76.758,251.73,76.758C251.739,76.758,251.739,76.758,251.73,76.758z"/>
<g>
</g>
<g>
</g>
<g>
</g>
<g>
</g>
<g>
</g>
<g>
</g>
<g>
</g>
<g>
</g>
<g>
</g>
<g>
</g>
<g>
</g>
<g>
</g>
<g>
</g>
<g>
</g>
<g>
</g>
</svg>
