<?xml version="1.0" encoding="iso-8859-1"?>
<!-- Generator: Adobe Illustrator 19.0.0, SVG Export Plug-In . SVG Version: 6.00 Build 0)  -->
<svg xmlns="http://www.w3.org/2000/svg" xmlns:xlink="http://www.w3.org/1999/xlink" version="1.1" id="Capa_1" x="0px" y="0px" viewBox="0 0 512 512" style="enable-background:new 0 0 512 512;" xml:space="preserve">
<rect x="324.267" y="8.533" style="fill:#4E342E;" width="68.267" height="68.267"/>
<rect x="119.467" y="145.067" style="fill:#283593;" width="273.067" height="315.733"/>
<rect x="119.467" y="145.067" style="fill:#3F51B5;" width="238.933" height="315.733"/>
<path style="fill:#FFB301;" d="M392.533,145.067v42.667c-9.839-7.467-21.786-11.648-34.133-11.947  c-5.922-0.026-11.802,0.93-17.408,2.816C306.091,189.525,281.6,230.4,281.6,230.4c-3.533-8.977-8.619-17.271-15.019-24.491  c-24.747-27.307-64.512-30.805-96.427-28.075c-17.195,1.51-34.185,4.83-50.688,9.899v-42.667H392.533z"/>
<path style="fill:#FEC108;" d="M358.4,145.067v30.72c-5.922-0.026-11.802,0.93-17.408,2.816  c-30.464-10.24-57.429,9.387-74.411,27.307c-24.747-27.307-64.512-30.805-96.427-28.075c-16.913-1.434-33.946-0.751-50.688,2.048  v-34.816H358.4z"/>
<path d="M281.6,238.933c-0.222,0-0.452-0.009-0.683-0.026c-3.234-0.256-6.033-2.321-7.245-5.333  c-30.788-76.988-150.298-38.144-151.509-37.743c-4.471,1.493-9.301-0.93-10.795-5.402c-0.29-0.87-0.435-1.783-0.435-2.697v-42.667  c0-4.71,3.814-8.533,8.525-8.533c0,0,0,0,0.009,0h273.067c4.71,0,8.533,3.814,8.533,8.525c0,0,0,0,0,0.009v42.667  c0,4.71-3.814,8.533-8.533,8.533c-1.775,0-3.516-0.555-4.958-1.587c-10.965-8.678-25.182-12.1-38.895-9.378  c-33.963,7.066-59.511,49.067-59.767,49.485C287.377,237.363,284.595,238.933,281.6,238.933z M187.409,168.849  c34.978,0,74.172,9.242,95.445,44.834c11.554-15.053,33.946-39.177,62.362-45.09c13.065-2.782,26.675-1.254,38.793,4.361V153.6H128  v22.912C147.43,171.622,167.373,169.045,187.409,168.849z"/>
<path d="M392.533,469.333H119.467c-4.71,0-8.533-3.814-8.533-8.525c0,0,0,0,0-0.009V187.733c0-3.669,2.347-6.938,5.837-8.098  c1.289-0.427,122.078-39.603,166.084,34.048c11.554-15.053,33.946-39.177,62.362-45.09c18.372-3.712,37.444,0.742,52.284,12.194  c2.236,1.604,3.567,4.19,3.567,6.946V460.8C401.067,465.51,397.252,469.333,392.533,469.333L392.533,469.333z M128,452.267h256  V192.282c-10.351-6.989-23.083-9.506-35.319-6.98c-33.963,7.066-59.511,49.067-59.767,49.485c-1.638,2.807-4.762,4.412-8.004,4.113  c-3.234-0.256-6.033-2.321-7.245-5.333c-26.837-67.132-121.173-46.174-145.664-39.45V452.267z"/>
<rect x="119.467" y="460.8" style="fill:#283593;" width="273.067" height="42.667"/>
<path d="M392.533,512H119.467c-4.71,0-8.533-3.814-8.533-8.525c0,0,0,0,0-0.009V460.8c0-4.71,3.814-8.533,8.525-8.533  c0,0,0,0,0.009,0h273.067c4.71,0,8.533,3.814,8.533,8.525c0,0,0,0,0,0.009v42.667C401.067,508.177,397.252,512,392.533,512  L392.533,512z M128,494.933h256v-25.6H128V494.933z"/>
<path d="M153.6,512c-4.71,0-8.533-3.814-8.533-8.525c0,0,0,0,0-0.009V460.8c0-4.71,3.823-8.533,8.533-8.533s8.533,3.823,8.533,8.533  v42.667C162.133,508.177,158.319,512,153.6,512L153.6,512z"/>
<path d="M187.733,512c-4.71,0-8.533-3.814-8.533-8.525c0,0,0,0,0-0.009V460.8c0-4.71,3.823-8.533,8.533-8.533  c4.71,0,8.533,3.823,8.533,8.533v42.667C196.267,508.177,192.452,512,187.733,512L187.733,512z"/>
<path d="M221.867,512c-4.71,0-8.533-3.814-8.533-8.525c0,0,0,0,0-0.009V460.8c0-4.71,3.823-8.533,8.533-8.533  c4.71,0,8.533,3.823,8.533,8.533v42.667C230.4,508.177,226.586,512,221.867,512L221.867,512z"/>
<path d="M256,512c-4.71,0-8.533-3.814-8.533-8.525c0,0,0,0,0-0.009V460.8c0-4.71,3.823-8.533,8.533-8.533  c4.71,0,8.533,3.823,8.533,8.533v42.667C264.533,508.177,260.719,512,256,512L256,512z"/>
<path d="M290.133,512c-4.71,0-8.533-3.814-8.533-8.525c0,0,0,0,0-0.009V460.8c0-4.71,3.823-8.533,8.533-8.533  c4.71,0,8.533,3.823,8.533,8.533v42.667C298.667,508.177,294.852,512,290.133,512L290.133,512z"/>
<path d="M324.267,512c-4.71,0-8.533-3.814-8.533-8.525c0,0,0,0,0-0.009V460.8c0-4.71,3.823-8.533,8.533-8.533  s8.533,3.823,8.533,8.533v42.667C332.8,508.177,328.986,512,324.267,512L324.267,512z"/>
<path d="M358.4,512c-4.71,0-8.533-3.814-8.533-8.525c0,0,0,0,0-0.009V460.8c0-4.71,3.823-8.533,8.533-8.533s8.533,3.823,8.533,8.533  v42.667C366.933,508.177,363.119,512,358.4,512L358.4,512z"/>
<rect x="153.6" y="264.533" style="fill:#607D8B;" width="204.8" height="110.933"/>
<path style="fill:#CFD8DC;" d="M153.6,290.133h170.667c4.71,0,8.533,3.823,8.533,8.533V384l0,0H153.6l0,0V290.133L153.6,290.133z"/>
<path d="M358.4,384H153.6c-4.71,0-8.533-3.814-8.533-8.525c0,0,0,0,0-0.009V264.533c0-4.71,3.814-8.533,8.525-8.533c0,0,0,0,0.009,0  h204.8c4.71,0,8.533,3.814,8.533,8.525c0,0,0,0,0,0.009v110.933C366.933,380.177,363.119,384,358.4,384L358.4,384z M162.133,366.933  h187.733v-93.867H162.133V366.933z"/>
<g>
	<rect x="119.467" y="76.8" style="fill:#4E342E;" width="68.267" height="68.267"/>
	<rect x="187.733" y="76.8" style="fill:#4E342E;" width="68.267" height="68.267"/>
	<rect x="256" y="76.8" style="fill:#4E342E;" width="68.267" height="68.267"/>
	<rect x="324.267" y="76.8" style="fill:#4E342E;" width="68.267" height="68.267"/>
	<rect x="256" y="8.533" style="fill:#4E342E;" width="68.267" height="68.267"/>
</g>
<g>
	<path style="fill:#795548;" d="M298.667,42.667V76.8H256V34.133h34.133C294.844,34.15,298.65,37.956,298.667,42.667z"/>
	<path style="fill:#795548;" d="M366.933,42.667V76.8h-42.667V34.133H358.4C363.11,34.15,366.916,37.956,366.933,42.667z"/>
	<path style="fill:#795548;" d="M298.667,110.933v34.133H256V102.4h34.133C294.844,102.417,298.65,106.223,298.667,110.933z"/>
	<path style="fill:#795548;" d="M366.933,110.933v34.133h-42.667V102.4H358.4C363.11,102.417,366.916,106.223,366.933,110.933z"/>
	<path style="fill:#795548;" d="M162.133,110.933v34.133h-42.667V102.4H153.6C158.31,102.417,162.116,106.223,162.133,110.933z"/>
	<path style="fill:#795548;" d="M230.4,110.933v34.133h-42.667V102.4h34.133C226.577,102.417,230.383,106.223,230.4,110.933z"/>
</g>
<path d="M187.733,153.6h-68.267c-4.71,0-8.533-3.814-8.533-8.525c0,0,0,0,0-0.009V76.8c0-4.71,3.814-8.533,8.525-8.533  c0.009,0,0.009,0,0.009,0h68.267c4.71,0,8.533,3.814,8.533,8.525c0,0.009,0,0.009,0,0.009v68.267  C196.267,149.777,192.452,153.6,187.733,153.6L187.733,153.6z M128,136.533h51.2v-51.2H128V136.533z"/>
<path d="M256,153.6h-68.267c-4.71,0-8.533-3.814-8.533-8.525c0,0,0,0,0-0.009V76.8c0-4.71,3.814-8.533,8.525-8.533  c0.009,0,0.009,0,0.009,0H256c4.71,0,8.533,3.814,8.533,8.525c0,0.009,0,0.009,0,0.009v68.267  C264.533,149.777,260.719,153.6,256,153.6L256,153.6z M196.267,136.533h51.2v-51.2h-51.2V136.533z"/>
<path d="M324.267,153.6H256c-4.71,0-8.533-3.814-8.533-8.525c0,0,0,0,0-0.009V76.8c0-4.71,3.814-8.533,8.525-8.533  c0.009,0,0.009,0,0.009,0h68.267c4.71,0,8.533,3.814,8.533,8.525c0,0.009,0,0.009,0,0.009v68.267  C332.8,149.777,328.986,153.6,324.267,153.6L324.267,153.6z M264.533,136.533h51.2v-51.2h-51.2V136.533z"/>
<path d="M392.533,153.6h-68.267c-4.71,0-8.533-3.814-8.533-8.525c0,0,0,0,0-0.009V76.8c0-4.71,3.814-8.533,8.525-8.533  c0.009,0,0.009,0,0.009,0h68.267c4.71,0,8.533,3.814,8.533,8.525c0,0.009,0,0.009,0,0.009v68.267  C401.067,149.777,397.252,153.6,392.533,153.6L392.533,153.6z M332.8,136.533H384v-51.2h-51.2V136.533z"/>
<path d="M324.267,85.333H256c-4.71,0-8.533-3.814-8.533-8.525c0-0.009,0-0.009,0-0.009V8.533c0-4.71,3.814-8.533,8.525-8.533  C256,0,256,0,256,0h68.267c4.71,0,8.533,3.814,8.533,8.525c0,0.009,0,0.009,0,0.009V76.8C332.8,81.51,328.986,85.333,324.267,85.333  L324.267,85.333z M264.533,68.267h51.2v-51.2h-51.2V68.267z"/>
<path d="M392.533,85.333h-68.267c-4.71,0-8.533-3.814-8.533-8.525c0-0.009,0-0.009,0-0.009V8.533c0-4.71,3.814-8.533,8.525-8.533  c0.009,0,0.009,0,0.009,0h68.267c4.71,0,8.533,3.814,8.533,8.525c0,0.009,0,0.009,0,0.009V76.8  C401.067,81.51,397.252,85.333,392.533,85.333L392.533,85.333z M332.8,68.267H384v-51.2h-51.2V68.267z"/>
<path d="M153.6,119.467c-0.572-0.017-1.143-0.077-1.707-0.171c-0.538-0.094-1.05-0.265-1.536-0.512  c-0.546-0.188-1.067-0.444-1.545-0.768c-0.444-0.316-0.87-0.657-1.271-1.024c-3.413-3.345-3.465-8.823-0.119-12.237  c3.345-3.413,8.823-3.465,12.237-0.119c3.413,3.345,3.465,8.823,0.119,12.237C158.148,118.528,155.921,119.467,153.6,119.467z"/>
<path d="M221.867,119.467c-0.572-0.017-1.143-0.077-1.707-0.171c-0.538-0.094-1.05-0.265-1.536-0.512  c-0.546-0.188-1.067-0.444-1.545-0.768c-0.444-0.316-0.87-0.657-1.271-1.024c-0.751-0.828-1.357-1.783-1.792-2.816  c-0.435-1.024-0.666-2.125-0.683-3.243c0.026-2.261,0.913-4.42,2.475-6.059c2.449-2.423,6.118-3.132,9.301-1.792  c1.033,0.435,1.988,1.041,2.816,1.792c1.562,1.638,2.441,3.797,2.475,6.059c-0.017,1.118-0.247,2.219-0.683,3.243  c-0.435,1.033-1.041,1.988-1.792,2.816c-0.828,0.751-1.783,1.357-2.816,1.792C224.094,119.262,222.985,119.492,221.867,119.467z"/>
<path d="M290.133,119.467c-0.546-0.017-1.092-0.077-1.621-0.171c-0.563-0.085-1.109-0.256-1.613-0.512  c-0.546-0.188-1.067-0.444-1.545-0.768c-0.427-0.341-0.853-0.683-1.271-1.024c-0.768-0.819-1.382-1.775-1.792-2.816  c-0.486-1.015-0.725-2.125-0.691-3.243c0.026-2.261,0.913-4.42,2.475-6.059l1.271-1.024c0.478-0.324,0.998-0.58,1.545-0.768  c0.503-0.256,1.05-0.427,1.613-0.512c1.067-0.256,2.176-0.256,3.243,0c0.563,0.077,1.118,0.247,1.621,0.512  c0.521,0.171,1.015,0.435,1.451,0.768c0.512,0.341,0.939,0.683,1.365,1.024c1.562,1.638,2.441,3.797,2.475,6.059  c-0.017,1.118-0.247,2.219-0.683,3.243c-0.41,1.041-1.024,1.997-1.792,2.816c-0.427,0.341-0.862,0.683-1.365,1.024  c-0.435,0.341-0.922,0.597-1.451,0.768c-0.512,0.256-1.058,0.427-1.621,0.512C291.217,119.39,290.679,119.45,290.133,119.467z"/>
<path d="M358.4,119.467c-2.261-0.017-4.429-0.905-6.059-2.475c-0.751-0.828-1.357-1.783-1.792-2.816  c-0.913-2.065-0.913-4.42,0-6.485c0.435-1.033,1.041-1.98,1.792-2.816l1.271-1.024c0.478-0.324,0.998-0.58,1.545-0.768  c0.486-0.247,0.998-0.418,1.536-0.512c1.092-0.256,2.236-0.256,3.328,0c0.563,0.077,1.118,0.247,1.621,0.512  c0.521,0.171,1.015,0.435,1.451,0.768c0.512,0.341,0.939,0.683,1.365,1.024c0.768,0.811,1.382,1.766,1.792,2.816  c0.913,2.065,0.913,4.42,0,6.485c-0.435,1.033-1.041,1.988-1.792,2.816c-0.418,0.384-0.879,0.725-1.365,1.024  c-0.435,0.341-0.922,0.597-1.451,0.768c-0.512,0.256-1.058,0.427-1.621,0.512C359.484,119.39,358.946,119.45,358.4,119.467z"/>
<path d="M290.133,51.2c-0.546-0.017-1.092-0.077-1.621-0.171c-0.563-0.085-1.109-0.256-1.613-0.512  c-0.546-0.188-1.067-0.444-1.545-0.768c-0.427-0.341-0.853-0.683-1.271-1.024c-0.751-0.828-1.357-1.783-1.792-2.816  c-0.486-1.015-0.725-2.125-0.691-3.243c0.026-2.261,0.913-4.42,2.475-6.059l1.271-1.024c0.478-0.324,0.998-0.58,1.545-0.768  c0.503-0.256,1.05-0.427,1.613-0.512c1.067-0.256,2.176-0.256,3.243,0c0.563,0.077,1.118,0.247,1.621,0.512  c0.521,0.171,1.015,0.435,1.451,0.768c0.512,0.341,0.939,0.683,1.365,1.024c1.57,1.638,2.449,3.797,2.483,6.059  c-0.017,1.118-0.247,2.219-0.683,3.243c-0.435,1.033-1.041,1.988-1.792,2.816c-0.427,0.341-0.862,0.683-1.365,1.024  c-0.435,0.341-0.922,0.597-1.451,0.768c-0.512,0.256-1.058,0.427-1.621,0.512C291.217,51.123,290.679,51.183,290.133,51.2z"/>
<path d="M358.4,51.2c-2.261-0.017-4.429-0.905-6.059-2.475c-1.562-1.638-2.441-3.797-2.475-6.059  c0.017-0.546,0.068-1.084,0.171-1.621c0.085-0.563,0.256-1.118,0.521-1.621c0.188-0.546,0.444-1.058,0.768-1.536  c0.316-0.444,0.657-0.87,1.024-1.28c2.014-1.997,4.89-2.867,7.671-2.304c0.563,0.077,1.118,0.247,1.621,0.512  c0.521,0.171,1.015,0.435,1.451,0.768c0.512,0.341,0.939,0.683,1.365,1.024c3.302,3.362,3.302,8.755,0,12.117  c-0.427,0.341-0.862,0.683-1.365,1.024c-0.435,0.341-0.922,0.597-1.451,0.768c-0.512,0.256-1.058,0.427-1.621,0.512  C359.484,51.123,358.946,51.183,358.4,51.2z"/>
<g>
</g>
<g>
</g>
<g>
</g>
<g>
</g>
<g>
</g>
<g>
</g>
<g>
</g>
<g>
</g>
<g>
</g>
<g>
</g>
<g>
</g>
<g>
</g>
<g>
</g>
<g>
</g>
<g>
</g>
</svg>
