<?xml version="1.0" encoding="iso-8859-1"?>
<!-- Generator: Adobe Illustrator 19.0.0, SVG Export Plug-In . SVG Version: 6.00 Build 0)  -->
<svg xmlns="http://www.w3.org/2000/svg" xmlns:xlink="http://www.w3.org/1999/xlink" version="1.1" id="Capa_1" x="0px" y="0px" viewBox="0 0 512 512" style="enable-background:new 0 0 512 512;" xml:space="preserve">
<g>
	<path style="fill:#9E9E9E;" d="M384,68.267c0,18.005-16.981,34.048-43.861,44.971c-16.725,2.091-33.126,6.272-48.811,12.459   C279.62,127.258,267.819,128.034,256,128c-5.803,0-11.435-0.171-16.981-0.512C176.384,123.563,128,98.56,128,68.267   s48.299-55.296,110.933-59.136C244.48,8.704,250.197,8.533,256,8.533C326.656,8.533,384,35.243,384,68.267z"/>
	<path style="fill:#9E9E9E;" d="M264.533,213.333c0,33.024-57.344,59.733-128,59.733c-5.803,0-11.52-0.171-17.067-0.597   c-62.635-3.84-110.933-28.843-110.933-59.136c0-30.379,48.555-55.381,111.36-59.221c0.094,0.085,0.247,0.085,0.341,0   c2.56-0.171,5.12-0.256,7.765-0.341c2.816-0.085,5.632-0.171,8.533-0.171c47.445,0,88.832,12.032,110.933,29.952   c2.406,1.903,4.659,3.985,6.741,6.229c0,0.085,0.085,0.171,0.256,0.256c1.152,1.203,2.176,2.517,3.072,3.925l0.256,0.256   C262.042,199.697,264.405,206.404,264.533,213.333z"/>
	<path style="fill:#9E9E9E;" d="M503.467,170.667c0,33.024-57.344,59.733-128,59.733c-5.803,0-11.52-0.171-17.067-0.597   c-45.312-2.731-83.2-16.64-100.608-35.584l-0.256-0.256c-0.896-1.408-1.92-2.722-3.072-3.925c-0.171-0.085-0.256-0.171-0.256-0.256   c-4.113-5.291-6.468-11.733-6.741-18.432v-0.683c0-18.005,16.981-34.048,43.861-44.971c15.684-6.187,32.085-10.368,48.811-12.459   c5.888-0.768,11.861-1.365,17.92-1.707c5.717-0.427,11.52-0.597,17.408-0.597c2.901,0,5.717,0.085,8.533,0.171   C450.731,113.152,503.467,139.008,503.467,170.667z"/>
</g>
<g>
	<path style="fill:#CFD8DC;" d="M349.867,68.267c0,18.005-16.981,34.048-43.861,44.971c-16.725,2.091-33.126,6.272-48.811,12.459   c-5.888,0.768-12.032,1.365-18.176,1.792C176.384,123.563,128,98.56,128,68.267s48.299-55.296,110.933-59.136   C301.568,12.971,349.867,37.973,349.867,68.267z"/>
	<path style="fill:#CFD8DC;" d="M230.4,213.333c0,30.293-48.299,55.296-110.933,59.136c-62.635-3.84-110.933-28.843-110.933-59.136   c0-30.379,48.555-55.381,111.36-59.221c0.094,0.085,0.247,0.085,0.341,0c39.851,2.645,73.813,13.824,93.099,29.44   c2.406,1.903,4.659,3.985,6.741,6.229c0,0.085,0.085,0.171,0.256,0.256c1.152,1.203,2.176,2.517,3.072,3.925l0.256,0.256   C227.908,199.697,230.272,206.404,230.4,213.333z"/>
	<path style="fill:#CFD8DC;" d="M469.333,170.667c0,30.293-48.299,55.296-110.933,59.136c-45.312-2.731-83.2-16.64-100.608-35.584   l-0.256-0.256c-0.896-1.408-1.92-2.722-3.072-3.925c-0.171-0.085-0.256-0.171-0.256-0.256c-4.113-5.291-6.468-11.733-6.741-18.432   v-0.683c0-18.005,16.981-34.048,43.861-44.971c15.684-6.187,32.085-10.368,48.811-12.459c5.888-0.768,11.861-1.365,17.92-1.707   C420.864,115.285,469.333,140.288,469.333,170.667z"/>
</g>
<path d="M256,136.533c-76.561,0-136.533-29.986-136.533-68.267S179.439,0,256,0s136.533,29.986,136.533,68.267  c0,21.214-17.468,39.996-49.186,52.873c-0.666,0.273-1.357,0.452-2.065,0.546c-16,2.005-31.693,5.999-46.711,11.895  c-0.674,0.273-1.374,0.469-2.091,0.563C280.388,135.765,268.203,136.559,256,136.533z M256,17.067  c-56.508,0-119.467,21.026-119.467,51.2s62.959,51.2,119.467,51.2c11.076,0.026,22.135-0.674,33.118-2.082  c15.693-6.11,32.077-10.291,48.777-12.45c23.893-9.916,37.572-23.245,37.572-36.668C375.467,38.093,312.508,17.067,256,17.067z"/>
<path d="M384,119.637c-4.71,0-8.533-3.823-8.533-8.533V68.267c0-4.71,3.823-8.533,8.533-8.533s8.533,3.823,8.533,8.533v42.837  C392.533,115.814,388.71,119.637,384,119.637z"/>
<path d="M384,204.715c-4.676,0.043-8.491-3.721-8.533-8.388c0-0.017,0-0.034,0-0.06v-0.171c0.051-4.71,3.908-8.491,8.619-8.448  c4.71,0.051,8.491,3.908,8.448,8.619C392.482,200.951,388.676,204.715,384,204.715L384,204.715z"/>
<g>
	<path style="fill:#D84315;" d="M341.333,68.267c0,14.165-38.229,25.6-85.333,25.6c-8.96,0-17.579-0.427-25.6-1.195   c-34.645-3.243-59.733-12.885-59.733-24.405s25.088-21.163,59.733-24.405c8.021-0.768,16.64-1.195,25.6-1.195   C303.104,42.667,341.333,54.101,341.333,68.267z"/>
	<path style="fill:#D84315;" d="M221.867,213.333c0,14.165-38.229,25.6-85.333,25.6c-8.96,0-17.579-0.427-25.6-1.195   C76.288,234.496,51.2,224.853,51.2,213.333s25.088-21.163,59.733-24.405c8.021-0.768,16.64-1.195,25.6-1.195   C183.637,187.733,221.867,199.168,221.867,213.333z"/>
	<path style="fill:#D84315;" d="M460.8,170.667c0,14.165-38.229,25.6-85.333,25.6c-8.96,0-17.579-0.427-25.6-1.195   c-34.645-3.243-59.733-12.885-59.733-24.405s25.088-21.163,59.733-24.405c8.021-0.768,16.64-1.195,25.6-1.195   C422.571,145.067,460.8,156.501,460.8,170.667z"/>
</g>
<g>
	<path style="fill:#FF5722;" d="M290.133,68.267c0,11.52-25.088,21.163-59.733,24.405c-34.645-3.243-59.733-12.885-59.733-24.405   s25.088-21.163,59.733-24.405C265.045,47.104,290.133,56.747,290.133,68.267z"/>
	<path style="fill:#FF5722;" d="M170.667,213.333c0,11.52-25.088,21.163-59.733,24.405C76.288,234.496,51.2,224.853,51.2,213.333   s25.088-21.163,59.733-24.405C145.579,192.171,170.667,201.813,170.667,213.333z"/>
	<path style="fill:#FF5722;" d="M409.6,170.667c0,11.52-25.088,21.163-59.733,24.405c-34.645-3.243-59.733-12.885-59.733-24.405   s25.088-21.163,59.733-24.405C384.512,149.504,409.6,159.147,409.6,170.667z"/>
</g>
<path d="M256,102.4c-45.21,0-93.867-10.684-93.867-34.133S210.79,34.133,256,34.133s93.867,10.684,93.867,34.133  S301.21,102.4,256,102.4z M256,51.2c-49.92,0-75.511,12.459-76.809,17.195c1.297,4.48,26.889,16.939,76.809,16.939  c49.468,0,75.051-12.237,76.774-17.067C331.051,63.437,305.468,51.2,256,51.2z"/>
<path d="M264.533,102.4c-2.261,0-4.437-0.896-6.033-2.5l-3.849-3.849c-15.479-15.548-17.886-39.842-5.751-58.121  c2.654-3.891,7.962-4.898,11.853-2.244c3.84,2.62,4.881,7.825,2.347,11.716c-7.637,11.511-6.118,26.803,3.618,36.591l3.849,3.849  c3.328,3.337,3.328,8.738,0,12.066C268.962,101.504,266.795,102.4,264.533,102.4z"/>
<path d="M136.533,281.6C59.972,281.6,0,251.614,0,213.333c0-36.591,54.921-65.86,127.735-68.087  c2.901-0.094,5.803-0.179,8.798-0.179c48.222,0,91.708,11.913,116.309,31.855c2.688,2.133,5.214,4.463,7.543,6.972l0.307,0.316  c1.331,1.408,2.543,2.918,3.627,4.531c0.145,0.171,0.273,0.324,0.367,0.461c5.325,6.929,8.26,15.394,8.38,24.132  C273.067,251.614,213.094,281.6,136.533,281.6z M136.533,162.133c-2.807,0-5.538,0.085-8.269,0.171  c-61.312,1.877-111.198,24.772-111.198,51.029c0,30.174,62.959,51.2,119.467,51.2S256,243.507,256,213.333  c-0.137-4.983-1.835-9.796-4.864-13.756c-0.307-0.341-0.589-0.708-0.836-1.092c-0.58-0.905-1.246-1.749-1.98-2.526  c-0.128-0.137-0.256-0.265-0.375-0.41l-0.009,0.009c-1.783-1.92-3.712-3.703-5.769-5.333  C220.757,172.877,180.309,162.133,136.533,162.133z"/>
<path style="fill:#37474F;" d="M264.533,213.333v230.4c0,33.024-57.344,59.733-128,59.733c-5.803,0-11.52-0.171-17.067-0.597  c-62.635-3.84-110.933-28.843-110.933-59.136v-230.4c0,30.293,48.299,55.296,110.933,59.136c5.547,0.427,11.264,0.597,17.067,0.597  c32.324,0.759,64.41-5.777,93.867-19.115C251.563,243.285,264.533,229.035,264.533,213.333z"/>
<path style="fill:#607D8B;" d="M230.4,253.952v189.781c0,30.293-48.299,55.296-110.933,59.136  c-62.635-3.84-110.933-28.843-110.933-59.136V253.952c29.457,13.338,61.542,19.874,93.867,19.115c5.803,0,11.52-0.171,17.067-0.597  c5.547,0.427,11.264,0.597,17.067,0.597C168.858,273.826,200.943,267.29,230.4,253.952z"/>
<path d="M136.533,512C59.972,512,0,482.014,0,443.733v-230.4c0-4.71,3.823-8.533,8.533-8.533s8.533,3.823,8.533,8.533  c0,30.174,62.959,51.2,119.467,51.2S256,243.507,256,213.333c0-4.71,3.823-8.533,8.533-8.533c4.71,0,8.533,3.823,8.533,8.533v230.4  C273.067,482.014,213.094,512,136.533,512z M17.067,246.886v196.847c0,30.174,62.959,51.2,119.467,51.2S256,473.907,256,443.733  V246.886c-23.1,20.873-67.456,34.714-119.467,34.714S40.166,267.759,17.067,246.886z"/>
<path d="M136.533,247.467c-45.21,0-93.867-10.684-93.867-34.133S91.324,179.2,136.533,179.2s93.867,10.684,93.867,34.133  S181.743,247.467,136.533,247.467z M136.533,196.267c-49.92,0-75.511,12.459-76.809,17.195c1.297,4.48,26.889,16.939,76.809,16.939  c49.468,0,75.051-12.237,76.774-17.067C211.584,208.503,186.001,196.267,136.533,196.267z"/>
<path d="M145.067,247.467c-2.261,0-4.437-0.896-6.033-2.5l-3.849-3.849c-15.479-15.548-17.886-39.842-5.751-58.121  c2.654-3.891,7.962-4.898,11.853-2.244c3.84,2.62,4.881,7.825,2.347,11.716c-7.637,11.511-6.118,26.803,3.618,36.591l3.849,3.849  c3.328,3.337,3.328,8.738,0,12.066C149.495,246.571,147.328,247.467,145.067,247.467z"/>
<path d="M98.321,349.875c-1.869,0-3.721-0.316-5.487-0.922c-4.966-1.681-8.849-5.606-10.487-10.581l-2.091-6.272  c-4.19,2.313-9.207,2.543-13.594,0.64c-4.497-1.869-7.97-5.589-9.506-10.206l-5.513-16.546c-1.493-4.471,0.922-9.301,5.393-10.795  s9.301,0.922,10.795,5.393l5.513,16.546c4.181-2.304,9.199-2.543,13.585-0.649c4.506,1.86,7.97,5.589,9.515,10.214l2.091,6.263  l16.196-11.187c3.891-2.662,9.199-1.673,11.861,2.219c2.662,3.891,1.673,9.199-2.219,11.861c-0.06,0.043-0.119,0.077-0.179,0.119  l-16.589,11.059C104.866,348.885,101.632,349.875,98.321,349.875z"/>
<path d="M98.321,401.075c-1.869,0-3.721-0.316-5.487-0.922c-4.966-1.681-8.849-5.606-10.487-10.581l-2.091-6.272  c-4.19,2.313-9.207,2.551-13.594,0.64c-4.497-1.869-7.97-5.589-9.506-10.206l-5.513-16.546c-1.493-4.471,0.922-9.301,5.393-10.795  c4.471-1.493,9.301,0.922,10.795,5.393l0,0l5.513,16.546c4.181-2.313,9.199-2.551,13.585-0.649c4.506,1.86,7.97,5.589,9.515,10.214  l2.091,6.263l16.196-11.187c3.891-2.662,9.199-1.673,11.861,2.219c2.662,3.891,1.673,9.199-2.219,11.861  c-0.06,0.043-0.119,0.077-0.179,0.119l-16.589,11.059C104.866,400.085,101.632,401.075,98.321,401.075z"/>
<path d="M98.321,452.275c-1.869,0-3.721-0.316-5.487-0.922c-4.966-1.681-8.849-5.606-10.487-10.581l-2.091-6.272  c-4.19,2.313-9.207,2.543-13.594,0.64c-4.497-1.869-7.97-5.589-9.506-10.206l-5.513-16.546c-1.493-4.471,0.922-9.301,5.393-10.795  c4.471-1.493,9.301,0.922,10.795,5.393l5.513,16.546c4.181-2.313,9.207-2.551,13.585-0.649c4.506,1.86,7.97,5.589,9.515,10.214  l2.091,6.263l16.196-11.187c3.891-2.662,9.199-1.673,11.861,2.219c2.662,3.891,1.673,9.199-2.219,11.861  c-0.06,0.043-0.119,0.077-0.179,0.119l-16.589,11.059C104.866,451.285,101.632,452.275,98.321,452.275z"/>
<path d="M174.746,349.875c-3.311,0-6.545-0.99-9.284-2.833l-16.589-11.059c-3.942-2.577-5.06-7.868-2.483-11.81  c2.577-3.942,7.868-5.06,11.81-2.483c0.043,0.034,0.094,0.06,0.137,0.094l16.589,11.059l1.698-6.144  c2.935-8.806,12.45-13.559,21.257-10.633c0.759,0.256,1.493,0.563,2.21,0.913l5.154-16.401c1.485-4.471,6.323-6.895,10.795-5.402  c4.471,1.485,6.895,6.323,5.402,10.795c0,0.009,0,0.009-0.009,0.017l-5.513,16.546c-2.935,8.806-12.459,13.559-21.265,10.624  c-0.751-0.247-1.485-0.555-2.193-0.913l-1.732,6.118c-1.638,4.975-5.53,8.9-10.487,10.581  C178.466,349.559,176.606,349.875,174.746,349.875z"/>
<path d="M174.746,401.075c-3.311,0-6.545-0.99-9.284-2.833l-16.589-11.059c-3.942-2.577-5.06-7.868-2.483-11.81  c2.577-3.942,7.868-5.06,11.81-2.483c0.043,0.034,0.094,0.06,0.137,0.094l16.589,11.059l1.698-6.144  c2.935-8.806,12.45-13.559,21.257-10.633c0.759,0.256,1.493,0.563,2.21,0.913l5.154-16.401c1.485-4.471,6.323-6.895,10.795-5.402  c4.471,1.485,6.895,6.323,5.402,10.795c0,0.009,0,0.009-0.009,0.017l-5.513,16.546c-2.935,8.806-12.459,13.559-21.265,10.624  c-0.751-0.247-1.485-0.555-2.193-0.913l-1.732,6.118c-1.638,4.975-5.53,8.9-10.487,10.581  C178.466,400.759,176.606,401.075,174.746,401.075z"/>
<path d="M174.746,452.275c-3.311,0-6.545-0.99-9.284-2.833l-16.589-11.059c-3.942-2.577-5.06-7.868-2.483-11.81  c2.577-3.942,7.868-5.06,11.81-2.483c0.043,0.034,0.094,0.06,0.137,0.094l16.589,11.059l1.698-6.144  c2.935-8.806,12.45-13.559,21.257-10.633c0.759,0.256,1.493,0.563,2.21,0.913l5.154-16.401c1.485-4.471,6.323-6.895,10.795-5.402  c4.471,1.485,6.895,6.323,5.402,10.795c0,0.009,0,0.009-0.009,0.017l-5.513,16.546c-2.935,8.806-12.459,13.559-21.265,10.624  c-0.751-0.247-1.485-0.555-2.193-0.913l-1.732,6.118c-1.638,4.975-5.53,8.9-10.487,10.581  C178.466,451.96,176.606,452.275,174.746,452.275z"/>
<path d="M375.467,238.933c-53.547,0-102.204-15.283-123.955-38.938c-0.444-0.469-0.845-0.973-1.212-1.51  c-0.58-0.905-1.246-1.749-1.98-2.526c-0.35-0.358-0.666-0.734-0.956-1.143l-0.026,0.017c-5.146-6.69-8.081-14.822-8.397-23.262  c0-0.077,0-0.836,0-0.905c0-21.214,17.468-39.996,49.186-52.873c16.341-6.468,33.434-10.837,50.876-13.005  c15.01-1.971,30.148-2.705,45.278-2.21C457.079,104.806,512,134.076,512,170.667C512,208.947,452.028,238.933,375.467,238.933z   M264.294,188.689c19.285,20.079,63.531,33.178,111.172,33.178c56.508,0,119.467-21.026,119.467-51.2  c0-26.257-49.886-49.152-111.198-51.029c-14.182-0.469-28.373,0.213-42.445,2.057c-16.009,2.005-31.701,5.999-46.72,11.895  C270.046,143.556,256,157.065,256,170.667c0.128,4.915,1.792,9.677,4.753,13.602C262.05,185.651,263.228,187.127,264.294,188.689z"/>
<path style="fill:#37474F;" d="M291.328,125.696c-26.88,10.923-43.861,26.965-43.861,44.971v12.885  c-10.462-8.03-22.246-14.182-34.816-18.176c-24.55-8.09-50.27-12.075-76.117-11.776c-2.901,0-5.717,0.085-8.533,0.171V68.267  c0,30.208,48.043,55.211,110.421,59.136h0.341c3.925,0.341,7.936,0.512,12.032,0.512C252.501,128,254.293,128,256,128  C267.819,128.034,279.62,127.258,291.328,125.696z"/>
<path style="fill:#607D8B;" d="M256,125.696c-1.792,0.683-3.499,1.451-5.205,2.219c-21.333,9.643-35.413,22.784-38.144,37.461  c-24.55-8.09-50.27-12.075-76.117-11.776c-2.901,0-5.717,0.085-8.533,0.171v-44.288c29.158,12.902,60.8,19.226,92.672,18.517  c6.059,0,11.947-0.171,17.749-0.597h0.341C244.565,127.061,250.368,126.464,256,125.696z"/>
<path d="M247.467,192.085c-1.954,0-3.857-0.674-5.376-1.903c-21.333-17.306-61.781-28.049-105.557-28.049  c-2.807,0-5.538,0.085-8.269,0.171c-2.321,0.128-4.574-0.751-6.204-2.406c-1.655-1.604-2.594-3.814-2.594-6.127V68.267  c0-4.71,3.823-8.533,8.533-8.533c4.71,0,8.533,3.823,8.533,8.533c0,30.174,62.959,51.2,119.467,51.2  c11.426,0.026,22.844-0.717,34.176-2.227c4.668-0.64,8.969,2.628,9.609,7.296c0.529,3.866-1.63,7.595-5.239,9.062  C270.046,143.556,256,157.065,256,170.667v12.885C256,188.262,252.186,192.085,247.467,192.085L247.467,192.085z M136.533,145.067  c35.507-1.015,70.724,6.741,102.519,22.579c1.425-12.245,7.637-23.424,17.28-31.113H256c-52.011,0-96.367-13.841-119.467-34.714  V145.067z"/>
<path style="fill:#37474F;" d="M503.467,170.667v230.4c0,33.024-57.344,59.733-128,59.733c-6.229,0-12.373-0.171-18.347-0.597  c-39.595-2.645-73.387-13.824-92.587-29.355V213.333c-0.128-6.929-2.492-13.636-6.741-19.115  c17.323,18.773,54.784,32.683,99.755,35.584c5.803,0.427,11.861,0.597,17.92,0.597c31.659,0.691,63.078-5.547,92.075-18.261  C489.813,201.387,503.467,186.795,503.467,170.667z"/>
<path style="fill:#607D8B;" d="M467.541,212.139v188.928c0,30.208-48.043,55.211-110.421,59.136  c-39.595-2.645-73.387-13.824-92.587-29.355V218.965c24.218,7.859,49.553,11.725,75.008,11.435c6.144,0,12.117-0.171,18.005-0.597  c5.803,0.427,11.861,0.597,17.92,0.597C407.125,231.091,438.545,224.853,467.541,212.139z"/>
<path d="M375.467,469.333c-48.222,0-91.708-11.913-116.309-31.855c-1.997-1.621-3.157-4.053-3.157-6.63V213.333  c-0.145-5.129-1.937-10.069-5.111-14.097c-2.773-3.806-1.929-9.148,1.877-11.921c3.507-2.551,8.371-2.065,11.298,1.126  c18.398,19.994,63.164,33.425,111.403,33.425c56.508,0,119.467-21.026,119.467-51.2c0-4.71,3.823-8.533,8.533-8.533  c4.71,0,8.533,3.823,8.533,8.533v230.4C512,439.347,452.028,469.333,375.467,469.333z M273.067,426.633  c22.016,15.881,60.698,25.634,102.4,25.634c56.508,0,119.467-21.026,119.467-51.2V204.22c-23.1,20.873-67.447,34.714-119.467,34.714  c-35.456,0.887-70.605-6.861-102.4-22.579V426.633z"/>
<path d="M375.467,204.8c-45.21,0-93.867-10.684-93.867-34.133s48.657-34.133,93.867-34.133s93.867,10.684,93.867,34.133  S420.676,204.8,375.467,204.8z M375.467,153.6c-49.92,0-75.511,12.459-76.809,17.195c1.297,4.48,26.889,16.939,76.809,16.939  c49.468,0,75.051-12.237,76.774-17.067C450.517,165.837,424.934,153.6,375.467,153.6z"/>
<path d="M384,204.8c-2.261,0-4.437-0.896-6.033-2.5l-3.849-3.849c-15.479-15.548-17.886-39.842-5.751-58.121  c2.654-3.891,7.962-4.898,11.853-2.244c3.84,2.62,4.881,7.825,2.347,11.716c-7.637,11.511-6.118,26.803,3.618,36.591l3.849,3.849  c3.328,3.337,3.328,8.738,0,12.066C388.429,203.904,386.261,204.8,384,204.8z"/>
<path d="M337.254,307.209c-1.869,0-3.721-0.316-5.487-0.922c-4.966-1.681-8.849-5.606-10.487-10.581l-2.091-6.272  c-4.19,2.313-9.207,2.551-13.594,0.64c-4.497-1.869-7.97-5.589-9.506-10.206l-5.513-16.546c-1.493-4.471,0.922-9.301,5.393-10.795  c4.471-1.493,9.301,0.922,10.795,5.393l5.513,16.546c4.181-2.313,9.199-2.551,13.585-0.649c4.506,1.86,7.97,5.589,9.515,10.214  l2.091,6.263l16.196-11.187c3.891-2.662,9.199-1.673,11.861,2.219c2.662,3.891,1.673,9.199-2.219,11.861  c-0.06,0.043-0.119,0.077-0.179,0.119l-16.589,11.059C343.799,306.219,340.565,307.209,337.254,307.209z"/>
<path d="M337.254,358.409c-1.869,0-3.721-0.316-5.487-0.922c-4.966-1.681-8.849-5.606-10.487-10.581l-2.091-6.272  c-4.19,2.313-9.207,2.551-13.594,0.64c-4.497-1.869-7.97-5.589-9.506-10.206l-5.513-16.546c-1.493-4.471,0.922-9.301,5.393-10.795  c4.471-1.493,9.301,0.922,10.795,5.393l5.513,16.546c4.181-2.313,9.199-2.551,13.585-0.649c4.506,1.86,7.97,5.589,9.515,10.214  l2.091,6.263l16.196-11.187c3.891-2.662,9.199-1.673,11.861,2.219c2.662,3.891,1.673,9.199-2.219,11.861  c-0.06,0.043-0.119,0.077-0.179,0.119l-16.589,11.059C343.799,357.419,340.565,358.409,337.254,358.409z"/>
<path d="M337.254,409.609c-1.869,0-3.721-0.316-5.487-0.922c-4.966-1.681-8.849-5.606-10.487-10.581l-2.091-6.272  c-4.19,2.304-9.207,2.543-13.594,0.64c-4.497-1.869-7.97-5.589-9.506-10.206l-5.513-16.546c-1.493-4.471,0.922-9.301,5.393-10.795  c4.471-1.493,9.301,0.922,10.795,5.393l5.513,16.546c4.181-2.313,9.207-2.551,13.585-0.649c4.506,1.86,7.97,5.589,9.515,10.214  l2.091,6.263l16.196-11.187c3.891-2.662,9.199-1.673,11.861,2.219c2.662,3.891,1.673,9.199-2.219,11.861  c-0.06,0.043-0.119,0.077-0.179,0.119l-16.589,11.059C343.799,408.619,340.565,409.609,337.254,409.609z"/>
<path d="M413.679,307.209c-3.311-0.009-6.545-0.99-9.293-2.833l-16.58-11.059c-3.942-2.577-5.06-7.868-2.483-11.81  c2.577-3.942,7.868-5.06,11.81-2.483c0.043,0.034,0.094,0.06,0.137,0.094l16.58,11.059l1.707-6.144  c2.935-8.806,12.459-13.559,21.265-10.624c0.759,0.256,1.493,0.555,2.202,0.913l5.154-16.401c1.476-4.471,6.306-6.903,10.778-5.419  c4.471,1.476,6.903,6.306,5.419,10.778c-0.009,0.017-0.009,0.034-0.017,0.043l-5.513,16.546  c-2.935,8.806-12.459,13.559-21.265,10.624c-0.751-0.247-1.485-0.555-2.193-0.913l-1.732,6.118  c-1.638,4.975-5.521,8.9-10.487,10.581C417.4,306.893,415.548,307.209,413.679,307.209z"/>
<path d="M413.679,358.409c-3.311-0.009-6.545-0.99-9.293-2.833l-16.58-11.059c-3.942-2.577-5.06-7.868-2.483-11.81  c2.577-3.942,7.868-5.06,11.81-2.483c0.043,0.034,0.094,0.06,0.137,0.094l16.58,11.059l1.707-6.144  c2.935-8.806,12.459-13.559,21.265-10.624c0.759,0.256,1.493,0.555,2.202,0.913l5.154-16.401c1.476-4.471,6.306-6.903,10.778-5.427  c4.471,1.476,6.903,6.306,5.427,10.778c-0.009,0.017-0.009,0.034-0.017,0.051l-5.513,16.546  c-2.935,8.806-12.459,13.559-21.265,10.624c-0.751-0.247-1.485-0.555-2.193-0.913l-1.732,6.118  c-1.638,4.975-5.521,8.9-10.487,10.581C417.4,358.093,415.548,358.409,413.679,358.409z"/>
<path d="M413.679,409.609c-3.311-0.009-6.545-0.99-9.293-2.833l-16.58-11.059c-3.942-2.577-5.06-7.868-2.483-11.81  c2.577-3.942,7.868-5.06,11.81-2.483c0.043,0.034,0.094,0.06,0.137,0.094l16.58,11.059l1.707-6.144  c2.935-8.806,12.459-13.559,21.265-10.624c0.759,0.256,1.493,0.555,2.202,0.913l5.154-16.401c1.476-4.471,6.306-6.903,10.778-5.427  s6.903,6.306,5.427,10.778c-0.009,0.017-0.009,0.034-0.017,0.051l-5.513,16.546c-2.935,8.806-12.459,13.559-21.265,10.624  c-0.751-0.247-1.485-0.555-2.193-0.913l-1.732,6.118c-1.638,4.975-5.521,8.9-10.487,10.581  C417.4,409.293,415.548,409.609,413.679,409.609z"/>
<g>
</g>
<g>
</g>
<g>
</g>
<g>
</g>
<g>
</g>
<g>
</g>
<g>
</g>
<g>
</g>
<g>
</g>
<g>
</g>
<g>
</g>
<g>
</g>
<g>
</g>
<g>
</g>
<g>
</g>
</svg>
