<?xml version="1.0" encoding="iso-8859-1"?>
<!-- Generator: Adobe Illustrator 19.0.0, SVG Export Plug-In . SVG Version: 6.00 Build 0)  -->
<svg xmlns="http://www.w3.org/2000/svg" xmlns:xlink="http://www.w3.org/1999/xlink" version="1.1" id="Capa_1" x="0px" y="0px" viewBox="0 0 512.001 512.001" style="enable-background:new 0 0 512.001 512.001;" xml:space="preserve">
<path id="SVGCleanerId_0" style="fill:#8BC34A;" d="M503.441,256c0.034,123.48-91.006,228.069-213.308,245.049  c-0.085,0.085-0.085,0-0.171,0c-5.597,0.87-11.237,1.442-16.894,1.706c-0.051,0.068-0.154,0.085-0.222,0.034  c-0.009-0.009-0.026-0.017-0.034-0.034c-5.546,0.512-11.177,0.683-16.809,0.683c-5.717,0-11.433-0.171-17.065-0.683  c-5.717-0.264-11.408-0.836-17.065-1.706C86.534,482.21-7.911,357.228,10.92,221.897C26.176,112.324,112.301,26.199,221.874,10.952  c5.657-0.87,11.348-1.442,17.065-1.706h0.341c5.546-0.512,11.092-0.683,16.723-0.683c5.631,0,11.348,0.171,16.894,0.683  c0.162-0.085,0.35-0.085,0.512,0c5.546,0.265,11.066,0.836,16.553,1.706c0.085,0,0.085-0.085,0.171,0  C412.435,27.931,503.475,132.52,503.441,256z"/>
<g>
	<path id="SVGCleanerId_1" style="fill:#8BC34A;" d="M221.874,501.049C86.534,482.21-7.911,357.228,10.92,221.897   C26.176,112.324,112.301,26.199,221.874,10.952"/>
</g>
<g>
	<path id="SVGCleanerId_1_1_" style="fill:#8BC34A;" d="M221.874,501.049C86.534,482.21-7.911,357.228,10.92,221.897   C26.176,112.324,112.301,26.199,221.874,10.952"/>
</g>
<g>
	<path id="SVGCleanerId_0_1_" style="fill:#8BC34A;" d="M503.441,256c0.034,123.48-91.006,228.069-213.308,245.049   c-0.085,0.085-0.085,0-0.171,0c-5.597,0.87-11.237,1.442-16.894,1.706c-0.051,0.068-0.154,0.085-0.222,0.034   c-0.009-0.009-0.026-0.017-0.034-0.034c-5.546,0.512-11.177,0.683-16.809,0.683c-5.717,0-11.433-0.171-17.065-0.683   c-5.717-0.264-11.408-0.836-17.065-1.706C86.534,482.21-7.911,357.228,10.92,221.897C26.176,112.324,112.301,26.199,221.874,10.952   c5.657-0.87,11.348-1.442,17.065-1.706h0.341c5.546-0.512,11.092-0.683,16.723-0.683c5.631,0,11.348,0.171,16.894,0.683   c0.162-0.085,0.35-0.085,0.512,0c5.546,0.265,11.066,0.836,16.553,1.706c0.085,0,0.085-0.085,0.171,0   C412.435,27.931,503.475,132.52,503.441,256z"/>
</g>
<g>
	<path id="SVGCleanerId_1_2_" style="fill:#8BC34A;" d="M221.874,501.049C86.534,482.21-7.911,357.228,10.92,221.897   C26.176,112.324,112.301,26.199,221.874,10.952"/>
</g>
<g>
	<path id="SVGCleanerId_1_3_" style="fill:#8BC34A;" d="M221.874,501.049C86.534,482.21-7.911,357.228,10.92,221.897   C26.176,112.324,112.301,26.199,221.874,10.952"/>
</g>
<g>
	<path style="fill:#558B30;" d="M255.747,10.952h0.085c0.085,0,0.085-0.085,0.171,0c5.717,0.768,11.433,1.706,17.065,2.901h0.171   c133.727,28.43,219.093,159.887,190.664,293.615c-20.333,95.656-95.084,170.374-190.749,190.681h-0.085   c-5.631,1.195-11.348,2.133-17.065,2.901c-0.085,0.085-0.085,0-0.171,0h-0.085"/>
	<path style="fill:#558B30;" d="M256.003,10.952c-0.085-0.085-0.085,0-0.171,0h-0.085c-5.631,0.768-11.092,1.706-16.638,2.901   h-0.171C105.185,42.188,19.734,173.578,48.07,307.331c20.273,95.673,94.965,170.442,190.612,190.817h0.427   c5.546,1.195,11.007,2.133,16.638,2.901h0.085c0.085,0,0.085,0.085,0.171,0"/>
</g>
<path style="fill:#AD1457;" d="M435.182,256c0.017,97.038-56.706,185.118-145.05,225.254c-11.032,5.094-22.44,9.317-34.129,12.628  V18.119c11.672,3.353,23.08,7.577,34.129,12.628C378.476,70.883,435.191,158.962,435.182,256z"/>
<path style="fill:#E91E63;" d="M435.182,256c0.017,97.038-56.706,185.118-145.05,225.254V30.747  C378.476,70.883,435.191,158.962,435.182,256z"/>
<path style="fill:#AD1457;" d="M256.003,18.119v475.763c-11.689-3.311-23.097-7.534-34.129-12.628  C97.472,424.71,42.456,278.031,99,153.621c24.752-54.47,68.412-98.122,122.874-122.874  C232.915,25.687,244.322,21.463,256.003,18.119z"/>
<path style="fill:#E91E63;" d="M221.874,30.747v450.507C97.472,424.71,42.456,278.031,99,153.621  C123.752,99.15,167.403,55.499,221.874,30.747z"/>
<path d="M256.003,511.97c-6.689,0-12.525-0.23-17.841-0.717c-5.887-0.282-11.749-0.87-17.568-1.775  C80.595,489.94-17.049,360.607,2.49,220.617C18.301,107.307,107.395,18.255,220.705,2.496c5.913-0.904,11.868-1.493,17.85-1.775  c5.247-0.461,10.81-0.691,17.44-0.691c6.493,0,12.159,0.222,17.295,0.683c0.171,0,0.333,0.009,0.503,0.017V0.721  c5.648,0.273,11.271,0.845,16.86,1.706c0.282,0.017,0.563,0.051,0.853,0.102c139.99,19.599,237.583,148.966,217.993,288.956  c-15.845,113.164-104.794,202.131-217.976,217.976c-0.29,0.051-0.589,0.085-0.887,0.111c-5.546,0.836-11.032,1.391-16.322,1.664  c-0.452,0.085-0.913,0.128-1.374,0.119c-0.128,0-0.264,0-0.392-0.009C267.599,511.766,262.163,511.97,256.003,511.97z   M256.003,17.095c-6.092,0-11.16,0.205-15.938,0.648c-0.256,0.026-0.862,0.034-1.126,0.034c-5.29,0.265-10.555,0.802-15.793,1.604  C92.472,37.513,1.227,158.143,19.359,288.824c14.684,105.827,97.857,189.034,203.675,203.769c5.392,0.828,10.828,1.382,16.28,1.638  c5.188,0.461,10.512,0.674,16.689,0.674c6.066,0,11.314-0.213,16.024-0.648c0.282-0.026,0.631,0.009,0.845-0.034  c5.29-0.256,10.563-0.793,15.793-1.604c0.256-0.034,0.503-0.068,0.759-0.085c130.63-18.438,221.585-139.29,203.146-269.921  C477.682,117.188,394.833,34.347,289.416,19.458c-0.256-0.017-0.512-0.043-0.768-0.085c-5.136-0.811-10.316-1.348-15.512-1.604  c-0.341,0.017-0.683,0.009-1.024-0.034C267.402,17.308,262.129,17.095,256.003,17.095z"/>
<path d="M221.882,509.581c-0.392,0-0.785-0.026-1.177-0.077C80.706,490.025-17.006,360.735,2.473,220.728  C18.241,107.375,107.353,18.264,220.705,2.496c4.667-0.64,8.976,2.619,9.616,7.287c0.64,4.667-2.619,8.976-7.287,9.616  C92.361,37.598,1.185,158.271,19.376,288.944c14.727,105.775,97.883,188.923,203.658,203.65c4.667,0.64,7.935,4.94,7.295,9.616  C229.749,506.424,226.14,509.573,221.882,509.581L221.882,509.581z"/>
<path d="M255.909,509.598c-0.606,0-1.203-0.06-1.792-0.188c-4.616-0.922-7.619-5.418-6.689-10.043  c0.768-3.831,4.036-6.655,7.944-6.843c5.828-0.794,11.041-1.689,15.93-2.722c0.179-0.034,0.358-0.068,0.538-0.094  c129.077-27.653,211.295-154.708,183.642-283.786c-19.71-91.979-91.526-163.838-183.488-183.607  c-0.239-0.026-0.478-0.068-0.691-0.111c-4.906-1.041-10.136-1.937-15.99-2.73c-4.701-0.265-8.302-4.292-8.037-9.002  c0.239-4.224,3.541-7.636,7.756-8.02c0.776-0.077,1.57-0.051,2.338,0.077c6.16,0.836,11.715,1.775,16.945,2.867  c0.239,0.026,0.478,0.06,0.691,0.111C413.348,34.91,501.658,170.89,472.255,309.234c-21.032,98.967-98.369,176.27-197.336,197.268  c-0.179,0.034-0.35,0.068-0.529,0.094c-5.256,1.101-10.828,2.048-17.013,2.884C256.882,509.556,256.396,509.598,255.909,509.598z"/>
<path d="M255.995,502.414c-4.71,0-8.532-3.831-8.524-8.541c0-3.805,2.526-7.15,6.186-8.2  C380.507,449.241,453.8,316.87,417.358,190.028c-22.73-79.12-84.581-140.98-163.701-163.701c-4.522-1.34-7.099-6.084-5.759-10.606  c1.323-4.454,5.964-7.039,10.444-5.802c135.912,39.027,214.443,180.834,175.425,316.746  c-24.351,84.794-90.631,151.074-175.425,175.425C257.582,502.303,256.788,502.414,255.995,502.414z"/>
<path d="M255.909,509.598c-0.333,0-0.666-0.017-0.998-0.06l-0.324-0.034c-5.819-0.793-11.254-1.741-16.612-2.875  c-0.358-0.026-0.708-0.068-1.067-0.137C98.581,477.039,10.323,341.034,39.768,202.699C60.843,103.741,138.197,26.463,237.181,5.499  c0.247-0.051,0.495-0.094,0.734-0.119c5.367-1.143,10.836-2.09,16.672-2.884c0.137-0.017,0.273-0.034,0.41-0.043  c2.594-0.282,5.188,0.623,7.039,2.466c3.328,3.336,3.328,8.737,0,12.065c-1.502,1.502-3.507,2.389-5.631,2.491  c-5.435,0.751-10.512,1.647-15.495,2.722c-0.265,0.06-0.538,0.102-0.802,0.137C111.039,50.013,28.855,177.093,56.543,306.162  c19.71,91.876,91.424,163.676,183.266,183.505c0.367,0.026,0.734,0.068,1.092,0.145c4.983,1.075,10.06,1.962,15.495,2.722  c4.71,0.222,8.345,4.223,8.123,8.925c-0.102,2.125-0.99,4.13-2.491,5.631C260.406,508.694,258.204,509.598,255.909,509.598z"/>
<path d="M256.003,502.414c-0.794,0-1.587-0.111-2.346-0.333C117.745,463.055,39.205,321.247,78.232,185.335  c24.351-84.794,90.63-151.074,175.425-175.425c4.531-1.297,9.258,1.331,10.546,5.862c0.222,0.759,0.324,1.553,0.324,2.346v475.763  C264.535,498.592,260.713,502.406,256.003,502.414z M247.471,29.723C122.498,72.171,55.604,207.886,98.052,332.86  c23.882,70.315,79.103,125.528,149.418,149.418L247.471,29.723L247.471,29.723z"/>
<path d="M239.527,17.777h-0.256c-4.761,0.017-8.669-3.771-8.788-8.532c-0.119-4.59,3.507-8.413,8.097-8.532c0.06,0,0.119,0,0.179,0  c4.787-0.026,8.737,3.746,8.916,8.532c0.179,4.531-3.353,8.353-7.892,8.524C239.706,17.769,239.621,17.777,239.527,17.777z"/>
<path d="M239.45,511.288h-0.512c-4.753,0.017-8.643-3.78-8.746-8.532c-0.102-4.616,3.558-8.43,8.174-8.532c0.051,0,0.094,0,0.145,0  h0.939c4.71,0,8.532,3.823,8.532,8.532C247.983,507.465,244.16,511.288,239.45,511.288z"/>
<path d="M239.109,22.385h-0.171c-4.71-0.051-8.49-3.908-8.447-8.618c0.043-4.71,3.908-8.49,8.618-8.447  c4.71,0.043,8.49,3.908,8.447,8.618C247.505,18.579,243.751,22.334,239.109,22.385z"/>
<path d="M239.109,506.68h-0.171c-4.735,0.009-8.601-3.797-8.66-8.532c-0.06-4.65,3.669-8.473,8.319-8.532c0.026,0,0.06,0,0.085,0  c4.753-0.017,8.643,3.78,8.746,8.532c0.102,4.616-3.558,8.43-8.174,8.532C239.203,506.672,239.152,506.68,239.109,506.68z"/>
<path d="M273.4,17.777h-0.503c-4.727,0.009-8.575-3.805-8.618-8.532c-0.043-4.676,3.72-8.49,8.387-8.532c0.017,0,0.034,0,0.06,0  v0.009c1.578-0.085,3.157,0.239,4.573,0.93c4.198,2.15,5.853,7.287,3.703,11.485C279.544,15.986,276.6,17.777,273.4,17.777  L273.4,17.777z"/>
<path d="M272.94,511.348c-2.381-0.026-4.65-1.007-6.305-2.713c-3.251-3.413-3.114-8.814,0.299-12.056l0,0  c1.578-1.596,3.763-2.449,6.015-2.355h0.128c4.753-0.017,8.643,3.78,8.746,8.532c0.085,4.411-3.259,8.131-7.654,8.507  C273.75,511.322,273.341,511.348,272.94,511.348z"/>
<path d="M273.238,22.385h-0.171c-4.71-0.051-8.49-3.908-8.447-8.618c0.043-4.71,3.908-8.49,8.618-8.447  c4.71,0.051,8.49,3.908,8.447,8.618C281.634,18.579,277.88,22.334,273.238,22.385z"/>
<path d="M273.145,506.68h-0.085c-4.71-0.026-8.515-3.865-8.49-8.575c0.026-4.71,3.865-8.515,8.575-8.49  c4.71,0.026,8.515,3.865,8.49,8.575C281.617,502.866,277.829,506.655,273.145,506.68z"/>
<path d="M221.874,153.612c-2.261,0-4.437-0.896-6.032-2.5l-17.065-17.065c-3.302-3.362-3.251-8.763,0.111-12.065  c3.319-3.259,8.635-3.259,11.954,0l17.065,17.065c3.328,3.336,3.328,8.737,0,12.065  C226.302,152.708,224.135,153.612,221.874,153.612z"/>
<path d="M204.809,196.274c-0.921,0-1.826-0.154-2.696-0.444l-25.597-8.532c-4.471-1.493-6.886-6.322-5.392-10.793  c1.493-4.471,6.322-6.886,10.793-5.392l25.597,8.532c4.471,1.493,6.886,6.331,5.392,10.802  C211.737,193.928,208.478,196.274,204.809,196.274z"/>
<path d="M204.809,392.518c-4.71,0-8.532-3.822-8.532-8.532c0-2.261,0.896-4.428,2.5-6.032l17.065-17.065  c3.362-3.302,8.763-3.251,12.065,0.111c3.259,3.319,3.259,8.635,0,11.954l-17.065,17.065  C209.237,391.622,207.07,392.518,204.809,392.518z"/>
<path d="M179.212,341.324c-4.71,0-8.532-3.822-8.532-8.541c0-3.669,2.346-6.928,5.836-8.097l25.597-8.532  c4.471-1.493,9.3,0.922,10.793,5.392c1.493,4.471-0.921,9.3-5.392,10.793l-25.597,8.532  C181.038,341.179,180.125,341.324,179.212,341.324z"/>
<path d="M196.277,238.936H170.68c-4.71,0-8.532-3.822-8.532-8.532s3.822-8.532,8.532-8.532h25.597c4.71,0,8.532,3.822,8.532,8.532  S200.987,238.936,196.277,238.936z"/>
<path d="M196.277,290.13H170.68c-4.71,0-8.532-3.823-8.532-8.532s3.822-8.532,8.532-8.532h25.597c4.71,0,8.532,3.823,8.532,8.532  S200.987,290.13,196.277,290.13z"/>
<path d="M290.132,153.612c-4.71,0-8.532-3.822-8.532-8.532c0-2.261,0.896-4.428,2.5-6.032l17.065-17.065  c3.362-3.302,8.763-3.251,12.065,0.111c3.259,3.319,3.259,8.635,0,11.954l-17.065,17.065  C294.561,152.716,292.393,153.612,290.132,153.612z"/>
<path d="M307.197,196.274c-4.71,0-8.532-3.822-8.532-8.541c0-3.669,2.346-6.928,5.836-8.097l25.597-8.532  c4.471-1.493,9.3,0.921,10.793,5.392c1.493,4.471-0.922,9.3-5.392,10.793l-25.597,8.532  C309.023,196.129,308.11,196.274,307.197,196.274z"/>
<path d="M307.197,392.518c-2.261,0-4.437-0.896-6.032-2.5L284.1,372.953c-3.302-3.362-3.251-8.763,0.111-12.065  c3.319-3.259,8.635-3.259,11.954,0l17.065,17.065c3.328,3.336,3.328,8.737,0,12.065  C311.625,391.613,309.458,392.518,307.197,392.518z"/>
<path d="M332.794,341.324c-0.922,0-1.826-0.154-2.696-0.444l-25.597-8.532c-4.471-1.493-6.886-6.322-5.392-10.793  c1.493-4.471,6.322-6.886,10.793-5.392l25.597,8.532c4.471,1.493,6.886,6.331,5.392,10.802  C339.722,338.977,336.463,341.324,332.794,341.324z"/>
<path d="M341.326,238.936h-25.597c-4.71,0-8.532-3.822-8.532-8.532s3.822-8.532,8.532-8.532h25.597c4.71,0,8.532,3.822,8.532,8.532  S346.036,238.936,341.326,238.936z"/>
<path d="M341.326,290.13h-25.597c-4.71,0-8.532-3.823-8.532-8.532s3.822-8.532,8.532-8.532h25.597c4.71,0,8.532,3.823,8.532,8.532  S346.036,290.13,341.326,290.13z"/>
<g>
</g>
<g>
</g>
<g>
</g>
<g>
</g>
<g>
</g>
<g>
</g>
<g>
</g>
<g>
</g>
<g>
</g>
<g>
</g>
<g>
</g>
<g>
</g>
<g>
</g>
<g>
</g>
<g>
</g>
</svg>
