<?xml version="1.0" encoding="iso-8859-1"?>
<!-- Generator: Adobe Illustrator 19.0.0, SVG Export Plug-In . SVG Version: 6.00 Build 0)  -->
<svg xmlns="http://www.w3.org/2000/svg" xmlns:xlink="http://www.w3.org/1999/xlink" version="1.1" id="Capa_1" x="0px" y="0px" viewBox="0 0 512 512" style="enable-background:new 0 0 512 512;" xml:space="preserve">
<path style="fill:#D84315;" d="M503.467,256C503.458,392.661,392.661,503.441,256,503.433  C119.339,503.424,8.559,392.627,8.567,255.966C8.576,119.313,119.347,8.542,256,8.533C392.585,8.738,503.262,119.415,503.467,256z"/>
<path style="fill:#FF5722;" d="M469.333,273.067c-0.068,86.869-45.628,167.364-120.064,212.139  C222.686,536.721,78.31,475.87,26.786,349.286C-19.2,236.305,24.013,106.658,128.597,43.861  c126.575-51.524,270.95,9.31,322.475,135.885C463.138,209.382,469.333,241.075,469.333,273.067z"/>
<path d="M256,512C114.611,512,0,397.389,0,256S114.611,0,256,0s256,114.611,256,256C511.838,397.321,397.321,511.838,256,512z   M256,17.067C124.041,17.067,17.067,124.041,17.067,256S124.041,494.933,256,494.933S494.933,387.96,494.933,256  C494.788,124.1,387.9,17.212,256,17.067z"/>
<path style="fill:#FFB301;" d="M469.333,256c-0.026,87.714-53.76,166.468-135.424,198.485  c-24.789,9.873-51.234,14.908-77.909,14.848c-117.777,0.043-213.291-95.394-213.333-213.171  c-0.026-74.001,38.306-142.729,101.291-181.581C177.57,53.632,216.397,42.573,256,42.667  C373.777,42.769,469.231,138.223,469.333,256z"/>
<path style="fill:#FEC108;" d="M435.2,273.067c0.009,73.95-38.332,142.626-101.291,181.419  c-24.789,9.873-51.234,14.908-77.909,14.848c-117.777,0.043-213.291-95.394-213.333-213.171  c-0.026-74.001,38.306-142.729,101.291-181.581c24.789-9.873,51.234-14.908,77.909-14.848  C339.644,59.836,435.098,155.29,435.2,273.067z"/>
<path d="M256,477.867C133.47,477.867,34.133,378.53,34.133,256S133.47,34.133,256,34.133S477.867,133.47,477.867,256  C477.73,378.479,378.479,477.73,256,477.867z M256,51.2C142.891,51.2,51.2,142.891,51.2,256S142.891,460.8,256,460.8  S460.8,369.109,460.8,256C460.672,142.942,369.058,51.328,256,51.2z"/>
<path style="fill:#F57C00;" d="M305.493,256c0,22.067-14.626,41.464-35.84,47.531c-4.429,1.306-9.028,1.971-13.653,1.963  c-27.332,0-49.493-22.161-49.493-49.493c0-27.332,22.161-49.493,49.493-49.493S305.493,228.668,305.493,256L305.493,256z"/>
<path style="fill:#FF9801;" d="M281.6,271.36c0.009,11.81-4.233,23.228-11.947,32.171c-4.429,1.306-9.028,1.971-13.653,1.963  c-27.307,0.034-49.459-22.076-49.493-49.382c-0.017-11.844,4.224-23.296,11.947-32.282c4.429-1.306,9.028-1.971,13.653-1.963  C259.43,221.884,281.583,244.036,281.6,271.36z"/>
<path d="M256,314.027c-32.043,0-58.027-25.975-58.027-58.027s25.975-58.027,58.027-58.027s58.027,25.975,58.027,58.027  C313.993,288.034,288.034,313.993,256,314.027z M256,215.04c-22.622,0-40.96,18.338-40.96,40.96c0,22.622,18.338,40.96,40.96,40.96  c22.622,0,40.96-18.338,40.96-40.96C296.934,233.387,278.613,215.066,256,215.04z"/>
<path d="M256,215.04c-4.71,0-8.533-3.823-8.533-8.533V48.128c0-4.71,3.823-8.533,8.533-8.533c4.71,0,8.533,3.823,8.533,8.533  v158.379C264.533,211.217,260.71,215.04,256,215.04z"/>
<path d="M256,472.405c-4.71,0-8.533-3.823-8.533-8.533V305.493c0-4.71,3.823-8.533,8.533-8.533c4.71,0,8.533,3.823,8.533,8.533  v158.379C264.533,468.582,260.71,472.405,256,472.405z"/>
<path d="M220.962,229.495c-2.261,0-4.437-0.896-6.033-2.5L102.972,115.038c-3.328-3.328-3.328-8.738,0-12.066s8.738-3.328,12.066,0  l111.957,111.957c3.328,3.337,3.328,8.738,0,12.066C225.391,228.591,223.223,229.487,220.962,229.495L220.962,229.495z"/>
<path d="M402.995,411.529c-2.261,0-4.437-0.896-6.033-2.5L285.005,297.071c-3.328-3.328-3.328-8.738,0-12.066  c3.328-3.328,8.738-3.328,12.066,0l111.957,111.957c3.328,3.337,3.328,8.738,0,12.066  C407.424,410.633,405.257,411.529,402.995,411.529L402.995,411.529z"/>
<path d="M206.507,264.533H48.128c-4.71,0-8.533-3.823-8.533-8.533c0-4.71,3.823-8.533,8.533-8.533h158.379  c4.71,0,8.533,3.823,8.533,8.533C215.04,260.71,211.217,264.533,206.507,264.533z"/>
<path d="M463.872,264.533H305.493c-4.71,0-8.533-3.823-8.533-8.533c0-4.71,3.823-8.533,8.533-8.533h158.379  c4.71,0,8.533,3.823,8.533,8.533C472.405,260.71,468.582,264.533,463.872,264.533z"/>
<path d="M109.005,411.529c-4.71,0-8.533-3.823-8.533-8.533c0-2.261,0.896-4.429,2.5-6.033l111.957-111.957  c3.328-3.328,8.738-3.328,12.066,0c3.328,3.328,3.328,8.738,0,12.066L115.038,409.028  C113.442,410.633,111.266,411.529,109.005,411.529z"/>
<path d="M291.038,229.495c-4.71,0-8.533-3.823-8.533-8.533c0-2.261,0.896-4.429,2.5-6.033l111.957-111.957  c3.328-3.328,8.738-3.328,12.066,0c3.328,3.328,3.328,8.738,0,12.066L297.071,226.995  C295.475,228.591,293.308,229.495,291.038,229.495z"/>
<path d="M216.414,155.648c-3.234,0-6.195-1.826-7.646-4.719l-9.899-19.797c-2.125-4.207-0.427-9.344,3.78-11.46  c4.207-2.125,9.344-0.427,11.46,3.78c0.009,0.017,0.017,0.034,0.026,0.051l9.899,19.797c2.108,4.215,0.401,9.344-3.814,11.452  C219.042,155.341,217.737,155.648,216.414,155.648L216.414,155.648z"/>
<path d="M295.586,155.648c-4.71,0-8.533-3.823-8.525-8.542c0-1.323,0.307-2.628,0.905-3.814l9.899-19.797  c2.091-4.224,7.211-5.948,11.435-3.857c4.224,2.091,5.948,7.211,3.857,11.435c-0.009,0.017-0.017,0.034-0.026,0.051l-9.899,19.797  C301.781,153.83,298.82,155.657,295.586,155.648z"/>
<path d="M206.498,403.115c-4.71,0-8.533-3.823-8.525-8.542c0-1.323,0.307-2.628,0.905-3.814l9.899-19.797  c2.099-4.224,7.219-5.948,11.435-3.849c4.224,2.099,5.948,7.219,3.849,11.435c-0.009,0.017-0.017,0.034-0.026,0.043l-9.899,19.797  C212.693,401.297,209.732,403.123,206.498,403.115z"/>
<path d="M305.502,403.115c-3.234,0-6.195-1.826-7.646-4.719l-9.899-19.797c-2.125-4.207-0.427-9.344,3.78-11.46  c4.207-2.125,9.344-0.427,11.46,3.78c0.009,0.017,0.017,0.034,0.026,0.051l9.899,19.797c2.108,4.215,0.401,9.344-3.814,11.452  C308.13,402.807,306.825,403.115,305.502,403.115L305.502,403.115z"/>
<path d="M137.207,215.04c-1.323,0-2.628-0.307-3.806-0.896l-19.797-9.899c-4.207-2.125-5.905-7.253-3.78-11.46  c2.108-4.19,7.211-5.888,11.418-3.806l19.797,9.899c4.215,2.108,5.922,7.236,3.823,11.452  C143.403,213.222,140.442,215.049,137.207,215.04z"/>
<path d="M374.793,215.04c-4.71,0.009-8.542-3.806-8.542-8.525c0-3.234,1.826-6.195,4.719-7.646l19.797-9.899  c4.224-2.099,9.344-0.367,11.435,3.849c2.082,4.207,0.384,9.301-3.806,11.418l-19.797,9.899  C377.421,214.733,376.115,215.04,374.793,215.04z"/>
<path d="M117.427,323.925c-4.71,0.009-8.542-3.806-8.542-8.525c0-3.234,1.826-6.195,4.719-7.646l19.797-9.899  c4.207-2.125,9.344-0.435,11.46,3.78c2.125,4.207,0.435,9.344-3.78,11.46c-0.017,0.009-0.034,0.017-0.051,0.026l-19.797,9.899  C120.047,323.618,118.75,323.925,117.427,323.925z"/>
<path d="M394.573,323.925c-1.323,0-2.628-0.307-3.806-0.896l-19.797-9.899c-4.224-2.091-5.948-7.211-3.857-11.435  s7.211-5.948,11.435-3.857c0.017,0.009,0.034,0.017,0.051,0.026l19.797,9.899c4.215,2.108,5.922,7.236,3.823,11.452  C400.768,322.099,397.815,323.925,394.573,323.925z"/>
<g>
</g>
<g>
</g>
<g>
</g>
<g>
</g>
<g>
</g>
<g>
</g>
<g>
</g>
<g>
</g>
<g>
</g>
<g>
</g>
<g>
</g>
<g>
</g>
<g>
</g>
<g>
</g>
<g>
</g>
</svg>
