<?xml version="1.0" encoding="iso-8859-1"?>
<!-- Generator: Adobe Illustrator 19.0.0, SVG Export Plug-In . SVG Version: 6.00 Build 0)  -->
<svg xmlns="http://www.w3.org/2000/svg" xmlns:xlink="http://www.w3.org/1999/xlink" version="1.1" id="Capa_1" x="0px" y="0px" viewBox="0 0 512 512" style="enable-background:new 0 0 512 512;" xml:space="preserve">
<path style="fill:#795548;" d="M273.067,53.077V25.6c0-9.429-7.637-17.067-17.067-17.067c-9.429,0-17.067,7.637-17.067,17.067  v27.733"/>
<path style="fill:#558B30;" d="M435.2,349.867c0,84.821-80.213,153.6-179.2,153.6c-5.717,0-11.435-0.256-17.067-0.683  C147.968,495.445,76.8,429.739,76.8,349.867c0.674-42.377,20.079-82.278,52.992-108.971c31.753-27.716,49.801-67.934,49.408-110.08  c0-30.976,18.347-59.136,60.245-77.568l16.64-2.048h0.427c42.189,0.35,76.22,34.611,76.288,76.8v2.816  c-0.393,42.146,17.655,82.364,49.408,110.08C415.121,267.588,434.526,307.49,435.2,349.867z"/>
<path style="fill:#8BC34A;" d="M401.067,349.867c0,79.872-71.168,145.579-162.133,152.917  C147.968,495.445,76.8,429.739,76.8,349.867c0.674-42.377,20.079-82.278,52.992-108.971c31.753-27.716,49.801-67.934,49.408-110.08  c0-30.976,18.347-59.136,60.245-77.568c34.662,8.209,59.162,39.134,59.221,74.752v2.816c-0.393,42.146,17.655,82.364,49.408,110.08  C380.988,267.588,400.393,307.49,401.067,349.867z"/>
<path d="M256,512c-103.518,0-187.733-72.73-187.733-162.133c0.538-44.911,21.052-87.245,55.979-115.49  c29.935-26.035,46.908-63.915,46.421-103.586c0.154-23.791,9.719-46.558,26.607-63.309c33.306-32.811,86.912-32.401,119.714,0.905  c15.65,15.881,24.405,37.308,24.346,59.614v2.79c-0.486,39.671,16.495,77.551,46.421,103.586  c34.927,28.245,55.441,70.579,55.979,115.49C443.733,439.27,359.518,512,256,512z M256.043,59.733  c-17.604,0.137-34.423,7.279-46.754,19.849c-13.67,13.542-21.427,31.949-21.564,51.191c0.495,44.681-18.679,87.322-52.437,116.599  c-31.061,25.028-49.382,62.601-49.954,102.494c0,79.991,76.561,145.067,170.667,145.067s170.667-65.075,170.667-145.067  c-0.572-39.893-18.893-77.466-49.963-102.494c-33.749-29.278-52.924-71.91-52.437-116.591V128  c-0.068-37.504-30.319-67.951-67.814-68.267H256.043z"/>
<path style="fill:#FFEB3A;" d="M401.067,349.867c0,65.877-65.109,119.467-145.067,119.467c-5.7,0.017-11.401-0.264-17.067-0.853  c-72.021-6.997-128-57.515-128-118.613c0.631-32.393,15.642-62.822,40.96-83.029c39.475-34.108,61.952-83.857,61.44-136.021  c0.154-17.715,10.291-33.835,26.197-41.643c5.163-2.5,10.82-3.814,16.555-3.84c23.492,0.137,42.496,19.174,42.581,42.667v2.816  c-0.512,52.164,21.965,101.914,61.44,136.021C385.425,287.044,400.435,317.474,401.067,349.867z"/>
<path style="fill:#FFE0B2;" d="M366.933,349.867c0,61.099-55.979,111.616-128,118.613c-72.021-6.997-128-57.515-128-118.613  c0.631-32.393,15.642-62.822,40.96-83.029c39.475-34.108,61.952-83.857,61.44-136.021c0.154-17.715,10.291-33.835,26.197-41.643  c4.634,2.065,8.832,4.983,12.373,8.619c8.115,7.953,12.672,18.85,12.629,30.208v2.816c-0.512,52.164,21.965,101.914,61.44,136.021  C351.292,287.044,366.302,317.474,366.933,349.867z"/>
<path d="M256,477.867c-84.693,0-153.6-57.421-153.6-128c0.614-34.884,16.725-67.678,43.955-89.489  c37.564-32.521,58.94-79.906,58.445-129.596c-0.009-28.757,22.519-52.489,51.243-53.982c28.237,0.085,51.089,22.963,51.157,51.2  v2.79c-0.495,49.681,20.881,97.075,58.453,129.596c27.23,21.803,43.332,54.596,43.947,89.481  C409.6,420.446,340.693,477.867,256,477.867z M255.991,93.867c-19.268,1.519-34.125,17.596-34.125,36.924  c0.503,54.69-23.074,106.837-64.452,142.592c-23.39,18.586-37.291,46.618-37.948,76.484c0,61.167,61.252,110.933,136.533,110.933  s136.533-49.766,136.533-110.933c-0.657-29.867-14.558-57.899-37.939-76.484c-41.387-35.755-64.956-87.902-64.461-142.592V128  C290.074,109.175,274.816,93.926,255.991,93.867z"/>
<path d="M238.933,61.867c-4.71,0-8.533-3.823-8.533-8.533V25.6C230.4,11.46,241.86,0,256,0c14.14,0,25.6,11.46,25.6,25.6v27.477  c0,4.71-3.823,8.533-8.533,8.533s-8.533-3.823-8.533-8.533V25.6c0-4.71-3.823-8.533-8.533-8.533c-4.71,0-8.533,3.823-8.533,8.533  v27.733C247.467,58.044,243.644,61.867,238.933,61.867z"/>
<g>
	<path style="fill:#795548;" d="M204.996,342.707c4.719-8.9,11.093-16.811,18.782-23.322c3.43-3.234,8.832-3.081,12.066,0.35   c1.297,1.374,2.099,3.149,2.287,5.026c1.51,9.958,1.118,20.113-1.169,29.918c-4.958,13.244-16.137,21.291-24.96,17.988   C203.179,369.365,200.038,355.951,204.996,342.707z"/>
	<path style="fill:#795548;" d="M307.004,342.707c-4.719-8.9-11.093-16.811-18.782-23.322c-3.43-3.234-8.832-3.081-12.066,0.35   c-1.297,1.374-2.099,3.149-2.287,5.026c-1.51,9.958-1.118,20.113,1.169,29.918c4.958,13.244,16.137,21.291,24.96,17.988   C308.821,369.365,311.962,355.951,307.004,342.707z"/>
</g>
<path d="M216.115,381.935c-2.432,0.009-4.838-0.427-7.108-1.271c-13.44-5.043-18.714-23.023-11.998-40.951l0,0  c5.018-10.223,12.151-19.268,20.924-26.539c6.861-6.468,17.664-6.144,24.132,0.717c2.586,2.748,4.19,6.272,4.565,10.027  c1.835,11.247,1.263,22.75-1.673,33.758c-2.714,7.603-7.595,14.251-14.037,19.132C226.645,380.032,221.466,381.824,216.115,381.935z   M212.992,345.702c-3.661,9.754-1.254,17.758,2.005,18.978c2.142,0.384,4.335-0.256,5.948-1.724c3.695-2.91,6.485-6.818,8.03-11.264  c1.997-8.559,2.227-17.442,0.674-26.095C222.78,331.093,217.114,337.937,212.992,345.702L212.992,345.702z"/>
<path d="M295.885,381.935c-5.35-0.111-10.53-1.911-14.805-5.129c-6.443-4.873-11.315-11.52-14.037-19.132  c-2.935-11.008-3.507-22.511-1.673-33.758c0.922-9.378,9.276-16.239,18.662-15.317c3.755,0.367,7.287,1.98,10.035,4.565  c8.772,7.27,15.906,16.307,20.924,26.539l0,0c6.716,17.929,1.442,35.908-11.998,40.951  C300.723,381.508,298.308,381.943,295.885,381.935z M282.368,325.598c-1.562,8.653-1.34,17.536,0.657,26.095  c1.545,4.446,4.335,8.354,8.03,11.264c1.604,1.468,3.806,2.108,5.948,1.724c3.26-1.22,5.666-9.225,2.005-18.978  C294.895,337.937,289.229,331.093,282.368,325.598z"/>
<path d="M256,119.467c-4.71,0-8.533-3.823-8.533-8.533v-25.6c0-4.71,3.823-8.533,8.533-8.533c4.71,0,8.533,3.823,8.533,8.533v25.6  C264.533,115.644,260.71,119.467,256,119.467z"/>
<path d="M256,162.133c-4.71,0-8.533-3.823-8.533-8.533v-8.533c0-4.71,3.823-8.533,8.533-8.533c4.71,0,8.533,3.823,8.533,8.533v8.533  C264.533,158.31,260.71,162.133,256,162.133z"/>
<path d="M256,477.867c-4.71,0-8.533-3.823-8.533-8.533v-25.6c0-4.71,3.823-8.533,8.533-8.533c4.71,0,8.533,3.823,8.533,8.533v25.6  C264.533,474.044,260.71,477.867,256,477.867z"/>
<path d="M256,418.133c-4.71,0-8.533-3.823-8.533-8.533v-8.533c0-4.71,3.823-8.533,8.533-8.533c4.71,0,8.533,3.823,8.533,8.533v8.533  C264.533,414.31,260.71,418.133,256,418.133z"/>
<g>
</g>
<g>
</g>
<g>
</g>
<g>
</g>
<g>
</g>
<g>
</g>
<g>
</g>
<g>
</g>
<g>
</g>
<g>
</g>
<g>
</g>
<g>
</g>
<g>
</g>
<g>
</g>
<g>
</g>
</svg>
