<?xml version="1.0" encoding="iso-8859-1"?>
<!-- Generator: Adobe Illustrator 19.0.0, SVG Export Plug-In . SVG Version: 6.00 Build 0)  -->
<svg xmlns="http://www.w3.org/2000/svg" xmlns:xlink="http://www.w3.org/1999/xlink" version="1.1" id="Capa_1" x="0px" y="0px" viewBox="0 0 511.998 511.998" style="enable-background:new 0 0 511.998 511.998;" xml:space="preserve">
<path style="fill:#F57C00;" d="M375.464,494.927l0.171,1.109c-39.669,5.103-79.638,7.577-119.631,7.424  c-5.717,0-11.434-0.085-17.066-0.085c-34.302-0.478-68.545-2.935-102.566-7.338l0.171-1.109l-34.132-136.527h-8.533  c9.412-0.026,17.04-7.654,17.066-17.066v-62.546c33.876,5.674,68.076,9.181,102.395,10.495v43.518  c0,9.429,7.637,17.066,17.066,17.066c9.429,0,17.066-7.637,17.066-17.066v42.665c0,9.429,7.637,17.066,17.066,17.066  c9.429,0,17.066-7.637,17.066-17.066v-85.67c27.135-0.597,52.989-2.389,76.796-5.034c11.946-1.28,23.295-2.816,34.132-4.522v61.096  c0.026,9.412,7.654,17.04,17.066,17.066L375.464,494.927z"/>
<path style="fill:#FF9801;" d="M341.332,494.927l0.171,1.109c-34.021,4.403-68.263,6.86-102.566,7.338  c-34.302-0.478-68.545-2.935-102.566-7.338l0.171-1.109l-34.132-136.527h-8.533c9.412-0.026,17.04-7.654,17.066-17.066v-57.512  c21.162,2.56,44.2,4.437,68.263,5.461v43.518c0,9.429,7.637,17.066,17.066,17.066s17.066-7.637,17.066-17.066v42.665  c0,9.429,7.637,17.066,17.066,17.066c9.429,0,17.066-7.637,17.066-17.066v-85.67c37.144-0.7,74.211-3.9,110.928-9.557v61.096  c0.026,9.412,7.654,17.04,17.066,17.066L341.332,494.927z"/>
<path style="fill:#C52828;" d="M332.799,85.348c0.034,16.724-5.427,33.005-15.53,46.334l-0.085,0.085l-9.472,3.498  c-6.144,2.295-12.646,3.481-19.199,3.498c-5.802,0.009-11.571-0.939-17.066-2.816c-4.633-1.476-9.028-3.601-13.055-6.314  c-13.934-9.309-31.384-11.639-47.272-6.314c-3.447,1.075-6.775,2.534-9.898,4.352l-6.57,3.754  c-2.551-3.302-4.787-6.852-6.656-10.581c-5.802-10.931-8.814-23.124-8.789-35.497c-0.009-5.239,0.503-10.478,1.536-15.615  c6.178-29.404,28.901-52.529,58.194-59.218c5.598-1.306,11.323-1.963,17.066-1.963c36.401,0.034,67.794,25.556,75.26,61.181  C332.304,74.869,332.816,80.108,332.799,85.348z"/>
<path style="fill:#F44335;" d="M298.667,85.348c0.034,16.724-5.427,33.005-15.53,46.334l-0.085,0.085l-9.472,3.498  c-0.7,0.265-1.408,0.495-2.133,0.683c-4.633-1.476-9.028-3.601-13.055-6.314c-13.934-9.309-31.384-11.639-47.272-6.314  c-7.432-2.517-15.325-3.362-23.124-2.475c-5.802-10.931-8.814-23.124-8.789-35.497c-0.009-5.239,0.503-10.478,1.536-15.615  c6.178-29.404,28.901-52.529,58.194-59.218c29.293,6.69,52.017,29.814,58.194,59.218C298.173,74.869,298.685,80.108,298.667,85.348z  "/>
<path d="M213.338,93.88c-4.71,0-8.533-3.823-8.533-8.533c0.034-28.261,22.936-51.163,51.197-51.197c4.71,0,8.533,3.823,8.533,8.533  s-3.823,8.533-8.533,8.533c-18.841,0.026-34.106,15.291-34.132,34.132C221.871,90.058,218.057,93.88,213.338,93.88z"/>
<path d="M288.513,147.296c-12.415,0.026-24.558-3.661-34.865-10.572c-14.472-9.565-33.082-10.205-48.177-1.647l-6.587,3.763  c-3.712,2.133-8.439,1.178-11.025-2.244c-11.221-14.719-17.262-32.732-17.185-51.24c-0.009-5.828,0.563-11.63,1.715-17.33  C181.997,21.846,227.23-7.806,273.41,1.81c33.27,6.92,59.27,32.911,66.207,66.181c1.152,5.709,1.724,11.528,1.715,17.356  c0.043,18.585-6.016,36.674-17.245,51.479c-0.282,0.367-0.589,0.717-0.93,1.041c-0.87,0.828-1.894,1.476-3.012,1.911l-9.472,3.498  C303.582,145.914,296.082,147.279,288.513,147.296z M228.152,112.021c12.441-0.026,24.609,3.635,34.976,10.504  c12.304,8.183,27.792,9.941,41.624,4.727l7.099-2.62c8.115-11.494,12.458-25.223,12.424-39.294  c0.009-4.667-0.444-9.335-1.365-13.909c-7.731-36.947-43.944-60.635-80.892-52.904c-26.589,5.563-47.358,26.341-52.913,52.938  c-0.913,4.565-1.374,9.216-1.357,13.875c-0.051,12.236,3.251,24.251,9.531,34.755C206.7,114.786,217.332,112.004,228.152,112.021z"/>
<path style="fill:#FDD834;" d="M503.457,230.407c0,12.458-15.701,23.977-42.665,33.534v34.729  c-0.009,9.429-7.654,17.074-17.083,17.066c-9.088-0.009-16.588-7.134-17.049-16.213v41.811c0,9.429-7.637,17.066-17.066,17.066  s-17.066-7.637-17.066-17.066v-61.096c-10.837,1.707-22.186,3.242-34.132,4.522c-23.807,2.645-49.661,4.437-76.796,5.034v85.67  c0,9.429-7.637,17.066-17.066,17.066c-9.429,0-17.066-7.637-17.066-17.066v-42.665c0,9.429-7.637,17.066-17.066,17.066  c-9.429,0-17.066-7.637-17.066-17.066v-43.518c-34.319-1.314-68.519-4.821-102.395-10.495v62.546  c0,9.429-7.637,17.066-17.066,17.066s-17.066-7.637-17.066-17.066V298.67c0,9.429-7.637,17.066-17.066,17.066  S42.68,308.099,42.68,298.67v-37.971C21.007,251.825,8.549,241.5,8.549,230.407c-0.034-1.399,0.205-2.782,0.683-4.096v-0.085  c-4.147-27.186,13.943-52.785,40.958-57.938c0.256,0,0.427-0.085,0.683-0.085c-1.015-2.679-1.766-5.453-2.219-8.277  c-5.785-30.104,12.236-59.688,41.641-68.349c1.928-0.606,3.9-1.092,5.888-1.451c0.734-0.154,1.476-0.273,2.219-0.341  c10.862-1.724,21.981-0.333,32.084,4.01c3.243-7.347,8.516-13.619,15.189-18.09c4.821-3.319,10.291-5.581,16.042-6.656  c5.819-1.084,11.801-0.973,17.578,0.341l1.451,0.341c-1.032,5.137-1.544,10.376-1.536,15.615  c-0.026,12.373,2.987,24.566,8.789,35.497c1.869,3.729,4.104,7.279,6.656,10.581l6.57-3.754c3.123-1.818,6.451-3.277,9.898-4.352  c15.888-5.325,33.338-2.995,47.272,6.314c4.028,2.713,8.422,4.838,13.055,6.314c5.495,1.877,11.263,2.824,17.066,2.816  c6.553-0.017,13.055-1.203,19.199-3.498l9.472-3.498l0.085-0.085c10.103-13.328,15.564-29.609,15.53-46.334  c0.017-3.225-0.179-6.442-0.597-9.642c-0.256-2.048-0.512-4.01-0.939-5.973l1.451-0.341c5.777-1.314,11.758-1.425,17.578-0.341  c12.287,2.312,22.954,9.89,29.183,20.735c0.768,1.288,1.451,2.628,2.048,4.01c1.963-0.853,3.925-1.536,5.973-2.219h0.171  c9.13-2.756,18.789-3.251,28.159-1.451c32.382,6.127,53.672,37.349,47.537,69.739c0,0.017-0.009,0.043-0.009,0.06  c-0.452,2.824-1.203,5.598-2.219,8.277c0.256,0,0.427,0.085,0.683,0.085c27.015,5.154,45.105,30.753,40.958,57.938v0.085  C503.261,227.625,503.491,229.008,503.457,230.407z"/>
<path style="fill:#FFEB3A;" d="M469.326,230.407c0,12.458-15.701,23.977-42.665,33.534v35.582  c-0.478,9.42-8.499,16.665-17.919,16.195c-9.079-0.461-16.204-7.953-16.213-17.049v-18.431c-10.837,1.707-22.186,3.242-34.132,4.522  v-4.522c-36.717,5.657-73.784,8.857-110.928,9.557v43.006c0,9.429-7.637,17.066-17.066,17.066c-9.429,0-17.066-7.637-17.066-17.066  v-43.518c-34.319-1.314-68.519-4.821-102.395-10.495v5.034c-11.946-1.451-23.38-3.157-34.132-5.034v19.882  c0,9.429-7.637,17.066-17.066,17.066S42.68,308.099,42.68,298.67v-37.971C21.007,251.825,8.549,241.5,8.549,230.407  c-0.034-1.399,0.205-2.782,0.683-4.096v-0.085c-4.147-27.186,13.943-52.785,40.958-57.938c0.256,0,0.427-0.085,0.683-0.085  c-1.015-2.679-1.766-5.453-2.219-8.277c-5.785-30.104,12.236-59.688,41.641-68.349c2.065,0.614,4.087,1.357,6.058,2.219  c0.597-1.382,1.28-2.722,2.048-4.01c10.862-1.724,21.981-0.333,32.084,4.01c3.243-7.347,8.516-13.619,15.189-18.09  c-0.418,3.2-0.614,6.417-0.597,9.642c-0.043,16.639,5.384,32.826,15.445,46.078l6.57-3.754c13.38-7.671,29.404-9.258,44.03-4.352  c4.659,1.476,9.079,3.601,13.141,6.314c8.908,5.965,19.395,9.139,30.121,9.13c5.802-0.009,11.571-0.956,17.066-2.816  c5.495,1.877,11.263,2.824,17.066,2.816c6.553-0.017,13.055-1.203,19.199-3.498l9.472-3.498l0.085-0.085  c10.103-13.328,15.564-29.609,15.53-46.334c0.017-3.225-0.179-6.442-0.597-9.642c6.673,4.471,11.946,10.743,15.189,18.09  c10.103-4.343,21.221-5.734,32.084-4.01c0.742,0.068,1.485,0.188,2.219,0.341c1.963,0.35,3.9,0.836,5.802,1.451h0.171  c29.311,8.772,47.255,38.287,41.555,68.349c-0.452,2.824-1.203,5.598-2.219,8.277c0.256,0,0.427,0.085,0.683,0.085  c27.015,5.154,45.105,30.753,40.958,57.938v0.085C469.129,227.625,469.36,229.008,469.326,230.407z"/>
<path d="M264.536,401.065c-14.13-0.017-25.582-11.468-25.599-25.599v-18.525c-13.328,4.71-27.962-2.278-32.673-15.615  c-0.964-2.739-1.459-5.623-1.459-8.524v-35.377c-28.568-1.391-57.051-4.249-85.329-8.567v52.477  c0,14.139-11.46,25.599-25.599,25.599s-25.599-11.46-25.599-25.599V322.81c-13.328,4.71-27.962-2.278-32.673-15.615  c-0.964-2.739-1.459-5.623-1.459-8.524v-32.357c-22.655-10.24-34.132-22.305-34.132-35.906c-0.009-1.604,0.162-3.208,0.521-4.778  c-3.464-27.945,13.175-54.483,39.832-63.553c-0.043-0.222-0.085-0.452-0.119-0.683c-6.971-37.033,17.399-72.709,54.431-79.68  c10.581-1.988,21.477-1.451,31.811,1.579c11.733-18.184,33.594-27.075,54.687-22.228l1.51,0.358  c4.488,1.058,7.33,5.487,6.408,10.009c-0.922,4.582-1.382,9.241-1.365,13.909c-0.051,12.236,3.251,24.251,9.531,34.755  c20.675-11.579,46.086-10.641,65.857,2.432c12.304,8.183,27.792,9.941,41.624,4.727l7.099-2.62  c8.115-11.494,12.458-25.223,12.424-39.294c0.009-4.667-0.444-9.335-1.365-13.909c-0.922-4.522,1.92-8.96,6.408-10.009l1.451-0.341  c21.11-4.872,43.006,4.019,54.747,22.22c36.154-10.606,74.057,10.103,84.664,46.257c3.046,10.376,3.575,21.332,1.553,31.956  l-0.102,0.563c26.665,9.062,43.296,35.599,39.84,63.553c0.358,1.562,0.538,3.166,0.521,4.778c0,15.231-14.344,28.491-42.665,39.473  v28.79c0,14.139-11.468,25.599-25.607,25.599c-2.901,0-5.785-0.495-8.524-1.459v18.525c0,14.139-11.46,25.599-25.599,25.599  s-25.599-11.46-25.599-25.599v-51.163c-31.12,4.369-62.452,7.014-93.862,7.927v77.368  C290.126,389.597,278.666,401.048,264.536,401.065z M256.003,332.802v42.665c0,4.71,3.823,8.533,8.533,8.533  c4.71,0,8.533-3.823,8.533-8.533v-85.67c0-4.633,3.703-8.422,8.337-8.533c36.76-0.708,73.434-3.865,109.767-9.454  c4.65-0.751,9.028,2.415,9.779,7.074c0.068,0.444,0.111,0.896,0.111,1.357v61.096c0,4.71,3.823,8.533,8.533,8.533  s8.533-3.823,8.533-8.533V298.67c0-4.71,3.823-8.533,8.533-8.533c4.71,0,8.533,3.823,8.533,8.533s3.823,8.533,8.533,8.533  s8.533-3.823,8.533-8.533v-34.729c0-3.618,2.278-6.835,5.683-8.038c27.263-9.668,36.982-19.506,36.982-25.496  c0.026-0.375-0.017-0.751-0.145-1.101c-0.358-0.956-0.546-1.971-0.538-2.995c0-0.461,0.034-0.93,0.102-1.391  c3.507-22.561-11.451-43.859-33.859-48.202l-0.179-0.026c-4.693-0.461-8.115-4.642-7.654-9.326c0.077-0.802,0.273-1.587,0.572-2.338  c0.802-2.125,1.382-4.326,1.732-6.579c5.35-27.74-12.799-54.559-40.54-59.91c-0.06-0.009-0.119-0.026-0.171-0.034  c-9.881-1.911-20.112-0.819-29.362,3.14c-4.284,1.835-9.25-0.119-11.144-4.377c-4.591-10.316-13.943-17.723-25.036-19.839  c-2.56-0.461-5.162-0.648-7.756-0.563c0.264,2.79,0.401,5.623,0.401,8.482c0.043,18.585-6.016,36.674-17.245,51.479  c-0.282,0.367-0.589,0.717-0.93,1.041c-0.87,0.828-1.894,1.476-3.012,1.911l-9.472,3.498c-18.96,7.082-40.164,4.65-57.025-6.553  c-14.472-9.565-33.082-10.205-48.177-1.647l-6.587,3.763c-3.712,2.133-8.439,1.178-11.025-2.244  c-11.221-14.719-17.262-32.732-17.185-51.24c0-2.85,0.137-5.691,0.401-8.482c-2.611-0.085-5.231,0.102-7.799,0.572  c-11.076,2.116-20.411,9.523-24.993,19.83c-1.903,4.249-6.86,6.195-11.144,4.377c-26.017-10.973-56.01,1.229-66.983,27.246  c-3.917,9.292-5,19.54-3.115,29.447c0.358,2.287,0.939,4.522,1.758,6.69c1.749,4.377-0.375,9.344-4.744,11.093  c-0.759,0.307-1.553,0.495-2.364,0.572l-0.162,0.017c-22.424,4.343-37.391,25.641-33.884,48.211  c0.068,0.427,0.102,0.862,0.102,1.297c0,1.05-0.179,2.099-0.538,3.08c-0.119,0.35-0.171,0.725-0.145,1.101  c0,2.483,2.082,11.443,28.833,22.399c3.208,1.314,5.299,4.429,5.299,7.893v37.971c0,4.71,3.823,8.533,8.533,8.533  s8.533-3.823,8.533-8.533s3.823-8.533,8.533-8.533s8.533,3.823,8.533,8.533v42.665c0,4.71,3.823,8.533,8.533,8.533  c4.71,0,8.533-3.823,8.533-8.533v-62.546c0-2.517,1.109-4.915,3.038-6.536c1.92-1.638,4.48-2.321,6.963-1.869  c33.509,5.598,67.342,9.062,101.294,10.376c4.565,0.196,8.166,3.951,8.166,8.524v43.518c0,4.71,3.823,8.533,8.533,8.533  c4.71,0,8.533-3.823,8.533-8.533s3.823-8.533,8.533-8.533C252.18,324.269,256.003,328.092,256.003,332.802z"/>
<path d="M317.269,140.223c-4.71,0-8.533-3.823-8.533-8.541c0-3.558,2.21-6.741,5.538-7.987l32.596-12.202  c4.429-1.621,9.326,0.657,10.948,5.086c1.604,4.377-0.606,9.233-4.958,10.897l-32.596,12.202  C319.309,140.035,318.293,140.223,317.269,140.223z"/>
<path d="M170.682,153.611c-4.71,0.009-8.533-3.814-8.541-8.524c0-3.072,1.647-5.905,4.309-7.424l23.977-13.653  c4.096-2.329,9.309-0.904,11.639,3.2c2.329,4.104,0.904,9.309-3.2,11.639l0,0l-23.977,13.653  C173.618,153.227,172.159,153.611,170.682,153.611z"/>
<path d="M315.742,221.874c-4.71,0-8.533-3.823-8.533-8.533c0-3.413,2.031-6.494,5.171-7.842l45.54-19.515  c12.125-5.188,26.188-0.034,32.092,11.758c1.945,3.874,6.656,5.444,10.53,3.499c0.751-0.375,1.434-0.87,2.031-1.468l18.064-18.064  c3.362-3.302,8.763-3.251,12.066,0.111c3.26,3.319,3.26,8.635,0,11.955l-18.064,18.064c-9.728,9.728-25.505,9.728-35.232,0  c-1.894-1.894-3.464-4.079-4.667-6.468c-1.852-3.712-6.28-5.342-10.103-3.703l-45.54,19.515  C318.037,221.644,316.894,221.874,315.742,221.874z"/>
<path d="M187.091,241.85c-10.385,0.009-20.214-4.693-26.717-12.791l-7.987-9.984c-5.35-6.647-14.779-8.345-22.1-3.968l-6.348,3.806  c-13.422,8.072-30.625,5.947-41.692-5.137l-11.468-11.468c-3.302-3.362-3.251-8.763,0.111-12.066c3.319-3.26,8.635-3.26,11.955,0  l11.468,11.468c5.529,5.546,14.131,6.604,20.846,2.568l6.348-3.806c14.66-8.729,33.509-5.342,44.209,7.953l7.987,9.984  c4.804,5.973,12.996,8.021,20.052,5.026l41.828-17.928c4.335-1.843,9.344,0.179,11.187,4.514c1.835,4.318-0.162,9.309-4.463,11.17  l-41.828,17.928C196.247,240.92,191.69,241.858,187.091,241.85z"/>
<path id="SVGCleanerId_0" d="M247.47,341.335c-4.71,0-8.533-3.823-8.533-8.533v-42.75c0-4.71,3.823-8.533,8.533-8.533  c4.71,0,8.533,3.823,8.533,8.533v42.75C256.003,337.512,252.189,341.335,247.47,341.335z"/>
<g>
	<path id="SVGCleanerId_0_1_" d="M247.47,341.335c-4.71,0-8.533-3.823-8.533-8.533v-42.75c0-4.71,3.823-8.533,8.533-8.533   c4.71,0,8.533,3.823,8.533,8.533v42.75C256.003,337.512,252.189,341.335,247.47,341.335z"/>
</g>
<path d="M256.003,511.993c-40.378,0.137-80.721-2.364-120.766-7.5c-4.48-0.606-7.714-4.599-7.372-9.105L95.746,366.933h-1.869  c-4.71,0-8.533-3.823-8.533-8.533s3.823-8.533,8.533-8.533c4.71-0.009,8.524-3.823,8.533-8.533v-62.546  c0-2.517,1.109-4.915,3.038-6.536c1.92-1.638,4.48-2.321,6.963-1.869c33.509,5.598,67.342,9.062,101.294,10.376  c4.565,0.196,8.166,3.951,8.166,8.524v43.518c0,4.71,3.823,8.533,8.533,8.533c4.71,0,8.533-3.823,8.533-8.533  s3.823-8.533,8.533-8.533c4.71,0,8.533,3.823,8.533,8.533v42.665c0,4.71,3.823,8.533,8.533,8.533c4.71,0,8.533-3.823,8.533-8.533  v-85.67c0-4.633,3.703-8.422,8.337-8.533c36.76-0.708,73.434-3.865,109.767-9.454c4.65-0.751,9.028,2.415,9.779,7.074  c0.068,0.444,0.111,0.896,0.111,1.357v61.096c0.009,4.71,3.823,8.524,8.533,8.533c4.719,0,8.533,3.823,8.533,8.541  c0,0.691-0.085,1.391-0.256,2.065l-33.731,134.922c0.341,4.505-2.893,8.499-7.372,9.105  C336.724,509.629,296.381,512.129,256.003,511.993z M143.701,488.382c74.62,8.576,149.983,8.576,224.603,0l30.915-123.65  c-9.25-4.113-15.214-13.277-15.223-23.397v-51.163c-31.12,4.369-62.452,7.014-93.862,7.927v77.368  c0,14.139-11.46,25.599-25.599,25.599c-14.139,0-25.599-11.46-25.599-25.599v-18.525c-13.328,4.71-27.962-2.278-32.673-15.615  c-0.964-2.739-1.459-5.623-1.459-8.524v-35.377c-28.568-1.391-57.051-4.249-85.329-8.567v52.477  c0.009,6.988-2.859,13.67-7.91,18.491L143.701,488.382z"/>
<g>
</g>
<g>
</g>
<g>
</g>
<g>
</g>
<g>
</g>
<g>
</g>
<g>
</g>
<g>
</g>
<g>
</g>
<g>
</g>
<g>
</g>
<g>
</g>
<g>
</g>
<g>
</g>
<g>
</g>
</svg>
