<?xml version="1.0" encoding="iso-8859-1"?>
<!-- Generator: Adobe Illustrator 19.0.0, SVG Export Plug-In . SVG Version: 6.00 Build 0)  -->
<svg xmlns="http://www.w3.org/2000/svg" xmlns:xlink="http://www.w3.org/1999/xlink" version="1.1" id="Capa_1" x="0px" y="0px" viewBox="0 0 512 512" style="enable-background:new 0 0 512 512;" xml:space="preserve">
<path style="fill:#FFB301;" d="M503.467,256c0.026,136.653-110.737,247.441-247.381,247.467c-0.026,0-0.051,0-0.085,0  c-5.717,0-11.435-0.171-17.067-0.683C102.639,493.414-0.256,375.33,9.114,239.036C17.587,115.789,115.686,17.69,238.933,9.216  c5.632-0.512,11.349-0.683,17.067-0.683C392.653,8.508,503.441,119.27,503.467,255.915C503.467,255.949,503.467,255.974,503.467,256  z"/>
<path style="fill:#FEC108;" d="M469.333,256c0.051,130.048-100.651,237.918-230.4,246.784  C102.639,493.414-0.256,375.33,9.114,239.036C17.587,115.789,115.686,17.69,238.933,9.216  C368.683,18.082,469.385,125.952,469.333,256z"/>
<path d="M256,512C114.611,512,0,397.389,0,256S114.611,0,256,0s256,114.611,256,256C511.838,397.321,397.321,511.838,256,512z   M256,17.067C124.041,17.067,17.067,124.041,17.067,256S124.041,494.933,256,494.933S494.933,387.96,494.933,256  C494.788,124.1,387.9,17.212,256,17.067z"/>
<path style="fill:#FDD834;" d="M469.333,256c-0.026,87.714-53.76,166.468-135.424,198.485  c-24.789,9.873-51.234,14.908-77.909,14.848c-117.777,0.043-213.291-95.394-213.333-213.171  c-0.026-74.001,38.306-142.729,101.291-181.581C177.57,53.632,216.397,42.573,256,42.667  C373.777,42.769,469.231,138.223,469.333,256z"/>
<path style="fill:#FFEB3A;" d="M435.2,273.067c0.009,73.95-38.332,142.626-101.291,181.419  c-24.789,9.873-51.234,14.908-77.909,14.848c-117.777,0.043-213.291-95.394-213.333-213.171  c-0.026-74.001,38.306-142.729,101.291-181.581c24.789-9.873,51.234-14.908,77.909-14.848  C339.644,59.836,435.098,155.29,435.2,273.067z"/>
<path d="M256,477.867C133.47,477.867,34.133,378.53,34.133,256S133.47,34.133,256,34.133S477.867,133.47,477.867,256  C477.73,378.479,378.479,477.73,256,477.867z M256,51.2C142.891,51.2,51.2,142.891,51.2,256S142.891,460.8,256,460.8  S460.8,369.109,460.8,256C460.672,142.942,369.058,51.328,256,51.2z"/>
<path id="SVGCleanerId_0" d="M256,512c-4.71,0-8.533-3.814-8.533-8.525c0,0,0,0,0-0.009V8.533C247.467,3.823,251.29,0,256,0  c4.71,0,8.533,3.823,8.533,8.533v494.933C264.533,508.177,260.719,512,256,512L256,512z"/>
<g>
	<path id="SVGCleanerId_0_1_" d="M256,512c-4.71,0-8.533-3.814-8.533-8.525c0,0,0,0,0-0.009V8.533C247.467,3.823,251.29,0,256,0   c4.71,0,8.533,3.823,8.533,8.533v494.933C264.533,508.177,260.719,512,256,512L256,512z"/>
</g>
<path d="M470.298,388.267c-1.493,0-2.961-0.393-4.258-1.143L37.419,139.657c-4.079-2.355-5.47-7.578-3.115-11.657  c2.355-4.079,7.569-5.478,11.657-3.123l428.621,247.467c4.079,2.355,5.478,7.569,3.132,11.657  C476.177,386.645,473.353,388.267,470.298,388.267z"/>
<path d="M41.702,388.267c-4.71,0.009-8.542-3.806-8.542-8.525c0-3.055,1.621-5.879,4.267-7.407l428.621-247.467  c4.079-2.355,9.301-0.964,11.657,3.123c2.355,4.079,0.964,9.301-3.123,11.657h-0.009L45.952,387.115  C44.663,387.874,43.196,388.267,41.702,388.267z"/>
<path d="M213.333,93.867c-1.118-0.017-2.219-0.247-3.243-0.683c-4.335-1.673-6.494-6.545-4.83-10.88  c0.853-2.219,2.611-3.968,4.83-4.83c3.183-1.289,6.827-0.58,9.301,1.792c3.345,3.319,3.371,8.721,0.051,12.066  C217.83,92.971,215.629,93.884,213.333,93.867z"/>
<path d="M128,145.067c-4.736-0.017-8.55-3.866-8.533-8.602c0.009-2.244,0.896-4.395,2.475-5.99c0.819-0.777,1.775-1.382,2.816-1.792  c3.183-1.297,6.827-0.589,9.301,1.792c3.345,3.319,3.371,8.721,0.051,12.066C132.497,144.171,130.295,145.084,128,145.067z"/>
<path d="M93.867,213.333c-4.736-0.017-8.55-3.866-8.533-8.602c0.009-2.244,0.896-4.395,2.475-5.99c3.396-3.217,8.721-3.217,12.117,0  c3.302,3.362,3.302,8.755,0,12.117c-0.427,0.341-0.862,0.683-1.28,1.024c-0.478,0.324-0.99,0.58-1.536,0.768  c-0.512,0.256-1.058,0.427-1.621,0.512C94.95,213.257,94.413,213.316,93.867,213.333z"/>
<path d="M162.133,264.533c-0.572-0.017-1.143-0.077-1.707-0.171c-0.538-0.094-1.05-0.265-1.536-0.512  c-0.546-0.188-1.067-0.444-1.545-0.768c-0.427-0.341-0.853-0.683-1.271-1.024c-3.345-3.311-3.371-8.704-0.068-12.049  c2.449-2.475,6.153-3.209,9.361-1.86c1.033,0.435,1.988,1.041,2.816,1.792c3.345,3.319,3.371,8.721,0.051,12.066  C166.63,263.637,164.429,264.55,162.133,264.533z"/>
<path d="M341.333,256c-3.473,0.077-6.622-2.039-7.851-5.291c-0.435-1.024-0.666-2.125-0.683-3.243  c-0.026-4.71,3.772-8.559,8.482-8.585c2.296-0.017,4.497,0.896,6.11,2.526c0.341,0.427,0.683,0.853,1.024,1.365  c0.333,0.435,0.597,0.93,0.768,1.451c0.247,0.486,0.418,0.998,0.512,1.536c0.102,0.563,0.154,1.135,0.171,1.707  c-0.017,1.118-0.247,2.219-0.683,3.243c-0.41,1.041-1.024,1.997-1.792,2.816C345.754,255.078,343.595,255.966,341.333,256z"/>
<path d="M307.2,324.267c-0.572-0.017-1.143-0.077-1.707-0.171c-0.538-0.094-1.05-0.265-1.536-0.512  c-0.546-0.188-1.067-0.444-1.545-0.768c-0.427-0.341-0.853-0.683-1.271-1.024c-1.562-1.638-2.441-3.797-2.475-6.059  c0.017-0.572,0.068-1.143,0.171-1.707c0.094-0.538,0.273-1.05,0.521-1.536c0.171-0.521,0.427-1.015,0.768-1.451  c0.341-0.512,0.683-0.939,1.024-1.365c3.422-3.157,8.695-3.157,12.117,0c0.341,0.427,0.683,0.853,1.024,1.365  c0.333,0.435,0.597,0.93,0.768,1.451c0.247,0.486,0.418,0.998,0.512,1.536c0.102,0.563,0.162,1.135,0.179,1.707  c0.043,4.668-3.703,8.491-8.371,8.533C307.311,324.267,307.251,324.267,307.2,324.267z"/>
<path d="M375.467,375.467c-2.261-0.034-4.42-0.913-6.059-2.475c-0.751-0.828-1.357-1.783-1.792-2.816  c-0.478-1.015-0.717-2.125-0.683-3.243c0.017-0.572,0.068-1.143,0.171-1.707c0.094-0.538,0.273-1.05,0.521-1.536  c0.188-0.546,0.444-1.058,0.768-1.536c0.316-0.444,0.657-0.87,1.024-1.28c2.065-1.98,4.958-2.833,7.765-2.304  c0.538,0.094,1.05,0.265,1.536,0.512c0.546,0.188,1.058,0.444,1.536,0.768c0.427,0.341,0.862,0.683,1.28,1.024  c1.562,1.638,2.441,3.797,2.475,6.059c-0.017,1.118-0.247,2.219-0.683,3.243c-0.435,1.033-1.041,1.988-1.792,2.816  c-0.41,0.367-0.836,0.708-1.28,1.024c-0.478,0.324-0.99,0.58-1.536,0.768c-0.486,0.247-0.998,0.418-1.536,0.512  C376.61,375.39,376.038,375.45,375.467,375.467z"/>
<path d="M221.867,324.267c-1.118,0.026-2.227-0.205-3.243-0.683c-1.041-0.41-1.997-1.024-2.816-1.792  c-0.341-0.427-0.683-0.853-1.024-1.365c-0.341-0.435-0.597-0.922-0.768-1.451c-0.247-0.486-0.418-0.998-0.521-1.536  c-0.094-0.563-0.154-1.135-0.171-1.707c0.017-1.118,0.247-2.219,0.683-3.243c1.818-4.369,6.835-6.426,11.204-4.608  c1.007,0.418,1.929,1.033,2.705,1.792c1.562,1.638,2.441,3.797,2.475,6.059c-0.017,0.572-0.068,1.143-0.179,1.707  c-0.085,0.538-0.265,1.058-0.512,1.536c-0.171,0.521-0.427,1.015-0.768,1.451c-0.341,0.512-0.683,0.939-1.024,1.365  C226.287,323.345,224.128,324.233,221.867,324.267z"/>
<path d="M136.533,384c-1.118-0.017-2.219-0.247-3.243-0.683c-0.546-0.188-1.067-0.444-1.545-0.768  c-0.444-0.316-0.87-0.657-1.271-1.024c-0.768-0.819-1.382-1.775-1.792-2.816c-0.435-1.024-0.666-2.125-0.683-3.243  c0.017-2.261,0.905-4.437,2.475-6.059l1.271-1.024c0.478-0.324,0.998-0.58,1.545-0.768c2.074-0.853,4.403-0.853,6.485,0  c1.041,0.418,1.997,1.024,2.816,1.792c3.302,3.362,3.302,8.755,0,12.117c-0.828,0.751-1.783,1.357-2.816,1.792  C138.752,383.753,137.651,383.983,136.533,384z"/>
<path d="M290.133,204.8c-4.668,0.043-8.491-3.703-8.533-8.371c0-0.051,0-0.111,0-0.162c0.017-1.118,0.247-2.219,0.683-3.243  c0.435-1.033,1.041-1.98,1.792-2.816c3.422-3.157,8.695-3.157,12.117,0c0.751,0.828,1.357,1.783,1.792,2.816  c0.435,1.024,0.666,2.133,0.683,3.243c0.043,4.668-3.703,8.491-8.371,8.533C290.244,204.8,290.185,204.8,290.133,204.8z"/>
<path d="M290.133,102.4c-2.261-0.034-4.42-0.913-6.059-2.475c-0.751-0.828-1.357-1.783-1.792-2.816c-0.913-2.065-0.913-4.42,0-6.485  c0.435-1.033,1.041-1.98,1.792-2.816c3.422-3.157,8.695-3.157,12.117,0c0.751,0.828,1.357,1.783,1.792,2.816  c0.913,2.065,0.913,4.42,0,6.485c-0.435,1.033-1.041,1.988-1.792,2.816C294.554,101.478,292.395,102.366,290.133,102.4z"/>
<g>
	<circle style="fill:#F44335;" cx="196.267" cy="153.6" r="25.6"/>
	<circle style="fill:#F44335;" cx="102.4" cy="281.6" r="25.6"/>
	<circle style="fill:#F44335;" cx="315.733" cy="401.067" r="25.6"/>
	<circle style="fill:#F44335;" cx="401.067" cy="256" r="25.6"/>
	<circle style="fill:#F44335;" cx="196.267" cy="392.533" r="25.6"/>
	<circle style="fill:#F44335;" cx="349.867" cy="128" r="25.6"/>
</g>
<path d="M196.267,187.733c-18.85,0-34.133-15.283-34.133-34.133s15.283-34.133,34.133-34.133S230.4,134.75,230.4,153.6  C230.383,172.442,215.108,187.716,196.267,187.733z M196.267,136.533c-9.429,0-17.067,7.637-17.067,17.067  c0,9.429,7.637,17.067,17.067,17.067s17.067-7.637,17.067-17.067C213.325,144.179,205.687,136.542,196.267,136.533z"/>
<path d="M102.4,315.733c-18.85,0-34.133-15.283-34.133-34.133s15.283-34.133,34.133-34.133s34.133,15.283,34.133,34.133  C136.516,300.442,121.242,315.716,102.4,315.733z M102.4,264.533c-9.429,0-17.067,7.637-17.067,17.067  c0,9.429,7.637,17.067,17.067,17.067s17.067-7.637,17.067-17.067C119.458,272.179,111.821,264.542,102.4,264.533z"/>
<path d="M315.733,435.2c-18.85,0-34.133-15.283-34.133-34.133s15.283-34.133,34.133-34.133c18.85,0,34.133,15.283,34.133,34.133  C349.85,419.908,334.575,435.183,315.733,435.2z M315.733,384c-9.429,0-17.067,7.637-17.067,17.067  c0,9.429,7.637,17.067,17.067,17.067c9.429,0,17.067-7.637,17.067-17.067C332.792,391.646,325.154,384.009,315.733,384z"/>
<path d="M401.067,290.133c-18.85,0-34.133-15.283-34.133-34.133c0-18.85,15.283-34.133,34.133-34.133S435.2,237.15,435.2,256  C435.183,274.842,419.908,290.116,401.067,290.133z M401.067,238.933c-9.429,0-17.067,7.637-17.067,17.067  c0,9.429,7.637,17.067,17.067,17.067c9.429,0,17.067-7.637,17.067-17.067C418.125,246.579,410.487,238.942,401.067,238.933z"/>
<path d="M196.267,426.667c-18.85,0-34.133-15.283-34.133-34.133s15.283-34.133,34.133-34.133s34.133,15.283,34.133,34.133  C230.383,411.375,215.108,426.65,196.267,426.667z M196.267,375.467c-9.429,0-17.067,7.637-17.067,17.067  s7.637,17.067,17.067,17.067s17.067-7.637,17.067-17.067C213.325,383.113,205.687,375.475,196.267,375.467z"/>
<path d="M349.867,162.133c-18.85,0-34.133-15.283-34.133-34.133s15.283-34.133,34.133-34.133C368.717,93.867,384,109.15,384,128  C383.983,146.842,368.708,162.116,349.867,162.133z M349.867,110.933c-9.429,0-17.067,7.637-17.067,17.067  c0,9.429,7.637,17.067,17.067,17.067c9.429,0,17.067-7.637,17.067-17.067C366.925,118.579,359.287,110.942,349.867,110.933z"/>
<g>
</g>
<g>
</g>
<g>
</g>
<g>
</g>
<g>
</g>
<g>
</g>
<g>
</g>
<g>
</g>
<g>
</g>
<g>
</g>
<g>
</g>
<g>
</g>
<g>
</g>
<g>
</g>
<g>
</g>
</svg>
