<?xml version="1.0" encoding="iso-8859-1"?>
<!-- Generator: Adobe Illustrator 19.0.0, SVG Export Plug-In . SVG Version: 6.00 Build 0)  -->
<svg xmlns="http://www.w3.org/2000/svg" xmlns:xlink="http://www.w3.org/1999/xlink" version="1.1" id="Capa_1" x="0px" y="0px" viewBox="0 0 512 512" style="enable-background:new 0 0 512 512;" xml:space="preserve">
<path id="SVGCleanerId_0" d="M256,512C114.611,512,0,397.389,0,256S114.611,0,256,0s256,114.611,256,256  C511.838,397.321,397.321,511.838,256,512z M256,17.067C124.041,17.067,17.067,124.041,17.067,256S124.041,494.933,256,494.933  S494.933,387.96,494.933,256C494.788,124.1,387.9,17.212,256,17.067z"/>
<path style="fill:#FFB301;" d="M256,8.533C119.33,8.533,8.533,119.33,8.533,256S119.33,503.467,256,503.467  S503.467,392.67,503.467,256S392.67,8.533,256,8.533z M283.136,327.765c-8.661,3.328-17.86,5.035-27.136,5.035  c-42.564,0.145-77.184-34.236-77.329-76.8s34.236-77.184,76.8-77.329s77.184,34.236,77.329,76.8  C332.911,287.556,313.122,316.356,283.136,327.765z"/>
<path style="fill:#FEC108;" d="M221.867,34.133c-46.148-0.102-91.401,12.791-130.56,37.205  c-101.982,90.991-110.891,247.433-19.9,349.414c80.051,89.711,212.992,108.911,315.153,45.508  c101.999-90.94,110.967-247.356,20.028-349.355C359.629,64.239,292.429,34.125,221.867,34.133z M283.136,327.765  c-8.661,3.328-17.86,5.035-27.136,5.035c-42.564,0.145-77.184-34.236-77.329-76.8s34.236-77.184,76.8-77.329  s77.184,34.236,77.329,76.8C332.911,287.556,313.122,316.356,283.136,327.765z"/>
<g>
	<path id="SVGCleanerId_0_1_" d="M256,512C114.611,512,0,397.389,0,256S114.611,0,256,0s256,114.611,256,256   C511.838,397.321,397.321,511.838,256,512z M256,17.067C124.041,17.067,17.067,124.041,17.067,256S124.041,494.933,256,494.933   S494.933,387.96,494.933,256C494.788,124.1,387.9,17.212,256,17.067z"/>
</g>
<path d="M325.393,466.347c-10.078,0-19.831-3.593-27.511-10.121l-25.353-21.453c-9.532-8.107-23.535-8.107-33.067,0l-25.344,21.453  c-17.988,15.223-44.902,12.988-60.126-5.001c-5.734-6.775-9.216-15.181-9.95-24.03l-2.756-33.084  c-1.007-12.476-10.914-22.383-23.39-23.39l-33.092-2.756c-23.475-1.954-40.926-22.571-38.98-46.046  c0.734-8.858,4.215-17.254,9.958-24.038l21.436-25.344c8.115-9.532,8.115-23.543,0.009-33.075l-21.453-25.344  c-15.223-17.98-12.988-44.902,4.992-60.126c6.775-5.734,15.181-9.216,24.03-9.958l33.092-2.756  c12.476-1.007,22.383-10.914,23.39-23.39l2.756-33.084c1.954-23.475,22.562-40.934,46.046-38.98  c8.849,0.734,17.254,4.215,24.03,9.95l25.353,21.453c9.532,8.107,23.535,8.107,33.067,0l5.513,6.511l-5.504-6.511l25.344-21.453  c17.988-15.223,44.902-12.988,60.126,5.001c5.734,6.775,9.216,15.181,9.95,24.03l2.756,33.084  c1.007,12.476,10.914,22.383,23.39,23.39l33.092,2.756c23.475,1.954,40.926,22.571,38.98,46.046  c-0.734,8.858-4.215,17.254-9.958,24.038l-21.436,25.344c-8.115,9.532-8.115,23.543-0.009,33.075l21.453,25.344  c15.223,17.98,12.988,44.902-4.992,60.126c-6.775,5.734-15.181,9.216-24.03,9.958l-33.092,2.756  c-12.476,1.007-22.383,10.914-23.39,23.39l-2.756,33.084C366.097,449.323,347.597,466.338,325.393,466.347z M256,411.605  c10.103,0.009,19.874,3.601,27.563,10.138l25.344,21.453c10.795,9.131,26.948,7.782,36.079-3.012  c3.439-4.07,5.53-9.105,5.965-14.413l2.756-33.084c1.673-20.796,18.185-37.299,38.972-38.98l33.092-2.756  c14.089-1.178,24.559-13.551,23.381-27.648c-0.444-5.308-2.526-10.342-5.965-14.404l-21.453-25.344  c-13.517-15.889-13.517-39.236,0.009-55.125l21.436-25.344c9.139-10.786,7.791-26.94-2.995-36.079  c-4.062-3.439-9.105-5.53-14.413-5.973l-33.092-2.756c-20.796-1.681-37.299-18.185-38.972-38.98l-2.756-33.084  c-1.178-14.097-13.551-24.567-27.648-23.39c-5.308,0.444-10.342,2.526-14.413,5.973l-25.335,21.453  c-15.889,13.517-39.245,13.517-55.134,0l-25.327-21.444c-10.795-9.131-26.948-7.782-36.079,3.012  c-3.439,4.07-5.53,9.105-5.965,14.413l-2.756,33.084c-1.673,20.796-18.185,37.299-38.972,38.98l-33.092,2.756  c-14.089,1.178-24.559,13.551-23.381,27.648c0.444,5.308,2.526,10.342,5.965,14.404l21.453,25.344  c13.517,15.889,13.517,39.236-0.009,55.125l-21.453,25.335c-9.139,10.786-7.791,26.94,2.995,36.079  c4.062,3.439,9.105,5.53,14.413,5.973l33.092,2.756c20.796,1.681,37.299,18.185,38.972,38.98l2.756,33.084  c1.178,14.097,13.551,24.567,27.648,23.39c5.308-0.444,10.342-2.526,14.413-5.973l25.335-21.453  C236.126,415.206,245.897,411.614,256,411.605z"/>
<path style="fill:#AD1457;" d="M428.288,278.016c-10.812-12.689-10.812-31.343,0-44.032l0.853-1.024l20.565-24.32  c12.186-14.379,10.402-35.908-3.977-48.094c-5.427-4.599-12.151-7.381-19.234-7.97l-33.109-2.816  c-16.614-1.34-29.807-14.532-31.147-31.147l-2.816-33.109c-1.562-18.782-18.048-32.742-36.83-31.181  c-7.083,0.589-13.807,3.379-19.234,7.97l-21.845,18.517l-2.475,2.048l-1.024,0.853c-12.689,10.812-31.343,10.812-44.032,0  L208.64,62.293c-14.379-12.177-35.917-10.385-48.094,3.994c-3.004,3.55-5.257,7.68-6.605,12.134  c-0.725,2.304-1.186,4.676-1.365,7.083l-2.816,33.109c-1.135,13.901-10.641,25.711-23.979,29.781  c-2.33,0.717-4.736,1.178-7.168,1.365l-33.109,2.816c-18.816,1.647-32.734,18.236-31.087,37.052  c0.614,6.997,3.362,13.636,7.876,19.012l21.419,25.344c10.812,12.689,10.812,31.343,0,44.032l-20.565,24.32l-0.853,1.024  c-12.186,14.379-10.402,35.908,3.977,48.094c5.427,4.599,12.151,7.381,19.234,7.97l33.109,2.816  c16.614,1.34,29.807,14.532,31.147,31.147l2.816,33.109c1.562,18.782,18.048,32.742,36.83,31.181  c7.083-0.589,13.807-3.379,19.234-7.97l1.024-0.853l24.32-20.565c12.689-10.812,31.343-10.812,44.032,0l25.344,21.419  c14.464,12.143,36.036,10.266,48.188-4.198c4.514-5.376,7.262-12.015,7.876-19.012l2.816-33.109  c0.188-2.432,0.649-4.838,1.365-7.168c4.07-13.346,15.881-22.844,29.781-23.979l33.109-2.816c2.406-0.179,4.779-0.64,7.083-1.365  c18.031-5.478,28.211-24.533,22.733-42.564c-1.348-4.454-3.601-8.585-6.605-12.134L428.288,278.016z M297.728,320.341  c-12.382,8.166-26.897,12.493-41.728,12.459c-42.385-0.06-76.74-34.415-76.8-76.8c-0.034-14.831,4.292-29.346,12.459-41.728  c22.997-35.584,70.485-45.781,106.069-22.784s45.781,70.485,22.784,106.069C314.615,306.679,306.85,314.445,297.728,320.341z"/>
<path style="fill:#E91E63;" d="M405.675,300.629c-10.812-12.689-10.812-31.343,0-44.032l21.419-25.344  c12.186-14.379,10.402-35.908-3.977-48.094c-5.427-4.599-12.151-7.381-19.234-7.97l-33.109-2.816  c-16.614-1.34-29.807-14.532-31.147-31.147l-2.816-33.109c-1.579-18.79-18.091-32.742-36.881-31.155  c-5.973,0.503-11.699,2.569-16.623,5.982c-0.853,0.597-1.707,1.28-2.56,1.963l-1.024,0.853l-24.32,20.565  c-12.689,10.812-31.343,10.812-44.032,0l-25.344-21.419c-8.823-7.629-20.992-10.086-32.085-6.485  c-0.725,2.304-1.186,4.676-1.365,7.083l-2.816,33.109c-1.135,13.901-10.641,25.711-23.979,29.781  c-2.33,0.717-4.736,1.178-7.168,1.365l-33.109,2.816c-18.816,1.647-32.734,18.236-31.087,37.052  c0.614,6.997,3.362,13.636,7.876,19.012l21.419,25.344c10.812,12.689,10.812,31.343,0,44.032l-20.565,24.32l-0.853,1.024  c-12.186,14.379-10.402,35.908,3.977,48.094c5.427,4.599,12.151,7.381,19.234,7.97l33.109,2.816  c16.614,1.34,29.807,14.532,31.147,31.147l2.816,33.109c1.562,18.782,18.048,32.742,36.83,31.181  c7.083-0.589,13.807-3.379,19.234-7.97l1.024-0.853l24.32-20.565c12.689-10.812,31.343-10.812,44.032,0l25.344,21.419  c14.464,12.143,36.036,10.266,48.188-4.198c4.514-5.376,7.262-12.015,7.876-19.012l2.816-33.109  c0.188-2.432,0.649-4.838,1.365-7.168c4.07-13.346,15.881-22.844,29.781-23.979l33.109-2.816c2.406-0.179,4.779-0.64,7.083-1.365  c3.601-11.093,1.143-23.262-6.485-32.085L405.675,300.629z M297.728,320.341c-12.382,8.166-26.897,12.493-41.728,12.459  c-42.385-0.06-76.74-34.415-76.8-76.8c-0.034-14.831,4.292-29.346,12.459-41.728c22.997-35.584,70.485-45.781,106.069-22.784  s45.781,70.485,22.784,106.069C314.615,306.679,306.85,314.445,297.728,320.341z"/>
<path d="M325.393,466.338c-10.086-0.009-19.84-3.593-27.537-10.112l-25.353-21.427c-9.591-7.859-23.39-7.859-32.99-0.017  l-25.37,21.436c-17.98,15.223-44.894,12.988-60.117-4.992c-5.743-6.775-9.216-15.181-9.958-24.03l-2.816-33.092  c-0.981-12.467-10.871-22.374-23.339-23.364l-33.143-2.816c-23.475-1.963-40.917-22.596-38.955-46.071  c0.742-8.841,4.215-17.229,9.95-23.996l21.436-25.353c8.107-9.506,8.115-23.484,0.017-32.998l-21.444-25.361  c-15.223-17.98-12.988-44.902,4.992-60.126c6.775-5.734,15.181-9.216,24.03-9.958l33.101-2.816  c12.467-0.973,22.374-10.871,23.356-23.339l2.825-33.135c1.963-23.475,22.588-40.917,46.063-38.955  c8.841,0.742,17.229,4.215,24.004,9.95l25.353,21.427c9.591,7.859,23.39,7.859,32.99,0.017l25.37-21.436  c17.98-15.223,44.894-12.988,60.117,4.992c5.743,6.775,9.216,15.181,9.958,24.03l2.816,33.092  c0.981,12.467,10.871,22.374,23.339,23.364l33.143,2.816c23.475,1.963,40.917,22.596,38.955,46.071  c-0.742,8.841-4.215,17.229-9.95,23.996l-21.436,25.353c-8.107,9.506-8.115,23.484-0.017,32.998l0.017,0.017l21.427,25.344  c15.223,17.98,12.988,44.902-4.992,60.126c-6.775,5.734-15.181,9.216-24.03,9.958l-33.101,2.816  c-12.467,0.973-22.374,10.871-23.356,23.339l-2.825,33.135C366.063,449.331,347.58,466.33,325.393,466.338L325.393,466.338z   M256,411.648c10.095,0.009,19.857,3.601,27.554,10.138l25.318,21.402c10.786,9.139,26.94,7.808,36.079-2.978  c3.447-4.07,5.538-9.114,5.982-14.421l2.816-33.126c1.647-20.779,18.159-37.282,38.938-38.929l33.092-2.816  c14.089-1.161,24.559-13.517,23.398-27.605c-0.435-5.325-2.534-10.385-5.99-14.455l-21.419-25.327  c-13.491-15.881-13.491-39.202,0.017-55.074l21.41-25.327c9.139-10.778,7.808-26.931-2.97-36.07  c-4.07-3.447-9.114-5.547-14.43-5.982l-33.135-2.816c-20.779-1.655-37.282-18.167-38.929-38.946l-2.807-33.084  c-1.161-14.089-13.517-24.567-27.605-23.407c-5.325,0.435-10.385,2.534-14.464,5.99l-25.336,21.41  c-16.043,13.056-39.04,13.047-55.074-0.017l-25.318-21.402c-10.786-9.139-26.931-7.808-36.07,2.97  c-3.447,4.07-5.538,9.114-5.982,14.43l-2.816,33.126c-1.647,20.779-18.159,37.282-38.938,38.929l-33.092,2.816  c-14.089,1.161-24.559,13.517-23.398,27.605c0.435,5.325,2.534,10.385,5.99,14.455l21.419,25.335  c13.491,15.881,13.491,39.194-0.017,55.066l-21.41,25.327c-9.139,10.778-7.808,26.931,2.97,36.07  c4.07,3.447,9.114,5.547,14.43,5.982l33.135,2.816c20.779,1.655,37.282,18.167,38.929,38.946l2.807,33.084  c1.161,14.089,13.525,24.567,27.614,23.407c5.325-0.444,10.377-2.534,14.455-5.99l25.335-21.41  C236.16,415.241,245.914,411.648,256,411.648z M256,341.333c-47.13,0-85.333-38.204-85.333-85.333S208.87,170.667,256,170.667  S341.333,208.87,341.333,256C341.282,303.104,303.104,341.282,256,341.333z M256,187.733c-37.7,0-68.267,30.566-68.267,68.267  S218.3,324.267,256,324.267S324.267,293.7,324.267,256C324.224,218.317,293.683,187.776,256,187.733z"/>
<path d="M145.067,264.533c-4.71,0-8.533-3.814-8.533-8.525c0,0,0,0,0-0.009c-0.068-31.693,12.544-62.097,35.029-84.437  c3.354-3.311,8.755-3.277,12.066,0.077c3.277,3.319,3.277,8.67,0,11.989C164.361,202.769,153.54,228.83,153.6,256  C153.6,260.71,149.786,264.533,145.067,264.533L145.067,264.533z"/>
<path d="M256,375.467c-4.71,0-8.533-3.823-8.533-8.533S251.29,358.4,256,358.4c56.525-0.077,102.323-45.875,102.4-102.4  c0-4.71,3.823-8.533,8.533-8.533s8.533,3.823,8.533,8.533C375.39,321.946,321.946,375.39,256,375.467z"/>
<g>
</g>
<g>
</g>
<g>
</g>
<g>
</g>
<g>
</g>
<g>
</g>
<g>
</g>
<g>
</g>
<g>
</g>
<g>
</g>
<g>
</g>
<g>
</g>
<g>
</g>
<g>
</g>
<g>
</g>
</svg>
