<?xml version="1.0" encoding="iso-8859-1"?>
<!-- Generator: Adobe Illustrator 19.0.0, SVG Export Plug-In . SVG Version: 6.00 Build 0)  -->
<svg xmlns="http://www.w3.org/2000/svg" xmlns:xlink="http://www.w3.org/1999/xlink" version="1.1" id="Capa_1" x="0px" y="0px" viewBox="0 0 512 512" style="enable-background:new 0 0 512 512;" xml:space="preserve">
<path style="fill:#FFEB3A;" d="M294.4,162.133V409.6l29.44-51.541c4.429-7.782,14.319-10.496,22.101-6.067  c5.069,2.884,8.192,8.26,8.192,14.089v35.84c0,8.951,7.245,16.213,16.196,16.213c0.009,0,0.009,0,0.017,0h1.707  c8.951,0,16.213-7.245,16.213-16.196c0-0.009,0-0.009,0-0.017V289.28c0-8.951,7.245-16.213,16.196-16.213c0.009,0,0.009,0,0.017,0  h26.453V162.133H294.4z M354.133,294.4c0,7.066-5.734,12.8-12.8,12.8s-12.8-5.734-12.8-12.8v-42.667c0-7.066,5.734-12.8,12.8-12.8  s12.8,5.734,12.8,12.8V294.4z"/>
<path style="fill:#FF9801;" d="M430.933,273.067v230.4H294.4V409.6l29.44-51.541c4.429-7.782,14.319-10.496,22.101-6.067  c5.069,2.884,8.192,8.26,8.192,14.089v35.84c0,8.951,7.245,16.213,16.196,16.213c0.009,0,0.009,0,0.017,0h1.707  c8.951,0,16.213-7.245,16.213-16.196c0-0.009,0-0.009,0-0.017V289.28c0-8.951,7.245-16.213,16.196-16.213c0.009,0,0.009,0,0.017,0  H430.933z"/>
<rect x="405.333" y="162.133" style="fill:#FDD834;" width="25.6" height="110.933"/>
<rect x="405.333" y="273.067" style="fill:#F57C00;" width="25.6" height="230.4"/>
<path style="fill:#FFEB3A;" d="M81.066,162.133V358.4H89.6c9.412,0.026,17.041,7.654,17.067,17.067v17.067  c0.026,9.412,7.654,17.041,17.067,17.067h8.533c9.412-0.026,17.041-7.654,17.067-17.067V384c0.026-9.412,7.654-17.041,17.067-17.067  c9.395,0.068,16.998,7.671,17.067,17.067v42.667c0.026,9.412,7.654,17.041,17.067,17.067c9.395-0.068,16.998-7.671,17.067-17.067  v-59.733c0.026-9.412,7.654-17.041,17.067-17.067c9.395,0.068,16.998,7.671,17.067,17.067v25.6  c0.026,9.412,7.654,17.041,17.067,17.067h25.6V162.133H81.066z M232.96,314.027c-24.977,24.977-65.476,24.977-90.453,0  s-24.977-65.476,0-90.453s65.476-24.977,90.453,0c24.977,24.943,25.003,65.408,0.06,90.394  C233.002,313.984,232.977,314.01,232.96,314.027z"/>
<g>
	<path style="fill:#FF9801;" d="M294.4,409.6v93.867h-76.8v-8.533c-0.068-9.395-7.671-16.998-17.067-17.067   c-9.412,0.026-17.041,7.654-17.067,17.067v8.533h-102.4V358.4H89.6c9.412,0.026,17.041,7.654,17.067,17.067v17.067   c0.026,9.412,7.654,17.041,17.067,17.067h8.533c9.412-0.026,17.041-7.654,17.067-17.067V384   c0.026-9.412,7.654-17.041,17.067-17.067c9.395,0.068,16.998,7.671,17.067,17.067v42.667c0.026,9.412,7.654,17.041,17.067,17.067   c9.395-0.068,16.998-7.671,17.067-17.067v-59.733c0.026-9.412,7.654-17.041,17.067-17.067c9.395,0.068,16.998,7.671,17.067,17.067   v25.6c0.026,9.412,7.654,17.041,17.067,17.067H294.4z"/>
	<polygon style="fill:#FF9801;" points="366.336,49.067 362.666,51.2 362.666,162.133 294.4,162.133 358.997,49.067 362.666,42.667     "/>
	<polygon style="fill:#FF9801;" points="430.933,162.133 362.666,162.133 362.666,51.2 366.336,49.067  "/>
</g>
<g>
	<path style="fill:#FDD834;" d="M362.666,25.6v17.067H149.333V25.6c0.026-9.412,7.654-17.041,17.067-17.067h179.2   C355.012,8.559,362.641,16.188,362.666,25.6z"/>
	<path style="fill:#FDD834;" d="M149.333,42.667L81.066,162.133H294.4l64.597-113.067l3.669-6.4H149.333z M237.653,119.467   c-10.854,12.535-29.781,13.978-42.411,3.243c-10.735-12.629-9.293-31.556,3.243-42.411c10.854-12.535,29.781-13.978,42.411-3.243   C251.631,89.685,250.188,108.612,237.653,119.467z"/>
</g>
<path style="fill:#C52828;" d="M237.653,119.467c-10.854,12.535-29.781,13.978-42.411,3.243  c-10.735-12.629-9.293-31.556,3.243-42.411c10.854-12.535,29.781-13.978,42.411-3.243  C251.631,89.685,250.188,108.612,237.653,119.467z"/>
<circle style="fill:#F57C00;" cx="187.733" cy="268.8" r="63.957"/>
<path style="fill:#FDD834;" d="M217.6,494.933v8.533h-34.133v-8.533c0.026-9.412,7.654-17.041,17.067-17.067  C209.928,477.935,217.531,485.538,217.6,494.933z"/>
<path style="fill:#F57C00;" d="M354.133,251.733V294.4c0,7.066-5.734,12.8-12.8,12.8s-12.8-5.734-12.8-12.8v-42.667  c0-7.066,5.734-12.8,12.8-12.8S354.133,244.668,354.133,251.733z"/>
<path d="M200.593,452.267c-14.148-0.034-25.617-11.511-25.66-25.574V384c-0.034-4.642-3.891-8.499-8.593-8.533  c-4.617,0.009-8.457,3.849-8.474,8.559v8.508c-0.043,14.089-11.52,25.566-25.583,25.6h-8.55c-14.08-0.034-25.557-11.511-25.6-25.574  v-17.092c-0.009-4.685-3.857-8.525-8.55-8.533h-8.516c-4.71,0-8.533-3.814-8.533-8.533V162.133c0-4.71,3.823-8.533,8.533-8.533  H294.4c4.719,0,8.533,3.823,8.533,8.533V409.6c0,4.719-3.814,8.533-8.533,8.533h-25.6c-14.08-0.034-25.557-11.511-25.6-25.574  v-25.626c-0.034-4.642-3.891-8.499-8.593-8.533c-4.617,0.009-8.457,3.849-8.474,8.559v59.708  C226.031,440.713,214.57,452.164,200.593,452.267z M166.374,358.4c14.063,0.102,25.523,11.554,25.617,25.54v42.726  c0.009,4.685,3.857,8.525,8.55,8.533c4.625-0.034,8.482-3.891,8.516-8.593v-59.674c0.043-14.089,11.52-25.566,25.583-25.6  c14.063,0.102,25.523,11.554,25.617,25.54v25.66c0.009,4.685,3.857,8.525,8.559,8.533h17.05v-230.4H89.6v179.2  c14.08,0.034,25.557,11.511,25.6,25.574v17.092c0.009,4.685,3.857,8.525,8.55,8.533h8.516c4.676-0.009,8.525-3.849,8.533-8.559V384  C140.842,369.911,152.311,358.434,166.374,358.4z M187.733,341.299c-19.371,0-37.572-7.552-51.26-21.239  s-21.231-31.889-21.231-51.26c0-19.362,7.543-37.564,21.231-51.26s31.898-21.231,51.26-21.231s37.564,7.543,51.26,21.231  c28.262,28.22,28.297,74.18,0.068,102.451c-0.077,0.085-0.162,0.162-0.239,0.23C225.152,333.815,207.018,341.299,187.733,341.299z   M187.733,213.376c-14.805,0-28.723,5.76-39.194,16.23c-10.47,10.47-16.23,24.388-16.23,39.194c0,14.805,5.76,28.723,16.23,39.194  c10.47,10.479,24.388,16.239,39.194,16.239s28.723-5.769,39.194-16.239c0.111-0.111,0.222-0.213,0.333-0.316  c21.308-21.359,21.274-56.491-0.333-78.063C216.456,219.136,202.538,213.376,187.733,213.376z"/>
<path d="M294.4,512h-76.8c-4.71,0-8.533-3.814-8.533-8.525c0,0,0,0,0-0.009v-8.533c0.017-2.227-0.862-4.361-2.449-5.922  c-1.579-1.673-3.78-2.62-6.084-2.611c-4.71,0.009-8.525,3.823-8.533,8.533v8.533c0,4.71-3.814,8.533-8.525,8.533c0,0,0,0-0.009,0  h-102.4c-4.71,0-8.533-3.814-8.533-8.525c0,0,0,0,0-0.009V358.4c0-4.71,3.814-8.533,8.525-8.533c0,0,0,0,0.009,0H89.6  c14.131,0.017,25.583,11.469,25.6,25.6v17.067c0.009,4.71,3.823,8.525,8.533,8.533h8.533c4.71-0.009,8.525-3.823,8.533-8.533V384  c0.017-14.131,11.469-25.583,25.6-25.6c14.114,0.06,25.54,11.486,25.6,25.6v42.667c0.009,4.71,3.823,8.525,8.533,8.533  c2.227,0.017,4.369-0.87,5.922-2.458c1.673-1.579,2.611-3.78,2.611-6.076v-59.733c0.017-14.131,11.469-25.583,25.6-25.6  c14.114,0.06,25.54,11.486,25.6,25.6v25.6c0.009,4.71,3.823,8.525,8.533,8.533h25.6c4.71,0,8.533,3.814,8.533,8.525c0,0,0,0,0,0.009  v93.867C302.933,508.177,299.11,512,294.4,512L294.4,512z M226.133,494.933h59.733v-76.8H268.8  c-14.131-0.017-25.583-11.469-25.6-25.6v-25.6c0.017-2.227-0.862-4.361-2.449-5.922c-1.579-1.673-3.78-2.62-6.084-2.611  c-4.71,0.009-8.525,3.823-8.533,8.533v59.733c-0.068,14.106-11.494,25.532-25.6,25.6c-14.131-0.017-25.583-11.469-25.6-25.6V384  c0.017-2.227-0.862-4.361-2.449-5.922c-1.579-1.673-3.78-2.62-6.084-2.611c-4.71,0.009-8.525,3.823-8.533,8.533v8.533  c-0.017,14.131-11.469,25.583-25.6,25.6h-8.533c-14.131-0.017-25.583-11.469-25.6-25.6v-17.067c-0.009-4.71-3.823-8.525-8.533-8.533  v128h85.333c0.017-14.131,11.469-25.583,25.6-25.6C214.647,469.393,226.073,480.819,226.133,494.933z"/>
<path d="M372.044,426.667h-1.698c-13.653,0-24.747-11.102-24.747-24.747v-35.84c0-2.756-1.485-5.316-3.866-6.664  c-1.792-1.024-3.849-1.28-5.845-0.742c-1.971,0.538-3.618,1.818-4.634,3.601l-29.449,51.558c-1.92,3.362-5.828,5.009-9.6,4.019  c-3.738-0.99-6.34-4.386-6.34-8.252V162.133c0-4.71,3.814-8.533,8.533-8.533h136.533c4.719,0,8.533,3.823,8.533,8.533v110.933  c0,4.719-3.814,8.533-8.533,8.533H404.48c-4.233,0-7.68,3.447-7.68,7.68v112.64C396.8,415.565,385.698,426.667,372.044,426.667z   M337.954,341.325c4.233,0,8.422,1.101,12.211,3.251c7.706,4.378,12.501,12.621,12.501,21.513v35.831c0,4.233,3.439,7.68,7.663,7.68  h1.715c4.233,0,7.68-3.439,7.68-7.663V289.28c0-13.653,11.093-24.747,24.73-24.747H422.4v-93.867H302.933v206.788l13.5-23.637  c3.26-5.734,8.567-9.856,14.942-11.605C333.551,341.615,335.761,341.325,337.954,341.325z M341.333,315.733  c-11.767,0-21.333-9.566-21.333-21.333v-42.667c0-11.759,9.566-21.333,21.333-21.333s21.333,9.574,21.333,21.333V294.4  C362.666,306.168,353.1,315.733,341.333,315.733z M341.333,247.467c-2.347,0-4.267,1.911-4.267,4.267V294.4  c0,2.347,1.92,4.267,4.267,4.267s4.267-1.92,4.267-4.267v-42.667C345.6,249.378,343.68,247.467,341.333,247.467z"/>
<path d="M430.933,512H294.4c-4.71,0-8.533-3.814-8.533-8.525c0,0,0,0,0-0.009V409.6c0-1.485,0.384-2.944,1.126-4.233l29.44-51.541  c6.767-11.87,21.871-16.009,33.741-9.25c7.723,4.403,12.493,12.612,12.493,21.504v35.84c0.009,4.241,3.447,7.671,7.68,7.68h1.698  c4.241-0.009,7.68-3.439,7.68-7.68V289.28c0.017-13.662,11.085-24.73,24.747-24.747h26.453c4.71,0,8.533,3.814,8.533,8.525  c0,0,0,0,0,0.009v230.4C439.466,508.177,435.643,512,430.933,512L430.933,512z M302.933,494.933H422.4V281.6h-17.92  c-4.241,0.009-7.68,3.439-7.68,7.68v112.64c-0.017,13.662-11.085,24.73-24.747,24.747h-1.707  c-13.662-0.017-24.738-11.085-24.747-24.747v-35.84c0-4.241-3.43-7.68-7.671-7.68c-2.773,0-5.333,1.493-6.699,3.917l-28.297,49.553  V494.933z"/>
<path d="M362.666,170.667H294.4c-4.71,0-8.533-3.814-8.533-8.525c0-1.485,0.384-2.953,1.126-4.241l68.267-119.475  c2.705-4.087,8.218-5.214,12.314-2.509c0.998,0.657,1.852,1.51,2.509,2.509l3.669,6.4c2.202,3.84,1.092,8.73-2.543,11.247v106.061  C371.2,166.844,367.377,170.667,362.666,170.667L362.666,170.667z M309.094,153.6h45.039V74.786L309.094,153.6z"/>
<path d="M430.933,170.667h-68.267c-4.71,0-8.533-3.814-8.533-8.525c0,0,0,0,0-0.009V51.2c0-3.038,1.613-5.845,4.241-7.373  l3.669-2.133c4.07-2.372,9.293-0.99,11.665,3.072c0.009,0.026,0.026,0.043,0.034,0.068l64.597,113.067  c2.338,4.087,0.922,9.301-3.166,11.639C433.886,170.283,432.418,170.667,430.933,170.667z M371.2,153.6h45.03L371.2,74.786V153.6z"/>
<path d="M362.666,51.2H149.333c-4.71,0-8.533-3.814-8.533-8.525c0,0,0,0,0-0.009V25.6c0.017-14.131,11.469-25.583,25.6-25.6h179.2  c14.131,0.017,25.583,11.469,25.6,25.6v17.067C371.2,47.377,367.377,51.2,362.666,51.2L362.666,51.2z M157.866,34.133h196.267V25.6  c-0.009-4.71-3.823-8.525-8.533-8.533H166.4c-4.71,0.009-8.525,3.823-8.533,8.533V34.133z"/>
<path d="M294.4,170.667H81.066c-3.038,0-5.854-1.621-7.381-4.25c-1.527-2.628-1.536-5.871-0.026-8.516l68.267-119.467  c1.51-2.662,4.343-4.301,7.407-4.301h213.333c3.038,0,5.862,1.621,7.381,4.258c1.519,2.637,1.536,5.879,0.026,8.525l-68.267,119.458  C300.288,169.028,297.455,170.667,294.4,170.667z M95.769,153.6H289.45l58.496-102.4H154.282L95.769,153.6z M214.767,138.394  c-8.883,0-17.801-3.021-25.054-9.182c-0.35-0.299-0.674-0.623-0.973-0.973c-13.585-15.983-11.887-40.055,3.695-53.982  c13.926-15.582,38.007-17.271,53.982-3.703c0.358,0.299,0.683,0.623,0.973,0.981c13.577,15.974,11.887,40.055-3.695,53.982  C236.091,134.025,225.459,138.394,214.767,138.394z M201.301,116.642c9.02,7.194,22.289,6.016,29.901-2.765  c0.265-0.307,0.555-0.597,0.862-0.862c8.781-7.603,9.958-20.873,2.765-29.901c-9.028-7.185-22.298-6.007-29.901,2.773  c-0.265,0.307-0.555,0.597-0.87,0.862C195.285,94.353,194.107,107.622,201.301,116.642z"/>
<path d="M213.47,138.453c-9.062,0.137-17.801-3.362-24.269-9.711c-14.046-15.974-12.595-40.277,3.243-54.477  c7.979-8.141,18.842-12.817,30.242-13.013h0.068c18.423-0.324,33.613,14.345,33.946,32.759c0.009,0.393,0.009,0.785,0,1.178  c-0.171,11.426-4.855,22.315-13.013,30.302l0,0C235.716,133.641,224.861,138.3,213.47,138.453z M222.686,78.319  c-6.869,0.179-13.397,3.063-18.167,8.013c-9.131,7.561-10.564,21.026-3.243,30.345c9.318,7.322,22.775,5.888,30.345-3.243l0,0  c4.958-4.779,7.842-11.315,8.013-18.202c0.341-9.003-6.682-16.572-15.684-16.905c-0.41-0.017-0.819-0.017-1.229,0L222.686,78.319z"/>
<path d="M187.733,341.316c-40.081,0.034-72.602-32.435-72.627-72.516c-0.034-40.081,32.435-72.602,72.516-72.627  c40.081-0.034,72.602,32.435,72.627,72.516c0.017,19.268-7.629,37.751-21.257,51.379l0,0  C225.425,333.705,206.967,341.359,187.733,341.316z M187.733,213.35c-30.626-0.017-55.458,24.798-55.475,55.415  c-0.017,30.626,24.798,55.458,55.415,55.475c14.72,0.009,28.843-5.837,39.253-16.256l0,0c21.649-21.658,21.632-56.764-0.026-78.413  C216.507,219.196,202.419,213.359,187.733,213.35z"/>
<path d="M187.733,309.333c-4.71,0-8.533-3.814-8.533-8.525c0,0,0,0,0-0.009v-64c0-4.71,3.823-8.533,8.533-8.533  s8.533,3.823,8.533,8.533v64C196.266,305.51,192.443,309.333,187.733,309.333L187.733,309.333z"/>
<path d="M210.355,299.964c-2.261,0-4.437-0.896-6.033-2.5l-45.252-45.261c-3.328-3.328-3.328-8.738,0-12.066  c3.328-3.328,8.738-3.328,12.066,0l45.252,45.261c3.328,3.337,3.328,8.738,0,12.066  C214.792,299.059,212.616,299.964,210.355,299.964L210.355,299.964z"/>
<path d="M219.733,277.333h-64c-4.71,0-8.533-3.823-8.533-8.533s3.823-8.533,8.533-8.533h64c4.71,0,8.533,3.823,8.533,8.533  S224.443,277.333,219.733,277.333z"/>
<path d="M165.103,299.964c-4.71,0-8.533-3.823-8.533-8.533c0-2.261,0.896-4.429,2.5-6.033l45.252-45.261  c3.328-3.328,8.738-3.328,12.066,0c3.328,3.328,3.328,8.738,0,12.066l-45.252,45.261  C169.54,299.068,167.372,299.964,165.103,299.964z"/>
<path d="M217.6,512h-34.133c-4.71,0-8.533-3.814-8.533-8.525c0,0,0,0,0-0.009v-8.533c0.017-14.131,11.469-25.583,25.6-25.6  c14.114,0.06,25.54,11.486,25.6,25.6v8.533C226.133,508.177,222.31,512,217.6,512L217.6,512z M192,494.933h17.067  c0.017-2.227-0.862-4.361-2.449-5.922c-1.579-1.673-3.78-2.62-6.084-2.611C195.823,486.409,192,490.223,192,494.933z"/>
<path d="M341.333,315.733c-11.776-0.009-21.325-9.557-21.333-21.333v-42.667c0-11.785,9.549-21.333,21.333-21.333  s21.333,9.549,21.333,21.333V294.4C362.649,306.176,353.109,315.725,341.333,315.733z M341.333,247.467  c-2.355,0-4.267,1.911-4.267,4.267V294.4c0,2.355,1.911,4.267,4.267,4.267c2.355,0,4.267-1.911,4.267-4.267v-42.667  C345.591,249.378,343.688,247.467,341.333,247.467z"/>
<g>
</g>
<g>
</g>
<g>
</g>
<g>
</g>
<g>
</g>
<g>
</g>
<g>
</g>
<g>
</g>
<g>
</g>
<g>
</g>
<g>
</g>
<g>
</g>
<g>
</g>
<g>
</g>
<g>
</g>
</svg>
