<?xml version="1.0" encoding="iso-8859-1"?>
<!-- Generator: Adobe Illustrator 19.0.0, SVG Export Plug-In . SVG Version: 6.00 Build 0)  -->
<svg xmlns="http://www.w3.org/2000/svg" xmlns:xlink="http://www.w3.org/1999/xlink" version="1.1" id="Capa_1" x="0px" y="0px" viewBox="0 0 512 512" style="enable-background:new 0 0 512 512;" xml:space="preserve">
<g>
	<path style="fill:#02A9F4;" d="M294.4,162.133v34.133l-38.059,42.325c-18.236,20.164-49.365,21.734-69.53,3.499   c-1.946-1.758-3.746-3.669-5.393-5.717c-16.956-21.205-47.898-24.644-69.103-7.689c-0.555,0.444-1.101,0.905-1.638,1.374   L81.066,256v-93.867H294.4z"/>
	<path style="fill:#02A9F4;" d="M256.341,289.792c-18.236,20.164-49.365,21.734-69.53,3.499c-1.946-1.758-3.746-3.669-5.393-5.717   c-16.956-21.205-47.898-24.644-69.103-7.689c-0.555,0.444-1.101,0.905-1.638,1.374L81.066,307.2v196.267H294.4v-256   L256.341,289.792z"/>
</g>
<g>
	<circle style="fill:#F57C00;" cx="149.333" cy="341.333" r="17.067"/>
	<circle style="fill:#F57C00;" cx="183.466" cy="435.2" r="25.6"/>
	<circle style="fill:#F57C00;" cx="238.933" cy="371.2" r="21.333"/>
</g>
<g>
	<path style="fill:#0377BC;" d="M396.8,162.133H294.4v34.133l30.549,22.955c4.122,3.106,8.695,5.555,13.568,7.253   c19.661,7.023,41.626,1.382,55.467-14.251l36.949-41.557v-8.533H396.8z"/>
	<path style="fill:#0377BC;" d="M393.984,263.424c-13.841,15.633-35.806,21.274-55.467,14.251   c-4.873-1.698-9.446-4.147-13.568-7.253L294.4,247.467v256h136.533v-281.6l-34.133,38.4L393.984,263.424z"/>
</g>
<g>
	<path style="fill:#02A9F4;" d="M396.8,260.267v243.2H294.4v-256l30.549,22.955c4.122,3.106,8.695,5.555,13.568,7.253   c19.661,7.023,41.626,1.382,55.467-14.251L396.8,260.267z"/>
	<path style="fill:#02A9F4;" d="M396.8,162.133v8.533l-36.949,41.557c-5.76,6.511-13.116,11.418-21.333,14.251   c-4.873-1.698-9.446-4.147-13.568-7.253L294.4,196.267v-34.133H396.8z"/>
</g>
<path d="M81.066,264.533c-4.71,0-8.533-3.823-8.533-8.533v-93.867c0-4.71,3.814-8.533,8.525-8.533c0,0,0,0,0.009,0H294.4  c4.71,0,8.533,3.814,8.533,8.525c0,0,0,0,0,0.009v34.133c0,2.108-0.785,4.139-2.193,5.7l-38.059,42.325  c-21.385,23.671-57.907,25.523-81.579,4.139c-2.295-2.074-4.42-4.326-6.349-6.741c-14.02-17.519-39.586-20.361-57.105-6.349  c-0.461,0.367-0.913,0.742-1.348,1.135l-29.602,25.933C85.137,263.782,83.131,264.533,81.066,264.533z M142.873,209.374  c1.732,0,3.482,0.077,5.231,0.23c15.701,1.34,30.165,9.088,39.97,21.436c7.697,9.66,19.388,15.275,31.744,15.232  c11.503-0.017,22.477-4.881,30.199-13.406l35.849-39.868v-22.332H89.6v66.509l15.454-13.534  C115.498,214.434,128.947,209.357,142.873,209.374z"/>
<path style="fill:#FF9801;" d="M294.4,196.267v51.2l-38.059,42.325c-18.236,20.164-49.365,21.734-69.53,3.499  c-1.946-1.758-3.746-3.669-5.393-5.717c-16.956-21.205-47.898-24.644-69.103-7.689c-0.555,0.444-1.101,0.905-1.638,1.374  L81.066,307.2V256l29.611-25.941c20.446-17.869,51.507-15.77,69.367,4.676c0.469,0.538,0.922,1.084,1.374,1.638  c17.007,21.214,47.991,24.619,69.205,7.612c2.048-1.638,3.959-3.447,5.717-5.393L294.4,196.267z"/>
<path style="fill:#F57C00;" d="M430.933,170.667v51.2l-36.949,41.557c-17.69,19.934-47.71,22.98-69.035,6.997L294.4,247.467v-51.2  l30.549,22.955c21.325,15.983,51.345,12.937,69.035-6.997L430.933,170.667z"/>
<path d="M81.066,315.733c-4.71,0-8.533-3.823-8.533-8.533V256c0-2.458,1.058-4.796,2.91-6.417l29.611-25.941  c23.987-20.975,60.433-18.526,81.399,5.461c0.555,0.631,1.092,1.28,1.621,1.937c7.697,9.66,19.388,15.275,31.744,15.232  c11.503-0.017,22.477-4.881,30.199-13.406l38.042-42.3c3.149-3.507,8.542-3.789,12.049-0.64c1.801,1.621,2.833,3.925,2.833,6.349  v51.2c0,2.108-0.785,4.139-2.193,5.7l-38.059,42.325c-21.385,23.671-57.907,25.523-81.579,4.139  c-2.295-2.074-4.42-4.326-6.349-6.741c-14.02-17.519-39.586-20.361-57.105-6.349c-0.461,0.367-0.913,0.742-1.348,1.135  l-29.602,25.933C85.137,314.982,83.131,315.733,81.066,315.733z M142.873,260.574c1.732,0,3.482,0.077,5.231,0.23  c15.701,1.34,30.165,9.088,39.97,21.436c7.697,9.66,19.388,15.275,31.744,15.232c11.503-0.017,22.477-4.881,30.199-13.406  l35.849-39.868v-25.677l-23.185,25.779c-21.385,23.671-57.907,25.523-81.579,4.139c-2.295-2.074-4.42-4.326-6.349-6.741  c-14.02-17.519-39.586-20.361-57.105-6.349c-0.461,0.367-0.913,0.742-1.348,1.135L89.6,259.874v28.51l15.454-13.534  C115.498,265.634,128.947,260.557,142.873,260.574z"/>
<path d="M294.4,512H81.066c-4.71,0-8.533-3.814-8.533-8.533V307.2c0-2.458,1.067-4.804,2.91-6.417l29.611-25.941  c0.657-0.572,1.297-1.109,1.946-1.621c12.015-9.609,27.042-13.986,42.402-12.279c15.317,1.707,29.056,9.267,38.682,21.308  c1.365,1.698,2.859,3.285,4.446,4.719c8.073,7.287,18.423,11.102,29.346,10.462c10.854-0.538,20.847-5.282,28.134-13.346  l38.042-42.308c2.364-2.637,6.093-3.533,9.404-2.261c3.302,1.246,5.478,4.42,5.478,7.953v256C302.933,508.186,299.11,512,294.4,512z   M89.6,494.933h196.267v-225.22l-23.177,25.779c0,0-0.009,0.009-0.017,0.017c-10.342,11.443-24.533,18.176-39.945,18.953  c-15.386,0.811-30.199-4.497-41.643-14.839c-2.244-2.031-4.378-4.284-6.315-6.699c-6.793-8.499-16.469-13.824-27.255-15.027  c-10.795-1.152-21.393,1.877-29.867,8.661l-1.374,1.143L89.6,311.066V494.933z M183.543,469.333h-0.077  c-18.825,0-34.133-15.309-34.133-34.133c0-18.825,15.309-34.133,34.133-34.133S217.6,416.375,217.6,435.2  c0.009,9.088-3.524,17.664-9.958,24.115S192.648,469.325,183.543,469.333z M183.466,418.133c-9.412,0-17.067,7.654-17.067,17.067  c0,9.412,7.654,17.067,17.067,17.067h0.068c4.54-0.009,8.815-1.783,12.023-5.009c3.209-3.217,4.975-7.501,4.975-12.041  C200.533,425.788,192.879,418.133,183.466,418.133z M238.933,401.067L238.933,401.067c-16.469,0-29.867-13.397-29.867-29.867  s13.397-29.867,29.867-29.867S268.8,354.731,268.8,371.2C268.791,387.661,255.394,401.058,238.933,401.067z M238.933,358.4  c-7.057,0-12.8,5.743-12.8,12.8s5.743,12.8,12.8,12.8c7.057-0.009,12.8-5.751,12.8-12.8C251.733,364.143,245.99,358.4,238.933,358.4  z M149.333,366.933c-14.08-0.034-25.557-11.511-25.6-25.574c0-0.009,0-0.017,0-0.026c0-14.114,11.486-25.6,25.6-25.6  s25.6,11.486,25.6,25.6S163.447,366.933,149.333,366.933z M140.8,341.316c0.017,4.702,3.857,8.542,8.55,8.55  c4.685,0,8.516-3.823,8.516-8.533s-3.831-8.533-8.533-8.533S140.808,336.614,140.8,341.316z"/>
<path d="M355.729,289.297c-12.954-0.017-25.549-4.241-35.891-12.041l-30.566-22.963c-2.142-1.613-3.405-4.147-3.405-6.827v-51.2  c0-4.71,3.814-8.533,8.525-8.533c1.852,0,3.652,0.597,5.129,1.715l30.549,22.955c17.749,13.423,42.846,10.871,57.532-5.845  l36.949-41.557c3.132-3.524,8.525-3.831,12.049-0.7c1.826,1.613,2.867,3.934,2.867,6.366v51.2c0,2.091-0.768,4.113-2.159,5.675  l-36.949,41.557C389.068,281.916,372.812,289.271,355.729,289.297z M302.933,243.2l27.145,20.395  c17.749,13.423,42.846,10.871,57.532-5.845l34.79-39.125v-25.515l-22.042,24.789c-20.557,23.39-55.689,26.948-80.521,8.158  l-16.905-12.706V243.2z"/>
<path d="M430.933,512H294.4c-4.71,0-8.533-3.814-8.533-8.525c0,0,0,0,0-0.009v-256c0-4.71,3.814-8.533,8.525-8.533  c1.852,0,3.652,0.597,5.129,1.715l30.549,22.955c17.749,13.423,42.846,10.871,57.532-5.845l36.949-41.557  c3.132-3.524,8.525-3.831,12.049-0.7c1.826,1.613,2.867,3.934,2.867,6.366v281.6C439.466,508.177,435.652,512,430.933,512  L430.933,512z M302.933,494.933H422.4V244.309l-22.042,24.789c-20.557,23.398-55.689,26.957-80.521,8.158l-16.905-12.706V494.933z"/>
<g>
	<polygon style="fill:#0377BC;" points="366.336,49.067 362.666,51.2 362.666,162.133 294.4,162.133 358.997,49.067 362.666,42.667     "/>
	<polygon style="fill:#0377BC;" points="430.933,162.133 362.666,162.133 362.666,51.2 366.336,49.067  "/>
</g>
<g>
	<polygon style="fill:#02A9F4;" points="149.333,42.667 81.066,162.133 294.4,162.133 358.997,49.067 362.666,42.667  "/>
	<path style="fill:#02A9F4;" d="M237.653,119.467c-10.854,12.535-29.781,13.978-42.411,3.243   c-10.735-12.629-9.293-31.556,3.243-42.411c10.854-12.535,29.781-13.978,42.411-3.243   C251.631,89.685,250.188,108.612,237.653,119.467z"/>
</g>
<path d="M362.666,170.667H294.4c-4.71,0-8.533-3.814-8.533-8.525c0-1.485,0.384-2.953,1.126-4.241l68.267-119.475  c2.705-4.087,8.218-5.214,12.314-2.509c0.998,0.657,1.852,1.51,2.509,2.509l3.669,6.4c2.202,3.84,1.092,8.73-2.543,11.247v106.061  C371.2,166.844,367.385,170.667,362.666,170.667L362.666,170.667z M309.103,153.6h45.03V74.786L309.103,153.6z"/>
<path d="M430.933,170.667h-68.267c-4.71,0-8.533-3.814-8.533-8.525c0,0,0,0,0-0.009V51.2c0-3.038,1.613-5.845,4.241-7.373  l3.669-2.133c4.07-2.372,9.293-0.99,11.665,3.072c0.009,0.026,0.026,0.043,0.034,0.068l64.597,113.067  c2.338,4.087,0.922,9.301-3.166,11.639C433.885,170.283,432.418,170.667,430.933,170.667z M371.2,153.6h45.03L371.2,74.786V153.6z"/>
<path style="fill:#0377BC;" d="M362.666,25.6v17.067H149.333V25.6c0.026-9.412,7.654-17.041,17.067-17.067h179.2  C355.012,8.559,362.641,16.188,362.666,25.6z"/>
<path d="M362.666,51.2H149.333c-4.71,0-8.533-3.814-8.533-8.525c0,0,0,0,0-0.009V25.6c0.017-14.131,11.469-25.583,25.6-25.6h179.2  c14.131,0.017,25.583,11.469,25.6,25.6v17.067C371.2,47.377,367.385,51.2,362.666,51.2L362.666,51.2z M157.866,34.133h196.267V25.6  c-0.009-4.71-3.823-8.525-8.533-8.533H166.4c-4.71,0.009-8.525,3.823-8.533,8.533V34.133z"/>
<path d="M355.729,238.097c-12.954-0.017-25.549-4.241-35.891-12.041l-30.566-22.963c-2.142-1.613-3.405-4.147-3.405-6.827v-34.133  c0-4.71,3.814-8.533,8.525-8.533c0,0,0,0,0.009,0h136.533c4.71,0,8.533,3.814,8.533,8.525c0,0,0,0,0,0.009v8.533  c0,2.091-0.768,4.113-2.159,5.675l-36.949,41.557C389.068,230.716,372.812,238.071,355.729,238.097z M302.933,192l27.145,20.395  c17.749,13.423,42.846,10.871,57.532-5.845l31.906-35.883H302.933V192z"/>
<path d="M396.8,366.933h-68.267c-4.71,0-8.533-3.823-8.533-8.533s3.823-8.533,8.533-8.533H396.8c4.71,0,8.533,3.823,8.533,8.533  S401.51,366.933,396.8,366.933z"/>
<path d="M396.8,401.067h-68.267c-4.71,0-8.533-3.823-8.533-8.533s3.823-8.533,8.533-8.533H396.8c4.71,0,8.533,3.823,8.533,8.533  S401.51,401.067,396.8,401.067z"/>
<path d="M396.8,435.2h-68.267c-4.71,0-8.533-3.823-8.533-8.533s3.823-8.533,8.533-8.533H396.8c4.71,0,8.533,3.823,8.533,8.533  S401.51,435.2,396.8,435.2z"/>
<path d="M396.8,469.333h-68.267c-4.71,0-8.533-3.823-8.533-8.533s3.823-8.533,8.533-8.533H396.8c4.71,0,8.533,3.823,8.533,8.533  S401.51,469.333,396.8,469.333z"/>
<path id="SVGCleanerId_0" d="M213.478,138.453c-9.062,0.137-17.801-3.362-24.269-9.711c-14.046-15.974-12.595-40.277,3.243-54.477  c7.979-8.141,18.842-12.817,30.242-13.013h0.068c18.423-0.324,33.613,14.345,33.946,32.759c0.009,0.393,0.009,0.785,0,1.178  c-0.171,11.426-4.855,22.315-13.013,30.302l0,0C235.716,133.641,224.861,138.3,213.478,138.453z M222.685,78.319  c-6.869,0.179-13.397,3.063-18.167,8.013c-9.131,7.561-10.564,21.026-3.243,30.345c9.318,7.322,22.775,5.888,30.345-3.243l0,0  c4.958-4.779,7.842-11.315,8.013-18.202c0.341-9.003-6.682-16.572-15.684-16.905c-0.41-0.017-0.819-0.017-1.229,0L222.685,78.319z"/>
<path d="M294.4,170.667H81.066c-4.71,0-8.533-3.814-8.533-8.525c0-1.485,0.384-2.953,1.126-4.241l68.267-119.467  c1.519-2.662,4.343-4.301,7.407-4.301h213.333c4.71,0,8.533,3.823,8.533,8.542c0,1.485-0.393,2.944-1.126,4.241l-68.267,119.458  C300.288,169.028,297.463,170.667,294.4,170.667z M95.778,153.6H289.45l58.496-102.4H154.282L95.778,153.6z"/>
<path style="fill:#FF9801;" d="M237.653,119.467c-10.854,12.535-29.781,13.978-42.411,3.243  c-10.735-12.629-9.293-31.556,3.243-42.411c10.854-12.535,29.781-13.978,42.411-3.243  C251.631,89.685,250.188,108.612,237.653,119.467z"/>
<g>
	<path id="SVGCleanerId_0_1_" d="M213.478,138.453c-9.062,0.137-17.801-3.362-24.269-9.711   c-14.046-15.974-12.595-40.277,3.243-54.477c7.979-8.141,18.842-12.817,30.242-13.013h0.068   c18.423-0.324,33.613,14.345,33.946,32.759c0.009,0.393,0.009,0.785,0,1.178c-0.171,11.426-4.855,22.315-13.013,30.302l0,0   C235.716,133.641,224.861,138.3,213.478,138.453z M222.685,78.319c-6.869,0.179-13.397,3.063-18.167,8.013   c-9.131,7.561-10.564,21.026-3.243,30.345c9.318,7.322,22.775,5.888,30.345-3.243l0,0c4.958-4.779,7.842-11.315,8.013-18.202   c0.341-9.003-6.682-16.572-15.684-16.905c-0.41-0.017-0.819-0.017-1.229,0L222.685,78.319z"/>
</g>
<path d="M149.333,366.933c-14.14,0-25.6-11.46-25.6-25.6s11.46-25.6,25.6-25.6c14.14,0,25.6,11.46,25.6,25.6  C174.916,355.465,163.464,366.916,149.333,366.933z M149.333,332.8c-4.71,0-8.533,3.823-8.533,8.533s3.823,8.533,8.533,8.533  s8.533-3.823,8.533-8.533C157.858,336.623,154.043,332.809,149.333,332.8z"/>
<path d="M183.466,469.333c-18.85,0-34.133-15.283-34.133-34.133s15.283-34.133,34.133-34.133S217.6,416.35,217.6,435.2  C217.583,454.042,202.308,469.316,183.466,469.333z M183.466,418.133c-9.429,0-17.067,7.637-17.067,17.067  c0,9.429,7.637,17.067,17.067,17.067c9.429,0,17.067-7.637,17.067-17.067C200.524,425.779,192.887,418.142,183.466,418.133z"/>
<path d="M238.933,401.067c-16.495,0-29.867-13.372-29.867-29.867c0-16.495,13.372-29.867,29.867-29.867S268.8,354.705,268.8,371.2  C268.783,387.686,255.419,401.05,238.933,401.067z M238.933,358.4c-7.066,0-12.8,5.734-12.8,12.8c0,7.066,5.726,12.8,12.8,12.8  s12.8-5.734,12.8-12.8C251.724,364.134,245.999,358.409,238.933,358.4z"/>
<g>
</g>
<g>
</g>
<g>
</g>
<g>
</g>
<g>
</g>
<g>
</g>
<g>
</g>
<g>
</g>
<g>
</g>
<g>
</g>
<g>
</g>
<g>
</g>
<g>
</g>
<g>
</g>
<g>
</g>
</svg>
