<?xml version="1.0" encoding="iso-8859-1"?>
<!-- Generator: Adobe Illustrator 19.0.0, SVG Export Plug-In . SVG Version: 6.00 Build 0)  -->
<svg xmlns="http://www.w3.org/2000/svg" xmlns:xlink="http://www.w3.org/1999/xlink" version="1.1" id="Capa_1" x="0px" y="0px" viewBox="0 0 511.998 511.998" style="enable-background:new 0 0 511.998 511.998;" xml:space="preserve">
<path style="fill:#D84315;" d="M502.773,69.565c0.043,15.856-6.255,31.063-17.494,42.242l-374.12,374.12  c-2.176,2.202-4.548,4.199-7.083,5.974c-26.608,19.448-63.935,13.645-83.383-12.963c-17.358-23.749-14.823-56.613,5.982-77.41  l7.254-7.339L400.795,27.322c23.331-23.331,61.153-23.331,84.476-0.009C496.484,38.519,502.773,53.717,502.773,69.565z"/>
<path style="fill:#FF5722;" d="M477.172,94.056c0.043,15.856-6.255,31.063-17.494,42.242L104.076,491.9  c-26.608,19.448-63.935,13.645-83.383-12.963c-17.358-23.749-14.823-56.613,5.982-77.41l7.254-7.339L382.277,45.841  c26.617-19.448,63.952-13.637,83.4,12.98C473.153,69.044,477.181,81.392,477.172,94.056z"/>
<path d="M68.917,511.997c-37.702-0.026-68.253-30.611-68.236-68.313c0.009-18.075,7.185-35.407,19.952-48.19l7.22-7.305  L394.762,21.289c26.659-26.659,69.883-26.668,96.551-0.009c12.809,12.801,20.003,30.167,20.003,48.275  c0.085,18.134-7.134,35.543-20.02,48.301L117.193,491.96C104.435,504.837,87.043,512.049,68.917,511.997z M443.037,18.388  c-13.577-0.026-26.608,5.368-36.209,14.968L32.742,407.527c-20.012,19.96-20.063,52.363-0.102,72.375  c19.96,20.012,52.363,20.063,72.375,0.102c0.034-0.034,0.068-0.068,0.102-0.102l374.137-374.129  c19.995-19.978,20.012-52.38,0.034-72.375C469.68,23.772,456.631,18.379,443.037,18.388z"/>
<path d="M57.678,465.173c-4.344-0.009-7.988-3.277-8.465-7.595L48.061,447.2c-1.434-9.925,5.453-19.124,15.378-20.558  c1.715-0.247,3.465-0.247,5.18,0l10.377,1.161c0.503,0.111,1.033,0.026,1.476-0.239c0.265-0.435,0.35-0.964,0.239-1.468  l-1.152-10.377c-1.425-9.933,5.47-19.133,15.395-20.566c1.715-0.247,3.448-0.247,5.163,0l10.377,1.161  c0.503,0.111,1.033,0.017,1.468-0.239c0.273-0.444,0.358-0.964,0.239-1.468l-1.152-10.377c-1.425-9.925,5.462-19.124,15.386-20.558  c1.715-0.247,3.465-0.247,5.18,0l10.369,1.144c0.503,0.119,1.033,0.034,1.468-0.23c0.273-0.444,0.358-0.973,0.239-1.476  l-1.152-10.377c-1.434-9.925,5.453-19.124,15.378-20.558c1.715-0.247,3.465-0.247,5.18,0l10.377,1.152  c0.503,0.128,1.033,0.043,1.476-0.23c0.273-0.444,0.358-0.973,0.239-1.476l-1.152-10.377c-1.434-9.925,5.453-19.124,15.378-20.558  c1.715-0.247,3.465-0.247,5.18,0l10.377,1.161c0.503,0.102,1.033,0.017,1.476-0.239c0.265-0.435,0.35-0.964,0.239-1.468  l-1.152-10.377c-1.425-9.925,5.462-19.124,15.386-20.558c1.715-0.247,3.465-0.247,5.18,0l10.369,1.144  c0.503,0.128,1.033,0.043,1.468-0.239c0.273-0.444,0.358-0.964,0.239-1.468l-1.152-10.377c-1.425-9.925,5.462-19.133,15.386-20.558  c1.715-0.247,3.456-0.247,5.171,0l10.377,1.152c0.503,0.119,1.033,0.034,1.468-0.23c0.273-0.444,0.358-0.973,0.239-1.476  l-1.152-10.377c-1.434-9.925,5.453-19.124,15.378-20.558c1.715-0.247,3.465-0.247,5.18,0l10.377,1.161  c0.503,0.111,1.033,0.026,1.476-0.239c0.265-0.435,0.35-0.964,0.239-1.468l-1.152-10.377c-1.425-9.933,5.47-19.133,15.395-20.566  c1.715-0.247,3.448-0.247,5.163,0l10.377,1.161c0.503,0.111,1.033,0.017,1.468-0.239c0.273-0.444,0.358-0.964,0.239-1.468  l-1.152-10.377c-1.425-9.925,5.462-19.124,15.386-20.558c1.715-0.247,3.465-0.247,5.18,0l10.369,1.144  c0.503,0.119,1.033,0.034,1.468-0.23c0.273-0.444,0.358-0.973,0.239-1.476l-1.152-10.377c-1.434-9.925,5.453-19.124,15.378-20.558  c1.715-0.247,3.465-0.247,5.18,0l10.377,1.161c0.503,0.111,1.033,0.026,1.476-0.239c0.273-0.444,0.358-0.973,0.239-1.476  l-1.152-10.377c-1.434-9.925,5.453-19.133,15.378-20.558c1.715-0.247,3.465-0.247,5.18,0l10.377,1.161  c0.503,0.111,1.033,0.026,1.476-0.239c0.265-0.444,0.35-0.973,0.23-1.468l-1.161-10.369c-1.425-9.925,5.462-19.133,15.386-20.558  c1.715-0.247,3.456-0.247,5.171,0l10.377,1.144c4.685,0.521,8.064,4.736,7.544,9.421c-0.452,4.625-4.566,8.013-9.191,7.569  c-0.077-0.009-0.154-0.017-0.23-0.026l-10.394-1.186c-0.503-0.137-1.041-0.051-1.476,0.23c-0.265,0.444-0.35,0.973-0.23,1.476  l1.161,10.369c1.434,9.925-5.462,19.133-15.386,20.566c-1.715,0.247-3.456,0.247-5.171,0l-10.377-1.161  c-0.862-0.077-1.306,0.077-1.476,0.239c-0.265,0.435-0.35,0.964-0.23,1.459l1.152,10.386c1.425,9.933-5.47,19.133-15.395,20.566  c-1.715,0.247-3.456,0.247-5.163,0l-10.377-1.161c-0.632-0.316-1.4-0.06-1.707,0.572c-0.179,0.358-0.179,0.777,0,1.135l1.152,10.377  c1.434,9.925-5.453,19.124-15.369,20.558c-1.724,0.247-3.465,0.247-5.189,0l-10.368-1.144c-0.503-0.119-1.033-0.043-1.476,0.23  c-0.273,0.444-0.358,0.964-0.239,1.468l1.152,10.377c1.425,9.925-5.462,19.133-15.386,20.558c-1.715,0.247-3.456,0.247-5.171,0  l-10.377-1.161c-0.632-0.316-1.4-0.051-1.715,0.58c-0.179,0.358-0.179,0.785,0,1.144l1.152,10.369  c1.425,9.925-5.462,19.133-15.386,20.558c-1.715,0.247-3.456,0.247-5.171,0l-10.377-1.161c-0.632-0.316-1.4-0.06-1.707,0.572  c-0.179,0.358-0.179,0.777,0,1.135l1.152,10.377c1.434,9.925-5.453,19.124-15.369,20.558c-1.724,0.247-3.465,0.247-5.189,0  l-10.369-1.144c-0.503-0.128-1.041-0.043-1.476,0.239c-0.273,0.444-0.358,0.964-0.239,1.468l1.152,10.377  c1.434,9.925-5.453,19.124-15.378,20.558c-1.715,0.247-3.465,0.247-5.18,0l-10.377-1.152c-0.503-0.128-1.033-0.043-1.476,0.23  c-0.273,0.444-0.358,0.964-0.239,1.468l1.152,10.377c1.425,9.925-5.462,19.133-15.386,20.558c-1.715,0.247-3.456,0.247-5.171,0  l-10.377-1.161c-0.632-0.316-1.4-0.06-1.707,0.572c-0.179,0.358-0.179,0.777,0,1.135l1.152,10.377  c1.434,9.925-5.453,19.124-15.369,20.558c-1.724,0.247-3.473,0.247-5.189,0l-10.369-1.144c-0.503-0.119-1.033-0.034-1.468,0.239  c-0.273,0.444-0.358,0.964-0.239,1.468l1.152,10.377c1.434,9.925-5.453,19.124-15.369,20.558c-1.724,0.247-3.465,0.247-5.189,0  l-10.403-1.109c-0.503-0.137-1.041-0.051-1.476,0.23c-0.273,0.444-0.358,0.964-0.239,1.468l1.152,10.377  c1.425,9.925-5.462,19.133-15.386,20.558c-1.715,0.247-3.456,0.247-5.171,0l-10.377-1.161c-0.503-0.111-1.033-0.026-1.468,0.239  c-0.273,0.444-0.358,0.973-0.239,1.476l1.152,10.369c1.425,9.925-5.462,19.133-15.386,20.558c-1.715,0.247-3.456,0.247-5.171,0  l-10.369-1.135c-0.632-0.316-1.4-0.06-1.707,0.572c-0.179,0.358-0.179,0.777,0,1.135l1.144,10.386  c0.521,4.685-2.85,8.901-7.527,9.421h-0.009C58.318,465.155,57.994,465.173,57.678,465.173z"/>
<g>
	<path style="fill:#FFB301;" d="M400.71,27.408L33.929,394.189c-21.65-22.811-24.867-57.483-7.766-83.887   c2.569-4.096,5.607-7.877,9.046-11.265l270.349-270.35C331.68,2.515,373.897,1.952,400.71,27.408z"/>
	<path style="fill:#FFB301;" d="M480.5,203.63l-270.35,270.35c-24.372,24.407-63.15,26.753-90.287,5.462   c-0.444-0.282-0.87-0.597-1.28-0.939l366.44-366.44C507.322,139.2,505.368,178.831,480.5,203.63z"/>
</g>
<g>
	<path style="fill:#FEC108;" d="M367.599,60.519l-333.67,333.67c-21.65-22.811-24.867-57.483-7.766-83.887L273.642,62.823   C299.303,37.051,340.709,36.035,367.599,60.519z"/>
	<path style="fill:#FEC108;" d="M457.886,226.244L210.151,473.979c-24.372,24.407-63.15,26.753-90.287,5.462l333.243-333.243   C471.847,169.043,473.776,201.334,457.886,226.244z"/>
</g>
<path d="M33.929,402.723h-0.111c-2.304-0.034-4.497-0.99-6.076-2.663c-28.844-30.09-28.204-77.76,1.434-107.056l270.35-270.35  c29.305-29.638,76.966-30.278,107.056-1.434c3.422,3.243,3.559,8.645,0.316,12.067c-0.051,0.051-0.102,0.111-0.154,0.162  L39.962,400.231C38.366,401.826,36.199,402.723,33.929,402.723z M353.8,17.107c-15.856,0.017-31.046,6.358-42.208,17.614  l-270.35,270.35c-20.643,20.404-23.485,52.756-6.708,76.445L388.037,28.014C378.035,20.922,366.071,17.107,353.8,17.107z"/>
<path d="M161.85,502.661c-17.784-0.009-35.005-6.221-48.694-17.58c-3.635-2.995-4.156-8.372-1.161-12.007  c0.179-0.213,0.358-0.418,0.555-0.614l366.44-366.44c1.715-1.673,4.045-2.569,6.443-2.492c2.398,0.119,4.642,1.246,6.178,3.098  c25.251,30.474,23.05,75.182-5.078,103.028l-270.35,270.35C201.805,494.495,182.254,502.644,161.85,502.661z M131.785,477.367  c23.425,13.765,53.208,9.891,72.332-9.421l270.35-270.349l0,0c19.312-19.116,23.195-48.898,9.421-72.332L131.785,477.367z"/>
<path d="M182.194,458.738c-4.711,0-8.534-3.815-8.534-8.534c0-2.27,0.896-4.438,2.5-6.042l6.042-6.033  c3.32-3.354,8.721-3.379,12.075-0.06c3.354,3.32,3.379,8.721,0.06,12.075c-0.026,0.026-0.043,0.043-0.068,0.068l-6.042,6.033  C186.632,457.842,184.464,458.738,182.194,458.738z"/>
<path d="M206.336,434.596c-4.711,0-8.534-3.823-8.534-8.534c0-2.261,0.896-4.429,2.5-6.033l18.1-18.1  c3.328-3.328,8.739-3.328,12.067,0s3.328,8.739,0,12.067l-18.1,18.1C210.774,433.7,208.598,434.596,206.336,434.596z"/>
<path d="M302.879,96.676c-4.711,0-8.534-3.823-8.534-8.534c0-2.261,0.896-4.429,2.5-6.033l6.042-6.042  c3.328-3.328,8.739-3.328,12.067,0c3.328,3.328,3.328,8.739,0,12.067l0,0l-6.042,6.042C307.316,95.78,305.149,96.685,302.879,96.676  z"/>
<path d="M327.021,72.543c-4.711,0-8.534-3.823-8.534-8.534c0-2.261,0.896-4.429,2.5-6.033l18.109-18.109  c3.328-3.328,8.739-3.328,12.067,0c3.328,3.328,3.328,8.739,0,12.067l0,0l-18.109,18.109  C331.458,71.647,329.282,72.543,327.021,72.543z"/>
<g>
</g>
<g>
</g>
<g>
</g>
<g>
</g>
<g>
</g>
<g>
</g>
<g>
</g>
<g>
</g>
<g>
</g>
<g>
</g>
<g>
</g>
<g>
</g>
<g>
</g>
<g>
</g>
<g>
</g>
</svg>
