<?xml version="1.0" encoding="iso-8859-1"?>
<!-- Generator: Adobe Illustrator 19.0.0, SVG Export Plug-In . SVG Version: 6.00 Build 0)  -->
<svg xmlns="http://www.w3.org/2000/svg" xmlns:xlink="http://www.w3.org/1999/xlink" version="1.1" id="Capa_1" x="0px" y="0px" viewBox="0 0 512.008 512.008" style="enable-background:new 0 0 512.008 512.008;" xml:space="preserve">
<g>
	<polygon style="fill:#283593;" points="256.01,179.207 256.01,213.341 145.077,247.474 143.882,250.887 85.343,230.408  "/>
	<polygon style="fill:#283593;" points="426.677,230.408 368.138,250.887 366.943,247.474 256.01,213.341 256.01,179.207  "/>
</g>
<path d="M143.882,259.429c-0.956,0-1.911-0.162-2.816-0.486l-58.539-20.48c-4.446-1.553-6.793-6.426-5.239-10.871  c0.905-2.577,2.987-4.565,5.606-5.35l170.667-51.2c4.514-1.357,9.267,1.212,10.624,5.726c0.239,0.785,0.358,1.613,0.358,2.441  v34.133c0,3.746-2.441,7.057-6.025,8.158l-106.846,32.879C150.299,257.45,147.244,259.421,143.882,259.429z M112.966,231.03  l27.153,9.498c0.742-0.529,1.57-0.939,2.449-1.212l104.909-32.282v-16.358L112.966,231.03z"/>
<path d="M368.138,259.429c-3.362,0-6.417-1.98-7.791-5.052l-106.846-32.879c-3.584-1.101-6.025-4.412-6.025-8.158v-34.133  c0-4.71,3.823-8.533,8.533-8.533c0.828,0,1.655,0.119,2.449,0.358l170.667,51.2c4.514,1.357,7.074,6.11,5.717,10.624  c-0.785,2.62-2.773,4.702-5.35,5.606l-58.539,20.48C370.049,259.259,369.102,259.421,368.138,259.429z M264.543,207.035  l104.909,32.282c0.879,0.265,1.707,0.674,2.449,1.212l27.153-9.498l-134.511-40.354V207.035z"/>
<polygon style="fill:#009688;" points="256.01,290.141 128.351,335.197 110.943,341.341 34.143,307.207 85.343,230.408   143.882,250.887 "/>
<polygon style="fill:#00695C;" points="477.877,307.207 401.077,341.341 383.669,335.197 366.602,329.138 256.01,290.141   368.138,250.887 396.725,240.904 426.677,230.408 "/>
<path style="fill:#009688;" d="M425.96,302.779l-59.358,26.359L256.01,290.141l112.128-39.253l28.587-9.984l32.87,49.348  c2.611,3.925,1.553,9.216-2.372,11.836C426.822,302.352,426.403,302.582,425.96,302.779z"/>
<path d="M110.943,349.874c-1.195,0-2.372-0.247-3.465-0.734l-76.8-34.133c-4.309-1.911-6.246-6.955-4.335-11.264  c0.196-0.444,0.427-0.862,0.7-1.271l51.2-76.8c2.159-3.243,6.238-4.608,9.916-3.319l170.667,59.733  c4.446,1.562,6.793,6.426,5.231,10.871c-0.853,2.441-2.773,4.361-5.214,5.222l-145.067,51.2  C112.872,349.712,111.916,349.874,110.943,349.874z M46.858,303.521l64.452,28.638l118.972-41.984L88.774,240.648L46.858,303.521z"/>
<polygon style="fill:#607D8B;" points="368.138,250.887 256.01,290.141 143.882,250.887 145.077,247.474 256.01,213.341   366.943,247.474 "/>
<path d="M256.01,298.674c-0.964,0-1.911-0.162-2.825-0.478l-112.128-39.253c-4.446-1.562-6.784-6.426-5.231-10.871l1.195-3.413  c0.896-2.56,2.953-4.54,5.547-5.333l110.933-34.133c1.63-0.512,3.379-0.512,5.018,0l110.933,34.133  c2.594,0.794,4.651,2.773,5.547,5.333l1.195,3.413c1.553,4.446-0.785,9.318-5.231,10.871l-112.128,39.253  C257.921,298.512,256.974,298.674,256.01,298.674z M166.572,249.795l89.438,31.309l89.438-31.309l-89.438-27.52L166.572,249.795z"/>
<path d="M401.077,349.874c-0.964,0-1.929-0.162-2.842-0.486l-145.067-51.2c-4.446-1.57-6.775-6.443-5.205-10.889  c0.862-2.441,2.782-4.361,5.222-5.214l170.667-59.733c3.678-1.289,7.757,0.077,9.916,3.319l51.2,76.8  c2.611,3.917,1.553,9.216-2.364,11.827c-0.401,0.265-0.828,0.503-1.271,0.7l-76.8,34.133  C403.449,349.627,402.271,349.874,401.077,349.874z M281.746,290.175l118.972,41.984l64.452-28.638l-41.924-62.874L281.746,290.175z  "/>
<polygon style="fill:#00838F;" points="357.386,325.895 256.01,290.141 256.01,476.68 256.01,503.474 366.943,460.808   383.669,335.197 "/>
<path style="fill:#00BCD4;" d="M357.386,325.895l-14.362,107.802c-0.828,6.187-4.966,11.435-10.795,13.679l-76.22,29.303V290.141  L357.386,325.895z"/>
<polygon style="fill:#00838F;" points="154.293,325.895 255.669,290.141 255.669,476.68 255.669,503.474 144.735,460.808   128.01,335.197 "/>
<path style="fill:#00BCD4;" d="M128.01,325.895l18.091,107.802c1.587,6.758,6.844,12.049,13.594,13.679l95.974,29.303V290.141  L128.01,325.895z"/>
<path d="M256.01,512.008c-1.698,0-3.388-0.512-4.83-1.502c-2.321-1.587-3.703-4.224-3.703-7.031V290.141  c0-2.765,1.348-5.367,3.601-6.963c2.253-1.596,5.163-1.997,7.774-1.084L386.51,327.15c3.806,1.348,6.153,5.171,5.615,9.173  L375.4,461.934c-0.41,3.098-2.483,5.717-5.393,6.844l-110.933,42.667C258.083,511.82,257.042,512.008,256.01,512.008z   M264.543,302.198V491.05l94.609-36.395L374.29,340.94L264.543,302.198z M315.743,435.208c-19.14,0-34.133-22.494-34.133-51.2  s14.993-51.2,34.133-51.2s34.133,22.494,34.133,51.2S334.883,435.208,315.743,435.208z M315.743,349.874  c-8.055,0-17.067,14.601-17.067,34.133s9.011,34.133,17.067,34.133c8.055,0,17.067-14.601,17.067-34.133  S323.799,349.874,315.743,349.874z"/>
<path d="M256.01,512.008c-1.033,0-2.074-0.179-3.063-0.563l-110.933-42.667c-2.918-1.126-4.983-3.738-5.393-6.844l-16.725-125.611  c-0.538-4.002,1.809-7.825,5.615-9.173l127.659-45.056c2.62-0.913,5.504-0.521,7.774,1.084c2.253,1.596,3.601,4.198,3.601,6.963  v213.333c0,2.807-1.382,5.444-3.703,7.031C259.398,511.496,257.708,512.008,256.01,512.008z M152.867,454.655l94.609,36.395V302.198  L137.729,340.94L152.867,454.655z M196.277,435.208c-19.14,0-34.133-22.494-34.133-51.2s14.993-51.2,34.133-51.2  s34.133,22.494,34.133,51.2S215.417,435.208,196.277,435.208z M196.277,349.874c-8.055,0-17.067,14.601-17.067,34.133  s9.011,34.133,17.067,34.133c8.055,0,17.067-14.601,17.067-34.133S204.332,349.874,196.277,349.874z"/>
<path d="M256.001,264.541c-4.71-0.009-8.533-3.831-8.525-8.542c0-1.792,0.572-3.541,1.621-5.001l179.2-247.467  c2.765-3.814,8.098-4.676,11.913-1.911s4.676,8.098,1.911,11.913L262.922,261C261.318,263.235,258.741,264.549,256.001,264.541z"/>
<path d="M298.677,247.474c-4.71,0-8.533-3.823-8.533-8.533c0-2.261,0.896-4.429,2.5-6.033L454.777,70.774  c3.362-3.302,8.764-3.251,12.066,0.111c3.26,3.319,3.26,8.636,0,11.955L304.71,244.974  C303.114,246.578,300.938,247.474,298.677,247.474z"/>
<g>
	<ellipse style="fill:#FDD834;" cx="196.277" cy="384.008" rx="25.6" ry="42.667"/>
	<ellipse style="fill:#FDD834;" cx="315.743" cy="384.008" rx="25.6" ry="42.667"/>
</g>
<path d="M196.277,435.208c-19.14,0-34.133-22.494-34.133-51.2s14.993-51.2,34.133-51.2s34.133,22.494,34.133,51.2  S215.417,435.208,196.277,435.208z M196.277,349.874c-8.055,0-17.067,14.592-17.067,34.133s9.011,34.133,17.067,34.133  c8.055,0,17.067-14.592,17.067-34.133S204.332,349.874,196.277,349.874z"/>
<path d="M315.743,435.208c-19.14,0-34.133-22.494-34.133-51.2s14.993-51.2,34.133-51.2s34.133,22.494,34.133,51.2  S334.883,435.208,315.743,435.208z M315.743,349.874c-8.055,0-17.067,14.592-17.067,34.133s9.011,34.133,17.067,34.133  c8.055,0,17.067-14.592,17.067-34.133S323.799,349.874,315.743,349.874z"/>
<g>
</g>
<g>
</g>
<g>
</g>
<g>
</g>
<g>
</g>
<g>
</g>
<g>
</g>
<g>
</g>
<g>
</g>
<g>
</g>
<g>
</g>
<g>
</g>
<g>
</g>
<g>
</g>
<g>
</g>
</svg>
