<?xml version="1.0" encoding="iso-8859-1"?>
<!-- Generator: Adobe Illustrator 19.0.0, SVG Export Plug-In . SVG Version: 6.00 Build 0)  -->
<svg xmlns="http://www.w3.org/2000/svg" xmlns:xlink="http://www.w3.org/1999/xlink" version="1.1" id="Capa_1" x="0px" y="0px" viewBox="0 0 512 512" style="enable-background:new 0 0 512 512;" xml:space="preserve">
<path style="fill:#FFB301;" d="M494.933,290.133l-51.2-28.501c-15.411-8.542-34.492-6.741-48.043,4.523l-0.512,0.427l-6.827,5.717  c-10.863,9.114-25.583,12.151-39.168,8.107c-2.492-0.614-4.898-1.536-7.168-2.731l-9.216-4.608l-1.792-0.427  c-1.365,6.229-3.541,12.254-6.485,17.92c-13.039,25.882-39.543,42.223-68.523,42.24c-1.536,0-2.987-0.085-4.437-0.085  c-40.585-2.475-72.26-36.053-72.363-76.715c0-2.825,0.171-5.649,0.512-8.448l-0.512-0.085c-14.575-0.017-26.82,10.94-28.416,25.429  l-2.389,21.248c-0.154,1.527-0.435,3.046-0.853,4.523c-1.604,6.554-5.146,12.467-10.155,16.981  c-6.229,5.547-14.276,8.619-22.613,8.619c-4.898,0.009-9.737-1.067-14.165-3.157c-6.997-3.174-12.689-8.661-16.128-15.531  l-12.971-26.027C64.282,265.114,49.51,255.991,33.365,256H8.533c0,3.84,0.085,7.595,0.341,11.349  C14.891,399.462,123.75,503.475,256,503.467c10.761,0.026,21.513-0.683,32.171-2.133c110.14-14.413,197.163-100.463,212.821-210.432  L494.933,290.133z"/>
<path style="fill:#FEC108;" d="M461.312,299.435c-13.551,95.241-81.084,173.986-173.141,201.899  c-10.658,1.451-21.41,2.159-32.171,2.133C123.75,503.475,14.891,399.462,8.875,267.349C8.619,263.595,8.533,259.84,8.533,256h24.832  c16.145-0.009,30.916,9.114,38.144,23.552l12.971,26.027c3.439,6.869,9.131,12.356,16.128,15.531  c4.429,2.091,9.267,3.166,14.165,3.157c8.337,0,16.384-3.072,22.613-8.619c5.009-4.514,8.55-10.428,10.155-16.981  c0.418-1.476,0.7-2.995,0.853-4.523l2.389-21.248c1.596-14.49,13.841-25.446,28.416-25.429l0.512,0.085  c-0.341,2.799-0.512,5.623-0.512,8.448c0.102,40.661,31.778,74.24,72.363,76.715c1.451,0,2.901,0.085,4.437,0.085  c28.979-0.026,55.484-16.358,68.523-42.24c2.944-5.666,5.12-11.691,6.485-17.92l1.792,0.427l9.216,4.608  c2.27,1.195,4.676,2.116,7.168,2.731c13.585,4.045,28.305,1.007,39.168-8.107l6.827-5.717c3.098,0.819,6.076,2.022,8.875,3.584  l51.2,28.501L461.312,299.435z"/>
<path d="M256,512C114.679,511.838,0.162,397.321,0,256c0-4.71,3.823-8.533,8.533-8.533h24.832  c19.371,0.06,37.06,10.991,45.781,28.288l12.971,26.018c6.229,12.51,21.41,17.596,33.92,11.366  c7.714-3.84,12.945-11.349,13.875-19.925l2.389-21.282c2.082-18.79,17.98-33.015,36.898-32.998c0.461,0,0.922,0.034,1.374,0.111  c4.625,0.717,7.936,4.864,7.612,9.532c-0.299,2.466-0.452,4.941-0.452,7.424c0.009,37.709,30.592,68.275,68.301,68.267  c32-0.009,59.708-22.238,66.645-53.487c1.033-4.599,5.598-7.501,10.197-6.468c0.034,0.009,0.068,0.017,0.102,0.026l1.792,0.427  c0.64,0.154,1.254,0.375,1.843,0.674l9.216,4.608c12.1,6.093,26.658,4.403,37.043-4.284l7.33-6.144  c16.29-13.44,39.125-15.599,57.643-5.453l49.783,27.716l4.42,0.555c4.676,0.589,7.987,4.864,7.398,9.54  c-0.009,0.043-0.009,0.077-0.017,0.119C491.119,418.065,383.3,511.616,256,512z M17.22,264.533  c4.71,131.883,115.447,234.965,247.33,230.246c112.538-4.028,206.985-86.076,226.705-196.949c-0.162-0.077-0.316-0.162-0.469-0.247  l-51.2-28.501c-12.339-6.767-27.554-5.333-38.417,3.618l-7.33,6.135c-15.599,13.065-37.47,15.607-55.646,6.46l-1.715-0.862  c-15.71,44.433-64.469,67.729-108.902,52.019c-33.442-11.827-56.09-43.102-56.875-78.566c-6.323,2.97-10.658,9.011-11.426,15.957  l-2.389,21.257c-2.586,23.27-23.543,40.03-46.814,37.444c-14.259-1.587-26.752-10.274-33.195-23.1l-12.996-26.086  c-5.82-11.52-17.613-18.79-30.515-18.825H17.22z"/>
<path style="fill:#AD1457;" d="M256,8.533c-5.717,0-11.435,0.171-17.067,0.683C109.184,18.082,8.482,125.952,8.533,256h24.832  c16.145-0.009,30.916,9.114,38.144,23.552l12.971,26.027c2.961,5.845,7.552,10.709,13.227,13.995  c5.154,3.098,11.059,4.719,17.067,4.693c17.271,0.051,31.778-12.954,33.621-30.123l2.389-21.248  c1.596-14.49,13.841-25.446,28.416-25.429l0.512,0.085c3.584-32.521,27.401-59.179,59.307-66.389  c5.564-1.306,11.264-1.963,16.981-1.963c42.487,0.068,76.868,34.577,76.8,77.065c-0.009,5.504-0.614,10.999-1.792,16.375  l1.792,0.427l9.216,4.608c0.649,0.358,1.34,0.64,2.048,0.853c14.746,6.537,31.923,4.122,44.288-6.229l7.339-6.144  c3.072-2.611,6.528-4.736,10.24-6.315c12.194-5.316,26.163-4.651,37.803,1.792l24.832,13.824l26.368,14.677l6.059,0.768  c19.277-135.305-74.778-260.617-210.074-279.893C279.347,9.361,267.682,8.533,256,8.533z"/>
<path style="fill:#E91E63;" d="M469.333,256c0,6.571-0.256,13.056-0.768,19.456l-24.832-13.824  c-11.639-6.443-25.609-7.108-37.803-1.792c-3.712,1.579-7.168,3.703-10.24,6.315l-7.339,6.144  c-12.365,10.351-29.542,12.766-44.288,6.229c-0.708-0.213-1.399-0.495-2.048-0.853l-9.216-4.608l-1.792-0.427  c9.114-41.498-17.135-82.526-58.633-91.648c-5.376-1.178-10.871-1.783-16.375-1.792c-5.717,0-11.418,0.657-16.981,1.963  c-31.906,7.211-55.723,33.869-59.307,66.389l-0.512-0.085c-14.575-0.017-26.82,10.94-28.416,25.429l-2.389,21.248  c-1.843,17.169-16.35,30.174-33.621,30.123c-6.007,0.026-11.913-1.596-17.067-4.693c-5.675-3.285-10.266-8.149-13.227-13.995  l-12.971-26.027C64.282,265.114,49.51,255.991,33.365,256H8.533C8.482,125.952,109.184,18.082,238.933,9.216  C368.683,18.082,469.385,125.952,469.333,256z"/>
<path d="M114.773,332.8c-16.034,0.017-30.711-9.02-37.905-23.356l-12.996-26.086c-5.811-11.52-17.604-18.79-30.507-18.825H8.533  C3.823,264.533,0,260.71,0,256C0,114.611,114.611,0,256,0s256,114.611,256,256c-0.009,12.075-0.862,24.141-2.56,36.096  c-0.649,4.625-4.89,7.868-9.523,7.27l-6.059-0.768c-1.084-0.137-2.125-0.478-3.081-1.015l-51.2-28.501  c-12.339-6.767-27.554-5.333-38.417,3.618l-7.33,6.135c-15.599,13.065-37.47,15.607-55.646,6.46l-9.148-4.352  c-4.54-1.075-7.373-5.598-6.357-10.155c8.175-36.804-15.044-73.259-51.84-81.434c-36.796-8.175-73.259,15.044-81.434,51.84  c-0.529,2.398-0.939,4.83-1.203,7.27c-0.256,2.33-1.451,4.446-3.319,5.871c-1.801,1.357-4.053,1.954-6.289,1.664  c-9.984,0.299-18.227,7.902-19.328,17.835l-2.389,21.257C154.556,316.587,136.388,332.851,114.773,332.8z M17.22,247.467h16.145  c19.371,0.06,37.06,10.991,45.781,28.288l12.971,26.018c6.229,12.51,21.41,17.596,33.92,11.366  c7.714-3.84,12.945-11.349,13.875-19.925l2.389-21.282c1.801-16.205,13.969-29.338,29.986-32.367  c9.062-46.242,53.897-76.382,100.13-67.319c40.047,7.859,68.924,42.957,68.915,83.755c0,3.823-0.247,7.637-0.742,11.418l5.248,2.62  c12.1,6.093,26.658,4.403,37.043-4.284l7.33-6.144c16.29-13.44,39.125-15.599,57.643-5.453l45.892,25.549  c0.794-7.91,1.186-15.846,1.186-23.706C494.933,124.041,387.96,17.067,256,17.067C127.36,17.067,21.811,118.912,17.22,247.467z"/>
<path d="M221.867,64c-2.261,0-4.437-0.896-6.033-2.5l-12.8-12.8c-3.302-3.362-3.251-8.764,0.111-12.066  c3.319-3.26,8.636-3.26,11.955,0l12.8,12.8c3.328,3.337,3.328,8.738,0,12.066C226.295,63.104,224.128,64,221.867,64z"/>
<path d="M294.4,68.267c-2.261,0-4.437-0.896-6.033-2.5l-12.8-12.8c-3.302-3.362-3.251-8.764,0.111-12.066  c3.319-3.26,8.636-3.26,11.955,0l12.8,12.8c3.328,3.337,3.328,8.738,0,12.066C298.829,67.371,296.661,68.267,294.4,68.267z"/>
<path d="M337.067,89.6c-4.71,0-8.533-3.823-8.533-8.533c0-2.261,0.896-4.429,2.5-6.033l12.8-12.8  c3.362-3.302,8.764-3.251,12.066,0.111c3.26,3.319,3.26,8.636,0,11.955l-12.8,12.8C341.504,88.704,339.328,89.6,337.067,89.6z"/>
<path d="M349.867,153.6c-2.261,0-4.437-0.896-6.033-2.5l-12.8-12.8c-3.302-3.362-3.251-8.764,0.111-12.066  c3.319-3.26,8.636-3.26,11.955,0l12.8,12.8c3.328,3.337,3.328,8.738,0,12.066C354.296,152.704,352.128,153.6,349.867,153.6z"/>
<path d="M375.467,128c-4.71,0-8.533-3.823-8.533-8.533c0-2.261,0.896-4.429,2.5-6.033l12.8-12.8  c3.362-3.302,8.764-3.251,12.066,0.111c3.26,3.319,3.26,8.636,0,11.955l-12.8,12.8C379.904,127.104,377.728,128,375.467,128z"/>
<path d="M439.467,153.6c-2.261,0-4.437-0.896-6.033-2.5l-12.8-12.8c-3.302-3.362-3.251-8.764,0.111-12.066  c3.319-3.26,8.636-3.26,11.955,0l12.8,12.8c3.328,3.337,3.328,8.738,0,12.066C443.896,152.704,441.728,153.6,439.467,153.6z"/>
<path d="M401.067,192c-2.261,0-4.437-0.896-6.033-2.5l-12.8-12.8c-3.302-3.362-3.251-8.764,0.111-12.066  c3.319-3.26,8.636-3.26,11.955,0l12.8,12.8c3.328,3.337,3.328,8.738,0,12.066C405.495,191.104,403.328,192,401.067,192z"/>
<path d="M465.067,204.8c-2.261,0-4.437-0.896-6.033-2.5l-12.8-12.8c-3.302-3.362-3.251-8.764,0.111-12.066  c3.319-3.26,8.636-3.26,11.955,0l12.8,12.8c3.328,3.337,3.328,8.738,0,12.066C469.496,203.904,467.328,204.8,465.067,204.8z"/>
<path d="M157.867,76.8c-4.71,0-8.533-3.823-8.533-8.533c0-2.261,0.896-4.429,2.5-6.033l12.8-12.8  c3.362-3.302,8.764-3.251,12.066,0.111c3.26,3.319,3.26,8.636,0,11.955l-12.8,12.8C162.304,75.904,160.128,76.8,157.867,76.8z"/>
<path d="M196.267,128c-2.261,0-4.437-0.896-6.033-2.5l-12.8-12.8c-3.302-3.362-3.251-8.764,0.111-12.066  c3.319-3.26,8.636-3.26,11.955,0l12.8,12.8c3.328,3.337,3.328,8.738,0,12.066C200.695,127.104,198.528,128,196.267,128z"/>
<path d="M136.533,115.2c-2.261,0-4.437-0.896-6.033-2.5l-12.8-12.8c-3.302-3.362-3.251-8.764,0.111-12.066  c3.319-3.26,8.636-3.26,11.955,0l12.8,12.8c3.328,3.337,3.328,8.738,0,12.066C140.962,114.304,138.795,115.2,136.533,115.2z"/>
<path d="M140.8,162.133c-2.261,0-4.437-0.896-6.033-2.5l-12.8-12.8c-3.302-3.362-3.251-8.764,0.111-12.066  c3.319-3.26,8.636-3.26,11.955,0l12.8,12.8c3.328,3.337,3.328,8.738,0,12.066C145.229,161.237,143.061,162.133,140.8,162.133z"/>
<path d="M68.267,153.6c-4.71,0-8.533-3.823-8.533-8.533c0-2.261,0.896-4.429,2.5-6.033l12.8-12.8  c3.362-3.302,8.764-3.251,12.066,0.111c3.26,3.319,3.26,8.636,0,11.955l-12.8,12.8C72.704,152.704,70.528,153.6,68.267,153.6z"/>
<path d="M81.067,217.6c-2.261,0-4.437-0.896-6.033-2.5l-12.8-12.8c-3.302-3.362-3.251-8.764,0.111-12.066  c3.319-3.26,8.636-3.26,11.955,0l12.8,12.8c3.328,3.337,3.328,8.738,0,12.066C85.495,216.704,83.328,217.6,81.067,217.6z"/>
<path d="M145.067,204.8c-4.71,0-8.533-3.823-8.533-8.533c0-2.261,0.896-4.429,2.5-6.033l12.8-12.8  c3.362-3.302,8.764-3.251,12.066,0.111c3.26,3.319,3.26,8.636,0,11.955l-12.8,12.8C149.504,203.904,147.328,204.8,145.067,204.8z"/>
<path d="M234.667,102.4c-4.71,0-8.533-3.823-8.533-8.533c0-2.261,0.896-4.429,2.5-6.033l12.8-12.8  c3.362-3.302,8.764-3.251,12.066,0.111c3.26,3.319,3.26,8.636,0,11.955l-12.8,12.8C239.104,101.504,236.928,102.4,234.667,102.4z"/>
<path d="M285.867,115.2c-4.71,0-8.533-3.823-8.533-8.533c0-2.261,0.896-4.429,2.5-6.033l12.8-12.8  c3.362-3.302,8.764-3.251,12.066,0.111c3.26,3.319,3.26,8.636,0,11.955l-12.8,12.8C290.304,114.304,288.128,115.2,285.867,115.2z"/>
<path d="M273.067,153.6c-2.261,0-4.437-0.896-6.033-2.5l-12.8-12.8c-3.302-3.362-3.251-8.764,0.111-12.066  c3.319-3.26,8.636-3.26,11.955,0l12.8,12.8c3.328,3.337,3.328,8.738,0,12.066C277.495,152.704,275.328,153.6,273.067,153.6z"/>
<g>
</g>
<g>
</g>
<g>
</g>
<g>
</g>
<g>
</g>
<g>
</g>
<g>
</g>
<g>
</g>
<g>
</g>
<g>
</g>
<g>
</g>
<g>
</g>
<g>
</g>
<g>
</g>
<g>
</g>
</svg>
