<?xml version="1.0" encoding="iso-8859-1"?>
<!-- Generator: Adobe Illustrator 19.0.0, SVG Export Plug-In . SVG Version: 6.00 Build 0)  -->
<svg xmlns="http://www.w3.org/2000/svg" xmlns:xlink="http://www.w3.org/1999/xlink" version="1.1" id="Capa_1" x="0px" y="0px" viewBox="0 0 512 512" style="enable-background:new 0 0 512 512;" xml:space="preserve">
<path style="fill:#F57C00;" d="M378.792,350.293l-5.717,43.093l-6.144-0.853h-75.435c-15.676,19.61-44.279,22.793-63.881,7.117  c-2.628-2.099-5.018-4.489-7.117-7.117h-75.435l-6.144,0.853l-5.717-43.093l3.328-0.427h83.968  c15.676-19.61,44.279-22.793,63.881-7.117c2.628,2.099,5.018,4.489,7.117,7.117h83.968L378.792,350.293z"/>
<path style="fill:#FF9801;" d="M356.52,350.293l-5.12,43.093l-5.504-0.853H278.32c-11.648,17.562-35.328,22.357-52.89,10.709  c-4.25-2.816-7.893-6.46-10.709-10.709h-67.575l-5.495,0.853l-5.12-43.093l2.978-0.427h75.213  c11.648-17.562,35.328-22.357,52.89-10.709c4.25,2.816,7.893,6.46,10.709,10.709h75.213L356.52,350.293z"/>
<g>
	<path style="fill:#D84315;" d="M298.664,371.2c-0.026,7.697-2.534,15.181-7.168,21.333c-15.676,19.61-44.279,22.793-63.881,7.117   c-2.628-2.099-5.018-4.489-7.117-7.117c-9.557-12.612-9.557-30.054,0-42.667c15.676-19.61,44.279-22.793,63.881-7.117   c2.628,2.099,5.018,4.489,7.117,7.117C296.121,356.019,298.638,363.503,298.664,371.2z"/>
	<polygon style="fill:#D84315;" points="392.531,247.467 378.792,350.293 375.464,349.867 321.789,349.867 332.797,247.467  "/>
</g>
<path style="fill:#FF5722;" d="M332.797,247.467l-11.008,102.4h-30.293c-15.676-19.61-44.279-22.793-63.881-7.117  c-2.628,2.099-5.018,4.489-7.117,7.117h-30.293l-11.008-102.4H332.797z"/>
<g>
	<polygon style="fill:#D84315;" points="190.205,349.867 136.531,349.867 133.203,350.293 119.464,247.467 179.197,247.467  "/>
	<path style="fill:#D84315;" d="M205.395,490.325c-13.141,1.852-25.958,5.555-38.059,11.008c-2.526,1.331-5.333,2.065-8.192,2.133   h-5.547l-14.677-110.08l6.144-0.853h49.664l10.069,93.867L205.395,490.325z"/>
	<path style="fill:#D84315;" d="M373.075,393.387l-14.677,110.08h-5.547c-2.859-0.068-5.666-0.802-8.192-2.133   c-11.776-5.325-24.243-8.977-37.035-10.837l9.643-97.963h49.664L373.075,393.387z"/>
</g>
<path style="fill:#FF5722;" d="M317.267,392.533l-9.643,97.963c-0.341-0.085-0.683-0.085-1.024-0.171  c-33.536-5.231-67.669-5.231-101.205,0l-0.597-3.925l-10.069-93.867h25.771c15.676,19.61,44.279,22.793,63.881,7.117  c2.628-2.099,5.018-4.489,7.117-7.117H317.267z"/>
<path style="fill:#FDD834;" d="M298.664,371.2c-0.026,7.697-2.534,15.181-7.168,21.333c-8.491,10.957-21.641,17.28-35.499,17.067  c-4.326,0.017-8.644-0.58-12.8-1.792c-9.037-2.466-17.007-7.834-22.699-15.275c-9.557-12.612-9.557-30.054,0-42.667  c5.692-7.441,13.662-12.809,22.699-15.275c4.156-1.212,8.474-1.809,12.8-1.792c13.858-0.213,27.008,6.11,35.499,17.067  C296.121,356.019,298.638,363.503,298.664,371.2z"/>
<path style="fill:#FFEB3A;" d="M273.064,371.2c-0.026,7.697-2.534,15.181-7.168,21.333c-5.692,7.441-13.662,12.809-22.699,15.275  c-9.037-2.466-17.007-7.834-22.699-15.275c-9.557-12.612-9.557-30.054,0-42.667c5.692-7.441,13.662-12.809,22.699-15.275  c9.037,2.466,17.007,7.834,22.699,15.275C270.521,356.019,273.038,363.503,273.064,371.2z"/>
<path d="M255.997,418.133c-16.555,0.196-32.239-7.398-42.342-20.506c-11.793-15.625-11.81-37.18-0.026-52.821  c18.466-23.398,52.403-27.401,75.802-8.943c3.311,2.611,6.298,5.598,8.909,8.9c11.793,15.625,11.81,37.18,0.026,52.821  C288.262,410.718,272.569,418.33,255.997,418.133z M255.997,341.333c-11.162-0.205-21.769,4.838-28.655,13.628  c-7.313,9.609-7.305,22.921,0.026,32.512c12.894,15.812,36.164,18.176,51.968,5.282c1.946-1.587,3.721-3.371,5.308-5.316  c7.313-9.609,7.305-22.921-0.026-32.512C277.74,346.155,267.142,341.12,255.997,341.333z"/>
<path d="M378.809,358.827c-0.367,0-0.725-0.026-1.092-0.068l-2.799-0.358h-53.129c-4.71,0-8.533-3.814-8.533-8.516  c0-0.307,0.017-0.614,0.051-0.922l11.008-102.4c0.469-4.343,4.122-7.629,8.482-7.629h59.733c4.71,0,8.533,3.823,8.533,8.533  c0,0.375-0.026,0.751-0.077,1.126L387.248,351.42C386.685,355.652,383.076,358.818,378.809,358.827z M331.287,341.333h40.09  L382.777,256H340.46L331.287,341.333z"/>
<path d="M321.789,358.4h-30.293c-2.697,0-5.231-1.271-6.844-3.439c-12.868-15.829-36.139-18.219-51.959-5.35  c-1.963,1.596-3.755,3.388-5.35,5.35c-1.613,2.167-4.147,3.439-6.844,3.439h-30.293c-4.361,0-8.013-3.285-8.482-7.62l-11.008-102.4  c-0.503-4.685,2.876-8.892,7.561-9.395c0.307-0.034,0.614-0.051,0.922-0.051h153.6c4.71,0,8.533,3.814,8.533,8.516  c0,0.307-0.017,0.614-0.051,0.922l-11.008,102.4C329.802,355.115,326.15,358.4,321.789,358.4z M295.524,341.333h18.594L323.291,256  H188.695l9.173,85.333h18.594c20.574-21.828,54.946-22.852,76.774-2.287C294.022,339.789,294.79,340.548,295.524,341.333  L295.524,341.333z"/>
<path d="M133.186,358.827c-4.275-0.009-7.885-3.166-8.448-7.407l-13.739-102.827c-0.623-4.668,2.654-8.96,7.33-9.591  c0.384-0.043,0.759-0.068,1.135-0.068h59.733c4.361,0,8.013,3.285,8.482,7.62l11.008,102.4c0.503,4.685-2.876,8.892-7.561,9.395  c-0.307,0.034-0.614,0.051-0.922,0.051l-55.927,0.358C133.919,358.801,133.552,358.827,133.186,358.827z M140.609,341.333h40.09  L171.526,256h-42.317L140.609,341.333z"/>
<path d="M159.144,512h-5.547c-4.275,0-7.893-3.166-8.457-7.407l-14.677-110.08c-0.623-4.651,2.637-8.934,7.287-9.583l6.144-0.853  c0.384-0.051,0.777-0.077,1.169-0.077h49.664c4.361,0,8.021,3.285,8.482,7.629l10.624,97.425c0.7,4.608-2.432,8.926-7.031,9.694  c-12.305,1.715-24.303,5.154-35.644,10.223C167.438,510.899,163.325,511.94,159.144,512z M148.554,401.067l12.476,93.594  c0.862-0.23,1.69-0.555,2.492-0.964c10.317-4.787,21.197-8.252,32.384-10.3l-8.849-82.33H148.554z"/>
<path d="M358.397,512h-5.547c-4.181-0.06-8.294-1.101-12.006-3.029c-11.034-4.949-22.699-8.329-34.662-10.061  c-4.412-0.759-7.492-4.796-7.049-9.25l9.643-97.963c0.435-4.369,4.105-7.697,8.491-7.697h49.664c0.393,0,0.785,0.026,1.178,0.085  l6.144,0.853c4.651,0.649,7.902,4.924,7.287,9.583l-14.677,110.08C366.291,508.834,362.672,512,358.397,512z M316.883,483.558  c10.914,2.048,21.53,5.453,31.599,10.138c0.794,0.41,1.63,0.725,2.492,0.964l12.467-93.594h-38.434L316.883,483.558z"/>
<path d="M307.624,499.029c-0.717,0-1.425-0.085-2.116-0.265c-0.324-0.009-0.64-0.068-0.947-0.154  c-32.41-4.804-65.357-4.762-97.758,0.137c-4.651,0.777-9.045-2.364-9.822-7.014c-0.009-0.043-0.017-0.085-0.017-0.119l-0.597-3.925  l-10.121-94.234c-0.503-4.685,2.893-8.892,7.578-9.395c0.299-0.043,0.597-0.06,0.905-0.06h25.771c2.697,0,5.231,1.271,6.844,3.439  c12.868,15.829,36.139,18.219,51.959,5.35c1.963-1.596,3.755-3.388,5.35-5.35c1.613-2.167,4.147-3.439,6.844-3.439h25.771  c4.719,0,8.533,3.831,8.533,8.542c0,0.273-0.017,0.555-0.043,0.828l-9.643,97.963C315.688,495.701,312.01,499.029,307.624,499.029  L307.624,499.029z M255.997,477.867c14.72-0.026,29.423,0.922,44.015,2.842l7.842-79.642h-12.322  c-20.574,21.828-54.946,22.852-76.774,2.287c-0.785-0.742-1.545-1.502-2.287-2.287h-12.245l8.533,79.531  C227.095,478.754,241.542,477.841,255.997,477.867z"/>
<path d="M255.997,418.133c-14.993,0.137-29.346-6.059-39.526-17.067h-70.81l-5.555,0.768c-2.253,0.333-4.54-0.265-6.34-1.655  c-1.809-1.374-2.995-3.413-3.294-5.666l-5.717-43.093c-0.623-4.676,2.662-8.969,7.339-9.583c0.017,0,0.026,0,0.043-0.009  l3.328-0.427c0.341-0.043,0.708-0.068,1.067-0.068h79.94c20.574-21.828,54.946-22.852,76.774-2.287  c0.785,0.742,1.545,1.502,2.287,2.287h79.932c0.358,0,0.717,0.026,1.075,0.068l3.328,0.427c4.676,0.597,7.979,4.873,7.381,9.549  c0,0.017,0,0.026-0.009,0.043l-5.717,43.093c-0.299,2.253-1.485,4.292-3.294,5.666c-1.801,1.391-4.087,1.988-6.34,1.655  l-5.547-0.768h-70.81C285.343,412.075,270.99,418.27,255.997,418.133z M146.284,384h74.214c2.697,0,5.231,1.271,6.844,3.439  c12.868,15.829,36.139,18.219,51.959,5.35c1.963-1.596,3.755-3.388,5.35-5.35c1.613-2.167,4.147-3.439,6.844-3.439h74.214  l3.396-25.6h-77.611c-2.697,0-5.231-1.271-6.844-3.439c-12.868-15.829-36.139-18.219-51.959-5.35  c-1.963,1.596-3.755,3.388-5.35,5.35c-1.613,2.167-4.147,3.439-6.844,3.439h-77.611L146.284,384z"/>
<g>
	<polygon style="fill:#FFB301;" points="161.107,247.467 126.376,247.467 102.056,121.941 127.997,116.907 135.592,115.456    160.765,245.504  "/>
	<polygon style="fill:#FFB301;" points="409.939,121.941 385.619,247.467 350.888,247.467 376.403,115.456 386.045,117.333  "/>
	<polygon style="fill:#FFB301;" points="247.635,205.995 247.635,206.08 239.613,247.467 220.84,247.467 196.52,121.941    221.864,117.077 230.056,115.456 242.429,179.2  "/>
</g>
<polygon style="fill:#FDD834;" points="298.664,121.941 290.131,166.059 278.099,228.437 274.344,247.467 239.613,247.467   247.635,206.08 247.635,205.995 252.755,179.2 255.997,162.645 265.128,115.456 290.131,120.32 "/>
<g>
	<polygon style="fill:#FFB301;" points="394.152,83.029 386.045,117.333 376.403,115.456 350.888,247.467 274.344,247.467    278.099,228.437 290.131,166.059 290.131,245.504 324.264,245.504 324.264,231.168 336.467,179.2 358.397,85.845 360.872,75.264     "/>
	<polygon style="fill:#FFB301;" points="324.264,85.333 324.264,245.504 290.131,245.504 290.131,166.059 298.664,121.941    290.131,120.32 290.131,85.333  "/>
	<polygon style="fill:#FFB301;" points="162.131,85.333 162.131,245.504 160.765,245.504 135.592,115.456 127.997,116.907    127.997,85.333  "/>
	<polygon style="fill:#FFB301;" points="220.84,247.467 196.264,247.467 196.264,121.941 196.52,121.941  "/>
	<polygon style="fill:#FFB301;" points="196.264,36.096 196.264,247.467 161.107,247.467 160.765,245.504 162.131,245.504    162.131,36.096  "/>
	<polygon style="fill:#FFB301;" points="358.397,19.029 358.397,85.845 336.467,179.2 324.264,231.168 324.264,19.029  "/>
	<polygon style="fill:#FFB301;" points="162.131,85.333 153.597,85.333 127.997,85.333 127.997,116.907  "/>
	<polygon style="fill:#FFB301;" points="161.107,247.467 126.376,247.467 102.056,121.941 127.997,116.907 135.592,115.456    160.765,245.504  "/>
	<polygon style="fill:#FFB301;" points="409.939,121.941 385.619,247.467 350.888,247.467 376.403,115.456 386.045,117.333  "/>
	<polygon style="fill:#FFB301;" points="247.635,205.995 247.635,206.08 239.613,247.467 220.84,247.467 196.52,121.941    221.864,117.077 230.056,115.456 242.429,179.2  "/>
	<polygon style="fill:#FFB301;" points="162.131,85.333 153.597,85.333 127.997,85.333 127.997,116.907  "/>
	<polygon style="fill:#FFB301;" points="394.152,83.029 386.045,117.333 376.403,115.456 350.888,247.467 274.344,247.467    278.099,228.437 290.131,166.059 290.131,245.504 324.264,245.504 324.264,231.168 336.467,179.2 358.397,85.845 360.872,75.264     "/>
	<polygon style="fill:#FFB301;" points="324.264,85.333 324.264,245.504 290.131,245.504 290.131,166.059 298.664,121.941    290.131,120.32 290.131,85.333  "/>
	<polygon style="fill:#FFB301;" points="196.264,36.096 196.264,247.467 161.107,247.467 160.765,245.504 162.131,245.504    162.131,36.096  "/>
	<polygon style="fill:#FFB301;" points="290.131,68.267 290.131,120.32 265.128,115.456 255.997,162.645 255.997,68.267  "/>
	<polygon style="fill:#FFB301;" points="358.397,19.029 358.397,85.845 336.467,179.2 324.264,231.168 324.264,19.029  "/>
	<polygon style="fill:#FFB301;" points="290.131,85.333 290.131,68.267 255.997,68.267  "/>
	<polygon style="fill:#FFB301;" points="221.864,113.749 221.864,61.372 221.864,8.533 255.997,8.533 255.997,61.372    255.997,162.645  "/>
	<polygon style="fill:#FFB301;" points="161.107,247.467 126.376,247.467 102.056,121.941 127.997,116.907 135.592,115.456    160.765,245.504  "/>
	<polygon style="fill:#FFB301;" points="409.939,121.941 385.619,247.467 350.888,247.467 376.403,115.456 386.045,117.333  "/>
	<polygon style="fill:#FFB301;" points="247.635,205.995 247.635,206.08 239.613,247.467 220.84,247.467 196.52,121.941    221.864,117.077 230.056,115.456 242.429,179.2  "/>
	<polygon style="fill:#FFB301;" points="394.152,83.029 386.045,117.333 376.403,115.456 350.888,247.467 274.344,247.467    278.099,228.437 290.131,166.059 290.131,245.504 324.264,245.504 324.264,231.168 336.467,179.2 358.397,85.845 360.872,75.264     "/>
	<polygon style="fill:#FFB301;" points="324.264,85.333 324.264,245.504 290.131,245.504 290.131,166.059 298.664,121.941    290.131,120.32 290.131,85.333  "/>
	<polygon style="fill:#FFB301;" points="162.131,85.333 162.131,245.504 160.765,245.504 135.592,115.456 127.997,116.907    127.997,85.333  "/>
	<polygon style="fill:#FFB301;" points="220.84,247.467 196.264,247.467 196.264,121.941 196.52,121.941  "/>
</g>
<polygon style="fill:#FDD834;" points="196.264,36.096 196.264,247.467 161.107,247.467 160.765,245.504 162.131,245.504   162.131,36.096 "/>
<g>
	<polygon style="fill:#FFB301;" points="290.131,85.333 290.131,68.267 255.997,68.267  "/>
	<polygon style="fill:#FFB301;" points="221.864,113.749 221.864,61.372 221.864,8.533 255.997,8.533 255.997,61.372    255.997,162.645  "/>
	<polygon style="fill:#FFB301;" points="358.397,19.029 358.397,85.845 336.467,179.2 324.264,231.168 324.264,19.029  "/>
	<polygon style="fill:#FFB301;" points="162.131,85.333 153.597,85.333 127.997,85.333 127.997,116.907  "/>
	<polygon style="fill:#FFB301;" points="290.131,85.333 290.131,68.267 255.997,68.267  "/>
	<polygon style="fill:#FFB301;" points="221.864,113.749 221.864,61.372 221.864,8.533 255.997,8.533 255.997,61.372    255.997,162.645  "/>
	<polygon style="fill:#FFB301;" points="161.107,247.467 126.376,247.467 102.056,121.941 127.997,116.907 135.592,115.456    160.765,245.504  "/>
</g>
<g>
	<polygon style="fill:#FDD834;" points="409.939,121.941 385.619,247.467 350.888,247.467 376.403,115.456 386.045,117.333  "/>
	<polygon style="fill:#FDD834;" points="247.635,205.995 247.635,206.08 239.613,247.467 220.84,247.467 196.52,121.941    221.864,117.077 230.056,115.456 242.429,179.2  "/>
</g>
<g>
	<polygon style="fill:#FFB301;" points="162.131,85.333 153.597,85.333 127.997,85.333 127.997,116.907  "/>
	<polygon style="fill:#FFB301;" points="394.152,83.029 386.045,117.333 376.403,115.456 350.888,247.467 274.344,247.467    278.099,228.437 290.131,166.059 290.131,245.504 324.264,245.504 324.264,231.168 336.467,179.2 358.397,85.845 360.872,75.264     "/>
	<polygon style="fill:#FFB301;" points="324.264,85.333 324.264,245.504 290.131,245.504 290.131,166.059 298.664,121.941    290.131,120.32 290.131,85.333  "/>
	<polygon style="fill:#FFB301;" points="255.997,8.533 255.997,162.645 252.755,179.2 247.635,205.995 242.429,179.2    230.056,115.456 221.864,117.077 221.864,8.533  "/>
	<polygon style="fill:#FFB301;" points="290.131,85.333 290.131,68.267 255.997,68.267  "/>
	<polygon style="fill:#FFB301;" points="221.864,113.749 221.864,61.372 221.864,8.533 255.997,8.533 255.997,61.372    255.997,162.645  "/>
	<polygon style="fill:#FFB301;" points="358.397,19.029 358.397,85.845 336.467,179.2 324.264,231.168 324.264,19.029  "/>
</g>
<path d="M161.107,256h-34.731c-4.087,0-7.603-2.893-8.38-6.912l-24.32-125.525c-0.896-4.625,2.125-9.105,6.758-10.001l33.562-6.485  c4.608-0.896,9.079,2.108,9.975,6.716c0,0.017,0.009,0.026,0.009,0.043l25.54,132.173c0.802,4.642-2.313,9.062-6.955,9.873  C162.079,255.957,161.593,256,161.107,256z M133.416,238.933h17.391L128.842,125.44l-16.777,3.26L133.416,238.933z"/>
<g>
	<path id="SVGCleanerId_0" d="M385.619,256h-34.731c-4.71,0-8.533-3.814-8.533-8.525c0-0.546,0.051-1.092,0.154-1.63l25.515-132.011   c0.896-4.625,5.376-7.654,10.01-6.758c0,0,0,0,0.009,0l33.519,6.485c4.625,0.896,7.654,5.367,6.767,9.993v0.009l-24.32,125.525   C393.222,253.107,389.706,256,385.619,256z M361.23,238.933h17.348l21.359-110.225l-16.777-3.243L361.23,238.933z"/>
</g>
<path d="M239.613,256H220.84c-4.087,0-7.603-2.901-8.38-6.912l-24.32-125.525c-0.896-4.625,2.133-9.105,6.758-10.001h0.009  l33.485-6.477c4.617-0.922,9.105,2.082,10.027,6.699c0,0.017,0.009,0.034,0.009,0.051l17.579,90.539  c0.102,0.538,0.154,1.084,0.162,1.621v0.085c0,0.546-0.051,1.092-0.154,1.621l-8.021,41.387  C247.216,253.107,243.701,256,239.613,256z M227.88,238.933h4.702l6.374-32.896l-15.642-80.546l-16.785,3.217L227.88,238.933z"/>
<path id="SVGCleanerId_1" d="M274.344,256h-34.731c-4.71,0-8.533-3.823-8.533-8.542c0-0.546,0.051-1.084,0.154-1.621l7.945-40.994  c0.017-0.154,0.043-0.307,0.068-0.452l17.493-90.564c0.896-4.625,5.376-7.654,10.001-6.758l0,0l33.502,6.477  c4.634,0.879,7.671,5.342,6.793,9.975c0,0.009,0,0.026-0.009,0.034l-24.329,125.551C281.93,253.116,278.423,256,274.344,256z   M249.956,238.933h17.374l21.333-110.208l-16.777-3.268l-15.795,81.749c-0.017,0.171-0.043,0.333-0.077,0.495L249.956,238.933z"/>
<g>
	<path id="SVGCleanerId_2" d="M350.888,256h-76.544c-4.71,0-8.533-3.823-8.533-8.533c0-0.555,0.051-1.101,0.162-1.647l15.778-81.374   c0.887-4.625,5.367-7.654,9.993-6.767c4.019,0.768,6.921,4.284,6.921,8.38v70.912h17.067v-5.803c0-0.657,0.077-1.314,0.222-1.954   L352.56,73.318c1.067-4.582,5.641-7.433,10.223-6.374c0.009,0,0.017,0,0.026,0.009l33.28,7.765   c4.591,1.067,7.441,5.649,6.374,10.231c0,0.009-0.009,0.026-0.009,0.034l-8.107,34.304c-1.05,4.463-5.436,7.296-9.941,6.409   l-1.254-0.247l-23.893,123.622C358.491,253.099,354.975,256,350.888,256z M332.797,238.933h11.051l24.175-125.099   c0.896-4.625,5.376-7.654,10.01-6.758c0,0,0,0,0.009,0l1.596,0.307l4.258-17.988l-16.64-3.883l-34.458,146.645V238.933z"/>
</g>
<path d="M324.264,254.037h-34.133c-4.71,0-8.533-3.823-8.533-8.533v-79.445c0-0.546,0.051-1.084,0.154-1.621l6.912-35.712  l-0.119-0.026c-4.036-0.759-6.946-4.284-6.946-8.38V85.333c0-4.71,3.823-8.533,8.533-8.533h34.133c4.71,0,8.533,3.823,8.533,8.533  v160.171C332.797,250.214,328.974,254.037,324.264,254.037z M298.664,236.971h17.067V93.867h-17.067v19.388l1.596,0.307  c4.634,0.879,7.671,5.342,6.793,9.975c0,0.009,0,0.026-0.009,0.034l-8.38,43.307V236.971z"/>
<path id="SVGCleanerId_3" d="M162.131,254.037h-1.365c-4.087,0-7.603-2.901-8.38-6.912l-23.561-121.728  c-4.693,0.461-8.866-2.978-9.318-7.663c-0.026-0.273-0.043-0.546-0.043-0.828V85.333c0-4.71,3.823-8.533,8.533-8.533h34.133  c4.71,0,8.533,3.823,8.533,8.533v160.171C170.664,250.214,166.841,254.037,162.131,254.037z M136.531,106.974  c3.712,0.41,6.733,3.191,7.441,6.861l9.626,49.732v-69.7h-17.067V106.974z"/>
<path id="SVGCleanerId_4" d="M220.84,256h-24.576c-4.71,0-8.533-3.823-8.533-8.533V121.941c0-4.71,3.823-8.533,8.533-8.533  c4.147-0.009,7.74,2.867,8.636,6.912l24.32,125.525c0.896,4.625-2.133,9.105-6.758,10.001C221.924,255.949,221.378,256,220.84,256z   M204.797,238.933h5.692l-5.692-29.406V238.933z"/>
<g>
	<path id="SVGCleanerId_5" d="M196.264,256h-35.157c-4.147,0-7.697-2.987-8.405-7.074l-0.341-1.963   c-0.367-2.116,0.077-4.292,1.237-6.093V36.096c0-4.71,3.823-8.533,8.533-8.533h34.133c4.71,0,8.533,3.823,8.533,8.533v211.371   C204.797,252.177,200.974,256,196.264,256z M170.664,238.933h17.067V44.629h-17.067V238.933z"/>
</g>
<path d="M324.272,239.701c-0.333,0-0.666-0.017-0.99-0.06c-4.309-0.495-7.552-4.139-7.552-8.474V19.029  c0-4.71,3.823-8.533,8.533-8.533h34.133c4.71,0,8.533,3.823,8.533,8.533v66.816c0,0.657-0.077,1.314-0.222,1.954l-34.133,145.323  C331.662,236.971,328.232,239.693,324.272,239.701z M332.797,27.563v129.954l17.067-72.653V27.563H332.797z"/>
<g>
	<path id="SVGCleanerId_6" d="M127.997,125.44c-4.71,0-8.533-3.823-8.533-8.533V85.333c0-4.71,3.823-8.533,8.533-8.533h34.133   c4.71,0,8.533,3.823,8.533,8.533c0,4.71-3.823,8.533-8.533,8.533h-25.6v23.04C136.531,121.617,132.708,125.44,127.997,125.44z"/>
</g>
<g>
	<path id="SVGCleanerId_0_1_" d="M385.619,256h-34.731c-4.71,0-8.533-3.814-8.533-8.525c0-0.546,0.051-1.092,0.154-1.63   l25.515-132.011c0.896-4.625,5.376-7.654,10.01-6.758c0,0,0,0,0.009,0l33.519,6.485c4.625,0.896,7.654,5.367,6.767,9.993v0.009   l-24.32,125.525C393.222,253.107,389.706,256,385.619,256z M361.23,238.933h17.348l21.359-110.225l-16.777-3.243L361.23,238.933z"/>
</g>
<g>
	<path id="SVGCleanerId_1_1_" d="M274.344,256h-34.731c-4.71,0-8.533-3.823-8.533-8.542c0-0.546,0.051-1.084,0.154-1.621   l7.945-40.994c0.017-0.154,0.043-0.307,0.068-0.452l17.493-90.564c0.896-4.625,5.376-7.654,10.001-6.758l0,0l33.502,6.477   c4.634,0.879,7.671,5.342,6.793,9.975c0,0.009,0,0.026-0.009,0.034l-24.329,125.551C281.93,253.116,278.423,256,274.344,256z    M249.956,238.933h17.374l21.333-110.208l-16.777-3.268l-15.795,81.749c-0.017,0.171-0.043,0.333-0.077,0.495L249.956,238.933z"/>
</g>
<g>
	<path id="SVGCleanerId_6_1_" d="M127.997,125.44c-4.71,0-8.533-3.823-8.533-8.533V85.333c0-4.71,3.823-8.533,8.533-8.533h34.133   c4.71,0,8.533,3.823,8.533,8.533c0,4.71-3.823,8.533-8.533,8.533h-25.6v23.04C136.531,121.617,132.708,125.44,127.997,125.44z"/>
</g>
<g>
	<path id="SVGCleanerId_2_1_" d="M350.888,256h-76.544c-4.71,0-8.533-3.823-8.533-8.533c0-0.555,0.051-1.101,0.162-1.647   l15.778-81.374c0.887-4.625,5.367-7.654,9.993-6.767c4.019,0.768,6.921,4.284,6.921,8.38v70.912h17.067v-5.803   c0-0.657,0.077-1.314,0.222-1.954L352.56,73.318c1.067-4.582,5.641-7.433,10.223-6.374c0.009,0,0.017,0,0.026,0.009l33.28,7.765   c4.591,1.067,7.441,5.649,6.374,10.231c0,0.009-0.009,0.026-0.009,0.034l-8.107,34.304c-1.05,4.463-5.436,7.296-9.941,6.409   l-1.254-0.247l-23.893,123.622C358.491,253.099,354.975,256,350.888,256z M332.797,238.933h11.051l24.175-125.099   c0.896-4.625,5.376-7.654,10.01-6.758c0,0,0,0,0.009,0l1.596,0.307l4.258-17.988l-16.64-3.883l-34.458,146.645V238.933z"/>
</g>
<path d="M324.264,254.037h-34.133c-4.71,0-8.533-3.823-8.533-8.533v-79.445c0-0.546,0.051-1.084,0.154-1.621l6.912-35.712  l-0.119-0.026c-4.036-0.759-6.946-4.284-6.946-8.38V85.333c0-4.71,3.823-8.533,8.533-8.533h34.133c4.71,0,8.533,3.823,8.533,8.533  v160.171C332.797,250.214,328.974,254.037,324.264,254.037z M298.664,236.971h17.067V93.867h-17.067v19.388l1.596,0.307  c4.634,0.879,7.671,5.342,6.793,9.975c0,0.009,0,0.026-0.009,0.034l-8.38,43.307V236.971z"/>
<g>
	<path id="SVGCleanerId_5_1_" d="M196.264,256h-35.157c-4.147,0-7.697-2.987-8.405-7.074l-0.341-1.963   c-0.367-2.116,0.077-4.292,1.237-6.093V36.096c0-4.71,3.823-8.533,8.533-8.533h34.133c4.71,0,8.533,3.823,8.533,8.533v211.371   C204.797,252.177,200.974,256,196.264,256z M170.664,238.933h17.067V44.629h-17.067V238.933z"/>
</g>
<path d="M256.006,171.179c-0.273,0-0.546-0.009-0.819-0.034c-4.378-0.427-7.723-4.105-7.723-8.499V68.267  c0-4.71,3.823-8.533,8.533-8.533h34.133c4.71,0,8.533,3.823,8.533,8.533v52.053c0,4.71-3.823,8.533-8.542,8.533  c-0.546,0-1.084-0.051-1.621-0.154l-16.623-3.234l-7.501,38.801C263.6,168.277,260.093,171.179,256.006,171.179z M265.128,106.923  c0.546,0,1.092,0.051,1.63,0.162l14.839,2.884V76.8h-17.067v30.14C264.727,106.931,264.923,106.923,265.128,106.923L265.128,106.923  z"/>
<g>
	<path id="SVGCleanerId_7" d="M324.272,239.701c-0.333,0-0.666-0.017-0.99-0.06c-4.309-0.495-7.552-4.139-7.552-8.474V19.029   c0-4.71,3.823-8.533,8.533-8.533h34.133c4.71,0,8.533,3.823,8.533,8.533v66.816c0,0.657-0.077,1.314-0.222,1.954l-34.133,145.323   C331.662,236.971,328.232,239.693,324.272,239.701z M332.797,27.563v129.954l17.067-72.653V27.563H332.797z"/>
</g>
<path d="M290.131,93.867c-4.71,0-8.533-3.823-8.533-8.533V76.8h-25.6c-4.71,0-8.533-3.823-8.533-8.533s3.823-8.533,8.533-8.533  h34.133c4.71,0,8.533,3.823,8.533,8.533v17.067C298.664,90.044,294.841,93.867,290.131,93.867z"/>
<g>
	<path id="SVGCleanerId_8" d="M255.997,171.179c-4.71,0-8.533-3.823-8.533-8.533V17.067h-17.067v96.683   c0,4.71-3.823,8.533-8.533,8.533c-4.71,0-8.533-3.823-8.533-8.533V8.533c0-4.71,3.823-8.533,8.533-8.533h34.133   c4.71,0,8.533,3.823,8.533,8.533v154.112C264.531,167.356,260.708,171.179,255.997,171.179z"/>
</g>
<g>
	<path id="SVGCleanerId_0_2_" d="M385.619,256h-34.731c-4.71,0-8.533-3.814-8.533-8.525c0-0.546,0.051-1.092,0.154-1.63   l25.515-132.011c0.896-4.625,5.376-7.654,10.01-6.758c0,0,0,0,0.009,0l33.519,6.485c4.625,0.896,7.654,5.367,6.767,9.993v0.009   l-24.32,125.525C393.222,253.107,389.706,256,385.619,256z M361.23,238.933h17.348l21.359-110.225l-16.777-3.243L361.23,238.933z"/>
</g>
<g>
	<path id="SVGCleanerId_2_2_" d="M350.888,256h-76.544c-4.71,0-8.533-3.823-8.533-8.533c0-0.555,0.051-1.101,0.162-1.647   l15.778-81.374c0.887-4.625,5.367-7.654,9.993-6.767c4.019,0.768,6.921,4.284,6.921,8.38v70.912h17.067v-5.803   c0-0.657,0.077-1.314,0.222-1.954L352.56,73.318c1.067-4.582,5.641-7.433,10.223-6.374c0.009,0,0.017,0,0.026,0.009l33.28,7.765   c4.591,1.067,7.441,5.649,6.374,10.231c0,0.009-0.009,0.026-0.009,0.034l-8.107,34.304c-1.05,4.463-5.436,7.296-9.941,6.409   l-1.254-0.247l-23.893,123.622C358.491,253.099,354.975,256,350.888,256z M332.797,238.933h11.051l24.175-125.099   c0.896-4.625,5.376-7.654,10.01-6.758c0,0,0,0,0.009,0l1.596,0.307l4.258-17.988l-16.64-3.883l-34.458,146.645V238.933z"/>
</g>
<path d="M324.264,254.037h-34.133c-4.71,0-8.533-3.823-8.533-8.533v-79.445c0-0.546,0.051-1.084,0.154-1.621l6.912-35.712  l-0.119-0.026c-4.036-0.759-6.946-4.284-6.946-8.38V85.333c0-4.71,3.823-8.533,8.533-8.533h34.133c4.71,0,8.533,3.823,8.533,8.533  v160.171C332.797,250.214,328.974,254.037,324.264,254.037z M298.664,236.971h17.067V93.867h-17.067v19.388l1.596,0.307  c4.634,0.879,7.671,5.342,6.793,9.975c0,0.009,0,0.026-0.009,0.034l-8.38,43.307V236.971z"/>
<g>
	<path id="SVGCleanerId_3_1_" d="M162.131,254.037h-1.365c-4.087,0-7.603-2.901-8.38-6.912l-23.561-121.728   c-4.693,0.461-8.866-2.978-9.318-7.663c-0.026-0.273-0.043-0.546-0.043-0.828V85.333c0-4.71,3.823-8.533,8.533-8.533h34.133   c4.71,0,8.533,3.823,8.533,8.533v160.171C170.664,250.214,166.841,254.037,162.131,254.037z M136.531,106.974   c3.712,0.41,6.733,3.191,7.441,6.861l9.626,49.732v-69.7h-17.067V106.974z"/>
</g>
<g>
	<path id="SVGCleanerId_4_1_" d="M220.84,256h-24.576c-4.71,0-8.533-3.823-8.533-8.533V121.941c0-4.71,3.823-8.533,8.533-8.533   c4.147-0.009,7.74,2.867,8.636,6.912l24.32,125.525c0.896,4.625-2.133,9.105-6.758,10.001C221.924,255.949,221.378,256,220.84,256z    M204.797,238.933h5.692l-5.692-29.406V238.933z"/>
</g>
<g>
	<path id="SVGCleanerId_5_2_" d="M196.264,256h-35.157c-4.147,0-7.697-2.987-8.405-7.074l-0.341-1.963   c-0.367-2.116,0.077-4.292,1.237-6.093V36.096c0-4.71,3.823-8.533,8.533-8.533h34.133c4.71,0,8.533,3.823,8.533,8.533v211.371   C204.797,252.177,200.974,256,196.264,256z M170.664,238.933h17.067V44.629h-17.067V238.933z"/>
</g>
<g>
	<path id="SVGCleanerId_9" d="M290.131,93.867c-4.71,0-8.533-3.823-8.533-8.533V76.8h-25.6c-4.71,0-8.533-3.823-8.533-8.533   s3.823-8.533,8.533-8.533h34.133c4.71,0,8.533,3.823,8.533,8.533v17.067C298.664,90.044,294.841,93.867,290.131,93.867z"/>
</g>
<g>
	<path id="SVGCleanerId_8_1_" d="M255.997,171.179c-4.71,0-8.533-3.823-8.533-8.533V17.067h-17.067v96.683   c0,4.71-3.823,8.533-8.533,8.533c-4.71,0-8.533-3.823-8.533-8.533V8.533c0-4.71,3.823-8.533,8.533-8.533h34.133   c4.71,0,8.533,3.823,8.533,8.533v154.112C264.531,167.356,260.708,171.179,255.997,171.179z"/>
</g>
<g>
	<path id="SVGCleanerId_7_1_" d="M324.272,239.701c-0.333,0-0.666-0.017-0.99-0.06c-4.309-0.495-7.552-4.139-7.552-8.474V19.029   c0-4.71,3.823-8.533,8.533-8.533h34.133c4.71,0,8.533,3.823,8.533,8.533v66.816c0,0.657-0.077,1.314-0.222,1.954l-34.133,145.323   C331.662,236.971,328.232,239.693,324.272,239.701z M332.797,27.563v129.954l17.067-72.653V27.563H332.797z"/>
</g>
<g>
	<path id="SVGCleanerId_6_2_" d="M127.997,125.44c-4.71,0-8.533-3.823-8.533-8.533V85.333c0-4.71,3.823-8.533,8.533-8.533h34.133   c4.71,0,8.533,3.823,8.533,8.533c0,4.71-3.823,8.533-8.533,8.533h-25.6v23.04C136.531,121.617,132.708,125.44,127.997,125.44z"/>
</g>
<g>
	<path id="SVGCleanerId_9_1_" d="M290.131,93.867c-4.71,0-8.533-3.823-8.533-8.533V76.8h-25.6c-4.71,0-8.533-3.823-8.533-8.533   s3.823-8.533,8.533-8.533h34.133c4.71,0,8.533,3.823,8.533,8.533v17.067C298.664,90.044,294.841,93.867,290.131,93.867z"/>
</g>
<g>
	<path id="SVGCleanerId_8_2_" d="M255.997,171.179c-4.71,0-8.533-3.823-8.533-8.533V17.067h-17.067v96.683   c0,4.71-3.823,8.533-8.533,8.533c-4.71,0-8.533-3.823-8.533-8.533V8.533c0-4.71,3.823-8.533,8.533-8.533h34.133   c4.71,0,8.533,3.823,8.533,8.533v154.112C264.531,167.356,260.708,171.179,255.997,171.179z"/>
</g>
<g>
	<path id="SVGCleanerId_0_3_" d="M385.619,256h-34.731c-4.71,0-8.533-3.814-8.533-8.525c0-0.546,0.051-1.092,0.154-1.63   l25.515-132.011c0.896-4.625,5.376-7.654,10.01-6.758c0,0,0,0,0.009,0l33.519,6.485c4.625,0.896,7.654,5.367,6.767,9.993v0.009   l-24.32,125.525C393.222,253.107,389.706,256,385.619,256z M361.23,238.933h17.348l21.359-110.225l-16.777-3.243L361.23,238.933z"/>
</g>
<g>
	<path id="SVGCleanerId_6_3_" d="M127.997,125.44c-4.71,0-8.533-3.823-8.533-8.533V85.333c0-4.71,3.823-8.533,8.533-8.533h34.133   c4.71,0,8.533,3.823,8.533,8.533c0,4.71-3.823,8.533-8.533,8.533h-25.6v23.04C136.531,121.617,132.708,125.44,127.997,125.44z"/>
</g>
<g>
	<path id="SVGCleanerId_2_3_" d="M350.888,256h-76.544c-4.71,0-8.533-3.823-8.533-8.533c0-0.555,0.051-1.101,0.162-1.647   l15.778-81.374c0.887-4.625,5.367-7.654,9.993-6.767c4.019,0.768,6.921,4.284,6.921,8.38v70.912h17.067v-5.803   c0-0.657,0.077-1.314,0.222-1.954L352.56,73.318c1.067-4.582,5.641-7.433,10.223-6.374c0.009,0,0.017,0,0.026,0.009l33.28,7.765   c4.591,1.067,7.441,5.649,6.374,10.231c0,0.009-0.009,0.026-0.009,0.034l-8.107,34.304c-1.05,4.463-5.436,7.296-9.941,6.409   l-1.254-0.247l-23.893,123.622C358.491,253.099,354.975,256,350.888,256z M332.797,238.933h11.051l24.175-125.099   c0.896-4.625,5.376-7.654,10.01-6.758c0,0,0,0,0.009,0l1.596,0.307l4.258-17.988l-16.64-3.883l-34.458,146.645V238.933z"/>
</g>
<path d="M324.264,254.037h-34.133c-4.71,0-8.533-3.823-8.533-8.533v-79.445c0-0.546,0.051-1.084,0.154-1.621l6.912-35.712  l-0.119-0.026c-4.036-0.759-6.946-4.284-6.946-8.38V85.333c0-4.71,3.823-8.533,8.533-8.533h34.133c4.71,0,8.533,3.823,8.533,8.533  v160.171C332.797,250.214,328.974,254.037,324.264,254.037z M298.664,236.971h17.067V93.867h-17.067v19.388l1.596,0.307  c4.634,0.879,7.671,5.342,6.793,9.975c0,0.009,0,0.026-0.009,0.034l-8.38,43.307V236.971z"/>
<g>
	<path id="SVGCleanerId_5_3_" d="M196.264,256h-35.157c-4.147,0-7.697-2.987-8.405-7.074l-0.341-1.963   c-0.367-2.116,0.077-4.292,1.237-6.093V36.096c0-4.71,3.823-8.533,8.533-8.533h34.133c4.71,0,8.533,3.823,8.533,8.533v211.371   C204.797,252.177,200.974,256,196.264,256z M170.664,238.933h17.067V44.629h-17.067V238.933z"/>
</g>
<path d="M247.635,214.528c-4.087,0-7.595-2.901-8.371-6.912l-15.949-82.133c-4.642,0.802-9.054-2.321-9.856-6.963  c-0.085-0.478-0.128-0.964-0.128-1.442V8.533c0-4.71,3.823-8.533,8.533-8.533h34.133c4.71,0,8.533,3.823,8.533,8.533v154.112  c0,0.555-0.051,1.101-0.162,1.638l-8.354,43.307c-0.768,4.019-4.275,6.929-8.371,6.938H247.635z M230.397,106.931  c3.959,0.154,7.287,3.012,8.03,6.903l9.037,46.515V17.067h-17.067V106.931z"/>
<g>
	<path id="SVGCleanerId_9_2_" d="M290.131,93.867c-4.71,0-8.533-3.823-8.533-8.533V76.8h-25.6c-4.71,0-8.533-3.823-8.533-8.533   s3.823-8.533,8.533-8.533h34.133c4.71,0,8.533,3.823,8.533,8.533v17.067C298.664,90.044,294.841,93.867,290.131,93.867z"/>
</g>
<g>
	<path id="SVGCleanerId_8_3_" d="M255.997,171.179c-4.71,0-8.533-3.823-8.533-8.533V17.067h-17.067v96.683   c0,4.71-3.823,8.533-8.533,8.533c-4.71,0-8.533-3.823-8.533-8.533V8.533c0-4.71,3.823-8.533,8.533-8.533h34.133   c4.71,0,8.533,3.823,8.533,8.533v154.112C264.531,167.356,260.708,171.179,255.997,171.179z"/>
</g>
<g>
	<path id="SVGCleanerId_7_2_" d="M324.272,239.701c-0.333,0-0.666-0.017-0.99-0.06c-4.309-0.495-7.552-4.139-7.552-8.474V19.029   c0-4.71,3.823-8.533,8.533-8.533h34.133c4.71,0,8.533,3.823,8.533,8.533v66.816c0,0.657-0.077,1.314-0.222,1.954l-34.133,145.323   C331.662,236.971,328.232,239.693,324.272,239.701z M332.797,27.563v129.954l17.067-72.653V27.563H332.797z"/>
</g>
<g>
</g>
<g>
</g>
<g>
</g>
<g>
</g>
<g>
</g>
<g>
</g>
<g>
</g>
<g>
</g>
<g>
</g>
<g>
</g>
<g>
</g>
<g>
</g>
<g>
</g>
<g>
</g>
<g>
</g>
</svg>
