<?xml version="1.0" encoding="iso-8859-1"?>
<!-- Generator: Adobe Illustrator 19.0.0, SVG Export Plug-In . SVG Version: 6.00 Build 0)  -->
<svg xmlns="http://www.w3.org/2000/svg" xmlns:xlink="http://www.w3.org/1999/xlink" version="1.1" id="Capa_1" x="0px" y="0px" viewBox="0 0 511.998 511.998" style="enable-background:new 0 0 511.998 511.998;" xml:space="preserve">
<path style="fill:#558B30;" d="M331.848,79.444v0.085c-9.415,1.345-18.694,3.482-27.752,6.385  c-17.417,5.303-33.694,13.791-48.012,25.028h-0.085c-22.252-16.915-48.497-27.794-76.189-31.582  c-0.673-3.916-0.443-7.934,0.681-11.748c0.017-0.204,0.077-0.409,0.17-0.596c2.426-7.534,8.215-13.51,15.663-16.174  c2.979-1.166,6.18-1.626,9.364-1.362l0.085-0.085c-1.183-1.694-2.154-3.524-2.894-5.448c-1.175-3.209-1.532-6.665-1.022-10.045  c1.549-11.637,12.241-19.818,23.878-18.268c6.674,0.885,12.531,4.886,15.791,10.777c3.235-7.5,9.432-13.322,17.111-16.089  c15.451-5.593,32.51,2.409,38.103,17.86c2.784,7.696,2.273,16.2-1.413,23.512c14.693-3.388,29.599,4.725,34.732,18.898  C331.056,73.443,331.661,76.422,331.848,79.444z"/>
<path style="fill:#8BC34A;" d="M304.096,85.914c-17.417,5.303-33.694,13.791-48.012,25.028h-0.085  c-22.252-16.915-48.497-27.794-76.189-31.582c-0.673-3.916-0.443-7.934,0.681-11.748h0.426l0.085-0.085  c-0.085-0.17-0.255-0.341-0.341-0.511c2.426-7.534,8.215-13.51,15.663-16.174c2.979-1.166,6.18-1.626,9.364-1.362l0.085-0.085  c-1.183-1.694-2.154-3.524-2.894-5.448c-1.175-3.209-1.532-6.665-1.022-10.045c6.316,1.115,11.79,5.031,14.897,10.641  c3.235-7.5,9.432-13.322,17.111-16.089c2.46-0.902,5.04-1.447,7.661-1.617c13.425-1.132,25.93,6.904,30.476,19.579  c2.699,7.679,2.179,16.123-1.447,23.41C284.117,66.701,298.035,73.383,304.096,85.914z"/>
<g>
	<polygon style="fill:#D84315;" points="376.284,324.782 366.835,477.927 366.665,477.927 324.101,452.388 336.87,341.723    341.127,341.723 375.178,324.697  "/>
	<polygon style="fill:#D84315;" points="383.691,205.518 378.413,290.816 375.178,290.646 341.127,307.672 340.786,307.672    349.639,231.057 352.959,228.503  "/>
	<polygon style="fill:#D84315;" points="187.897,452.388 145.333,477.927 145.163,477.927 135.714,324.782 136.82,324.697    170.872,341.723 175.128,341.723  "/>
	<polygon style="fill:#D84315;" points="171.212,307.672 170.872,307.672 136.82,290.646 133.586,290.816 128.308,205.518    159.039,228.503 162.359,231.057  "/>
</g>
<path d="M366.835,486.44c-1.6,0-3.167-0.417-4.554-1.217l-42.564-25.538c-2.869-1.72-4.461-4.954-4.078-8.274l12.769-110.666  c0.502-4.29,4.137-7.534,8.462-7.534h2.247l32.255-16.132c1.379-0.681,2.911-0.987,4.444-0.877l1.107,0.085  c4.639,0.349,8.147,4.367,7.857,9.015l-9.449,153.145C375.05,482.941,371.33,486.44,366.835,486.44z M333.184,447.911l26.006,15.604  l7.721-125.172l-21.988,10.998l-0.392,0.179L333.184,447.911z"/>
<path style="fill:#C52828;" d="M366.835,477.927l-0.17,2.469c-4.341,2.128-8.938,4.171-13.706,6.044  c-30.986,11.645-63.863,17.417-96.96,17.026c-33.098,0.392-65.974-5.38-96.96-17.026c-4.767-1.873-9.364-3.916-13.706-6.044  l-0.17-2.469h0.17l42.564-25.538h136.204l42.564,25.538H366.835z"/>
<path d="M255.999,511.978c-34.179,0.417-68.128-5.567-100.102-17.63c-4.81-1.89-9.628-4.018-14.31-6.308  c-2.724-1.336-4.537-4.027-4.742-7.057l-0.17-2.469c-0.247-3.635,1.839-7.032,5.201-8.436l41.644-24.985  c1.319-0.792,2.835-1.217,4.384-1.217H324.11c1.541,0,3.056,0.417,4.384,1.217l42.027,25.215c0.928,0.451,1.762,1.064,2.469,1.813  c1.634,1.72,2.486,4.027,2.35,6.393l-0.17,2.469c-0.204,3.031-2.018,5.721-4.742,7.057c-4.682,2.298-9.5,4.427-14.344,6.325  C324.101,506.419,290.161,512.395,255.999,511.978z M161.388,478.216l0.758,0.298c29.982,11.279,61.811,16.847,93.845,16.438  c32.025,0.417,63.846-5.15,93.819-16.421l0.783-0.315l-28.858-17.315h-131.48L161.388,478.216z"/>
<path d="M341.127,316.184c-2.477,0-4.844-1.03-6.529-2.852c-1.66-1.788-2.486-4.205-2.273-6.64l8.853-76.615  c0.264-2.29,1.439-4.367,3.269-5.772l3.32-2.554l30.816-23.053c3.763-2.818,9.1-2.043,11.918,1.72  c1.209,1.617,1.805,3.609,1.677,5.627l-5.278,85.298c-0.341,4.639-4.299,8.164-8.947,7.976l-0.987-0.051l-32.042,16.021  C343.749,315.878,342.446,316.184,341.127,316.184z M357.684,235.611l-6.657,57.589l19.307-9.653l3.729-60.194L357.684,235.611z"/>
<g>
	<polygon style="fill:#FDD834;" points="378.413,290.816 376.284,324.782 375.178,324.697 341.127,341.723 336.87,341.723    340.786,307.672 341.127,307.672 375.178,290.646  "/>
	<path style="fill:#FDD834;" d="M221.948,324.697c0.008,5.984,1.592,11.858,4.597,17.026h-51.417l-3.916-34.051h55.333   C223.54,312.847,221.948,318.721,221.948,324.697z"/>
	<path style="fill:#FDD834;" d="M340.786,307.672l-3.916,34.051h-51.417c6.129-10.522,6.129-23.529,0-34.051H340.786z"/>
	<polygon style="fill:#FDD834;" points="175.128,341.723 170.872,341.723 136.82,324.697 135.714,324.782 133.586,290.816    136.82,290.646 170.872,307.672 171.212,307.672  "/>
</g>
<path d="M341.127,350.235h-4.256c-4.699,0-8.513-3.814-8.513-8.513c0-0.323,0.017-0.647,0.06-0.97l3.916-34.051  c0.4-3.439,2.826-6.291,6.163-7.227l32.885-16.447c1.319-0.664,2.784-0.962,4.256-0.885l3.235,0.17  c4.699,0.247,8.3,4.256,8.053,8.955c0,0.026,0,0.051-0.009,0.077l-2.128,33.966c-0.264,4.171-3.516,7.542-7.678,7.942  l-32.161,16.081C343.749,349.929,342.446,350.235,341.127,350.235z M348.695,313.401l-1.83,15.936l21.273-10.641l0.97-15.502  L348.695,313.401z"/>
<path d="M145.333,486.44c-4.529,0.008-8.308-3.473-8.666-7.985l-9.449-153.145c-0.289-4.648,3.209-8.666,7.857-9.015l1.107-0.085  c1.532-0.128,3.073,0.17,4.444,0.877l32.255,16.132h2.247c4.324,0,7.959,3.243,8.462,7.534l12.769,110.666  c0.383,3.32-1.209,6.555-4.078,8.274l-42.564,25.538C148.389,486.022,146.874,486.44,145.333,486.44z M145.078,338.343  l7.721,125.172l26.006-15.604l-11.356-98.39l-0.392-0.179L145.078,338.343z"/>
<g>
	<path style="fill:#C52828;" d="M162.359,156.485v67.591l-3.32,4.427l-30.731-22.984v-8.513   C128.308,181.342,141.247,167.126,162.359,156.485z"/>
	<path style="fill:#C52828;" d="M383.691,197.006v8.513l-30.731,22.984l-3.32-4.427v-67.591   C370.751,167.126,383.691,181.342,383.691,197.006z"/>
</g>
<path d="M159.03,237.016c-1.839,0-3.626-0.596-5.091-1.694l-30.731-22.984c-2.145-1.609-3.414-4.137-3.414-6.819v-8.513  c0-18.447,13.757-35.532,38.733-48.123c4.197-2.12,9.313-0.426,11.433,3.771c0.596,1.192,0.911,2.503,0.911,3.831v67.591  c0,1.839-0.596,3.635-1.703,5.108l-3.32,4.427C164.24,235.764,161.712,237.024,159.03,237.016z M136.82,201.254l17.026,12.735  v-42.547c-9.458,5.286-15.791,14.795-17.026,25.555V201.254z"/>
<path d="M352.968,237.016c-2.682,0.009-5.21-1.26-6.819-3.405l-3.32-4.427c-1.107-1.473-1.703-3.269-1.703-5.108v-67.591  c0-4.699,3.814-8.513,8.513-8.513c1.328,0,2.647,0.315,3.831,0.911c24.976,12.59,38.733,29.675,38.733,48.123v8.513  c0,2.682-1.26,5.21-3.414,6.819l-30.731,22.984C356.586,236.42,354.807,237.016,352.968,237.016z M358.152,171.45v42.547  l17.026-12.735v-4.248C373.943,186.246,367.61,176.728,358.152,171.45z"/>
<path style="fill:#C52828;" d="M324.101,231.057H162.359l8.853,76.615h55.333c3.763-6.572,9.645-11.68,16.685-14.472  c4.035-1.72,8.385-2.588,12.769-2.554c12.165-0.026,23.402,6.478,29.454,17.026h55.333l8.853-76.615L324.101,231.057  L324.101,231.057z"/>
<path style="fill:#F44335;" d="M324.101,231.057l-8.853,76.615h-29.795c-6.053-10.547-17.289-17.051-29.454-17.026  c-4.384-0.034-8.734,0.834-12.769,2.554c-7.04,2.792-12.922,7.9-16.685,14.472h-55.333l-8.853-76.615L324.101,231.057  L324.101,231.057z"/>
<path style="fill:#C52828;" d="M311.332,341.723h-25.879c-6.053,10.547-17.289,17.051-29.454,17.026  c-4.384,0.034-8.734-0.834-12.769-2.554c-7.04-2.792-12.922-7.9-16.685-14.472h-51.417l12.769,110.666h136.204l12.769-110.666  H311.332z"/>
<path style="fill:#F44335;" d="M311.332,341.723l-12.769,110.666H187.897l-12.769-110.666h51.417  c3.763,6.572,9.645,11.68,16.685,14.472c4.035,1.72,8.385,2.588,12.769,2.554c12.165,0.026,23.402-6.478,29.454-17.026H311.332z"/>
<path d="M340.786,316.184h-55.333c-3.048,0-5.865-1.626-7.381-4.265c-7.023-12.19-22.601-16.379-34.792-9.356  c-3.89,2.239-7.117,5.465-9.356,9.356c-1.524,2.639-4.333,4.265-7.381,4.265h-55.333c-4.324,0-7.959-3.243-8.453-7.534  l-8.853-76.615c-0.536-4.674,2.809-8.896,7.483-9.432c0.323-0.034,0.647-0.06,0.979-0.06h187.281c4.699,0,8.513,3.814,8.513,8.513  c0,0.323-0.017,0.655-0.06,0.979l-8.853,76.615C348.746,312.941,345.111,316.184,340.786,316.184z M290.016,299.159h43.177  l6.887-59.589H171.91l6.887,59.589h43.177c14.072-18.788,40.717-22.61,59.504-8.538C284.713,293.047,287.59,295.924,290.016,299.159  L290.016,299.159z"/>
<path d="M324.101,460.901H187.897c-4.324,0-7.959-3.243-8.462-7.534l-12.769-110.666c-0.536-4.673,2.809-8.896,7.483-9.432  c0.323-0.034,0.647-0.06,0.979-0.06h51.417c3.048,0,5.865,1.626,7.381,4.265c7.023,12.19,22.601,16.379,34.792,9.355  c3.89-2.239,7.117-5.465,9.356-9.355c1.524-2.639,4.333-4.265,7.381-4.265h51.417c4.699,0,8.513,3.814,8.513,8.513  c0,0.323-0.017,0.655-0.06,0.979l-12.769,110.666C332.061,457.658,328.426,460.901,324.101,460.901z M195.482,443.876h121.034  l10.803-93.64h-37.294c-14.072,18.788-40.717,22.61-59.504,8.538c-3.243-2.426-6.112-5.303-8.538-8.538h-37.294L195.482,443.876z"/>
<path d="M226.545,350.235h-51.417c-4.324,0-7.968-3.243-8.462-7.542l-3.916-34.051c-0.536-4.674,2.818-8.896,7.483-9.432  c0.323-0.034,0.647-0.06,0.97-0.06h55.333c4.699,0,8.513,3.814,8.513,8.513c0,1.49-0.392,2.954-1.132,4.248  c-4.614,7.891-4.614,17.664,0,25.555c2.35,4.078,0.945,9.279-3.133,11.628C229.499,349.844,228.035,350.235,226.545,350.235z   M182.713,333.21h31.591c-1.166-5.618-1.166-11.407,0-17.026h-33.549L182.713,333.21z"/>
<path d="M336.87,350.235h-51.417c-4.699,0-8.513-3.814-8.513-8.513c0-1.49,0.392-2.954,1.132-4.248  c4.614-7.891,4.614-17.664,0-25.555c-2.35-4.078-0.945-9.279,3.133-11.628c1.294-0.741,2.758-1.132,4.248-1.132h55.333  c4.699,0,8.513,3.814,8.513,8.513c0,0.323-0.017,0.647-0.06,0.97l-3.916,34.051C344.83,346.992,341.195,350.235,336.87,350.235z   M297.686,333.21h31.591l1.958-17.026h-33.549C298.852,321.803,298.852,327.591,297.686,333.21z"/>
<path id="SVGCleanerId_0" d="M255.999,367.261c-23.555,0.043-42.683-19.009-42.726-42.564  c-0.043-23.555,19.009-42.683,42.564-42.726s42.683,19.009,42.726,42.564c0.017,7.525-1.966,14.923-5.729,21.435  C285.232,359.131,271.194,367.244,255.999,367.261z M255.999,299.159c-14.148-0.051-25.666,11.39-25.709,25.538  c-0.051,14.148,11.39,25.666,25.538,25.709c14.148,0.051,25.666-11.39,25.709-25.538c0.017-4.546-1.183-9.015-3.465-12.948  C273.518,304.028,265.108,299.167,255.999,299.159z"/>
<path style="fill:#FDD834;" d="M290.05,324.697c-0.043,18.788-15.263,34.008-34.051,34.051c-4.384,0.034-8.734-0.834-12.769-2.554  c-7.04-2.792-12.922-7.9-16.685-14.472c-6.129-10.522-6.129-23.529,0-34.051c3.763-6.572,9.645-11.68,16.685-14.472  c4.035-1.72,8.385-2.588,12.769-2.554C274.787,290.689,289.999,305.909,290.05,324.697z"/>
<path style="fill:#FFEB3A;" d="M264.512,324.697c-0.009,5.984-1.592,11.858-4.597,17.026c-3.763,6.572-9.645,11.68-16.685,14.472  c-7.04-2.792-12.922-7.9-16.685-14.472c-6.129-10.522-6.129-23.529,0-34.051c3.763-6.572,9.645-11.68,16.685-14.472  c7.04,2.792,12.922,7.9,16.685,14.472C262.92,312.847,264.503,318.721,264.512,324.697z"/>
<g>
	<path id="SVGCleanerId_0_1_" d="M255.999,367.261c-23.555,0.043-42.683-19.009-42.726-42.564   c-0.043-23.555,19.009-42.683,42.564-42.726s42.683,19.009,42.726,42.564c0.017,7.525-1.966,14.923-5.729,21.435   C285.232,359.131,271.194,367.244,255.999,367.261z M255.999,299.159c-14.148-0.051-25.666,11.39-25.709,25.538   c-0.051,14.148,11.39,25.666,25.538,25.709c14.148,0.051,25.666-11.39,25.709-25.538c0.017-4.546-1.183-9.015-3.465-12.948   C273.518,304.028,265.108,299.167,255.999,299.159z"/>
</g>
<path style="fill:#FEC108;" d="M307.076,231.057H162.359l-3.32-2.554l3.32-4.427V77.827c5.84,0.136,11.671,0.647,17.451,1.532  c27.692,3.788,53.937,14.667,76.189,31.582h0.085C283.921,132.99,307.076,169.765,307.076,231.057z"/>
<path style="fill:#FFB301;" d="M352.959,228.503l-3.32,2.554h-42.564c0-61.292-23.155-98.067-50.991-120.115  c22.099-16.872,48.208-27.692,75.764-31.412v-0.085c5.891-0.936,11.833-1.481,17.792-1.617v146.249L352.959,228.503z"/>
<path d="M307.076,239.569H162.359c-1.873,0-3.703-0.621-5.184-1.762l-3.32-2.554c-3.695-2.843-4.418-8.13-1.617-11.858l1.617-2.154  V77.827c0-4.699,3.814-8.513,8.513-8.513c6.248,0.128,12.488,0.673,18.66,1.617c28.901,3.933,56.312,15.229,79.594,32.808  c0.264,0.162,0.511,0.341,0.749,0.528c35.983,28.492,54.226,71.15,54.226,126.789C315.588,235.756,311.775,239.569,307.076,239.569z   M170.872,222.544h127.53c-1.728-45.671-17.502-80.761-46.973-104.418c-0.255-0.162-0.502-0.332-0.732-0.519  c-21.061-16.021-45.918-26.296-72.146-29.82c-2.877-0.417-5.474-0.707-7.687-0.919v135.676H170.872z"/>
<path d="M349.639,239.569h-42.564c-4.699,0-8.513-3.814-8.513-8.513c0-50.174-16.072-88.337-47.765-113.441  c-3.686-2.92-4.307-8.274-1.388-11.96c0.4-0.511,0.86-0.97,1.371-1.379c22.984-17.511,50.047-28.867,78.649-32.995  c0.383-0.111,0.766-0.196,1.166-0.255c6.308-1.005,12.667-1.575,19.052-1.711c4.699,0,8.513,3.814,8.513,8.513v143.414l1.617,2.154  c2.801,3.729,2.077,9.015-1.617,11.858l-3.32,2.554C353.334,238.948,351.512,239.569,349.639,239.569z M315.444,222.544h25.683  V86.876c-2.009,0.196-4.316,0.46-6.878,0.826c-0.392,0.119-0.783,0.204-1.183,0.264c-22.55,3.167-44.147,11.194-63.301,23.521  C298.469,138.174,313.809,175.46,315.444,222.544z"/>
<path d="M275.4,75.869c-4.699-0.009-8.513-3.822-8.504-8.521c0-1.302,0.306-2.588,0.877-3.763  c4.359-8.828,11.977-15.629,21.248-18.958c1.481-0.536,2.996-0.962,4.537-1.26c4.597-0.97,9.117,1.975,10.088,6.572  c0.97,4.588-1.958,9.092-6.546,10.079c-0.724,0.128-1.43,0.315-2.128,0.553c-5.201,1.83-9.475,5.618-11.935,10.547  C281.597,74.039,278.635,75.878,275.4,75.869z"/>
<path d="M205.859,57.907h-0.085c-4.699-0.026-8.496-3.856-8.47-8.555c0.026-4.699,3.856-8.496,8.555-8.47  c4.699,0.026,8.496,3.856,8.47,8.555C214.304,54.11,210.524,57.89,205.859,57.907z"/>
<polygon points="216.023,60.861 215.989,60.776 232.061,55.149 "/>
<path d="M256.084,119.454c-1.949,0-3.839-0.647-5.38-1.847c-21.061-16.021-45.918-26.296-72.146-29.82  c-3.618-0.536-6.495-3.328-7.134-6.929c-2.954-16.362,6.376-32.451,22.04-38.027l0.272-0.102  c-3.32-16.098,7.04-31.838,23.138-35.158c8.198-1.686,16.719,0.153,23.495,5.065c4.197-4.656,9.475-8.198,15.374-10.317  c19.809-7.219,41.713,2.979,48.94,22.789c2.052,5.618,2.75,11.637,2.043,17.57c14.318,1.779,26.432,11.441,31.344,25.01  c1.277,3.635,2.052,7.423,2.29,11.271c0.009,0.162,0.009,0.323,0.009,0.485v0.085c0,4.231-3.107,7.823-7.295,8.428  c-26.041,3.558-50.736,13.765-71.677,29.641C259.881,118.807,258.008,119.454,256.084,119.454z M188.144,72.132  c24.415,4.307,47.595,13.927,67.889,28.169c19.69-13.765,42.087-23.197,65.693-27.666c-3.941-9.645-14.301-15.008-24.449-12.65  c-4.58,1.081-9.16-1.754-10.241-6.333c-0.451-1.924-0.221-3.95,0.655-5.721c2.596-5.227,2.971-11.279,1.056-16.796  c-4.018-11.033-16.191-16.753-27.249-12.795c-5.474,1.966-9.883,6.121-12.173,11.475c-1.294,2.971-4.171,4.954-7.406,5.108  c-3.235,0.119-6.265-1.575-7.849-4.393c-3.439-6.163-11.22-8.368-17.383-4.937c-5.457,3.039-7.908,9.585-5.806,15.459  c0.468,1.183,1.064,2.307,1.788,3.354c2.75,3.873,1.839,9.245-2.035,11.994c-1.634,1.158-3.626,1.711-5.627,1.566  c-1.898-0.162-3.814,0.111-5.593,0.809C193.498,60.827,189.174,65.952,188.144,72.132z"/>
<path d="M223.991,66.548c-2.767,0.009-5.372-1.337-6.972-3.592c-2.962-3.133-7.057-4.954-11.373-5.048  c-4.699-0.085-8.436-3.975-8.351-8.675c0.085-4.622,3.848-8.334,8.47-8.351h0.085c9.517,0.145,18.507,4.393,24.661,11.637  c3.031,3.618,2.545,9.007-1.073,12.037C227.916,65.841,225.983,66.539,223.991,66.548L223.991,66.548z"/>
<path d="M171.212,316.184h-0.341c-1.319,0-2.622-0.306-3.805-0.894l-32.042-16.021l-0.987,0.051  c-4.656,0.238-8.649-3.311-8.947-7.976l-5.278-85.298c-0.289-4.691,3.277-8.734,7.968-9.024c2.018-0.128,4.01,0.468,5.627,1.677  l34.136,25.606c1.822,1.405,3.005,3.49,3.269,5.772l8.853,76.615c0.536,4.674-2.809,8.896-7.483,9.432  C171.859,316.167,171.535,316.184,171.212,316.184z M141.664,283.555l19.307,9.653l-7.117-57.946l-15.91-11.901L141.664,283.555z"/>
<path d="M175.128,350.235h-4.256c-1.319,0-2.622-0.306-3.805-0.894l-32.161-16.081c-4.163-0.4-7.415-3.771-7.679-7.942  l-2.128-33.966c-0.289-4.691,3.277-8.734,7.968-9.024c0.026,0,0.051,0,0.077-0.008l3.235-0.17c1.473-0.077,2.937,0.23,4.256,0.885  l33.489,16.745c2.979,1.107,5.116,3.771,5.55,6.921l3.916,34.051c0.536,4.673-2.818,8.896-7.483,9.432  C175.775,350.218,175.451,350.235,175.128,350.235z M143.861,318.704l21.273,10.641l-1.83-15.936l-20.405-10.207L143.861,318.704z"/>
<path d="M196.41,145.929c-4.699,0-8.513-3.814-8.513-8.513v-17.026c0-4.699,3.814-8.513,8.513-8.513  c4.699,0,8.513,3.814,8.513,8.513v17.026C204.923,142.115,201.109,145.929,196.41,145.929z"/>
<path d="M196.41,197.006c-4.699,0-8.513-3.814-8.513-8.513v-17.026c0-4.699,3.814-8.513,8.513-8.513  c4.699,0,8.513,3.814,8.513,8.513v17.026C204.923,193.192,201.109,197.006,196.41,197.006z"/>
<path d="M230.461,197.006c-4.699,0-8.513-3.814-8.513-8.513v-17.026c0-4.699,3.814-8.513,8.513-8.513  c4.699,0,8.513,3.814,8.513,8.513v17.026C238.974,193.192,235.16,197.006,230.461,197.006z"/>
<path d="M315.588,145.929c-4.699,0-8.513-3.814-8.513-8.513v-17.026c0-4.699,3.814-8.513,8.513-8.513  c4.699,0,8.513,3.814,8.513,8.513v17.026C324.101,142.115,320.287,145.929,315.588,145.929z"/>
<g>
</g>
<g>
</g>
<g>
</g>
<g>
</g>
<g>
</g>
<g>
</g>
<g>
</g>
<g>
</g>
<g>
</g>
<g>
</g>
<g>
</g>
<g>
</g>
<g>
</g>
<g>
</g>
<g>
</g>
</svg>
