<svg xmlns="http://www.w3.org/2000/svg" xmlns:xlink="http://www.w3.org/1999/xlink" version="1.1" x="0px" y="0px" viewBox="0 0 100 125" enable-background="new 0 0 100 100" xml:space="preserve"><path d="M77.31,34.558c-2.16,0-4.152,0.732-5.745,1.958v-5.361c0-0.521-0.072-1.04-0.21-1.541c0.969-1.537,1.53-3.353,1.53-5.299  c0-5.501-4.477-9.977-9.977-9.977c-1.004,0-2.004,0.152-2.958,0.448c-2.391-4.212-6.842-6.848-11.791-6.848  c-3.313,0-6.507,1.221-8.972,3.391c-0.858-0.394-1.799-0.604-2.754-0.604c-3.377,0-6.168,2.554-6.544,5.832  c-3.318,0.167-7.09,2.134-8.786,5.178c-0.201,0.356-2.492,3.84-2.566,9.206l0.284,10.888c-0.04,0.981-0.375,3.785-1.467,5.436  c-1.008,1.523-1.036,3.756-0.067,5.429c0.888,1.536,2.737,2.396,4.618,2.396c0.117,0,0.234-0.004,0.353-0.012  c0.207-0.005,1.863-0.604,2.498-0.773v28.147c-1.661,0.709-2.861,2.352-2.968,4.312h0.002c-0.009,0.226-0.01,0.809-0.013,2.834  c0,1.329,1.081,2.41,2.411,2.41h47.945c1.329,0,2.411-1.081,2.411-2.414c-0.003-2.022-0.004-2.604-0.014-2.83h0.002  c-0.107-1.958-1.304-3.599-2.968-4.309v-6.025c1.593,1.228,3.585,1.96,5.745,1.96c5.201,0,9.434-4.232,9.434-9.435V43.991  C86.743,38.79,82.511,34.558,77.31,34.558z M24.755,31.441v18.084c0,0.839-1.623,1.845-2.562,1.868  c-0.039-0.001-0.08,0.001-0.121,0.003c-0.86,0.053-1.442-0.287-1.593-0.548c-0.31-0.537-0.238-1.262-0.049-1.547  c1.879-2.839,2.064-6.92,2.079-7.376c0-0.021,0.001-0.04,0.001-0.06l-0.284-10.897c0.063-4.51,2.069-7.383,2.078-7.397  c0.006-0.012,0.013-0.023,0.02-0.035c1.146-2.06,3.865-3.303,6.12-3.303c0.335,0,0.674,0.039,1.009,0.114  c0.63,0.143,1.289-0.055,1.736-0.521c0.448-0.465,0.619-1.132,0.452-1.756c-0.07-0.258-0.105-0.512-0.105-0.755  c0-1.599,1.301-2.899,2.9-2.899c0.683,0,1.32,0.229,1.846,0.663c0.76,0.629,1.881,0.546,2.543-0.186  c1.873-2.074,4.547-3.264,7.337-3.264c4.064,0,7.665,2.439,9.177,6.213c0.194,0.488,0.588,0.87,1.083,1.049  c0.495,0.178,1.042,0.139,1.505-0.112c0.909-0.492,1.941-0.751,2.983-0.751c3.468,0,6.288,2.821,6.288,6.289  s-2.82,6.289-6.288,6.289c-1.856,0-3.61-0.816-4.81-2.239c-0.34-0.402-0.834-0.64-1.359-0.655c-0.524-0.018-1.031,0.195-1.392,0.578  c-1.669,1.768-4.808,3.671-7.755,3.671c-4.972,0-7.653-1.732-8.693-5.617c-0.006-0.022-0.013-0.044-0.02-0.066  c-0.021-0.093-0.055-0.246-0.09-0.403c-0.036-0.161-0.072-0.325-0.101-0.449c-0.393-1.715-1.776-1.653-2.049-1.623  c-0.935,0.103-1.644,0.896-1.644,1.837c0,2.603-2.045,4.27-4.073,4.767c-1.44,0.352-2.563,0.092-2.734-0.251  c-0.456-0.911-1.563-1.28-2.474-0.825C24.922,29.726,24.54,30.616,24.755,31.441z M25.466,88.321  c0.002-0.643,0.003-1.23,0.005-1.382c0.047-0.658,0.533-1.173,1.127-1.173c1.018,0,1.844-0.825,1.844-1.843V34.177  c0.789,0.126,1.659,0.117,2.577-0.032v50.921c0,0.368,0.254,0.666,0.567,0.666h33.146c0.313,0,0.566-0.298,0.566-0.666v-51.07  c0.914-0.226,1.781-0.575,2.577-1.035v50.962c0,1.018,0.838,1.843,1.856,1.843c0.582,0,1.067,0.515,1.115,1.173  c0.001,0.151,0.003,0.739,0.005,1.382H25.466z M83.055,68.956c0,3.168-2.576,5.746-5.745,5.746c-3.167,0-5.744-2.578-5.744-5.746  h-0.001V43.991h0.001c0-3.168,2.577-5.744,5.744-5.744c3.169,0,5.745,2.576,5.745,5.744V68.956z"/></svg>