<svg xmlns="http://www.w3.org/2000/svg" xmlns:xlink="http://www.w3.org/1999/xlink" version="1.1" x="0px" y="0px" viewBox="0 0 100 125" enable-background="new 0 0 100 100" xml:space="preserve"><g display="none"><g display="inline"><path d="M19.839,25.634c2.009,0,3.638-1.628,3.638-3.638V9.072c0-2.01-1.629-3.638-3.638-3.638c-2.01,0-3.638,1.628-3.638,3.638    v12.924C16.201,24.006,17.829,25.634,19.839,25.634z"/><path d="M68.555,25.634c2.01,0,3.639-1.628,3.639-3.638V9.072c0-2.01-1.629-3.638-3.639-3.638c-2.008,0-3.637,1.628-3.637,3.638    v12.924C64.918,24.006,66.547,25.634,68.555,25.634z"/><path d="M82.502,22.64c0-4.616-3.742-8.358-8.359-8.358H73.84v7.713c0,2.918-2.365,5.284-5.285,5.284    c-2.918,0-5.283-2.366-5.283-5.284v-7.713H25.123v7.713c0,2.918-2.365,5.284-5.284,5.284c-2.918,0-5.285-2.366-5.285-5.284v-7.713    h-0.217c-4.615,0-8.358,3.742-8.358,8.358v16.265h76.523V22.64z"/><path d="M82.502,65.442V41.559H5.979v38.675c0,4.617,3.743,8.359,8.358,8.359h53.116c2.689,3.615,6.982,5.973,11.824,5.973    c8.129,0,14.744-6.615,14.744-14.746C94.021,72.8,89.084,66.919,82.502,65.442z M67.07,48.046h8.16v7.814h-8.16V48.046z     M22.345,80.188h-8.159v-7.814h8.159V80.188z M22.345,68.024h-8.159V60.21h8.159V68.024z M22.345,55.86h-8.159v-7.814h8.159V55.86    z M35.566,80.188h-8.159v-7.814h8.159V80.188z M35.566,68.024h-8.159V60.21h8.159V68.024z M35.566,55.86h-8.159v-7.814h8.159    V55.86z M48.789,80.188h-8.16v-7.814h8.16V80.188z M48.789,68.024h-8.16V60.21h8.16V68.024z M48.789,55.86h-8.16v-7.814h8.16    V55.86z M62.01,80.188h-8.16v-7.814h8.16V80.188z M62.01,68.024h-8.16V60.21h8.16V68.024z M62.01,55.86h-8.16v-7.814h8.16V55.86z     M67.07,60.21h8.16v5.443c-1.742,0.498-3.348,1.311-4.764,2.371H67.07V60.21z M79.277,91.776c-3.127,0-5.967-1.213-8.098-3.184    c-2.281-2.107-3.738-5.084-3.842-8.404c-0.004-0.123-0.018-0.244-0.018-0.369c0-2.814,0.982-5.4,2.615-7.445    c2.193-2.746,5.561-4.51,9.342-4.51c1.117,0,2.197,0.164,3.225,0.453c5.029,1.412,8.732,6.027,8.732,11.502    C91.234,86.415,85.871,91.776,79.277,91.776z"/><path d="M85.719,80.638h-6.082v-8.873c0-0.572-0.465-1.037-1.037-1.037c-0.574,0-1.039,0.465-1.039,1.037v9.91    c0,0.52,0.387,0.93,0.883,1.008c0.049,0.008,0.084,0.031,0.139,0.031h7.137c0.572,0,1.037-0.465,1.037-1.039    C86.756,81.103,86.291,80.638,85.719,80.638z"/></g></g><g display="none"><g display="inline"><path d="M77.494,32.773H43.76L32.002,44.531l-22.88,4.25c0,0-2.081,0.271-2.081,2.441l0,8.863c0,0-0.091,1.628,1.718,1.628H13.5    c-0.116-0.571-0.177-1.161-0.177-1.767c0-4.87,3.948-8.817,8.817-8.817c4.87,0,8.818,3.947,8.818,8.817    c0,0.605-0.062,1.195-0.177,1.767h39.216c-0.117-0.571-0.179-1.161-0.179-1.767c0-4.87,3.948-8.817,8.818-8.817    c4.869,0,8.817,3.947,8.817,8.817c0,0.605-0.062,1.195-0.178,1.767h2.518h1.538c0,0,1.628-0.09,1.628-2.034V47.605L77.494,32.773z     M60.765,45.073H38.246c0,0-1.764,0-1.267-0.858c0.542-1.086,8.501-9.09,8.501-9.09h0.181h15.103V45.073z M83.283,45.073H63.116    v-9.948h12.751h0.182c0,0,7.958,8.004,8.5,9.09C85.046,45.073,83.283,45.073,83.283,45.073z"/><path d="M22.14,52.669c-4.021,0-7.279,3.259-7.279,7.278c0,4.021,3.258,7.279,7.279,7.279s7.279-3.259,7.279-7.279    C29.418,55.928,26.16,52.669,22.14,52.669z M22.14,63.565c-1.998,0-3.618-1.62-3.618-3.618s1.62-3.618,3.618-3.618    c1.999,0,3.618,1.62,3.618,3.618S24.138,63.565,22.14,63.565z"/><path d="M78.676,52.669c-4.021,0-7.279,3.259-7.279,7.278c0,4.021,3.258,7.279,7.279,7.279c4.02,0,7.279-3.259,7.279-7.279    C85.955,55.928,82.695,52.669,78.676,52.669z M78.676,63.565c-1.999,0-3.618-1.62-3.618-3.618s1.619-3.618,3.618-3.618    c1.998,0,3.617,1.62,3.617,3.618S80.674,63.565,78.676,63.565z"/></g></g><g display="none"><path display="inline" d="M81.299,13H18.7c-1.755,0-3.178,1.423-3.178,3.179v67.643c0,1.755,1.423,3.179,3.178,3.179h62.599   c1.755,0,3.179-1.424,3.179-3.179V16.179C84.478,14.423,83.054,13,81.299,13z M27.295,79.944c0,0.439-0.355,0.794-0.794,0.794   h-5.326c-0.438,0-0.794-0.354-0.794-0.794v-4.951c0-0.439,0.355-0.795,0.794-0.795h5.326c0.438,0,0.794,0.355,0.794,0.795V79.944z    M27.295,69.199c0,0.439-0.355,0.794-0.794,0.794h-5.326c-0.438,0-0.794-0.354-0.794-0.794v-4.951c0-0.438,0.355-0.795,0.794-0.795   h5.326c0.438,0,0.794,0.356,0.794,0.795V69.199z M27.295,58.455c0,0.439-0.355,0.794-0.794,0.794h-5.326   c-0.438,0-0.794-0.354-0.794-0.794v-4.952c0-0.438,0.355-0.794,0.794-0.794h5.326c0.438,0,0.794,0.355,0.794,0.794V58.455z    M27.295,47.71c0,0.438-0.355,0.794-0.794,0.794h-5.326c-0.438,0-0.794-0.356-0.794-0.794v-4.952c0-0.438,0.355-0.794,0.794-0.794   h5.326c0.438,0,0.794,0.356,0.794,0.794V47.71z M27.295,36.966c0,0.438-0.355,0.794-0.794,0.794h-5.326   c-0.438,0-0.794-0.356-0.794-0.794v-4.952c0-0.438,0.355-0.794,0.794-0.794h5.326c0.438,0,0.794,0.356,0.794,0.794V36.966z    M27.295,26.221c0,0.438-0.355,0.794-0.794,0.794h-5.326c-0.438,0-0.794-0.356-0.794-0.794v-4.952c0-0.438,0.355-0.794,0.794-0.794   h5.326c0.438,0,0.794,0.356,0.794,0.794V26.221z M43.926,60.184V39.815l17.006,10.557L43.926,60.184z M79.713,79.944   c0,0.439-0.356,0.794-0.795,0.794h-5.325c-0.438,0-0.795-0.354-0.795-0.794v-4.951c0-0.439,0.356-0.795,0.795-0.795h5.325   c0.438,0,0.795,0.355,0.795,0.795V79.944z M79.713,69.199c0,0.439-0.356,0.794-0.795,0.794h-5.325   c-0.438,0-0.795-0.354-0.795-0.794v-4.951c0-0.438,0.356-0.795,0.795-0.795h5.325c0.438,0,0.795,0.356,0.795,0.795V69.199z    M79.713,58.455c0,0.439-0.356,0.794-0.795,0.794h-5.325c-0.438,0-0.795-0.354-0.795-0.794v-4.952c0-0.438,0.356-0.794,0.795-0.794   h5.325c0.438,0,0.795,0.355,0.795,0.794V58.455z M79.713,47.71c0,0.438-0.356,0.794-0.795,0.794h-5.325   c-0.438,0-0.795-0.356-0.795-0.794v-4.952c0-0.438,0.356-0.794,0.795-0.794h5.325c0.438,0,0.795,0.356,0.795,0.794V47.71z    M79.713,36.966c0,0.438-0.356,0.794-0.795,0.794h-5.325c-0.438,0-0.795-0.356-0.795-0.794v-4.952c0-0.438,0.356-0.794,0.795-0.794   h5.325c0.438,0,0.795,0.356,0.795,0.794V36.966z M79.713,26.221c0,0.438-0.356,0.794-0.795,0.794h-5.325   c-0.438,0-0.795-0.356-0.795-0.794v-4.952c0-0.438,0.356-0.794,0.795-0.794h5.325c0.438,0,0.795,0.356,0.795,0.794V26.221z"/></g><g display="none"><path display="inline" d="M89.321,43.728c-0.081,0-0.155,0.021-0.235,0.024v-8.728c0-2.729-2.211-4.939-4.939-4.939   s-4.939,2.211-4.939,4.939v-6.272c0-2.729-2.212-4.939-4.94-4.939c-2.728,0-4.939,2.211-4.939,4.939v14.74H30.673v-14.74   c0-2.729-2.211-4.939-4.94-4.939c-2.728,0-4.939,2.211-4.939,4.939v6.272c0-2.729-2.211-4.939-4.94-4.939   c-2.728,0-4.939,2.211-4.939,4.939v8.728c-0.08-0.004-0.154-0.024-0.235-0.024c-3.464,0-6.272,2.809-6.272,6.272   c0,3.465,2.808,6.272,6.272,6.272c0.081,0,0.156-0.021,0.235-0.023v8.727c0,2.729,2.211,4.939,4.939,4.939   c2.729,0,4.94-2.211,4.94-4.939v6.272c0,2.729,2.211,4.939,4.939,4.939c2.729,0,4.94-2.211,4.94-4.939v-14.74h38.654v14.74   c0,2.729,2.212,4.939,4.939,4.939c2.729,0,4.94-2.211,4.94-4.939v-6.272c0,2.729,2.211,4.939,4.939,4.939s4.939-2.211,4.939-4.939   v-8.727c0.08,0.003,0.154,0.023,0.235,0.023c3.465,0,6.272-2.808,6.272-6.272C95.594,46.536,92.786,43.728,89.321,43.728z"/></g><g><g><path d="M82.423,63.395H17.76c0,0-1.767,0-1.767,1.777v7.289c0,3.705,3.002,6.705,6.706,6.705h54.602c3.704,0,6.706-3,6.706-6.705    v-7.289C84.007,63.395,82.423,63.395,82.423,63.395z"/><path d="M84.105,50.977h-68.21c-3.049,0-5.52,2.471-5.52,5.52s2.471,5.52,5.52,5.52h68.21c3.048,0,5.52-2.471,5.52-5.52    S87.153,50.977,84.105,50.977z"/><path d="M17.768,49.892h64.268c1.035,0,1.873-0.838,1.873-1.873c0-1.035-0.838-1.873-1.873-1.873H17.768    c-1.034,0-1.873,0.838-1.873,1.873C15.895,49.054,16.733,49.892,17.768,49.892z"/><path d="M83.815,44.517c0.032-0.403,0.093-0.802,0.093-1.21c0-12.412-15.227-22.474-34.007-22.474    c-18.781,0-34.006,10.062-34.006,22.474c0,0.408,0.06,0.807,0.092,1.21H83.815z M64.416,32.675c0.979,0,1.774,0.795,1.774,1.774    c0,0.98-0.795,1.774-1.774,1.774s-1.774-0.794-1.774-1.774C62.642,33.47,63.437,32.675,64.416,32.675z M51.602,25.545    c0.979,0,1.774,0.795,1.774,1.774c0,0.98-0.795,1.774-1.774,1.774s-1.774-0.794-1.774-1.774    C49.828,26.34,50.622,25.545,51.602,25.545z M36.816,30.9c0.979,0,1.774,0.795,1.774,1.774c0,0.98-0.794,1.774-1.774,1.774    s-1.774-0.794-1.774-1.774C35.042,31.695,35.837,30.9,36.816,30.9z"/></g></g></svg>