<svg xmlns="http://www.w3.org/2000/svg" xmlns:xlink="http://www.w3.org/1999/xlink" version="1.1" x="0px" y="0px" viewBox="0 0 17.386 37.5" style="enable-background:new 0 0 17.386 30;" xml:space="preserve"><g><path d="M17.285,9.759C16.863,4.283,13.165,0,8.664,0C4.161,0,0.462,4.283,0.041,9.759c3.298,0.01,6.315,1.24,8.621,3.264   C10.969,10.999,13.985,9.769,17.285,9.759z M11.114,8.959c-0.101,0.09-0.225,0.134-0.35,0.134c-0.143,0-0.284-0.058-0.387-0.172   c-0.192-0.213-0.177-0.543,0.037-0.736c0.011-0.011,0.021-0.021,0.032-0.029c-0.066-0.046-0.146-0.098-0.211-0.142   C9.859,7.766,9.343,7.427,8.939,6.817C8.496,6.149,8.568,5.618,8.706,5.29c0.399-0.956,1.8-1.255,1.959-1.286   c0.285-0.062,0.555,0.128,0.61,0.41s-0.128,0.556-0.41,0.612c-0.405,0.081-1.066,0.35-1.198,0.668   C9.61,5.83,9.657,6.014,9.809,6.24c0.285,0.433,0.664,0.682,1,0.902c0.357,0.236,0.729,0.479,0.764,0.923   C11.603,8.467,11.325,8.768,11.114,8.959z M14.57,5.769c0.273-0.079,0.563,0.075,0.645,0.351c0.084,0.274-0.073,0.564-0.348,0.648   c-0.255,0.076-0.968,0.394-1.203,0.917c-0.132,0.291-0.108,0.624,0.071,1.018c0.119,0.263,0.004,0.571-0.257,0.691   c-0.071,0.031-0.146,0.047-0.218,0.047c-0.197,0-0.387-0.113-0.475-0.305c-0.308-0.678-0.331-1.312-0.069-1.886   C13.201,6.185,14.514,5.784,14.57,5.769z M10.383,1.707c0.078-0.004,1.949-0.113,2.887,0.966c0.474,0.546,0.621,1.266,0.438,2.138   c-0.052,0.246-0.268,0.416-0.509,0.416c-0.036,0-0.072-0.004-0.108-0.012c-0.281-0.06-0.462-0.335-0.402-0.617   c0.113-0.544,0.046-0.949-0.204-1.24c-0.495-0.572-1.64-0.633-2.035-0.608C10.17,2.781,9.915,2.547,9.897,2.261   C9.879,1.973,10.096,1.726,10.383,1.707z M6.226,4.892c0.359-0.183,0.566-0.412,0.635-0.7c0.133-0.554-0.263-1.257-0.427-1.48   C6.265,2.479,6.315,2.152,6.546,1.982c0.232-0.168,0.555-0.122,0.729,0.11c0.088,0.12,0.865,1.214,0.602,2.335   C7.78,4.838,7.498,5.412,6.7,5.82C6.626,5.859,6.543,5.877,6.463,5.877c-0.189,0-0.371-0.104-0.464-0.284   C5.868,5.338,5.97,5.022,6.226,4.892z M4.601,3.464c0.316,0,0.572,0.278,0.572,0.62s-0.256,0.62-0.572,0.62   c-0.315,0-0.571-0.278-0.571-0.62S4.285,3.464,4.601,3.464z M1.64,8.919c-0.312,0-0.563-0.297-0.563-0.663S1.328,7.594,1.64,7.594   c0.313,0,0.565,0.296,0.565,0.662S1.952,8.919,1.64,8.919z M7.246,9.959C7.23,9.96,7.216,9.962,7.2,9.962   c-0.268,0-0.494-0.205-0.519-0.477C6.658,9.197,6.593,8.998,6.501,8.927c-0.203-0.159-0.852-0.053-1.537,0.06   C4.763,9.02,4.549,9.055,4.323,9.088C3.583,9.197,3.172,8.913,2.96,8.656C2.307,7.86,2.784,6.383,2.888,6.094   c0.095-0.27,0.387-0.413,0.664-0.316C3.823,5.874,3.966,6.17,3.87,6.443C3.674,6.998,3.583,7.772,3.766,7.994   c0.076,0.093,0.285,0.078,0.407,0.062c0.219-0.031,0.426-0.066,0.623-0.098c0.996-0.164,1.782-0.293,2.346,0.146   C7.479,8.367,7.669,8.79,7.721,9.396C7.745,9.683,7.532,9.935,7.246,9.959z M7.438,7.594c-0.277,0-0.503-0.234-0.503-0.525   c0-0.29,0.226-0.525,0.503-0.525c0.276,0,0.502,0.235,0.502,0.525C7.94,7.359,7.715,7.594,7.438,7.594z M8.157,1.772   c0-0.348,0.207-0.63,0.463-0.63c0.255,0,0.462,0.282,0.462,0.63s-0.207,0.63-0.462,0.63C8.364,2.402,8.157,2.12,8.157,1.772z    M9.318,9.44c0.424,0,0.769,0.408,0.769,0.912s-0.345,0.912-0.769,0.912c-0.427,0-0.771-0.408-0.771-0.912S8.892,9.44,9.318,9.44z"/><path d="M0,10.801L2.705,27.8C2.839,28.621,3,29.291,4,29.626v-6.714c0-3.564,1.511-6.803,3.822-9.174   C5.701,11.908,3.022,10.801,0,10.801z"/><path d="M5,22.912V30h7.109c1.203,0,2.236-0.941,2.431-2.129l2.679-17.032C10.529,10.839,5,16.223,5,22.912z"/></g></svg>