<svg xmlns="http://www.w3.org/2000/svg" xmlns:xlink="http://www.w3.org/1999/xlink" xml:space="preserve" version="1.1" style="shape-rendering:geometricPrecision;text-rendering:geometricPrecision;image-rendering:optimizeQuality;" viewBox="0 0 333 416.25" x="0px" y="0px" fill-rule="evenodd" clip-rule="evenodd"><defs><style type="text/css">
   
    .str0 {stroke:black;stroke-width:16.6654}
    .str1 {stroke:black;stroke-width:13.3307;stroke-linecap:round;stroke-linejoin:round}
    .fil1 {fill:none}
    .fil0 {fill:black}
   
  </style></defs><g><path class="fil0" d="M277 119l-177 0 0 100c0,22 18,40 41,40l97 0c21,0 39,-17 39,-38l0 -102z"/><path class="fil0" d="M284 275l-194 0 0 13c0,6 5,11 11,11l172 0c6,0 11,-5 11,-11l0 -13z"/><path class="fil1 str0" d="M108 142l-33 0c-16,0 -29,13 -29,29l0 7c0,17 14,32 31,32l31 0c8,0 15,-7 15,-16l0 -36c0,-9 -7,-16 -15,-16z"/><path class="fil1 str1" d="M219 98c-18,-7 -26,-21 -7,-33 16,-10 11,-28 -6,-34"/><path class="fil1 str1" d="M172 98c-19,-7 -26,-21 -7,-33 15,-10 10,-28 -7,-34"/></g></svg>