<svg xmlns="http://www.w3.org/2000/svg" xmlns:xlink="http://www.w3.org/1999/xlink" version="1.1" x="0px" y="0px" viewBox="0 0 100 125" enable-background="new 0 0 100 100" xml:space="preserve"><path d="M4.4,47.4v12.9c0,0,84.5-2,86.1-2.2c1.5-0.2,3.9,5.8,1.5,5.8C89.6,64,4.4,66.1,4.4,66.1v7.1c0,0,84.5-2,86.1-2.2  c1.5-0.2,3.9,5.8,1.5,5.8C89.6,76.9,4.4,79,4.4,79v10.7l91.3-2.2V44.2L4.4,47.4z"/><path d="M72.9,17.1l1.3-10.8c0-0.8-1.8-0.4-1.8-0.4c1.2,2.1,0.2,8.5-0.3,10.9c-0.8-0.2-1.6-0.3-2.4-0.3c-5.7,0-10.2,4.6-10.2,10.2  S64.1,37,69.7,37S80,32.5,80,26.8C80,22.3,77,18.4,72.9,17.1z"/><g><path d="M80.5,27c-0.1,5.9-4.8,10.6-10.7,10.6c-5.9,0-10.7-4.8-10.7-10.7c0-1.1,0.2-2.1,0.4-3.1L4.4,45.4l91.3-2.9   C95.7,42.5,94.3,33.8,80.5,27z"/></g></svg>