<svg xmlns:dc="http://purl.org/dc/elements/1.1/" xmlns:cc="http://creativecommons.org/ns#" xmlns:rdf="http://www.w3.org/1999/02/22-rdf-syntax-ns#" xmlns:svg="http://www.w3.org/2000/svg" xmlns="http://www.w3.org/2000/svg" xmlns:sodipodi="http://sodipodi.sourceforge.net/DTD/sodipodi-0.dtd" xmlns:inkscape="http://www.inkscape.org/namespaces/inkscape" version="1.1" x="0px" y="0px" viewBox="0 0 100 125"><g transform="translate(0,-952.36218)"><path style="text-indent:0;text-transform:none;direction:ltr;block-progression:tb;baseline-shift:baseline;color:#000000;enable-background:accumulate;" d="m 51.5,961.40908 c 8.1855,0.72539 14.71599,7.30095 15.40625,15.5 -0.69781,-0.21371 -1.3544,-0.34742 -1.96875,-0.34375 -0.78527,0.005 -1.50115,0.18292 -2.125,0.53125 -1.42593,0.79618 -2.21969,2.28571 -2.71875,3.90625 -0.99812,3.24109 -0.92778,7.38408 -1.0625,9.75 -7e-4,0.0208 -7e-4,0.0417 0,0.0625 0.0435,3.69376 -0.50656,6.34736 -1.25,7.93746 -0.37172,0.7951 -0.76281,1.31411 -1.125,1.59381 -0.3622,0.2797 -0.64392,0.3498 -0.9375,0.3125 -0.58718,-0.075 -1.54447,-0.83021 -2.3125,-2.68751 -0.76803,-1.8573 -1.32479,-4.7008 -1.28125,-8.46876 -0.016,-2.24691 -0.53828,-3.93698 -1.46875,-5.09375 -0.93047,-1.15678 -2.29566,-1.7103 -3.59375,-1.625 -2.58006,0.16955 -4.89642,2.54612 -5.125,5.96875 -0.36703,2.35746 -1.02851,3.97036 -1.71875,4.87496 -0.69322,0.9086 -1.31192,1.1293 -2.03125,1.0625 -1.43868,-0.1335 -3.69288,-2.1708 -5.15625,-6.03121 -0.009,-0.0317 -0.0193,-0.063 -0.0312,-0.0937 l 0,-10.21875 c 0,-0.22108 0.0236,-0.43828 0.0312,-0.65625 9.7158,-0.40054 17.88713,-6.83235 18.46875,-16.28125 z" fill="#000000" fill-opacity="1" fill-rule="evenodd" stroke="none" marker="none" visibility="visible" display="inline" overflow="visible"/><path style="text-indent:0;text-transform:none;direction:ltr;block-progression:tb;baseline-shift:baseline;color:#000000;enable-background:accumulate;" d="m 64.78125,978.56533 c 0.56808,-0.0399 1.2937,0.0763 2.21875,0.46875 l 0,39.31252 -34,0 0,-25.37501 c 1.40743,2.1672 3.09417,3.5418 5,3.7187 1.40982,0.1309 2.81387,-0.5662 3.8125,-1.875 0.99863,-1.3087 1.69515,-3.1967 2.09375,-5.78121 0.0119,-0.0307 0.0224,-0.062 0.0312,-0.0937 0.15407,-2.61758 1.87981,-4.06416 3.28125,-4.15625 0.70071,-0.0461 1.31754,0.18195 1.875,0.875 0.55747,0.69305 1.01746,1.90754 1.03125,3.84375 -0.0439,3.95871 0.52539,7.04431 1.4375,9.25001 0.91358,2.20921 2.22148,3.66071 3.90625,3.87501 0.84238,0.1071 1.70627,-0.147 2.40625,-0.6875 0.69999,-0.5405 1.24966,-1.3404 1.71875,-2.34381 0.93538,-2.0006 1.47978,-4.9017 1.4375,-8.78121 0.14143,-2.5197 0.13056,-6.497 0.96875,-9.21875 0.42089,-1.36669 1.03178,-2.33152 1.78125,-2.75 0.28106,-0.15693 0.60672,-0.2536 1,-0.28125 z" fill="#000000" fill-opacity="1" fill-rule="evenodd" stroke="none" marker="none" visibility="visible" display="inline" overflow="visible"/><path style="text-indent:0;text-transform:none;direction:ltr;block-progression:tb;baseline-shift:baseline;color:#000000;enable-background:accumulate;" d="m 46,1020.3466 8,0 0,22.9687 -8,0 z" fill="#000000" fill-opacity="1" fill-rule="evenodd" stroke="none" marker="none" visibility="visible" display="inline" overflow="visible"/></g></svg>