<svg xmlns:dc="http://purl.org/dc/elements/1.1/" xmlns:cc="http://creativecommons.org/ns#" xmlns:rdf="http://www.w3.org/1999/02/22-rdf-syntax-ns#" xmlns:svg="http://www.w3.org/2000/svg" xmlns="http://www.w3.org/2000/svg" xmlns:sodipodi="http://sodipodi.sourceforge.net/DTD/sodipodi-0.dtd" xmlns:inkscape="http://www.inkscape.org/namespaces/inkscape" viewBox="0 0 837.47001 396.97626249999996" version="1.1" x="0px" y="0px"><g transform="translate(-29.815005,-331.125)"><path style="" d="m 448.36901,331.125 c -12.289,0 -24.325,0.177 -36.364,0.364 -26.13,0.434 -51.552,1.721 -75.882,3.273 -24.576,1.675 -47.896,3.876 -70.426,6.544 -28.671,3.228 -55.909,7.346 -80.485,12.001 -0.187,0 -0.419,0.05 -0.605,0.122 -31.281,6.205 -58.071,21.563 -80.972,40.243 -1.801,1.428 -3.712005,2.766 -5.698005,3.757 -28.175,13.592 -68.122,17.613 -68.122,34.182 0,16.385 39.952,20.349 67.879,33.942 10.490005,5.088 18.373005,18.392 28.366005,30.06 6.95,7.821 15.196,14.966 26.181,17.698 9.745,2.544 21.226,-0.11 33.576,-3.759 15.144,-4.157 31.483,-9.569 45.82,-7.273 11.793,1.925 22.827,10.892 34.06,19.395 10.489,7.821 21.595,15.303 33.82,16.607 11.544,1.056 24.123,-4.538 36.97,-10.062 13.032,-5.956 26.369,-11.953 39.153,-11.394 12.04,0.435 23.84,7.532 35.88,14.546 12.041,6.951 24.312,13.819 36.849,13.819 12.536,0 24.809,-6.806 36.848,-13.819 12.04,-7.014 23.841,-14.111 35.881,-14.546 12.847,-0.62 26.177,5.438 39.274,11.394 12.784,5.524 25.667,11.118 37.211,10.062 12.288,-1.304 23.275,-8.786 33.577,-16.607 11.295,-8.503 22.27,-17.408 34.062,-19.395 14.335,-2.295 30.676,3.116 45.818,7.273 12.289,3.663 23.833,6.303 33.576,3.759 10.985,-2.732 19.294,-9.877 26.183,-17.698 9.993,-11.668 17.876,-24.972 28.365,-30.06 27.928,-13.593 68.121,-17.557 68.121,-33.942 -0.121,-16.509 -40.315,-20.59 -68.242,-34.182 -2.11,-1.055 -4.198,-2.386 -6.183,-4 -22.528,-18.741 -49.515,-33.795 -80.607,-40 -0.311,-0.07 -0.538,-0.05 -0.849,-0.122 -24.576,-4.655 -51.451,-8.834 -80.124,-12.001 -22.528,-2.73 -46.21,-4.869 -70.788,-6.544 -24.328,-1.489 -49.631,-2.839 -75.758,-3.273 -12.04,-0.187 -24.077,-0.364 -36.365,-0.364 z m -2.424,34.303 c 7.324,-0.248 13.981,16.129 14.788,36.486 0.868,20.418 -4.436,37.085 -11.759,37.335 -7.322,0.185 -13.86,-16.251 -14.667,-36.608 -0.806,-20.356 4.376,-37.027 11.638,-37.213 z m -143.519,8.969 c 6.331,2.98 1.619,19.828 -10.546,37.578 -12.102,17.749 -26.942,29.767 -33.333,26.787 -6.394,-2.978 -1.799,-19.703 10.303,-37.453 12.102,-17.752 27.183,-29.828 33.576,-26.912 z m 290.188,0 c 6.393,-2.978 21.475,9.04 33.575,26.788 12.103,17.752 16.635,34.54 10.306,37.456 -6.393,2.979 -21.355,-8.917 -33.456,-26.666 -12.103,-17.75 -16.755,-34.598 -10.425,-37.578 z m 255.521,95.64 c -3.601,1.304 -7.43,2.575 -11.153,3.88 -10.178,3.226 -20.471,6.263 -28.849,10.544 -3.165,1.427 -8.62,8.718 -13.212,14.304 -2.546,3.6 -5.386,7.132 -8.364,10.544 -7.572,8.628 -19.466,20.08 -37.091,24.487 -14.956,3.848 -30.832,0.04 -44.486,-3.879 l -3.758,-1.333 c -11.978,-3.415 -24.47,-6.945 -32.849,-5.455 -5.647,0.807 -14.112,7.372 -22.304,13.454 l -2.545,1.939 c -12.598,9.621 -26.627,18.931 -43.88,20.608 -17.191,1.426 -33.423,-5.308 -47.758,-11.637 -11.544,-5.276 -22.374,-10.318 -29.699,-9.698 -6.516,0.249 -15.792,5.513 -24.606,10.789 -13.901,8.005 -30.284,17.576 -49.212,17.576 -17.438,0 -32.373,-7.794 -47.517,-16.606 -10.674,-6.393 -19.73,-11.572 -26.06,-11.759 -7.572,0.249 -18.67,4.372 -28.972,9.213 -15.515,6.701 -31.551,13.489 -48.121,12.001 -18.06,-1.676 -32.567,-11.609 -44.607,-20.608 l -2.667,-1.939 c -7.943,-6.082 -16.413,-12.526 -22.06,-13.333 -8.379,-1.304 -20.751,2.04 -32.728,5.455 l -4.244,1.333 c -13.839,4.158 -29.277,7.727 -44.607,3.879 -17.438,-4.345 -29.161,-15.925 -36.486,-24.365 -3.164,-3.6 -5.874,-7.189 -8.604,-10.787 -4.407005,-5.649 -9.861005,-12.756 -13.214005,-14.183 -8.191,-4.221 -18.551,-7.38 -28.605,-10.547 -3.54,-1.302 -7.311,-2.333 -10.911,-3.635 l 88.246005,178.427 622.678,0 88.245,-178.669 z" fill="#000000"/></g></svg>