<svg xmlns="http://www.w3.org/2000/svg" xmlns:xlink="http://www.w3.org/1999/xlink" xml:space="preserve" version="1.1" style="shape-rendering:geometricPrecision;text-rendering:geometricPrecision;image-rendering:optimizeQuality;" viewBox="0 0 457 737.5" x="0px" y="0px" fill-rule="evenodd" clip-rule="evenodd"><defs><style type="text/css">
   
    .fil0 {fill:black}
   
  </style></defs><g><path class="fil0" d="M421 586c-10,6 -21,7 -29,-2l-235 -357c-23,14 -44,-1 -57,-20l-98 -146c-7,-11 6,-18 13,-9l98 146c6,8 16,2 11,-7 -33,-49 -66,-98 -98,-146 -7,-10 6,-19 13,-8l103 153c6,8 17,0 12,-9l-105 -151c-8,-10 5,-19 12,-9 33,48 67,96 100,145 7,7 16,0 11,-8l-100 -145c-6,-10 5,-19 13,-9l100 145c13,19 20,44 -2,60l246 349c6,11 1,21 -8,28z"/></g><g><path class="fil0" d="M282 182c-13,-27 -8,-64 15,-98 44,-64 107,-90 139,-67 31,22 29,91 -15,154 -25,35 -58,51 -88,48 -41,-4 -222,309 -257,363 -22,0 -30,-5 -37,-26 39,-56 261,-332 243,-374z"/></g></svg>