<svg xmlns="http://www.w3.org/2000/svg" xmlns:xlink="http://www.w3.org/1999/xlink" version="1.1" x="0px" y="0px" viewBox="0 0 100 125" enable-background="new 0 0 100 100" xml:space="preserve"><g><polygon points="86.943,24.265 86.943,24.444 81.742,28.748 81.742,47.758 86.943,52.062 86.943,75.735 92.145,75.735    92.145,24.265  "/><polygon points="24.354,40.943 21.307,40.943 21.307,24.265 16.104,24.265 16.104,40.943 13.057,40.943 13.057,24.265    7.855,28.568 7.855,44.171 7.856,44.171 7.856,46.144 16.285,46.144 16.285,75.735 21.485,75.735 21.485,46.144 29.556,46.144    29.556,43.544 29.556,40.943 29.556,28.568 24.354,24.265  "/><polygon points="72.865,28.39 37.895,28.39 37.895,33.321 32.963,33.321 32.963,68.293 37.895,68.293 37.895,73.223 72.865,73.223    72.865,68.293 77.797,68.293 77.797,33.321 72.865,33.321  "/></g></svg>