<svg xmlns="http://www.w3.org/2000/svg" xmlns:xlink="http://www.w3.org/1999/xlink" version="1.1" x="0px" y="0px" viewBox="0 0 67.399 84.24875" enable-background="new 0 0 67.399 67.399" xml:space="preserve"><path d="M65.629,8.641c-1.409-1.411-3.346-1.97-5.179-1.692c0.279-1.833-0.279-3.768-1.692-5.179c-2.357-2.359-6.182-2.359-8.538,0  c-1.809,1.808-2.226,4.478-1.258,6.689c0.434,3.864-1.233,5.274-1.662,5.57l-1.468-1.466c-5.171-5.171-12.02-5.147-17.218-1.51  c-2.578,1.804-5.526,3.965-9.617,8.056c-4.253,4.253-6.237,6.764-7.836,9.397c-3.214,5.293-3.663,12.045,1.509,17.219l1.448,1.448  L14.091,47.2c0,0-1.208,2.26-5.633,1.763c-2.21-0.967-4.88-0.552-6.688,1.257c-2.359,2.358-2.359,6.182,0,8.539  c1.411,1.412,3.346,1.972,5.179,1.693c-0.278,1.832,0.281,3.768,1.692,5.178c2.358,2.359,6.182,2.359,8.539,0  c1.766-1.766,2.209-4.353,1.33-6.53c-0.101-0.809-0.376-4.126,1.449-6.088l2.598,2.596c5.171,5.172,11.922,4.724,17.217,1.51  c2.635-1.598,4.652-3.092,9.398-7.836c4.744-4.745,6.37-6.948,8.057-9.617c3.331-5.283,3.659-12.045-1.512-17.217l-2.591-2.591  c1.975-1.711,5.179-1.444,5.973-1.346c2.177,0.879,4.766,0.436,6.53-1.33C67.989,14.822,67.989,11,65.629,8.641z M31.549,29.387  c-0.168,6.287-1.896,9.923-1.896,9.923c-1.735-3.021-2.308-6.165-2.277-9.061c-4.867,0.71-7.888,0.082-7.888,0.082  c2.552-2.413,5.504-3.704,8.348-4.346c0.845-4.22,2.557-7.204,2.557-7.204c0.577,2.415,0.904,4.653,1.06,6.699  c4.575-0.278,8.17,0.774,8.17,0.774C36.708,27.735,33.989,28.729,31.549,29.387z"/></svg>