<svg xmlns="http://www.w3.org/2000/svg" xmlns:xlink="http://www.w3.org/1999/xlink" version="1.1" x="0px" y="0px" viewBox="0 0 100 125" style="enable-background:new 0 0 100 100;" xml:space="preserve"><path d="M21.8,68.5H31c3.3,0,5.9-2.7,5.9-5.9v-9.2c0-3.3-2.7-5.9-5.9-5.9h-9.2c-3.3,0-5.9,2.7-5.9,5.9v9.2  C15.9,65.9,18.6,68.5,21.8,68.5z M17.9,53.4c0-2.2,1.8-3.9,3.9-3.9H31c2.2,0,3.9,1.8,3.9,3.9v9.2c0,2.2-1.8,3.9-3.9,3.9h-9.2  c-2.2,0-3.9-1.8-3.9-3.9V53.4z"/><path d="M26.4,64.9c3.8,0,6.9-3.1,6.9-6.9c0-3.8-3.1-6.9-6.9-6.9c-3.8,0-6.9,3.1-6.9,6.9C19.6,61.8,22.7,64.9,26.4,64.9z M22.7,57.1  c0.3-0.2,0.5-0.3,0.9-0.3s0.6,0.1,0.9,0.3c0.4,0.3,1,0.6,2,0.6s1.6-0.4,2-0.6c0.3-0.2,0.5-0.3,0.9-0.3c0.4,0,0.6,0.1,0.9,0.3  c0.3,0.2,0.6,0.4,1.1,0.5c0,0.1,0,0.3,0,0.4c0,0.1,0,0.2,0,0.3c-0.5,0.1-0.8,0.3-1.1,0.5c-0.3,0.2-0.5,0.3-0.9,0.3s-0.6-0.1-0.9-0.3  c-0.4-0.3-1-0.6-2-0.6s-1.6,0.4-2,0.6c-0.3,0.2-0.5,0.3-0.9,0.3c-0.4,0-0.6-0.1-0.9-0.3c-0.3-0.2-0.6-0.4-1.1-0.5c0-0.1,0-0.2,0-0.3  c0-0.1,0-0.3,0-0.4C22.1,57.5,22.5,57.3,22.7,57.1z M26.4,62.9c-1.6,0-3-0.8-3.9-1.9c0.3,0.1,0.6,0.2,1,0.2c1,0,1.6-0.4,2-0.6  c0.3-0.2,0.5-0.3,0.9-0.3c0.4,0,0.6,0.1,0.9,0.3c0.4,0.3,1,0.6,2,0.6c0.4,0,0.7-0.1,1-0.2C29.4,62.1,28,62.9,26.4,62.9z M26.4,53.1  c1.5,0,2.8,0.7,3.7,1.8c-0.3-0.1-0.5-0.1-0.9-0.1c-1,0-1.6,0.4-2,0.6c-0.3,0.2-0.5,0.3-0.9,0.3s-0.6-0.1-0.9-0.3  c-0.4-0.3-1-0.6-2-0.6c-0.3,0-0.6,0.1-0.9,0.1C23.6,53.8,24.9,53.1,26.4,53.1z"/><path d="M89.9,71.2l-43.4,6l-34.4-3.7c-0.6-0.1-1,0.3-1.1,0.9s0.3,1,0.9,1.1l26.4,2.8l-23.6,3.2c-0.5,0.1-0.9,0.6-0.9,1.1  c0.1,0.5,0.5,0.9,1,0.9c0,0,0.1,0,0.1,0l31.6-4.3l42.2,4.5c0,0,0.1,0,0.1,0c0.5,0,0.9-0.4,1-0.9c0.1-0.5-0.3-1-0.9-1.1L54.7,78  l35.5-4.9c0.5-0.1,0.9-0.6,0.9-1.1S90.5,71.1,89.9,71.2z"/><path d="M79.3,44.7H68.7c-3.7,0-6.7,3-6.7,6.7V62c0,3.7,3,6.7,6.7,6.7h10.6c3.7,0,6.7-3,6.7-6.7V51.4C86,47.7,83,44.7,79.3,44.7z   M84,62c0,2.6-2.1,4.7-4.7,4.7H68.7c-2.6,0-4.7-2.1-4.7-4.7V51.4c0-2.6,2.1-4.7,4.7-4.7h10.6c2.6,0,4.7,2.1,4.7,4.7V62z"/><path d="M74,50c-3.7,0-6.7,3-6.7,6.7c0,3.7,3,6.7,6.7,6.7c3.7,0,6.7-3,6.7-6.7C80.7,53,77.7,50,74,50z M72.1,52.4  c0.3-0.1,0.6-0.2,0.9-0.3v9.2c-0.3-0.1-0.6-0.2-0.9-0.3V52.4z M75,52.1c0.3,0.1,0.6,0.2,0.9,0.3V61c-0.3,0.1-0.6,0.2-0.9,0.3V52.1z   M70.1,54v5.3c-0.5-0.8-0.8-1.7-0.8-2.6S69.6,54.8,70.1,54z M77.9,59.3V54c0.5,0.8,0.8,1.7,0.8,2.6S78.4,58.6,77.9,59.3z"/><path d="M68.6,17.5c-3.7,0-6.7,3-6.7,6.7V35c0,3.7,3,6.7,6.7,6.7h10.8c3.7,0,6.7-3,6.7-6.7V24.2c0-3.7-3-6.7-6.7-6.7H68.6z   M79.4,39.7h-2.8v-1.5c0-0.6-0.4-1-1-1s-1,0.4-1,1v1.5h-5.9c-2.6,0-4.7-2.1-4.7-4.7h1.7c0.6,0,1-0.4,1-1s-0.4-1-1-1h-1.7v-8.8  c0-1.9,1.1-3.5,2.6-4.2c-0.4,0.4-0.4,1,0,1.4l1.3,1.3c0.2,0.2,0.5,0.3,0.7,0.3s0.5-0.1,0.7-0.3c0.4-0.4,0.4-1,0-1.4L68,19.9  c-0.2-0.2-0.4-0.3-0.6-0.3c0.4-0.1,0.8-0.2,1.3-0.2h10.8c1,0,2,0.3,2.7,0.9l-0.9,0.9c-0.4,0.4-0.4,1,0,1.4c0.2,0.2,0.5,0.3,0.7,0.3  s0.5-0.1,0.7-0.3l0.8-0.8c0.4,0.7,0.7,1.5,0.7,2.4v5.3h-0.8c-0.6,0-1,0.4-1,1s0.4,1,1,1h0.8V35C84.1,37.6,82,39.7,79.4,39.7z"/><path d="M81.8,29.6c0-0.8-0.1-1.6-0.4-2.3l1.2-1.2c0.4-0.4,0.4-1,0-1.4s-1-0.4-1.4,0l-0.7,0.7c-0.3-0.4-0.6-0.9-1-1.2  c-1.5-1.5-3.4-2.3-5.5-2.3c-0.1,0-0.2,0-0.2,0V21c0-0.6-0.4-1-1-1s-1,0.4-1,1v1.1c-1.2,0.4-2.3,1-3.3,2c-0.3,0.3-0.6,0.6-0.8,0.9  l-1-1c-0.4-0.4-1-0.4-1.4,0s-0.4,1,0,1.4l1.3,1.3c0.1,0.1,0.1,0.1,0.2,0.1c-1.1,2.8-0.5,6,1.8,8.3c1.5,1.5,3.5,2.3,5.5,2.3  s4-0.8,5.5-2.3C81,33.6,81.8,31.7,81.8,29.6z M69.9,33.7c-2.3-2.3-2.3-5.9,0-8.2c1.1-1.1,2.5-1.7,4.1-1.7s3,0.6,4.1,1.7  c1.1,1.1,1.7,2.5,1.7,4.1s-0.6,3-1.7,4.1C75.8,35.9,72.2,35.9,69.9,33.7z"/><path d="M82.6,32.4c-0.6,0-1,0.4-1,1v1.8c0,0.6,0.4,1,1,1s1-0.4,1-1v-1.8C83.6,32.8,83.1,32.4,82.6,32.4z"/><path d="M65.1,27.7c-0.6,0-1,0.4-1,1v1.8c0,0.6,0.4,1,1,1s1-0.4,1-1v-1.8C66.1,28.1,65.6,27.7,65.1,27.7z"/><path d="M72.4,37.5h-1.8c-0.6,0-1,0.4-1,1s0.4,1,1,1h1.8c0.6,0,1-0.4,1-1S73,37.5,72.4,37.5z"/><path d="M78.3,22.9c0.3,0,0.5-0.1,0.7-0.3l1.3-1.3c0.4-0.4,0.4-1,0-1.4s-1-0.4-1.4,0l-1.3,1.3c-0.4,0.4-0.4,1,0,1.4  C77.8,22.8,78,22.9,78.3,22.9z"/><path d="M79.5,36.2l-1.3,1.3c-0.4,0.4-0.4,1,0,1.4c0.2,0.2,0.5,0.3,0.7,0.3s0.5-0.1,0.7-0.3l1.3-1.3c0.4-0.4,0.4-1,0-1.4  S79.9,35.8,79.5,36.2z"/><path d="M67.2,35.6l-1.3,1.3c-0.4,0.4-0.4,1,0,1.4c0.2,0.2,0.5,0.3,0.7,0.3s0.5-0.1,0.7-0.3l1.3-1.3c0.4-0.4,0.4-1,0-1.4  C68.2,35.2,67.6,35.2,67.2,35.6z"/><path d="M44.8,68.7h9.3c3.3,0,6-2.7,6-6v-9.3c0-3.3-2.7-6-6-6h-9.3c-3.3,0-6,2.7-6,6v9.3C38.8,66,41.5,68.7,44.8,68.7z M40.8,53.3  c0-2.2,1.8-4,4-4h9.3c2.2,0,4,1.8,4,4v9.3c0,2.2-1.8,4-4,4h-9.3c-2.2,0-4-1.8-4-4V53.3z"/><path d="M49.5,64c3.3,0,6-2.7,6-6s-2.7-6-6-6s-6,2.7-6,6S46.1,64,49.5,64z M49.5,62c-1.9,0-3.4-1.3-3.9-3h7.8  C52.9,60.8,51.3,62,49.5,62z M49.5,54c1.9,0,3.4,1.3,3.9,3h-7.8C46,55.3,47.6,54,49.5,54z"/><path d="M52.9,45.6c3.7,0,6.6-3,6.6-6.6s-3-6.6-6.6-6.6s-6.6,3-6.6,6.6S49.2,45.6,52.9,45.6z M52.9,34.3c2.6,0,4.6,2.1,4.6,4.6  s-2.1,4.6-4.6,4.6s-4.6-2.1-4.6-4.6S50.3,34.3,52.9,34.3z"/><path d="M52.9,41.9c1.6,0,2.9-1.3,2.9-2.9S54.5,36,52.9,36S50,37.3,50,38.9S51.3,41.9,52.9,41.9z M52.9,38c0.5,0,0.9,0.4,0.9,0.9  s-0.4,0.9-0.9,0.9S52,39.5,52,38.9S52.4,38,52.9,38z"/><path d="M37.9,45.6c3.7,0,6.6-3,6.6-6.6s-3-6.6-6.6-6.6s-6.6,3-6.6,6.6S34.2,45.6,37.9,45.6z M37.9,34.3c2.6,0,4.6,2.1,4.6,4.6  s-2.1,4.6-4.6,4.6s-4.6-2.1-4.6-4.6S35.3,34.3,37.9,34.3z"/><path d="M37.9,41.9c1.6,0,2.9-1.3,2.9-2.9S39.5,36,37.9,36S35,37.3,35,38.9S36.3,41.9,37.9,41.9z M37.9,38c0.5,0,0.9,0.4,0.9,0.9  s-0.4,0.9-0.9,0.9S37,39.5,37,38.9S37.4,38,37.9,38z"/><path d="M22.9,45.6c3.7,0,6.6-3,6.6-6.6s-3-6.6-6.6-6.6s-6.6,3-6.6,6.6S19.2,45.6,22.9,45.6z M22.9,34.3c2.6,0,4.6,2.1,4.6,4.6  s-2.1,4.6-4.6,4.6s-4.6-2.1-4.6-4.6S20.3,34.3,22.9,34.3z"/><path d="M22.9,41.9c1.6,0,2.9-1.3,2.9-2.9S24.5,36,22.9,36s-2.9,1.3-2.9,2.9S21.3,41.9,22.9,41.9z M22.9,38c0.5,0,0.9,0.4,0.9,0.9  s-0.4,0.9-0.9,0.9s-0.9-0.4-0.9-0.9S22.4,38,22.9,38z"/><path d="M52.9,30.6c3.7,0,6.6-3,6.6-6.6s-3-6.6-6.6-6.6s-6.6,3-6.6,6.6S49.2,30.6,52.9,30.6z M52.9,19.3c2.6,0,4.6,2.1,4.6,4.6  s-2.1,4.6-4.6,4.6s-4.6-2.1-4.6-4.6S50.3,19.3,52.9,19.3z"/><path d="M52.9,26.9c1.6,0,2.9-1.3,2.9-2.9S54.5,21,52.9,21S50,22.3,50,24S51.3,26.9,52.9,26.9z M52.9,23c0.5,0,0.9,0.4,0.9,0.9  s-0.4,0.9-0.9,0.9S52,24.5,52,24S52.4,23,52.9,23z"/><path d="M37.9,30.6c3.7,0,6.6-3,6.6-6.6s-3-6.6-6.6-6.6s-6.6,3-6.6,6.6S34.2,30.6,37.9,30.6z M37.9,19.3c2.6,0,4.6,2.1,4.6,4.6  s-2.1,4.6-4.6,4.6s-4.6-2.1-4.6-4.6S35.3,19.3,37.9,19.3z"/><path d="M37.9,26.9c1.6,0,2.9-1.3,2.9-2.9S39.5,21,37.9,21S35,22.3,35,24S36.3,26.9,37.9,26.9z M37.9,23c0.5,0,0.9,0.4,0.9,0.9  s-0.4,0.9-0.9,0.9S37,24.5,37,24S37.4,23,37.9,23z"/><path d="M22.9,30.6c3.7,0,6.6-3,6.6-6.6s-3-6.6-6.6-6.6s-6.6,3-6.6,6.6S19.2,30.6,22.9,30.6z M22.9,19.3c2.6,0,4.6,2.1,4.6,4.6  s-2.1,4.6-4.6,4.6s-4.6-2.1-4.6-4.6S20.3,19.3,22.9,19.3z"/><path d="M22.9,26.9c1.6,0,2.9-1.3,2.9-2.9S24.5,21,22.9,21s-2.9,1.3-2.9,2.9S21.3,26.9,22.9,26.9z M22.9,23c0.5,0,0.9,0.4,0.9,0.9  s-0.4,0.9-0.9,0.9s-0.9-0.4-0.9-0.9S22.4,23,22.9,23z"/></svg>