<svg xmlns="http://www.w3.org/2000/svg" xmlns:xlink="http://www.w3.org/1999/xlink" version="1.1" x="0px" y="0px" viewBox="0 0 100 100" enable-background="new 0 0 100 100" xml:space="preserve"><g><path fill="white" d="M51,81.4V70.1c0,0,0.3-10.7,2-13.4c1.7-2.7,10.2-10.1,10.2-28.3c0-6.7-0.6-7.9-1.7-12.6c0.1-0.1-3.5-2.8-11.4-2.8   s-11.7,2.3-11.7,2.3c-1.1,4.9-1.8,8.8-1.8,13.1c0.2,19.4,8.8,26.2,10.2,28.3c1.5,2.1,2,13.4,2,13.4v11.4c-6,0.1-10.8,1.2-10.8,2.4   c0,1.4,5.3,2.5,11.8,2.5s11.8-1.1,11.8-2.5C61.8,82.6,57.1,81.5,51,81.4z M50,13.7c4.1,0,7.8,0.7,10.3,2c0,1.1-6.3,2-10.3,2   s-10.3-0.9-10.3-2C41.3,14.4,45.9,13.7,50,13.7z M47.8,56.1l-0.2-0.3c-1.6-2.3-9.7-9.2-9.8-27.4c0-4.1,0.5-6.8,1.4-11.5   c0.1-0.4,2.9,1.8,10.8,1.8c8,0,10.7-2.2,10.8-2c1,4.8,1.5,5.8,1.5,11.7c0,17-7.8,24.2-9.8,27.3l-0.3,0.5   C50.3,58.9,49.4,58.3,47.8,56.1z"/><path fill="white" d="M39.7,28.2c0.1,15.2,6,22.1,8.5,25c0.4,0.5,0.7,0.9,1,1.2l0.2,0.3c0.3,0.4,0.9,0.4,1.1,0.1l0.3-0.5   c0.3-0.5,0.8-1.1,1.3-1.7c2.9-3.7,8.2-10.6,8.2-24.5c0,0-3,1.4-10.3,1.4S39.7,28.2,39.7,28.2z"/></g></svg>