<svg xmlns="http://www.w3.org/2000/svg" xmlns:xlink="http://www.w3.org/1999/xlink" version="1.1" x="0px" y="0px" viewBox="-545 370.9 100 125" enable-background="new -545 370.9 100 100" xml:space="preserve"><path fill="white" d="M-502.3,394.3c0,1.6-0.6,3-1.7,4.2c-1.1,1.1-1.1,3,0,4.2c0.6,0.6,1.3,0.9,2.1,0.9c0.8,0,1.5-0.3,2.1-0.9  c2.2-2.2,3.4-5.2,3.4-8.3c0-3.1-1.2-6.1-3.4-8.3c-2.3-2.3-2.3-6,0-8.3c1.1-1.1,1.1-3,0-4.2c-1.1-1.1-3-1.1-4.2,0  c-4.6,4.6-4.6,12.1,0,16.6C-502.9,391.2-502.3,392.7-502.3,394.3z"/><path fill="white" d="M-491.3,398.4c-1.1,1.1-1.1,3,0,4.2c0.6,0.6,1.3,0.9,2.1,0.9c0.8,0,1.5-0.3,2.1-0.9c4.6-4.6,4.6-12.1,0-16.6  c-1.1-1.1-1.7-2.6-1.7-4.2c0-1.6,0.6-3,1.7-4.2c1.1-1.1,1.1-3,0-4.2c-1.1-1.1-3-1.1-4.2,0c-2.2,2.2-3.4,5.2-3.4,8.3  c0,3.1,1.2,6.1,3.4,8.3C-489,392.4-489,396.1-491.3,398.4z"/><path fill="white" d="M-464.3,415.3c-2.1,0-4,0.6-5.6,1.6v-7.5h-26.8h-26.8v22.5c2.1,21.1,16.9,25.3,16.9,25.3h9.9h9.9c0,0,13.2-3.8,16.4-22  c1.7,1.2,3.8,1.9,6.1,1.9c6,0,10.9-4.9,10.9-10.9C-453.5,420.2-458.3,415.3-464.3,415.3z M-464.3,431.2c-2.8,0-5-2.2-5-5  c0-2.8,2.2-5,5-5c2.8,0,5,2.2,5,5C-459.3,429-461.6,431.2-464.3,431.2z"/><path fill="white" d="M-470,459.9h-53.5c-1.6,0-2.9,1.3-2.9,2.9s1.3,2.9,2.9,2.9h8.4c0.1,1.5,1.4,2.7,2.9,2.7h30.9c1.5,0,2.8-1.2,2.9-2.7h8.4  c1.6,0,2.9-1.3,2.9-2.9S-468.4,459.9-470,459.9z"/></svg>