<svg xmlns="http://www.w3.org/2000/svg" xmlns:xlink="http://www.w3.org/1999/xlink" version="1.1" x="0px" y="0px" viewBox="0 0 100 125" enable-background="new 0 0 100 100" xml:space="preserve"><g><path fill="none" d="M50.1,53.235c-1.823,0-3.241,1.422-3.241,3.245c0,1.725,1.418,3.144,3.241,3.144   c1.725,0,3.144-1.217,3.144-3.144C53.243,54.657,51.824,53.235,50.1,53.235z"/><path fill="none" d="M38.038,41.782c-1.114,0-2.228,0.914-2.228,2.232c0,1.114,0.811,2.23,2.228,2.23   c1.32,0,2.434-0.813,2.333-2.23C40.371,42.9,39.152,41.782,38.038,41.782z"/><path fill="none" d="M31.955,50.4c-1.418,0-2.533,1.116-2.533,2.432c0,1.321,1.115,2.535,2.533,2.535   c1.523,0,2.434-1.215,2.434-2.535C34.389,51.516,33.274,50.4,31.955,50.4z"/><path fill="none" d="M61.96,41.782c-1.215,0-2.333,0.914-2.333,2.232c0,1.114,0.811,2.23,2.333,2.23   c1.217,0,2.227-0.813,2.227-2.23C64.187,42.9,63.177,41.782,61.96,41.782z"/><path fill="none" d="M68.043,50.4c-1.318,0-2.533,1.116-2.533,2.432c0,1.321,1.215,2.535,2.533,2.535   c1.215,0,2.432-1.215,2.432-2.535C70.475,51.516,69.258,50.4,68.043,50.4z"/><path fill="white" d="M70.174,40.161c-1.626-3.851-4.26-7.197-7.5-9.429c-1.929,5.07-6.999,8.721-12.879,8.721   c-5.776,0-10.745-3.651-12.771-8.721c-3.245,2.535-5.881,5.578-7.299,9.734c-6.691,1.417-11.556,7.401-11.556,14.497   c0,8.209,6.688,14.595,14.801,14.595c2.329,0,4.966-0.707,6.89-1.826c3.142,1.523,6.387,2.434,9.935,2.434H50.1   c3.55,0,6.79-0.811,9.835-2.434c2.131,1.118,4.358,1.725,7.095,1.725c8.207,0,14.799-6.689,14.799-14.799   C81.83,47.763,76.858,41.782,70.174,40.161z M31.955,55.366c-1.418,0-2.533-1.215-2.533-2.535c0-1.316,1.115-2.432,2.533-2.432   c1.319,0,2.434,1.116,2.434,2.432C34.389,54.152,33.477,55.366,31.955,55.366z M38.038,46.243c-1.418,0-2.228-1.116-2.228-2.23   c0-1.318,1.115-2.232,2.228-2.232c1.115,0,2.333,1.118,2.333,2.232C40.472,45.431,39.358,46.243,38.038,46.243z M50.1,59.624   c-1.823,0-3.241-1.419-3.241-3.144c0-1.823,1.418-3.245,3.241-3.245c1.725,0,3.144,1.422,3.144,3.245   C53.243,58.407,51.824,59.624,50.1,59.624z M61.96,46.243c-1.523,0-2.333-1.116-2.333-2.23c0-1.318,1.118-2.232,2.333-2.232   c1.217,0,2.227,1.118,2.227,2.232C64.187,45.431,63.177,46.243,61.96,46.243z M68.043,55.366c-1.318,0-2.533-1.215-2.533-2.535   c0-1.316,1.215-2.432,2.533-2.432c1.215,0,2.432,1.116,2.432,2.432C70.475,54.152,69.258,55.366,68.043,55.366z"/><path fill="white" d="M59.935,72.393c-3.045,1.321-6.391,2.03-9.835,2.03c-3.548,0-6.893-0.709-9.932-2.131c-2.13,1.017-4.665,1.422-7.097,1.422   c-1.927,0-3.851-0.404-5.678-0.808L31.65,86.18C33.477,91.556,38.443,95,44.019,95h11.964c5.47,0,10.441-3.545,12.159-8.82   l4.464-13.275c-1.727,0.505-3.548,0.808-5.775,0.808C64.594,73.817,62.066,73.31,59.935,72.393z"/><path fill="white" d="M49.695,24.045c-2.131,0-3.852-1.727-3.852-3.853c0.202-1.624-0.303-2.737-0.506-3.851   c-3.852,1.823-6.59,5.674-6.59,10.234c0,6.186,4.969,11.252,11.252,11.252c6.082,0,11.251-5.065,11.251-11.252   c0-5.27-3.644-9.626-8.308-10.843c0.2,1.419,0.404,2.836,0.404,4.459C53.544,22.318,52.026,24.045,49.695,24.045z"/><path fill="white" d="M38.949,7.519c0,0,9.631,2.535,9.631,12.37c0,0.71,0.71,1.417,1.418,1.417c0.506,0,1.317-0.707,1.317-1.417   C51.314,8.13,39.861,5.09,39.861,5.09c-0.708-0.303-1.418,0.202-1.621,0.911C37.733,6.812,38.24,7.519,38.949,7.519z"/></g></svg>