<?xml version="1.0" encoding="iso-8859-1"?>
<!-- Generator: Adobe Illustrator 19.0.0, SVG Export Plug-In . SVG Version: 6.00 Build 0)  -->
<svg xmlns="http://www.w3.org/2000/svg" xmlns:xlink="http://www.w3.org/1999/xlink" version="1.1" id="Layer_1" x="0px" y="0px" viewBox="0 0 439.48 439.48" style="enable-background:new 0 0 439.48 439.48;" xml:space="preserve" width="512" height="512">
<g>
	<g>
		<polygon style="fill:#999999;" points="152.029,261.409 191.419,284.21 220.086,358.21 167.419,386.21 117.419,372.876     92.752,368.876 56.086,317.543 70.689,294.06 99.069,194.85 116.409,256.049 133.739,194.85   "/>
		<polygon style="fill:#999999;" points="343.759,194.85 372.149,294.069 384.086,333.049 326.429,355.543 276.086,358.21     254.752,291.543 290.799,261.409 309.089,194.85 326.429,256.049   "/>
		<polygon style="fill:#CCCCCC;" points="290.799,261.409 287.249,130.899 266.249,205.06 254.249,73.06 233.249,257.119     233.239,257.119 218.645,294.98 209.579,257.119 188.579,73.06 176.579,205.06 155.579,130.899 152.029,261.409 151.079,296.139     151.079,333.049 151.079,352.049 172.086,380.21 221.358,351.094 256.086,378.876 291.749,352.049 291.749,333.049     291.749,296.139   "/>
		<polygon style="fill:#CCCCCC;" points="378.439,271.85 372.149,294.069 361.099,333.049 343.759,271.85 326.429,333.049     309.089,271.85 291.749,333.049 291.749,335.993 224.752,392.21 151.079,333.049 133.739,271.85 116.409,333.049 99.069,271.85     81.729,333.049 70.689,294.06 64.399,271.85 47.059,333.049 49.089,393.64 291.749,393.64 330.752,393.64 393.749,393.64     395.769,333.049   "/>
		<path style="fill:#666666;" d="M233.159,379.639v14h-24v-14c0-6.63,5.37-12,12-12    C227.789,367.639,233.159,373.009,233.159,379.639z"/>
		<polygon style="fill:#B3B3B3;" points="192.939,347.44 189.329,393.639 151.079,393.639 151.079,352.049 172.669,275.849   "/>
		<polygon style="fill:#B3B3B3;" points="291.749,352.049 291.749,393.639 253.499,393.639 249.889,347.44 270.159,275.849   "/>
		<path style="fill:#E6E6E6;" d="M253.499,367.049v26.59h-20.34v-14c0-6.63-5.37-12-12-12c-6.63,0-12,5.37-12,12v14h-19.83v-26.59    l3.61-19.61l16.64-90.32l11.83-64.22l11.83,64.22l16.65,90.32L253.499,367.049z"/>
		<path style="fill:#FFD039;" d="M80.569,21.75c27.75,0,50.24,22.49,50.24,50.24s-22.49,50.25-50.24,50.25s-50.25-22.5-50.25-50.25    S52.819,21.75,80.569,21.75z"/>
		<g>
			<circle style="fill:#666666;" cx="263.669" cy="233.899" r="7.5"/>
			<circle style="fill:#666666;" cx="179.129" cy="233.75" r="7.5"/>
			<circle style="fill:#666666;" cx="68.069" cy="355.899" r="7.5"/>
			<circle style="fill:#666666;" cx="99.069" cy="355.899" r="7.5"/>
			<circle style="fill:#666666;" cx="130.069" cy="355.899" r="7.5"/>
			<circle style="fill:#666666;" cx="312.759" cy="355.899" r="7.5"/>
			<circle style="fill:#666666;" cx="343.759" cy="355.899" r="7.5"/>
			<circle style="fill:#666666;" cx="374.759" cy="355.899" r="7.5"/>
		</g>
		<circle style="fill:#666666;" cx="221.414" cy="293.27" r="7.5"/>
	</g>
	<path style="fill:#EAB932;" d="M80.566,21.74c27.75,0,50.24,22.5,50.24,50.25s-22.49,50.25-50.24,50.25s-50.25-22.5-50.25-50.25   S52.816,21.74,80.566,21.74z"/>
	<path style="fill:#FFD039;" d="M130.806,71.99c0,27.75-22.49,50.25-50.24,50.25c-6.12,0-11.98-1.09-17.4-3.1   c-2.01-5.42-3.1-11.28-3.1-17.4c0-27.75,22.49-50.25,50.25-50.25c6.11,0,11.97,1.09,17.39,3.09   C129.717,60.01,130.806,65.87,130.806,71.99z"/>
	<g>
		<path style="fill:#E6E6E6;" d="M439.48,417.74H0c0-4.43,1.13-8.59,3.12-12.22c1.17-2.14,2.64-4.09,4.35-5.8    c4.61-4.62,10.99-7.47,18.03-7.47h388.48c9.65,0,18.05,5.36,22.38,13.27C438.35,409.15,439.48,413.31,439.48,417.74z"/>
		<path style="fill:#CCCCCC;" d="M439.48,417.74H0c0-4.43,1.13-8.59,3.12-12.22h433.24C438.35,409.15,439.48,413.31,439.48,417.74z"/>
	</g>
</g>















</svg>
