<?xml version="1.0" encoding="iso-8859-1"?>
<!-- Generator: Adobe Illustrator 19.0.0, SVG Export Plug-In . SVG Version: 6.00 Build 0)  -->
<svg xmlns="http://www.w3.org/2000/svg" xmlns:xlink="http://www.w3.org/1999/xlink" version="1.1" id="Layer_1" x="0px" y="0px" viewBox="0 0 439.48 439.48" style="enable-background:new 0 0 439.48 439.48;" xml:space="preserve" width="512" height="512">
<g>
	<polygon style="fill:#ED2E2E;" points="219.735,266.378 175.905,241.058 81.905,241.058 38.065,266.378 21.675,307.358    38.405,307.358 38.405,375.358 125.405,375.358 132.405,375.358 157.905,375.358 193.905,375.358 219.405,375.358 219.405,307.358    236.125,307.358  "/>
	<rect x="157.905" y="328.688" style="fill:#666666;" width="36" height="46.67"/>
	<polygon style="fill:#D82525;" points="115.675,307.358 132.065,266.378 38.065,266.378 21.675,307.358 38.405,307.358    38.405,375.358 125.405,375.358 132.405,375.358 132.405,307.358  "/>
	<path style="fill:#3B9DFF;" d="M368.875,133.738c2.06,2.06,3.33,4.9,3.33,8.03c0,6.27-5.09,11.36-11.36,11.36h-39.16   c-3.14,0-5.98-1.27-8.04-3.33c-2.05-2.06-3.32-4.9-3.32-8.03c0-6.27,5.08-11.36,11.36-11.36h-42.85c-3.14,0-5.98-1.27-8.03-3.33   c-2.06-2.05-3.33-4.89-3.33-8.03c0-6.27,5.08-11.36,11.36-11.36h65.57c3.14,0,5.98,1.27,8.03,3.33c2.06,2.06,3.33,4.9,3.33,8.03   c0,6.28-5.09,11.36-11.36,11.36h16.44C363.985,130.408,366.825,131.678,368.875,133.738z"/>
	<g>
		<path style="fill:#E6E6E6;" d="M387.869,322.292v0.01c-3.97-2.37-8.62-3.72-13.57-3.72c-14.71,0-26.63,11.92-26.63,26.62    l-5.45-25.843l5.45-33.777h29.94h10.26V322.292z"/>
		<polygon style="fill:#3B9DFF;" points="376.886,294.359 353.219,294.359 346.552,323.025 376.219,322.692   "/>
		<path style="fill:#808080;" d="M387.869,322.302c7.82,4.63,13.06,13.15,13.06,22.9c0,14.71-11.93,26.63-26.63,26.63    c-14.71,0-26.63-11.92-26.63-26.63c0-14.7,11.92-26.62,26.63-26.62C379.249,318.582,383.899,319.932,387.869,322.302z"/>
		<rect x="317.164" y="300.896" style="fill:#666666;" width="9" height="29.296"/>
		<rect x="337.745" y="280.082" style="fill:#666666;" width="50.124" height="11"/>
		<path style="fill:#ED2E2E;" d="M347.669,345.202v3.32h-17.53c-2.68-4.75-24.55-4.75-27.23,0l0,0c-3.314,0-6.155-2.366-6.755-5.626    l-1.833-9.964c-0.927-5.04,2.696-9.781,7.803-10.208l45.545-3.812l15.55-0.553L347.669,345.202z"/>
		<path style="fill:#666666;" d="M374.296,376.334c-18.818,0-34.128-15.31-34.128-34.128s15.31-34.128,34.128-34.128    s34.128,15.31,34.128,34.128S393.114,376.334,374.296,376.334z M374.296,323.077c-10.547,0-19.128,8.581-19.128,19.128    s8.581,19.128,19.128,19.128s19.128-8.581,19.128-19.128S384.843,323.077,374.296,323.077z"/>
		<g>
			<path style="fill:#808080;" d="M300.296,348.55c3.194-5.662,9.273-9.476,16.234-9.476c6.961,0,13.028,3.814,16.222,9.476     c1.538,2.706,2.408,5.829,2.408,9.154c0,10.286-8.344,18.63-18.63,18.63c-10.298,0-18.642-8.344-18.642-18.63     C297.888,354.379,298.758,351.256,300.296,348.55z"/>
			<path style="fill:#4D4D4D;" d="M311.287,360.658c1.031,1.827,2.992,3.058,5.238,3.058s4.204-1.231,5.235-3.058     c0.496-0.873,0.777-1.881,0.777-2.954c0-3.319-2.692-6.011-6.011-6.011c-3.323,0-6.015,2.692-6.015,6.011     C310.511,358.777,310.791,359.785,311.287,360.658z"/>
		</g>
		<path style="fill:#4D4D4D;" d="M369.902,344.684c0.865,1.533,2.51,2.565,4.395,2.565s3.527-1.033,4.392-2.565    c0.416-0.732,0.652-1.578,0.652-2.478c0-2.785-2.259-5.043-5.043-5.043c-2.788,0-5.047,2.259-5.047,5.043    C369.251,343.106,369.486,343.951,369.902,344.684z"/>
	</g>
	<path style="fill:#666666;" d="M186.963,281.746v17.612h-22.115v-17.612c0-6.107,4.951-11.058,11.058-11.058h0   C182.012,270.688,186.963,275.639,186.963,281.746z"/>
	<g>
		<path style="fill:#0FBC30;" d="M439.48,399.442H0c0-4.43,1.13-8.59,3.12-12.22c1.17-2.14,2.64-4.09,4.35-5.8    c4.61-4.62,10.99-7.47,18.03-7.47h388.48c9.65,0,18.05,5.36,22.38,13.27C438.35,390.852,439.48,395.012,439.48,399.442z"/>
		<path style="fill:#07A521;" d="M439.48,399.442H0c0-4.43,1.13-8.59,3.12-12.22h433.24    C438.35,390.852,439.48,395.012,439.48,399.442z"/>
	</g>
	<path style="fill:#EAB932;" d="M163.555,90.288c0,27.75-22.49,50.25-50.24,50.25c-6.12,0-11.98-1.09-17.4-3.1   c-19.18-7.07-32.85-25.52-32.85-47.15c0-27.75,22.49-50.25,50.25-50.25c21.63,0,40.06,13.67,47.14,32.84   C162.465,78.308,163.555,84.168,163.555,90.288z"/>
	<path style="fill:#FFD039;" d="M163.555,90.288c0,27.75-22.49,50.25-50.24,50.25c-6.12,0-11.98-1.09-17.4-3.1   c-2.01-5.42-3.1-11.28-3.1-17.4c0-27.75,22.49-50.25,50.25-50.25c6.11,0,11.97,1.09,17.39,3.09   C162.465,78.308,163.555,84.168,163.555,90.288z"/>
</g>















</svg>
