<?xml version="1.0" encoding="iso-8859-1"?>
<!-- Generator: Adobe Illustrator 19.0.0, SVG Export Plug-In . SVG Version: 6.00 Build 0)  -->
<svg xmlns="http://www.w3.org/2000/svg" xmlns:xlink="http://www.w3.org/1999/xlink" version="1.1" id="Layer_1" x="0px" y="0px" viewBox="0 0 439.479 439.479" style="enable-background:new 0 0 439.479 439.479;" xml:space="preserve" width="512" height="512">
<g>
	<g>
		<path style="fill:#FFD039;" d="M299.239,189.688h-9c0,38.874-31.626,70.5-70.5,70.5s-70.5-31.626-70.5-70.5h-9    c0,52.107-42.393,94.5-94.5,94.5v9c47.347,0,87.368-31.958,99.631-75.435c4.795,12.664,12.736,23.786,22.865,32.424v38.511h9    v-31.867c6.816,4.331,14.324,7.664,22.33,9.766v22.101h9v-20.301c3.653,0.516,7.38,0.801,11.174,0.801    c3.791,0,7.515-0.284,11.166-0.8v20.3h9v-22.099c8.006-2.101,15.514-5.434,22.33-9.764v31.862h9v-38.505    c10.133-8.638,18.076-19.763,22.873-32.43c12.263,43.477,52.284,75.435,99.631,75.435v-9    C341.632,284.188,299.239,241.795,299.239,189.688z"/>
		<rect y="281.188" style="fill:#666666;" width="439.479" height="15"/>
		<path style="fill:#808080;" d="M144.739,391.47c-4.143,0-7.5,18.642-7.5,14.5V164.358c0-4.142,3.357-7.5,7.5-7.5    s7.5,3.358,7.5,7.5V405.97C152.239,410.112,148.882,391.47,144.739,391.47z"/>
		<path style="fill:#808080;" d="M294.739,389.47c-4.143,0-7.5,20.642-7.5,16.5V164.358c0-4.142,3.357-7.5,7.5-7.5    s7.5,3.358,7.5,7.5V405.97C302.239,410.112,298.882,389.47,294.739,389.47z"/>
	</g>
	<path style="fill:#3B9DFF;" d="M206.346,85.939h-57.992c8.491,0,15.374-6.883,15.374-15.374v0c0-8.491-6.883-15.374-15.374-15.374   H63.322c-8.491,0-15.374,6.883-15.374,15.374v0c0,8.491,6.883,15.374,15.374,15.374h54.284c-8.491,0-15.374,6.883-15.374,15.374v0   c0,8.491,6.883,15.374,15.374,15.374h88.74c8.491,0,15.374-6.883,15.374-15.374v0C221.72,92.822,214.837,85.939,206.346,85.939z"/>
	<path style="fill:#0FBC30;" d="M0,391.358v-102.67c56.703,0,102.67,45.967,102.67,102.67"/>
	<path style="fill:#0FBC30;" d="M439.478,391.358v-102.67c-56.703,0-102.67,45.967-102.67,102.67"/>
	<circle style="fill:#ED2E2E;" cx="417.242" cy="357.69" r="7.5"/>
	<circle style="fill:#ED2E2E;" cx="403.242" cy="334.69" r="7.5"/>
	<circle style="fill:#ED2E2E;" cx="384.242" cy="357.69" r="7.5"/>
	<circle style="fill:#ED2E2E;" cx="36.242" cy="334.69" r="7.5"/>
	<circle style="fill:#ED2E2E;" cx="55.242" cy="357.69" r="7.5"/>
	<circle style="fill:#ED2E2E;" cx="22.242" cy="357.69" r="7.5"/>
	<circle style="fill:#EAB932;" cx="359.727" cy="68.791" r="50.25"/>
	<path style="fill:#FFD039;" d="M409.977,68.801c0,27.75-22.5,50.24-50.25,50.24c-4.47,0-8.81-0.58-12.94-1.68   c-8.21-7.91-13.31-19.01-13.31-31.31c0-24.03,19.48-43.5,43.5-43.5c12.3,0,23.4,5.1,31.32,13.31   C409.397,59.991,409.977,64.331,409.977,68.801z"/>
	<g>
		<path style="fill:#3B9DFF;" d="M307.622,410.938c15.54,0,20.09,5,29.19,7.93v-28.5c-9.1-2.93-13.65-7.93-29.19-7.93    c-21.97,0-21.97,10-43.95,10c-21.97,0-21.97-10-43.95-10c-21.97,0-21.97,10-43.94,10s-21.97-10-43.94-10    c-15.53,0-20.09,4.99-29.17,7.92v28.5c9.08-2.93,13.64-7.92,29.17-7.92c21.97,0,21.97,10,43.94,10s21.97-10,43.94-10    c21.98,0,21.98,10,43.95,10C285.652,420.938,285.652,410.938,307.622,410.938z"/>
		<path style="fill:#3392D3;" d="M311.352,398.938c13.14,0,18.74,3.29,25.46,6.09v-14.66c-9.1-2.93-13.65-7.93-29.19-7.93    c-21.97,0-21.97,10-43.95,10c-21.97,0-21.97-10-43.95-10c-21.97,0-21.97,10-43.94,10s-21.97-10-43.94-10    c-15.53,0-20.09,4.99-29.17,7.92v14.66c6.71-2.8,12.31-6.08,25.43-6.08c22.91,0,22.91,10,45.81,10c22.91,0,22.91-10,45.81-10    c22.91,0,22.91,10,45.82,10S288.452,398.938,311.352,398.938z"/>
	</g>
	<rect x="0" y="390.358" style="fill:#07A521;" width="102.672" height="28.51"/>
	<rect x="336.806" y="390.358" style="fill:#07A521;" width="102.672" height="28.51"/>
</g>















</svg>
