<?xml version="1.0" encoding="iso-8859-1"?>
<!-- Generator: Adobe Illustrator 19.0.0, SVG Export Plug-In . SVG Version: 6.00 Build 0)  -->
<svg xmlns="http://www.w3.org/2000/svg" xmlns:xlink="http://www.w3.org/1999/xlink" version="1.1" id="Layer_1" x="0px" y="0px" viewBox="0 0 439.48 439.48" style="enable-background:new 0 0 439.48 439.48;" xml:space="preserve" width="512" height="512">
<g>
	<rect x="271.06" y="134.677" style="fill:#B3B3B3;" width="32" height="48.887"/>
	<rect x="271.06" y="143.62" style="fill:#CCCCCC;" width="16.667" height="31"/>
	<polygon style="fill:#CCCCCC;" points="309.06,174.62 309.06,260.287 195.383,260.287 195.383,174.62 273.047,174.62  "/>
	<rect x="170.05" y="134.286" style="fill:#CCCCCC;" width="32" height="130.667"/>
	<polygon style="fill:#B3B3B3;" points="202.05,174.62 202.05,251.62 190.866,251.62 190.866,143.62 202.05,143.62  "/>
	<path style="fill:#ED2E2E;" d="M292.056,108.547V84.622c0-2.761-2.239-5-5-5s-5,2.239-5,5v23.934L261.81,143.62h9.25h32h9.24   L292.056,108.547z"/>
	<path style="fill:#ED2E2E;" d="M191.053,108.554V84.622c0-2.761-2.239-5-5-5s-5,2.239-5,5v23.922L160.8,143.62h9.25h32h9.25   L191.053,108.554z"/>
	<rect x="170.05" y="143.62" style="fill:#B3B3B3;" width="32" height="7.33"/>
	<rect x="271.06" y="143.62" style="fill:#B3B3B3;" width="32" height="7.33"/>
	<polygon style="fill:#999999;" points="307.06,294.62 325.06,297.62 305.25,374.36 34.06,374.36 84.06,328.62 118.06,320.62    151.634,259.656 165.235,251.62 170.05,251.62 202.05,251.62 303.06,251.62 313.06,251.62  "/>
	<path style="fill:#CCCCCC;" d="M319.74,393.34l-14.49,9.52H0c0-5.44,1.52-10.52,4.18-14.85c5-8.19,14.02-13.65,24.32-13.65h276.75   l10.42,13.65L319.74,393.34z"/>
	<path style="fill:#3B9DFF;" d="M439.48,402.86H305.25v-28.5c7.26,2.5,14.51,5,29.04,5c29.05,0,29.05-10,58.08-10   c12.2,0,19.27,1.77,25.53,3.81c7.8,2.55,14.08,7.96,17.81,14.84C438.13,392.46,439.48,397.54,439.48,402.86z"/>
	<path style="fill:#666666;" d="M224.556,209.497c-2.485,0-4.5-2.015-4.5-4.5v-8.75c0-2.485,2.015-4.5,4.5-4.5s4.5,2.015,4.5,4.5   v8.75C229.056,207.482,227.042,209.497,224.556,209.497z"/>
	<path style="fill:#666666;" d="M253.056,209.497c-2.485,0-4.5-2.015-4.5-4.5v-8.75c0-2.485,2.015-4.5,4.5-4.5s4.5,2.015,4.5,4.5   v8.75C257.556,207.482,255.542,209.497,253.056,209.497z"/>
	<path style="fill:#666666;" d="M281.556,209.497c-2.485,0-4.5-2.015-4.5-4.5v-8.75c0-2.485,2.015-4.5,4.5-4.5s4.5,2.015,4.5,4.5   v8.75C286.056,207.482,284.042,209.497,281.556,209.497z"/>
	<path style="fill:#666666;" d="M186.05,172.663c-2.485,0-4.5-2.015-4.5-4.5v-8.75c0-2.485,2.015-4.5,4.5-4.5s4.5,2.015,4.5,4.5   v8.75C190.55,170.649,188.535,172.663,186.05,172.663z"/>
	<path style="fill:#666666;" d="M287.383,172.663c-2.485,0-4.5-2.015-4.5-4.5v-8.75c0-2.485,2.015-4.5,4.5-4.5s4.5,2.015,4.5,4.5   v8.75C291.883,170.649,289.869,172.663,287.383,172.663z"/>
	<polygon style="fill:#808080;" points="307.06,294.62 293.74,282.01 251.321,291.743 281.74,316.676 230.056,296.622    225.056,312.622 178.056,318.622 170.056,348.622 75.073,374.362 305.25,374.362 325.06,297.62  "/>
	<polygon style="fill:#808080;" points="202.05,251.62 310.407,267.343 313.06,251.62  "/>
	<polygon style="fill:#808080;" points="151.634,259.656 137.74,319.343 118.06,320.62  "/>
	<polygon style="fill:#999999;" points="249.073,358.677 263.073,334.677 274.407,351.343  "/>
	<path style="fill:#B3B3B3;" d="M319.74,393.34l-14.49,9.52H0c0-5.44,1.52-10.52,4.18-14.85h311.49L319.74,393.34z"/>
	<path style="fill:#1E79C4;" d="M439.48,402.86H305.25v-14.85h130.46C438.13,392.46,439.48,397.54,439.48,402.86z"/>
	<path style="fill:#666666;" d="M356.879,118.951c-0.537,0.636-1.039,1.296-1.508,1.977c-1.005-1.486-2.146-2.875-3.443-4.094   c-6.334-5.954-14.966-9.021-23.547-6.685c2.593,0.995,5.167,1.807,7.585,3.208c3.423,1.984,6.505,4.539,8.906,7.699   c1.694,2.229,3.109,4.744,4.02,7.398c0.739,2.153,1.261,4.43,1.415,6.706c0.028,0.408-0.148,1.465,0.067,1.809   c0.012,0.019,0.01,0.02,0.018,0.034c-0.002,0.098-0.014,0.195-0.015,0.292c-0.045,3.215,2.923,5.751,6.107,5.034   c2.622-0.59,3.835-2.854,3.853-5.316c0.234-0.58,0.229-2.82,0.315-3.476c0.811-6.127,3.895-11.518,8.24-15.799   c1.906-1.878,4.199-3.512,6.57-4.733c2.251-1.16,4.553-1.959,6.916-2.857C372.888,107.501,363.067,111.616,356.879,118.951z"/>
	<path style="fill:#666666;" d="M88.879,236.951c-0.537,0.636-1.039,1.296-1.508,1.977c-1.005-1.486-2.146-2.875-3.443-4.094   c-6.334-5.954-14.966-9.021-23.547-6.685c2.593,0.995,5.167,1.807,7.585,3.208c3.423,1.984,6.505,4.539,8.906,7.699   c1.694,2.229,3.109,4.744,4.02,7.398c0.739,2.153,1.261,4.43,1.415,6.706c0.028,0.408-0.148,1.465,0.067,1.809   c0.012,0.019,0.01,0.02,0.018,0.034c-0.002,0.098-0.014,0.195-0.015,0.292c-0.045,3.215,2.923,5.751,6.107,5.034   c2.622-0.59,3.835-2.854,3.853-5.316c0.234-0.58,0.229-2.82,0.315-3.476c0.811-6.127,3.895-11.518,8.24-15.799   c1.906-1.878,4.199-3.512,6.57-4.733c2.251-1.16,4.553-1.959,6.916-2.857C104.888,225.501,95.067,229.616,88.879,236.951z"/>
	<path style="fill:#EAB932;" d="M82.06,36.62c27.75,0,50.24,22.5,50.24,50.25s-22.49,50.25-50.24,50.25s-50.25-22.5-50.25-50.25   S54.31,36.62,82.06,36.62z"/>
	<path style="fill:#FFD039;" d="M132.3,86.87c0,27.75-22.49,50.25-50.24,50.25c-6.12,0-11.98-1.09-17.4-3.1   c-2.01-5.42-3.1-11.28-3.1-17.4c0-27.75,22.49-50.25,50.25-50.25c6.11,0,11.97,1.09,17.39,3.09   C131.21,74.89,132.3,80.75,132.3,86.87z"/>
</g>















</svg>
