<?xml version="1.0" encoding="iso-8859-1"?>
<!-- Generator: Adobe Illustrator 19.0.0, SVG Export Plug-In . SVG Version: 6.00 Build 0)  -->
<svg xmlns="http://www.w3.org/2000/svg" xmlns:xlink="http://www.w3.org/1999/xlink" version="1.1" id="Layer_1" x="0px" y="0px" viewBox="0 0 439.48 439.48" style="enable-background:new 0 0 439.48 439.48;" xml:space="preserve" width="512" height="512">
<g>
	<path style="fill:#ED2E2E;" d="M223.503,217.88c5.972,20.817,24.016,36.624,29.74,50.88c6.248,15.562,0.126,28.945,5.46,36.69   l-17.65,18.31h-35.1l-17.65-18.31c5.455-7.929-6.471-15.069-0.06-31.19C193.831,260.207,217.682,238.157,223.503,217.88z"/>
	<g>
		<rect x="36.243" y="331.53" style="fill:#7C4622;" width="11" height="62.12"/>
	</g>
	<g>
		<rect x="392.233" y="331.53" style="fill:#7C4622;" width="11" height="62.12"/>
	</g>
	<circle style="fill:#EAB932;" cx="321.313" cy="77.58" r="50.25"/>
	<path style="fill:#0FBC30;" d="M397.733,238.65c-17.79,0-32.22,46.16-32.22,69.65c0,23.49,14.43,27.73,32.22,27.73   c17.8,0,32.23-4.24,32.23-27.73C429.963,284.81,415.533,238.65,397.733,238.65z"/>
	<path style="fill:#0FBC30;" d="M41.743,238.65c17.79,0,32.22,46.16,32.22,69.65c0,23.49-14.43,27.73-32.22,27.73   c-17.8,0-32.23-4.24-32.23-27.73C9.513,284.81,23.943,238.65,41.743,238.65z"/>
	<path style="fill:#562F15;" d="M392.233,331.53v14.84c1.78,0.11,3.62,0.16,5.5,0.16s3.71-0.05,5.5-0.16v-14.84H392.233z"/>
	<path style="fill:#562F15;" d="M47.243,331.53v14.84c-1.78,0.11-3.62,0.16-5.5,0.16s-3.71-0.05-5.5-0.16v-14.84H47.243z"/>
	<path style="fill:#07A521;" d="M65.742,312.031c-17.8,0-32.23-4.24-32.23-27.73c0-12.243,3.922-30.642,10.195-45.457   c-0.65-0.123-1.305-0.194-1.964-0.194c-17.8,0-32.23,46.16-32.23,69.65s14.43,27.73,32.23,27.73   c16.903,0,30.764-3.841,32.104-24.373C71.257,311.925,68.541,312.031,65.742,312.031z"/>
	<path style="fill:#07A521;" d="M373.734,312.031c17.8,0,32.23-4.24,32.23-27.73c0-12.243-3.922-30.642-10.195-45.457   c0.65-0.123,1.305-0.194,1.964-0.194c17.8,0,32.23,46.16,32.23,69.65s-14.43,27.73-32.23,27.73   c-16.903,0-30.764-3.841-32.104-24.373C368.219,311.925,370.935,312.031,373.734,312.031z"/>
	<path style="fill:#EAB932;" d="M223.503,217.88c-12.5,43.54-24.99,72.73-35.2,87.57l-16.05,16.81h-32.08l-26.91-16.81   C145.243,290.61,184.373,261.42,223.503,217.88z"/>
	<path style="fill:#FFD039;" d="M333.733,305.45l-26.9,12.31h-32.09l-16.04-12.31c-10.22-14.84-22.71-44.03-35.2-87.57   C262.623,261.42,301.753,290.61,333.733,305.45z"/>
	<g>
		<polygon style="fill:#D82525;" points="333.733,305.45 306.833,305.45 291.743,319.26 274.743,305.45 258.703,305.45     245.775,305.45 241.053,305.45 205.953,305.45 201.232,305.45 188.303,305.45 172.253,305.45 156.243,319.26 140.173,305.45     113.263,305.45 111.803,305.45 120.493,389.15 146.443,389.15 176.023,389.15 200.033,389.15 246.963,389.15 270.973,389.15     300.563,389.15 326.513,389.15 335.203,305.45   "/>
	</g>
	<path style="fill:#808080;" d="M228,222.76v-60.78c0-2.485-2.015-4.5-4.5-4.5s-4.5,2.015-4.5,4.5v60.78H228z"/>
	<polygon style="fill:#FFD039;" points="306.833,305.45 300.563,389.15 270.973,389.15 274.743,305.45  "/>
	<path style="fill:#FFD039;" d="M241.053,305.45l-0.67,45.016l-2.46,0.691c-1.21-0.453-2.49-0.691-3.82-0.691h-21.21   c-2,0-3.89,0.548-5.58,1.514l-0.69-1.514l-0.67-45.016H241.053z"/>
	<polygon style="fill:#EAB932;" points="172.253,305.45 176.023,389.15 146.443,389.15 140.173,305.45  "/>
	<polygon style="fill:#ED2E2E;" points="268,182.48 219,201.146 219,182.48 219,163.813  "/>
	<path style="fill:#960E0E;" d="M246.963,356.07v33.08h-46.93v-33.08c0-5.1,2.98-9.51,7.28-11.59c1.69-0.81,3.58-1.27,5.58-1.27   h21.21c1.33,0,2.61,0.2,3.82,0.58C243.163,345.42,246.963,350.3,246.963,356.07z"/>
	<g>
		<path style="fill:#0FBC30;" d="M439.48,412.15H0c0-4.43,1.13-8.59,3.12-12.22c1.17-2.14,2.64-4.09,4.35-5.8    c4.61-4.62,10.99-7.47,18.03-7.47h388.48c9.65,0,18.05,5.36,22.38,13.27C438.35,403.56,439.48,407.72,439.48,412.15z"/>
		<path style="fill:#07A521;" d="M439.48,412.15H0c0-4.43,1.13-8.59,3.12-12.22h433.24C438.35,403.56,439.48,407.72,439.48,412.15z"/>
	</g>
	<path style="fill:#FFD039;" d="M371.563,77.59c0,27.75-22.5,50.24-50.25,50.24c-4.47,0-8.81-0.58-12.94-1.68   c-8.21-7.91-13.31-19.01-13.31-31.31c0-24.03,19.48-43.5,43.5-43.5c12.3,0,23.4,5.1,31.32,13.31   C370.983,68.78,371.563,73.12,371.563,77.59z"/>
</g>















</svg>
