<?xml version="1.0" encoding="iso-8859-1"?>
<!-- Generator: Adobe Illustrator 19.0.0, SVG Export Plug-In . SVG Version: 6.00 Build 0)  -->
<svg xmlns="http://www.w3.org/2000/svg" xmlns:xlink="http://www.w3.org/1999/xlink" version="1.1" id="Layer_1" x="0px" y="0px" viewBox="0 0 440.24 440.24" style="enable-background:new 0 0 440.24 440.24;" xml:space="preserve" width="512" height="512">
<g>
	<g>
		<polygon style="fill:#CCCCCC;" points="215.68,389.022 0.76,389.022 0.76,191.052   "/>
		<path style="fill:#666666;" d="M370.008,122.165c-0.537,0.636-1.039,1.296-1.508,1.977c-1.005-1.486-2.146-2.875-3.443-4.094    c-6.334-5.954-14.966-9.021-23.547-6.685c2.593,0.995,5.167,1.807,7.585,3.208c3.423,1.984,6.505,4.539,8.906,7.699    c1.694,2.229,3.109,4.744,4.02,7.398c0.739,2.153,1.261,4.43,1.415,6.706c0.028,0.408-0.148,1.465,0.067,1.809    c0.012,0.019,0.01,0.02,0.018,0.034c-0.002,0.098-0.014,0.195-0.015,0.292c-0.045,3.215,2.923,5.751,6.107,5.034    c2.622-0.59,3.835-2.854,3.853-5.316c0.234-0.58,0.229-2.82,0.315-3.476c0.811-6.127,3.895-11.518,8.24-15.799    c1.906-1.878,4.199-3.512,6.57-4.733c2.251-1.16,4.553-1.959,6.916-2.857C386.017,110.715,376.196,114.829,370.008,122.165z"/>
		<path style="fill:#666666;" d="M314.484,158.85c-0.407,0.483-0.788,0.983-1.143,1.499c-0.762-1.127-1.627-2.18-2.611-3.105    c-4.804-4.516-11.35-6.841-17.858-5.07c1.967,0.755,3.919,1.37,5.752,2.433c2.596,1.505,4.933,3.443,6.754,5.839    c1.285,1.691,2.357,3.597,3.048,5.61c0.56,1.633,0.956,3.36,1.073,5.086c0.021,0.309-0.112,1.111,0.051,1.372    c0.009,0.014,0.008,0.015,0.014,0.026c-0.002,0.074-0.011,0.148-0.012,0.222c-0.034,2.438,2.217,4.361,4.631,3.818    c1.989-0.447,2.908-2.164,2.922-4.031c0.178-0.44,0.173-2.139,0.239-2.636c0.615-4.647,2.954-8.735,6.249-11.982    c1.446-1.425,3.185-2.663,4.982-3.589c1.707-0.88,3.453-1.485,5.245-2.167C326.625,150.166,319.177,153.287,314.484,158.85z"/>
		<polygon style="fill:#E6E6E6;" points="203.68,306.552 189.53,297.742 175.18,290.052 175.18,242.052 115.18,213.552     105.91,219.731 92.68,228.552 38.69,185.052 0.76,191.052 0.76,278.072 1.5,280.142 64.18,287.052 70.009,302.596 30.5,321.142     101.68,326.052 127.45,389.022 215.68,389.022 215.68,386.042   "/>
		<polygon style="fill:#CCCCCC;" points="127.5,255.142 92.68,228.552 105.91,219.731   "/>
		<polygon style="fill:#CCCCCC;" points="189.53,297.742 171.5,362.142 175.18,290.052   "/>
		<polygon style="fill:#CCCCCC;" points="38.69,185.052 0,238.142 0.76,191.052   "/>
		<polygon style="fill:#ED2E2E;" points="410.691,330.369 389.438,382.24 353.115,367.374   "/>
		
			<rect x="394.749" y="327.95" transform="matrix(0.9254 0.3791 -0.3791 0.9254 168.9837 -124.1437)" style="fill:#CCCCCC;" width="10" height="78.209"/>
		<rect x="0.76" y="387.355" style="fill:#CCCCCC;" width="214.92" height="28.5"/>
		<rect x="0.76" y="399.695" style="fill:#B3B3B3;" width="214.92" height="16.16"/>
		<path style="fill:#3B9DFF;" d="M440.24,406.025c-21.98,0-21.98,10-43.96,10c-21.97,0-21.97-10-43.95-10s-21.98,10-43.95,10    c-21.97,0-21.97-10-43.95-10c-21.97,0-21.97,10-43.95,10c-1.73,0-3.33-0.06-4.81-0.17v-28.5c1.48,0.11,3.08,0.17,4.81,0.17    c21.98,0,21.98-10,43.95-10c21.98,0,21.98,10,43.95,10c21.97,0,21.97-10,43.95-10s21.98,10,43.95,10c6.78,0,11.47-0.95,15.35-2.27    c11.98-4.05,24.32,3.1,27.7,14.49C439.92,401.725,440.24,403.825,440.24,406.025z"/>
		<path style="fill:#3392D3;" d="M440.24,406.025c-21.98,0-21.98,10-43.96,10c-21.97,0-21.97-10-43.95-10s-21.98,10-43.95,10    c-21.97,0-21.97-10-43.95-10c-21.97,0-21.97,10-43.95,10c-1.73,0-3.33-0.06-4.81-0.17v-16.49c1.49,0.1,3.08,0.16,4.81,0.16    c22.91,0,22.91-10,45.82-10s22.91,10,45.81,10c22.91,0,22.91-10,45.82-10c22.91,0,22.91,10,45.82,10c7.06,0,11.95-0.95,16-2.27    c6.98-2.26,14.06-1.03,19.58,2.49C439.92,401.725,440.24,403.825,440.24,406.025z"/>
	</g>
	<path style="fill:#EAB932;" d="M148.036,24.215c27.75,0,50.24,22.5,50.24,50.25s-22.49,50.25-50.24,50.25s-50.25-22.5-50.25-50.25   S120.286,24.215,148.036,24.215z"/>
	<path style="fill:#FFD039;" d="M198.275,74.465c0,27.75-22.49,50.25-50.24,50.25c-6.12,0-11.98-1.09-17.4-3.1   c-2.01-5.42-3.1-11.28-3.1-17.4c0-27.75,22.49-50.25,50.25-50.25c6.11,0,11.97,1.09,17.39,3.09   C197.186,62.485,198.275,68.345,198.275,74.465z"/>
</g>















</svg>
