<?xml version="1.0" encoding="iso-8859-1"?>
<!-- Generator: Adobe Illustrator 19.0.0, SVG Export Plug-In . SVG Version: 6.00 Build 0)  -->
<svg xmlns="http://www.w3.org/2000/svg" xmlns:xlink="http://www.w3.org/1999/xlink" version="1.1" id="Layer_1" x="0px" y="0px" viewBox="0 0 439.48 439.48" style="enable-background:new 0 0 439.48 439.48;" xml:space="preserve" width="512" height="512">
<g>
	<path style="fill:#EAB932;" d="M360.359,25.266c-27.75,0-50.24,22.5-50.24,50.25s22.49,50.25,50.24,50.25s50.25-22.5,50.25-50.25   S388.109,25.266,360.359,25.266z"/>
	<path style="fill:#FFD039;" d="M310.12,75.516c0,27.75,22.49,50.25,50.24,50.25c6.12,0,11.98-1.09,17.4-3.1   c2.01-5.42,3.1-11.28,3.1-17.4c0-27.75-22.49-50.25-50.25-50.25c-6.11,0-11.97,1.09-17.39,3.09   C311.209,63.536,310.12,69.396,310.12,75.516z"/>
	<g>
		<path style="fill:#FFD039;" d="M211.555,252.623v0.01l57.87,138.43h105.24v-138.44H211.555z"/>
		<path style="fill:#FFD039;" d="M269.425,391.063l-28.94-69.22l-28.93-69.21h-0.014l0.014-0.01l-28.93-69.21H64.745v69.21    l0.01,0.01h-0.01v69.21v69.22h21.96h34h24h34h24h34H269.425z"/>
		<path style="fill:#EAB932;" d="M255.155,321.843l-28.93-69.21h-0.02l0.02-0.01h-14.67v0.01l28.93,69.21l28.94,69.22h14.67    L255.155,321.843z"/>
		<rect x="64.745" y="183.413" style="fill:#EAB932;" width="47" height="207.65"/>
		<path style="fill:#666666;" d="M333.375,363.063v28h-34v-28c0-9.39,7.61-17,17-17    C325.765,346.063,333.375,353.673,333.375,363.063z"/>
		<path style="fill:#666666;" d="M236.705,363.063v28h-34v-28c0-9.39,7.61-17,17-17S236.705,353.673,236.705,363.063z"/>
		<path style="fill:#666666;" d="M178.705,363.063v28h-34v-28c0-9.39,7.61-17,17-17S178.705,353.673,178.705,363.063z"/>
		<path style="fill:#666666;" d="M120.705,363.063v28h-34v-28c0-9.39,7.61-17,17-17S120.705,353.673,120.705,363.063z"/>
		<path style="fill:#666666;" d="M352.705,293.843v28h-34v-28c0-9.39,7.61-17,17-17    C345.095,276.843,352.705,284.453,352.705,293.843z"/>
		<path style="fill:#666666;" d="M294.705,293.843v28h-34v-28c0-9.39,7.61-17,17-17    C287.095,276.843,294.705,284.453,294.705,293.843z"/>
		<path style="fill:#666666;" d="M194.705,293.843v28h-34v-28c0-9.39,7.61-17,17-17S194.705,284.453,194.705,293.843z"/>
		<path style="fill:#666666;" d="M120.705,293.843v28h-34v-28c0-9.39,7.61-17,17-17S120.705,284.453,120.705,293.843z"/>
		<path style="fill:#666666;" d="M178.705,224.623v28h-34v-28c0-9.39,7.61-17,17-17S178.705,215.233,178.705,224.623z"/>
		<path style="fill:#666666;" d="M120.705,224.623v28h-34v-28c0-9.39,7.61-17,17-17S120.705,215.233,120.705,224.623z"/>
	</g>
	<g>
		<path style="fill:#CCCCCC;" d="M439.48,414.214H0c0-4.43,1.13-8.59,3.12-12.22c1.17-2.14,2.64-4.09,4.35-5.8    c4.61-4.62,10.99-7.47,18.03-7.47h388.48c9.65,0,18.05,5.36,22.38,13.27C438.35,405.624,439.48,409.784,439.48,414.214z"/>
		<path style="fill:#999999;" d="M439.48,414.214H0c0-4.43,1.13-8.59,3.12-12.22h433.24    C438.35,405.624,439.48,409.784,439.48,414.214z"/>
	</g>
	<g>
		<rect x="51.705" y="183.413" style="fill:#EAB932;" width="29.333" height="10.667"/>
		<rect x="51.705" y="252.623" style="fill:#EAB932;" width="29.333" height="10.667"/>
		<rect x="51.705" y="321.843" style="fill:#EAB932;" width="29.333" height="10.667"/>
		<rect x="358.372" y="252.623" style="fill:#FFD039;" width="29.333" height="10.667"/>
		<rect x="358.372" y="321.843" style="fill:#FFD039;" width="29.333" height="10.667"/>
	</g>
</g>















</svg>
