<?xml version="1.0" encoding="iso-8859-1"?>
<!-- Generator: Adobe Illustrator 19.0.0, SVG Export Plug-In . SVG Version: 6.00 Build 0)  -->
<svg xmlns="http://www.w3.org/2000/svg" xmlns:xlink="http://www.w3.org/1999/xlink" version="1.1" id="Layer_1" x="0px" y="0px" viewBox="0 0 439.48 439.48" style="enable-background:new 0 0 439.48 439.48;" xml:space="preserve" width="512" height="512">
<g>
	<path style="fill:#FFD039;" d="M240.063,263.528c-0.01-0.01-0.02-0.01-0.02-0.01c-64.5,85.49-212.99,137.99-212.99,137.99h73.5   h322.48C351.593,306.268,241.773,264.178,240.063,263.528z"/>
	<path style="fill:#EAB932;" d="M423.033,401.508h-322.48c83.99-12,86.99-31.5,104.99-57s72-22.5,70.5-41.99   c-1.48-19.2-34.93-38.39-35.98-38.99C241.773,264.178,351.593,306.268,423.033,401.508z"/>
	<circle style="fill:#FCDD90;" cx="182.929" cy="90.439" r="72.717"/>
	<path style="fill:#EAB932;" d="M233.173,90.438c0,27.75-22.49,50.25-50.24,50.25c-6.12,0-11.98-1.09-17.4-3.1   c-19.18-7.07-32.85-25.52-32.85-47.15c0-27.75,22.49-50.25,50.25-50.25c21.63,0,40.06,13.67,47.14,32.84   C232.083,78.458,233.173,84.318,233.173,90.438z"/>
	<path style="fill:#FFD039;" d="M233.173,90.438c0,27.75-22.49,50.25-50.24,50.25c-6.12,0-11.98-1.09-17.4-3.1   c-2.01-5.42-3.1-11.28-3.1-17.4c0-27.75,22.49-50.25,50.25-50.25c6.11,0,11.97,1.09,17.39,3.09   C232.083,78.458,233.173,84.318,233.173,90.438z"/>
	<path style="fill:#FFD039;" d="M439.48,421.758H0c0-4.43,1.13-8.59,3.12-12.22c1.17-2.14,2.64-4.09,4.35-5.8   c4.61-4.62,10.99-7.47,18.03-7.47h388.48c9.65,0,18.05,5.36,22.38,13.27C438.35,413.168,439.48,417.328,439.48,421.758z"/>
	<path style="fill:#EAB932;" d="M439.48,421.758H0c0-4.43,1.13-8.59,3.12-12.22h433.24   C438.35,413.168,439.48,417.328,439.48,421.758z"/>
</g>















</svg>
