<?xml version="1.0" encoding="iso-8859-1"?>
<!-- Generator: Adobe Illustrator 19.0.0, SVG Export Plug-In . SVG Version: 6.00 Build 0)  -->
<svg xmlns="http://www.w3.org/2000/svg" xmlns:xlink="http://www.w3.org/1999/xlink" version="1.1" id="Layer_1" x="0px" y="0px" viewBox="0 0 439.48 439.48" style="enable-background:new 0 0 439.48 439.48;" xml:space="preserve" width="512" height="512">
<g>
	<g>
		<path style="fill:#CCCCCC;" d="M109.45,372.226H46.78l-1.15-14.45l-0.14-1.7c-0.55-6.84,3.07-13.05,8.73-16.12    c0.3,0.17,0.61,0.33,0.93,0.47c13.23,5.7,28.43,4.49,40.59-3.24c0.3-0.19,0.58-0.39,0.84-0.61c0.77,0.27,1.51,0.59,2.22,0.97    c4.94,2.58,8.48,7.58,8.96,13.55L109.45,372.226z"/>
		<path style="fill:#CCCCCC;" d="M96.58,336.576c-0.26,0.22-0.54,0.42-0.84,0.61c-12.16,7.73-27.36,8.94-40.59,3.24    c-0.32-0.14-0.63-0.3-0.93-0.47c-1.12-0.66-2.06-1.55-2.77-2.59c-0.89-1.33-1.42-2.91-1.46-4.58l-1.44-57.11l-0.2-8.01    l-0.33-12.93c-0.11-4.36,3.21-8.05,7.57-8.4l24.78-1.98c4.35-0.35,8.22,2.77,8.8,7.1l1.86,13.79l1.08,7.98l7.51,55.6    C100.02,331.786,98.85,334.706,96.58,336.576z"/>
		<path style="fill:#B3B3B3;" d="M95.89,352.946c-0.32,0.26-0.66,0.51-1.02,0.74c-14.76,9.38-33.16,10.89-49.24,4.09l-0.14-1.7    c-0.55-6.84,3.07-13.05,8.73-16.12c0.3,0.17,0.61,0.33,0.93,0.47c13.23,5.7,28.43,4.49,40.59-3.24c0.3-0.19,0.58-0.39,0.84-0.61    c0.77,0.27,1.51,0.59,2.22,0.97l0.8,5.93C100.09,347.096,98.66,350.656,95.89,352.946z"/>
		<path style="fill:#CCCCCC;" d="M192.96,307.886c0.17,2.98-1.24,5.8-3.65,7.48c-0.28,0.2-0.58,0.38-0.89,0.54    c-12.73,6.74-27.97,6.74-40.71,0c-0.31-0.16-0.61-0.35-0.89-0.55c-2.28-1.59-3.66-4.2-3.66-7.01c0-0.15,0-0.3,0.01-0.46    l3.11-56.89l0.44-8l0.71-13.07c0.23-4.36,3.84-7.78,8.21-7.78h24.86c4.37,0,7.97,3.42,8.21,7.78l0.75,13.7l0.43,8L192.96,307.886z    "/>
		<path style="fill:#CCCCCC;" d="M199.3,330.736v41.49h-62.46v-41.49c0-6.86,4.09-12.76,9.98-15.38c0.28,0.2,0.58,0.39,0.89,0.55    c12.74,6.74,27.98,6.74,40.71,0c0.31-0.16,0.61-0.34,0.89-0.54C195.2,317.976,199.3,323.876,199.3,330.736z"/>
		<path style="fill:#B3B3B3;" d="M199.3,330.736v4.21c-0.25,0.16-0.52,0.31-0.79,0.45c-19.04,10.09-41.84,10.09-60.89,0    c-0.27-0.14-0.53-0.29-0.78-0.45v-4.21c0-6.86,4.09-12.76,9.98-15.38c0.28,0.2,0.58,0.39,0.89,0.55c12.74,6.74,27.98,6.74,40.71,0    c0.31-0.16,0.61-0.34,0.89-0.54C195.2,317.976,199.3,323.876,199.3,330.736z"/>
		<path style="fill:#B3B3B3;" d="M281.31,342.926c0.33-0.11,0.66-0.24,0.97-0.39c5.36,3.57,8.42,10.08,7.26,16.83l-2.19,12.86    h-63.02v-2.07l3.64-21.29c1.15-6.76,6.17-11.87,12.41-13.48h0.01c0.24,0.24,0.51,0.47,0.79,0.69    C252.6,344.856,267.63,347.426,281.31,342.926z"/>
		<path style="fill:#CCCCCC;" d="M296.06,258.216l-1.85,16.07l-0.92,7.98l-6.15,53.51c-0.34,2.97-2.2,5.52-4.86,6.76    c-0.31,0.15-0.64,0.28-0.97,0.39c-13.68,4.5-28.71,1.93-40.13-6.85c-0.28-0.22-0.55-0.45-0.79-0.69h-0.01    c-1.64-1.62-2.54-3.82-2.54-6.09c0-0.62,0.07-1.26,0.21-1.89l12.55-55.22l1.78-7.82l2.98-13.1c0.97-4.26,5.1-7.01,9.4-6.28    l24.51,4.18C293.57,249.906,296.56,253.876,296.06,258.216z"/>
		<path style="fill:#CCCCCC;" d="M390.12,372.226h-62.71l-2.79-31.12c-0.14-1.6-0.06-3.16,0.23-4.66c0.93-4.91,4.03-9.14,8.34-11.54    h0.01c0.29,0.17,0.61,0.33,0.93,0.46c13.28,5.58,28.46,4.22,40.55-3.62c0.3-0.19,0.58-0.4,0.84-0.63    c2.77,0.94,5.23,2.59,7.14,4.75c2.32,2.6,3.85,5.94,4.18,9.67L390.12,372.226z"/>
		<path style="fill:#CCCCCC;" d="M375.52,321.116c-0.26,0.229-0.54,0.44-0.84,0.63c-12.09,7.84-27.27,9.2-40.55,3.62    c-0.32-0.13-0.64-0.29-0.93-0.46h-0.01c-1.13-0.65-2.07-1.52-2.79-2.56c-0.91-1.32-1.45-2.9-1.51-4.56l-1.98-57.12l-0.28-8.01    l-0.45-12.9c-0.15-4.37,3.13-8.09,7.49-8.48l24.75-2.22c4.36-0.38,8.25,2.7,8.88,7.02l2.12,14.66l1.15,7.92l7.92,54.69    C378.91,316.296,377.77,319.236,375.52,321.116z"/>
		<path style="fill:#B3B3B3;" d="M379.7,338.736c-0.31,0.27-0.64,0.52-0.99,0.74c-14.28,9.26-32.2,10.86-47.87,4.28    c-0.38-0.16-0.76-0.35-1.1-0.55c-1.33-0.75-2.46-1.79-3.31-3.02c-0.77-1.12-1.31-2.39-1.58-3.74c0.93-4.91,4.03-9.14,8.34-11.54    h0.01c0.29,0.17,0.61,0.33,0.93,0.46c13.28,5.58,28.46,4.22,40.55-3.62c0.3-0.19,0.58-0.4,0.84-0.63    c2.77,0.94,5.23,2.59,7.14,4.75l0.54,3.7C383.7,333.046,382.35,336.516,379.7,338.736z"/>
		<g>
			<path style="fill:#999999;" d="M48.55,275.676l13.29-1.06l2.16,26.97l7.97-0.64l-2.47-30.95c-0.09-1.06-0.59-2.04-1.4-2.73     c-0.8-0.69-1.85-1.03-2.91-0.94l-16.84,1.34L48.55,275.676z"/>
			<path style="fill:#999999;" d="M252.38,264.366l16.71,2.85c1.04,0.18,1.98,0.77,2.59,1.63c0.61,0.87,0.86,1.94,0.68,2.99     l-5.22,30.61l-7.89-1.35l4.55-26.67l-13.2-2.24L252.38,264.366z"/>
			<path style="fill:#999999;" d="M146.72,242.996h16.89c2.21,0,4,1.8,4,4v31.06h-8v-27.06h-13.33L146.72,242.996z"/>
			<path style="fill:#999999;" d="M326.91,260.666l13.28-1.19l2.41,26.95l7.97-0.71l-2.77-30.93c-0.1-1.06-0.61-2.04-1.42-2.72     c-0.81-0.68-1.87-1-2.92-0.91l-16.83,1.5L326.91,260.666z"/>
			<polygon style="fill:#999999;" points="92.11,273.226 75.98,275.626 75.72,267.626 91.03,265.246    "/>
			<polygon style="fill:#999999;" points="189.89,251.626 170.98,252.126 170.98,244.126 189.46,243.626    "/>
			<polygon style="fill:#999999;" points="294.21,274.286 293.29,282.266 275.48,278.626 277.05,270.776    "/>
			<polygon style="fill:#999999;" points="370.57,258.656 352.48,259.626 351.34,251.706 369.42,250.736    "/>
		</g>
		<path style="fill:#666666;" d="M183.619,118.067c-0.537,0.636-1.039,1.296-1.508,1.977c-1.005-1.486-2.146-2.875-3.443-4.094    c-6.334-5.954-14.966-9.021-23.547-6.685c2.593,0.995,5.167,1.807,7.585,3.208c3.423,1.984,6.505,4.539,8.906,7.699    c1.694,2.229,3.109,4.744,4.02,7.398c0.739,2.153,1.261,4.43,1.415,6.706c0.028,0.408-0.148,1.465,0.067,1.809    c0.012,0.019,0.01,0.02,0.018,0.034c-0.002,0.098-0.014,0.195-0.015,0.292c-0.045,3.215,2.923,5.751,6.107,5.034    c2.622-0.59,3.835-2.854,3.853-5.316c0.234-0.58,0.229-2.82,0.315-3.476c0.811-6.127,3.895-11.518,8.24-15.799    c1.906-1.878,4.199-3.512,6.57-4.733c2.251-1.16,4.553-1.959,6.916-2.857C199.628,106.617,189.807,110.731,183.619,118.067z"/>
		<g>
			<path style="fill:#0FBC30;" d="M439.48,394.495H0c0-4.43,1.13-8.59,3.12-12.22c1.17-2.14,2.64-4.09,4.35-5.8     c4.61-4.62,10.99-7.47,18.03-7.47h388.48c9.65,0,18.05,5.36,22.38,13.27C438.35,385.905,439.48,390.065,439.48,394.495z"/>
			<path style="fill:#07A521;" d="M439.48,394.495H0c0-4.43,1.13-8.59,3.12-12.22h433.24     C438.35,385.905,439.48,390.065,439.48,394.495z"/>
		</g>
	</g>
	<path style="fill:#EAB932;" d="M331.357,44.985c27.75,0,50.24,22.5,50.24,50.25s-22.49,50.25-50.24,50.25s-50.25-22.5-50.25-50.25   S303.607,44.985,331.357,44.985z"/>
	<path style="fill:#FFD039;" d="M381.597,95.235c0,27.75-22.49,50.25-50.24,50.25c-6.12,0-11.98-1.09-17.4-3.1   c-2.01-5.42-3.1-11.28-3.1-17.4c0-27.75,22.49-50.25,50.25-50.25c6.11,0,11.97,1.09,17.39,3.09   C380.507,83.255,381.597,89.115,381.597,95.235z"/>
</g>















</svg>
