<?xml version="1.0" encoding="iso-8859-1"?>
<!-- Generator: Adobe Illustrator 19.0.0, SVG Export Plug-In . SVG Version: 6.00 Build 0)  -->
<svg xmlns="http://www.w3.org/2000/svg" xmlns:xlink="http://www.w3.org/1999/xlink" version="1.1" id="Layer_1" x="0px" y="0px" viewBox="0 0 439.48 439.48" style="enable-background:new 0 0 439.48 439.48;" xml:space="preserve" width="512" height="512">
<g>
	<polygon style="fill:#E6E6E6;" points="161.945,130.352 166.465,228.952 125.985,228.952 130.505,130.352  "/>
	<polygon style="fill:#ED2E2E;" points="160.765,104.622 161.945,130.352 130.505,130.352 131.685,104.622  "/>
	<polygon style="fill:#E6E6E6;" points="101.945,130.352 106.465,228.952 65.985,228.952 70.505,130.352  "/>
	<polygon style="fill:#CCCCCC;" points="101.945,130.352 86.745,130.352 87.132,228.952 106.465,228.952  "/>
	<polygon style="fill:#CCCCCC;" points="161.945,130.352 146.745,130.352 147.132,228.952 166.465,228.952  "/>
	<polygon style="fill:#ED2E2E;" points="100.765,104.622 101.945,130.352 70.505,130.352 71.685,104.622  "/>
	<rect x="92.997" y="227.619" style="fill:#CCCCCC;" width="116.968" height="94.52"/>
	<polygon style="fill:#ED2E2E;" points="374.955,268.959 374.955,307.959 350.078,317.139 323.965,307.959 323.965,268.959    349.078,259.806  "/>
	<polygon style="fill:#ED2E2E;" points="299.965,268.959 299.965,307.959 276.078,321.472 248.965,307.959 248.965,268.959    276.412,259.472  "/>
	<path style="fill:#ED2E2E;" d="M353.959,247.962h-9v-4.5c0-10.98-8.934-19.914-19.914-19.914h-26.168   c-10.98,0-19.914,8.933-19.914,19.914v4.5h-9v-4.5c0-15.943,12.971-28.914,28.914-28.914h26.168   c15.943,0,28.914,12.971,28.914,28.914V247.962z"/>
	<path style="fill:#E6E6E6;" d="M374.955,268.959h-50.99c0-14.08,11.41-25.5,25.49-25.5   C363.545,243.459,374.955,254.879,374.955,268.959z"/>
	<polygon style="fill:#D82525;" points="299.965,268.959 299.965,307.959 293.818,307.959 280.965,307.959 280.965,268.959  "/>
	<polygon style="fill:#D82525;" points="374.955,268.959 374.955,307.959 368.808,307.959 355.955,307.959 355.955,268.959  "/>
	<path style="fill:#E6E6E6;" d="M299.965,268.959h-51c0-14.08,11.42-25.5,25.5-25.5   C288.545,243.459,299.965,254.879,299.965,268.959z"/>
	<polygon style="fill:#B3B3B3;" points="260.972,307.959 218.589,307.959 110.545,307.959 110.545,227.619 37.055,227.619    37.055,361.959 110.545,361.959 218.589,361.959 298.465,361.959 298.465,307.959  "/>
	<path style="fill:#666666;" d="M188.401,264.785h-57c-4.143,0-7.5-3.358-7.5-7.5s3.357-7.5,7.5-7.5h57c4.143,0,7.5,3.358,7.5,7.5   S192.544,264.785,188.401,264.785z"/>
	<path style="fill:#666666;" d="M188.401,289.785h-57c-4.143,0-7.5-3.358-7.5-7.5s3.357-7.5,7.5-7.5h57c4.143,0,7.5,3.358,7.5,7.5   S192.544,289.785,188.401,289.785z"/>
	<path style="fill:#666666;" d="M257.503,342.457h-26.102c-4.143,0-7.5-3.358-7.5-7.5s3.357-7.5,7.5-7.5h26.102   c4.143,0,7.5,3.358,7.5,7.5S261.645,342.457,257.503,342.457z"/>
	<path style="fill:#666666;" d="M207.401,342.457h-46c-4.143,0-7.5-3.358-7.5-7.5s3.357-7.5,7.5-7.5h46c4.143,0,7.5,3.358,7.5,7.5   S211.544,342.457,207.401,342.457z"/>
	<path style="fill:#666666;" d="M85.401,264.785h-25c-4.143,0-7.5-3.358-7.5-7.5s3.357-7.5,7.5-7.5h25c4.143,0,7.5,3.358,7.5,7.5   S89.544,264.785,85.401,264.785z"/>
	<path style="fill:#666666;" d="M85.401,289.785h-25c-4.143,0-7.5-3.358-7.5-7.5s3.357-7.5,7.5-7.5h25c4.143,0,7.5,3.358,7.5,7.5   S89.544,289.785,85.401,289.785z"/>
	<path style="fill:#4D4D4D;" d="M415.401,54.785h-310.1c-15.108,0-27.4,12.292-27.4,27.4v3.1c0,4.142,3.357,7.5,7.5,7.5   s7.5-3.358,7.5-7.5v-3.1c0-6.837,5.563-12.4,12.4-12.4h39.579c-1.9,3.727-2.979,7.939-2.979,12.4v3.1c0,4.142,3.357,7.5,7.5,7.5   s7.5-3.358,7.5-7.5v-3.1c0-6.837,5.563-12.4,12.4-12.4h246.1c4.143,0,7.5-3.358,7.5-7.5S419.544,54.785,415.401,54.785z"/>
	<circle style="fill:#666666;" cx="136.505" cy="334.959" r="7.5"/>
	<polygon style="fill:#CCCCCC;" points="392.955,307.959 392.955,361.959 283.465,361.959 283.465,307.959 299.965,307.959    323.965,307.959 374.955,307.959  "/>
	<g>
		<path style="fill:#0FBC30;" d="M439.48,384.694H0c0-4.43,1.13-8.59,3.12-12.22c1.17-2.14,2.64-4.09,4.35-5.8    c4.61-4.62,10.99-7.47,18.03-7.47h388.48c9.65,0,18.05,5.36,22.38,13.27C438.35,376.105,439.48,380.264,439.48,384.694z"/>
		<path style="fill:#07A521;" d="M439.48,384.694H0c0-4.43,1.13-8.59,3.12-12.22h433.24    C438.35,376.105,439.48,380.264,439.48,384.694z"/>
	</g>
</g>















</svg>
