<?xml version="1.0" encoding="iso-8859-1"?>
<!-- Generator: Adobe Illustrator 19.0.0, SVG Export Plug-In . SVG Version: 6.00 Build 0)  -->
<svg xmlns="http://www.w3.org/2000/svg" xmlns:xlink="http://www.w3.org/1999/xlink" version="1.1" id="Layer_1" x="0px" y="0px" viewBox="0 0 439.48 439.48" style="enable-background:new 0 0 439.48 439.48;" xml:space="preserve" width="512" height="512">
<g>
	<path style="fill:#808080;" d="M319.596,324.122h-47.5c-3.59,0-6.5-2.91-6.5-6.5s2.91-6.5,6.5-6.5h54c3.59,0,6.5,2.91,6.5,6.5"/>
	<path style="fill:#B3B3B3;" d="M310.669,54.452L310.669,54.452c-2.347,0-4.25,1.903-4.25,4.25v54.75h8.5v-54.75   C314.919,56.355,313.016,54.452,310.669,54.452z"/>
	<path style="fill:#B3B3B3;" d="M285.099,116.142v194.98h31v82.74h95v-277.72H285.099z"/>
	<path style="fill:#9B6121;" d="M211.689,292.122v94.74c0,4.15-3.36,7.5-7.5,7.5c-4.14,0-7.5-3.35-7.5-7.5v-94.74   c0-4.14,3.36-7.5,7.5-7.5C208.329,284.622,211.689,287.983,211.689,292.122z"/>
	<path style="fill:#FFD039;" d="M90.657,226.357h36.268c0,10.008-8.117,18.134-18.134,18.134   C98.783,244.491,90.657,236.365,90.657,226.357z"/>
	<path style="fill:#808080;" d="M56.377,354.206H45.496V252.183c0-22.238,18.092-40.33,40.33-40.33h22.054v10.881H85.827   c-16.239,0-29.45,13.211-29.45,29.45V354.206z"/>
	<polygon style="fill:#B3B3B3;" points="395.099,85.142 395.099,116.142 353.099,116.142 353.099,96.142  "/>
	<rect x="285.099" y="311.122" style="fill:#808080;" width="31" height="82.74"/>
	<rect x="285.099" y="324.122" style="fill:#666666;" width="20" height="69.74"/>
	<rect x="360.199" y="311.122" style="fill:#3B9DFF;" width="27.79" height="60"/>
	<rect x="308.199" y="226.122" style="fill:#3B9DFF;" width="27.79" height="60"/>
	<rect x="360.199" y="226.122" style="fill:#3B9DFF;" width="27.79" height="60"/>
	<rect x="360.199" y="141.122" style="fill:#3B9DFF;" width="27.79" height="60"/>
	<rect x="308.199" y="141.122" style="fill:#3B9DFF;" width="27.79" height="60"/>
	<polygon style="fill:#B3B3B3;" points="62.415,337.927 64.892,393.862 36.986,393.862 39.451,337.927  "/>
	<path style="fill:#562F15;" d="M211.689,292.122v42.48c-2.44,0.39-4.94,0.59-7.5,0.59s-5.06-0.2-7.5-0.59v-42.48   c0-4.14,3.36-7.5,7.5-7.5C208.329,284.622,211.689,287.983,211.689,292.122z"/>
	<path style="fill:#808080;" d="M416.155,122.142H280.979c-3.313,0-6-2.687-6-6s2.687-6,6-6h135.176c3.313,0,6,2.687,6,6   S419.468,122.142,416.155,122.142z"/>
	<rect x="285.099" y="122.142" style="fill:#999999;" width="126" height="9"/>
	<rect x="285.099" y="207.126" style="fill:#999999;" width="126" height="9"/>
	<rect x="285.099" y="292.126" style="fill:#999999;" width="126" height="9"/>
	<path style="fill:#808080;" d="M416.103,292.126H280.096c-3.313,0-6-2.687-6-6s2.687-6,6-6h136.007c3.313,0,6,2.687,6,6   S419.416,292.126,416.103,292.126z"/>
	<path style="fill:#808080;" d="M416.103,207.126H280.096c-3.313,0-6-2.687-6-6s2.687-6,6-6h136.007c3.313,0,6,2.687,6,6   S419.416,207.126,416.103,207.126z"/>
	<path style="fill:#EAB932;" d="M81.207,26.997c27.75,0,50.24,22.5,50.24,50.25s-22.49,50.25-50.24,50.25s-50.25-22.5-50.25-50.25   S53.457,26.997,81.207,26.997z"/>
	<path style="fill:#FFD039;" d="M131.447,77.247c0,27.75-22.49,50.25-50.24,50.25c-6.12,0-11.98-1.09-17.4-3.1   c-2.01-5.42-3.1-11.28-3.1-17.4c0-27.75,22.49-50.25,50.25-50.25c6.11,0,11.97,1.09,17.39,3.09   C130.358,65.267,131.447,71.127,131.447,77.247z"/>
	<path style="fill:#B3B3B3;" d="M134.18,236.331H83.404c0-14.012,11.364-25.388,25.388-25.388   C122.803,210.943,134.18,222.319,134.18,236.331z"/>
	<path style="fill:#07A521;" d="M204.189,317.192c-27.5,0-49.18-23.42-47.06-50.84l5.07-65.29c1.7-21.94,19.99-38.87,41.99-38.87   s40.29,16.93,41.99,38.87l5.07,65.29c0.1,1.24,0.14,2.48,0.14,3.7C251.389,295.852,230.449,317.192,204.189,317.192z"/>
	<path style="fill:#0FBC30;" d="M187.877,297.101l5.07-65.29c1.7-21.94,19.99-38.87,41.99-38.87c3.484,0,6.874,0.427,10.121,1.229   c-4.571-18.492-21.238-31.978-40.869-31.978c-22,0-40.29,16.93-41.99,38.87l-5.07,65.29c-1.736,22.456,12.495,42.22,32.808,48.643   C188.16,309.39,187.394,303.352,187.877,297.101z"/>
	<g>
		<path style="fill:#E6E6E6;" d="M439.48,412.483H0c0-4.43,1.13-8.59,3.12-12.22c1.17-2.14,2.64-4.09,4.35-5.8    c4.61-4.62,10.99-7.47,18.03-7.47h388.48c9.65,0,18.05,5.36,22.38,13.27C438.35,403.893,439.48,408.053,439.48,412.483z"/>
		<path style="fill:#CCCCCC;" d="M439.48,412.483H0c0-4.43,1.13-8.59,3.12-12.22h433.24    C438.35,403.893,439.48,408.053,439.48,412.483z"/>
	</g>
</g>















</svg>
