<?xml version="1.0" encoding="iso-8859-1"?>
<!-- Generator: Adobe Illustrator 19.0.0, SVG Export Plug-In . SVG Version: 6.00 Build 0)  -->
<svg xmlns="http://www.w3.org/2000/svg" xmlns:xlink="http://www.w3.org/1999/xlink" version="1.1" id="Layer_1" x="0px" y="0px" viewBox="0 0 439.48 439.48" style="enable-background:new 0 0 439.48 439.48;" xml:space="preserve" width="512" height="512">
<g>
	<rect x="73.005" y="315.581" style="fill:#7C4622;" width="15" height="68.75"/>
	<rect x="165.825" y="315.581" style="fill:#7C4622;" width="15" height="68.75"/>
	<rect x="258.655" y="315.581" style="fill:#7C4622;" width="15" height="68.75"/>
	<rect x="351.485" y="315.581" style="fill:#7C4622;" width="15" height="68.75"/>
	<rect x="119.415" y="315.581" style="fill:#7C4622;" width="15" height="68.75"/>
	<rect x="212.245" y="315.581" style="fill:#7C4622;" width="15" height="68.75"/>
	<rect x="305.065" y="315.581" style="fill:#7C4622;" width="15" height="68.75"/>
	<rect x="73.005" y="315.581" style="fill:#562F15;" width="15" height="32.35"/>
	<rect x="119.415" y="315.581" style="fill:#562F15;" width="15" height="32.35"/>
	<rect x="165.825" y="315.581" style="fill:#562F15;" width="15" height="32.35"/>
	<rect x="212.245" y="315.581" style="fill:#562F15;" width="15" height="32.35"/>
	<rect x="258.655" y="315.581" style="fill:#562F15;" width="15" height="32.35"/>
	<rect x="305.065" y="315.581" style="fill:#562F15;" width="15" height="32.35"/>
	<rect x="351.485" y="315.581" style="fill:#562F15;" width="15" height="32.35"/>
	<polygon style="fill:#07A521;" points="34.085,330.581 83.078,280.431 75.745,235.731 103.715,221.911 335.785,221.911    370.375,235.731 359.745,312.431 405.395,330.581  "/>
	<path style="fill:#EAB932;" d="M130.715,128.351c1.86,0,3.68-0.14,5.46-0.41c-9.21,11.6-23.42,19.04-39.37,19.04   c-27.75,0-50.25-22.49-50.25-50.24c0-27.76,22.5-50.25,50.25-50.25c11.23,0,21.6,3.68,29.96,9.91   c-18.07,1.97-32.13,17.27-32.13,35.87C94.635,112.191,110.795,128.351,130.715,128.351z"/>
	<polygon style="fill:#07A521;" points="312.575,181.701 335.785,221.901 327.795,235.731 297.345,235.731 289.365,221.901  "/>
	<polygon style="fill:#07A521;" points="126.915,181.701 150.125,221.901 142.135,235.731 111.695,235.731 103.715,221.911  "/>
	<polygon style="fill:#07A521;" points="219.745,181.701 242.955,221.901 234.965,235.731 204.515,235.731 196.535,221.901  "/>
	<polygon style="fill:#0FBC30;" points="378.335,283.702 398.065,283.702 370.375,235.732 390.175,235.732 358.985,181.712    335.785,221.901 327.795,235.732 345.055,235.732 347.595,235.732 319.895,283.702 339.635,283.702 312.565,330.581    358.985,330.581 405.395,330.581  "/>
	<polygon style="fill:#0FBC30;" points="285.505,283.702 305.235,283.702 277.545,235.732 297.345,235.732 289.365,221.901    266.155,181.712 242.955,221.901 234.965,235.732 254.765,235.732 227.075,283.702 246.805,283.702 219.745,330.581    266.155,330.581 312.565,330.581  "/>
	<polygon style="fill:#0FBC30;" points="192.675,283.702 212.415,283.702 184.715,235.732 204.515,235.732 196.535,221.901    173.325,181.712 150.125,221.901 142.135,235.732 161.945,235.732 134.245,283.702 153.975,283.702 126.915,330.581    173.325,330.581 219.745,330.581  "/>
	<polygon style="fill:#0FBC30;" points="34.085,330.581 126.915,330.581 106.775,295.702 99.845,283.702 119.585,283.702    97.655,245.732 91.885,235.732 95.725,235.732 111.695,235.732 103.715,221.911 80.505,181.712 49.315,235.732 69.115,235.732    63.345,245.732 41.415,283.702 61.155,283.702 54.225,295.702  "/>
	<polygon style="fill:#07A521;" points="97.655,245.732 63.345,245.732 69.115,235.732 91.885,235.732  "/>
	<polygon style="fill:#07A521;" points="199.605,295.702 147.055,295.702 153.985,283.702 192.675,283.702  "/>
	<polygon style="fill:#07A521;" points="190.485,245.732 156.175,245.732 161.945,235.732 184.715,235.732  "/>
	<polygon style="fill:#07A521;" points="292.425,295.702 239.875,295.702 246.805,283.702 285.495,283.702  "/>
	<polygon style="fill:#07A521;" points="283.305,245.732 248.995,245.732 254.765,235.732 277.535,235.732  "/>
	<polygon style="fill:#07A521;" points="385.255,295.702 332.705,295.702 339.635,283.702 378.325,283.702  "/>
	<polygon style="fill:#07A521;" points="376.135,245.732 341.825,245.732 347.595,235.732 370.365,235.732  "/>
	<polygon style="fill:#07A521;" points="106.775,295.702 54.225,295.702 61.155,283.702 99.845,283.702  "/>
	<g>
		<path style="fill:#0FBC30;" d="M439.48,392.988H0c0-4.43,1.13-8.59,3.12-12.22c1.17-2.14,2.64-4.09,4.35-5.8    c4.61-4.62,10.99-7.47,18.03-7.47h388.48c9.65,0,18.05,5.36,22.38,13.27C438.35,384.399,439.48,388.559,439.48,392.988z"/>
		<path style="fill:#07A521;" d="M439.48,392.988H0c0-4.43,1.13-8.59,3.12-12.22h433.24    C438.35,384.399,439.48,388.559,439.48,392.988z"/>
	</g>
</g>















</svg>
