<?xml version="1.0" encoding="iso-8859-1"?>
<!-- Generator: Adobe Illustrator 19.0.0, SVG Export Plug-In . SVG Version: 6.00 Build 0)  -->
<svg xmlns="http://www.w3.org/2000/svg" xmlns:xlink="http://www.w3.org/1999/xlink" version="1.1" id="Layer_1" x="0px" y="0px" viewBox="0 0 439.48 439.48" style="enable-background:new 0 0 439.48 439.48;" xml:space="preserve" width="512" height="512">
<g>
	<g>
		<path style="fill:#EAB932;" d="M157.156,96.915c-8.5,0-20.463,28-19.313,28.66l-0.01,0.01c-9.21,11.34-23.27,18.58-39.01,18.58    c-27.75,0-50.25-22.5-50.25-50.25s22.5-50.25,50.25-50.25c17.49,0,32.9,8.94,41.89,22.5L157.156,96.915z"/>
	</g>
	<path style="fill:#FFD039;" d="M149.073,93.925c0,27.75-22.5,50.24-50.25,50.24c-4.47,0-8.81-0.58-12.94-1.68   c-8.21-7.91-13.31-19.01-13.31-31.31c0-24.03,19.48-43.5,43.5-43.5c12.3,0,23.4,5.1,31.32,13.31   C148.493,85.115,149.073,89.455,149.073,93.925z"/>
	<rect x="214.243" y="306.365" style="fill:#7C4622;" width="11" height="71.12"/>
	<rect x="131.473" y="314.245" style="fill:#7C4622;" width="11" height="63.24"/>
	<rect x="53.703" y="324.875" style="fill:#7C4622;" width="11" height="52.61"/>
	<rect x="297.003" y="314.245" style="fill:#7C4622;" width="11" height="63.24"/>
	<rect x="374.783" y="324.875" style="fill:#7C4622;" width="11" height="52.61"/>
	<path style="fill:#0FBC30;" d="M380.283,329.195c-13.17,0-23.84-3.15-23.84-20.52c0-17.37,10.67-51.52,23.84-51.52   c13.16,0,23.83,34.15,23.83,51.52C404.113,326.045,393.443,329.195,380.283,329.195z"/>
	<path style="fill:#0FBC30;" d="M302.503,321.255c-15.82,0-28.65-3.78-28.65-24.67c0-20.88,12.83-61.93,28.65-61.93   c15.83,0,28.66,41.05,28.66,61.93C331.163,317.475,318.333,321.255,302.503,321.255z"/>
	<path style="fill:#0FBC30;" d="M219.743,217.985c17.79,0,32.22,46.16,32.22,69.65c0,23.48-14.43,27.73-32.22,27.73   c-17.8,0-32.23-4.25-32.23-27.73C187.513,264.145,201.943,217.985,219.743,217.985z"/>
	<path style="fill:#0FBC30;" d="M136.973,321.255c-15.83,0-28.66-3.78-28.66-24.67c0-20.88,12.83-61.93,28.66-61.93   s28.66,41.05,28.66,61.93C165.633,317.475,152.803,321.255,136.973,321.255z"/>
	<path style="fill:#0FBC30;" d="M59.203,329.195c-13.17,0-23.84-3.15-23.84-20.52c0-17.37,10.67-51.52,23.84-51.52   c13.16,0,23.84,34.15,23.84,51.52C83.043,326.045,72.363,329.195,59.203,329.195z"/>
	<path style="fill:#562F15;" d="M385.783,324.875v14.09c-1.76,0.16-3.61,0.23-5.5,0.23c-1.89,0-3.74-0.07-5.5-0.23v-14.09H385.783z"/>
	<path style="fill:#562F15;" d="M308.003,314.245v16.83c-1.78,0.13-3.62,0.18-5.5,0.18s-3.72-0.05-5.5-0.18v-16.83H308.003z"/>
	<path style="fill:#562F15;" d="M225.243,306.365v18.84c-1.78,0.11-3.62,0.16-5.5,0.16s-3.71-0.05-5.5-0.16v-18.84H225.243z"/>
	<path style="fill:#562F15;" d="M142.473,314.245v16.83c-1.78,0.13-3.62,0.18-5.5,0.18s-3.72-0.05-5.5-0.18v-16.83H142.473z"/>
	<path style="fill:#562F15;" d="M64.703,324.875v14.09c-1.76,0.16-3.61,0.23-5.5,0.23c-1.89,0-3.74-0.07-5.5-0.23v-14.09H64.703z"/>
	<path style="fill:#07A521;" d="M404.113,308.675c0,17.37-10.67,20.52-23.83,20.52c-13.17,0-23.84-3.15-23.84-20.52   c0-0.49,0.01-0.99,0.03-1.5c0.6,0.01,1.2,0.02,1.81,0.02c13.16,0,23.83-3.15,23.83-20.52c0-7.71-2.1-18.72-5.59-28.59   c1.23-0.61,2.48-0.93,3.76-0.93C393.443,257.155,404.113,291.305,404.113,308.675z"/>
	<path style="fill:#07A521;" d="M331.163,296.585c0,20.89-12.83,24.67-28.66,24.67c-15.2,0-27.63-3.49-28.59-22.28   c2.11,0.2,4.32,0.28,6.59,0.28c15.83,0,28.66-3.78,28.66-24.67c0-10.68-3.36-26.65-8.76-39.69c0.69-0.16,1.39-0.24,2.1-0.24   C318.333,234.655,331.163,275.705,331.163,296.585z"/>
	<path style="fill:#07A521;" d="M251.963,287.635c0,23.48-14.43,27.73-32.22,27.73c-16.42,0-29.97-3.62-31.97-22.61   c3.14,0.45,6.49,0.61,9.97,0.61c17.79,0,32.22-4.25,32.22-27.73c0-12.84-4.31-32.46-11.14-47.61c0.3-0.03,0.61-0.04,0.92-0.04   C237.533,217.985,251.963,264.145,251.963,287.635z"/>
	<path style="fill:#07A521;" d="M165.633,296.585c0,20.89-12.83,24.67-28.66,24.67c-15.21,0-27.64-3.49-28.6-22.28   c2.12,0.2,4.33,0.28,6.6,0.28c15.83,0,28.66-3.78,28.66-24.67c0-10.68-3.36-26.65-8.76-39.69c0.69-0.16,1.39-0.24,2.1-0.24   C152.803,234.655,165.633,275.705,165.633,296.585z"/>
	<path style="fill:#07A521;" d="M83.043,308.675c0,17.37-10.68,20.52-23.84,20.52c-13.17,0-23.84-3.15-23.84-20.52   c0-0.49,0.01-0.99,0.03-1.5c0.6,0.01,1.2,0.02,1.81,0.02c13.16,0,23.84-3.15,23.84-20.52c0-7.71-2.11-18.73-5.59-28.6   c1.22-0.6,2.47-0.92,3.75-0.92C72.363,257.155,83.043,291.305,83.043,308.675z"/>
	<path style="fill:#0FBC30;" d="M439.48,395.815H0c0-4.43,1.13-8.59,3.12-12.22c1.17-2.14,2.64-4.09,4.35-5.8   c4.61-4.62,10.99-7.47,18.03-7.47h388.48c9.65,0,18.05,5.36,22.38,13.27C438.35,387.225,439.48,391.385,439.48,395.815z"/>
	<path style="fill:#07A521;" d="M439.48,395.815H0c0-4.43,1.13-8.59,3.12-12.22h433.24   C438.35,387.225,439.48,391.385,439.48,395.815z"/>
	<path style="fill:#666666;" d="M348.957,153.463c-0.537,0.636-1.039,1.296-1.508,1.977c-1.005-1.486-2.146-2.875-3.443-4.094   c-6.334-5.954-14.966-9.021-23.547-6.685c2.593,0.995,5.167,1.807,7.585,3.208c3.423,1.984,6.505,4.539,8.906,7.699   c1.694,2.229,3.109,4.744,4.02,7.398c0.739,2.153,1.261,4.43,1.415,6.706c0.028,0.408-0.148,1.465,0.067,1.809   c0.012,0.019,0.01,0.02,0.018,0.034c-0.002,0.098-0.014,0.195-0.015,0.292c-0.045,3.215,2.923,5.751,6.107,5.034   c2.622-0.59,3.835-2.854,3.853-5.316c0.234-0.58,0.229-2.82,0.315-3.476c0.811-6.127,3.895-11.518,8.24-15.799   c1.906-1.878,4.199-3.512,6.57-4.733c2.251-1.16,4.553-1.959,6.916-2.857C364.966,142.013,355.145,146.128,348.957,153.463z"/>
	<path style="fill:#3B9DFF;" d="M231.303,101.425c2.79,2.78,4.51,6.63,4.51,10.87c0,8.49-6.89,15.37-15.38,15.37h-74.86   c-2.82,0-5.47-0.76-7.74-2.08c-1.15-0.67-2.2-1.49-3.14-2.42c-2.78-2.78-4.5-6.63-4.5-10.87c0-8.49,6.88-15.38,15.38-15.38h-44.12   c-4.25,0-8.09-1.72-10.87-4.5c-2.79-2.78-4.51-6.62-4.51-10.87c0-8.49,6.89-15.37,15.38-15.37h39.26h35.6   c4.25,0,8.09,1.72,10.88,4.5c2.78,2.78,4.5,6.62,4.5,10.87c0,8.49-6.88,15.37-15.38,15.37h44.12   C224.683,96.915,228.523,98.635,231.303,101.425z"/>
</g>















</svg>
