<?xml version="1.0" encoding="iso-8859-1"?>
<!-- Generator: Adobe Illustrator 19.0.0, SVG Export Plug-In . SVG Version: 6.00 Build 0)  -->
<svg xmlns="http://www.w3.org/2000/svg" xmlns:xlink="http://www.w3.org/1999/xlink" version="1.1" id="Layer_1" x="0px" y="0px" viewBox="0 0 439.48 439.48" style="enable-background:new 0 0 439.48 439.48;" xml:space="preserve" width="512" height="512">
<g>
	<polygon style="fill:#FFD039;" points="121.745,342.348 129.245,282.348 117.245,282.348 123.245,211.848 150.245,201.358    153.375,202.278 163.675,205.298 175.745,208.848 179.415,208.118 226.745,202.375 243.245,195.358 261.235,208.848    268.735,298.848 288.235,287.038 289.735,237.348 309.235,237.348 311.185,252.738 322.735,343.848 121.745,343.848  "/>
	<circle style="fill:#EAB932;" cx="333.195" cy="102.265" r="72.717"/>
	<polygon style="fill:#EAB932;" points="240.078,352.375 232.995,291.708 220.495,258.375 211.745,267.041 190.078,272.375    211.003,275.058 203.412,357.041  "/>
	<polygon style="fill:#EAB932;" points="415.735,388.828 25.755,388.828 34.095,373.708 39.265,364.348 72.085,364.348    83.365,352.378 91.395,343.848 348.165,343.848 353.785,352.378 361.675,364.348 394.495,364.348 402.615,373.708  "/>
	<path style="fill:#FFD039;" d="M333.195,52.018c27.75,0,50.25,22.5,50.25,50.25s-22.5,50.24-50.25,50.24s-50.25-22.49-50.25-50.24   S305.445,52.018,333.195,52.018z"/>
	<polygon style="fill:#FFD039;" points="353.785,352.378 83.365,352.378 91.395,343.848 348.165,343.848  "/>
	<polygon style="fill:#FFD039;" points="402.615,373.708 34.095,373.708 39.265,364.348 394.495,364.348  "/>
	<polygon style="fill:#EAB932;" points="288.235,287.041 270.785,297.607 261.235,208.848 243.245,195.358 242.745,343.708    275.745,343.708 271.54,304.627 282.745,327.708  "/>
	<g>
		<path style="fill:#FFD039;" d="M439.48,409.932H0c0-4.43,1.13-8.59,3.12-12.22c1.17-2.14,2.64-4.09,4.35-5.8    c4.61-4.62,10.99-7.47,18.03-7.47h388.48c9.65,0,18.05,5.36,22.38,13.27C438.35,401.342,439.48,405.502,439.48,409.932z"/>
		<path style="fill:#EAB932;" d="M439.48,409.932H0c0-4.43,1.13-8.59,3.12-12.22h433.24    C438.35,401.342,439.48,405.502,439.48,409.932z"/>
	</g>
	<polygon style="fill:#EAB932;" points="311.185,252.738 289.735,237.348 309.235,237.348  "/>
	<polygon style="fill:#EAB932;" points="172.078,260.375 152.078,275.708 150.245,201.358 123.245,211.848 117.245,282.348    129.245,282.348 121.745,342.348 121.745,343.848 171.875,343.848 174.745,343.708 177.628,295.06  "/>
	<polygon style="fill:#EAB932;" points="175.745,208.848 176.745,230.375 187.412,207.042  "/>
</g>















</svg>
