<?xml version="1.0" encoding="iso-8859-1"?>
<!-- Generator: Adobe Illustrator 19.0.0, SVG Export Plug-In . SVG Version: 6.00 Build 0)  -->
<svg xmlns="http://www.w3.org/2000/svg" xmlns:xlink="http://www.w3.org/1999/xlink" version="1.1" id="Layer_1" x="0px" y="0px" viewBox="0 0 439.48 439.48" style="enable-background:new 0 0 439.48 439.48;" xml:space="preserve" width="512" height="512">
<g>
	<path style="fill:#CCCCCC;" d="M318.735,178.008c-3.313,0-6-2.686-6-6v-66.263c0-3.314,2.687-6,6-6s6,2.686,6,6v66.263   C324.735,175.322,322.048,178.008,318.735,178.008z"/>
	<path style="fill:#E6E6E6;" d="M268.063,278.398l7.57-66.16h86.21l2.98,26l13.16,115h-107.24   C270.743,353.238,274.403,283.838,268.063,278.398z"/>
	<polygon style="fill:#CCCCCC;" points="364.823,238.238 361.843,212.238 275.633,212.238 257.076,351.342 284.743,359.508    298.112,238.238  "/>
	<path style="fill:#CCCCCC;" d="M239.283,267.738h-133.58c-24.41,0-44.21,19.79-44.21,44.2v41.29h44.21h44.21h133.57   C283.483,353.228,250.273,267.738,239.283,267.738z"/>
	<path style="fill:#E6E6E6;" d="M283.483,311.938v14.3h-133.57v-14.3c0-4.42-0.65-8.68-1.86-12.7h133.57   C282.833,303.258,283.483,307.518,283.483,311.938z"/>
	<rect x="149.913" y="326.238" style="fill:#ED2E2E;" width="133.57" height="26.99"/>
	<path style="fill:#ED2E2E;" d="M281.623,299.238h-133.57c-5.45-18.22-22.36-31.5-42.35-31.5h133.58c10.99,0,21.06,4.02,28.78,10.66   C274.403,283.838,279.173,291.038,281.623,299.238z"/>
	<polygon style="fill:#ED2E2E;" points="384.823,165.738 376.483,215.238 361.843,215.238 275.633,215.238 260.983,215.238    252.643,165.738  "/>
	<polygon style="fill:#D82525;" points="252.643,165.738 260.983,215.238 275.633,215.238 292.65,215.238 284.31,165.738  "/>
	<path style="fill:#3B9DFF;" d="M200.993,60.748c8.49,0,15.37,6.88,15.37,15.37c0,4.25-1.72,8.09-4.5,10.87   c-2.78,2.79-6.62,4.51-10.87,4.51h-57.99c8.49,0,15.37,6.88,15.37,15.37c0,4.24-1.72,8.09-4.5,10.87   c-2.78,2.79-6.63,4.51-10.87,4.51h-53.01c-8.49,0-15.37-6.89-15.37-15.38c0-4.24,1.72-8.09,4.5-10.87s6.62-4.5,10.87-4.5h22.26   c-8.49,0-15.38-6.89-15.38-15.38c0-4.25,1.72-8.09,4.51-10.87c2.78-2.78,6.62-4.5,10.87-4.5H200.993z"/>
	<path style="fill:#4D4D4D;" d="M318.735,257.238c-4.142,0-7.5-3.358-7.5-7.5v-9c0-4.142,3.358-7.5,7.5-7.5s7.5,3.358,7.5,7.5v9   C326.235,253.88,322.877,257.238,318.735,257.238z"/>
	<path style="fill:#4D4D4D;" d="M318.735,293.236c-4.142,0-7.5-3.358-7.5-7.5v-9c0-4.142,3.358-7.5,7.5-7.5s7.5,3.358,7.5,7.5v9   C326.235,289.878,322.877,293.236,318.735,293.236z"/>
	<path style="fill:#4D4D4D;" d="M353.233,197.988h-68.997c-4.142,0-7.5-3.358-7.5-7.5s3.358-7.5,7.5-7.5h68.997   c4.142,0,7.5,3.358,7.5,7.5S357.375,197.988,353.233,197.988z"/>
	<path style="fill:#4D4D4D;" d="M127.873,360.733c-4.142,0-7.5-3.358-7.5-7.5v-18.667c0-4.142,3.358-7.5,7.5-7.5   c4.142,0,7.5,3.358,7.5,7.5v18.667C135.373,357.375,132.015,360.733,127.873,360.733z"/>
	<g>
		<path style="fill:#0FBC30;" d="M439.48,378.732H0c0-4.43,1.13-8.59,3.12-12.22c1.17-2.14,2.64-4.09,4.35-5.8    c4.61-4.62,10.99-7.47,18.03-7.47h388.48c9.65,0,18.05,5.36,22.38,13.27C438.35,370.142,439.48,374.302,439.48,378.732z"/>
		<path style="fill:#07A521;" d="M439.48,378.732H0c0-4.43,1.13-8.59,3.12-12.22h433.24    C438.35,370.142,439.48,374.302,439.48,378.732z"/>
	</g>
	<circle style="fill:#ED2E2E;" cx="318.735" cy="104.3" r="8.446"/>
</g>















</svg>
