<?xml version="1.0" encoding="iso-8859-1"?>
<!-- Generator: Adobe Illustrator 19.0.0, SVG Export Plug-In . SVG Version: 6.00 Build 0)  -->
<svg xmlns="http://www.w3.org/2000/svg" xmlns:xlink="http://www.w3.org/1999/xlink" version="1.1" id="Layer_1" x="0px" y="0px" viewBox="0 0 439.48 439.48" style="enable-background:new 0 0 439.48 439.48;" xml:space="preserve" width="512" height="512">
<g>
	<g>
		<g>
			<rect x="300.839" y="249.926" style="fill:#7C4622;" width="10" height="52.622"/>
		</g>
	</g>
	<g>
		<path style="fill:#07A521;" d="M246.584,303.587c-39.603,12.538-74.726,35.145-102.357,64.831    c-25.695-17.627-55.512-29.697-87.709-34.46c37.243-24.151,81.653-38.178,129.346-38.178    C206.851,295.78,227.196,298.488,246.584,303.587z"/>
		<path style="fill:#EAB932;" d="M170.095,24.996c27.75,0,50.24,22.5,50.24,50.25s-22.49,50.25-50.24,50.25    c-2.66,0-5.27-0.21-7.81-0.61c0.069-0.366-25.215,4.574-33.54-4.96c-12.167-13.935-8.89-43.93-8.89-43.93    c-0.01-0.25-0.01-0.5-0.01-0.75C119.845,47.496,142.345,24.996,170.095,24.996z"/>
		<path style="fill:#FFD039;" d="M220.345,75.257c0,27.75-22.5,50.24-50.25,50.24c-4.47,0-8.81-0.58-12.94-1.68    c-8.21-7.91-13.31-19.01-13.31-31.31c0-24.03,19.48-43.5,43.5-43.5c12.3,0,23.4,5.1,31.32,13.31    C219.765,66.447,220.345,70.786,220.345,75.257z"/>
		<path style="fill:#07A521;" d="M152.741,393.727H27.854V360.29c7.154-0.913,14.449-1.387,21.858-1.387    c8.532,0,16.924,0.632,25.114,1.852h0.009c25.992,3.845,50.062,13.589,70.805,27.818    C148.053,390.233,150.423,391.944,152.741,393.727z"/>
		<path style="fill:#0FBC30;" d="M295.438,293.357c-3.011-0.14-6.048-0.211-9.094-0.211c-20.242,0-39.756,3.134-58.076,8.936    c-31.97,10.121-60.323,28.371-82.629,52.335c-20.743-14.229-44.812-23.973-70.805-27.818h-0.009    c-8.19-1.22-16.582-1.852-25.114-1.852c-1.776,0-3.545,0.027-5.307,0.081c-9.213,0.282-16.551,7.801-16.551,17.018v49.325h156.593    h229.189v-35.966c0-9.232-4.372-17.9-11.745-23.456C371.988,309.215,335.293,295.213,295.438,293.357z"/>
		<path style="fill:#07A521;" d="M152.741,391.172H27.854v-33.436c7.154-0.913,14.449-1.387,21.858-1.387    c8.532,0,16.924,0.632,25.114,1.852h0.009c25.992,3.845,50.062,13.589,70.805,27.818    C148.053,387.678,150.423,389.39,152.741,391.172z"/>
		<path style="fill:#07A521;" d="M413.636,352.627v38.545H185.29c22.147-23.429,50.123-41.284,81.602-51.247    c18.32-5.802,37.834-8.936,58.076-8.936c3.046,0,6.083,0.07,9.094,0.211C362.661,332.534,389.637,340.118,413.636,352.627z"/>
		<path style="fill:#07A521;" d="M413.636,352.627v38.545H185.29c22.147-23.429,50.123-41.284,81.602-51.247    c18.32-5.802,37.834-8.936,58.076-8.936c3.046,0,6.083,0.07,9.094,0.211C362.661,332.534,389.637,340.118,413.636,352.627z"/>
		<path style="fill:#0FBC30;" d="M326.505,248.426c0,15.06-9.25,17.78-20.67,17.78c-11.41,0-20.66-2.72-20.66-17.78    c0-15.06,9.25-44.66,20.66-44.66C317.255,203.766,326.505,233.366,326.505,248.426z"/>
		<path style="fill:#07A521;" d="M305.835,203.766c-0.352,0-0.703,0.029-1.051,0.084c4.13,9.571,6.721,21.608,6.721,29.576    c0,15.06-9.25,17.78-20.67,17.78c-1.929,0-3.794-0.081-5.565-0.283c0.99,12.865,9.817,15.283,20.565,15.283    c11.42,0,20.67-2.72,20.67-17.78C326.505,233.366,317.255,203.766,305.835,203.766z"/>
		<path style="fill:#3B9DFF;" d="M424.555,169.106c2.06,2.06,3.33,4.9,3.33,8.03c0,6.27-5.09,11.36-11.36,11.36h-39.17    c-3.13,0-5.97-1.27-8.03-3.33c-2.05-2.06-3.32-4.9-3.32-8.03c0-6.27,5.08-11.36,11.35-11.36h-42.84c-3.14,0-5.98-1.27-8.03-3.33    c-2.06-2.06-3.33-4.9-3.33-8.03c0-6.27,5.08-11.36,11.36-11.36h65.56c3.14,0,5.98,1.27,8.03,3.33c2.06,2.06,3.33,4.9,3.33,8.03    c0,6.27-5.08,11.36-11.36,11.36h16.45C419.665,165.776,422.505,167.046,424.555,169.106z"/>
		<path style="fill:#3B9DFF;" d="M169.415,75.996c8.49,0,15.37,6.89,15.37,15.38c0,4.25-1.72,8.09-4.5,10.87s-6.62,4.5-10.87,4.5    h-22.26c8.49,0,15.38,6.89,15.38,15.38c0,0.94-0.08,1.86-0.25,2.76c-0.57,3.14-2.09,5.95-4.26,8.11c-2.78,2.78-6.62,4.5-10.87,4.5    h-88.74c-8.49,0-15.37-6.88-15.37-15.37c0-4.24,1.72-8.09,4.5-10.87c2.78-2.79,6.62-4.51,10.87-4.51h58    c-8.5,0-15.38-6.88-15.38-15.37c0-4.25,1.72-8.09,4.5-10.87c2.79-2.79,6.63-4.51,10.88-4.51h3.44H169.415z"/>
		<g>
			<path style="fill:#0FBC30;" d="M439.48,414.483H0c0-4.43,1.13-8.59,3.12-12.22c1.17-2.14,2.64-4.09,4.35-5.8     c4.61-4.62,10.99-7.47,18.03-7.47h388.48c9.65,0,18.05,5.36,22.38,13.27C438.35,405.894,439.48,410.053,439.48,414.483z"/>
			<path style="fill:#07A521;" d="M439.48,414.483H0c0-4.43,1.13-8.59,3.12-12.22h433.24     C438.35,405.894,439.48,410.053,439.48,414.483z"/>
		</g>
	</g>
</g>















</svg>
