<?xml version="1.0" encoding="iso-8859-1"?>
<!-- Generator: Adobe Illustrator 19.0.0, SVG Export Plug-In . SVG Version: 6.00 Build 0)  -->
<svg xmlns="http://www.w3.org/2000/svg" xmlns:xlink="http://www.w3.org/1999/xlink" version="1.1" id="Layer_1" x="0px" y="0px" viewBox="0 0 439.48 439.48" style="enable-background:new 0 0 439.48 439.48;" xml:space="preserve" width="512" height="512">
<g>
	<rect x="28.24" y="346.776" style="fill:#9B6121;" width="9" height="32.3"/>
	<rect x="57.01" y="346.776" style="fill:#9B6121;" width="9" height="32.3"/>
	<rect x="85.78" y="346.776" style="fill:#9B6121;" width="9" height="32.3"/>
	<rect x="114.55" y="346.776" style="fill:#9B6121;" width="9" height="32.3"/>
	<rect x="143.32" y="346.776" style="fill:#9B6121;" width="9" height="32.3"/>
	<rect x="172.09" y="346.776" style="fill:#9B6121;" width="9" height="32.3"/>
	<rect x="200.86" y="346.776" style="fill:#9B6121;" width="9" height="32.3"/>
	<rect x="229.63" y="346.776" style="fill:#9B6121;" width="9" height="32.3"/>
	<rect x="258.4" y="346.776" style="fill:#9B6121;" width="9" height="32.3"/>
	<rect x="287.17" y="346.776" style="fill:#9B6121;" width="9" height="32.3"/>
	<rect x="315.93" y="346.776" style="fill:#9B6121;" width="9" height="32.3"/>
	<rect x="344.7" y="346.776" style="fill:#9B6121;" width="9" height="32.3"/>
	<rect x="373.47" y="346.776" style="fill:#9B6121;" width="9" height="32.3"/>
	<rect x="402.24" y="346.776" style="fill:#9B6121;" width="9" height="32.3"/>
	<path style="fill:#808080;" d="M353.992,233.406c-4.143,0-7.5-3.358-7.5-7.5v-9.573c0-4.142,3.357-7.5,7.5-7.5s7.5,3.358,7.5,7.5   v9.573C361.492,230.048,358.134,233.406,353.992,233.406z"/>
	<polygon style="fill:#ED2E2E;" points="239.38,198.646 230.49,200.016 225.33,166.386 219.29,127.016 228.19,125.646    234.85,169.076  "/>
	<polygon style="fill:#ED2E2E;" points="270.69,127.016 264.66,166.375 259.5,200.016 250.6,198.646 255.13,169.076 261.79,125.646     "/>
	<path style="fill:#D82525;" d="M228.19,125.646l6.66,43.43c-3.29-0.62-6.47-1.52-9.52-2.69l-6.04-39.37L228.19,125.646z"/>
	<path style="fill:#D82525;" d="M270.69,127.016l-6.03,39.36c-3.05,1.18-6.24,2.08-9.53,2.7l6.66-43.43L270.69,127.016z"/>
	<path style="fill:#562F15;" d="M28.24,346.776h9v12.45c-1.45,0.34-2.95,0.52-4.5,0.52c-1.55,0-3.05-0.18-4.5-0.52V346.776z"/>
	<path style="fill:#562F15;" d="M57.01,346.776h9v12.45c-1.44,0.34-2.95,0.52-4.5,0.52s-3.06-0.18-4.5-0.52V346.776z"/>
	<path style="fill:#562F15;" d="M85.78,346.776h9v12.45c-1.45,0.34-2.95,0.52-4.5,0.52c-1.55,0-3.05-0.18-4.5-0.52V346.776z"/>
	<path style="fill:#562F15;" d="M114.55,346.776h9v12.45c-1.44,0.34-2.95,0.52-4.5,0.52c-1.55,0-3.06-0.18-4.5-0.52V346.776z"/>
	<path style="fill:#562F15;" d="M143.32,346.776h9v12.45c-1.45,0.34-2.95,0.52-4.5,0.52c-1.55,0-3.05-0.18-4.5-0.52V346.776z"/>
	<path style="fill:#562F15;" d="M172.09,346.776h9v12.45c-1.44,0.34-2.95,0.52-4.5,0.52s-3.06-0.18-4.5-0.52V346.776z"/>
	<path style="fill:#562F15;" d="M200.86,346.776h9v12.45c-1.45,0.34-2.95,0.52-4.5,0.52s-3.06-0.18-4.5-0.52V346.776z"/>
	<path style="fill:#562F15;" d="M229.63,346.776h9v12.45c-1.44,0.34-2.95,0.52-4.5,0.52c-1.55,0-3.06-0.18-4.5-0.52V346.776z"/>
	<path style="fill:#562F15;" d="M258.4,346.776h9v12.45c-1.45,0.34-2.95,0.52-4.5,0.52c-1.55,0-3.06-0.18-4.5-0.52V346.776z"/>
	<path style="fill:#562F15;" d="M287.17,346.776h9v12.45c-1.44,0.34-2.95,0.52-4.5,0.52c-1.55,0-3.06-0.18-4.5-0.52V346.776z"/>
	<path style="fill:#562F15;" d="M315.93,346.776h9v12.45c-1.44,0.34-2.95,0.52-4.5,0.52c-1.55,0-3.06-0.18-4.5-0.52V346.776z"/>
	<path style="fill:#562F15;" d="M344.7,346.776h9v12.45c-1.44,0.34-2.95,0.52-4.5,0.52s-3.05-0.18-4.5-0.52V346.776z"/>
	<path style="fill:#562F15;" d="M373.47,346.776h9v12.45c-1.44,0.34-2.95,0.52-4.5,0.52s-3.06-0.18-4.5-0.52V346.776z"/>
	<path style="fill:#562F15;" d="M411.24,346.776v12.45c-1.45,0.34-2.95,0.52-4.5,0.52s-3.05-0.18-4.5-0.52v-12.45H411.24z"/>
	<path style="fill:#3B9DFF;" d="M383.63,74.966c2.79,2.78,4.51,6.63,4.51,10.87c0,8.49-6.89,15.37-15.38,15.37H299.9   c-0.713-12.76-46.467,6.342-54.42-2.633c-9.561-10.789,17.393-48.489,2.01-49.177c2.26-5.67,7.8-9.69,14.28-9.69h53   c4.25,0,8.09,1.72,10.87,4.51c2.79,2.78,4.51,6.62,4.51,10.87c0,8.49-6.89,15.37-15.38,15.37h57.99   C377,70.456,380.85,72.176,383.63,74.966z"/>
	<path style="fill:#ED2E2E;" d="M353.99,181.666c10.68,0,19.34,8.66,19.34,19.33c0,10.68-8.66,19.34-19.34,19.34   s-19.33-8.66-19.33-19.34C334.66,190.326,343.31,181.666,353.99,181.666z"/>
	<path style="fill:#808080;" d="M260.49,192.336v12.43c0,5.28-4.28,9.57-9.57,9.57h-11.86c-5.28,0-9.57-4.29-9.57-9.57v-12.43   H260.49z"/>
	<path style="fill:#ED2E2E;" d="M299.9,101.205c-1.57-28.1-24.23-50.55-52.41-51.81c-0.03,0.08-0.06,0.15-0.09,0.229   c-0.79-0.19-1.6-0.29-2.41-0.29c-30.37,0-55,24.62-55,55c0,18.14,8.79,34.24,22.35,44.25c9.13,6.76,20.42,10.75,32.65,10.75   c12.23,0,23.52-3.99,32.65-10.74c13.56-10.01,22.35-26.11,22.35-44.26C299.99,103.286,299.96,102.236,299.9,101.205z"/>
	<path style="fill:#FFD039;" d="M247.4,49.626c11.71,2.85,20.84,26.25,20.84,54.71c0,30.37-10.41,55-23.25,55   c-12.83,0-23.24-24.63-23.24-55c0-30.38,10.41-55,23.24-55C245.8,49.336,246.61,49.436,247.4,49.626z"/>
	<path style="fill:#3B9DFF;" d="M151.77,138.706c8.49,0,15.37,6.88,15.37,15.37c0,4.25-1.72,8.09-4.5,10.88   c-2.78,2.78-6.62,4.5-10.87,4.5h-22.26c8.49,0,15.38,6.88,15.38,15.37c0,4.24-1.72,8.09-4.51,10.87   c-2.78,2.79-6.62,4.51-10.87,4.51H40.77c-8.49,0-15.37-6.89-15.37-15.38c0-4.24,1.72-8.09,4.5-10.87c2.78-2.78,6.62-4.5,10.87-4.5   h57.99c-8.49,0-15.37-6.88-15.37-15.38c0-4.25,1.72-8.09,4.5-10.87c2.78-2.78,6.63-4.5,10.87-4.5H151.77z"/>
	<path style="fill:#07A521;" d="M406.74,313.076c11.05,0,20,8.95,20,20c0,11.04-8.95,20-20,20c-5.65,0-10.75-2.36-14.38-6.13   c-3.64,3.77-8.73,6.13-14.39,6.13c-5.65,0-10.74-2.36-14.38-6.13c-3.64,3.77-8.73,6.13-14.39,6.13c-5.65,0-10.74-2.36-14.38-6.13   c-3.64,3.77-8.73,6.13-14.39,6.13c-5.65,0-10.74-2.36-14.38-6.13c-3.64,3.77-8.73,6.13-14.38,6.13c-5.66,0-10.75-2.36-14.39-6.13   c-3.64,3.77-8.73,6.13-14.38,6.13c-5.66,0-10.75-2.36-14.39-6.13c-3.64,3.77-8.73,6.13-14.38,6.13c-5.66,0-10.75-2.36-14.39-6.13   c-3.64,3.77-8.73,6.13-14.38,6.13c-5.66,0-10.75-2.36-14.39-6.13c-3.63,3.77-8.73,6.13-14.38,6.13c-5.65,0-10.75-2.36-14.39-6.13   c-3.63,3.77-8.73,6.13-14.38,6.13c-5.65,0-10.75-2.36-14.39-6.13c-3.63,3.77-8.73,6.13-14.38,6.13c-5.65,0-10.75-2.36-14.38-6.13   c-3.64,3.77-8.74,6.13-14.39,6.13s-10.75-2.36-14.38-6.13c-3.64,3.77-8.74,6.13-14.39,6.13s-10.75-2.36-14.38-6.13   c-3.64,3.77-8.74,6.13-14.39,6.13c-11.04,0-20-8.96-20-20c0-11.05,8.96-20,20-20c5.65,0,10.75,2.35,14.39,6.12   c3.63-3.77,8.73-6.12,14.38-6.12s10.75,2.35,14.39,6.12c3.63-3.77,8.73-6.12,14.38-6.12s10.75,2.35,14.39,6.12   c3.63-3.77,8.73-6.12,14.38-6.12c5.65,0,10.75,2.35,14.38,6.12c3.64-3.77,8.74-6.12,14.39-6.12c5.65,0,10.75,2.35,14.38,6.12   c3.64-3.77,8.74-6.12,14.39-6.12c5.65,0,10.75,2.35,14.38,6.12c3.64-3.77,8.73-6.12,14.39-6.12c5.65,0,10.74,2.35,14.38,6.12   c3.64-3.77,8.73-6.12,14.39-6.12c5.65,0,10.74,2.35,14.38,6.12c3.64-3.77,8.73-6.12,14.39-6.12c5.65,0,10.74,2.35,14.38,6.12   c3.64-3.77,8.73-6.12,14.39-6.12c5.65,0,10.74,2.35,14.38,6.12c3.64-3.77,8.73-6.12,14.38-6.12c5.66,0,10.75,2.35,14.39,6.12   c3.64-3.77,8.73-6.12,14.38-6.12c5.66,0,10.75,2.35,14.39,6.12c3.64-3.77,8.73-6.12,14.38-6.12c5.66,0,10.75,2.35,14.39,6.12   C395.99,315.426,401.09,313.076,406.74,313.076z"/>
	<path style="fill:#0FBC30;" d="M426.74,333.076c0,1.97-0.28,3.87-0.82,5.67c-2.43-8.29-10.1-14.34-19.18-14.34   c-5.65,0-10.75,2.35-14.38,6.12c-3.64-3.77-8.73-6.12-14.39-6.12c-5.65,0-10.74,2.35-14.38,6.12c-3.64-3.77-8.73-6.12-14.39-6.12   c-5.65,0-10.74,2.35-14.38,6.12c-3.64-3.77-8.73-6.12-14.39-6.12c-5.65,0-10.74,2.35-14.38,6.12c-3.64-3.77-8.73-6.12-14.38-6.12   c-5.66,0-10.75,2.35-14.39,6.12c-3.64-3.77-8.73-6.12-14.38-6.12c-5.66,0-10.75,2.35-14.39,6.12c-3.64-3.77-8.73-6.12-14.38-6.12   c-5.66,0-10.75,2.35-14.39,6.12c-3.64-3.77-8.73-6.12-14.38-6.12c-5.66,0-10.75,2.35-14.39,6.12c-3.63-3.77-8.73-6.12-14.38-6.12   s-10.75,2.35-14.39,6.12c-3.63-3.77-8.73-6.12-14.38-6.12c-5.65,0-10.75,2.35-14.39,6.12c-3.63-3.77-8.73-6.12-14.38-6.12   c-5.65,0-10.75,2.35-14.38,6.12c-3.64-3.77-8.74-6.12-14.39-6.12c-5.65,0-10.75,2.35-14.38,6.12c-3.64-3.77-8.74-6.12-14.39-6.12   c-5.65,0-10.75,2.35-14.38,6.12c-3.64-3.77-8.74-6.12-14.39-6.12c-9.08,0-16.75,6.05-19.18,14.34c-0.54-1.8-0.82-3.7-0.82-5.67   c0-11.05,8.96-20,20-20c5.65,0,10.75,2.35,14.39,6.12c3.63-3.77,8.73-6.12,14.38-6.12c5.65,0,10.75,2.35,14.39,6.12   c3.63-3.77,8.73-6.12,14.38-6.12c5.65,0,10.75,2.35,14.39,6.12c3.63-3.77,8.73-6.12,14.38-6.12c5.65,0,10.75,2.35,14.38,6.12   c3.64-3.77,8.74-6.12,14.39-6.12c5.65,0,10.75,2.35,14.38,6.12c3.64-3.77,8.74-6.12,14.39-6.12s10.75,2.35,14.38,6.12   c3.64-3.77,8.73-6.12,14.39-6.12c5.65,0,10.74,2.35,14.38,6.12c3.64-3.77,8.73-6.12,14.39-6.12c5.65,0,10.74,2.35,14.38,6.12   c3.64-3.77,8.73-6.12,14.39-6.12c5.65,0,10.74,2.35,14.38,6.12c3.64-3.77,8.73-6.12,14.39-6.12c5.65,0,10.74,2.35,14.38,6.12   c3.64-3.77,8.73-6.12,14.38-6.12c5.66,0,10.75,2.35,14.39,6.12c3.64-3.77,8.73-6.12,14.38-6.12c5.66,0,10.75,2.35,14.39,6.12   c3.64-3.77,8.73-6.12,14.38-6.12c5.66,0,10.75,2.35,14.39,6.12c3.63-3.77,8.73-6.12,14.38-6.12   C417.79,313.076,426.74,322.026,426.74,333.076z"/>
	<g>
		<path style="fill:#0FBC30;" d="M439.48,399.774H0c0-4.43,1.13-8.59,3.12-12.22c1.17-2.14,2.64-4.09,4.35-5.8    c4.61-4.62,10.99-7.47,18.03-7.47h388.48c9.65,0,18.05,5.36,22.38,13.27C438.35,391.184,439.48,395.344,439.48,399.774z"/>
		<path style="fill:#07A521;" d="M439.48,399.774H0c0-4.43,1.13-8.59,3.12-12.22h433.24    C438.35,391.184,439.48,395.344,439.48,399.774z"/>
	</g>
</g>















</svg>
