<?xml version="1.0" encoding="iso-8859-1"?>
<!-- Generator: Adobe Illustrator 19.0.0, SVG Export Plug-In . SVG Version: 6.00 Build 0)  -->
<svg xmlns="http://www.w3.org/2000/svg" xmlns:xlink="http://www.w3.org/1999/xlink" version="1.1" id="Layer_1" x="0px" y="0px" viewBox="0 0 439.48 439.48" style="enable-background:new 0 0 439.48 439.48;" xml:space="preserve" width="512" height="512">
<g>
	<path style="fill:#FFD039;" d="M139.565,41.017c27.75,0,50.24,22.5,50.24,50.25s-22.49,50.25-50.24,50.25   c-27.76,0-50.25-22.5-50.25-50.25S111.805,41.017,139.565,41.017z"/>
	<path style="fill:#EAB932;" d="M139.56,41.014c-27.75,0-50.24,22.5-50.24,50.25s22.49,50.25,50.24,50.25s50.25-22.5,50.25-50.25   S167.31,41.014,139.56,41.014z"/>
	<path style="fill:#FFD039;" d="M89.32,91.264c0,27.75,22.49,50.25,50.24,50.25c6.12,0,11.98-1.09,17.4-3.1   c2.01-5.42,3.1-11.28,3.1-17.4c0-27.75-22.49-50.25-50.25-50.25c-6.11,0-11.97,1.09-17.39,3.09   C90.41,79.284,89.32,85.144,89.32,91.264z"/>
	<path style="fill:#9B6121;" d="M178.811,294.924L178.811,294.924c-1.429,0-2.75-0.762-3.464-2l-11.637-20.156l6.928-4l8.173,14.156   l8.174-14.156l6.928,4l-11.638,20.156C181.561,294.161,180.239,294.924,178.811,294.924z"/>
	<rect x="337.765" y="323.414" style="fill:#9B6121;" width="8" height="63.23"/>
	<rect x="403.325" y="323.414" style="fill:#9B6121;" width="8" height="63.23"/>
	<rect x="370.315" y="323.414" style="fill:#9B6121;" width="8" height="63.23"/>
	<polygon style="fill:#FFD039;" points="238.748,375.434 125.398,375.434 178.808,282.924 178.818,282.924 215.478,346.424  "/>
	<path style="fill:#9B6121;" d="M257.198,286.924L257.198,286.924c-1.429,0-2.75-0.762-3.464-2l-11.637-20.156l6.928-4l8.173,14.156   l8.174-14.156l6.928,4l-11.638,20.156C259.948,286.161,258.627,286.924,257.198,286.924z"/>
	<polygon style="fill:#EAB932;" points="238.748,375.434 183.778,375.434 178.808,282.924 178.818,282.924 215.478,346.424  "/>
	<path style="fill:#562F15;" d="M337.765,323.414h8v21.24c-1.3,0.25-2.64,0.38-4.01,0.38c-1.36,0-2.69-0.13-3.99-0.38V323.414z"/>
	<path style="fill:#562F15;" d="M370.315,323.414h8v21.24c-1.3,0.25-2.64,0.38-4.01,0.38c-1.36,0-2.69-0.13-3.99-0.38V323.414z"/>
	<path style="fill:#562F15;" d="M411.325,323.414v21.24c-1.3,0.25-2.64,0.38-4,0.38c-1.36,0-2.7-0.13-4-0.38v-21.24H411.325z"/>
	<path style="fill:#3B9DFF;" d="M415.055,131.324c2.78,2.78,4.5,6.62,4.5,10.87c0,8.49-6.88,15.37-15.37,15.37h-88.74   c-4.24,0-8.09-1.72-10.87-4.5c-2.79-2.78-4.51-6.62-4.51-10.87c0-8.49,6.89-15.38,15.38-15.38h-140.37h-29.36   c-4.25,0-8.09-1.72-10.87-4.5c-2.79-2.78-4.51-6.63-4.51-10.87c0-8.49,6.89-15.38,15.38-15.38h43.87h156.6   c4.25,0,8.1,1.72,10.88,4.51c2.78,2.78,4.5,6.63,4.5,10.87c0,8.49-6.88,15.37-15.38,15.37h58   C408.425,126.814,412.275,128.534,415.055,131.324z"/>
	<polygon style="fill:#FFD039;" points="215.478,346.424 257.198,274.164 315.668,375.434 271.918,375.434 252.328,341.494    232.728,375.434 232.228,375.434 198.728,375.434  "/>
	<polygon style="fill:#562F15;" points="252.328,341.494 271.918,375.434 232.728,375.434  "/>
	<path style="fill:#3B9DFF;" d="M184.315,174.064c8.5,0,15.4,6.89,15.4,15.39c0,4.25-1.73,8.11-4.51,10.89   c-2.79,2.79-6.64,4.51-10.89,4.51h-105.7c-8.51,0-15.4-6.89-15.4-15.4c0-4.25,1.72-8.1,4.51-10.88c2.78-2.79,6.64-4.51,10.89-4.51   H184.315z"/>
	<path style="fill:#ED2E2E;" d="M62.815,341.494l11.824,20.475c3.456,5.984-0.863,13.465-7.773,13.465H58.77   c-6.909,0-11.228-7.479-7.774-13.463L62.815,341.494z"/>
	<g>
		<path style="fill:#666666;" d="M61.163,279.545h64.257c3.503,0,6.341-2.839,6.341-6.341s-2.839-6.341-6.341-6.341H61.163    c-3.503,0-6.341,2.839-6.341,6.341S57.66,279.545,61.163,279.545z"/>
		<path style="fill:#666666;" d="M20.579,300.964h53.548c3.503,0,6.341-2.839,6.341-6.341s-2.839-6.341-6.341-6.341H20.579    c-2.408,0-4.368-1.96-4.368-4.368s1.959-4.368,4.368-4.368h22.547c3.503,0,6.341-2.839,6.341-6.341s-2.839-6.341-6.341-6.341    H20.579c-9.401,0-17.05,7.649-17.05,17.051S11.178,300.964,20.579,300.964z"/>
		<path style="fill:#666666;" d="M100.056,308.573H74.838c-9.712,0-17.614,7.902-17.614,17.615c0,3.502,2.839,6.341,6.341,6.341    s6.341-2.839,6.341-6.341c0-2.72,2.212-4.932,4.932-4.932h25.218c9.091,0,16.487-7.396,16.487-16.487    c0-9.091-7.396-16.487-16.487-16.487h-4.508c-3.503,0-6.341,2.839-6.341,6.341s2.839,6.341,6.341,6.341h4.508    c2.098,0,3.805,1.707,3.805,3.805C103.86,306.867,102.154,308.573,100.056,308.573z"/>
	</g>
	<polygon style="fill:#EAB932;" points="257.198,274.164 315.668,375.434 289.412,375.434  "/>
	<g>
		<path style="fill:#0FBC30;" d="M439.48,398.466H0c0-4.43,1.13-8.59,3.12-12.22c1.17-2.14,2.64-4.09,4.35-5.8    c4.61-4.62,10.99-7.47,18.03-7.47h388.48c9.65,0,18.05,5.36,22.38,13.27C438.35,389.876,439.48,394.036,439.48,398.466z"/>
		<path style="fill:#07A521;" d="M439.48,398.466H0c0-4.43,1.13-8.59,3.12-12.22h433.24    C438.35,389.876,439.48,394.036,439.48,398.466z"/>
	</g>
	<path style="fill:#0FBC30;" d="M407.328,278.364c13.35,0,24.18,12.39,24.18,27.67c0,15.27-10.83,27.66-24.18,27.66   c-6.39,0-12.19-2.83-16.51-7.46c-4.32,4.63-10.12,7.46-16.51,7.46c-6.26,0-11.98-2.73-16.27-7.2c-4.3,4.47-10.01,7.2-16.28,7.2   c-13.35,0-24.17-12.39-24.17-27.66c0-15.28,10.82-27.67,24.17-27.67c6.27,0,11.98,2.73,16.28,7.2c4.29-4.47,10.01-7.2,16.27-7.2   c6.39,0,12.19,2.83,16.51,7.46C395.138,281.194,400.938,278.364,407.328,278.364z"/>
</g>















</svg>
