<?xml version="1.0" encoding="iso-8859-1"?>
<!-- Generator: Adobe Illustrator 19.0.0, SVG Export Plug-In . SVG Version: 6.00 Build 0)  -->
<svg xmlns="http://www.w3.org/2000/svg" xmlns:xlink="http://www.w3.org/1999/xlink" version="1.1" id="Layer_1" x="0px" y="0px" viewBox="0 0 439.48 439.48" style="enable-background:new 0 0 439.48 439.48;" xml:space="preserve" width="512" height="512">
<g>
	<path style="fill:#ED2E2E;" d="M99.499,321.719c-2.184,0-4.101-1.592-4.442-3.817c-0.377-2.457,1.308-4.754,3.764-5.131   l11.205-1.722c2.46-0.375,4.754,1.309,5.131,3.764c0.377,2.457-1.308,4.754-3.764,5.131l-11.205,1.722   C99.957,321.701,99.726,321.719,99.499,321.719z"/>
	<path style="fill:#FFD039;" d="M81.417,300.441c10.556-1.622,20.419,5.614,22.041,16.17c1.622,10.556-5.614,20.419-16.17,22.041   s-20.419-5.614-22.041-16.17C63.625,311.926,70.861,302.063,81.417,300.441z"/>
	<path style="fill:#FFD039;" d="M98.762,351.894l0.21,1.364c0.782,5.09-0.568,10.002-3.387,13.845   c-2.819,3.843-7.109,6.606-12.19,7.387c-18.216,2.799-35.262-9.697-38.061-27.914l-1.007-6.553l31.629-4.86   C86.878,333.485,97.085,340.982,98.762,351.894z"/>
	<path style="fill:#0FBC30;" d="M288.67,368.56c0,4.94-1.24,9.59-3.43,13.65c-5.36-2.44-10.85-4.82-21.57-4.82   c-14.64,0-19.53,4.44-27.66,7.4c-3.16-4.62-5.01-10.21-5.01-16.23c0-15.93,12.91-28.84,28.84-28.84   C275.76,339.72,288.67,352.63,288.67,368.56z"/>
	<path style="fill:#0FBC30;" d="M164.74,367.39v28.5H0c0-4.63,1.11-9.01,3.08-12.88c4.69-9.27,14.31-15.62,25.42-15.62H164.74z"/>
	<path style="fill:#07A521;" d="M164.74,383.01v12.88H0c0-4.63,1.11-9.01,3.08-12.88H164.74z"/>
	<g>
		<path style="fill:#07A521;" d="M347.524,192.51c-2.485,0-4.5,2.015-4.5,4.5v165.503c0,2.485,2.015,4.5,4.5,4.5s4.5-2.015,4.5-4.5    V197.01C352.024,194.525,350.01,192.51,347.524,192.51z"/>
		<path style="fill:#07A521;" d="M202.165,257.62c-5.229,5.49-9.169,11.58-12.141,17.651V140.01c0-2.485-2.015-4.5-4.5-4.5    s-4.5,2.015-4.5,4.5v154.681c-2.995-6.21-6.991-12.454-12.341-18.071c-1.715-1.8-4.563-1.869-6.362-0.155    c-1.8,1.714-1.869,4.563-0.155,6.362c18.47,19.393,18.758,48.609,18.759,48.902c0,0.319,0.036,0.63,0.1,0.93v29.064    c0,2.485,2.015,4.5,4.5,4.5s4.5-2.015,4.5-4.5v-51.33c0.469-7.304,3.167-30.301,18.659-46.567c1.714-1.8,1.645-4.648-0.155-6.362    C206.729,255.752,203.88,255.821,202.165,257.62z"/>
		<path style="fill:#07A521;" d="M417.528,280.465c-1.8-1.714-4.648-1.644-6.362,0.155c-4.659,4.893-8.29,10.271-11.141,15.718    V167.01c0-2.485-2.015-4.5-4.5-4.5s-4.5,2.015-4.5,4.5v205.383c0,2.485,2.015,4.5,4.5,4.5s4.5-2.015,4.5-4.5v-47.487    c1.835-10.907,6.386-26.242,17.659-38.079C419.397,285.027,419.327,282.178,417.528,280.465z"/>
	</g>
	<path style="fill:#3B9DFF;" d="M439.48,395.85v0.04H153.8v-28.5c5.49-2.5,10.98-5,21.97-5c21.98,0,21.98,10,43.95,10   c21.97,0,21.97-10,43.95-10c21.97,0,21.97,10,43.95,10c21.97,0,21.97-10,43.94-10c21.98,0,21.98,10,43.96,10   c4.95,0,8.78-0.5,12-1.29c11.63-2.83,22.99,2.51,28.5,11.91C438.21,386.74,439.48,391.1,439.48,395.85z"/>
	<path style="fill:#808080;" d="M408.97,197.17v47.1c0,3.72-1.51,7.08-3.94,9.51c-2.43,2.43-5.79,3.94-9.51,3.94   c-7.42,0-13.45-6.02-13.45-13.45v-47.1c0-7.42,6.03-13.45,13.45-13.45C402.95,183.72,408.97,189.75,408.97,197.17z"/>
	<path style="fill:#3B9DFF;" d="M350.68,94.34c8.5,0,15.38,6.88,15.38,15.37c0,4.24-1.72,8.09-4.5,10.87   c-2.78,2.79-6.63,4.51-10.88,4.51h-57.99c-8.49,0-15.37-6.89-15.37-15.38c0-4.24,1.72-8.09,4.5-10.87s6.62-4.5,10.87-4.5H350.68z"/>
	<path style="fill:#808080;" d="M360.97,227.17v47.1c0,3.72-1.51,7.08-3.94,9.51c-2.43,2.43-5.79,3.94-9.51,3.94   c-7.42,0-13.45-6.02-13.45-13.45v-47.1c0-7.42,6.03-13.45,13.45-13.45C354.95,213.72,360.97,219.75,360.97,227.17z"/>
	<path style="fill:#808080;" d="M198.97,170.17v47.1c0,3.72-1.51,7.08-3.94,9.51c-2.43,2.43-5.79,3.94-9.51,3.94   c-7.42,0-13.45-6.02-13.45-13.45v-47.1c0-7.42,6.03-13.45,13.45-13.45C192.95,156.72,198.97,162.75,198.97,170.17z"/>
	<path style="fill:#3B9DFF;" d="M165.31,43.59c8.49,0,15.38,6.88,15.38,15.37c0,4.25-1.72,8.09-4.51,10.87   c-2.78,2.79-6.62,4.51-10.87,4.51h-22.25c8.49,0,15.37,6.88,15.37,15.37c0,4.24-1.72,8.09-4.5,10.87   c-2.78,2.79-6.63,4.51-10.87,4.51H54.32c-8.49,0-15.38-6.89-15.38-15.38c0-4.24,1.72-8.09,4.51-10.87c2.78-2.78,6.63-4.5,10.87-4.5   h57.99c-8.49,0-15.37-6.89-15.37-15.38c0-4.25,1.72-8.09,4.5-10.87c2.78-2.78,6.62-4.5,10.87-4.5H165.31z"/>
	<circle style="fill:#808080;" cx="92.74" cy="317.01" r="6"/>
	<path style="fill:#1E79C4;" d="M439.48,395.85v0.04H153.8v-12.88h282.22C438.21,386.74,439.48,391.1,439.48,395.85z"/>
</g>















</svg>
