<?xml version="1.0" encoding="iso-8859-1"?>
<!-- Generator: Adobe Illustrator 19.0.0, SVG Export Plug-In . SVG Version: 6.00 Build 0)  -->
<svg xmlns="http://www.w3.org/2000/svg" xmlns:xlink="http://www.w3.org/1999/xlink" version="1.1" id="Layer_1" x="0px" y="0px" viewBox="0 0 437.8 437.8" style="enable-background:new 0 0 437.8 437.8;" xml:space="preserve" width="512" height="512">
<g>
	<path style="fill:#3B9DFF;" d="M217.39,395.165l-7.33,12.21H0c0-4.42,1.22-8.61,3.38-12.22c2.87-4.82,7.42-8.61,12.99-10.54   c9.68-3.35,15.29-8.84,31.35-8.84c23.13,0,23.13,11.37,46.25,11.37c23.11,0,23.11-11.37,46.22-11.37   c23.12,0,23.12,11.37,46.24,11.37c11.56,0,17.34-2.42,23.11-5.27l7.84,13.28L217.39,395.165z"/>
	<path style="fill:#3392D3;" d="M217.39,395.165l-7.33,12.21H0c0-4.42,1.22-8.61,3.38-12.22h214L217.39,395.165z"/>
	<path style="fill:#CCCCCC;" d="M328.938,127.209c-2.762,0-5-2.239-5-5V98.543c0-2.761,2.238-5,5-5s5,2.239,5,5v23.667   C333.938,124.971,331.7,127.209,328.938,127.209z"/>
	<path style="fill:#ED2E2E;" d="M362.91,151.515v12.22l-14.19,13.1h-39.56l-14.19-13.1v-12.22c0-0.83,0.03-1.65,0.09-2.47   c0.16-2.23,0.54-4.41,1.11-6.5c0.62-2.27,1.47-4.45,2.53-6.5c5.61-10.98,17.05-18.5,30.24-18.5s24.63,7.52,30.24,18.5   c1.06,2.05,1.91,4.23,2.53,6.5c0.57,2.09,0.95,4.27,1.11,6.5C362.88,149.865,362.91,150.685,362.91,151.515z"/>
	<path style="fill:#D82525;" d="M361.71,142.545c-3.93-14.41-17.11-25-32.77-25c-4.351,0-8.51,0.82-12.333,2.31   c9.936,3.872,17.599,12.284,20.437,22.69c0.78,2.86,1.2,5.87,1.2,8.97v12.22l10.477,5.6l14.19-5.6v-12.22   C362.91,148.415,362.49,145.405,361.71,142.545z"/>
	<path style="fill:#EAB932;" d="M172.63,30.425c27.75,0,50.25,22.49,50.25,50.24s-22.5,50.25-50.25,50.25s-50.25-22.5-50.25-50.25   S144.88,30.425,172.63,30.425z"/>
	<polygon style="fill:#E6E6E6;" points="368.09,216.675 368.09,252.335 364.73,253.355 339.39,261.085 289.79,276.205    289.79,240.545 339.39,225.425 364.73,217.695  "/>
	<polygon style="fill:#E6E6E6;" points="368.09,288.005 368.09,323.675 364.73,324.695 339.39,332.425 289.79,347.545    289.79,311.875 339.39,296.755 364.73,289.025  "/>
	<polygon style="fill:#ED2E2E;" points="368.09,323.675 368.09,353.545 289.79,353.545 289.79,347.545 339.39,332.425    364.73,324.695  "/>
	<polygon style="fill:#ED2E2E;" points="368.09,252.335 368.09,288.005 364.73,289.025 339.39,296.755 289.79,311.875    289.79,276.205 339.39,261.085 364.73,253.355  "/>
	<polygon style="fill:#ED2E2E;" points="368.09,206.545 368.09,216.675 359.75,219.215 342.75,224.395 289.79,240.545    289.79,206.545 309.16,199.835 348.72,199.835  "/>
	<polygon style="fill:#D82525;" points="368.09,323.675 368.09,358.085 342.75,358.085 342.75,331.405  "/>
	<polygon style="fill:#CCCCCC;" points="368.09,216.675 368.09,252.335 342.75,260.065 342.75,224.405  "/>
	<polygon style="fill:#D82525;" points="368.09,252.335 368.09,288.005 342.75,295.735 342.75,260.065  "/>
	<polygon style="fill:#D82525;" points="368.09,206.545 368.09,216.675 342.75,224.395 342.75,199.835 348.72,199.835  "/>
	<polygon style="fill:#D82525;" points="368.09,206.545 368.09,216.675 359.75,219.215 289.79,219.215 289.79,206.545    309.16,199.835 348.72,199.835  "/>
	<polygon style="fill:#CCCCCC;" points="368.09,288.005 368.09,323.675 342.75,331.405 342.75,295.735  "/>
	<polygon style="fill:#F2F2F2;" points="362.91,163.735 348.72,163.735 309.16,163.735 294.97,163.735 276.64,163.735    276.64,206.545 289.79,206.545 309.16,206.545 348.72,206.545 368.09,206.545 381.24,206.545 381.24,163.735  "/>
	<polygon style="fill:#CCCCCC;" points="381.24,163.735 381.24,206.545 368.09,206.545 348.72,206.545 348.72,163.735    362.91,163.735  "/>
	<rect x="309.16" y="163.735" style="fill:#E6E6E6;" width="39.56" height="42.81"/>
	<polygon style="fill:#CCCCCC;" points="398.24,351.545 404.44,385.545 253.44,385.545 259.64,351.545 289.79,351.545    368.09,351.545  "/>
	<polygon style="fill:#B3B3B3;" points="398.24,351.545 368.09,351.545 349.573,351.545 355.773,385.545 404.44,385.545  "/>
	<path style="fill:#B3B3B3;" d="M430.33,389.345c1.71,1.71,3.18,3.67,4.35,5.81H209.54v-13.28H412.3   C419.34,381.875,425.72,384.735,430.33,389.345z"/>
	<path style="fill:#FFD039;" d="M320.44,136.045v13h-25.38c0.16-2.23,0.54-4.41,1.11-6.5c0.62-2.27,1.47-4.45,2.53-6.5H320.44z"/>
	<path style="fill:#FFD039;" d="M362.82,149.045h-25.38v-13h21.74c1.06,2.05,1.91,4.23,2.53,6.5   C362.28,144.635,362.66,146.815,362.82,149.045z"/>
	<path style="fill:#666666;" d="M53.273,151.703c-0.537,0.636-1.039,1.296-1.508,1.977c-1.005-1.486-2.146-2.875-3.443-4.094   c-6.334-5.954-14.966-9.021-23.547-6.685c2.593,0.995,5.167,1.807,7.585,3.208c3.423,1.984,6.505,4.539,8.906,7.699   c1.694,2.229,3.109,4.744,4.02,7.398c0.739,2.153,1.261,4.43,1.415,6.706c0.028,0.408-0.148,1.465,0.067,1.809   c0.012,0.019,0.01,0.02,0.018,0.034c-0.002,0.098-0.014,0.195-0.015,0.292c-0.045,3.215,2.923,5.751,6.107,5.034   c2.622-0.59,3.835-2.854,3.853-5.316c0.234-0.58,0.229-2.82,0.315-3.476c0.811-6.127,3.895-11.518,8.24-15.799   c1.906-1.878,4.199-3.512,6.57-4.733c2.251-1.16,4.553-1.959,6.916-2.857C69.282,140.253,59.461,144.368,53.273,151.703z"/>
	<path style="fill:#666666;" d="M89.685,228.011c-0.407,0.483-0.788,0.983-1.143,1.499c-0.762-1.127-1.627-2.18-2.611-3.105   c-4.804-4.516-11.35-6.841-17.858-5.07c1.967,0.755,3.919,1.37,5.752,2.433c2.596,1.505,4.933,3.443,6.754,5.839   c1.285,1.691,2.357,3.597,3.048,5.61c0.56,1.633,0.956,3.36,1.073,5.086c0.021,0.309-0.112,1.111,0.051,1.372   c0.009,0.014,0.008,0.015,0.014,0.026c-0.002,0.074-0.011,0.148-0.012,0.222c-0.034,2.438,2.217,4.361,4.631,3.818   c1.989-0.447,2.908-2.164,2.922-4.031c0.178-0.44,0.173-2.139,0.239-2.636c0.615-4.647,2.954-8.735,6.249-11.982   c1.446-1.425,3.185-2.663,4.982-3.589c1.707-0.88,3.453-1.485,5.245-2.167C101.826,219.328,94.378,222.448,89.685,228.011z"/>
	<path style="fill:#999999;" d="M437.8,407.375H209.54v-12.22h225.14c0.12,0.23,0.25,0.46,0.36,0.69c0.28,0.53,0.53,1.08,0.77,1.64   c0.16,0.37,0.3,0.74,0.44,1.12c0.02,0.03,0.03,0.07,0.04,0.1c0.13,0.36,0.25,0.72,0.36,1.09c0.12,0.38,0.23,0.77,0.34,1.17   c0,0.02,0,0.03,0.01,0.05c0.1,0.4,0.2,0.81,0.28,1.22c0.07,0.35,0.14,0.71,0.2,1.07c0.05,0.34,0.1,0.67,0.13,1.01   c0.03,0.2,0.05,0.4,0.07,0.6c0.01,0.05,0.01,0.1,0.01,0.16c0.03,0.29,0.05,0.58,0.07,0.87c0.01,0.08,0.01,0.17,0.01,0.25   C437.79,406.585,437.8,406.975,437.8,407.375z"/>
	<path style="fill:#FFD039;" d="M222.88,80.665c0,27.75-22.5,50.24-50.25,50.24c-4.47,0-8.81-0.58-12.94-1.68   c-8.21-7.91-13.31-19.01-13.31-31.31c0-24.03,19.48-43.5,43.5-43.5c12.3,0,23.4,5.1,31.32,13.31   C222.3,71.855,222.88,76.195,222.88,80.665z"/>
</g>















</svg>
