<?xml version="1.0" encoding="iso-8859-1"?>
<!-- Generator: Adobe Illustrator 19.0.0, SVG Export Plug-In . SVG Version: 6.00 Build 0)  -->
<svg xmlns="http://www.w3.org/2000/svg" xmlns:xlink="http://www.w3.org/1999/xlink" version="1.1" id="Layer_1" x="0px" y="0px" viewBox="0 0 439.48 439.48" style="enable-background:new 0 0 439.48 439.48;" xml:space="preserve" width="512" height="512">
<g>
	<path style="fill:#EAB932;" d="M370.925,27.877c27.75,0,50.25,22.5,50.25,50.25s-22.5,50.24-50.25,50.24   c-10.66,0-20.54-3.31-28.67-8.98l-20.48-30.75c-0.72-3.39-1.1-6.9-1.1-10.51C320.675,50.377,343.175,27.877,370.925,27.877z"/>
	<path style="fill:#FFD039;" d="M421.175,78.117c0,27.75-22.49,50.25-50.24,50.25c-6.12,0-11.98-1.09-17.4-3.1   c-2.01-5.42-3.1-11.28-3.1-17.4c0-27.75,22.49-50.25,50.25-50.25c6.11,0,11.97,1.09,17.39,3.09   C420.085,66.137,421.175,71.997,421.175,78.117z"/>
	<path style="fill:#3B9DFF;" d="M354.295,93.137c2.78,2.78,4.5,6.63,4.5,10.87c0,8.5-6.88,15.38-15.37,15.38h-1.17h-87.57   c-4.24,0-8.09-1.72-10.87-4.5s-4.5-6.63-4.5-10.88c0-8.49,6.88-15.37,15.37-15.37h-22.25c-4.25,0-8.09-1.72-10.87-4.5   c-2.79-2.78-4.51-6.63-4.51-10.87c0-8.5,6.89-15.38,15.38-15.38h53c4.25,0,8.09,1.72,10.87,4.5c2.78,2.78,4.5,6.63,4.5,10.88   c0,8.49-6.88,15.37-15.37,15.37h36.34h21.65C347.665,88.637,351.515,90.357,354.295,93.137z"/>
	<g>
		<rect x="68.425" y="219.547" style="fill:#FFD039;" width="107.11" height="167.97"/>
		<rect x="68.43" y="230.812" style="fill:#EAB932;" width="28.315" height="155.736"/>
		<path style="fill:#808080;" d="M134.945,360.207v27.31h-26.61v-27.31c0-6.49,5.27-11.75,11.75-11.75h3.11    C129.685,348.457,134.945,353.717,134.945,360.207z"/>
		<polygon style="fill:#EAB932;" points="147.435,255.327 126.885,275.887 147.435,296.437 153.045,290.827 174.825,310.307     175.535,310.937 175.535,353.237 135.455,308.407 141.065,302.797 120.515,282.247 99.955,302.807 105.565,308.407     68.425,349.957 68.425,308.307 68.565,308.177 87.975,290.827 93.595,296.447 114.155,275.887 93.585,255.317 87.975,260.927     68.835,243.817 68.425,243.447 68.425,219.547 84.285,219.547 90.825,226.867 105.565,243.347 99.955,248.957 120.515,269.517     141.075,248.967 135.455,243.347 150.975,225.987 156.735,219.547 175.535,219.547 175.535,240.817 174.565,241.687     153.045,260.927   "/>
		<polygon style="fill:#666666;" points="144.255,232.312 120.517,256.049 96.78,232.312 90.416,238.676 114.153,262.413     90.416,286.151 96.782,292.513 120.517,268.777 144.253,292.513 150.617,286.149 126.881,262.413 150.617,238.677   "/>
		<polygon style="fill:#ED2E2E;" points="105.565,229.877 135.455,229.877 146.871,229.877 158.863,216.464 121.967,197.467     82.937,217.575 89.27,224.655   "/>
		<polygon style="fill:#E6E6E6;" points="150.975,212.517 189.765,169.137 213.775,193.157 174.565,228.217 153.045,247.457     144.255,238.677 135.455,229.877   "/>
		<polygon style="fill:#E6E6E6;" points="90.825,213.397 105.565,229.877 96.775,238.667 87.975,247.457 68.835,230.347     27.245,193.157 51.265,169.137   "/>
		<polygon style="fill:#E6E6E6;" points="105.565,294.937 67.415,337.617 51.265,355.677 27.245,331.657 68.565,294.707     87.975,277.357 96.775,286.157   "/>
		<polygon style="fill:#E6E6E6;" points="213.775,331.657 189.765,355.677 175.735,339.987 135.455,294.937 144.255,286.147     153.045,277.357 174.825,296.837   "/>
		<circle style="fill:#ED2E2E;" cx="120.516" cy="262.412" r="9"/>
	</g>
	<g>
		<rect x="304.107" y="263.286" style="fill:#FFD039;" width="79.219" height="124.232"/>
		<rect x="304.111" y="271.617" style="fill:#EAB932;" width="20.942" height="115.183"/>
		<path style="fill:#808080;" d="M353.306,367.319v20.199h-19.681v-20.199c0-4.8,3.898-8.69,8.69-8.69h2.3    C349.416,358.628,353.306,362.519,353.306,367.319z"/>
		<polygon style="fill:#EAB932;" points="362.544,289.749 347.345,304.955 362.544,320.154 366.693,316.005 382.802,330.412     383.327,330.878 383.327,362.164 353.683,329.007 357.833,324.858 342.634,309.659 327.427,324.865 331.577,329.007     304.107,359.738 304.107,328.933 304.211,328.837 318.567,316.005 322.723,320.161 337.93,304.955 322.716,289.741     318.567,293.89 304.411,281.236 304.107,280.962 304.107,263.286 315.838,263.286 320.675,268.7 331.577,280.888 327.427,285.037     342.634,300.244 357.84,285.045 353.683,280.888 365.162,268.049 369.422,263.286 383.327,263.286 383.327,279.017     382.609,279.661 366.693,293.89   "/>
		<polygon style="fill:#666666;" points="360.192,272.726 342.635,290.283 325.079,272.726 320.372,277.433 337.928,294.99     320.372,312.546 325.081,317.252 342.635,299.697 360.19,317.252 364.897,312.545 347.342,294.99 364.897,277.434   "/>
		<polygon style="fill:#ED2E2E;" points="331.577,270.926 353.683,270.926 362.127,270.926 370.996,261.005 343.707,246.955     314.841,261.827 319.525,267.064   "/>
		<polygon style="fill:#E6E6E6;" points="365.162,258.086 393.851,226.002 411.609,243.767 382.609,269.698 366.693,283.928     360.192,277.434 353.683,270.926   "/>
		<polygon style="fill:#E6E6E6;" points="320.675,258.737 331.576,270.926 325.075,277.427 318.567,283.928 304.411,271.273     273.651,243.767 291.416,226.002   "/>
		<polygon style="fill:#E6E6E6;" points="331.576,319.045 303.36,350.611 291.416,363.968 273.651,346.203 304.211,318.874     318.567,306.042 325.075,312.551   "/>
		<polygon style="fill:#E6E6E6;" points="411.609,346.203 393.851,363.968 383.475,352.364 353.683,319.045 360.192,312.543     366.693,306.042 382.802,320.45   "/>
		<circle style="fill:#ED2E2E;" cx="342.635" cy="294.989" r="6.656"/>
	</g>
	<g>
		<path style="fill:#0FBC30;" d="M439.48,411.603H0c0-4.43,1.13-8.59,3.12-12.22c1.17-2.14,2.64-4.09,4.35-5.8    c4.61-4.62,10.99-7.47,18.03-7.47h388.48c9.65,0,18.05,5.36,22.38,13.27C438.35,403.013,439.48,407.173,439.48,411.603z"/>
		<path style="fill:#07A521;" d="M439.48,411.603H0c0-4.43,1.13-8.59,3.12-12.22h433.24    C438.35,403.013,439.48,407.173,439.48,411.603z"/>
	</g>
</g>















</svg>
