<?xml version="1.0" encoding="iso-8859-1"?>
<!-- Generator: Adobe Illustrator 19.0.0, SVG Export Plug-In . SVG Version: 6.00 Build 0)  -->
<svg xmlns="http://www.w3.org/2000/svg" xmlns:xlink="http://www.w3.org/1999/xlink" version="1.1" id="Layer_1" x="0px" y="0px" viewBox="0 0 439.48 439.48" style="enable-background:new 0 0 439.48 439.48;" xml:space="preserve" width="512" height="512">
<g>
	<g>
		<path style="fill:#EAB932;" d="M68.586,72.577c27.75,0,50.24,22.5,50.24,50.25s-22.49,50.25-50.24,50.25s-50.25-22.5-50.25-50.25    S40.836,72.577,68.586,72.577z"/>
		<path style="fill:#FFD039;" d="M118.826,122.827c0,27.75-22.49,50.25-50.24,50.25c-6.12,0-11.98-1.09-17.4-3.1    c-2.01-5.42-3.1-11.28-3.1-17.4c0-27.75,22.49-50.25,50.25-50.25c6.11,0,11.97,1.09,17.39,3.09    C117.737,110.847,118.826,116.707,118.826,122.827z"/>
		<path style="fill:#ED2E2E;" d="M123.026,79.357l14.5,63.37l-22.1,7.36l-13.58-7.36l10.29-44.97l4.21-18.4    c1.07,0.24,2.19,0.37,3.34,0.37S121.956,79.597,123.026,79.357z"/>
		<polygon style="fill:#D82525;" points="145.666,142.727 148.576,163.897 146.186,164.227 120.926,175.587 93.186,164.227     90.806,163.897 93.706,142.727 101.846,142.727 137.526,142.727   "/>
		<polygon style="fill:#3B9DFF;" points="148.576,163.897 151.576,185.727 118.426,196.087 87.806,185.727 90.216,168.187     90.796,163.897 90.806,163.897 93.186,164.227 146.186,164.227   "/>
		<path style="fill:#D82525;" d="M119.689,70.724c-1.883,0-3.409-1.527-3.409-3.409V45.496c0-1.883,1.527-3.409,3.409-3.409    s3.409,1.527,3.409,3.409v21.819C123.098,69.198,121.571,70.724,119.689,70.724z"/>
		<path style="fill:#ED2E2E;" d="M119.686,57.227c6.356,0,11.5,5.144,11.5,11.5c0,5.466-3.818,10.051-8.939,11.209v0.008    c-0.82,0.184-1.679,0.284-2.561,0.284s-1.74-0.1-2.561-0.284v-0.008c-5.114-1.158-8.939-5.742-8.939-11.209    C108.186,62.371,113.338,57.227,119.686,57.227z"/>
		<path style="fill:#D82525;" d="M158.186,228.727l23.24,172.69H67.176l-8.5-119.33c3.8-4.52,22.51-53.36,22.51-53.36v-43h6.62    h63.77h6.61V228.727z"/>
		<rect x="80.689" y="303.724" style="fill:#ED2E2E;" width="75" height="10"/>
		<path style="fill:#ED2E2E;" d="M302.686,99.727l-14.388-36.489V44.795c0-2.314-1.876-4.19-4.19-4.19s-4.19,1.876-4.19,4.19v18.434    l-14.391,36.498h-6v42.48h24.58h24.58v-42.48H302.686z"/>
		<path style="fill:#4D4D4D;" d="M284.108,145.204c-4.143,0-7.5-3.358-7.5-7.5v-12c0-4.142,3.357-7.5,7.5-7.5s7.5,3.358,7.5,7.5v12    C291.608,141.847,288.251,145.204,284.108,145.204z"/>
		<polygon style="fill:#ED2E2E;" points="241.186,243.727 241.186,330.727 241.186,371.297 327.016,371.297 327.016,330.727     327.016,243.727   "/>
		<rect x="335.188" y="247.724" style="fill:#ED2E2E;" width="15" height="31"/>
		<polygon style="fill:#ED2E2E;" points="169.086,276.727 193.296,276.727 215.186,276.727 215.186,277.777 215.186,360.297     174.096,401.417 147.186,401.417 147.186,277.777 147.186,276.727   "/>
		<rect x="196.005" y="265.727" style="fill:#D82525;" width="19.182" height="134.36"/>
		<polygon style="fill:#ED2E2E;" points="92.186,277.777 92.186,401.417 24.186,401.417 24.186,277.777 24.186,276.727     92.186,276.727   "/>
		<rect x="76.981" y="265.727" style="fill:#D82525;" width="15.205" height="134.36"/>
		<polygon style="fill:#ED2E2E;" points="421.294,401.417 337.016,401.417 337.016,360.297 327.016,360.297 327.016,330.727     327.016,265.727 347.686,265.727 368.056,265.727 388.426,265.727 408.796,265.727 421.294,265.727   "/>
		<rect x="327.016" y="265.727" style="fill:#D82525;" width="30.41" height="134.36"/>
		<polygon style="fill:#D82525;" points="337.016,360.297 337.016,401.417 281.686,401.417 281.686,361.727 281.686,360.297     327.016,360.297   "/>
		<polygon style="fill:#ED2E2E;" points="316.686,204.827 316.686,137.707 308.686,137.707 284.106,137.707 259.526,137.707     251.526,137.707 251.526,204.827 241.186,204.827 241.186,243.727 242.606,243.727 261.686,243.727 283.686,243.727     305.686,243.727 325.606,243.727 327.016,243.727 327.016,204.827   "/>
		<path style="fill:#3B9DFF;" d="M214.662,276.727c0.844,0,1.653-0.391,2.133-1.084c2.796-4.03,4.391-8.586,4.391-13.416    c0-32.5-26-33.5-40-50.5c-6.34,7.7-15.15,12.12-22.89,17.68c-9.33,6.69-17.11,15.05-17.11,32.82c0,4.829,1.595,9.386,4.391,13.416    c0.481,0.693,1.29,1.084,2.133,1.084H214.662z"/>
		<path style="fill:#0FBC30;" d="M93.004,276.727c3.285-4.289,5.182-9.232,5.182-14.5c0-6.36-1-11.52-2.71-15.82    c-3.19-8.07-8.89-13.14-15.21-17.58c-7.53-5.29-15.96-9.66-22.08-17.1c-5.91,7.17-13.95,11.5-21.27,16.54    c-6.88,4.73-13.12,10.1-16.37,19.05c-1.5,4.11-2.36,8.99-2.36,14.91c0,4.898,1.64,9.515,4.51,13.586    c0.41,0.582,1.093,0.914,1.805,0.914H93.004z"/>
		<path style="fill:#CCCCCC;" d="M284.686,146.727c13.817,0,25,11.183,25,25c0,13.8-11.183,25-25,25c-13.8,0-25-11.2-25-25    C259.686,157.91,270.886,146.727,284.686,146.727z"/>
		<path style="fill:#E6E6E6;" d="M284.686,152.906c10.402,0,18.821,8.419,18.821,18.821c0,10.389-8.419,18.821-18.821,18.821    c-10.389,0-18.821-8.432-18.821-18.821C265.865,161.325,274.297,152.906,284.686,152.906z"/>
		<polygon style="fill:#ED2E2E;" points="281.686,361.727 281.686,401.417 174.096,401.417 174.096,360.297 215.186,360.297     241.186,360.297 281.686,360.297   "/>
		<path style="fill:#F2F2F2;" d="M195.086,262.227c0,5.26-0.65,10.21-1.79,14.5h-24.21c-1.14-4.29-1.8-9.24-1.8-14.5    c0-32.5,9.04-33.5,13.9-50.5C186.056,228.727,195.086,229.727,195.086,262.227z"/>
		<path style="fill:#FFD039;" d="M92.186,276.727h0.818c3.285-4.289,5.182-9.232,5.182-14.5c0-6.36-1-11.52-2.71-15.82l-0.79,0.32    c-41-2-55-18-55-18l-2.77-0.46c-6.88,4.73-13.12,10.1-16.37,19.05l1.14,0.41C21.686,247.727,51.686,271.727,92.186,276.727z"/>
		<path style="fill:#4D4D4D;" d="M58.189,323.224c-4.142,0-7.5-3.358-7.5-7.5v-14c0-4.142,3.358-7.5,7.5-7.5s7.5,3.358,7.5,7.5v14    C65.689,319.867,62.331,323.224,58.189,323.224z"/>
		<path style="fill:#4D4D4D;" d="M119.689,234.224c-4.142,0-7.5-3.358-7.5-7.5v-14c0-4.142,3.358-7.5,7.5-7.5s7.5,3.358,7.5,7.5v14    C127.189,230.867,123.831,234.224,119.689,234.224z"/>
		<path style="fill:#4D4D4D;" d="M119.689,279.224c-4.142,0-7.5-3.358-7.5-7.5v-14c0-4.142,3.358-7.5,7.5-7.5s7.5,3.358,7.5,7.5v14    C127.189,275.867,123.831,279.224,119.689,279.224z"/>
		<path style="fill:#4D4D4D;" d="M181.189,323.224c-4.142,0-7.5-3.358-7.5-7.5v-14c0-4.142,3.358-7.5,7.5-7.5s7.5,3.358,7.5,7.5v14    C188.689,319.867,185.331,323.224,181.189,323.224z"/>
		<rect x="358.89" y="247.724" style="fill:#ED2E2E;" width="15" height="31"/>
		<rect x="382.592" y="247.724" style="fill:#ED2E2E;" width="15" height="31"/>
		<rect x="406.294" y="247.724" style="fill:#ED2E2E;" width="15" height="31"/>
		<rect x="241.186" y="325.727" style="fill:#D82525;" width="85.83" height="10"/>
		<polygon style="fill:#D82525;" points="313.188,241.224 313.188,224.224 298.188,224.224 298.188,241.224 291.188,241.224     291.188,224.224 276.188,224.224 276.188,241.224 269.188,241.224 269.188,224.224 254.188,224.224 254.188,241.224     242.604,241.224 242.604,251.224 254.188,251.224 269.188,251.224 276.188,251.224 291.188,251.224 298.188,251.224     313.188,251.224 325.604,251.224 325.604,241.224   "/>
		<path style="fill:#D82525;" d="M367.907,310.224h-8.438c-4.143,0-7.5-3.358-7.5-7.5s3.357-7.5,7.5-7.5h8.438    c4.143,0,7.5,3.358,7.5,7.5S372.049,310.224,367.907,310.224z"/>
		<path style="fill:#D82525;" d="M402.688,330.224h-8.438c-4.143,0-7.5-3.358-7.5-7.5s3.357-7.5,7.5-7.5h8.438    c4.143,0,7.5,3.358,7.5,7.5S406.831,330.224,402.688,330.224z"/>
		<path style="fill:#D82525;" d="M375.126,365.224h-8.438c-4.143,0-7.5-3.358-7.5-7.5s3.357-7.5,7.5-7.5h8.438    c4.143,0,7.5,3.358,7.5,7.5S379.268,365.224,375.126,365.224z"/>
		<polygon style="fill:#FFD039;" points="284.106,13.863 291.282,28.403 307.328,30.735 295.717,42.053 298.458,58.034     284.106,50.488 269.754,58.034 272.495,42.053 260.884,30.735 276.93,28.403   "/>
	</g>
	<g>
		<path style="fill:#CCCCCC;" d="M439.48,425.617H0c0-4.43,1.13-8.59,3.12-12.22c1.17-2.14,2.64-4.09,4.35-5.8    c4.61-4.62,10.99-7.47,18.03-7.47h388.48c9.65,0,18.05,5.36,22.38,13.27C438.35,417.027,439.48,421.187,439.48,425.617z"/>
		<path style="fill:#999999;" d="M439.48,425.617H0c0-4.43,1.13-8.59,3.12-12.22h433.24    C438.35,417.027,439.48,421.187,439.48,425.617z"/>
	</g>
</g>















</svg>
