<?xml version="1.0" encoding="iso-8859-1"?>
<!-- Generator: Adobe Illustrator 19.0.0, SVG Export Plug-In . SVG Version: 6.00 Build 0)  -->
<svg xmlns="http://www.w3.org/2000/svg" xmlns:xlink="http://www.w3.org/1999/xlink" version="1.1" id="Layer_1" x="0px" y="0px" viewBox="0 0 439.48 439.48" style="enable-background:new 0 0 439.48 439.48;" xml:space="preserve" width="512" height="512">
<g>
	<path style="fill:#CCCCCC;" d="M321.933,270.482l-12.447,7.112l-0.231-0.187l-56.196-44.674l-38.688-13.688l-67.979,13.688   l-33.677,41.9h-0.009l-7.699-1.778L29.733,377.762v1.547h378.73v-0.365L321.933,270.482z"/>
	<polygon style="fill:#E6E6E6;" points="218.68,205.395 190.071,216.674 168.37,205.395 187.982,180.991  "/>
	<rect x="252.117" y="361.757" style="fill:#808080;" width="22.76" height="16.6"/>
	<polygon style="fill:#808080;" points="189.527,345.164 178.147,361.757 166.767,345.164 155.387,361.757 144.008,345.164    132.628,361.757 132.628,378.357 155.387,378.357 178.147,378.357 200.907,378.357 200.907,361.757  "/>
	<path style="fill:#3B9DFF;" d="M149.478,133.606c7.548,0,13.665,6.125,13.665,13.673c0,3.778-1.529,7.192-4.001,9.664   s-5.894,4.001-9.664,4.001h-19.781c7.548,0,13.665,6.117,13.665,13.673c0,3.77-1.529,7.192-4.001,9.664   c-2.472,2.472-5.885,4.001-9.664,4.001H50.803c-7.548,0-13.673-6.117-13.673-13.665c0-3.778,1.529-7.201,4.01-9.673   c2.472-2.472,5.885-4.001,9.664-4.001h51.555c-7.548,0-13.673-6.117-13.673-13.665c0-3.778,1.529-7.192,4.01-9.664   c2.472-2.48,5.894-4.01,9.664-4.01H149.478z"/>
	<rect x="93.744" y="361.757" style="fill:#808080;" width="22.76" height="16.6"/>
	<polygon style="fill:#E6E6E6;" points="82.201,331.064 108.28,304.985 127.246,320.988 134.951,311.505 144.434,326.915    134.358,325.73 121.912,336.398 105.909,331.064  "/>
	<polygon style="fill:#E6E6E6;" points="408.463,378.944 334.691,332.839 321.053,309.724 296.16,325.14 296.16,284.564    252.304,308.542 228.878,279.968 206.074,305.874 157.177,278.314 147.086,288.858 105.008,272.855 112.707,274.633    112.716,274.633 146.393,232.733 198.962,216.674 253.06,232.733 307.371,275.914 321.933,270.482  "/>
	<polygon style="fill:#CCCCCC;" points="171.695,246.309 172.886,236.823 112.716,274.633 146.393,232.733 190.664,224.379    213.391,232.733  "/>
	<polygon style="fill:#CCCCCC;" points="202.518,259.348 199.554,287.797 224.447,267.646  "/>
	<path style="fill:#3B9DFF;" d="M331.375,178.057c7.548,0,13.673,6.125,13.673,13.673c0,3.778-1.529,7.192-4.01,9.664   c-2.472,2.472-5.894,4.001-9.664,4.001h-51.866c7.548,0,13.664,6.125,13.664,13.673c0,3.77-1.529,7.192-4.001,9.664   c-2.472,2.472-5.894,4.001-9.664,4.001H253.06H146.393h-38.718c-7.548,0-13.673-6.117-13.673-13.665c0-3.77,1.529-7.192,4.01-9.664   c2.472-2.48,5.894-4.01,9.664-4.01h60.695h50.311h33.49c-7.548,0-13.665-6.117-13.665-13.665c0-3.778,1.529-7.192,4.001-9.664   c2.472-2.48,5.885-4.01,9.664-4.01H331.375z"/>
	<g>
		<path style="fill:#0FBC30;" d="M439.48,400.411H0c0-4.43,1.13-8.59,3.12-12.22c1.17-2.14,2.64-4.09,4.35-5.8    c4.61-4.62,10.99-7.47,18.03-7.47h388.48c9.65,0,18.05,5.36,22.38,13.27C438.35,391.821,439.48,395.981,439.48,400.411z"/>
		<path style="fill:#07A521;" d="M439.48,400.411H0c0-4.43,1.13-8.59,3.12-12.22h433.24    C438.35,391.821,439.48,395.981,439.48,400.411z"/>
	</g>
	<path style="fill:#EAB932;" d="M351.29,39.069c-27.75,0-50.24,22.5-50.24,50.25s22.49,50.25,50.24,50.25s50.25-22.5,50.25-50.25   S379.04,39.069,351.29,39.069z"/>
	<path style="fill:#FFD039;" d="M301.05,89.319c0,27.75,22.49,50.25,50.24,50.25c6.12,0,11.98-1.09,17.4-3.1   c2.01-5.42,3.1-11.28,3.1-17.4c0-27.75-22.49-50.25-50.25-50.25c-6.11,0-11.97,1.09-17.39,3.09   C302.14,77.339,301.05,83.199,301.05,89.319z"/>
</g>















</svg>
