<?xml version="1.0" encoding="iso-8859-1"?>
<!-- Generator: Adobe Illustrator 19.0.0, SVG Export Plug-In . SVG Version: 6.00 Build 0)  -->
<svg xmlns="http://www.w3.org/2000/svg" xmlns:xlink="http://www.w3.org/1999/xlink" version="1.1" id="Layer_1" x="0px" y="0px" viewBox="0 0 439.48 439.48" style="enable-background:new 0 0 439.48 439.48;" xml:space="preserve" width="512" height="512">
<g>
	<rect x="130.97" y="359.792" style="fill:#9B6121;" width="8" height="36.665"/>
	<rect x="83.723" y="359.792" style="fill:#9B6121;" width="8" height="36.665"/>
	<rect x="36.474" y="359.792" style="fill:#9B6121;" width="8" height="36.665"/>
	<rect x="393.457" y="359.792" style="fill:#9B6121;" width="8" height="36.665"/>
	<path style="fill:#CCCCCC;" d="M373.075,387.789c-16.9-23.76-30.83-48.68-42.32-73.96c-1.66-3.66-3.27-7.33-4.83-11   c-0.01-0.01-0.01-0.03-0.02-0.04c-0.07-0.17-0.14-0.33-0.21-0.5c-10.08-23.74-18.06-47.67-24.36-71.13   c-0.8-2.97-1.57-5.92-2.32-8.87c-0.18-0.71-0.36-1.42-0.53-2.13c-0.37-1.46-0.72-2.92-1.07-4.37   c-15.04-62.36-18.65-120.2-18.76-160.45h-14.46c-0.11,40.25-3.72,98.09-18.76,160.45c-0.35,1.45-0.7,2.91-1.07,4.37   c-0.17,0.71-0.35,1.42-0.53,2.13c-0.75,2.95-1.52,5.9-2.32,8.87c-6.3,23.46-14.28,47.39-24.36,71.13c-0.07,0.17-0.14,0.33-0.21,0.5   c-0.01,0.01-0.01,0.03-0.02,0.04c-1.56,3.67-3.17,7.34-4.83,11c-11.49,25.28-25.42,50.2-42.32,73.96h41.69   c-0.03-0.66-0.04-1.33-0.04-2c0-33.14,26.86-60,60-60c33.14,0,60,26.86,60,60c0,0.67-0.01,1.34-0.04,2H373.075z M246.925,302.289   l15.37-57h18.27l15.36,57H246.925z"/>
	<path style="fill:#0FBC30;" d="M410.955,345.455v7.5c0,7.46-6.04,13.5-13.5,13.5c-7.45,0-13.5-6.04-13.5-13.5v-7.5   c0-7.45,6.05-13.5,13.5-13.5c3.73,0,7.11,1.51,9.55,3.96C409.445,338.355,410.955,341.725,410.955,345.455z"/>
	<path style="fill:#0FBC30;" d="M53.975,345.455v7.5c0,7.46-6.04,13.5-13.5,13.5s-13.5-6.04-13.5-13.5v-7.5   c0-7.45,6.04-13.5,13.5-13.5c3.73,0,7.11,1.51,9.55,3.96C52.465,338.355,53.975,341.725,53.975,345.455z"/>
	<path style="fill:#0FBC30;" d="M101.225,345.455v7.5c0,7.46-6.05,13.5-13.5,13.5c-7.46,0-13.5-6.04-13.5-13.5v-7.5   c0-7.45,6.04-13.5,13.5-13.5c3.72,0,7.1,1.51,9.54,3.96C99.715,338.355,101.225,341.725,101.225,345.455z"/>
	<path style="fill:#0FBC30;" d="M148.465,345.455v7.5c0,7.46-6.04,13.5-13.5,13.5c-7.45,0-13.49-6.04-13.49-13.5v-7.5   c0-7.45,6.04-13.5,13.49-13.5c3.73,0,7.1,1.51,9.55,3.96C146.955,338.355,148.465,341.725,148.465,345.455z"/>
	<path style="fill:#EAB932;" d="M111.382,28.006c27.75,0,50.24,22.5,50.24,50.25s-22.49,50.25-50.24,50.25s-50.25-22.5-50.25-50.25   S83.632,28.006,111.382,28.006z"/>
	<path style="fill:#FFD039;" d="M161.622,78.256c0,27.75-22.49,50.25-50.24,50.25c-6.12,0-11.98-1.09-17.4-3.1   c-2.01-5.42-3.1-11.28-3.1-17.4c0-27.75,22.49-50.25,50.25-50.25c6.11,0,11.97,1.09,17.39,3.09   C160.533,66.276,161.622,72.136,161.622,78.256z"/>
	<path style="fill:#B3B3B3;" d="M330.755,313.829h-118.66c1.66-3.66,3.27-7.33,4.83-11h109   C327.485,306.499,329.095,310.169,330.755,313.829z"/>
	<path style="fill:#CCCCCC;" d="M339.929,307.79H202.932c-3.037,0-5.5-2.462-5.5-5.5s2.463-5.5,5.5-5.5h136.997   c3.037,0,5.5,2.462,5.5,5.5S342.966,307.79,339.929,307.79z"/>
	<path style="fill:#B3B3B3;" d="M301.335,231.159h-59.82c0.8-2.97,1.57-5.92,2.32-8.87c0.18-0.71,0.36-1.42,0.53-2.13h54.12   c0.17,0.71,0.35,1.42,0.53,2.13C299.765,225.239,300.535,228.189,301.335,231.159z"/>
	<path style="fill:#CCCCCC;" d="M309.262,227.79h-75.663c-3.037,0-5.5-2.462-5.5-5.5s2.463-5.5,5.5-5.5h75.663   c3.037,0,5.5,2.462,5.5,5.5S312.299,227.79,309.262,227.79z"/>
	<g>
		<path style="fill:#0FBC30;" d="M439.48,410.141H0c0-4.43,1.13-8.59,3.12-12.22c1.17-2.14,2.64-4.09,4.35-5.8    c4.61-4.62,10.99-7.47,18.03-7.47h388.48c9.65,0,18.05,5.36,22.38,13.27C438.35,401.551,439.48,405.711,439.48,410.141z"/>
		<path style="fill:#07A521;" d="M439.48,410.141H0c0-4.43,1.13-8.59,3.12-12.22h433.24    C438.35,401.551,439.48,405.711,439.48,410.141z"/>
	</g>
	<g>
		<path style="fill:#0FBC30;" d="M439.48,411.474H0c0-4.43,1.13-8.59,3.12-12.22c1.17-2.14,2.64-4.09,4.35-5.8    c4.61-4.62,10.99-7.47,18.03-7.47h388.48c9.65,0,18.05,5.36,22.38,13.27C438.35,402.884,439.48,407.044,439.48,411.474z"/>
		<path style="fill:#07A521;" d="M439.48,411.474H0c0-4.43,1.13-8.59,3.12-12.22h433.24    C438.35,402.884,439.48,407.044,439.48,411.474z"/>
	</g>
</g>















</svg>
