<?xml version="1.0" encoding="iso-8859-1"?>
<!-- Generator: Adobe Illustrator 19.0.0, SVG Export Plug-In . SVG Version: 6.00 Build 0)  -->
<svg xmlns="http://www.w3.org/2000/svg" xmlns:xlink="http://www.w3.org/1999/xlink" version="1.1" id="Layer_1" x="0px" y="0px" viewBox="0 0 439.48 439.48" style="enable-background:new 0 0 439.48 439.48;" xml:space="preserve" width="512" height="512">
<g>
	<polygon style="fill:#FFD039;" points="273.353,325.454 291.153,260.524 327.173,207.224 387.077,325.524 273.373,325.524    273.353,325.454  "/>
	<polygon style="fill:#FFD039;" points="217.703,151.864 299.743,325.454 258.243,325.454 247.273,325.454 138.41,325.454    161.793,234.604 194.263,186.554  "/>
	<polygon style="fill:#FFD039;" points="125.703,181.214 193.076,325.524 28.183,325.524  "/>
	<circle style="fill:#EAB932;" cx="138.959" cy="124.456" r="34.25"/>
	<path style="fill:#FFD039;" d="M173.209,124.462c0,18.914-15.336,34.243-34.25,34.243c-3.047,0-6.005-0.395-8.82-1.145   c-5.596-5.391-9.072-12.957-9.072-21.341c0-16.379,13.277-29.649,29.649-29.649c8.384,0,15.949,3.476,21.348,9.072   C172.814,118.458,173.209,121.416,173.209,124.462z"/>
	<polygon style="fill:#EAB932;" points="327.183,207.214 407.133,325.524 367.373,325.524 327.173,207.224  "/>
	<polygon style="fill:#EAB932;" points="291.153,260.524 335.033,325.454 273.353,325.454 217.703,151.864 217.713,151.854    235.133,177.634  "/>
	<polygon style="fill:#EAB932;" points="223.183,325.454 223.233,325.524 159.403,325.524 125.703,181.214 161.793,234.604  "/>
	<path style="fill:#FFD039;" d="M439.48,349.274H0c0-4.43,1.13-8.59,3.12-12.22c1.17-2.14,2.64-4.09,4.35-5.8   c4.61-4.62,10.99-7.47,18.03-7.47h388.48c9.65,0,18.05,5.36,22.38,13.27C438.35,340.684,439.48,344.844,439.48,349.274z"/>
	<path style="fill:#EAB932;" d="M439.48,349.274H0c0-4.43,1.13-8.59,3.12-12.22h433.24   C438.35,340.684,439.48,344.844,439.48,349.274z"/>
</g>















</svg>
