<?xml version="1.0" encoding="iso-8859-1"?>
<!-- Generator: Adobe Illustrator 19.0.0, SVG Export Plug-In . SVG Version: 6.00 Build 0)  -->
<svg xmlns="http://www.w3.org/2000/svg" xmlns:xlink="http://www.w3.org/1999/xlink" version="1.1" id="Layer_1" x="0px" y="0px" viewBox="0 0 439.48 439.48" style="enable-background:new 0 0 439.48 439.48;" xml:space="preserve" width="512" height="512">
<g>
	<path style="fill:#EAB932;" d="M152.555,99.843c0,3.61-0.38,7.12-1.1,10.51v0.01c0,0-30.15,30.74-21.66,30.74h1.18   c-8.13,5.67-18.01,8.98-28.67,8.98c-27.75,0-50.25-22.49-50.25-50.24s22.5-50.25,50.25-50.25S152.555,72.093,152.555,99.843z"/>
	<rect x="28.395" y="319.079" style="fill:#666666;" width="10" height="46.667"/>
	<rect x="403.085" y="319.079" style="fill:#666666;" width="10" height="46.667"/>
	<rect x="369.905" y="139.693" style="fill:#999999;" width="10" height="227.05"/>
	<rect x="369.905" y="250.36" style="fill:#808080;" width="10" height="26.383"/>
	<path style="fill:#808080;" d="M379.905,156.313v66.24c-1.63,0.25-3.3,0.38-5,0.38c-1.7,0-3.37-0.13-5-0.37v-66.26   c1.63-0.24,3.3-0.37,5-0.37C376.605,155.933,378.275,156.063,379.905,156.313z"/>
	<rect x="403.085" y="292.743" style="fill:#ED2E2E;" width="20.31" height="35"/>
	<rect x="18.085" y="292.743" style="fill:#ED2E2E;" width="20.31" height="35"/>
	<polygon style="fill:#E6E6E6;" points="374.905,235.833 400.025,235.833 400.025,267.493 374.905,267.493 349.785,267.493    349.785,235.833  "/>
	<path style="fill:#ED2E2E;" d="M374.905,146.603c18.5,0,33.5,15,33.5,33.5s-15,33.5-33.5,33.5c-18.51,0-33.5-15-33.5-33.5   S356.395,146.603,374.905,146.603z"/>
	<polygon style="fill:#ED2E2E;" points="96.895,345.413 85.412,333.69 92.305,323.023 87.875,301.413 69.925,301.413    65.455,323.223 70.745,334.357 61.015,344.923 56.405,367.413 101.405,367.413  "/>
	<polygon style="fill:#E6E6E6;" points="63.405,345.413 61.015,344.923 65.455,323.223 66.405,323.413 90.405,323.413    92.305,323.023 96.895,345.413  "/>
	<path style="fill:#FFD039;" d="M152.545,99.833c0,27.75-22.49,50.25-50.24,50.25c-6.12,0-11.98-1.09-17.4-3.1   c-2.01-5.42-3.1-11.28-3.1-17.4c0-27.75,22.49-50.25,50.25-50.25c6.11,0,11.97,1.09,17.39,3.09   C151.455,87.853,152.545,93.713,152.545,99.833z"/>
	<rect x="357.645" y="172.603" style="fill:#FFFFFF;" width="34.512" height="15"/>
	<path style="fill:#3B9DFF;" d="M240.785,79.613c8.5,0,15.38,6.88,15.38,15.37c0,4.24-1.72,8.09-4.5,10.87   c-2.78,2.79-6.63,4.51-10.88,4.51h-22.25c8.49,0,15.37,6.88,15.37,15.37c0,4.25-1.72,8.09-4.5,10.87c-2.78,2.78-6.62,4.5-10.87,4.5   h-87.56h-1.18c-8.49,0-15.37-6.88-15.37-15.37c0-4.25,1.72-8.09,4.5-10.87s6.62-4.5,10.87-4.5h21.66h36.33   c-8.49,0-15.37-6.89-15.37-15.38c0-4.24,1.72-8.09,4.5-10.87s6.63-4.5,10.87-4.5H240.785z"/>
	<g>
		<path style="fill:#CCCCCC;" d="M439.48,389.887H0c0-4.43,1.13-8.59,3.12-12.22c1.17-2.14,2.64-4.09,4.35-5.8    c4.61-4.62,10.99-7.47,18.03-7.47h388.48c9.65,0,18.05,5.36,22.38,13.27C438.35,381.297,439.48,385.457,439.48,389.887z"/>
		<path style="fill:#999999;" d="M439.48,389.887H0c0-4.43,1.13-8.59,3.12-12.22h433.24    C438.35,381.297,439.48,385.457,439.48,389.887z"/>
	</g>
</g>















</svg>
