<?xml version="1.0" encoding="iso-8859-1"?>
<!-- Generator: Adobe Illustrator 19.0.0, SVG Export Plug-In . SVG Version: 6.00 Build 0)  -->
<svg xmlns="http://www.w3.org/2000/svg" xmlns:xlink="http://www.w3.org/1999/xlink" version="1.1" id="Layer_1" x="0px" y="0px" viewBox="0 0 439.48 439.48" style="enable-background:new 0 0 439.48 439.48;" xml:space="preserve" width="512" height="512">
<g>
	<polygon style="fill:#B3B3B3;" points="418.66,368.862 137.07,368.862 111.74,322.012 154.74,319.012 290.74,324.012    321.74,326.012 363.74,318.012 363.07,346.192 396.99,346.192  "/>
	<path style="fill:#F2F2F2;" d="M344.4,258.192c-3.85,6.33-11.67,20.02-19.52,33.93c-3.314-0.87,15.594,14.654,16.86,27.89   c0.93,9.727-16,18.18-16,18.18h-34.67v-0.76l-29.997-23.42l-12.493-42.95C278.13,258.352,311.6,250.882,344.4,258.192z"/>
	<polygon style="fill:#999999;" points="81.74,302.012 111.74,322.012 137.07,338.192 137.07,368.862 46.4,368.862 46.4,314.192     "/>
	<path style="fill:#E6E6E6;" d="M350.4,301.532c0,0,35.34-18.54,78-11.34c-19.86,18.94-65.33,56-65.33,56l-21.33-26.18   L350.4,301.532z"/>
	<path style="fill:#CCCCCC;" d="M350.4,301.532l12.67,44.66l-8.66-8h-28.67v-1.5c0,0-12-33.16-18-47.16c5.4,0,11.39,1.08,17.14,2.59   C338.31,295.652,350.4,301.532,350.4,301.532z"/>
	<path style="fill:#CCCCCC;" d="M93.62,326.692l-47.22-12.5c0,0,11.46-31.63,39.07-44.15   C103.74,287.345,92.89,321.692,93.62,326.692z"/>
	<path style="fill:#CCCCCC;" d="M153.74,337.762v0.43h-16.67l-38.77-10.26l0.28-1.07c-2.84-61.517,37.54-68.6,40.09-71.74   c2.547,13.609,18.135,28.444,20.403,40.89C163.466,320.113,153.74,337.762,153.74,337.762z"/>
	<path style="fill:#F2F2F2;" d="M125.07,188.192c1.72,5.41,6.06,27.11,10.86,52.37c-2.31-1.17-25.23-12.4-56.19-13.03   c0.82,6.98,2.46,19.13,4.34,32.62c0,0-35.01-11.29-65.68-4.62l28,58.66c0,0,11.46-31.63,39.07-44.15   c3.55,25.16,7.42,51.65,8.15,56.65l4.68,1.24l0.28-1.07c8.51-32.33,37.54-68.6,40.09-71.74c7.48,39.96,15.07,82.64,15.07,82.64   s25.834-4.447,58-25.75c10.041-6.65,34.667-21.333,28.47-37.17C232.89,259.652,198.7,197.541,125.07,188.192z"/>
	<path style="fill:#CCCCCC;" d="M244.97,272.652c1.2-0.54,2.4-1.07,3.61-1.59l23.207,36.25l19.283,30.12v0.76H153.74v-0.43   c0,0,36.73-39.37,86.47-62.92C241.78,274.102,243.37,273.362,244.97,272.652z"/>
	<g>
		<path style="fill:#EAB932;" d="M338.109,38.118c27.75,0,50.24,22.5,50.24,50.25s-22.49,50.25-50.24,50.25s-50.25-22.5-50.25-50.25    S310.359,38.118,338.109,38.118z"/>
		<path style="fill:#FFD039;" d="M388.349,88.368c0,27.75-22.49,50.25-50.24,50.25c-6.12,0-11.98-1.09-17.4-3.1    c-2.01-5.42-3.1-11.28-3.1-17.4c0-27.75,22.49-50.25,50.25-50.25c6.11,0,11.97,1.09,17.39,3.09    C387.259,76.388,388.349,82.248,388.349,88.368z"/>
		<path style="fill:#3B9DFF;" d="M439.48,391.362c-21.98,0-21.98,10-43.96,10c-21.97,0-21.97-10-43.95-10    c-21.98,0-21.98,10-43.95,10c-21.97,0-21.97-10-43.95-10c-21.97,0-21.97,10-43.95,10c-21.97,0-21.97-10-43.94-10    c-21.97,0-21.97,10-43.94,10c-21.98,0-21.98-10-43.95-10c-21.97,0-21.97,10-43.95,10c-21.97,0-21.97-10-43.94-10    c0-3.07,0.59-6,1.67-8.68c3.44-8.68,11.92-14.82,21.83-14.82h392.48c6.49,0,12.36,2.63,16.62,6.88c2.24,2.24,4.03,4.94,5.21,7.94    C438.89,385.362,439.48,388.291,439.48,391.362z"/>
		<path style="fill:#1E79C4;" d="M439.48,391.362c-21.98,0-21.98,10-43.96,10c-21.97,0-21.97-10-43.95-10    c-21.98,0-21.98,10-43.95,10c-21.97,0-21.97-10-43.95-10c-21.97,0-21.97,10-43.95,10c-21.97,0-21.97-10-43.94-10    c-21.97,0-21.97,10-43.94,10c-21.98,0-21.98-10-43.95-10c-21.97,0-21.97,10-43.95,10c-21.97,0-21.97-10-43.94-10    c0-3.07,0.59-6,1.67-8.68h436.14C438.89,385.362,439.48,388.291,439.48,391.362z"/>
	</g>
</g>















</svg>
