<?xml version="1.0" encoding="iso-8859-1"?>
<!-- Generator: Adobe Illustrator 19.0.0, SVG Export Plug-In . SVG Version: 6.00 Build 0)  -->
<svg xmlns="http://www.w3.org/2000/svg" xmlns:xlink="http://www.w3.org/1999/xlink" version="1.1" id="Layer_1" x="0px" y="0px" viewBox="0 0 439.48 439.48" style="enable-background:new 0 0 439.48 439.48;" xml:space="preserve" width="512" height="512">
<g>
	<rect x="198.69" y="301.366" style="fill:#9B6121;" width="9" height="30.46"/>
	<rect x="313.69" y="273.566" style="fill:#9B6121;" width="9" height="52.81"/>
	<rect x="358.69" y="280.516" style="fill:#9B6121;" width="9" height="49.86"/>
	<path style="fill:#562F15;" d="M207.69,301.366v9.92c-1.36,1.04-2.89,1.62-4.5,1.62c-1.61,0-3.14-0.58-4.5-1.62v-9.92H207.69z"/>
	<path style="fill:#562F15;" d="M322.69,273.566v22.15c-1.41,0.77-2.93,1.19-4.5,1.19c-1.57,0-3.09-0.42-4.5-1.19v-22.15H322.69z"/>
	<path style="fill:#562F15;" d="M367.69,280.516v19.2c-1.41,0.77-2.93,1.19-4.5,1.19c-1.57,0-3.09-0.42-4.5-1.19v-19.2H367.69z"/>
	<path style="fill:#0FBC30;" d="M203.19,272.346c5.82,0,10.54,7.59,10.54,16.94c0,9.36-4.72,16.95-10.54,16.95   c-5.82,0-10.54-7.59-10.54-16.95C192.65,279.936,197.37,272.346,203.19,272.346z"/>
	<path style="fill:#0FBC30;" d="M318.19,245.236c7.73,0,14,10.07,14,22.5s-6.27,22.5-14,22.5c-7.73,0-14-10.07-14-22.5   S310.46,245.236,318.19,245.236z"/>
	<path style="fill:#0FBC30;" d="M363.19,249.236c7.73,0,14,10.07,14,22.5s-6.27,22.5-14,22.5c-7.73,0-14-10.07-14-22.5   S355.46,249.236,363.19,249.236z"/>
	<path style="fill:#07A521;" d="M203.73,299.286c0,2.47-0.33,4.82-0.92,6.94c-5.65-0.32-10.16-7.79-10.16-16.94   c0-2.47,0.33-4.81,0.92-6.93C199.22,282.675,203.73,290.146,203.73,299.286z"/>
	<path style="fill:#07A521;" d="M322.19,277.736c0,4.55-0.84,8.79-2.29,12.32c-0.56,0.12-1.13,0.18-1.71,0.18   c-7.73,0-14-10.07-14-22.5c0-4.55,0.84-8.79,2.29-12.32c0.56-0.12,1.13-0.18,1.71-0.18   C315.92,255.236,322.19,265.306,322.19,277.736z"/>
	<path style="fill:#07A521;" d="M367.19,281.736c0,4.55-0.84,8.79-2.29,12.32c-0.56,0.12-1.13,0.18-1.71,0.18   c-7.73,0-14-10.07-14-22.5c0-4.55,0.84-8.79,2.29-12.32c0.56-0.12,1.13-0.18,1.71-0.18   C360.92,259.236,367.19,269.306,367.19,281.736z"/>
	<path style="fill:#0FBC30;" d="M419.19,323.976v54h-230l-38.88-1.6c-18.11-13.02-45.24-13.18-68.66-20.33l43.54-10.81   c0,0,28.34-12.4,78-21.47c30.73-5.61,69.61-9.94,115-9.27c14.36,0.21,29.38,0.93,45,2.26   C381.1,318.286,399.8,320.646,419.19,323.976z"/>
	<rect x="40.75" y="280.206" style="fill:#9B6121;" width="9" height="62.48"/>
	<path style="fill:#1E79C4;" d="M187.387,158.802c0.14,1.1,0.23,2.2,0.27,3.29c-9.28-0.67-19.9-0.66-31,0.82   c-11.1,1.49-21.34,4.27-30.12,7.35c-0.25-1.06-0.46-2.14-0.61-3.24c-2.26-16.97,10.58-25.63,27.55-27.9   S185.117,141.832,187.387,158.802z"/>
	<path style="fill:#3B9DFF;" d="M187.387,158.802c-2.27-16.97-16.94-21.95-33.91-19.68c-7.987,1.068-15.058,3.554-20.071,7.653   c13.95-1.101,25.82,3.117,29.652,15.45c8.767-0.756,17.122-0.673,24.6-0.134C187.617,161.002,187.527,159.902,187.387,158.802z"/>
	<path style="fill:#D82525;" d="M218.22,161.276c0,0-26.16,17.12-60.65,21.73c-4.26,0.57-8.46,0.92-12.53,1.1   c-28.86,1.28-51.7-6.13-51.7-6.13s12.03-7.87,30.53-14.38c8.78-3.08,19.02-5.86,30.12-7.35c11.1-1.48,21.72-1.49,31-0.82   c4.22,0.31,8.17,0.75,11.77,1.27C209.82,158.556,218.22,161.276,218.22,161.276z"/>
	<path style="fill:#ED2E2E;" d="M218.22,161.276c0,0-26.16,17.12-60.65,21.73c-4.26,0.57-8.46,0.92-12.53,1.1   c-3.72-0.6-5.82-1.1-5.82-1.1s11.35-8.82,29.27-16.81c8.2-3.65,17.78-7.13,28.27-9.5C209.82,158.556,218.22,161.276,218.22,161.276   z"/>
	<circle style="fill:#EAB932;" cx="331.19" cy="87.986" r="50.25"/>
	<path style="fill:#562F15;" d="M49.75,280.206v19.55c-1.43,0.63-2.94,0.97-4.5,0.97s-3.07-0.34-4.5-0.97v-19.55H49.75z"/>
	<path style="fill:#07A521;" d="M419.19,341.806v36.17H218.98C218.98,377.976,313.81,329.486,419.19,341.806z"/>
	<path style="fill:#07A521;" d="M45.25,239.236c9.41,0,17.05,12.27,17.05,27.41c0,15.14-7.64,27.41-17.05,27.41   c-9.42,0-17.06-12.27-17.06-27.41C28.19,251.506,35.83,239.236,45.25,239.236z"/>
	<path style="fill:#0FBC30;" d="M45.25,239.236c-8.783,0-16.016,10.668-16.954,24.382c2.125-1.526,4.477-2.382,6.954-2.382   c9.41,0,17.05,12.27,17.05,27.41c0,1.025-0.038,2.035-0.106,3.031c5.952-4.276,10.106-13.87,10.106-25.031   C62.3,251.506,54.66,239.236,45.25,239.236z"/>
	<path style="fill:#07A521;" d="M23.98,377.976h168l-2.79-1.74c-18.11-13.02-40.94-22.67-64.36-29.82   c-28.02-8.55-56.9-13.53-79.58-16.4c-7.953-1.006-15.143-1.752-21.27-2.304V377.976z"/>
	<g>
		<path style="fill:#0FBC30;" d="M439.48,401.744H0c0-4.43,1.13-8.59,3.12-12.22c1.17-2.14,2.64-4.09,4.35-5.8    c4.61-4.62,10.99-7.47,18.03-7.47h388.48c9.65,0,18.05,5.36,22.38,13.27C438.35,393.154,439.48,397.314,439.48,401.744z"/>
		<path style="fill:#07A521;" d="M439.48,401.744H0c0-4.43,1.13-8.59,3.12-12.22h433.24    C438.35,393.154,439.48,397.314,439.48,401.744z"/>
	</g>
	<path style="fill:#FFD039;" d="M280.95,87.986c0,27.75,22.49,50.25,50.24,50.25c6.12,0,11.98-1.09,17.4-3.1   c2.01-5.42,3.1-11.28,3.1-17.4c0-27.75-22.49-50.25-50.25-50.25c-6.11,0-11.97,1.09-17.39,3.09   C282.04,76.006,280.95,81.866,280.95,87.986z"/>
</g>















</svg>
