<?xml version="1.0" encoding="iso-8859-1"?>
<!-- Generator: Adobe Illustrator 19.0.0, SVG Export Plug-In . SVG Version: 6.00 Build 0)  -->
<svg xmlns="http://www.w3.org/2000/svg" xmlns:xlink="http://www.w3.org/1999/xlink" version="1.1" id="Layer_1" x="0px" y="0px" viewBox="0 0 439.48 439.48" style="enable-background:new 0 0 439.48 439.48;" xml:space="preserve" width="512" height="512">
<g>
	<g>
		<g>
			<polygon style="fill:#E6E6E6;" points="187.2,225.1 158.15,213.677 158.15,162.107 191.74,147.767 220.64,147.767      230.407,183.767 220.64,213.677    "/>
			<polygon style="fill:#CCCCCC;" points="254.2,227.1 220.64,213.677 220.64,147.767 249.65,147.767 283.13,162.107      283.13,213.677    "/>
		</g>
		<g>
			<path style="fill:#666666;" d="M187.195,221.18c-4.143,0-7.5-3.358-7.5-7.5v-21c0-4.142,3.357-7.5,7.5-7.5s7.5,3.358,7.5,7.5v21     C194.695,217.822,191.338,221.18,187.195,221.18z"/>
			<path style="fill:#666666;" d="M254.195,221.18c-4.143,0-7.5-3.358-7.5-7.5v-21c0-4.142,3.357-7.5,7.5-7.5     c4.143,0,7.5,3.358,7.5,7.5v21C261.695,217.822,258.338,221.18,254.195,221.18z"/>
		</g>
		<path style="fill:#F2F2F2;" d="M220.96,61.763l16.19,41.58l-0.77,2.87c-5.01-1.29-10.27-1.98-15.68-1.98    c-5.4,0-10.64,0.68-15.64,1.97l-0.29-2.86L220.96,61.763z"/>
		<path style="fill:#CCCCCC;" d="M343.24,213.677l-24.167,8.09l-21.923-8.09c0-12.72,10.32-23.04,23.05-23.04    C332.92,190.637,343.24,200.957,343.24,213.677z"/>
		<path style="fill:#CCCCCC;" d="M144.24,213.677l-25.833,6.757l-20.257-6.757c0-12.72,10.32-23.04,23.05-23.04    C133.92,190.637,144.24,200.957,144.24,213.677z"/>
		<rect x="27.421" y="239.667" style="fill:#B3B3B3;" width="386.549" height="160"/>
		<path style="fill:#3B9DFF;" d="M424.84,96.607c2.79,2.78,4.51,6.62,4.51,10.87c0,8.49-6.89,15.37-15.38,15.37h-88.74    c-4.25,0-8.09-1.72-10.87-4.5s-4.5-6.62-4.5-10.87c0-8.49,6.88-15.37,15.37-15.37h-22.25c-4.24,0-8.09-1.72-10.87-4.51    c-2.78-2.78-4.5-6.63-4.5-10.87c0-8.49,6.88-15.37,15.37-15.37h53c4.24,0,8.09,1.72,10.87,4.5c2.79,2.78,4.51,6.63,4.51,10.87    c0,8.49-6.89,15.38-15.38,15.38h57.99C418.22,92.107,422.06,93.827,424.84,96.607z"/>
		<polygon style="fill:#E6E6E6;" points="359.7,399.667 78.7,399.667 82.67,388.437 87.62,374.407 112.2,374.407 112.2,259.337     133.2,259.337 133.2,374.407 177.53,374.407 177.53,259.337 198.53,259.337 198.53,374.407 242.86,374.407 242.86,259.337     263.86,259.337 263.86,374.407 308.2,374.407 308.2,259.337 329.2,259.337 329.2,374.407 350.78,374.407 355.73,388.437   "/>
		<path style="fill:#E6E6E6;" d="M413.969,213.677v45.66H329.2H27.421v-45.66H38.65c0-12.72,10.32-23.04,23.05-23.04    c12.72,0,23.04,10.32,23.04,23.04h13.41h46.09h13.91h29.05h33.44h33.56h28.93h14.02h46.09h13.41c0-12.72,10.32-23.04,23.05-23.04    c12.72,0,23.04,10.32,23.04,23.04H413.969z"/>
		<polygon style="fill:#F2F2F2;" points="302.049,259.337 276.088,259.337 249.139,259.337 192.251,259.337 165.302,259.337     139.341,259.337 220.701,223.097   "/>
		<path style="fill:#E6E6E6;" d="M236.38,101.547c-5.01-1.29-10.27-1.98-15.68-1.98c-5.4,0-10.64,0.68-15.64,1.97    c-26.98,6.94-46.91,31.43-46.91,60.57h33.59h28.9h29.01h33.48h0.11C283.24,132.977,263.33,108.507,236.38,101.547z"/>
		<path style="fill:#F2F2F2;" d="M249.65,162.107h-29.01h-28.9c0-34.54,12.97-62.54,28.96-62.54S249.65,127.567,249.65,162.107z"/>
		<path style="fill:#FFD039;" d="M100.835,14.827c-27.75,0-50.24,22.5-50.24,50.25s22.49,50.25,50.24,50.25    c27.76,0,50.25-22.5,50.25-50.25S128.595,14.827,100.835,14.827z"/>
		<g>
			<path style="fill:#666666;" d="M398.865,328.897v45.51h-26.34v-45.51c0-7.28,5.9-13.17,13.17-13.17     C392.975,315.727,398.865,321.617,398.865,328.897z"/>
			<path style="fill:#666666;" d="M68.865,328.897v45.51h-26.34v-45.51c0-7.28,5.9-13.17,13.17-13.17     C62.975,315.727,68.865,321.617,68.865,328.897z"/>
		</g>
		<path style="fill:#EAB932;" d="M100.84,14.823c27.75,0,50.24,22.5,50.24,50.25s-22.49,50.25-50.24,50.25s-50.25-22.5-50.25-50.25    S73.09,14.823,100.84,14.823z"/>
		<path style="fill:#FFD039;" d="M151.08,65.073c0,27.75-22.49,50.25-50.24,50.25c-6.12,0-11.98-1.09-17.4-3.1    c-2.01-5.42-3.1-11.28-3.1-17.4c0-27.75,22.49-50.25,50.25-50.25c6.11,0,11.97,1.09,17.39,3.09    C149.99,53.093,151.08,58.953,151.08,65.073z"/>
		<rect x="112.2" y="259.337" style="fill:#CCCCCC;" width="21" height="10"/>
		<rect x="177.53" y="259.337" style="fill:#CCCCCC;" width="21" height="10"/>
		<rect x="242.86" y="259.337" style="fill:#CCCCCC;" width="21" height="10"/>
		<rect x="308.2" y="259.337" style="fill:#CCCCCC;" width="21" height="10"/>
		<g>
			<circle style="fill:#666666;" cx="379.945" cy="212.097" r="7.5"/>
			<circle style="fill:#666666;" cx="61.445" cy="212.097" r="7.5"/>
		</g>
	</g>
	<polygon style="fill:#F2F2F2;" points="359.7,399.667 78.7,399.667 82.67,388.437 355.73,388.437  "/>
	<g>
		<path style="fill:#E6E6E6;" d="M439.48,424.657H0c0-4.7,1.27-9.11,3.5-12.89c4.42-7.55,12.62-12.61,22-12.61h388.48    c7.04,0,13.42,2.85,18.03,7.47c1.53,1.53,2.87,3.26,3.97,5.14C438.2,415.547,439.48,419.957,439.48,424.657z"/>
		<path style="fill:#B3B3B3;" d="M439.48,424.657H0c0-4.7,1.27-9.11,3.5-12.89h432.48C438.2,415.547,439.48,419.957,439.48,424.657z    "/>
	</g>
</g>















</svg>
