<?xml version="1.0" encoding="iso-8859-1"?>
<!-- Generator: Adobe Illustrator 19.0.0, SVG Export Plug-In . SVG Version: 6.00 Build 0)  -->
<svg xmlns="http://www.w3.org/2000/svg" xmlns:xlink="http://www.w3.org/1999/xlink" version="1.1" id="Layer_1" x="0px" y="0px" viewBox="0 0 439.48 439.48" style="enable-background:new 0 0 439.48 439.48;" xml:space="preserve" width="512" height="512">
<g>
	<path style="fill:#EAB932;" d="M310.353,145.192c27.75,0,50.24-22.5,50.24-50.25s-22.49-50.25-50.24-50.25s-50.25,22.5-50.25,50.25   S282.603,145.192,310.353,145.192z"/>
	<path style="fill:#FFD039;" d="M360.593,94.942c0-27.75-22.49-50.25-50.24-50.25c-6.12,0-11.98,1.09-17.4,3.1   c-2.01,5.42-3.1,11.28-3.1,17.4c0,27.75,22.49,50.25,50.25,50.25c6.11,0,11.97-1.09,17.39-3.09   C359.503,106.922,360.593,101.062,360.593,94.942z"/>
	<g>
		<rect x="208.737" y="179.318" style="fill:#ED2E2E;" width="22.006" height="108.426"/>
		<path style="fill:#CCCCCC;" d="M402.733,372.11H36.753c0,0,37.72-15.45,77.89-38.61c32.81-18.9,67.24-42.94,84.1-67.88h42    c16.85,24.94,51.29,48.99,84.1,67.89C365.013,356.66,402.733,372.11,402.733,372.11z"/>
		<path style="fill:#CCCCCC;" d="M253.74,180.372c0,8.836,7.163,16,16,16c8.626,0,15.638-6.831,15.969-15.375    c3.687,1.758,7.88,2.624,12.304,2.312c12.068-0.851,21.857-10.671,22.67-22.741c0.474-7.031-2.023-13.481-6.357-18.222    c3.313-2.932,5.414-7.203,5.414-11.975c0-8.836-7.163-16-16-16c-0.522,0-1.038,0.029-1.547,0.078    c1.304-3.488,1.841-7.349,1.39-11.385c-1.307-11.683-11.046-20.916-22.78-21.645c-7.032-0.437-13.471,2.098-18.192,6.465    c-3.823-8.551-12.398-14.513-22.371-14.513c-8.579,0-16.124,4.413-20.5,11.089c-4.376-6.676-11.921-11.089-20.5-11.089    c-9.973,0-18.548,5.962-22.371,14.513c-4.721-4.367-11.16-6.901-18.192-6.465c-11.734,0.729-21.473,9.961-22.78,21.645    c-0.451,4.035,0.086,7.897,1.39,11.385c-0.51-0.049-1.025-0.078-1.547-0.078c-8.837,0-16,7.164-16,16    c0,4.772,2.1,9.043,5.414,11.975c-4.334,4.741-6.83,11.19-6.357,18.222c0.813,12.07,10.603,21.89,22.67,22.741    c4.424,0.312,8.617-0.554,12.304-2.312c0.331,8.544,7.343,15.375,15.969,15.375c8.837,0,16-7.164,16-16l1.948,3.146    c6.872,11.1,18.998,17.854,32.052,17.854h0c13.055,0,25.181-6.754,32.052-17.854L253.74,180.372z"/>
		<path style="fill:#D82525;" d="M198.741,257.871c-2.485,0-4.5-2.015-4.5-4.5v-41c0-2.485,2.015-4.5,4.5-4.5s4.5,2.015,4.5,4.5v41    C203.241,255.857,201.227,257.871,198.741,257.871z"/>
		<path style="fill:#D82525;" d="M240.739,257.871c-2.485,0-4.5-2.015-4.5-4.5v-41c0-2.485,2.015-4.5,4.5-4.5s4.5,2.015,4.5,4.5v41    C245.239,255.857,243.225,257.871,240.739,257.871z"/>
		<path style="fill:none;stroke:#808080;stroke-width:7;stroke-linecap:round;stroke-miterlimit:10;" d="M163.275,150.049    c-4.882-4.882-4.882-12.796,0-17.678c4.882-4.882,12.796-4.882,17.678,0"/>
		<path style="fill:none;stroke:#808080;stroke-width:7;stroke-linecap:round;stroke-miterlimit:10;" d="M247.741,130.473    c7.255-7.255,19.017-7.255,26.271,0c7.255,7.255,7.255,19.017,0,26.271"/>
		<path style="fill:#B3B3B3;" d="M290.713,345.91c-0.99-0.33-32.83-11.32-54.23-40.92c0,0-12.74,42.93-16.74,54.93    c-4-12-16.75-54.93-16.75-54.93c-21.4,29.6-53.24,40.59-54.23,40.92c13.99-11.01,27.98-33.99,27.98-33.99    c-21.4,12.01-53.96,19.76-62.1,21.58c32.81-18.9,67.24-42.94,84.1-67.88h42c16.85,24.94,51.29,48.99,84.1,67.89    c-8.13-1.82-40.7-9.58-62.11-21.59C262.733,311.92,276.723,334.9,290.713,345.91z"/>
	</g>
	<g>
		<path style="fill:#0FBC30;" d="M439.48,394.788H0c0-4.43,1.13-8.59,3.12-12.22c1.17-2.14,2.64-4.09,4.35-5.8    c4.61-4.62,10.99-7.47,18.03-7.47h388.48c9.65,0,18.05,5.36,22.38,13.27C438.35,386.198,439.48,390.358,439.48,394.788z"/>
		<path style="fill:#07A521;" d="M439.48,394.788H0c0-4.43,1.13-8.59,3.12-12.22h433.24    C438.35,386.198,439.48,390.358,439.48,394.788z"/>
	</g>
</g>















</svg>
