<?xml version="1.0" encoding="iso-8859-1"?>
<!-- Generator: Adobe Illustrator 19.0.0, SVG Export Plug-In . SVG Version: 6.00 Build 0)  -->
<svg xmlns="http://www.w3.org/2000/svg" xmlns:xlink="http://www.w3.org/1999/xlink" version="1.1" id="Layer_1" x="0px" y="0px" viewBox="0 0 439.48 439.48" style="enable-background:new 0 0 439.48 439.48;" xml:space="preserve" width="512" height="512">
<g>
	<g>
		<path style="fill:#3B9DFF;" d="M315.172,270.066v99.236c-2.264-0.392-4.611-0.588-7.018-0.588c-5.809,0-11.258,1.176-16.013,3.22    c-5.917-4.694-14.18-7.615-23.343-7.615c-14.791,0-27.271,7.615-31.259,18.048c-4.252-2.781-9.725-4.461-15.713-4.461    c-3.689,0-7.174,0.653-10.3,1.792c-3.102-7.764-12.396-13.401-23.379-13.401c-8.779,0-16.444,3.611-20.768,9.015    c-5.869-4.097-13.606-6.598-22.109-6.598c-5.138,0-10.013,0.915-14.348,2.538l-0.587-1.848v-99.339H315.172z"/>
		<path style="fill:#B3B3B3;" d="M410.472,256.97v136.681H305.219c1.333-2.947,2.067-6.219,2.067-9.662    c0-11.327-7.979-20.793-18.614-23.082v-92.559c0-4.878,4.434-8.56,9.235-7.671l46.352,8.611l4.083-16.308L410.472,256.97z"/>
		<path style="fill:#B3B3B3;" d="M143.876,383.989c0,3.443,0.735,6.714,2.076,9.662H35.044V256.97l62.13-3.989l4.083,16.308    l46.352-8.611c4.792-0.888,9.226,2.793,9.226,7.671v92.652l0.419,1.691C149.344,366.511,143.876,374.609,143.876,383.989z"/>
		<path style="fill:#CCCCCC;" d="M156.835,268.349v68.383l-34.025,7.466l-1.717-21.741l-86.049,18.939V256.97l62.13-3.989    l4.083,16.308l46.352-8.611C152.402,259.789,156.835,263.471,156.835,268.349z"/>
		<path style="fill:#CCCCCC;" d="M410.472,256.97v65l-83.221-25.704l-2.836,13.762l-35.742-0.444v-41.235    c0-4.878,4.434-8.56,9.235-7.671l46.352,8.611l4.083-16.308L410.472,256.97z"/>
		<path style="fill:#F2F2F2;" d="M297.905,356.321c12.45,2.68,21.79,13.76,21.79,27.02c0,4.03-0.86,7.86-2.42,11.31h-186.44    c-1.57-3.45-2.43-7.28-2.43-11.31c0-10.98,6.4-20.46,15.66-24.93c3.62-1.74,7.69-2.72,11.98-2.72c7.1,0,13.56,2.68,18.46,7.07    c3.61-5.79,10.01-9.66,17.34-9.66c9.17,0,16.93,6.04,19.52,14.36c2.61-1.22,5.52-1.92,8.6-1.92c5,0,9.57,1.8,13.12,4.78    c3.33-11.18,13.75-19.34,26.1-19.34c7.65,0,14.55,3.13,19.49,8.16c3.97-2.19,8.52-3.45,13.37-3.45    C294.055,355.691,296.015,355.901,297.905,356.321z"/>
		<path style="fill:#EAB932;" d="M399.015,73.581c0,27.75-22.49,50.25-50.24,50.25c-6.12,0-11.98-1.09-17.4-3.1    c-19.18-7.07-32.85-25.52-32.85-47.15c0-27.75,22.49-50.25,50.25-50.25c21.63,0,40.06,13.67,47.14,32.84    C397.925,61.6,399.015,67.46,399.015,73.581z"/>
		<path style="fill:#FFD039;" d="M399.015,73.581c0,27.75-22.49,50.25-50.24,50.25c-6.12,0-11.98-1.09-17.4-3.1    c-2.01-5.42-3.1-11.28-3.1-17.4c0-27.75,22.49-50.25,50.25-50.25c6.11,0,11.97,1.09,17.39,3.09    C397.925,61.6,399.015,67.46,399.015,73.581z"/>
	</g>
	<g>
		<path style="fill:#0FBC30;" d="M439.48,416.149H0c0-4.43,1.13-8.59,3.12-12.22c1.17-2.14,2.64-4.09,4.35-5.8    c4.61-4.62,10.99-7.47,18.03-7.47h388.48c9.65,0,18.05,5.36,22.38,13.27C438.35,407.559,439.48,411.719,439.48,416.149z"/>
		<path style="fill:#07A521;" d="M439.48,416.149H0c0-4.43,1.13-8.59,3.12-12.22h433.24    C438.35,407.559,439.48,411.719,439.48,416.149z"/>
	</g>
	<g>
		<path style="fill:#F2F2F2;" d="M174.902,330.203c-2.209,0-4-1.791-4-4V284.87c0-2.209,1.791-4,4-4s4,1.791,4,4v41.333    C178.902,328.412,177.111,330.203,174.902,330.203z"/>
		<path style="fill:#F2F2F2;" d="M201.569,347.536c-2.209,0-4-1.791-4-4V310.87c0-2.209,1.791-4,4-4s4,1.791,4,4v32.667    C205.569,345.745,203.778,347.536,201.569,347.536z"/>
		<path style="fill:#F2F2F2;" d="M240.902,336.87c-2.209,0-4-1.791-4-4v-48.667c0-2.209,1.791-4,4-4s4,1.791,4,4v48.667    C244.902,335.079,243.111,336.87,240.902,336.87z"/>
		<path style="fill:#F2F2F2;" d="M269.575,305.535c-0.271,0-0.53-0.02-0.79-0.08c-0.25-0.05-0.5-0.13-0.75-0.23    c-0.24-0.1-0.471-0.22-0.69-0.36c-0.22-0.15-0.42-0.32-0.6-0.5c-0.75-0.74-1.181-1.78-1.181-2.83c0-0.26,0.03-0.52,0.08-0.78    c0.051-0.26,0.131-0.51,0.23-0.75c0.1-0.24,0.22-0.47,0.37-0.69c0.14-0.22,0.31-0.42,0.5-0.61c0.18-0.18,0.38-0.35,0.6-0.49    c0.22-0.15,0.45-0.27,0.69-0.37s0.5-0.18,0.75-0.23c0.52-0.1,1.05-0.1,1.569,0c0.25,0.05,0.5,0.13,0.74,0.23    c0.25,0.1,0.48,0.22,0.69,0.37c0.22,0.14,0.43,0.31,0.609,0.49c0.75,0.75,1.17,1.78,1.17,2.83c0,1.05-0.42,2.08-1.17,2.83    c-0.18,0.18-0.39,0.35-0.609,0.5c-0.21,0.14-0.44,0.26-0.69,0.36c-0.24,0.1-0.49,0.18-0.74,0.23    C270.095,305.515,269.835,305.535,269.575,305.535z"/>
		<path style="fill:#F2F2F2;" d="M269.569,344.87c-2.209,0-4-1.791-4-4v-15.333c0-2.209,1.791-4,4-4s4,1.791,4,4v15.333    C273.569,343.079,271.778,344.87,269.569,344.87z"/>
	</g>
	<path style="fill:#666666;" d="M125.919,98.284c-0.537,0.636-1.039,1.296-1.508,1.977c-1.005-1.486-2.146-2.875-3.443-4.094   c-6.334-5.954-14.966-9.021-23.547-6.685c2.593,0.995,5.167,1.807,7.585,3.208c3.423,1.984,6.505,4.539,8.906,7.699   c1.694,2.229,3.109,4.744,4.02,7.398c0.739,2.153,1.261,4.43,1.415,6.706c0.028,0.408-0.148,1.465,0.067,1.809   c0.012,0.019,0.01,0.02,0.018,0.034c-0.002,0.098-0.014,0.195-0.015,0.292c-0.045,3.215,2.923,5.751,6.107,5.034   c2.622-0.59,3.835-2.854,3.853-5.316c0.234-0.58,0.229-2.82,0.315-3.476c0.811-6.127,3.895-11.518,8.24-15.799   c1.906-1.878,4.199-3.512,6.57-4.733c2.251-1.16,4.553-1.959,6.916-2.857C141.928,86.833,132.107,90.948,125.919,98.284z"/>
</g>















</svg>
