<?xml version="1.0" encoding="iso-8859-1"?>
<!-- Generator: Adobe Illustrator 19.0.0, SVG Export Plug-In . SVG Version: 6.00 Build 0)  -->
<svg xmlns="http://www.w3.org/2000/svg" xmlns:xlink="http://www.w3.org/1999/xlink" version="1.1" id="Layer_1" x="0px" y="0px" viewBox="0 0 439.48 439.48" style="enable-background:new 0 0 439.48 439.48;" xml:space="preserve" width="512" height="512">
<g>
	<path style="fill:#9B6121;" d="M217.74,325.961v41c0,2.49-2.01,4.5-4.5,4.5s-4.5-2.01-4.5-4.5v-41c0-2.48,2.01-4.5,4.5-4.5   S217.74,323.481,217.74,325.961z"/>
	<path style="fill:#9B6121;" d="M258.98,325.961v41c0,2.49-2.01,4.5-4.5,4.5c-2.49,0-4.5-2.01-4.5-4.5v-41c0-2.48,2.01-4.5,4.5-4.5   C256.97,321.461,258.98,323.481,258.98,325.961z"/>
	<path style="fill:#9B6121;" d="M37.74,325.961v41c0,2.49-2.01,4.5-4.5,4.5s-4.5-2.01-4.5-4.5v-41c0-2.48,2.01-4.5,4.5-4.5   S37.74,323.481,37.74,325.961z"/>
	<rect x="292.24" y="306.701" style="fill:#EAB932;" width="52.5" height="60"/>
	<rect x="334.24" y="307.701" style="fill:#FFD039;" width="80" height="59"/>
	<path style="fill:#562F15;" d="M217.74,325.961v14.21c-1.03,0.19-2.1,0.29-3.19,0.29h-2.61c-1.09,0-2.16-0.1-3.2-0.29v-14.21   c0-2.48,2.01-4.5,4.5-4.5S217.74,323.481,217.74,325.961z"/>
	<path style="fill:#562F15;" d="M258.98,325.961v14.21c-1.03,0.19-2.1,0.29-3.19,0.29h-2.61c-1.09,0-2.16-0.1-3.2-0.29v-14.21   c0-2.48,2.01-4.5,4.5-4.5C256.97,321.461,258.98,323.481,258.98,325.961z"/>
	<path style="fill:#562F15;" d="M37.74,325.961v14.21c-1.03,0.19-2.1,0.29-3.19,0.29h-2.61c-1.09,0-2.16-0.1-3.2-0.29v-14.21   c0-2.48,2.01-4.5,4.5-4.5S37.74,323.481,37.74,325.961z"/>
	<path style="fill:#3B9DFF;" d="M120.24,120.961c-28.72,0-52,23.29-52,52v99h104v-99C172.24,144.251,148.96,120.961,120.24,120.961z   "/>
	<path style="fill:#1E79C4;" d="M120.24,120.961c-28.72,0-52,23.29-52,52v99h42v-99c0-21.24,12.74-39.51,31-47.58   C134.82,122.541,127.71,120.961,120.24,120.961z"/>
	<path style="fill:#9B6121;" d="M175.06,267.831c-1.37-0.93-3.11-1.13-4.65-0.52l-17.73,6.99l-25.36,10l-7.08,2.79l-7.08-2.79   l-25.35-10l-17.73-6.99c-1.54-0.6-3.28-0.41-4.65,0.52c-1.37,0.93-2.19,2.48-2.19,4.13v93h10v-4.59l47-18.53l47,18.53v4.59h10v-93   C177.24,270.311,176.42,268.761,175.06,267.831z M73.24,279.311l12.66,4.99l20.71,8.16l-33.37,13.16V279.311z M73.24,349.621   v-26.31l33.37,13.15L73.24,349.621z M78.07,314.461l42.17-16.62l42.17,16.62l-42.17,16.63L78.07,314.461z M167.24,349.621   l-33.37-13.16l33.37-13.15V349.621z M167.24,305.621l-33.37-13.16l20.71-8.16l12.66-4.99V305.621z"/>
	<polygon style="fill:#562F15;" points="177.24,274.301 177.24,284.301 167.24,284.301 167.24,279.311 154.58,284.301 85.9,284.301    73.24,279.311 73.24,284.301 63.24,284.301 63.24,274.301  "/>
	<path style="fill:#9B6121;" d="M185.98,276.965H54.504c-2.761,0-5-2.239-5-5s2.239-5,5-5H185.98c2.761,0,5,2.239,5,5   S188.741,276.965,185.98,276.965z"/>
	<rect x="334.24" y="307.701" style="fill:#EAB932;" width="80" height="13"/>
	<g>
		<path style="fill:#0FBC30;" d="M439.48,389.989H0c0-4.43,1.13-8.59,3.12-12.22c1.17-2.14,2.64-4.09,4.35-5.8    c4.61-4.62,10.99-7.47,18.03-7.47h388.48c9.65,0,18.05,5.36,22.38,13.27C438.35,381.399,439.48,385.559,439.48,389.989z"/>
		<path style="fill:#07A521;" d="M439.48,389.989H0c0-4.43,1.13-8.59,3.12-12.22h433.24    C438.35,381.399,439.48,385.559,439.48,389.989z"/>
	</g>
	<polygon style="fill:#ED2E2E;" points="394.583,275.961 371.573,275.961 308.583,275.961 282.733,313.701 287.573,313.701    329.573,313.701 334.423,313.701 409.573,313.701 420.423,313.701  "/>
	<polygon style="fill:#D82525;" points="308.583,275.961 334.423,313.701 329.573,313.701 287.573,313.701 282.733,313.701  "/>
	<rect x="364.075" y="256.965" style="fill:#CCCCCC;" width="15" height="31"/>
	<rect x="304.48" y="326.621" style="fill:#3B9DFF;" width="16.5" height="22"/>
	<rect x="349.48" y="326.621" style="fill:#3B9DFF;" width="16.5" height="22"/>
	<rect x="381.98" y="326.621" style="fill:#3B9DFF;" width="16.5" height="22"/>
	<path style="fill:#1E79C4;" d="M172.313,179.287H67.647c-2.761,0-5-2.239-5-5v0c0-2.761,2.239-5,5-5h104.667c2.761,0,5,2.239,5,5v0   C177.313,177.049,175.075,179.287,172.313,179.287z"/>
	<path style="fill:#1E79C4;" d="M172.313,245.954H67.647c-2.761,0-5-2.239-5-5v0c0-2.761,2.239-5,5-5h104.667c2.761,0,5,2.239,5,5v0   C177.313,243.715,175.075,245.954,172.313,245.954z"/>
	<path style="fill:#0FBC30;" d="M232.485,313.325c0.669,10.367-7.553,19.136-17.934,19.136h-2.609   c-10.394,0-18.617-8.769-17.947-19.136l1.311-20.051c0.615-9.452,8.455-16.814,17.934-16.814s17.333,7.362,17.947,16.814   L232.485,313.325z"/>
	<path style="fill:#0FBC30;" d="M273.725,313.325c0.669,10.367-7.553,19.136-17.934,19.136h-2.609   c-10.394,0-18.617-8.769-17.947-19.136l1.311-20.051c0.615-9.452,8.455-16.814,17.934-16.814c9.479,0,17.333,7.362,17.947,16.814   L273.725,313.325z"/>
	<path style="fill:#0FBC30;" d="M52.485,313.325c0.669,10.367-7.553,19.136-17.934,19.136h-2.609   c-10.394,0-18.617-8.769-17.947-19.136l1.311-20.051c0.615-9.452,8.455-16.814,17.934-16.814s17.333,7.362,17.947,16.814   L52.485,313.325z"/>
	<path style="fill:#EAB932;" d="M341.74,49.491c-27.75,0-50.24,22.5-50.24,50.25s22.49,50.25,50.24,50.25s50.25-22.5,50.25-50.25   S369.49,49.491,341.74,49.491z"/>
	<path style="fill:#FFD039;" d="M291.5,99.741c0,27.75,22.49,50.25,50.24,50.25c6.12,0,11.98-1.09,17.4-3.1   c2.01-5.42,3.1-11.28,3.1-17.4c0-27.75-22.49-50.25-50.25-50.25c-6.11,0-11.97,1.09-17.39,3.09   C292.59,87.761,291.5,93.621,291.5,99.741z"/>
</g>















</svg>
